<?xml version="1.0" encoding="UTF-8" standalone="no"?>
<!DOCTYPE svg PUBLIC "-//W3C//DTD SVG 1.1//EN"
 "http://www.w3.org/Graphics/SVG/1.1/DTD/svg11.dtd">
<!-- Generated by graphviz version 2.43.0 (0)
 -->
<!-- Title: src/Modules/buttons.h Pages: 1 -->
<svg width="508pt" height="148pt"
 viewBox="0.00 0.00 508.00 148.00" xmlns="http://www.w3.org/2000/svg" xmlns:xlink="http://www.w3.org/1999/xlink">
<g id="graph0" class="graph" transform="scale(1 1) rotate(0) translate(4 144)">
<title>src/Modules/buttons.h</title>
<!-- Node1 -->
<g id="Node000001" class="node">
<title>Node1</title>
<g id="a_Node000001"><a xlink:title=" ">
<polygon fill="#999999" stroke="#666666" points="308.5,-140 184.5,-140 184.5,-121 308.5,-121 308.5,-140"/>
<text text-anchor="middle" x="246.5" y="-128" font-family="Helvetica,sans-Serif" font-size="10.00">src/Modules/buttons.h</text>
</a>
</g>
</g>
<!-- Node2 -->
<g id="Node000002" class="node">
<title>Node2</title>
<g id="a_Node000002"><a xlink:href="buttons_8cpp.html" target="_top" xlink:title=" ">
<polygon fill="white" stroke="#666666" points="135,-24.5 0,-24.5 0,-5.5 135,-5.5 135,-24.5"/>
<text text-anchor="middle" x="67.5" y="-12.5" font-family="Helvetica,sans-Serif" font-size="10.00">src/Modules/buttons.cpp</text>
</a>
</g>
</g>
<!-- Node1&#45;&gt;Node2 -->
<g id="edge1_Node000001_Node000002" class="edge">
<title>Node1&#45;&gt;Node2</title>
<g id="a_edge1_Node000001_Node000002"><a xlink:title=" ">
<path fill="none" stroke="#63b8ff" d="M221.49,-115.91C206.04,-107.35 185.9,-95.89 168.5,-85 135.55,-64.39 98.1,-37.99 79.42,-24.61"/>
<polygon fill="#63b8ff" stroke="#63b8ff" points="219.99,-119.08 230.44,-120.84 223.37,-112.95 219.99,-119.08"/>
</a>
</g>
</g>
<!-- Node3 -->
<g id="Node000003" class="node">
<title>Node3</title>
<g id="a_Node000003"><a xlink:href="display__ui_8h.html" target="_top" xlink:title=" ">
<polygon fill="white" stroke="#666666" points="315,-85 178,-85 178,-66 315,-66 315,-85"/>
<text text-anchor="middle" x="246.5" y="-73" font-family="Helvetica,sans-Serif" font-size="10.00">src/Modules/display_ui.h</text>
</a>
</g>
</g>
<!-- Node1&#45;&gt;Node3 -->
<g id="edge2_Node000001_Node000003" class="edge">
<title>Node1&#45;&gt;Node3</title>
<g id="a_edge2_Node000001_Node000003"><a xlink:title=" ">
<path fill="none" stroke="#63b8ff" d="M240.01,-110.66C239.41,-101.93 239.86,-91.99 241.37,-85.09"/>
<polygon fill="#63b8ff" stroke="#63b8ff" points="236.56,-111.29 241.33,-120.75 243.5,-110.38 236.56,-111.29"/>
</a>
</g>
</g>
<!-- Node5 -->
<g id="Node000005" class="node">
<title>Node5</title>
<g id="a_Node000005"><a xlink:href="leds_8cpp.html" target="_top" xlink:title=" ">
<polygon fill="white" stroke="#666666" points="403,-24.5 284,-24.5 284,-5.5 403,-5.5 403,-24.5"/>
<text text-anchor="middle" x="343.5" y="-12.5" font-family="Helvetica,sans-Serif" font-size="10.00">src/Modules/leds.cpp</text>
</a>
</g>
</g>
<!-- Node1&#45;&gt;Node5 -->
<g id="edge8_Node000001_Node000005" class="edge">
<title>Node1&#45;&gt;Node5</title>
<g id="a_edge8_Node000001_Node000005"><a xlink:title=" ">
<path fill="none" stroke="#63b8ff" d="M280.94,-116.56C295.95,-109.35 312.57,-98.96 323.5,-85 337.8,-66.74 341.88,-38.59 343.04,-24.56"/>
<polygon fill="#63b8ff" stroke="#63b8ff" points="279.08,-113.56 271.39,-120.85 281.95,-119.95 279.08,-113.56"/>
</a>
</g>
</g>
<!-- Node6 -->
<g id="Node000006" class="node">
<title>Node6</title>
<g id="a_Node000006"><a xlink:href="main_8cpp.html" target="_top" xlink:title=" ">
<polygon fill="white" stroke="#666666" points="500,-24.5 421,-24.5 421,-5.5 500,-5.5 500,-24.5"/>
<text text-anchor="middle" x="460.5" y="-12.5" font-family="Helvetica,sans-Serif" font-size="10.00">src/main.cpp</text>
</a>
</g>
</g>
<!-- Node1&#45;&gt;Node6 -->
<g id="edge9_Node000001_Node000006" class="edge">
<title>Node1&#45;&gt;Node6</title>
<g id="a_edge9_Node000001_Node000006"><a xlink:title=" ">
<path fill="none" stroke="#63b8ff" d="M276.1,-116.87C295.51,-108.35 321.3,-96.6 343.5,-85 381.96,-64.91 425.57,-38.05 447.07,-24.54"/>
<polygon fill="#63b8ff" stroke="#63b8ff" points="274.63,-113.69 266.85,-120.89 277.42,-120.11 274.63,-113.69"/>
</a>
</g>
</g>
<!-- Node3&#45;&gt;Node1 -->
<g id="edge4_Node000003_Node000001" class="edge">
<title>Node3&#45;&gt;Node1</title>
<g id="a_edge4_Node000003_Node000001"><a xlink:title=" ">
<path fill="none" stroke="#63b8ff" d="M252.98,-95.13C253.6,-103.85 253.16,-113.8 251.67,-120.75"/>
<polygon fill="#63b8ff" stroke="#63b8ff" points="256.43,-94.53 251.63,-85.09 249.49,-95.47 256.43,-94.53"/>
</a>
</g>
</g>
<!-- Node3&#45;&gt;Node2 -->
<g id="edge3_Node000003_Node000002" class="edge">
<title>Node3&#45;&gt;Node2</title>
<g id="a_edge3_Node000003_Node000002"><a xlink:title=" ">
<path fill="none" stroke="#63b8ff" d="M210.75,-62.82C176.13,-51.5 124.46,-34.62 93.56,-24.52"/>
<polygon fill="#63b8ff" stroke="#63b8ff" points="209.88,-66.21 220.47,-65.99 212.05,-59.56 209.88,-66.21"/>
</a>
</g>
</g>
<!-- Node4 -->
<g id="Node000004" class="node">
<title>Node4</title>
<g id="a_Node000004"><a xlink:href="display__ui_8cpp.html" target="_top" xlink:title=" ">
<polygon fill="white" stroke="#666666" points="266,-30 153,-30 153,0 266,0 266,-30"/>
<text text-anchor="start" x="161" y="-18" font-family="Helvetica,sans-Serif" font-size="10.00">src/Modules/display</text>
<text text-anchor="middle" x="209.5" y="-7" font-family="Helvetica,sans-Serif" font-size="10.00">_ui.cpp</text>
</a>
</g>
</g>
<!-- Node3&#45;&gt;Node4 -->
<g id="edge5_Node000003_Node000004" class="edge">
<title>Node3&#45;&gt;Node4</title>
<g id="a_edge5_Node000003_Node000004"><a xlink:title=" ">
<path fill="none" stroke="#63b8ff" d="M235.64,-57.33C230.16,-48.67 223.61,-38.3 218.43,-30.11"/>
<polygon fill="#63b8ff" stroke="#63b8ff" points="232.74,-59.29 241.04,-65.87 238.65,-55.55 232.74,-59.29"/>
</a>
</g>
</g>
<!-- Node3&#45;&gt;Node5 -->
<g id="edge6_Node000003_Node000005" class="edge">
<title>Node3&#45;&gt;Node5</title>
<g id="a_edge6_Node000003_Node000005"><a xlink:title=" ">
<path fill="none" stroke="#63b8ff" d="M269.52,-60.62C288.01,-49.46 313.42,-34.14 329.13,-24.67"/>
<polygon fill="#63b8ff" stroke="#63b8ff" points="267.57,-57.71 260.81,-65.87 271.18,-63.7 267.57,-57.71"/>
</a>
</g>
</g>
<!-- Node3&#45;&gt;Node6 -->
<g id="edge7_Node000003_Node000006" class="edge">
<title>Node3&#45;&gt;Node6</title>
<g id="a_edge7_Node000003_Node000006"><a xlink:title=" ">
<path fill="none" stroke="#63b8ff" d="M289.25,-63.32C322.82,-54.47 370.71,-41.7 412.5,-30 418.69,-28.27 425.31,-26.37 431.59,-24.54"/>
<polygon fill="#63b8ff" stroke="#63b8ff" points="288.09,-60 279.31,-65.93 289.88,-66.77 288.09,-60"/>
</a>
</g>
</g>
</g>
</svg>
