<?xml version="1.0" encoding="UTF-8" standalone="no"?>
<!DOCTYPE svg PUBLIC "-//W3C//DTD SVG 1.1//EN"
 "http://www.w3.org/Graphics/SVG/1.1/DTD/svg11.dtd">
<!-- Generated by graphviz version 2.43.0 (0)
 -->
<!-- Title: display Pages: 1 -->
<!--zoomable 411 -->

<svg id="main" version="1.1" xmlns="http://www.w3.org/2000/svg" xmlns:xlink="http://www.w3.org/1999/xlink" xml:space="preserve" onload="init(evt)">
<style type="text/css"><![CDATA[
.node, .edge {opacity: 0.7;}
.node.selected, .edge.selected {opacity: 1;}
.edge:hover path { stroke: red; }
.edge:hover polygon { stroke: red; fill: red; }
]]></style>

<defs>
  <circle id="rim" cx="0" cy="0" r="7"/>
  <circle id="rim2" cx="0" cy="0" r="3.5"/>
  <g id="zoomPlus">
    <use xlink:href="#rim" fill="#404040"><set attributeName="fill" to="#808080" begin="zoomplus.mouseover" end="zoomplus.mouseout"/></use>
    <path d="M-4,0h8M0,-4v8" fill="none" stroke="white" stroke-width="1.5" pointer-events="none"/>
  </g>
  <g id="zoomMin">
    <use xlink:href="#rim" fill="#404040"><set attributeName="fill" to="#808080" begin="zoomminus.mouseover" end="zoomminus.mouseout"/></use>
    <path d="M-4,0h8" fill="none" stroke="white" stroke-width="1.5" pointer-events="none"/>
  </g>
  <g id="arrowUp" transform="translate(30 24)">
    <use xlink:href="#rim"/>
    <path pointer-events="none" fill="none" stroke="white" stroke-width="1.5" d="M0,-3.0v7 M-2.5,-0.5L0,-3.0L2.5,-0.5"/>
  </g>
  <g id="arrowRight" transform="rotate(90) translate(36 -43)">
    <use xlink:href="#rim"/>
    <path pointer-events="none" fill="none" stroke="white" stroke-width="1.5" d="M0,-3.0v7 M-2.5,-0.5L0,-3.0L2.5,-0.5"/>
  </g>
  <g id="arrowDown" transform="rotate(180) translate(-30 -48)">
    <use xlink:href="#rim"/>
    <path pointer-events="none" fill="none" stroke="white" stroke-width="1.5" d="M0,-3.0v7 M-2.5,-0.5L0,-3.0L2.5,-0.5"/>
  </g>
  <g id="arrowLeft" transform="rotate(270) translate(-36 17)">
    <use xlink:href="#rim"/>
    <path pointer-events="none" fill="none" stroke="white" stroke-width="1.5" d="M0,-3.0v7 M-2.5,-0.5L0,-3.0L2.5,-0.5"/>
  </g>
  <g id="resetDef">
    <use xlink:href="#rim2" fill="#404040"><set attributeName="fill" to="#808080" begin="reset.mouseover" end="reset.mouseout"/></use>
  </g>
</defs>
<script type="application/ecmascript">
var viewWidth = 870;
var viewHeight = 411;
var sectionId = 'dynsection-2';
</script>
<script type="application/ecmascript" xlink:href="svg.min.js"/>
<svg id="graph" class="graph">
<g id="viewport">
<title>display</title>
<!-- Node1 -->
<g id="Node000001" class="node">
<title>Node1</title>
<g id="a_Node000001"><a xlink:title=" ">
<polygon fill="#999999" stroke="#666666" points="862,-189 810,-189 810,-170 862,-170 862,-189"/>
<text text-anchor="middle" x="836" y="-177" font-family="Helvetica,sans-Serif" font-size="10.00">display</text>
</a>
</g>
</g>
<!-- Node2 -->
<g id="Node000002" class="node">
<title>Node2</title>
<g id="a_Node000002"><a xlink:href="display__ui_8cpp.html#ad84e2073edf05b4e109ecaecca07a99d" target="_top" xlink:title=" ">
<polygon fill="white" stroke="#666666" points="756.5,-340 688.5,-340 688.5,-321 756.5,-321 756.5,-340"/>
<text text-anchor="middle" x="722.5" y="-328" font-family="Helvetica,sans-Serif" font-size="10.00">displayInit</text>
</a>
</g>
</g>
<!-- Node1&#45;&gt;Node2 -->
<g id="edge1_Node000001_Node000002" class="edge">
<title>Node1&#45;&gt;Node2</title>
<g id="a_edge1_Node000001_Node000002"><a xlink:title=" ">
<path fill="none" stroke="#63b8ff" d="M827.86,-198.65C818.25,-222.68 799.38,-264.26 774,-293.5 764.45,-304.5 751.06,-314.12 740.47,-320.79"/>
<polygon fill="#63b8ff" stroke="#63b8ff" points="831.16,-199.82 831.51,-189.24 824.63,-197.29 831.16,-199.82"/>
</a>
</g>
</g>
<!-- Node4 -->
<g id="Node000004" class="node">
<title>Node4</title>
<g id="a_Node000004"><a xlink:href="display__ui_8cpp.html#ab67f2470dd94c5b293ea60d38b9fae8e" target="_top" xlink:title=" ">
<polygon fill="white" stroke="#666666" points="461,-386 368,-386 368,-367 461,-367 461,-386"/>
<text text-anchor="middle" x="414.5" y="-374" font-family="Helvetica,sans-Serif" font-size="10.00">drawGPSScreen</text>
</a>
</g>
</g>
<!-- Node1&#45;&gt;Node4 -->
<g id="edge3_Node000001_Node000004" class="edge">
<title>Node1&#45;&gt;Node4</title>
<g id="a_edge3_Node000001_Node000004"><a xlink:title=" ">
<path fill="none" stroke="#63b8ff" d="M834.24,-199.38C831.69,-235.57 820.73,-311.9 774,-349.5 680.02,-425.11 523.64,-401.95 452.62,-386.06"/>
<polygon fill="#63b8ff" stroke="#63b8ff" points="837.74,-199.32 834.8,-189.15 830.76,-198.94 837.74,-199.32"/>
</a>
</g>
</g>
<!-- Node7 -->
<g id="Node000007" class="node">
<title>Node7</title>
<g id="a_Node000007"><a xlink:href="display__ui_8cpp.html#a1946154d8e9e6dd415476d3378b98ff1" target="_top" xlink:title=" ">
<polygon fill="white" stroke="#666666" points="774,-284 671,-284 671,-265 774,-265 774,-284"/>
<text text-anchor="middle" x="722.5" y="-272" font-family="Helvetica,sans-Serif" font-size="10.00">drawHomeScreen</text>
</a>
</g>
</g>
<!-- Node1&#45;&gt;Node7 -->
<g id="edge6_Node000001_Node000007" class="edge">
<title>Node1&#45;&gt;Node7</title>
<g id="a_edge6_Node000001_Node000007"><a xlink:title=" ">
<path fill="none" stroke="#63b8ff" d="M822.73,-197.67C811.49,-213.25 793.65,-235.49 774,-250.5 766.44,-256.27 757.27,-261.15 748.83,-264.96"/>
<polygon fill="#63b8ff" stroke="#63b8ff" points="825.67,-199.56 828.55,-189.37 819.94,-195.54 825.67,-199.56"/>
</a>
</g>
</g>
<!-- Node11 -->
<g id="Node000011" class="node">
<title>Node11</title>
<g id="a_Node000011"><a xlink:href="display__ui_8cpp.html#a0cc779d48595c7be531222945c8a5f10" target="_top" xlink:title=" ">
<polygon fill="white" stroke="#666666" points="605,-207 537,-207 537,-188 605,-188 605,-207"/>
<text text-anchor="middle" x="571" y="-195" font-family="Helvetica,sans-Serif" font-size="10.00">drawMenu</text>
</a>
</g>
</g>
<!-- Node1&#45;&gt;Node11 -->
<g id="edge13_Node000001_Node000011" class="edge">
<title>Node1&#45;&gt;Node11</title>
<g id="a_edge13_Node000001_Node000011"><a xlink:title=" ">
<path fill="none" stroke="#63b8ff" d="M815.55,-195.55C804.19,-203.87 789.15,-213.17 774,-217.5 714.2,-234.6 640.84,-218.62 601.04,-207.04"/>
<polygon fill="#63b8ff" stroke="#63b8ff" points="818,-198.08 823.8,-189.21 813.74,-192.53 818,-198.08"/>
</a>
</g>
</g>
<!-- Node12 -->
<g id="Node000012" class="node">
<title>Node12</title>
<g id="a_Node000012"><a xlink:href="display__ui_8cpp.html#a4720a85c38264632abe90b06cd0a878a" target="_top" xlink:title=" ">
<polygon fill="white" stroke="#666666" points="766.5,-208 678.5,-208 678.5,-189 766.5,-189 766.5,-208"/>
<text text-anchor="middle" x="722.5" y="-196" font-family="Helvetica,sans-Serif" font-size="10.00">drawMenu_evi</text>
</a>
</g>
</g>
<!-- Node1&#45;&gt;Node12 -->
<g id="edge16_Node000001_Node000012" class="edge">
<title>Node1&#45;&gt;Node12</title>
<g id="a_edge16_Node000001_Node000012"><a xlink:title=" ">
<path fill="none" stroke="#63b8ff" d="M799.93,-185.48C789.43,-187.26 777.8,-189.25 766.84,-191.12"/>
<polygon fill="#63b8ff" stroke="#63b8ff" points="800.71,-188.89 809.98,-183.76 799.53,-181.99 800.71,-188.89"/>
</a>
</g>
</g>
<!-- Node13 -->
<g id="Node000013" class="node">
<title>Node13</title>
<g id="a_Node000013"><a xlink:href="display__ui_8cpp.html#ae8a9d818fdd539d4b669b43222987fc7" target="_top" xlink:title=" ">
<polygon fill="white" stroke="#666666" points="623,-170 519,-170 519,-151 623,-151 623,-170"/>
<text text-anchor="middle" x="571" y="-158" font-family="Helvetica,sans-Serif" font-size="10.00">drawMeteoScreen</text>
</a>
</g>
</g>
<!-- Node1&#45;&gt;Node13 -->
<g id="edge18_Node000001_Node000013" class="edge">
<title>Node1&#45;&gt;Node13</title>
<g id="a_edge18_Node000001_Node000013"><a xlink:title=" ">
<path fill="none" stroke="#63b8ff" d="M799.54,-176.94C754.12,-173.66 675.1,-167.95 623.17,-164.2"/>
<polygon fill="#63b8ff" stroke="#63b8ff" points="799.56,-180.45 809.78,-177.68 800.06,-173.47 799.56,-180.45"/>
</a>
</g>
</g>
<!-- Node14 -->
<g id="Node000014" class="node">
<title>Node14</title>
<g id="a_Node000014"><a xlink:href="display__ui_8cpp.html#ab52c20747552f9ca473a8074aa0df6f5" target="_top" xlink:title=" ">
<polygon fill="white" stroke="#666666" points="456,-132 373,-132 373,-113 456,-113 456,-132"/>
<text text-anchor="middle" x="414.5" y="-120" font-family="Helvetica,sans-Serif" font-size="10.00">drawSelected</text>
</a>
</g>
</g>
<!-- Node1&#45;&gt;Node14 -->
<g id="edge20_Node000001_Node000014" class="edge">
<title>Node1&#45;&gt;Node14</title>
<g id="a_edge20_Node000001_Node000014"><a xlink:title=" ">
<path fill="none" stroke="#63b8ff" d="M800.24,-169.7C791.7,-167.48 782.56,-165.26 774,-163.5 660.18,-140.05 523.08,-129.05 456.2,-124.78"/>
<polygon fill="#63b8ff" stroke="#63b8ff" points="799.35,-173.08 809.92,-172.28 801.15,-166.32 799.35,-173.08"/>
</a>
</g>
</g>
<!-- Node17 -->
<g id="Node000017" class="node">
<title>Node17</title>
<g id="a_Node000017"><a xlink:href="display__ui_8cpp.html#a14c5649f6c7cf2ce771664a9d9fb7490" target="_top" xlink:title=" ">
<polygon fill="white" stroke="#666666" points="471,-93 358,-93 358,-74 471,-74 471,-93"/>
<text text-anchor="middle" x="414.5" y="-81" font-family="Helvetica,sans-Serif" font-size="10.00">drawSettingsScreen</text>
</a>
</g>
</g>
<!-- Node1&#45;&gt;Node17 -->
<g id="edge25_Node000001_Node000017" class="edge">
<title>Node1&#45;&gt;Node17</title>
<g id="a_edge25_Node000001_Node000017"><a xlink:title=" ">
<path fill="none" stroke="#63b8ff" d="M813.87,-163.92C802.58,-156.32 788.12,-147.72 774,-142.5 671.35,-104.55 543.17,-90.94 471.22,-86.11"/>
<polygon fill="#63b8ff" stroke="#63b8ff" points="811.98,-166.86 822.19,-169.71 815.98,-161.12 811.98,-166.86"/>
</a>
</g>
</g>
<!-- Node18 -->
<g id="Node000018" class="node">
<title>Node18</title>
<g id="a_Node000018"><a xlink:href="display__ui_8cpp.html#a870af3825a3fc68ae1be66a8cea2b6ec" target="_top" xlink:title=" ">
<polygon fill="white" stroke="#666666" points="748,-56 697,-56 697,-37 748,-37 748,-56"/>
<text text-anchor="middle" x="722.5" y="-44" font-family="Helvetica,sans-Serif" font-size="10.00">print2d</text>
</a>
</g>
</g>
<!-- Node1&#45;&gt;Node18 -->
<g id="edge27_Node000001_Node000018" class="edge">
<title>Node1&#45;&gt;Node18</title>
<g id="a_edge27_Node000001_Node000018"><a xlink:title=" ">
<path fill="none" stroke="#63b8ff" d="M828.36,-160.1C819.35,-136.29 801.19,-95.94 774,-70.5 766.7,-63.67 757.1,-58.45 748.23,-54.65"/>
<polygon fill="#63b8ff" stroke="#63b8ff" points="825.16,-161.55 831.85,-169.77 831.74,-159.17 825.16,-161.55"/>
</a>
</g>
</g>
<!-- Node19 -->
<g id="Node000019" class="node">
<title>Node19</title>
<g id="a_Node000019"><a xlink:href="display__ui_8cpp.html#a092026f930f769c4ca0f38798212d2ee" target="_top" xlink:title=" ">
<polygon fill="white" stroke="#666666" points="764,-19 681,-19 681,0 764,0 764,-19"/>
<text text-anchor="middle" x="722.5" y="-7" font-family="Helvetica,sans-Serif" font-size="10.00">setBrightness</text>
</a>
</g>
</g>
<!-- Node1&#45;&gt;Node19 -->
<g id="edge28_Node000001_Node000019" class="edge">
<title>Node1&#45;&gt;Node19</title>
<g id="a_edge28_Node000001_Node000019"><a xlink:title=" ">
<path fill="none" stroke="#63b8ff" d="M832.37,-159.88C827.06,-127.83 812.14,-64.17 774,-27.5 770.44,-24.08 766.2,-21.31 761.69,-19.06"/>
<polygon fill="#63b8ff" stroke="#63b8ff" points="828.91,-160.43 833.87,-169.8 835.83,-159.39 828.91,-160.43"/>
</a>
</g>
</g>
<!-- Node3 -->
<g id="Node000003" class="node">
<title>Node3</title>
<g id="a_Node000003"><a xlink:href="main_8cpp.html#a4fc01d736fe50cf5b977f755b675f11d" target="_top" xlink:title=" ">
<polygon fill="white" stroke="#666666" points="593,-358 549,-358 549,-339 593,-339 593,-358"/>
<text text-anchor="middle" x="571" y="-346" font-family="Helvetica,sans-Serif" font-size="10.00">setup</text>
</a>
</g>
</g>
<!-- Node2&#45;&gt;Node3 -->
<g id="edge2_Node000002_Node000003" class="edge">
<title>Node2&#45;&gt;Node3</title>
<g id="a_edge2_Node000002_Node000003"><a xlink:title=" ">
<path fill="none" stroke="#63b8ff" d="M678.38,-335.69C650.39,-339.06 615.16,-343.3 593.1,-345.96"/>
<polygon fill="#63b8ff" stroke="#63b8ff" points="678.81,-339.17 688.32,-334.49 677.97,-332.22 678.81,-339.17"/>
</a>
</g>
</g>
<!-- Node5 -->
<g id="Node000005" class="node">
<title>Node5</title>
<g id="a_Node000005"><a xlink:href="buttons_8cpp.html#a362a9b2582e0724627b8cd9f2e16f599" target="_top" xlink:title=" ">
<polygon fill="white" stroke="#666666" points="163,-225 74,-225 74,-206 163,-206 163,-225"/>
<text text-anchor="middle" x="118.5" y="-213" font-family="Helvetica,sans-Serif" font-size="10.00">buttonsUpdate</text>
</a>
</g>
</g>
<!-- Node4&#45;&gt;Node5 -->
<g id="edge4_Node000004_Node000005" class="edge">
<title>Node4&#45;&gt;Node5</title>
<g id="a_edge4_Node000004_Node000005"><a xlink:title=" ">
<path fill="none" stroke="#63b8ff" d="M357.91,-373.54C311.94,-368.75 246.68,-356.37 199,-324.5 160.06,-298.47 133.44,-246.58 123.66,-225.13"/>
<polygon fill="#63b8ff" stroke="#63b8ff" points="357.71,-377.03 368,-374.5 358.37,-370.06 357.71,-377.03"/>
</a>
</g>
</g>
<!-- Node6 -->
<g id="Node000006" class="node">
<title>Node6</title>
<g id="a_Node000006"><a xlink:href="main_8cpp.html#afe461d27b9c48d5921c00d521181f12f" target="_top" xlink:title=" ">
<polygon fill="white" stroke="#666666" points="38,-225 0,-225 0,-206 38,-206 38,-225"/>
<text text-anchor="middle" x="19" y="-213" font-family="Helvetica,sans-Serif" font-size="10.00">loop</text>
</a>
</g>
</g>
<!-- Node5&#45;&gt;Node6 -->
<g id="edge5_Node000005_Node000006" class="edge">
<title>Node5&#45;&gt;Node6</title>
<g id="a_edge5_Node000005_Node000006"><a xlink:title=" ">
<path fill="none" stroke="#63b8ff" d="M63.83,-215.5C54.59,-215.5 45.59,-215.5 38.17,-215.5"/>
<polygon fill="#63b8ff" stroke="#63b8ff" points="63.88,-219 73.88,-215.5 63.88,-212 63.88,-219"/>
</a>
</g>
</g>
<!-- Node7&#45;&gt;Node3 -->
<g id="edge11_Node000007_Node000003" class="edge">
<title>Node7&#45;&gt;Node3</title>
<g id="a_edge11_Node000007_Node000003"><a xlink:title=" ">
<path fill="none" stroke="#63b8ff" d="M697.84,-289.55C680.76,-300.08 656.94,-314.06 635,-324.5 621.37,-330.99 605.48,-337.03 593.06,-341.43"/>
<polygon fill="#63b8ff" stroke="#63b8ff" points="699.95,-292.37 706.58,-284.11 696.25,-286.43 699.95,-292.37"/>
</a>
</g>
</g>
<!-- Node7&#45;&gt;Node5 -->
<g id="edge7_Node000007_Node000005" class="edge">
<title>Node7&#45;&gt;Node5</title>
<g id="a_edge7_Node000007_Node000005"><a xlink:title=" ">
<path fill="none" stroke="#63b8ff" d="M679.98,-286.73C588.92,-311.26 366.46,-358.67 199,-291.5 165.15,-277.92 137.56,-242.3 125.73,-225.08"/>
<polygon fill="#63b8ff" stroke="#63b8ff" points="680.94,-290.09 689.66,-284.07 679.09,-283.34 680.94,-290.09"/>
</a>
</g>
</g>
<!-- Node8 -->
<g id="Node000008" class="node">
<title>Node8</title>
<g id="a_Node000008"><a xlink:href="buttons_8cpp.html#a476aa2a0a9fd2be3bedddd06747816c4" target="_top" xlink:title=" ">
<polygon fill="white" stroke="#666666" points="468,-282 361,-282 361,-263 468,-263 468,-282"/>
<text text-anchor="middle" x="414.5" y="-270" font-family="Helvetica,sans-Serif" font-size="10.00">onLeftRightCombo</text>
</a>
</g>
</g>
<!-- Node7&#45;&gt;Node8 -->
<g id="edge8_Node000007_Node000008" class="edge">
<title>Node7&#45;&gt;Node8</title>
<g id="a_edge8_Node000007_Node000008"><a xlink:title=" ">
<path fill="none" stroke="#63b8ff" d="M660.79,-274.1C604.53,-273.74 521.69,-273.19 468.16,-272.84"/>
<polygon fill="#63b8ff" stroke="#63b8ff" points="660.95,-277.6 670.97,-274.17 660.99,-270.6 660.95,-277.6"/>
</a>
</g>
</g>
<!-- Node10 -->
<g id="Node000010" class="node">
<title>Node10</title>
<g id="a_Node000010"><a xlink:href="display__ui_8cpp.html#a326e6bbb9afdeb1b938398087d9408a5" target="_top" xlink:title=" ">
<polygon fill="white" stroke="#666666" points="635,-244 507,-244 507,-225 635,-225 635,-244"/>
<text text-anchor="middle" x="571" y="-232" font-family="Helvetica,sans-Serif" font-size="10.00">updateDisplayTimeout</text>
</a>
</g>
</g>
<!-- Node7&#45;&gt;Node10 -->
<g id="edge12_Node000007_Node000010" class="edge">
<title>Node7&#45;&gt;Node10</title>
<g id="a_edge12_Node000007_Node000010"><a xlink:title=" ">
<path fill="none" stroke="#63b8ff" d="M675.91,-262.3C653.94,-256.42 627.99,-249.48 607.52,-244"/>
<polygon fill="#63b8ff" stroke="#63b8ff" points="675.13,-265.72 685.69,-264.92 676.94,-258.95 675.13,-265.72"/>
</a>
</g>
</g>
<!-- Node9 -->
<g id="Node000009" class="node">
<title>Node9</title>
<g id="a_Node000009"><a xlink:href="buttons_8cpp.html#a668c3b350a802edf187d6c97a61b4358" target="_top" xlink:title=" ">
<polygon fill="white" stroke="#666666" points="322,-282 199,-282 199,-263 322,-263 322,-282"/>
<text text-anchor="middle" x="260.5" y="-270" font-family="Helvetica,sans-Serif" font-size="10.00">checkLeftRightCombo</text>
</a>
</g>
</g>
<!-- Node8&#45;&gt;Node9 -->
<g id="edge9_Node000008_Node000009" class="edge">
<title>Node8&#45;&gt;Node9</title>
<g id="a_edge9_Node000008_Node000009"><a xlink:title=" ">
<path fill="none" stroke="#63b8ff" d="M350.69,-272.5C341.28,-272.5 331.59,-272.5 322.23,-272.5"/>
<polygon fill="#63b8ff" stroke="#63b8ff" points="350.76,-276 360.76,-272.5 350.76,-269 350.76,-276"/>
</a>
</g>
</g>
<!-- Node9&#45;&gt;Node5 -->
<g id="edge10_Node000009_Node000005" class="edge">
<title>Node9&#45;&gt;Node5</title>
<g id="a_edge10_Node000009_Node000005"><a xlink:title=" ">
<path fill="none" stroke="#63b8ff" d="M225.58,-259.15C216.9,-255.71 207.6,-251.99 199,-248.5 179.89,-240.74 158.28,-231.76 142.42,-225.13"/>
<polygon fill="#63b8ff" stroke="#63b8ff" points="224.45,-262.47 235.03,-262.9 227.02,-255.96 224.45,-262.47"/>
</a>
</g>
</g>
<!-- Node11&#45;&gt;Node5 -->
<g id="edge14_Node000011_Node000005" class="edge">
<title>Node11&#45;&gt;Node5</title>
<g id="a_edge14_Node000011_Node000005"><a xlink:title=" ">
<path fill="none" stroke="#63b8ff" d="M526.33,-204.35C509.14,-206.75 489.18,-209.18 471,-210.5 360.37,-218.52 229.65,-217.67 163.13,-216.51"/>
<polygon fill="#63b8ff" stroke="#63b8ff" points="527.25,-207.75 536.65,-202.86 526.25,-200.82 527.25,-207.75"/>
</a>
</g>
</g>
<!-- Node11&#45;&gt;Node8 -->
<g id="edge15_Node000011_Node000008" class="edge">
<title>Node11&#45;&gt;Node8</title>
<g id="a_edge15_Node000011_Node000008"><a xlink:title=" ">
<path fill="none" stroke="#63b8ff" d="M526.88,-207.76C520.02,-210.16 513.16,-213.05 507,-216.5 488.31,-226.95 489.05,-236.99 471,-248.5 462.15,-254.14 451.74,-259.04 442.35,-262.91"/>
<polygon fill="#63b8ff" stroke="#63b8ff" points="528.39,-210.96 536.86,-204.59 526.27,-204.29 528.39,-210.96"/>
</a>
</g>
</g>
<!-- Node12&#45;&gt;Node11 -->
<g id="edge17_Node000012_Node000011" class="edge">
<title>Node12&#45;&gt;Node11</title>
<g id="a_edge17_Node000012_Node000011"><a xlink:title=" ">
<path fill="none" stroke="#63b8ff" d="M668.17,-198.14C647.16,-198 623.67,-197.85 605.17,-197.72"/>
<polygon fill="#63b8ff" stroke="#63b8ff" points="668.24,-201.64 678.26,-198.21 668.28,-194.64 668.24,-201.64"/>
</a>
</g>
</g>
<!-- Node13&#45;&gt;Node5 -->
<g id="edge19_Node000013_Node000005" class="edge">
<title>Node13&#45;&gt;Node5</title>
<g id="a_edge19_Node000013_Node000005"><a xlink:title=" ">
<path fill="none" stroke="#63b8ff" d="M508.73,-167.98C416.46,-179.25 244.05,-200.29 163.31,-210.15"/>
<polygon fill="#63b8ff" stroke="#63b8ff" points="509.26,-171.44 518.76,-166.76 508.41,-164.49 509.26,-171.44"/>
</a>
</g>
</g>
<!-- Node15 -->
<g id="Node000015" class="node">
<title>Node15</title>
<g id="a_Node000015"><a xlink:href="display__ui_8cpp.html#a863fa83c4f8c55f3d65de3d448e88467" target="_top" xlink:title=" ">
<polygon fill="white" stroke="#666666" points="306.5,-168 214.5,-168 214.5,-149 306.5,-149 306.5,-168"/>
<text text-anchor="middle" x="260.5" y="-156" font-family="Helvetica,sans-Serif" font-size="10.00">drawInfoScreen</text>
</a>
</g>
</g>
<!-- Node14&#45;&gt;Node15 -->
<g id="edge21_Node000014_Node000015" class="edge">
<title>Node14&#45;&gt;Node15</title>
<g id="a_edge21_Node000014_Node000015"><a xlink:title=" ">
<path fill="none" stroke="#63b8ff" d="M363.3,-134.39C343.32,-139.12 320.63,-144.49 301.76,-148.97"/>
<polygon fill="#63b8ff" stroke="#63b8ff" points="364.24,-137.76 373.17,-132.05 362.63,-130.95 364.24,-137.76"/>
</a>
</g>
</g>
<!-- Node16 -->
<g id="Node000016" class="node">
<title>Node16</title>
<g id="a_Node000016"><a xlink:href="display__ui_8cpp.html#a373a756ed10c316c735042c6aa4807cc" target="_top" xlink:title=" ">
<polygon fill="white" stroke="#666666" points="315.5,-131 205.5,-131 205.5,-112 315.5,-112 315.5,-131"/>
<text text-anchor="middle" x="260.5" y="-119" font-family="Helvetica,sans-Serif" font-size="10.00">drawSystemScreen</text>
</a>
</g>
</g>
<!-- Node14&#45;&gt;Node16 -->
<g id="edge23_Node000014_Node000016" class="edge">
<title>Node14&#45;&gt;Node16</title>
<g id="a_edge23_Node000014_Node000016"><a xlink:title=" ">
<path fill="none" stroke="#63b8ff" d="M362.57,-122.16C347.44,-122.07 330.82,-121.96 315.5,-121.86"/>
<polygon fill="#63b8ff" stroke="#63b8ff" points="362.74,-125.67 372.77,-122.23 362.79,-118.67 362.74,-125.67"/>
</a>
</g>
</g>
<!-- Node15&#45;&gt;Node5 -->
<g id="edge22_Node000015_Node000005" class="edge">
<title>Node15&#45;&gt;Node5</title>
<g id="a_edge22_Node000015_Node000005"><a xlink:title=" ">
<path fill="none" stroke="#63b8ff" d="M225.58,-171.85C216.9,-175.29 207.6,-179.01 199,-182.5 179.89,-190.26 158.28,-199.24 142.42,-205.87"/>
<polygon fill="#63b8ff" stroke="#63b8ff" points="227.02,-175.04 235.03,-168.1 224.45,-168.53 227.02,-175.04"/>
</a>
</g>
</g>
<!-- Node16&#45;&gt;Node5 -->
<g id="edge24_Node000016_Node000005" class="edge">
<title>Node16&#45;&gt;Node5</title>
<g id="a_edge24_Node000016_Node000005"><a xlink:title=" ">
<path fill="none" stroke="#63b8ff" d="M210.53,-134.73C206.53,-136.45 202.63,-138.37 199,-140.5 168.55,-158.35 140.38,-189.85 127.25,-205.75"/>
<polygon fill="#63b8ff" stroke="#63b8ff" points="211.93,-137.94 219.99,-131.06 209.4,-131.42 211.93,-137.94"/>
</a>
</g>
</g>
<!-- Node17&#45;&gt;Node5 -->
<g id="edge26_Node000017_Node000005" class="edge">
<title>Node17&#45;&gt;Node5</title>
<g id="a_edge26_Node000017_Node000005"><a xlink:title=" ">
<path fill="none" stroke="#63b8ff" d="M347.51,-75.47C302.73,-73.21 243.77,-76.69 199,-102.5 157.02,-126.7 131.79,-183.07 123.02,-205.77"/>
<polygon fill="#63b8ff" stroke="#63b8ff" points="347.5,-78.98 357.7,-76.1 347.93,-71.99 347.5,-78.98"/>
</a>
</g>
</g>
</g>
</svg>

<g id="navigator" transform="translate(0 0)" fill="#404254">
  <rect fill="#f2f5e9" fill-opacity="0.5" stroke="#606060" stroke-width=".5" x="0" y="0" width="60" height="60"/>
  <use id="zoomplus" xlink:href="#zoomPlus" x="17" y="9" onmousedown="handleZoom(evt,'in')"/>
  <use id="zoomminus" xlink:href="#zoomMin" x="42" y="9" onmousedown="handleZoom(evt,'out')"/>
  <use id="reset" xlink:href="#resetDef" x="30" y="36" onmousedown="handleReset()"/>
   <use id="arrowup" xlink:href="#arrowUp" x="0" y="0" onmousedown="handlePan(0,-1)"/>
  <use id="arrowright" xlink:href="#arrowRight" x="0" y="0" onmousedown="handlePan(1,0)"/>
  <use id="arrowdown" xlink:href="#arrowDown" x="0" y="0" onmousedown="handlePan(0,1)"/>
  <use id="arrowleft" xlink:href="#arrowLeft" x="0" y="0" onmousedown="handlePan(-1,0)"/>
</g>
<svg viewBox="0 0 15 15" width="100%" height="30px" preserveAspectRatio="xMaxYMin meet">
 <g id="arrow_out" transform="scale(0.3 0.3)">
  <a xlink:href="display__ui_8cpp_ab460e1bb5537313cb79cfffa7e93c58b_icgraph_org.svg" target="_base">
   <rect id="button" ry="5" rx="5" y="6" x="6" height="38" width="38"
        fill="#f2f5e9" fill-opacity="0.5" stroke="#606060" stroke-width="1.0"/>
   <path id="arrow"
     d="M 11.500037,31.436501 C 11.940474,20.09759 22.043105,11.32322 32.158766,21.979434 L 37.068811,17.246167 C 37.068811,17.246167 37.088388,32 37.088388,32 L 22.160133,31.978069 C 22.160133,31.978069 26.997745,27.140456 26.997745,27.140456 C 18.528582,18.264221 13.291696,25.230495 11.500037,31.436501 z"
     style="fill:#404040;"/>
  </a>
 </g>
</svg>

<style type='text/css'>
<![CDATA[
[data-mouse-over-selected='false'] { opacity: 0.7; }
[data-mouse-over-selected='true']  { opacity: 1.0; }
]]>
</style>
<script type="application/ecmascript"><![CDATA[
document.addEventListener('DOMContentLoaded', (event) => {
  highlightEdges();
  highlightAdjacentNodes();
});
]]></script>
</svg>
