<?xml version="1.0" encoding="UTF-8" standalone="no"?>
<!DOCTYPE svg PUBLIC "-//W3C//DTD SVG 1.1//EN"
 "http://www.w3.org/Graphics/SVG/1.1/DTD/svg11.dtd">
<!-- Generated by graphviz version 2.43.0 (0)
 -->
<!-- Title: gpsAcquire Pages: 1 -->
<svg width="626pt" height="434pt"
 viewBox="0.00 0.00 626.00 434.00" xmlns="http://www.w3.org/2000/svg" xmlns:xlink="http://www.w3.org/1999/xlink">
<g id="graph0" class="graph" transform="scale(1 1) rotate(0) translate(4 430)">
<title>gpsAcquire</title>
<!-- Node1 -->
<g id="Node000001" class="node">
<title>Node1</title>
<g id="a_Node000001"><a xlink:title=" ">
<polygon fill="#999999" stroke="#666666" points="71,-222 0,-222 0,-203 71,-203 71,-222"/>
<text text-anchor="middle" x="35.5" y="-210" font-family="Helvetica,sans-Serif" font-size="10.00">gpsAcquire</text>
</a>
</g>
</g>
<!-- Node2 -->
<g id="Node000002" class="node">
<title>Node2</title>
<g id="a_Node000002"><a xlink:href="gps_8cpp.html#a1584cd930020560265588b72bde4654c" target="_top" xlink:title=" ">
<polygon fill="white" stroke="#666666" points="206,-222 107,-222 107,-203 206,-203 206,-222"/>
<text text-anchor="middle" x="156.5" y="-210" font-family="Helvetica,sans-Serif" font-size="10.00">nmea_gps_parse</text>
</a>
</g>
</g>
<!-- Node1&#45;&gt;Node2 -->
<g id="edge1_Node000001_Node000002" class="edge">
<title>Node1&#45;&gt;Node2</title>
<g id="a_edge1_Node000001_Node000002"><a xlink:title=" ">
<path fill="none" stroke="#63b8ff" d="M71.24,-212.5C79.23,-212.5 87.94,-212.5 96.63,-212.5"/>
<polygon fill="#63b8ff" stroke="#63b8ff" points="96.79,-216 106.79,-212.5 96.79,-209 96.79,-216"/>
</a>
</g>
</g>
<!-- Node3 -->
<g id="Node000003" class="node">
<title>Node3</title>
<g id="a_Node000003"><a xlink:href="minmea_8c.html#a0e892adb1166185572c0e4614bc1eb13" target="_top" xlink:title=" ">
<polygon fill="white" stroke="#666666" points="355,-426 242,-426 242,-407 355,-407 355,-426"/>
<text text-anchor="middle" x="298.5" y="-414" font-family="Helvetica,sans-Serif" font-size="10.00">minmea_parse_gga</text>
</a>
</g>
</g>
<!-- Node2&#45;&gt;Node3 -->
<g id="edge2_Node000002_Node000003" class="edge">
<title>Node2&#45;&gt;Node3</title>
<g id="a_edge2_Node000002_Node000003"><a xlink:title=" ">
<path fill="none" stroke="#63b8ff" d="M159.08,-222.22C164.57,-252.83 185.65,-348.18 242,-398.5 243.32,-399.68 244.73,-400.79 246.19,-401.82"/>
<polygon fill="#63b8ff" stroke="#63b8ff" points="244.73,-405.02 255.14,-406.98 248.23,-398.95 244.73,-405.02"/>
</a>
</g>
</g>
<!-- Node6 -->
<g id="Node000006" class="node">
<title>Node6</title>
<g id="a_Node000006"><a xlink:href="minmea_8c.html#ac699de4ccd27d72d2eda3ddb64158014" target="_top" xlink:title=" ">
<polygon fill="white" stroke="#666666" points="353.5,-389 243.5,-389 243.5,-370 353.5,-370 353.5,-389"/>
<text text-anchor="middle" x="298.5" y="-377" font-family="Helvetica,sans-Serif" font-size="10.00">minmea_parse_gst</text>
</a>
</g>
</g>
<!-- Node2&#45;&gt;Node6 -->
<g id="edge5_Node000002_Node000006" class="edge">
<title>Node2&#45;&gt;Node6</title>
<g id="a_edge5_Node000002_Node000006"><a xlink:title=" ">
<path fill="none" stroke="#63b8ff" d="M160.24,-222.13C168.24,-248.47 194.07,-322.4 242,-361.5 243.56,-362.77 245.21,-363.96 246.93,-365.06"/>
<polygon fill="#63b8ff" stroke="#63b8ff" points="245.53,-368.27 256,-369.9 248.83,-362.1 245.53,-368.27"/>
</a>
</g>
</g>
<!-- Node7 -->
<g id="Node000007" class="node">
<title>Node7</title>
<g id="a_Node000007"><a xlink:href="minmea_8c.html#abe3a4ed1fc95c8d8f847b8ff54b23242" target="_top" xlink:title=" ">
<polygon fill="white" stroke="#666666" points="354.5,-352 242.5,-352 242.5,-333 354.5,-333 354.5,-352"/>
<text text-anchor="middle" x="298.5" y="-340" font-family="Helvetica,sans-Serif" font-size="10.00">minmea_parse_gsv</text>
</a>
</g>
</g>
<!-- Node2&#45;&gt;Node7 -->
<g id="edge7_Node000002_Node000007" class="edge">
<title>Node2&#45;&gt;Node7</title>
<g id="a_edge7_Node000002_Node000007"><a xlink:title=" ">
<path fill="none" stroke="#63b8ff" d="M162.17,-222.18C173.07,-243.77 202.32,-296.23 242,-324.5 244.09,-325.99 246.32,-327.36 248.62,-328.63"/>
<polygon fill="#63b8ff" stroke="#63b8ff" points="247.3,-331.87 257.84,-332.97 250.29,-325.54 247.3,-331.87"/>
</a>
</g>
</g>
<!-- Node8 -->
<g id="Node000008" class="node">
<title>Node8</title>
<g id="a_Node000008"><a xlink:href="minmea_8c.html#a9a6083eb3b90edb0b96eaedc732313b7" target="_top" xlink:title=" ">
<polygon fill="white" stroke="#666666" points="355,-315 242,-315 242,-296 355,-296 355,-315"/>
<text text-anchor="middle" x="298.5" y="-303" font-family="Helvetica,sans-Serif" font-size="10.00">minmea_parse_rmc</text>
</a>
</g>
</g>
<!-- Node2&#45;&gt;Node8 -->
<g id="edge9_Node000002_Node000008" class="edge">
<title>Node2&#45;&gt;Node8</title>
<g id="a_edge9_Node000002_Node000008"><a xlink:title=" ">
<path fill="none" stroke="#63b8ff" d="M165.9,-222.19C180.08,-238 210.33,-269.38 242,-287.5 244.99,-289.21 248.17,-290.79 251.43,-292.23"/>
<polygon fill="#63b8ff" stroke="#63b8ff" points="250.17,-295.5 260.75,-295.96 252.77,-289 250.17,-295.5"/>
</a>
</g>
</g>
<!-- Node9 -->
<g id="Node000009" class="node">
<title>Node9</title>
<g id="a_Node000009"><a xlink:href="minmea_8c.html#afe00342610ebb8d37f3560b0cc31a52f" target="_top" xlink:title=" ">
<polygon fill="white" stroke="#666666" points="353.5,-278 243.5,-278 243.5,-259 353.5,-259 353.5,-278"/>
<text text-anchor="middle" x="298.5" y="-266" font-family="Helvetica,sans-Serif" font-size="10.00">minmea_parse_vtg</text>
</a>
</g>
</g>
<!-- Node2&#45;&gt;Node9 -->
<g id="edge11_Node000002_Node000009" class="edge">
<title>Node2&#45;&gt;Node9</title>
<g id="a_edge11_Node000002_Node000009"><a xlink:title=" ">
<path fill="none" stroke="#63b8ff" d="M177.05,-222.02C194.01,-230.11 219.34,-241.76 242,-250.5 246.6,-252.27 251.46,-254.03 256.31,-255.7"/>
<polygon fill="#63b8ff" stroke="#63b8ff" points="255.58,-259.14 266.18,-259 257.8,-252.51 255.58,-259.14"/>
</a>
</g>
</g>
<!-- Node10 -->
<g id="Node000010" class="node">
<title>Node10</title>
<g id="a_Node000010"><a xlink:href="minmea_8c.html#a389a195750045dfecc8e47d2641dec13" target="_top" xlink:title=" ">
<polygon fill="white" stroke="#666666" points="354.5,-241 242.5,-241 242.5,-222 354.5,-222 354.5,-241"/>
<text text-anchor="middle" x="298.5" y="-229" font-family="Helvetica,sans-Serif" font-size="10.00">minmea_parse_zda</text>
</a>
</g>
</g>
<!-- Node2&#45;&gt;Node10 -->
<g id="edge13_Node000002_Node000010" class="edge">
<title>Node2&#45;&gt;Node10</title>
<g id="a_edge13_Node000002_Node000010"><a xlink:title=" ">
<path fill="none" stroke="#63b8ff" d="M206.07,-219.09C214.56,-220.24 223.52,-221.46 232.38,-222.66"/>
<polygon fill="#63b8ff" stroke="#63b8ff" points="231.92,-226.13 242.3,-224.01 232.86,-219.2 231.92,-226.13"/>
</a>
</g>
</g>
<!-- Node11 -->
<g id="Node000011" class="node">
<title>Node11</title>
<g id="a_Node000011"><a xlink:href="gps_8cpp.html#ae7e06054042f4d22ce3f7641a654dfba" target="_top" xlink:title=" ">
<polygon fill="white" stroke="#666666" points="347,-204 250,-204 250,-185 347,-185 347,-204"/>
<text text-anchor="middle" x="298.5" y="-192" font-family="Helvetica,sans-Serif" font-size="10.00">print_NMEA_gga</text>
</a>
</g>
</g>
<!-- Node2&#45;&gt;Node11 -->
<g id="edge15_Node000002_Node000011" class="edge">
<title>Node2&#45;&gt;Node11</title>
<g id="a_edge15_Node000002_Node000011"><a xlink:title=" ">
<path fill="none" stroke="#63b8ff" d="M206.07,-206.25C216.96,-204.86 228.6,-203.36 239.82,-201.92"/>
<polygon fill="#63b8ff" stroke="#63b8ff" points="240.49,-205.36 249.96,-200.61 239.59,-198.42 240.49,-205.36"/>
</a>
</g>
</g>
<!-- Node12 -->
<g id="Node000012" class="node">
<title>Node12</title>
<g id="a_Node000012"><a xlink:href="gps_8cpp.html#a86800585d87c13db519115d7d460aac0" target="_top" xlink:title=" ">
<polygon fill="white" stroke="#666666" points="345.5,-130 251.5,-130 251.5,-111 345.5,-111 345.5,-130"/>
<text text-anchor="middle" x="298.5" y="-118" font-family="Helvetica,sans-Serif" font-size="10.00">print_NMEA_gst</text>
</a>
</g>
</g>
<!-- Node2&#45;&gt;Node12 -->
<g id="edge16_Node000002_Node000012" class="edge">
<title>Node2&#45;&gt;Node12</title>
<g id="a_edge16_Node000002_Node000012"><a xlink:title=" ">
<path fill="none" stroke="#63b8ff" d="M165.92,-202.94C180.14,-187.36 210.46,-156.41 242,-138.5 245,-136.8 248.18,-135.23 251.44,-133.79"/>
<polygon fill="#63b8ff" stroke="#63b8ff" points="252.78,-137.03 260.77,-130.07 250.19,-130.52 252.78,-137.03"/>
</a>
</g>
</g>
<!-- Node15 -->
<g id="Node000015" class="node">
<title>Node15</title>
<g id="a_Node000015"><a xlink:href="gps_8cpp.html#a6ec6b5a4090671490d31c770fe6afa0d" target="_top" xlink:title=" ">
<polygon fill="white" stroke="#666666" points="346.5,-56 250.5,-56 250.5,-37 346.5,-37 346.5,-56"/>
<text text-anchor="middle" x="298.5" y="-44" font-family="Helvetica,sans-Serif" font-size="10.00">print_NMEA_gsv</text>
</a>
</g>
</g>
<!-- Node2&#45;&gt;Node15 -->
<g id="edge19_Node000002_Node000015" class="edge">
<title>Node2&#45;&gt;Node15</title>
<g id="a_edge19_Node000002_Node000015"><a xlink:title=" ">
<path fill="none" stroke="#63b8ff" d="M160.26,-202.94C168.31,-176.77 194.26,-103.33 242,-64.5 243.56,-63.23 245.22,-62.05 246.94,-60.95"/>
<polygon fill="#63b8ff" stroke="#63b8ff" points="248.83,-63.91 256.01,-56.11 245.54,-57.73 248.83,-63.91"/>
</a>
</g>
</g>
<!-- Node16 -->
<g id="Node000016" class="node">
<title>Node16</title>
<g id="a_Node000016"><a xlink:href="gps_8cpp.html#a4650a0bef4037f605b746db3e8dce5bf" target="_top" xlink:title=" ">
<polygon fill="white" stroke="#666666" points="347.5,-93 249.5,-93 249.5,-74 347.5,-74 347.5,-93"/>
<text text-anchor="middle" x="298.5" y="-81" font-family="Helvetica,sans-Serif" font-size="10.00">print_NMEA_rmc</text>
</a>
</g>
</g>
<!-- Node2&#45;&gt;Node16 -->
<g id="edge20_Node000002_Node000016" class="edge">
<title>Node2&#45;&gt;Node16</title>
<g id="a_edge20_Node000002_Node000016"><a xlink:title=" ">
<path fill="none" stroke="#63b8ff" d="M162.19,-202.91C173.14,-181.51 202.49,-129.52 242,-101.5 244.1,-100.01 246.32,-98.64 248.63,-97.38"/>
<polygon fill="#63b8ff" stroke="#63b8ff" points="250.3,-100.47 257.86,-93.05 247.32,-94.14 250.3,-100.47"/>
</a>
</g>
</g>
<!-- Node18 -->
<g id="Node000018" class="node">
<title>Node18</title>
<g id="a_Node000018"><a xlink:href="gps_8cpp.html#a77ab7d9e159a0a804e5467a44204eebd" target="_top" xlink:title=" ">
<polygon fill="white" stroke="#666666" points="346,-167 251,-167 251,-148 346,-148 346,-167"/>
<text text-anchor="middle" x="298.5" y="-155" font-family="Helvetica,sans-Serif" font-size="10.00">print_NMEA_vtg</text>
</a>
</g>
</g>
<!-- Node2&#45;&gt;Node18 -->
<g id="edge24_Node000002_Node000018" class="edge">
<title>Node2&#45;&gt;Node18</title>
<g id="a_edge24_Node000002_Node000018"><a xlink:title=" ">
<path fill="none" stroke="#63b8ff" d="M177.76,-202.95C194.73,-195.12 219.69,-183.98 242,-175.5 246.61,-173.75 251.47,-172.01 256.33,-170.35"/>
<polygon fill="#63b8ff" stroke="#63b8ff" points="257.82,-173.54 266.2,-167.05 255.6,-166.9 257.82,-173.54"/>
</a>
</g>
</g>
<!-- Node19 -->
<g id="Node000019" class="node">
<title>Node19</title>
<g id="a_Node000019"><a xlink:href="gps_8cpp.html#ac1555845e4e7fe4d8de83d57a2a6c949" target="_top" xlink:title=" ">
<polygon fill="white" stroke="#666666" points="346.5,-19 250.5,-19 250.5,0 346.5,0 346.5,-19"/>
<text text-anchor="middle" x="298.5" y="-7" font-family="Helvetica,sans-Serif" font-size="10.00">print_NMEA_zda</text>
</a>
</g>
</g>
<!-- Node2&#45;&gt;Node19 -->
<g id="edge26_Node000002_Node000019" class="edge">
<title>Node2&#45;&gt;Node19</title>
<g id="a_edge26_Node000002_Node000019"><a xlink:title=" ">
<path fill="none" stroke="#63b8ff" d="M159.1,-202.83C164.64,-172.38 185.85,-77.54 242,-27.5 243.33,-26.32 244.73,-25.21 246.2,-24.18"/>
<polygon fill="#63b8ff" stroke="#63b8ff" points="248.23,-27.05 255.15,-19.03 244.74,-20.98 248.23,-27.05"/>
</a>
</g>
</g>
<!-- Node4 -->
<g id="Node000004" class="node">
<title>Node4</title>
<g id="a_Node000004"><a xlink:href="minmea_8c.html#a15e9012d03411f7471ca65649f206cc0" target="_top" xlink:title=" ">
<polygon fill="white" stroke="#666666" points="483,-333 398,-333 398,-314 483,-314 483,-333"/>
<text text-anchor="middle" x="440.5" y="-321" font-family="Helvetica,sans-Serif" font-size="10.00">minmea_scan</text>
</a>
</g>
</g>
<!-- Node3&#45;&gt;Node4 -->
<g id="edge3_Node000003_Node000004" class="edge">
<title>Node3&#45;&gt;Node4</title>
<g id="a_edge3_Node000003_Node000004"><a xlink:title=" ">
<path fill="none" stroke="#63b8ff" d="M336.25,-406.96C342.7,-404.63 349.2,-401.82 355,-398.5 382.21,-382.93 408.39,-357.56 424.21,-340.7"/>
<polygon fill="#63b8ff" stroke="#63b8ff" points="426.92,-342.93 431.1,-333.19 421.76,-338.19 426.92,-342.93"/>
</a>
</g>
</g>
<!-- Node5 -->
<g id="Node000005" class="node">
<title>Node5</title>
<g id="a_Node000005"><a xlink:href="minmea_8h.html#acd31fbf84ad0c2e5dac349ca993248be" target="_top" xlink:title=" ">
<polygon fill="white" stroke="#666666" points="618,-333 526,-333 526,-314 618,-314 618,-333"/>
<text text-anchor="middle" x="572" y="-321" font-family="Helvetica,sans-Serif" font-size="10.00">minmea_isfield</text>
</a>
</g>
</g>
<!-- Node4&#45;&gt;Node5 -->
<g id="edge4_Node000004_Node000005" class="edge">
<title>Node4&#45;&gt;Node5</title>
<g id="a_edge4_Node000004_Node000005"><a xlink:title=" ">
<path fill="none" stroke="#63b8ff" d="M483.19,-323.5C493.5,-323.5 504.7,-323.5 515.56,-323.5"/>
<polygon fill="#63b8ff" stroke="#63b8ff" points="515.81,-327 525.81,-323.5 515.81,-320 515.81,-327"/>
</a>
</g>
</g>
<!-- Node6&#45;&gt;Node4 -->
<g id="edge6_Node000006_Node000004" class="edge">
<title>Node6&#45;&gt;Node4</title>
<g id="a_edge6_Node000006_Node000004"><a xlink:title=" ">
<path fill="none" stroke="#63b8ff" d="M330.82,-370C338.77,-367.41 347.25,-364.49 355,-361.5 373.77,-354.26 394.36,-345.03 410.52,-337.48"/>
<polygon fill="#63b8ff" stroke="#63b8ff" points="412.4,-340.46 419.95,-333.02 409.41,-334.13 412.4,-340.46"/>
</a>
</g>
</g>
<!-- Node7&#45;&gt;Node4 -->
<g id="edge8_Node000007_Node000004" class="edge">
<title>Node7&#45;&gt;Node4</title>
<g id="a_edge8_Node000007_Node000004"><a xlink:title=" ">
<path fill="none" stroke="#63b8ff" d="M354.83,-334.99C365.72,-333.51 377.11,-331.97 387.87,-330.51"/>
<polygon fill="#63b8ff" stroke="#63b8ff" points="388.52,-333.95 397.96,-329.14 387.58,-327.01 388.52,-333.95"/>
</a>
</g>
</g>
<!-- Node8&#45;&gt;Node4 -->
<g id="edge10_Node000008_Node000004" class="edge">
<title>Node8&#45;&gt;Node4</title>
<g id="a_edge10_Node000008_Node000004"><a xlink:title=" ">
<path fill="none" stroke="#63b8ff" d="M355.23,-312.67C365.98,-314.05 377.2,-315.49 387.81,-316.85"/>
<polygon fill="#63b8ff" stroke="#63b8ff" points="387.4,-320.33 397.77,-318.13 388.29,-313.39 387.4,-320.33"/>
</a>
</g>
</g>
<!-- Node9&#45;&gt;Node4 -->
<g id="edge12_Node000009_Node000004" class="edge">
<title>Node9&#45;&gt;Node4</title>
<g id="a_edge12_Node000009_Node000004"><a xlink:title=" ">
<path fill="none" stroke="#63b8ff" d="M328.74,-278.06C337.25,-280.97 346.54,-284.25 355,-287.5 373,-294.41 392.85,-302.82 408.78,-309.77"/>
<polygon fill="#63b8ff" stroke="#63b8ff" points="407.58,-313.07 418.14,-313.89 410.4,-306.66 407.58,-313.07"/>
</a>
</g>
</g>
<!-- Node10&#45;&gt;Node4 -->
<g id="edge14_Node000010_Node000004" class="edge">
<title>Node10&#45;&gt;Node4</title>
<g id="a_edge14_Node000010_Node000004"><a xlink:title=" ">
<path fill="none" stroke="#63b8ff" d="M334.15,-241.07C341.27,-243.66 348.55,-246.8 355,-250.5 381.58,-265.76 407.57,-290.02 423.55,-306.34"/>
<polygon fill="#63b8ff" stroke="#63b8ff" points="421.1,-308.85 430.55,-313.64 426.15,-304 421.1,-308.85"/>
</a>
</g>
</g>
<!-- Node13 -->
<g id="Node000013" class="node">
<title>Node13</title>
<g id="a_Node000013"><a xlink:href="minmea_8h.html#a7d5b32164f339789b22446e5bfc1afbc" target="_top" xlink:title=" ">
<polygon fill="white" stroke="#666666" points="489.5,-112 391.5,-112 391.5,-93 489.5,-93 489.5,-112"/>
<text text-anchor="middle" x="440.5" y="-100" font-family="Helvetica,sans-Serif" font-size="10.00">minmea_rescale</text>
</a>
</g>
</g>
<!-- Node12&#45;&gt;Node13 -->
<g id="edge17_Node000012_Node000013" class="edge">
<title>Node12&#45;&gt;Node13</title>
<g id="a_edge17_Node000012_Node000013"><a xlink:title=" ">
<path fill="none" stroke="#63b8ff" d="M345.73,-114.56C357.06,-113.1 369.34,-111.52 381.16,-110"/>
<polygon fill="#63b8ff" stroke="#63b8ff" points="381.93,-113.43 391.4,-108.68 381.03,-106.49 381.93,-113.43"/>
</a>
</g>
</g>
<!-- Node14 -->
<g id="Node000014" class="node">
<title>Node14</title>
<g id="a_Node000014"><a xlink:href="minmea_8h.html#ac7f8c6a8f35e4181b7f376560fef677b" target="_top" xlink:title=" ">
<polygon fill="white" stroke="#666666" points="487.5,-149 393.5,-149 393.5,-130 487.5,-130 487.5,-149"/>
<text text-anchor="middle" x="440.5" y="-137" font-family="Helvetica,sans-Serif" font-size="10.00">minmea_tofloat</text>
</a>
</g>
</g>
<!-- Node12&#45;&gt;Node14 -->
<g id="edge18_Node000012_Node000014" class="edge">
<title>Node12&#45;&gt;Node14</title>
<g id="a_edge18_Node000012_Node000014"><a xlink:title=" ">
<path fill="none" stroke="#63b8ff" d="M345.73,-126.77C357.68,-128.4 370.67,-130.16 383.08,-131.84"/>
<polygon fill="#63b8ff" stroke="#63b8ff" points="382.94,-135.36 393.32,-133.23 383.88,-128.42 382.94,-135.36"/>
</a>
</g>
</g>
<!-- Node16&#45;&gt;Node13 -->
<g id="edge21_Node000016_Node000013" class="edge">
<title>Node16&#45;&gt;Node13</title>
<g id="a_edge21_Node000016_Node000013"><a xlink:title=" ">
<path fill="none" stroke="#63b8ff" d="M347.68,-90.04C358.46,-91.5 370.01,-93.07 381.15,-94.58"/>
<polygon fill="#63b8ff" stroke="#63b8ff" points="380.85,-98.07 391.23,-95.95 381.79,-91.14 380.85,-98.07"/>
</a>
</g>
</g>
<!-- Node16&#45;&gt;Node14 -->
<g id="edge23_Node000016_Node000014" class="edge">
<title>Node16&#45;&gt;Node14</title>
<g id="a_edge23_Node000016_Node000014"><a xlink:title=" ">
<path fill="none" stroke="#63b8ff" d="M332.13,-93.05C339.73,-95.55 347.72,-98.43 355,-101.5 371.67,-108.54 374.55,-112.97 391,-120.5 395.18,-122.42 399.62,-124.32 404.04,-126.14"/>
<polygon fill="#63b8ff" stroke="#63b8ff" points="403.02,-129.5 413.6,-129.97 405.62,-123 403.02,-129.5"/>
</a>
</g>
</g>
<!-- Node17 -->
<g id="Node000017" class="node">
<title>Node17</title>
<g id="a_Node000017"><a xlink:href="minmea_8h.html#a82cdc79749798023b4a1952faf84f1ca" target="_top" xlink:title=" ">
<polygon fill="white" stroke="#666666" points="490,-75 391,-75 391,-56 490,-56 490,-75"/>
<text text-anchor="middle" x="440.5" y="-63" font-family="Helvetica,sans-Serif" font-size="10.00">minmea_tocoord</text>
</a>
</g>
</g>
<!-- Node16&#45;&gt;Node17 -->
<g id="edge22_Node000016_Node000017" class="edge">
<title>Node16&#45;&gt;Node17</title>
<g id="a_edge22_Node000016_Node000017"><a xlink:title=" ">
<path fill="none" stroke="#63b8ff" d="M347.68,-77.31C358.34,-75.94 369.75,-74.47 380.77,-73.05"/>
<polygon fill="#63b8ff" stroke="#63b8ff" points="381.28,-76.51 390.76,-71.77 380.39,-69.57 381.28,-76.51"/>
</a>
</g>
</g>
<!-- Node18&#45;&gt;Node14 -->
<g id="edge25_Node000018_Node000014" class="edge">
<title>Node18&#45;&gt;Node14</title>
<g id="a_edge25_Node000018_Node000014"><a xlink:title=" ">
<path fill="none" stroke="#63b8ff" d="M346.12,-151.51C357.93,-149.99 370.74,-148.34 382.97,-146.77"/>
<polygon fill="#63b8ff" stroke="#63b8ff" points="383.61,-150.21 393.09,-145.47 382.72,-143.27 383.61,-150.21"/>
</a>
</g>
</g>
</g>
</svg>
