<?xml version="1.0" encoding="UTF-8" standalone="no"?>
<!DOCTYPE svg PUBLIC "-//W3C//DTD SVG 1.1//EN"
 "http://www.w3.org/Graphics/SVG/1.1/DTD/svg11.dtd">
<!-- Generated by graphviz version 2.43.0 (0)
 -->
<!-- Title: GetPosition_and_Satellites Pages: 1 -->
<svg width="490pt" height="46pt"
 viewBox="0.00 0.00 490.00 46.00" xmlns="http://www.w3.org/2000/svg" xmlns:xlink="http://www.w3.org/1999/xlink">
<g id="graph0" class="graph" transform="scale(1 1) rotate(0) translate(4 42)">
<title>GetPosition_and_Satellites</title>
<!-- Node1 -->
<g id="Node000001" class="node">
<title>Node1</title>
<g id="a_Node000001"><a xlink:title=" ">
<polygon fill="#999999" stroke="#666666" points="482,-19 335,-19 335,0 482,0 482,-19"/>
<text text-anchor="middle" x="408.5" y="-7" font-family="Helvetica,sans-Serif" font-size="10.00">GetPosition_and_Satellites</text>
</a>
</g>
</g>
<!-- Node2 -->
<g id="Node000002" class="node">
<title>Node2</title>
<g id="a_Node000002"><a xlink:href="gps_8cpp.html#a79c2c486e631815579df4be3e190ebad" target="_top" xlink:title=" ">
<polygon fill="white" stroke="#666666" points="299,-19 235,-19 235,0 299,0 299,-19"/>
<text text-anchor="middle" x="267" y="-7" font-family="Helvetica,sans-Serif" font-size="10.00">GPS_sync</text>
</a>
</g>
</g>
<!-- Node1&#45;&gt;Node2 -->
<g id="edge1_Node000001_Node000002" class="edge">
<title>Node1&#45;&gt;Node2</title>
<g id="a_edge1_Node000001_Node000002"><a xlink:title=" ">
<path fill="none" stroke="#63b8ff" d="M324.63,-9.5C315.63,-9.5 306.93,-9.5 299.17,-9.5"/>
<polygon fill="#63b8ff" stroke="#63b8ff" points="324.89,-13 334.89,-9.5 324.89,-6 324.89,-13"/>
</a>
</g>
</g>
<!-- Node3 -->
<g id="Node000003" class="node">
<title>Node3</title>
<g id="a_Node000003"><a xlink:href="gps_8cpp.html#a58c63785b84f6e923c4e8ca91f335c43" target="_top" xlink:title=" ">
<polygon fill="white" stroke="#666666" points="199,-38 80,-38 80,-19 199,-19 199,-38"/>
<text text-anchor="middle" x="139.5" y="-26" font-family="Helvetica,sans-Serif" font-size="10.00">check_GPS_sync_req</text>
</a>
</g>
</g>
<!-- Node2&#45;&gt;Node3 -->
<g id="edge2_Node000002_Node000003" class="edge">
<title>Node2&#45;&gt;Node3</title>
<g id="a_edge2_Node000002_Node000003"><a xlink:title=" ">
<path fill="none" stroke="#63b8ff" d="M224.87,-15.73C216.62,-16.98 207.79,-18.31 199.07,-19.63"/>
<polygon fill="#63b8ff" stroke="#63b8ff" points="225.61,-19.15 234.98,-14.2 224.57,-12.23 225.61,-19.15"/>
</a>
</g>
</g>
<!-- Node4 -->
<g id="Node000004" class="node">
<title>Node4</title>
<g id="a_Node000004"><a xlink:href="main_8cpp.html#a39ceba300a80e348e278539f57e0ca79" target="_top" xlink:title=" ">
<polygon fill="white" stroke="#666666" points="44,-19 0,-19 0,0 44,0 44,-19"/>
<text text-anchor="middle" x="22" y="-7" font-family="Helvetica,sans-Serif" font-size="10.00">loop1</text>
</a>
</g>
</g>
<!-- Node2&#45;&gt;Node4 -->
<g id="edge4_Node000002_Node000004" class="edge">
<title>Node2&#45;&gt;Node4</title>
<g id="a_edge4_Node000002_Node000004"><a xlink:title=" ">
<path fill="none" stroke="#63b8ff" d="M224.45,-9.5C172.15,-9.5 84.3,-9.5 44.16,-9.5"/>
<polygon fill="#63b8ff" stroke="#63b8ff" points="224.73,-13 234.73,-9.5 224.73,-6 224.73,-13"/>
</a>
</g>
</g>
<!-- Node3&#45;&gt;Node4 -->
<g id="edge3_Node000003_Node000004" class="edge">
<title>Node3&#45;&gt;Node4</title>
<g id="a_edge3_Node000003_Node000004"><a xlink:title=" ">
<path fill="none" stroke="#63b8ff" d="M70.38,-17.29C60.85,-15.73 51.71,-14.22 44.04,-12.96"/>
<polygon fill="#63b8ff" stroke="#63b8ff" points="69.98,-20.77 80.41,-18.94 71.11,-13.87 69.98,-20.77"/>
</a>
</g>
</g>
</g>
</svg>
