<?xml version="1.0" encoding="UTF-8" standalone="no"?>
<!DOCTYPE svg PUBLIC "-//W3C//DTD SVG 1.1//EN"
 "http://www.w3.org/Graphics/SVG/1.1/DTD/svg11.dtd">
<!-- Generated by graphviz version 2.43.0 (0)
 -->
<!-- Title: src/Modules/leds.h Pages: 1 -->
<svg width="508pt" height="203pt"
 viewBox="0.00 0.00 508.00 203.00" xmlns="http://www.w3.org/2000/svg" xmlns:xlink="http://www.w3.org/1999/xlink">
<g id="graph0" class="graph" transform="scale(1 1) rotate(0) translate(4 199)">
<title>src/Modules/leds.h</title>
<!-- Node1 -->
<g id="Node000001" class="node">
<title>Node1</title>
<g id="a_Node000001"><a xlink:title=" ">
<polygon fill="#999999" stroke="#666666" points="356,-195 249,-195 249,-176 356,-176 356,-195"/>
<text text-anchor="middle" x="302.5" y="-183" font-family="Helvetica,sans-Serif" font-size="10.00">src/Modules/leds.h</text>
</a>
</g>
</g>
<!-- Node2 -->
<g id="Node000002" class="node">
<title>Node2</title>
<g id="a_Node000002"><a xlink:href="buttons_8cpp.html" target="_top" xlink:title=" ">
<polygon fill="white" stroke="#666666" points="135,-24.5 0,-24.5 0,-5.5 135,-5.5 135,-24.5"/>
<text text-anchor="middle" x="67.5" y="-12.5" font-family="Helvetica,sans-Serif" font-size="10.00">src/Modules/buttons.cpp</text>
</a>
</g>
</g>
<!-- Node1&#45;&gt;Node2 -->
<g id="edge1_Node000001_Node000002" class="edge">
<title>Node1&#45;&gt;Node2</title>
<g id="a_edge1_Node000001_Node000002"><a xlink:title=" ">
<path fill="none" stroke="#63b8ff" d="M268.02,-172.39C227.55,-156.91 160.06,-126.98 113.5,-85 93.61,-67.07 78.34,-38.77 71.48,-24.63"/>
<polygon fill="#63b8ff" stroke="#63b8ff" points="266.86,-175.7 277.45,-175.93 269.32,-169.14 266.86,-175.7"/>
</a>
</g>
</g>
<!-- Node3 -->
<g id="Node000003" class="node">
<title>Node3</title>
<g id="a_Node000003"><a xlink:href="buttons_8h.html" target="_top" xlink:title=" ">
<polygon fill="white" stroke="#666666" points="364.5,-140 240.5,-140 240.5,-121 364.5,-121 364.5,-140"/>
<text text-anchor="middle" x="302.5" y="-128" font-family="Helvetica,sans-Serif" font-size="10.00">src/Modules/buttons.h</text>
</a>
</g>
</g>
<!-- Node1&#45;&gt;Node3 -->
<g id="edge2_Node000001_Node000003" class="edge">
<title>Node1&#45;&gt;Node3</title>
<g id="a_edge2_Node000001_Node000003"><a xlink:title=" ">
<path fill="none" stroke="#63b8ff" d="M302.5,-165.66C302.5,-156.93 302.5,-146.99 302.5,-140.09"/>
<polygon fill="#63b8ff" stroke="#63b8ff" points="299,-165.75 302.5,-175.75 306,-165.75 299,-165.75"/>
</a>
</g>
</g>
<!-- Node4 -->
<g id="Node000004" class="node">
<title>Node4</title>
<g id="a_Node000004"><a xlink:href="display__ui_8h.html" target="_top" xlink:title=" ">
<polygon fill="white" stroke="#666666" points="288,-85 151,-85 151,-66 288,-66 288,-85"/>
<text text-anchor="middle" x="219.5" y="-73" font-family="Helvetica,sans-Serif" font-size="10.00">src/Modules/display_ui.h</text>
</a>
</g>
</g>
<!-- Node1&#45;&gt;Node4 -->
<g id="edge12_Node000001_Node000004" class="edge">
<title>Node1&#45;&gt;Node4</title>
<g id="a_edge12_Node000001_Node000004"><a xlink:title=" ">
<path fill="none" stroke="#63b8ff" d="M270.03,-171.36C256.1,-164.12 240.89,-153.77 231.5,-140 219.99,-123.13 218.78,-98.15 219.04,-85.12"/>
<polygon fill="#63b8ff" stroke="#63b8ff" points="268.86,-174.69 279.39,-175.88 271.91,-168.38 268.86,-174.69"/>
</a>
</g>
</g>
<!-- Node6 -->
<g id="Node000006" class="node">
<title>Node6</title>
<g id="a_Node000006"><a xlink:href="leds_8cpp.html" target="_top" xlink:title=" ">
<polygon fill="white" stroke="#666666" points="403,-24.5 284,-24.5 284,-5.5 403,-5.5 403,-24.5"/>
<text text-anchor="middle" x="343.5" y="-12.5" font-family="Helvetica,sans-Serif" font-size="10.00">src/Modules/leds.cpp</text>
</a>
</g>
</g>
<!-- Node1&#45;&gt;Node6 -->
<g id="edge13_Node000001_Node000006" class="edge">
<title>Node1&#45;&gt;Node6</title>
<g id="a_edge13_Node000001_Node000006"><a xlink:title=" ">
<path fill="none" stroke="#63b8ff" d="M337.39,-171.5C351.21,-164.43 365.66,-154.17 373.5,-140 395.27,-100.66 363.65,-45.74 349.62,-24.69"/>
<polygon fill="#63b8ff" stroke="#63b8ff" points="335.58,-168.48 328.01,-175.9 338.55,-174.82 335.58,-168.48"/>
</a>
</g>
</g>
<!-- Node7 -->
<g id="Node000007" class="node">
<title>Node7</title>
<g id="a_Node000007"><a xlink:href="main_8cpp.html" target="_top" xlink:title=" ">
<polygon fill="white" stroke="#666666" points="500,-24.5 421,-24.5 421,-5.5 500,-5.5 500,-24.5"/>
<text text-anchor="middle" x="460.5" y="-12.5" font-family="Helvetica,sans-Serif" font-size="10.00">src/main.cpp</text>
</a>
</g>
</g>
<!-- Node1&#45;&gt;Node7 -->
<g id="edge14_Node000001_Node000007" class="edge">
<title>Node1&#45;&gt;Node7</title>
<g id="a_edge14_Node000001_Node000007"><a xlink:title=" ">
<path fill="none" stroke="#63b8ff" d="M338.57,-172.27C356.09,-164.97 376.55,-154.31 391.5,-140 427.99,-105.08 450.29,-46.57 457.72,-24.65"/>
<polygon fill="#63b8ff" stroke="#63b8ff" points="337.2,-169.04 329.18,-175.97 339.77,-175.55 337.2,-169.04"/>
</a>
</g>
</g>
<!-- Node3&#45;&gt;Node2 -->
<g id="edge3_Node000003_Node000002" class="edge">
<title>Node3&#45;&gt;Node2</title>
<g id="a_edge3_Node000003_Node000002"><a xlink:title=" ">
<path fill="none" stroke="#63b8ff" d="M236.97,-118.85C206.6,-112.08 170.83,-101.41 141.5,-85 112.68,-68.88 86.28,-39.22 74.29,-24.61"/>
<polygon fill="#63b8ff" stroke="#63b8ff" points="236.54,-122.33 247.05,-121 238,-115.49 236.54,-122.33"/>
</a>
</g>
</g>
<!-- Node3&#45;&gt;Node4 -->
<g id="edge4_Node000003_Node000004" class="edge">
<title>Node3&#45;&gt;Node4</title>
<g id="a_edge4_Node000003_Node000004"><a xlink:title=" ">
<path fill="none" stroke="#63b8ff" d="M275.33,-115.97C258.9,-106.28 239.2,-93.52 227.93,-85.17"/>
<polygon fill="#63b8ff" stroke="#63b8ff" points="273.64,-119.03 284.05,-120.98 277.13,-112.96 273.64,-119.03"/>
</a>
</g>
</g>
<!-- Node3&#45;&gt;Node6 -->
<g id="edge10_Node000003_Node000006" class="edge">
<title>Node3&#45;&gt;Node6</title>
<g id="a_edge10_Node000003_Node000006"><a xlink:title=" ">
<path fill="none" stroke="#63b8ff" d="M309.07,-111.32C318.03,-86.52 333.73,-43.04 340.38,-24.63"/>
<polygon fill="#63b8ff" stroke="#63b8ff" points="305.69,-110.37 305.58,-120.97 312.27,-112.75 305.69,-110.37"/>
</a>
</g>
</g>
<!-- Node3&#45;&gt;Node7 -->
<g id="edge11_Node000003_Node000007" class="edge">
<title>Node3&#45;&gt;Node7</title>
<g id="a_edge11_Node000003_Node000007"><a xlink:title=" ">
<path fill="none" stroke="#63b8ff" d="M322.89,-114.85C356.28,-90.87 421.59,-43.95 448.49,-24.63"/>
<polygon fill="#63b8ff" stroke="#63b8ff" points="320.46,-112.29 314.38,-120.97 324.54,-117.98 320.46,-112.29"/>
</a>
</g>
</g>
<!-- Node4&#45;&gt;Node2 -->
<g id="edge5_Node000004_Node000002" class="edge">
<title>Node4&#45;&gt;Node2</title>
<g id="a_edge5_Node000004_Node000002"><a xlink:title=" ">
<path fill="none" stroke="#63b8ff" d="M188,-62.38C158.62,-51.07 115.53,-34.49 89.63,-24.52"/>
<polygon fill="#63b8ff" stroke="#63b8ff" points="186.81,-65.67 197.4,-65.99 189.32,-59.14 186.81,-65.67"/>
</a>
</g>
</g>
<!-- Node4&#45;&gt;Node3 -->
<g id="edge6_Node000004_Node000003" class="edge">
<title>Node4&#45;&gt;Node3</title>
<g id="a_edge6_Node000004_Node000003"><a xlink:title=" ">
<path fill="none" stroke="#63b8ff" d="M246.98,-90.22C263.45,-99.94 283.12,-112.69 294.28,-120.98"/>
<polygon fill="#63b8ff" stroke="#63b8ff" points="248.64,-87.13 238.23,-85.17 245.14,-93.2 248.64,-87.13"/>
</a>
</g>
</g>
<!-- Node5 -->
<g id="Node000005" class="node">
<title>Node5</title>
<g id="a_Node000005"><a xlink:href="display__ui_8cpp.html" target="_top" xlink:title=" ">
<polygon fill="white" stroke="#666666" points="266,-30 153,-30 153,0 266,0 266,-30"/>
<text text-anchor="start" x="161" y="-18" font-family="Helvetica,sans-Serif" font-size="10.00">src/Modules/display</text>
<text text-anchor="middle" x="209.5" y="-7" font-family="Helvetica,sans-Serif" font-size="10.00">_ui.cpp</text>
</a>
</g>
</g>
<!-- Node4&#45;&gt;Node5 -->
<g id="edge7_Node000004_Node000005" class="edge">
<title>Node4&#45;&gt;Node5</title>
<g id="a_edge7_Node000004_Node000005"><a xlink:title=" ">
<path fill="none" stroke="#63b8ff" d="M216.33,-55.93C214.9,-47.58 213.24,-37.87 211.91,-30.11"/>
<polygon fill="#63b8ff" stroke="#63b8ff" points="212.89,-56.6 218.02,-65.87 219.79,-55.42 212.89,-56.6"/>
</a>
</g>
</g>
<!-- Node4&#45;&gt;Node6 -->
<g id="edge8_Node000004_Node000006" class="edge">
<title>Node4&#45;&gt;Node6</title>
<g id="a_edge8_Node000004_Node000006"><a xlink:title=" ">
<path fill="none" stroke="#63b8ff" d="M246.77,-61.63C270.69,-50.35 304.78,-34.27 325.45,-24.52"/>
<polygon fill="#63b8ff" stroke="#63b8ff" points="245.08,-58.56 237.53,-65.99 248.07,-64.89 245.08,-58.56"/>
</a>
</g>
</g>
<!-- Node4&#45;&gt;Node7 -->
<g id="edge9_Node000004_Node000007" class="edge">
<title>Node4&#45;&gt;Node7</title>
<g id="a_edge9_Node000004_Node000007"><a xlink:title=" ">
<path fill="none" stroke="#63b8ff" d="M269,-63.75C307.87,-55.13 363.3,-42.46 411.5,-30 418.01,-28.32 424.97,-26.4 431.55,-24.53"/>
<polygon fill="#63b8ff" stroke="#63b8ff" points="268,-60.39 258.99,-65.96 269.51,-67.22 268,-60.39"/>
</a>
</g>
</g>
</g>
</svg>
