<?xml version="1.0" encoding="UTF-8" standalone="no"?>
<!DOCTYPE svg PUBLIC "-//W3C//DTD SVG 1.1//EN"
 "http://www.w3.org/Graphics/SVG/1.1/DTD/svg11.dtd">
<!-- Generated by graphviz version 2.43.0 (0)
 -->
<!-- Title: minmea_tocoord Pages: 1 -->
<svg width="1001pt" height="138pt"
 viewBox="0.00 0.00 1001.00 138.00" xmlns="http://www.w3.org/2000/svg" xmlns:xlink="http://www.w3.org/1999/xlink">
<g id="graph0" class="graph" transform="scale(1 1) rotate(0) translate(4 134)">
<title>minmea_tocoord</title>
<!-- Node1 -->
<g id="Node000001" class="node">
<title>Node1</title>
<g id="a_Node000001"><a xlink:title=" ">
<polygon fill="#999999" stroke="#666666" points="993,-74 894,-74 894,-55 993,-55 993,-74"/>
<text text-anchor="middle" x="943.5" y="-62" font-family="Helvetica,sans-Serif" font-size="10.00">minmea_tocoord</text>
</a>
</g>
</g>
<!-- Node2 -->
<g id="Node000002" class="node">
<title>Node2</title>
<g id="a_Node000002"><a xlink:href="display__ui_8cpp.html#ab67f2470dd94c5b293ea60d38b9fae8e" target="_top" xlink:title=" ">
<polygon fill="white" stroke="#666666" points="855.5,-93 762.5,-93 762.5,-74 855.5,-74 855.5,-93"/>
<text text-anchor="middle" x="809" y="-81" font-family="Helvetica,sans-Serif" font-size="10.00">drawGPSScreen</text>
</a>
</g>
</g>
<!-- Node1&#45;&gt;Node2 -->
<g id="edge1_Node000001_Node000002" class="edge">
<title>Node1&#45;&gt;Node2</title>
<g id="a_edge1_Node000001_Node000002"><a xlink:title=" ">
<path fill="none" stroke="#63b8ff" d="M883.87,-72.91C874.51,-74.25 864.95,-75.62 855.94,-76.91"/>
<polygon fill="#63b8ff" stroke="#63b8ff" points="884.51,-76.35 893.91,-71.47 883.52,-69.42 884.51,-76.35"/>
</a>
</g>
</g>
<!-- Node5 -->
<g id="Node000005" class="node">
<title>Node5</title>
<g id="a_Node000005"><a xlink:href="gps_8cpp.html#a4650a0bef4037f605b746db3e8dce5bf" target="_top" xlink:title=" ">
<polygon fill="white" stroke="#666666" points="858,-130 760,-130 760,-111 858,-111 858,-130"/>
<text text-anchor="middle" x="809" y="-118" font-family="Helvetica,sans-Serif" font-size="10.00">print_NMEA_rmc</text>
</a>
</g>
</g>
<!-- Node1&#45;&gt;Node5 -->
<g id="edge4_Node000001_Node000005" class="edge">
<title>Node1&#45;&gt;Node5</title>
<g id="a_edge4_Node000001_Node000005"><a xlink:title=" ">
<path fill="none" stroke="#63b8ff" d="M911.67,-78.31C895.71,-85.39 875.87,-94.05 858,-101.5 850.55,-104.6 842.41,-107.87 834.98,-110.81"/>
<polygon fill="#63b8ff" stroke="#63b8ff" points="913.34,-81.4 921.06,-74.14 910.5,-75.01 913.34,-81.4"/>
</a>
</g>
</g>
<!-- Node13 -->
<g id="Node000013" class="node">
<title>Node13</title>
<g id="a_Node000013"><a xlink:href="gps_8cpp.html#aab2203af6c50eafde7df9509bc632fa6" target="_top" xlink:title=" ">
<polygon fill="white" stroke="#666666" points="852,-19 766,-19 766,0 852,0 852,-19"/>
<text text-anchor="middle" x="809" y="-7" font-family="Helvetica,sans-Serif" font-size="10.00">save_gps_last</text>
</a>
</g>
</g>
<!-- Node1&#45;&gt;Node13 -->
<g id="edge14_Node000001_Node000013" class="edge">
<title>Node1&#45;&gt;Node13</title>
<g id="a_edge14_Node000001_Node000013"><a xlink:title=" ">
<path fill="none" stroke="#63b8ff" d="M912.06,-50.7C896.05,-43.56 876.06,-34.84 858,-27.5 850.99,-24.65 843.34,-21.71 836.26,-19.05"/>
<polygon fill="#63b8ff" stroke="#63b8ff" points="910.89,-54.01 921.45,-54.91 913.76,-47.62 910.89,-54.01"/>
</a>
</g>
</g>
<!-- Node14 -->
<g id="Node000014" class="node">
<title>Node14</title>
<g id="a_Node000014"><a xlink:href="gps_8cpp.html#a0d11d3ae385799665b8808639a2d3725" target="_top" xlink:title=" ">
<polygon fill="white" stroke="#666666" points="856.5,-56 761.5,-56 761.5,-37 856.5,-37 856.5,-56"/>
<text text-anchor="middle" x="809" y="-44" font-family="Helvetica,sans-Serif" font-size="10.00">save_gps_log20</text>
</a>
</g>
</g>
<!-- Node1&#45;&gt;Node14 -->
<g id="edge18_Node000001_Node000014" class="edge">
<title>Node1&#45;&gt;Node14</title>
<g id="a_edge18_Node000001_Node000014"><a xlink:title=" ">
<path fill="none" stroke="#63b8ff" d="M883.82,-56.53C874.78,-55.3 865.55,-54.05 856.81,-52.86"/>
<polygon fill="#63b8ff" stroke="#63b8ff" points="883.53,-60.02 893.91,-57.9 884.48,-53.09 883.53,-60.02"/>
</a>
</g>
</g>
<!-- Node3 -->
<g id="Node000003" class="node">
<title>Node3</title>
<g id="a_Node000003"><a xlink:href="buttons_8cpp.html#a362a9b2582e0724627b8cd9f2e16f599" target="_top" xlink:title=" ">
<polygon fill="white" stroke="#666666" points="719,-66 630,-66 630,-47 719,-47 719,-66"/>
<text text-anchor="middle" x="674.5" y="-54" font-family="Helvetica,sans-Serif" font-size="10.00">buttonsUpdate</text>
</a>
</g>
</g>
<!-- Node2&#45;&gt;Node3 -->
<g id="edge2_Node000002_Node000003" class="edge">
<title>Node2&#45;&gt;Node3</title>
<g id="a_edge2_Node000002_Node000003"><a xlink:title=" ">
<path fill="none" stroke="#63b8ff" d="M752.42,-72.18C741.4,-69.93 729.97,-67.6 719.39,-65.44"/>
<polygon fill="#63b8ff" stroke="#63b8ff" points="751.9,-75.64 762.4,-74.21 753.3,-68.78 751.9,-75.64"/>
</a>
</g>
</g>
<!-- Node4 -->
<g id="Node000004" class="node">
<title>Node4</title>
<g id="a_Node000004"><a xlink:href="main_8cpp.html#afe461d27b9c48d5921c00d521181f12f" target="_top" xlink:title=" ">
<polygon fill="white" stroke="#666666" points="572.5,-47 534.5,-47 534.5,-28 572.5,-28 572.5,-47"/>
<text text-anchor="middle" x="553.5" y="-35" font-family="Helvetica,sans-Serif" font-size="10.00">loop</text>
</a>
</g>
</g>
<!-- Node3&#45;&gt;Node4 -->
<g id="edge3_Node000003_Node000004" class="edge">
<title>Node3&#45;&gt;Node4</title>
<g id="a_edge3_Node000003_Node000004"><a xlink:title=" ">
<path fill="none" stroke="#63b8ff" d="M619.97,-47.95C602.98,-45.24 585.32,-42.42 572.63,-40.4"/>
<polygon fill="#63b8ff" stroke="#63b8ff" points="619.44,-51.41 629.86,-49.53 620.54,-44.5 619.44,-51.41"/>
</a>
</g>
</g>
<!-- Node6 -->
<g id="Node000006" class="node">
<title>Node6</title>
<g id="a_Node000006"><a xlink:href="gps_8cpp.html#a1584cd930020560265588b72bde4654c" target="_top" xlink:title=" ">
<polygon fill="white" stroke="#666666" points="724,-121 625,-121 625,-102 724,-102 724,-121"/>
<text text-anchor="middle" x="674.5" y="-109" font-family="Helvetica,sans-Serif" font-size="10.00">nmea_gps_parse</text>
</a>
</g>
</g>
<!-- Node5&#45;&gt;Node6 -->
<g id="edge5_Node000005_Node000006" class="edge">
<title>Node5&#45;&gt;Node6</title>
<g id="a_edge5_Node000005_Node000006"><a xlink:title=" ">
<path fill="none" stroke="#63b8ff" d="M749.62,-116.53C741.18,-115.96 732.57,-115.38 724.34,-114.82"/>
<polygon fill="#63b8ff" stroke="#63b8ff" points="749.58,-120.04 759.79,-117.23 750.05,-113.06 749.58,-120.04"/>
</a>
</g>
</g>
<!-- Node7 -->
<g id="Node000007" class="node">
<title>Node7</title>
<g id="a_Node000007"><a xlink:href="gps_8cpp.html#a5c33ca28d942d03c752f418f3c04711f" target="_top" xlink:title=" ">
<polygon fill="white" stroke="#666666" points="589,-84 518,-84 518,-65 589,-65 589,-84"/>
<text text-anchor="middle" x="553.5" y="-72" font-family="Helvetica,sans-Serif" font-size="10.00">gpsAcquire</text>
</a>
</g>
</g>
<!-- Node6&#45;&gt;Node7 -->
<g id="edge6_Node000006_Node000007" class="edge">
<title>Node6&#45;&gt;Node7</title>
<g id="a_edge6_Node000006_Node000007"><a xlink:title=" ">
<path fill="none" stroke="#63b8ff" d="M632.97,-98.9C617.43,-94.07 599.96,-88.63 585.46,-84.12"/>
<polygon fill="#63b8ff" stroke="#63b8ff" points="632.27,-102.34 642.85,-101.97 634.34,-95.66 632.27,-102.34"/>
</a>
</g>
</g>
<!-- Node8 -->
<g id="Node000008" class="node">
<title>Node8</title>
<g id="a_Node000008"><a xlink:href="gps_8cpp.html#aadbd2f07e07e8a3f472065571970cefe" target="_top" xlink:title=" ">
<polygon fill="white" stroke="#666666" points="463.5,-47 353.5,-47 353.5,-28 463.5,-28 463.5,-47"/>
<text text-anchor="middle" x="408.5" y="-35" font-family="Helvetica,sans-Serif" font-size="10.00">GetDate_and_Time</text>
</a>
</g>
</g>
<!-- Node7&#45;&gt;Node8 -->
<g id="edge7_Node000007_Node000008" class="edge">
<title>Node7&#45;&gt;Node8</title>
<g id="a_edge7_Node000007_Node000008"><a xlink:title=" ">
<path fill="none" stroke="#63b8ff" d="M507.89,-62.33C499.3,-60.03 490.38,-57.67 482,-55.5 471.2,-52.7 459.48,-49.76 448.67,-47.07"/>
<polygon fill="#63b8ff" stroke="#63b8ff" points="507.19,-65.77 517.75,-64.99 509.01,-59.01 507.19,-65.77"/>
</a>
</g>
</g>
<!-- Node12 -->
<g id="Node000012" class="node">
<title>Node12</title>
<g id="a_Node000012"><a xlink:href="gps_8cpp.html#a177ee65fb57b969753487772f3fc552c" target="_top" xlink:title=" ">
<polygon fill="white" stroke="#666666" points="482,-84 335,-84 335,-65 482,-65 482,-84"/>
<text text-anchor="middle" x="408.5" y="-72" font-family="Helvetica,sans-Serif" font-size="10.00">GetPosition_and_Satellites</text>
</a>
</g>
</g>
<!-- Node7&#45;&gt;Node12 -->
<g id="edge12_Node000007_Node000012" class="edge">
<title>Node7&#45;&gt;Node12</title>
<g id="a_edge12_Node000007_Node000012"><a xlink:title=" ">
<path fill="none" stroke="#63b8ff" d="M507.87,-74.5C499.7,-74.5 490.98,-74.5 482.24,-74.5"/>
<polygon fill="#63b8ff" stroke="#63b8ff" points="507.88,-78 517.88,-74.5 507.88,-71 507.88,-78"/>
</a>
</g>
</g>
<!-- Node9 -->
<g id="Node000009" class="node">
<title>Node9</title>
<g id="a_Node000009"><a xlink:href="gps_8cpp.html#a79c2c486e631815579df4be3e190ebad" target="_top" xlink:title=" ">
<polygon fill="white" stroke="#666666" points="299,-47 235,-47 235,-28 299,-28 299,-47"/>
<text text-anchor="middle" x="267" y="-35" font-family="Helvetica,sans-Serif" font-size="10.00">GPS_sync</text>
</a>
</g>
</g>
<!-- Node8&#45;&gt;Node9 -->
<g id="edge8_Node000008_Node000009" class="edge">
<title>Node8&#45;&gt;Node9</title>
<g id="a_edge8_Node000008_Node000009"><a xlink:title=" ">
<path fill="none" stroke="#63b8ff" d="M343.15,-37.5C327.8,-37.5 312.08,-37.5 299.02,-37.5"/>
<polygon fill="#63b8ff" stroke="#63b8ff" points="343.17,-41 353.17,-37.5 343.17,-34 343.17,-41"/>
</a>
</g>
</g>
<!-- Node10 -->
<g id="Node000010" class="node">
<title>Node10</title>
<g id="a_Node000010"><a xlink:href="gps_8cpp.html#a58c63785b84f6e923c4e8ca91f335c43" target="_top" xlink:title=" ">
<polygon fill="white" stroke="#666666" points="199,-66 80,-66 80,-47 199,-47 199,-66"/>
<text text-anchor="middle" x="139.5" y="-54" font-family="Helvetica,sans-Serif" font-size="10.00">check_GPS_sync_req</text>
</a>
</g>
</g>
<!-- Node9&#45;&gt;Node10 -->
<g id="edge9_Node000009_Node000010" class="edge">
<title>Node9&#45;&gt;Node10</title>
<g id="a_edge9_Node000009_Node000010"><a xlink:title=" ">
<path fill="none" stroke="#63b8ff" d="M224.87,-43.73C216.62,-44.98 207.79,-46.31 199.07,-47.63"/>
<polygon fill="#63b8ff" stroke="#63b8ff" points="225.61,-47.15 234.98,-42.2 224.57,-40.23 225.61,-47.15"/>
</a>
</g>
</g>
<!-- Node11 -->
<g id="Node000011" class="node">
<title>Node11</title>
<g id="a_Node000011"><a xlink:href="main_8cpp.html#a39ceba300a80e348e278539f57e0ca79" target="_top" xlink:title=" ">
<polygon fill="white" stroke="#666666" points="44,-47 0,-47 0,-28 44,-28 44,-47"/>
<text text-anchor="middle" x="22" y="-35" font-family="Helvetica,sans-Serif" font-size="10.00">loop1</text>
</a>
</g>
</g>
<!-- Node9&#45;&gt;Node11 -->
<g id="edge11_Node000009_Node000011" class="edge">
<title>Node9&#45;&gt;Node11</title>
<g id="a_edge11_Node000009_Node000011"><a xlink:title=" ">
<path fill="none" stroke="#63b8ff" d="M224.45,-37.5C172.15,-37.5 84.3,-37.5 44.16,-37.5"/>
<polygon fill="#63b8ff" stroke="#63b8ff" points="224.73,-41 234.73,-37.5 224.73,-34 224.73,-41"/>
</a>
</g>
</g>
<!-- Node10&#45;&gt;Node11 -->
<g id="edge10_Node000010_Node000011" class="edge">
<title>Node10&#45;&gt;Node11</title>
<g id="a_edge10_Node000010_Node000011"><a xlink:title=" ">
<path fill="none" stroke="#63b8ff" d="M70.38,-45.29C60.85,-43.73 51.71,-42.22 44.04,-40.96"/>
<polygon fill="#63b8ff" stroke="#63b8ff" points="69.98,-48.77 80.41,-46.94 71.11,-41.87 69.98,-48.77"/>
</a>
</g>
</g>
<!-- Node12&#45;&gt;Node9 -->
<g id="edge13_Node000012_Node000009" class="edge">
<title>Node12&#45;&gt;Node9</title>
<g id="a_edge13_Node000012_Node000009"><a xlink:title=" ">
<path fill="none" stroke="#63b8ff" d="M361.3,-62.44C352.56,-60.14 343.5,-57.76 335,-55.5 323.24,-52.38 310.33,-48.92 299.01,-45.87"/>
<polygon fill="#63b8ff" stroke="#63b8ff" points="360.42,-65.82 370.98,-64.98 362.19,-59.05 360.42,-65.82"/>
</a>
</g>
</g>
<!-- Node13&#45;&gt;Node3 -->
<g id="edge15_Node000013_Node000003" class="edge">
<title>Node13&#45;&gt;Node3</title>
<g id="a_edge15_Node000013_Node000003"><a xlink:title=" ">
<path fill="none" stroke="#63b8ff" d="M771.61,-22.41C749.84,-30.13 722.63,-39.78 702.73,-46.84"/>
<polygon fill="#63b8ff" stroke="#63b8ff" points="772.93,-25.65 781.19,-19.01 770.59,-19.06 772.93,-25.65"/>
</a>
</g>
</g>
<!-- Node13&#45;&gt;Node4 -->
<g id="edge17_Node000013_Node000004" class="edge">
<title>Node13&#45;&gt;Node4</title>
<g id="a_edge17_Node000013_Node000004"><a xlink:title=" ">
<path fill="none" stroke="#63b8ff" d="M755.58,-15.29C698.51,-21.59 610.35,-31.33 572.63,-35.5"/>
<polygon fill="#63b8ff" stroke="#63b8ff" points="756.3,-18.73 765.86,-14.16 755.53,-11.77 756.3,-18.73"/>
</a>
</g>
</g>
<!-- Node13&#45;&gt;Node9 -->
<g id="edge16_Node000013_Node000009" class="edge">
<title>Node13&#45;&gt;Node9</title>
<g id="a_edge16_Node000013_Node000009"><a xlink:title=" ">
<path fill="none" stroke="#63b8ff" d="M755.73,-6.14C668.15,-1.48 486.45,4.03 335,-18.5 321.85,-20.46 307.62,-24.24 295.68,-27.92"/>
<polygon fill="#63b8ff" stroke="#63b8ff" points="755.76,-9.65 765.94,-6.7 756.15,-2.66 755.76,-9.65"/>
</a>
</g>
</g>
<!-- Node14&#45;&gt;Node3 -->
<g id="edge19_Node000014_Node000003" class="edge">
<title>Node14&#45;&gt;Node3</title>
<g id="a_edge19_Node000014_Node000003"><a xlink:title=" ">
<path fill="none" stroke="#63b8ff" d="M751.15,-50.79C740.43,-51.6 729.37,-52.43 719.13,-53.21"/>
<polygon fill="#63b8ff" stroke="#63b8ff" points="751.58,-54.27 761.29,-50.03 751.05,-47.29 751.58,-54.27"/>
</a>
</g>
</g>
</g>
</svg>
