<?xml version="1.0" encoding="UTF-8" standalone="no"?>
<!DOCTYPE svg PUBLIC "-//W3C//DTD SVG 1.1//EN"
 "http://www.w3.org/Graphics/SVG/1.1/DTD/svg11.dtd">
<!-- Generated by graphviz version 2.43.0 (0)
 -->
<!-- Title: minmea_parse_zda Pages: 1 -->
<svg width="880pt" height="64pt"
 viewBox="0.00 0.00 880.00 64.00" xmlns="http://www.w3.org/2000/svg" xmlns:xlink="http://www.w3.org/1999/xlink">
<g id="graph0" class="graph" transform="scale(1 1) rotate(0) translate(4 60)">
<title>minmea_parse_zda</title>
<!-- Node1 -->
<g id="Node000001" class="node">
<title>Node1</title>
<g id="a_Node000001"><a xlink:title=" ">
<polygon fill="#999999" stroke="#666666" points="872,-37 760,-37 760,-18 872,-18 872,-37"/>
<text text-anchor="middle" x="816" y="-25" font-family="Helvetica,sans-Serif" font-size="10.00">minmea_parse_zda</text>
</a>
</g>
</g>
<!-- Node2 -->
<g id="Node000002" class="node">
<title>Node2</title>
<g id="a_Node000002"><a xlink:href="gps_8cpp.html#a1584cd930020560265588b72bde4654c" target="_top" xlink:title=" ">
<polygon fill="white" stroke="#666666" points="724,-37 625,-37 625,-18 724,-18 724,-37"/>
<text text-anchor="middle" x="674.5" y="-25" font-family="Helvetica,sans-Serif" font-size="10.00">nmea_gps_parse</text>
</a>
</g>
</g>
<!-- Node1&#45;&gt;Node2 -->
<g id="edge1_Node000001_Node000002" class="edge">
<title>Node1&#45;&gt;Node2</title>
<g id="a_edge1_Node000001_Node000002"><a xlink:title=" ">
<path fill="none" stroke="#63b8ff" d="M749.86,-27.5C741.28,-27.5 732.6,-27.5 724.36,-27.5"/>
<polygon fill="#63b8ff" stroke="#63b8ff" points="749.87,-31 759.87,-27.5 749.87,-24 749.87,-31"/>
</a>
</g>
</g>
<!-- Node3 -->
<g id="Node000003" class="node">
<title>Node3</title>
<g id="a_Node000003"><a xlink:href="gps_8cpp.html#a5c33ca28d942d03c752f418f3c04711f" target="_top" xlink:title=" ">
<polygon fill="white" stroke="#666666" points="589,-37 518,-37 518,-18 589,-18 589,-37"/>
<text text-anchor="middle" x="553.5" y="-25" font-family="Helvetica,sans-Serif" font-size="10.00">gpsAcquire</text>
</a>
</g>
</g>
<!-- Node2&#45;&gt;Node3 -->
<g id="edge2_Node000002_Node000003" class="edge">
<title>Node2&#45;&gt;Node3</title>
<g id="a_edge2_Node000002_Node000003"><a xlink:title=" ">
<path fill="none" stroke="#63b8ff" d="M614.58,-27.5C605.88,-27.5 597.15,-27.5 589.16,-27.5"/>
<polygon fill="#63b8ff" stroke="#63b8ff" points="614.75,-31 624.75,-27.5 614.75,-24 614.75,-31"/>
</a>
</g>
</g>
<!-- Node4 -->
<g id="Node000004" class="node">
<title>Node4</title>
<g id="a_Node000004"><a xlink:href="gps_8cpp.html#aadbd2f07e07e8a3f472065571970cefe" target="_top" xlink:title=" ">
<polygon fill="white" stroke="#666666" points="463.5,-56 353.5,-56 353.5,-37 463.5,-37 463.5,-56"/>
<text text-anchor="middle" x="408.5" y="-44" font-family="Helvetica,sans-Serif" font-size="10.00">GetDate_and_Time</text>
</a>
</g>
</g>
<!-- Node3&#45;&gt;Node4 -->
<g id="edge3_Node000003_Node000004" class="edge">
<title>Node3&#45;&gt;Node4</title>
<g id="a_edge3_Node000003_Node000004"><a xlink:title=" ">
<path fill="none" stroke="#63b8ff" d="M507.57,-33.47C493.62,-35.32 478.1,-37.38 463.6,-39.31"/>
<polygon fill="#63b8ff" stroke="#63b8ff" points="508.43,-36.89 517.88,-32.1 507.51,-29.95 508.43,-36.89"/>
</a>
</g>
</g>
<!-- Node8 -->
<g id="Node000008" class="node">
<title>Node8</title>
<g id="a_Node000008"><a xlink:href="gps_8cpp.html#a177ee65fb57b969753487772f3fc552c" target="_top" xlink:title=" ">
<polygon fill="white" stroke="#666666" points="482,-19 335,-19 335,0 482,0 482,-19"/>
<text text-anchor="middle" x="408.5" y="-7" font-family="Helvetica,sans-Serif" font-size="10.00">GetPosition_and_Satellites</text>
</a>
</g>
</g>
<!-- Node3&#45;&gt;Node8 -->
<g id="edge8_Node000003_Node000008" class="edge">
<title>Node3&#45;&gt;Node8</title>
<g id="a_edge8_Node000003_Node000008"><a xlink:title=" ">
<path fill="none" stroke="#63b8ff" d="M507.87,-21.88C499.7,-20.85 490.98,-19.76 482.24,-18.66"/>
<polygon fill="#63b8ff" stroke="#63b8ff" points="507.52,-25.37 517.88,-23.14 508.4,-18.42 507.52,-25.37"/>
</a>
</g>
</g>
<!-- Node5 -->
<g id="Node000005" class="node">
<title>Node5</title>
<g id="a_Node000005"><a xlink:href="gps_8cpp.html#a79c2c486e631815579df4be3e190ebad" target="_top" xlink:title=" ">
<polygon fill="white" stroke="#666666" points="299,-37 235,-37 235,-18 299,-18 299,-37"/>
<text text-anchor="middle" x="267" y="-25" font-family="Helvetica,sans-Serif" font-size="10.00">GPS_sync</text>
</a>
</g>
</g>
<!-- Node4&#45;&gt;Node5 -->
<g id="edge4_Node000004_Node000005" class="edge">
<title>Node4&#45;&gt;Node5</title>
<g id="a_edge4_Node000004_Node000005"><a xlink:title=" ">
<path fill="none" stroke="#63b8ff" d="M343.15,-37.74C327.8,-35.64 312.08,-33.5 299.02,-31.73"/>
<polygon fill="#63b8ff" stroke="#63b8ff" points="342.79,-41.22 353.17,-39.1 343.73,-34.28 342.79,-41.22"/>
</a>
</g>
</g>
<!-- Node6 -->
<g id="Node000006" class="node">
<title>Node6</title>
<g id="a_Node000006"><a xlink:href="gps_8cpp.html#a58c63785b84f6e923c4e8ca91f335c43" target="_top" xlink:title=" ">
<polygon fill="white" stroke="#666666" points="199,-56 80,-56 80,-37 199,-37 199,-56"/>
<text text-anchor="middle" x="139.5" y="-44" font-family="Helvetica,sans-Serif" font-size="10.00">check_GPS_sync_req</text>
</a>
</g>
</g>
<!-- Node5&#45;&gt;Node6 -->
<g id="edge5_Node000005_Node000006" class="edge">
<title>Node5&#45;&gt;Node6</title>
<g id="a_edge5_Node000005_Node000006"><a xlink:title=" ">
<path fill="none" stroke="#63b8ff" d="M224.87,-33.73C216.62,-34.98 207.79,-36.31 199.07,-37.63"/>
<polygon fill="#63b8ff" stroke="#63b8ff" points="225.61,-37.15 234.98,-32.2 224.57,-30.23 225.61,-37.15"/>
</a>
</g>
</g>
<!-- Node7 -->
<g id="Node000007" class="node">
<title>Node7</title>
<g id="a_Node000007"><a xlink:href="main_8cpp.html#a39ceba300a80e348e278539f57e0ca79" target="_top" xlink:title=" ">
<polygon fill="white" stroke="#666666" points="44,-37 0,-37 0,-18 44,-18 44,-37"/>
<text text-anchor="middle" x="22" y="-25" font-family="Helvetica,sans-Serif" font-size="10.00">loop1</text>
</a>
</g>
</g>
<!-- Node5&#45;&gt;Node7 -->
<g id="edge7_Node000005_Node000007" class="edge">
<title>Node5&#45;&gt;Node7</title>
<g id="a_edge7_Node000005_Node000007"><a xlink:title=" ">
<path fill="none" stroke="#63b8ff" d="M224.45,-27.5C172.15,-27.5 84.3,-27.5 44.16,-27.5"/>
<polygon fill="#63b8ff" stroke="#63b8ff" points="224.73,-31 234.73,-27.5 224.73,-24 224.73,-31"/>
</a>
</g>
</g>
<!-- Node6&#45;&gt;Node7 -->
<g id="edge6_Node000006_Node000007" class="edge">
<title>Node6&#45;&gt;Node7</title>
<g id="a_edge6_Node000006_Node000007"><a xlink:title=" ">
<path fill="none" stroke="#63b8ff" d="M70.38,-35.29C60.85,-33.73 51.71,-32.22 44.04,-30.96"/>
<polygon fill="#63b8ff" stroke="#63b8ff" points="69.98,-38.77 80.41,-36.94 71.11,-31.87 69.98,-38.77"/>
</a>
</g>
</g>
<!-- Node8&#45;&gt;Node5 -->
<g id="edge9_Node000008_Node000005" class="edge">
<title>Node8&#45;&gt;Node5</title>
<g id="a_edge9_Node000008_Node000005"><a xlink:title=" ">
<path fill="none" stroke="#63b8ff" d="M324.92,-20.16C315.82,-21.33 307.02,-22.47 299.17,-23.48"/>
<polygon fill="#63b8ff" stroke="#63b8ff" points="325.42,-23.62 334.89,-18.87 324.52,-16.68 325.42,-23.62"/>
</a>
</g>
</g>
</g>
</svg>
