<?xml version="1.0" encoding="UTF-8" standalone="no"?>
<!DOCTYPE svg PUBLIC "-//W3C//DTD SVG 1.1//EN"
 "http://www.w3.org/Graphics/SVG/1.1/DTD/svg11.dtd">
<!-- Generated by graphviz version 2.43.0 (0)
 -->
<!-- Title: minmea_sentence_id Pages: 1 -->
<svg width="384pt" height="64pt"
 viewBox="0.00 0.00 384.00 64.00" xmlns="http://www.w3.org/2000/svg" xmlns:xlink="http://www.w3.org/1999/xlink">

<svg id="main" version="1.1" xmlns="http://www.w3.org/2000/svg" xmlns:xlink="http://www.w3.org/1999/xlink" xml:space="preserve" onload="init(evt)">
<style type="text/css"><![CDATA[
.node, .edge {opacity: 0.7;}
.node.selected, .edge.selected {opacity: 1;}
.edge:hover path { stroke: red; }
.edge:hover polygon { stroke: red; fill: red; }
]]></style>
<script type="application/ecmascript" xlink:href="svg.min.js"/>
<svg id="graph" class="graph">
<g id="graph0" class="graph" transform="scale(1 1) rotate(0) translate(4 60)">
<title>minmea_sentence_id</title>
<!-- Node1 -->
<g id="Node000001" class="node">
<title>Node1</title>
<g id="a_Node000001"><a xlink:title=" ">
<polygon fill="#999999" stroke="#666666" points="121,-37 0,-37 0,-18 121,-18 121,-37"/>
<text text-anchor="middle" x="60.5" y="-25" font-family="Helvetica,sans-Serif" font-size="10.00">minmea_sentence_id</text>
</a>
</g>
</g>
<!-- Node2 -->
<g id="Node000002" class="node">
<title>Node2</title>
<g id="a_Node000002"><a xlink:href="minmea_8c.html#a47a3de8df9224ba2db8278ffc570b157" target="_top" xlink:title=" ">
<polygon fill="white" stroke="#666666" points="248,-56 157,-56 157,-37 248,-37 248,-56"/>
<text text-anchor="middle" x="202.5" y="-44" font-family="Helvetica,sans-Serif" font-size="10.00">minmea_check</text>
</a>
</g>
</g>
<!-- Node1&#45;&gt;Node2 -->
<g id="edge1_Node000001_Node000002" class="edge">
<title>Node1&#45;&gt;Node2</title>
<g id="a_edge1_Node000001_Node000002"><a xlink:title=" ">
<path fill="none" stroke="#63b8ff" d="M121.28,-35.61C129.73,-36.76 138.39,-37.94 146.74,-39.07"/>
<polygon fill="#63b8ff" stroke="#63b8ff" points="146.37,-42.55 156.75,-40.43 147.31,-35.61 146.37,-42.55"/>
</a>
</g>
</g>
<!-- Node4 -->
<g id="Node000004" class="node">
<title>Node4</title>
<g id="a_Node000004"><a xlink:href="minmea_8c.html#a15e9012d03411f7471ca65649f206cc0" target="_top" xlink:title=" ">
<polygon fill="white" stroke="#666666" points="245,-19 160,-19 160,0 245,0 245,-19"/>
<text text-anchor="middle" x="202.5" y="-7" font-family="Helvetica,sans-Serif" font-size="10.00">minmea_scan</text>
</a>
</g>
</g>
<!-- Node1&#45;&gt;Node4 -->
<g id="edge3_Node000001_Node000004" class="edge">
<title>Node1&#45;&gt;Node4</title>
<g id="a_edge3_Node000001_Node000004"><a xlink:title=" ">
<path fill="none" stroke="#63b8ff" d="M121.28,-19.81C130.67,-18.61 140.32,-17.37 149.52,-16.18"/>
<polygon fill="#63b8ff" stroke="#63b8ff" points="150.21,-19.62 159.68,-14.88 149.32,-12.68 150.21,-19.62"/>
</a>
</g>
</g>
<!-- Node3 -->
<g id="Node000003" class="node">
<title>Node3</title>
<g id="a_Node000003"><a xlink:href="minmea_8c.html#abcaa65247952824272d6e0b91d66cf8b" target="_top" xlink:title=" ">
<polygon fill="white" stroke="#666666" points="356.5,-56 303.5,-56 303.5,-37 356.5,-37 356.5,-56"/>
<text text-anchor="middle" x="330" y="-44" font-family="Helvetica,sans-Serif" font-size="10.00">hex2int</text>
</a>
</g>
</g>
<!-- Node2&#45;&gt;Node3 -->
<g id="edge2_Node000002_Node000003" class="edge">
<title>Node2&#45;&gt;Node3</title>
<g id="a_edge2_Node000002_Node000003"><a xlink:title=" ">
<path fill="none" stroke="#63b8ff" d="M248.1,-46.5C262.81,-46.5 278.97,-46.5 292.96,-46.5"/>
<polygon fill="#63b8ff" stroke="#63b8ff" points="293.17,-50 303.17,-46.5 293.17,-43 293.17,-50"/>
</a>
</g>
</g>
<!-- Node5 -->
<g id="Node000005" class="node">
<title>Node5</title>
<g id="a_Node000005"><a xlink:href="minmea_8h.html#acd31fbf84ad0c2e5dac349ca993248be" target="_top" xlink:title=" ">
<polygon fill="white" stroke="#666666" points="376,-19 284,-19 284,0 376,0 376,-19"/>
<text text-anchor="middle" x="330" y="-7" font-family="Helvetica,sans-Serif" font-size="10.00">minmea_isfield</text>
</a>
</g>
</g>
<!-- Node4&#45;&gt;Node5 -->
<g id="edge4_Node000004_Node000005" class="edge">
<title>Node4&#45;&gt;Node5</title>
<g id="a_edge4_Node000004_Node000005"><a xlink:title=" ">
<path fill="none" stroke="#63b8ff" d="M245.29,-9.5C254.4,-9.5 264.18,-9.5 273.72,-9.5"/>
<polygon fill="#63b8ff" stroke="#63b8ff" points="273.94,-13 283.94,-9.5 273.94,-6 273.94,-13"/>
</a>
</g>
</g>
</g>
</svg>
</svg>

<style type='text/css'>
<![CDATA[
[data-mouse-over-selected='false'] { opacity: 0.7; }
[data-mouse-over-selected='true']  { opacity: 1.0; }
]]>
</style>
<script type="application/ecmascript"><![CDATA[
document.addEventListener('DOMContentLoaded', (event) => {
  highlightEdges();
  highlightAdjacentNodes();
});
]]></script>
</svg>
