<?xml version="1.0" encoding="UTF-8" standalone="no"?>
<!DOCTYPE svg PUBLIC "-//W3C//DTD SVG 1.1//EN"
 "http://www.w3.org/Graphics/SVG/1.1/DTD/svg11.dtd">
<!-- Generated by graphviz version 2.43.0 (0)
 -->
<!-- Title: parsed_nmea Pages: 1 -->
<svg width="582pt" height="1138pt"
 viewBox="0.00 0.00 582.00 1137.55" xmlns="http://www.w3.org/2000/svg" xmlns:xlink="http://www.w3.org/1999/xlink">
<g id="graph0" class="graph" transform="scale(1 1) rotate(0) translate(4 1133.55)">
<title>parsed_nmea</title>
<!-- Node1 -->
<g id="Node000001" class="node">
<title>Node1</title>
<g id="a_Node000001"><a xlink:title=" ">
<polygon fill="#999999" stroke="#666666" points="574,-479.05 491,-479.05 491,-460.05 574,-460.05 574,-479.05"/>
<text text-anchor="middle" x="532.5" y="-467.05" font-family="Helvetica,sans-Serif" font-size="10.00">parsed_nmea</text>
</a>
</g>
</g>
<!-- Node2 -->
<g id="Node000002" class="node">
<title>Node2</title>
<g id="a_Node000002"><a xlink:href="structminmea__sentence__gbs.html" target="_top" xlink:title=" ">
<polygon fill="white" stroke="#666666" points="393,-743.05 264,-743.05 264,-724.05 393,-724.05 393,-743.05"/>
<text text-anchor="middle" x="328.5" y="-731.05" font-family="Helvetica,sans-Serif" font-size="10.00">minmea_sentence_gbs</text>
</a>
</g>
</g>
<!-- Node2&#45;&gt;Node1 -->
<g id="edge1_Node000001_Node000002" class="edge">
<title>Node2&#45;&gt;Node1</title>
<g id="a_edge1_Node000001_Node000002"><a xlink:title=" ">
<path fill="none" stroke="#9a32cd" stroke-dasharray="5,2" d="M346.96,-716.66C375.42,-688.58 432.67,-629.83 473,-573.55 496.41,-540.88 517.93,-498 526.99,-479.15"/>
<polygon fill="#9a32cd" stroke="#9a32cd" points="344.43,-714.24 339.73,-723.73 349.33,-719.24 344.43,-714.24"/>
</a>
</g>
<text text-anchor="middle" x="442.5" y="-649.55" font-family="Helvetica,sans-Serif" font-size="10.00" fill="grey"> parsed_gbs</text>
</g>
<!-- Node3 -->
<g id="Node000003" class="node">
<title>Node3</title>
<g id="a_Node000003"><a xlink:href="unionminmea__type.html" target="_top" xlink:title=" ">
<polygon fill="white" stroke="#666666" points="92.5,-479.05 8.5,-479.05 8.5,-460.05 92.5,-460.05 92.5,-479.05"/>
<text text-anchor="middle" x="50.5" y="-467.05" font-family="Helvetica,sans-Serif" font-size="10.00">minmea_type</text>
</a>
</g>
</g>
<!-- Node3&#45;&gt;Node2 -->
<g id="edge2_Node000002_Node000003" class="edge">
<title>Node3&#45;&gt;Node2</title>
<g id="a_edge2_Node000002_Node000003"><a xlink:title=" ">
<path fill="none" stroke="#9a32cd" stroke-dasharray="5,2" d="M53.63,-489.39C60.01,-544.67 80.91,-698.38 119,-728.55 140.71,-745.75 210.95,-744.18 263.95,-740.13"/>
<polygon fill="#9a32cd" stroke="#9a32cd" points="57.08,-488.71 52.49,-479.16 50.12,-489.49 57.08,-488.71"/>
</a>
</g>
<text text-anchor="middle" x="182" y="-745.55" font-family="Helvetica,sans-Serif" font-size="10.00" fill="grey"> type</text>
</g>
<!-- Node6 -->
<g id="Node000006" class="node">
<title>Node6</title>
<g id="a_Node000006"><a xlink:href="structminmea__sentence__rmc.html" target="_top" xlink:title=" ">
<polygon fill="white" stroke="#666666" points="394,-265.05 263,-265.05 263,-246.05 394,-246.05 394,-265.05"/>
<text text-anchor="middle" x="328.5" y="-253.05" font-family="Helvetica,sans-Serif" font-size="10.00">minmea_sentence_rmc</text>
</a>
</g>
</g>
<!-- Node3&#45;&gt;Node6 -->
<g id="edge6_Node000006_Node000003" class="edge">
<title>Node3&#45;&gt;Node6</title>
<g id="a_edge6_Node000006_Node000003"><a xlink:title=" ">
<path fill="none" stroke="#9a32cd" stroke-dasharray="5,2" d="M64.37,-451.12C75.85,-433.74 92.18,-406.54 101,-380.55 109.8,-354.6 98.39,-276.61 119,-258.55 139.76,-240.36 209.78,-242.78 263,-247.71"/>
<polygon fill="#9a32cd" stroke="#9a32cd" points="61.27,-449.46 58.56,-459.7 67.07,-453.38 61.27,-449.46"/>
</a>
</g>
<text text-anchor="middle" x="182" y="-261.55" font-family="Helvetica,sans-Serif" font-size="10.00" fill="grey"> type</text>
</g>
<!-- Node8 -->
<g id="Node000008" class="node">
<title>Node8</title>
<g id="a_Node000008"><a xlink:href="structminmea__sentence__gga.html" target="_top" xlink:title=" ">
<polygon fill="white" stroke="#666666" points="393.5,-630.05 263.5,-630.05 263.5,-611.05 393.5,-611.05 393.5,-630.05"/>
<text text-anchor="middle" x="328.5" y="-618.05" font-family="Helvetica,sans-Serif" font-size="10.00">minmea_sentence_gga</text>
</a>
</g>
</g>
<!-- Node3&#45;&gt;Node8 -->
<g id="edge11_Node000008_Node000003" class="edge">
<title>Node3&#45;&gt;Node8</title>
<g id="a_edge11_Node000008_Node000003"><a xlink:title=" ">
<path fill="none" stroke="#9a32cd" stroke-dasharray="5,2" d="M54.06,-489.43C59.46,-522.23 75.35,-586.9 119,-615.55 141.97,-630.63 210.97,-629.59 263.36,-626.24"/>
<polygon fill="#9a32cd" stroke="#9a32cd" points="57.48,-488.65 52.56,-479.27 50.56,-489.67 57.48,-488.65"/>
</a>
</g>
<text text-anchor="middle" x="182" y="-630.55" font-family="Helvetica,sans-Serif" font-size="10.00" fill="grey"> type</text>
</g>
<!-- Node9 -->
<g id="Node000009" class="node">
<title>Node9</title>
<g id="a_Node000009"><a xlink:href="structminmea__sentence__gsa.html" target="_top" xlink:title=" ">
<polygon fill="white" stroke="#666666" points="393,-1006.05 264,-1006.05 264,-987.05 393,-987.05 393,-1006.05"/>
<text text-anchor="middle" x="328.5" y="-994.05" font-family="Helvetica,sans-Serif" font-size="10.00">minmea_sentence_gsa</text>
</a>
</g>
</g>
<!-- Node3&#45;&gt;Node9 -->
<g id="edge15_Node000009_Node000003" class="edge">
<title>Node3&#45;&gt;Node9</title>
<g id="a_edge15_Node000009_Node000003"><a xlink:title=" ">
<path fill="none" stroke="#9a32cd" stroke-dasharray="5,2" d="M55.31,-489.11C64.42,-536.52 87.71,-661.4 101,-766.55 103.91,-789.56 102.75,-957.99 119,-974.55 129.09,-984.83 206.38,-990.81 263.93,-993.87"/>
<polygon fill="#9a32cd" stroke="#9a32cd" points="58.74,-488.41 53.4,-479.25 51.87,-489.73 58.74,-488.41"/>
</a>
</g>
<text text-anchor="middle" x="182" y="-995.55" font-family="Helvetica,sans-Serif" font-size="10.00" fill="grey"> type</text>
</g>
<!-- Node10 -->
<g id="Node000010" class="node">
<title>Node10</title>
<g id="a_Node000010"><a xlink:href="structminmea__sentence__gll.html" target="_top" xlink:title=" ">
<polygon fill="white" stroke="#666666" points="390.5,-479.05 266.5,-479.05 266.5,-460.05 390.5,-460.05 390.5,-479.05"/>
<text text-anchor="middle" x="328.5" y="-467.05" font-family="Helvetica,sans-Serif" font-size="10.00">minmea_sentence_gll</text>
</a>
</g>
</g>
<!-- Node3&#45;&gt;Node10 -->
<g id="edge18_Node000010_Node000003" class="edge">
<title>Node3&#45;&gt;Node10</title>
<g id="a_edge18_Node000010_Node000003"><a xlink:title=" ">
<path fill="none" stroke="#9a32cd" stroke-dasharray="5,2" d="M102.63,-469.55C148.9,-469.55 217.15,-469.55 266.31,-469.55"/>
<polygon fill="#9a32cd" stroke="#9a32cd" points="102.52,-466.05 92.52,-469.55 102.52,-473.05 102.52,-466.05"/>
</a>
</g>
<text text-anchor="middle" x="182" y="-472.55" font-family="Helvetica,sans-Serif" font-size="10.00" fill="grey"> type</text>
</g>
<!-- Node11 -->
<g id="Node000011" class="node">
<title>Node11</title>
<g id="a_Node000011"><a xlink:href="structminmea__sentence__gst.html" target="_top" xlink:title=" ">
<polygon fill="white" stroke="#666666" points="392,-382.05 265,-382.05 265,-363.05 392,-363.05 392,-382.05"/>
<text text-anchor="middle" x="328.5" y="-370.05" font-family="Helvetica,sans-Serif" font-size="10.00">minmea_sentence_gst</text>
</a>
</g>
</g>
<!-- Node3&#45;&gt;Node11 -->
<g id="edge22_Node000011_Node000003" class="edge">
<title>Node3&#45;&gt;Node11</title>
<g id="a_edge22_Node000011_Node000003"><a xlink:title=" ">
<path fill="none" stroke="#9a32cd" stroke-dasharray="5,2" d="M63.04,-451.32C73.85,-433.7 89.96,-406.01 101,-380.55 111.4,-356.57 97.87,-339.95 119,-324.55 181.13,-279.26 279.11,-338.6 314.34,-362.97"/>
<polygon fill="#9a32cd" stroke="#9a32cd" points="59.95,-449.65 57.64,-459.99 65.9,-453.35 59.95,-449.65"/>
</a>
</g>
<text text-anchor="middle" x="182" y="-327.55" font-family="Helvetica,sans-Serif" font-size="10.00" fill="grey"> type</text>
</g>
<!-- Node12 -->
<g id="Node000012" class="node">
<title>Node12</title>
<g id="a_Node000012"><a xlink:href="structminmea__sentence__gsv.html" target="_top" xlink:title=" ">
<polygon fill="white" stroke="#666666" points="393,-129.05 264,-129.05 264,-110.05 393,-110.05 393,-129.05"/>
<text text-anchor="middle" x="328.5" y="-117.05" font-family="Helvetica,sans-Serif" font-size="10.00">minmea_sentence_gsv</text>
</a>
</g>
</g>
<!-- Node3&#45;&gt;Node12 -->
<g id="edge26_Node000012_Node000003" class="edge">
<title>Node3&#45;&gt;Node12</title>
<g id="a_edge26_Node000012_Node000003"><a xlink:title=" ">
<path fill="none" stroke="#9a32cd" stroke-dasharray="5,2" d="M64.84,-451.27C76.66,-434 93.2,-406.87 101,-380.55 109.29,-352.57 97.67,-138.46 119,-118.55 139.31,-99.59 210.22,-103.73 263.76,-110.08"/>
<polygon fill="#9a32cd" stroke="#9a32cd" points="61.74,-449.6 58.85,-459.79 67.47,-453.63 61.74,-449.6"/>
</a>
</g>
<text text-anchor="middle" x="182" y="-121.55" font-family="Helvetica,sans-Serif" font-size="10.00" fill="grey"> type</text>
</g>
<!-- Node14 -->
<g id="Node000014" class="node">
<title>Node14</title>
<g id="a_Node000014"><a xlink:href="structminmea__sentence__vtg.html" target="_top" xlink:title=" ">
<polygon fill="white" stroke="#666666" points="392.5,-883.05 264.5,-883.05 264.5,-864.05 392.5,-864.05 392.5,-883.05"/>
<text text-anchor="middle" x="328.5" y="-871.05" font-family="Helvetica,sans-Serif" font-size="10.00">minmea_sentence_vtg</text>
</a>
</g>
</g>
<!-- Node3&#45;&gt;Node14 -->
<g id="edge29_Node000014_Node000003" class="edge">
<title>Node3&#45;&gt;Node14</title>
<g id="a_edge29_Node000014_Node000003"><a xlink:title=" ">
<path fill="none" stroke="#9a32cd" stroke-dasharray="5,2" d="M54.69,-489.51C67.16,-567.16 112.22,-845.23 119,-851.55 129.55,-861.39 206.96,-867.48 264.4,-870.69"/>
<polygon fill="#9a32cd" stroke="#9a32cd" points="58.08,-488.51 53.04,-479.19 51.17,-489.62 58.08,-488.51"/>
</a>
</g>
<text text-anchor="middle" x="182" y="-871.55" font-family="Helvetica,sans-Serif" font-size="10.00" fill="grey"> type</text>
</g>
<!-- Node15 -->
<g id="Node000015" class="node">
<title>Node15</title>
<g id="a_Node000015"><a xlink:href="structminmea__sentence__zda.html" target="_top" xlink:title=" ">
<polygon fill="white" stroke="#666666" points="393,-197.05 264,-197.05 264,-178.05 393,-178.05 393,-197.05"/>
<text text-anchor="middle" x="328.5" y="-185.05" font-family="Helvetica,sans-Serif" font-size="10.00">minmea_sentence_zda</text>
</a>
</g>
</g>
<!-- Node3&#45;&gt;Node15 -->
<g id="edge32_Node000015_Node000003" class="edge">
<title>Node3&#45;&gt;Node15</title>
<g id="a_edge32_Node000015_Node000003"><a xlink:title=" ">
<path fill="none" stroke="#9a32cd" stroke-dasharray="5,2" d="M64.54,-451.18C76.15,-433.84 92.56,-406.67 101,-380.55 111.46,-348.19 95.88,-253.5 119,-228.55 124.21,-222.93 210.59,-207.32 270.51,-197.06"/>
<polygon fill="#9a32cd" stroke="#9a32cd" points="61.44,-449.51 58.67,-459.74 67.21,-453.47 61.44,-449.51"/>
</a>
</g>
<text text-anchor="middle" x="182" y="-231.55" font-family="Helvetica,sans-Serif" font-size="10.00" fill="grey"> type</text>
</g>
<!-- Node4 -->
<g id="Node000004" class="node">
<title>Node4</title>
<g id="a_Node000004"><a xlink:href="structminmea__time.html" target="_top" xlink:title=" ">
<polygon fill="white" stroke="#666666" points="93,-371.05 8,-371.05 8,-352.05 93,-352.05 93,-371.05"/>
<text text-anchor="middle" x="50.5" y="-359.05" font-family="Helvetica,sans-Serif" font-size="10.00">minmea_time</text>
</a>
</g>
</g>
<!-- Node4&#45;&gt;Node2 -->
<g id="edge3_Node000002_Node000004" class="edge">
<title>Node4&#45;&gt;Node2</title>
<g id="a_edge3_Node000002_Node000004"><a xlink:title=" ">
<path fill="none" stroke="#9a32cd" stroke-dasharray="5,2" d="M64.62,-379.78C76.42,-397.26 93.08,-424.86 101,-451.55 116.4,-503.46 82.5,-654.56 119,-694.55 138.14,-715.52 217.12,-710.19 245,-715.55 258.24,-718.1 272.62,-721.14 285.61,-723.99"/>
<polygon fill="#9a32cd" stroke="#9a32cd" points="67.22,-377.4 58.65,-371.18 61.47,-381.39 67.22,-377.4"/>
</a>
</g>
<text text-anchor="middle" x="182" y="-718.55" font-family="Helvetica,sans-Serif" font-size="10.00" fill="grey"> time</text>
</g>
<!-- Node4&#45;&gt;Node6 -->
<g id="edge7_Node000006_Node000004" class="edge">
<title>Node4&#45;&gt;Node6</title>
<g id="a_edge7_Node000006_Node000004"><a xlink:title=" ">
<path fill="none" stroke="#9a32cd" stroke-dasharray="5,2" d="M52.42,-341.67C55.34,-304.18 67.62,-223.66 119,-188.55 165.24,-156.96 193.26,-167.12 245,-188.55 255.45,-192.88 254.48,-199.11 263,-206.55 279.74,-221.16 300.39,-236.4 313.74,-245.93"/>
<polygon fill="#9a32cd" stroke="#9a32cd" points="48.91,-341.63 51.77,-351.83 55.9,-342.07 48.91,-341.63"/>
</a>
</g>
<text text-anchor="middle" x="182" y="-191.55" font-family="Helvetica,sans-Serif" font-size="10.00" fill="grey"> time</text>
</g>
<!-- Node4&#45;&gt;Node8 -->
<g id="edge12_Node000008_Node000004" class="edge">
<title>Node4&#45;&gt;Node8</title>
<g id="a_edge12_Node000008_Node000004"><a xlink:title=" ">
<path fill="none" stroke="#9a32cd" stroke-dasharray="5,2" d="M64.23,-379.9C75.76,-397.47 92.24,-425.13 101,-451.55 110.18,-479.23 98.66,-560.65 119,-581.55 138.79,-601.9 217.12,-597.19 245,-602.55 258.24,-605.1 272.62,-608.14 285.61,-610.99"/>
<polygon fill="#9a32cd" stroke="#9a32cd" points="66.9,-377.6 58.41,-371.25 61.09,-381.5 66.9,-377.6"/>
</a>
</g>
<text text-anchor="middle" x="182" y="-605.55" font-family="Helvetica,sans-Serif" font-size="10.00" fill="grey"> time</text>
</g>
<!-- Node4&#45;&gt;Node10 -->
<g id="edge20_Node000010_Node000004" class="edge">
<title>Node4&#45;&gt;Node10</title>
<g id="a_edge20_Node000010_Node000004"><a xlink:title=" ">
<path fill="none" stroke="#9a32cd" stroke-dasharray="5,2" d="M69.24,-378.38C82.13,-389.79 100.51,-404.4 119,-413.55 147.89,-427.84 232.08,-448.21 284.22,-460.04"/>
<polygon fill="#9a32cd" stroke="#9a32cd" points="71.36,-375.58 61.6,-371.44 66.64,-380.76 71.36,-375.58"/>
</a>
</g>
<text text-anchor="middle" x="182" y="-453.55" font-family="Helvetica,sans-Serif" font-size="10.00" fill="grey"> time</text>
</g>
<!-- Node4&#45;&gt;Node11 -->
<g id="edge23_Node000011_Node000004" class="edge">
<title>Node4&#45;&gt;Node11</title>
<g id="a_edge23_Node000011_Node000004"><a xlink:title=" ">
<path fill="none" stroke="#9a32cd" stroke-dasharray="5,2" d="M62.61,-343.17C74.22,-325.9 94.21,-301.19 119,-290.55 170.46,-268.47 193.23,-269.2 245,-290.55 281.03,-305.41 309.62,-344.47 321.52,-362.8"/>
<polygon fill="#9a32cd" stroke="#9a32cd" points="59.49,-341.54 57.04,-351.85 65.38,-345.32 59.49,-341.54"/>
</a>
</g>
<text text-anchor="middle" x="182" y="-293.55" font-family="Helvetica,sans-Serif" font-size="10.00" fill="grey"> time</text>
</g>
<!-- Node4&#45;&gt;Node15 -->
<g id="edge33_Node000015_Node000004" class="edge">
<title>Node4&#45;&gt;Node15</title>
<g id="a_edge33_Node000015_Node000004"><a xlink:title=" ">
<path fill="none" stroke="#9a32cd" stroke-dasharray="5,2" d="M54.93,-341.67C65.56,-281.2 98.47,-102.65 119,-86.55 141.03,-69.27 222.19,-70.31 245,-86.55 264.92,-100.74 248.65,-118.75 263,-138.55 275.3,-155.52 295.13,-169.33 309.56,-177.92"/>
<polygon fill="#9a32cd" stroke="#9a32cd" points="51.43,-341.36 53.16,-351.81 58.33,-342.56 51.43,-341.36"/>
</a>
</g>
<text text-anchor="middle" x="182" y="-89.55" font-family="Helvetica,sans-Serif" font-size="10.00" fill="grey"> time</text>
</g>
<!-- Node5 -->
<g id="Node000005" class="node">
<title>Node5</title>
<g id="a_Node000005"><a xlink:href="structminmea__float.html" target="_top" xlink:title=" ">
<polygon fill="white" stroke="#666666" points="92.5,-794.05 8.5,-794.05 8.5,-775.05 92.5,-775.05 92.5,-794.05"/>
<text text-anchor="middle" x="50.5" y="-782.05" font-family="Helvetica,sans-Serif" font-size="10.00">minmea_float</text>
</a>
</g>
</g>
<!-- Node5&#45;&gt;Node2 -->
<g id="edge4_Node000002_Node000005" class="edge">
<title>Node5&#45;&gt;Node2</title>
<g id="a_edge4_Node000002_Node000005"><a xlink:title=" ">
<path fill="none" stroke="#9a32cd" stroke-dasharray="5,2" d="M57.84,-803.58C67.03,-827.71 86.59,-868.23 119,-885.55 168.39,-911.95 196.88,-914.19 245,-885.55 248.48,-883.48 304.82,-776.69 322.34,-743.37"/>
<polygon fill="#9a32cd" stroke="#9a32cd" points="61.11,-802.31 54.44,-794.08 54.52,-804.68 61.11,-802.31"/>
</a>
</g>
<text text-anchor="middle" x="182" y="-963.55" font-family="Helvetica,sans-Serif" font-size="10.00" fill="grey"> bias</text>
<text text-anchor="middle" x="182" y="-952.55" font-family="Helvetica,sans-Serif" font-size="10.00" fill="grey">err_altitude</text>
<text text-anchor="middle" x="182" y="-941.55" font-family="Helvetica,sans-Serif" font-size="10.00" fill="grey">err_latitude</text>
<text text-anchor="middle" x="182" y="-930.55" font-family="Helvetica,sans-Serif" font-size="10.00" fill="grey">err_longitude</text>
<text text-anchor="middle" x="182" y="-919.55" font-family="Helvetica,sans-Serif" font-size="10.00" fill="grey">prob</text>
<text text-anchor="middle" x="182" y="-908.55" font-family="Helvetica,sans-Serif" font-size="10.00" fill="grey">stddev</text>
</g>
<!-- Node5&#45;&gt;Node6 -->
<g id="edge8_Node000006_Node000005" class="edge">
<title>Node5&#45;&gt;Node6</title>
<g id="a_edge8_Node000006_Node000005"><a xlink:title=" ">
<path fill="none" stroke="#9a32cd" stroke-dasharray="5,2" d="M54.99,-765.01C63.4,-717.67 85.25,-593.01 101,-488.55 105.48,-458.84 97.93,-375.97 119,-354.55 158.72,-314.18 194.25,-360.68 245,-335.55 279.15,-318.64 308.27,-282.43 320.85,-265.13"/>
<polygon fill="#9a32cd" stroke="#9a32cd" points="51.55,-764.4 53.24,-774.86 58.44,-765.63 51.55,-764.4"/>
</a>
</g>
<text text-anchor="middle" x="182" y="-401.55" font-family="Helvetica,sans-Serif" font-size="10.00" fill="grey"> course</text>
<text text-anchor="middle" x="182" y="-390.55" font-family="Helvetica,sans-Serif" font-size="10.00" fill="grey">latitude</text>
<text text-anchor="middle" x="182" y="-379.55" font-family="Helvetica,sans-Serif" font-size="10.00" fill="grey">longitude</text>
<text text-anchor="middle" x="182" y="-368.55" font-family="Helvetica,sans-Serif" font-size="10.00" fill="grey">speed</text>
<text text-anchor="middle" x="182" y="-357.55" font-family="Helvetica,sans-Serif" font-size="10.00" fill="grey">variation</text>
</g>
<!-- Node5&#45;&gt;Node8 -->
<g id="edge13_Node000008_Node000005" class="edge">
<title>Node5&#45;&gt;Node8</title>
<g id="a_edge13_Node000008_Node000005"><a xlink:title=" ">
<path fill="none" stroke="#9a32cd" stroke-dasharray="5,2" d="M103.17,-784.59C152.87,-783.6 223.54,-779.18 245,-762.55 262.68,-748.85 252.65,-735.38 263,-715.55 280.34,-682.33 307,-646.67 319.94,-630.07"/>
<polygon fill="#9a32cd" stroke="#9a32cd" points="102.85,-781.09 92.9,-784.75 102.96,-788.09 102.85,-781.09"/>
</a>
</g>
<text text-anchor="middle" x="182" y="-841.55" font-family="Helvetica,sans-Serif" font-size="10.00" fill="grey"> altitude</text>
<text text-anchor="middle" x="182" y="-830.55" font-family="Helvetica,sans-Serif" font-size="10.00" fill="grey">dgps_age</text>
<text text-anchor="middle" x="182" y="-819.55" font-family="Helvetica,sans-Serif" font-size="10.00" fill="grey">hdop</text>
<text text-anchor="middle" x="182" y="-808.55" font-family="Helvetica,sans-Serif" font-size="10.00" fill="grey">height</text>
<text text-anchor="middle" x="182" y="-797.55" font-family="Helvetica,sans-Serif" font-size="10.00" fill="grey">latitude</text>
<text text-anchor="middle" x="182" y="-786.55" font-family="Helvetica,sans-Serif" font-size="10.00" fill="grey">longitude</text>
</g>
<!-- Node5&#45;&gt;Node9 -->
<g id="edge16_Node000009_Node000005" class="edge">
<title>Node5&#45;&gt;Node9</title>
<g id="a_edge16_Node000009_Node000005"><a xlink:title=" ">
<path fill="none" stroke="#9a32cd" stroke-dasharray="5,2" d="M52.96,-804.09C57.86,-863.7 75.9,-1041.3 119,-1075.55 162.84,-1110.39 193.03,-1096.42 245,-1075.55 280.33,-1061.36 309.07,-1024.02 321.23,-1006.23"/>
<polygon fill="#9a32cd" stroke="#9a32cd" points="56.45,-803.79 52.17,-794.1 49.47,-804.34 56.45,-803.79"/>
</a>
</g>
<text text-anchor="middle" x="182" y="-1121.55" font-family="Helvetica,sans-Serif" font-size="10.00" fill="grey"> hdop</text>
<text text-anchor="middle" x="182" y="-1110.55" font-family="Helvetica,sans-Serif" font-size="10.00" fill="grey">pdop</text>
<text text-anchor="middle" x="182" y="-1099.55" font-family="Helvetica,sans-Serif" font-size="10.00" fill="grey">vdop</text>
</g>
<!-- Node5&#45;&gt;Node10 -->
<g id="edge19_Node000010_Node000005" class="edge">
<title>Node5&#45;&gt;Node10</title>
<g id="a_edge19_Node000010_Node000005"><a xlink:title=" ">
<path fill="none" stroke="#9a32cd" stroke-dasharray="5,2" d="M57.72,-765.43C66.96,-740.16 86.76,-696.11 119,-672.55 165.48,-638.59 200.63,-679.23 245,-642.55 260.02,-630.13 254.75,-620.21 263,-602.55 284.73,-556.05 311.88,-501.03 322.71,-479.18"/>
<polygon fill="#9a32cd" stroke="#9a32cd" points="54.38,-764.4 54.41,-774.99 60.99,-766.69 54.38,-764.4"/>
</a>
</g>
<text text-anchor="middle" x="182" y="-686.55" font-family="Helvetica,sans-Serif" font-size="10.00" fill="grey"> latitude</text>
<text text-anchor="middle" x="182" y="-675.55" font-family="Helvetica,sans-Serif" font-size="10.00" fill="grey">longitude</text>
</g>
<!-- Node5&#45;&gt;Node11 -->
<g id="edge24_Node000011_Node000005" class="edge">
<title>Node5&#45;&gt;Node11</title>
<g id="a_edge24_Node000011_Node000005"><a xlink:title=" ">
<path fill="none" stroke="#9a32cd" stroke-dasharray="5,2" d="M53.38,-764.61C59.32,-706.11 79.66,-536.73 119,-500.55 160.69,-462.21 197.94,-513.06 245,-481.55 257.92,-472.9 254.06,-464.27 263,-451.55 281.32,-425.47 305.77,-397.01 318.67,-382.41"/>
<polygon fill="#9a32cd" stroke="#9a32cd" points="49.88,-764.47 52.38,-774.76 56.84,-765.15 49.88,-764.47"/>
</a>
</g>
<text text-anchor="middle" x="182" y="-569.55" font-family="Helvetica,sans-Serif" font-size="10.00" fill="grey"> altitude_error_deviation</text>
<text text-anchor="middle" x="182" y="-558.55" font-family="Helvetica,sans-Serif" font-size="10.00" fill="grey">latitude_error_deviation</text>
<text text-anchor="middle" x="182" y="-547.55" font-family="Helvetica,sans-Serif" font-size="10.00" fill="grey">longitude_error_deviation</text>
<text text-anchor="middle" x="182" y="-536.55" font-family="Helvetica,sans-Serif" font-size="10.00" fill="grey">rms_deviation</text>
<text text-anchor="middle" x="182" y="-525.55" font-family="Helvetica,sans-Serif" font-size="10.00" fill="grey">semi_major_deviation</text>
<text text-anchor="middle" x="182" y="-514.55" font-family="Helvetica,sans-Serif" font-size="10.00" fill="grey">semi_major_orientation</text>
<text text-anchor="middle" x="182" y="-503.55" font-family="Helvetica,sans-Serif" font-size="10.00" fill="grey">semi_minor_deviation</text>
</g>
<!-- Node5&#45;&gt;Node14 -->
<g id="edge30_Node000014_Node000005" class="edge">
<title>Node5&#45;&gt;Node14</title>
<g id="a_edge30_Node000014_Node000005"><a xlink:title=" ">
<path fill="none" stroke="#9a32cd" stroke-dasharray="5,2" d="M54.43,-804.36C62.29,-854.4 85.5,-983.66 119,-1008.55 163.95,-1041.95 196.27,-1036.14 245,-1008.55 258.53,-1000.89 254.93,-991.84 263,-978.55 284.43,-943.26 310.21,-901.5 321.6,-883.08"/>
<polygon fill="#9a32cd" stroke="#9a32cd" points="57.85,-803.55 52.88,-794.2 50.93,-804.61 57.85,-803.55"/>
</a>
</g>
<text text-anchor="middle" x="182" y="-1066.55" font-family="Helvetica,sans-Serif" font-size="10.00" fill="grey"> magnetic_track_degrees</text>
<text text-anchor="middle" x="182" y="-1055.55" font-family="Helvetica,sans-Serif" font-size="10.00" fill="grey">speed_knots</text>
<text text-anchor="middle" x="182" y="-1044.55" font-family="Helvetica,sans-Serif" font-size="10.00" fill="grey">speed_kph</text>
<text text-anchor="middle" x="182" y="-1033.55" font-family="Helvetica,sans-Serif" font-size="10.00" fill="grey">true_track_degrees</text>
</g>
<!-- Node6&#45;&gt;Node1 -->
<g id="edge5_Node000001_Node000006" class="edge">
<title>Node6&#45;&gt;Node1</title>
<g id="a_edge5_Node000001_Node000006"><a xlink:title=" ">
<path fill="none" stroke="#9a32cd" stroke-dasharray="5,2" d="M347.42,-271.86C375.27,-297.49 430.16,-349.15 473,-396.55 492.6,-418.24 513.56,-445.52 524.28,-459.8"/>
<polygon fill="#9a32cd" stroke="#9a32cd" points="349.74,-269.24 340.01,-265.07 345.01,-274.4 349.74,-269.24"/>
</a>
</g>
<text text-anchor="middle" x="442.5" y="-399.55" font-family="Helvetica,sans-Serif" font-size="10.00" fill="grey"> parsed_rmc</text>
</g>
<!-- Node7 -->
<g id="Node000007" class="node">
<title>Node7</title>
<g id="a_Node000007"><a xlink:href="structminmea__date.html" target="_top" xlink:title=" ">
<polygon fill="white" stroke="#666666" points="92.5,-114.05 8.5,-114.05 8.5,-95.05 92.5,-95.05 92.5,-114.05"/>
<text text-anchor="middle" x="50.5" y="-102.05" font-family="Helvetica,sans-Serif" font-size="10.00">minmea_date</text>
</a>
</g>
</g>
<!-- Node7&#45;&gt;Node6 -->
<g id="edge9_Node000006_Node000007" class="edge">
<title>Node7&#45;&gt;Node6</title>
<g id="a_edge9_Node000006_Node000007"><a xlink:title=" ">
<path fill="none" stroke="#9a32cd" stroke-dasharray="5,2" d="M81.29,-118.07C92.87,-122.9 106.37,-128.02 119,-131.55 173.67,-146.85 201.84,-115.67 245,-152.55 264.23,-168.98 248.27,-185.98 263,-206.55 275.2,-223.59 295.05,-237.39 309.51,-245.95"/>
<polygon fill="#9a32cd" stroke="#9a32cd" points="82.65,-114.85 72.08,-114.13 79.89,-121.28 82.65,-114.85"/>
</a>
</g>
<text text-anchor="middle" x="182" y="-155.55" font-family="Helvetica,sans-Serif" font-size="10.00" fill="grey"> date</text>
</g>
<!-- Node7&#45;&gt;Node15 -->
<g id="edge34_Node000015_Node000007" class="edge">
<title>Node7&#45;&gt;Node15</title>
<g id="a_edge34_Node000015_Node000007"><a xlink:title=" ">
<path fill="none" stroke="#9a32cd" stroke-dasharray="5,2" d="M67.28,-87.44C79.9,-75.09 98.78,-59.43 119,-52.55 172.01,-34.5 201.53,-17.24 245,-52.55 275.31,-77.17 242.13,-105.54 263,-138.55 274.05,-156.02 293.67,-169.59 308.39,-177.97"/>
<polygon fill="#9a32cd" stroke="#9a32cd" points="64.42,-85.35 59.94,-94.95 69.43,-90.25 64.42,-85.35"/>
</a>
</g>
<text text-anchor="middle" x="182" y="-55.55" font-family="Helvetica,sans-Serif" font-size="10.00" fill="grey"> date</text>
</g>
<!-- Node8&#45;&gt;Node1 -->
<g id="edge10_Node000001_Node000008" class="edge">
<title>Node8&#45;&gt;Node1</title>
<g id="a_edge10_Node000001_Node000008"><a xlink:title=" ">
<path fill="none" stroke="#9a32cd" stroke-dasharray="5,2" d="M350.56,-604.81C392.36,-573.56 484.73,-504.52 518.66,-479.15"/>
<polygon fill="#9a32cd" stroke="#9a32cd" points="348.36,-602.08 342.44,-610.87 352.55,-607.69 348.36,-602.08"/>
</a>
</g>
<text text-anchor="middle" x="442.5" y="-561.55" font-family="Helvetica,sans-Serif" font-size="10.00" fill="grey"> parsed_gga</text>
</g>
<!-- Node9&#45;&gt;Node1 -->
<g id="edge14_Node000001_Node000009" class="edge">
<title>Node9&#45;&gt;Node1</title>
<g id="a_edge14_Node000001_Node000009"><a xlink:title=" ">
<path fill="none" stroke="#9a32cd" stroke-dasharray="5,2" d="M344.63,-979C374.27,-943.65 439.93,-860.25 473,-778.55 518.17,-666.96 528.93,-518.36 531.04,-479.29"/>
<polygon fill="#9a32cd" stroke="#9a32cd" points="341.71,-977.03 337.92,-986.93 347.05,-981.56 341.71,-977.03"/>
</a>
</g>
<text text-anchor="middle" x="442.5" y="-887.55" font-family="Helvetica,sans-Serif" font-size="10.00" fill="grey"> parsed_gsa</text>
</g>
<!-- Node10&#45;&gt;Node1 -->
<g id="edge17_Node000001_Node000010" class="edge">
<title>Node10&#45;&gt;Node1</title>
<g id="a_edge17_Node000001_Node000010"><a xlink:title=" ">
<path fill="none" stroke="#9a32cd" stroke-dasharray="5,2" d="M400.75,-469.55C431,-469.55 465.16,-469.55 490.98,-469.55"/>
<polygon fill="#9a32cd" stroke="#9a32cd" points="400.65,-466.05 390.65,-469.55 400.65,-473.05 400.65,-466.05"/>
</a>
</g>
<text text-anchor="middle" x="442.5" y="-472.55" font-family="Helvetica,sans-Serif" font-size="10.00" fill="grey"> parsed_gll</text>
</g>
<!-- Node11&#45;&gt;Node1 -->
<g id="edge21_Node000001_Node000011" class="edge">
<title>Node11&#45;&gt;Node1</title>
<g id="a_edge21_Node000001_Node000011"><a xlink:title=" ">
<path fill="none" stroke="#9a32cd" stroke-dasharray="5,2" d="M358.68,-386.56C400.3,-406.55 475.61,-442.71 511.47,-459.93"/>
<polygon fill="#9a32cd" stroke="#9a32cd" points="360.14,-383.38 349.61,-382.21 357.11,-389.69 360.14,-383.38"/>
</a>
</g>
<text text-anchor="middle" x="442.5" y="-443.55" font-family="Helvetica,sans-Serif" font-size="10.00" fill="grey"> parsed_gst</text>
</g>
<!-- Node12&#45;&gt;Node1 -->
<g id="edge25_Node000001_Node000012" class="edge">
<title>Node12&#45;&gt;Node1</title>
<g id="a_edge25_Node000001_Node000012"><a xlink:title=" ">
<path fill="none" stroke="#9a32cd" stroke-dasharray="5,2" d="M356.8,-134.38C389.65,-153.7 443.99,-190.6 473,-237.55 520.17,-313.87 529.39,-426.57 531.12,-459.92"/>
<polygon fill="#9a32cd" stroke="#9a32cd" points="358.16,-131.13 347.75,-129.19 354.68,-137.2 358.16,-131.13"/>
</a>
</g>
<text text-anchor="middle" x="442.5" y="-240.55" font-family="Helvetica,sans-Serif" font-size="10.00" fill="grey"> parsed_gsv</text>
</g>
<!-- Node13 -->
<g id="Node000013" class="node">
<title>Node13</title>
<g id="a_Node000013"><a xlink:href="structminmea__sat__info.html" target="_top" xlink:title=" ">
<polygon fill="white" stroke="#666666" points="101,-27.05 0,-27.05 0,-8.05 101,-8.05 101,-27.05"/>
<text text-anchor="middle" x="50.5" y="-15.05" font-family="Helvetica,sans-Serif" font-size="10.00">minmea_sat_info</text>
</a>
</g>
</g>
<!-- Node13&#45;&gt;Node12 -->
<g id="edge27_Node000012_Node000013" class="edge">
<title>Node13&#45;&gt;Node12</title>
<g id="a_edge27_Node000012_Node000013"><a xlink:title=" ">
<path fill="none" stroke="#9a32cd" stroke-dasharray="5,2" d="M99.22,-6.13C140.02,1.11 199.22,5.44 245,-16.55 286.31,-36.39 313.43,-88.1 323.31,-109.77"/>
<polygon fill="#9a32cd" stroke="#9a32cd" points="98.44,-2.71 89.27,-8.01 99.74,-9.59 98.44,-2.71"/>
</a>
</g>
<text text-anchor="middle" x="182" y="-19.55" font-family="Helvetica,sans-Serif" font-size="10.00" fill="grey"> sats</text>
</g>
<!-- Node14&#45;&gt;Node1 -->
<g id="edge28_Node000001_Node000014" class="edge">
<title>Node14&#45;&gt;Node1</title>
<g id="a_edge28_Node000001_Node000014"><a xlink:title=" ">
<path fill="none" stroke="#9a32cd" stroke-dasharray="5,2" d="M343.91,-856.24C372.26,-821.42 435.76,-739.57 473,-661.55 504.68,-595.2 523.88,-507.79 529.65,-479.11"/>
<polygon fill="#9a32cd" stroke="#9a32cd" points="341.14,-854.1 337.5,-864.05 346.55,-858.54 341.14,-854.1"/>
</a>
</g>
<text text-anchor="middle" x="442.5" y="-766.55" font-family="Helvetica,sans-Serif" font-size="10.00" fill="grey"> parsed_vtg</text>
</g>
<!-- Node15&#45;&gt;Node1 -->
<g id="edge31_Node000001_Node000015" class="edge">
<title>Node15&#45;&gt;Node1</title>
<g id="a_edge31_Node000001_Node000015"><a xlink:title=" ">
<path fill="none" stroke="#9a32cd" stroke-dasharray="5,2" d="M352.57,-203.22C384.14,-225.81 440.58,-270.47 473,-321.55 503.35,-369.37 522.61,-435.51 529.07,-459.96"/>
<polygon fill="#9a32cd" stroke="#9a32cd" points="354.19,-200.08 343.99,-197.19 350.16,-205.81 354.19,-200.08"/>
</a>
</g>
<text text-anchor="middle" x="442.5" y="-324.55" font-family="Helvetica,sans-Serif" font-size="10.00" fill="grey"> parsed_zda</text>
</g>
</g>
</svg>
