<?xml version="1.0" encoding="UTF-8" standalone="no"?>
<!DOCTYPE svg PUBLIC "-//W3C//DTD SVG 1.1//EN"
 "http://www.w3.org/Graphics/SVG/1.1/DTD/svg11.dtd">
<!-- Generated by graphviz version 2.43.0 (0)
 -->
<!-- Title: minmea_sentence_gsv Pages: 1 -->
<svg width="212pt" height="93pt"
 viewBox="0.00 0.00 211.50 93.00" xmlns="http://www.w3.org/2000/svg" xmlns:xlink="http://www.w3.org/1999/xlink">
<g id="graph0" class="graph" transform="scale(1 1) rotate(0) translate(4 89)">
<title>minmea_sentence_gsv</title>
<!-- Node1 -->
<g id="Node000001" class="node">
<title>Node1</title>
<g id="a_Node000001"><a xlink:title=" ">
<polygon fill="#999999" stroke="#666666" points="161.5,-19 32.5,-19 32.5,0 161.5,0 161.5,-19"/>
<text text-anchor="middle" x="97" y="-7" font-family="Helvetica,sans-Serif" font-size="10.00">minmea_sentence_gsv</text>
</a>
</g>
</g>
<!-- Node2 -->
<g id="Node000002" class="node">
<title>Node2</title>
<g id="a_Node000002"><a xlink:href="unionminmea__type.html" target="_top" xlink:title=" ">
<polygon fill="white" stroke="#666666" points="84,-85 0,-85 0,-66 84,-66 84,-85"/>
<text text-anchor="middle" x="42" y="-73" font-family="Helvetica,sans-Serif" font-size="10.00">minmea_type</text>
</a>
</g>
</g>
<!-- Node2&#45;&gt;Node1 -->
<g id="edge1_Node000001_Node000002" class="edge">
<title>Node2&#45;&gt;Node1</title>
<g id="a_edge1_Node000001_Node000002"><a xlink:title=" ">
<path fill="none" stroke="#9a32cd" stroke-dasharray="5,2" d="M56.07,-58.12C66.66,-45.81 80.76,-29.39 89.35,-19.41"/>
<polygon fill="#9a32cd" stroke="#9a32cd" points="53.28,-56 49.42,-65.87 58.59,-60.57 53.28,-56"/>
</a>
</g>
<text text-anchor="middle" x="85.5" y="-40" font-family="Helvetica,sans-Serif" font-size="10.00" fill="grey"> type</text>
</g>
<!-- Node3 -->
<g id="Node000003" class="node">
<title>Node3</title>
<g id="a_Node000003"><a xlink:href="structminmea__sat__info.html" target="_top" xlink:title=" ">
<polygon fill="white" stroke="#666666" points="203.5,-85 102.5,-85 102.5,-66 203.5,-66 203.5,-85"/>
<text text-anchor="middle" x="153" y="-73" font-family="Helvetica,sans-Serif" font-size="10.00">minmea_sat_info</text>
</a>
</g>
</g>
<!-- Node3&#45;&gt;Node1 -->
<g id="edge2_Node000001_Node000003" class="edge">
<title>Node3&#45;&gt;Node1</title>
<g id="a_edge2_Node000001_Node000003"><a xlink:title=" ">
<path fill="none" stroke="#9a32cd" stroke-dasharray="5,2" d="M138.67,-58.12C127.89,-45.81 113.53,-29.39 104.79,-19.41"/>
<polygon fill="#9a32cd" stroke="#9a32cd" points="136.23,-60.65 145.45,-65.87 141.5,-56.04 136.23,-60.65"/>
</a>
</g>
<text text-anchor="middle" x="140" y="-40" font-family="Helvetica,sans-Serif" font-size="10.00" fill="grey"> sats</text>
</g>
</g>
</svg>
