<?xml version="1.0" encoding="UTF-8" standalone="no"?>
<!DOCTYPE svg PUBLIC "-//W3C//DTD SVG 1.1//EN"
 "http://www.w3.org/Graphics/SVG/1.1/DTD/svg11.dtd">
<!-- Generated by graphviz version 2.43.0 (0)
 -->
<!-- Title: minmea_sentence_vtg Pages: 1 -->
<svg width="261pt" height="126pt"
 viewBox="0.00 0.00 261.00 126.00" xmlns="http://www.w3.org/2000/svg" xmlns:xlink="http://www.w3.org/1999/xlink">
<g id="graph0" class="graph" transform="scale(1 1) rotate(0) translate(4 122)">
<title>minmea_sentence_vtg</title>
<!-- Node1 -->
<g id="Node000001" class="node">
<title>Node1</title>
<g id="a_Node000001"><a xlink:title=" ">
<polygon fill="#999999" stroke="#666666" points="157,-19 29,-19 29,0 157,0 157,-19"/>
<text text-anchor="middle" x="93" y="-7" font-family="Helvetica,sans-Serif" font-size="10.00">minmea_sentence_vtg</text>
</a>
</g>
</g>
<!-- Node2 -->
<g id="Node000002" class="node">
<title>Node2</title>
<g id="a_Node000002"><a xlink:href="unionminmea__type.html" target="_top" xlink:title=" ">
<polygon fill="white" stroke="#666666" points="84,-118 0,-118 0,-99 84,-99 84,-118"/>
<text text-anchor="middle" x="42" y="-106" font-family="Helvetica,sans-Serif" font-size="10.00">minmea_type</text>
</a>
</g>
</g>
<!-- Node2&#45;&gt;Node1 -->
<g id="edge1_Node000001_Node000002" class="edge">
<title>Node2&#45;&gt;Node1</title>
<g id="a_edge1_Node000001_Node000002"><a xlink:title=" ">
<path fill="none" stroke="#9a32cd" stroke-dasharray="5,2" d="M51.29,-89.83C62.26,-68.97 80.07,-35.1 88.41,-19.23"/>
<polygon fill="#9a32cd" stroke="#9a32cd" points="48.08,-88.41 46.53,-98.89 54.28,-91.67 48.08,-88.41"/>
</a>
</g>
<text text-anchor="middle" x="90.5" y="-56.5" font-family="Helvetica,sans-Serif" font-size="10.00" fill="grey"> type</text>
</g>
<!-- Node3 -->
<g id="Node000003" class="node">
<title>Node3</title>
<g id="a_Node000003"><a xlink:href="structminmea__float.html" target="_top" xlink:title=" ">
<polygon fill="white" stroke="#666666" points="186,-118 102,-118 102,-99 186,-99 186,-118"/>
<text text-anchor="middle" x="144" y="-106" font-family="Helvetica,sans-Serif" font-size="10.00">minmea_float</text>
</a>
</g>
</g>
<!-- Node3&#45;&gt;Node1 -->
<g id="edge2_Node000001_Node000003" class="edge">
<title>Node3&#45;&gt;Node1</title>
<g id="a_edge2_Node000001_Node000003"><a xlink:title=" ">
<path fill="none" stroke="#9a32cd" stroke-dasharray="5,2" d="M134.65,-89.66C127.18,-75.4 116.43,-54.91 107,-37 103.9,-31.11 100.4,-24.48 97.67,-19.33"/>
<polygon fill="#9a32cd" stroke="#9a32cd" points="131.71,-91.58 139.45,-98.81 137.91,-88.33 131.71,-91.58"/>
</a>
</g>
<text text-anchor="middle" x="191" y="-73" font-family="Helvetica,sans-Serif" font-size="10.00" fill="grey"> magnetic_track_degrees</text>
<text text-anchor="middle" x="191" y="-62" font-family="Helvetica,sans-Serif" font-size="10.00" fill="grey">speed_knots</text>
<text text-anchor="middle" x="191" y="-51" font-family="Helvetica,sans-Serif" font-size="10.00" fill="grey">speed_kph</text>
<text text-anchor="middle" x="191" y="-40" font-family="Helvetica,sans-Serif" font-size="10.00" fill="grey">true_track_degrees</text>
</g>
</g>
</svg>
