<?xml version="1.0" encoding="UTF-8" standalone="no"?>
<!DOCTYPE svg PUBLIC "-//W3C//DTD SVG 1.1//EN"
 "http://www.w3.org/Graphics/SVG/1.1/DTD/svg11.dtd">
<!-- Generated by graphviz version 2.43.0 (0)
 -->
<!-- Title: minmea_sentence_gsa Pages: 1 -->
<svg width="194pt" height="115pt"
 viewBox="0.00 0.00 194.00 115.00" xmlns="http://www.w3.org/2000/svg" xmlns:xlink="http://www.w3.org/1999/xlink">
<g id="graph0" class="graph" transform="scale(1 1) rotate(0) translate(4 111)">
<title>minmea_sentence_gsa</title>
<!-- Node1 -->
<g id="Node000001" class="node">
<title>Node1</title>
<g id="a_Node000001"><a xlink:title=" ">
<polygon fill="#999999" stroke="#666666" points="157.5,-19 28.5,-19 28.5,0 157.5,0 157.5,-19"/>
<text text-anchor="middle" x="93" y="-7" font-family="Helvetica,sans-Serif" font-size="10.00">minmea_sentence_gsa</text>
</a>
</g>
</g>
<!-- Node2 -->
<g id="Node000002" class="node">
<title>Node2</title>
<g id="a_Node000002"><a xlink:href="unionminmea__type.html" target="_top" xlink:title=" ">
<polygon fill="white" stroke="#666666" points="84,-107 0,-107 0,-88 84,-88 84,-107"/>
<text text-anchor="middle" x="42" y="-95" font-family="Helvetica,sans-Serif" font-size="10.00">minmea_type</text>
</a>
</g>
</g>
<!-- Node2&#45;&gt;Node1 -->
<g id="edge1_Node000001_Node000002" class="edge">
<title>Node2&#45;&gt;Node1</title>
<g id="a_edge1_Node000001_Node000002"><a xlink:title=" ">
<path fill="none" stroke="#9a32cd" stroke-dasharray="5,2" d="M52.42,-78.93C63.24,-60.69 79.71,-32.91 87.94,-19.03"/>
<polygon fill="#9a32cd" stroke="#9a32cd" points="49.17,-77.55 47.08,-87.94 55.19,-81.12 49.17,-77.55"/>
</a>
</g>
<text text-anchor="middle" x="89.5" y="-51" font-family="Helvetica,sans-Serif" font-size="10.00" fill="grey"> type</text>
</g>
<!-- Node3 -->
<g id="Node000003" class="node">
<title>Node3</title>
<g id="a_Node000003"><a xlink:href="structminmea__float.html" target="_top" xlink:title=" ">
<polygon fill="white" stroke="#666666" points="186,-107 102,-107 102,-88 186,-88 186,-107"/>
<text text-anchor="middle" x="144" y="-95" font-family="Helvetica,sans-Serif" font-size="10.00">minmea_float</text>
</a>
</g>
</g>
<!-- Node3&#45;&gt;Node1 -->
<g id="edge2_Node000001_Node000003" class="edge">
<title>Node3&#45;&gt;Node1</title>
<g id="a_edge2_Node000001_Node000003"><a xlink:title=" ">
<path fill="none" stroke="#9a32cd" stroke-dasharray="5,2" d="M133.58,-78.93C122.76,-60.69 106.29,-32.91 98.06,-19.03"/>
<polygon fill="#9a32cd" stroke="#9a32cd" points="130.81,-81.12 138.92,-87.94 136.83,-77.55 130.81,-81.12"/>
</a>
</g>
<text text-anchor="middle" x="141" y="-62" font-family="Helvetica,sans-Serif" font-size="10.00" fill="grey"> hdop</text>
<text text-anchor="middle" x="141" y="-51" font-family="Helvetica,sans-Serif" font-size="10.00" fill="grey">pdop</text>
<text text-anchor="middle" x="141" y="-40" font-family="Helvetica,sans-Serif" font-size="10.00" fill="grey">vdop</text>
</g>
</g>
</svg>
