<?xml version="1.0" encoding="UTF-8" standalone="no"?>
<!DOCTYPE svg PUBLIC "-//W3C//DTD SVG 1.1//EN"
 "http://www.w3.org/Graphics/SVG/1.1/DTD/svg11.dtd">
<!-- Generated by graphviz version 2.43.0 (0)
 -->
<!-- Title: Weather_WeekdayName Pages: 1 -->
<svg width="484pt" height="27pt"
 viewBox="0.00 0.00 484.00 27.00" xmlns="http://www.w3.org/2000/svg" xmlns:xlink="http://www.w3.org/1999/xlink">
<g id="graph0" class="graph" transform="scale(1 1) rotate(0) translate(4 23)">
<title>Weather_WeekdayName</title>
<!-- Node1 -->
<g id="Node000001" class="node">
<title>Node1</title>
<g id="a_Node000001"><a xlink:title=" ">
<polygon fill="#999999" stroke="#666666" points="476,-19 339,-19 339,0 476,0 476,-19"/>
<text text-anchor="middle" x="407.5" y="-7" font-family="Helvetica,sans-Serif" font-size="10.00">Weather_WeekdayName</text>
</a>
</g>
</g>
<!-- Node2 -->
<g id="Node000002" class="node">
<title>Node2</title>
<g id="a_Node000002"><a xlink:href="display__ui_8cpp.html#ae8a9d818fdd539d4b669b43222987fc7" target="_top" xlink:title=" ">
<polygon fill="white" stroke="#666666" points="303,-19 199,-19 199,0 303,0 303,-19"/>
<text text-anchor="middle" x="251" y="-7" font-family="Helvetica,sans-Serif" font-size="10.00">drawMeteoScreen</text>
</a>
</g>
</g>
<!-- Node1&#45;&gt;Node2 -->
<g id="edge1_Node000001_Node000002" class="edge">
<title>Node1&#45;&gt;Node2</title>
<g id="a_edge1_Node000001_Node000002"><a xlink:title=" ">
<path fill="none" stroke="#63b8ff" d="M328.7,-9.5C320.13,-9.5 311.58,-9.5 303.45,-9.5"/>
<polygon fill="#63b8ff" stroke="#63b8ff" points="328.73,-13 338.73,-9.5 328.73,-6 328.73,-13"/>
</a>
</g>
</g>
<!-- Node3 -->
<g id="Node000003" class="node">
<title>Node3</title>
<g id="a_Node000003"><a xlink:href="buttons_8cpp.html#a362a9b2582e0724627b8cd9f2e16f599" target="_top" xlink:title=" ">
<polygon fill="white" stroke="#666666" points="163,-19 74,-19 74,0 163,0 163,-19"/>
<text text-anchor="middle" x="118.5" y="-7" font-family="Helvetica,sans-Serif" font-size="10.00">buttonsUpdate</text>
</a>
</g>
</g>
<!-- Node2&#45;&gt;Node3 -->
<g id="edge2_Node000002_Node000003" class="edge">
<title>Node2&#45;&gt;Node3</title>
<g id="a_edge2_Node000002_Node000003"><a xlink:title=" ">
<path fill="none" stroke="#63b8ff" d="M188.52,-9.5C180.03,-9.5 171.46,-9.5 163.37,-9.5"/>
<polygon fill="#63b8ff" stroke="#63b8ff" points="188.8,-13 198.8,-9.5 188.8,-6 188.8,-13"/>
</a>
</g>
</g>
<!-- Node4 -->
<g id="Node000004" class="node">
<title>Node4</title>
<g id="a_Node000004"><a xlink:href="main_8cpp.html#afe461d27b9c48d5921c00d521181f12f" target="_top" xlink:title=" ">
<polygon fill="white" stroke="#666666" points="38,-19 0,-19 0,0 38,0 38,-19"/>
<text text-anchor="middle" x="19" y="-7" font-family="Helvetica,sans-Serif" font-size="10.00">loop</text>
</a>
</g>
</g>
<!-- Node3&#45;&gt;Node4 -->
<g id="edge3_Node000003_Node000004" class="edge">
<title>Node3&#45;&gt;Node4</title>
<g id="a_edge3_Node000003_Node000004"><a xlink:title=" ">
<path fill="none" stroke="#63b8ff" d="M63.83,-9.5C54.59,-9.5 45.59,-9.5 38.17,-9.5"/>
<polygon fill="#63b8ff" stroke="#63b8ff" points="63.88,-13 73.88,-9.5 63.88,-6 63.88,-13"/>
</a>
</g>
</g>
</g>
</svg>
