<?xml version="1.0" encoding="UTF-8" standalone="no"?>
<!DOCTYPE svg PUBLIC "-//W3C//DTD SVG 1.1//EN"
 "http://www.w3.org/Graphics/SVG/1.1/DTD/svg11.dtd">
<!-- Generated by graphviz version 2.43.0 (0)
 -->
<!-- Title: onLeftRightCombo Pages: 1 -->
<svg width="537pt" height="127pt"
 viewBox="0.00 0.00 537.00 126.64" xmlns="http://www.w3.org/2000/svg" xmlns:xlink="http://www.w3.org/1999/xlink">
<g id="graph0" class="graph" transform="scale(1 1) rotate(0) translate(4 122.64)">
<title>onLeftRightCombo</title>
<!-- Node1 -->
<g id="Node000001" class="node">
<title>Node1</title>
<g id="a_Node000001"><a xlink:title="Gestisce l&#39;azione combinata (pressione simultanea) di LEFT e RIGHT. Tipicamente utilizzata per il tog...">
<polygon fill="#999999" stroke="#666666" points="107,-57 0,-57 0,-38 107,-38 107,-57"/>
<text text-anchor="middle" x="53.5" y="-45" font-family="Helvetica,sans-Serif" font-size="10.00">onLeftRightCombo</text>
</a>
</g>
</g>
<!-- Node2 -->
<g id="Node000002" class="node">
<title>Node2</title>
<g id="a_Node000002"><a xlink:href="display__ui_8cpp.html#a1946154d8e9e6dd415476d3378b98ff1" target="_top" xlink:title="Disegna la schermata principale (Ambient Display). Mostra i dati meteo correnti, l&#39;ora e la data recu...">
<polygon fill="white" stroke="#666666" points="254,-95 151,-95 151,-76 254,-76 254,-95"/>
<text text-anchor="middle" x="202.5" y="-83" font-family="Helvetica,sans-Serif" font-size="10.00">drawHomeScreen</text>
</a>
</g>
</g>
<!-- Node1&#45;&gt;Node2 -->
<g id="edge1_Node000001_Node000002" class="edge">
<title>Node1&#45;&gt;Node2</title>
<g id="a_edge1_Node000001_Node000002"><a xlink:title=" ">
<path fill="none" stroke="#63b8ff" d="M91.59,-57.09C110.82,-62.06 134.49,-68.18 154.93,-73.46"/>
<polygon fill="#63b8ff" stroke="#63b8ff" points="154.11,-76.87 164.67,-75.98 155.87,-70.09 154.11,-76.87"/>
</a>
</g>
</g>
<!-- Node5 -->
<g id="Node000005" class="node">
<title>Node5</title>
<g id="a_Node000005"><a xlink:href="display__ui_8cpp.html#a0cc779d48595c7be531222945c8a5f10" target="_top" xlink:title="Renderizza il menu principale in base allo stile selezionato (ScreenStyle).">
<polygon fill="white" stroke="#666666" points="236.5,-57 168.5,-57 168.5,-38 236.5,-38 236.5,-57"/>
<text text-anchor="middle" x="202.5" y="-45" font-family="Helvetica,sans-Serif" font-size="10.00">drawMenu</text>
</a>
</g>
</g>
<!-- Node1&#45;&gt;Node5 -->
<g id="edge4_Node000001_Node000005" class="edge">
<title>Node1&#45;&gt;Node5</title>
<g id="a_edge4_Node000001_Node000005"><a xlink:title=" ">
<path fill="none" stroke="#63b8ff" d="M107.16,-47.5C123.91,-47.5 142.25,-47.5 158.26,-47.5"/>
<polygon fill="#63b8ff" stroke="#63b8ff" points="158.41,-51 168.41,-47.5 158.41,-44 158.41,-51"/>
</a>
</g>
</g>
<!-- Node7 -->
<g id="Node000007" class="node">
<title>Node7</title>
<g id="a_Node000007"><a xlink:href="leds_8cpp.html#a20b9a2822d58fc522e9aef69e6e52cbe" target="_top" xlink:title="Esegue un flash verde per confermare un&#39;azione (Toggle).">
<polygon fill="white" stroke="#666666" points="262,-20 143,-20 143,-1 262,-1 262,-20"/>
<text text-anchor="middle" x="202.5" y="-8" font-family="Helvetica,sans-Serif" font-size="10.00">ledsToggleAnimation</text>
</a>
</g>
</g>
<!-- Node1&#45;&gt;Node7 -->
<g id="edge8_Node000001_Node000007" class="edge">
<title>Node1&#45;&gt;Node7</title>
<g id="a_edge8_Node000001_Node000007"><a xlink:title=" ">
<path fill="none" stroke="#63b8ff" d="M92.36,-37.97C111.06,-33.26 133.82,-27.53 153.72,-22.53"/>
<polygon fill="#63b8ff" stroke="#63b8ff" points="154.67,-25.9 163.52,-20.06 152.97,-19.11 154.67,-25.9"/>
</a>
</g>
</g>
<!-- Node3 -->
<g id="Node000003" class="node">
<title>Node3</title>
<g id="a_Node000003"><a xlink:href="display__ui_8cpp.html#ab460e1bb5537313cb79cfffa7e93c58b" target="_top" xlink:title="Istanza del driver del display SSD1306.">
<polygon fill="white" stroke="#666666" points="529,-57 477,-57 477,-38 529,-38 529,-57"/>
<text text-anchor="middle" x="503" y="-45" font-family="Helvetica,sans-Serif" font-size="10.00">display</text>
</a>
</g>
</g>
<!-- Node2&#45;&gt;Node3 -->
<g id="edge2_Node000002_Node000003" class="edge">
<title>Node2&#45;&gt;Node3</title>
<g id="a_edge2_Node000002_Node000003"><a xlink:title=" ">
<path fill="none" stroke="#63b8ff" d="M230.28,-95.08C275.49,-109.66 369.05,-132.89 441,-104.5 460.91,-96.65 478.14,-78.89 489.17,-65.27"/>
<polygon fill="#63b8ff" stroke="#63b8ff" points="492.16,-67.12 495.48,-57.06 486.61,-62.85 492.16,-67.12"/>
</a>
</g>
</g>
<!-- Node4 -->
<g id="Node000004" class="node">
<title>Node4</title>
<g id="a_Node000004"><a xlink:href="weather_8cpp.html#a8e2b5c9b7658529d8dae9d6ea9d56de7" target="_top" xlink:title="Converte il codice WMO in una descrizione testuale breve.">
<polygon fill="white" stroke="#666666" points="441,-95 298,-95 298,-76 441,-76 441,-95"/>
<text text-anchor="middle" x="369.5" y="-83" font-family="Helvetica,sans-Serif" font-size="10.00">Weather_CodeToShortText</text>
</a>
</g>
</g>
<!-- Node2&#45;&gt;Node4 -->
<g id="edge3_Node000002_Node000004" class="edge">
<title>Node2&#45;&gt;Node4</title>
<g id="a_edge3_Node000002_Node000004"><a xlink:title=" ">
<path fill="none" stroke="#63b8ff" d="M254.35,-85.5C264.86,-85.5 276.18,-85.5 287.47,-85.5"/>
<polygon fill="#63b8ff" stroke="#63b8ff" points="287.79,-89 297.79,-85.5 287.79,-82 287.79,-89"/>
</a>
</g>
</g>
<!-- Node5&#45;&gt;Node3 -->
<g id="edge5_Node000005_Node000003" class="edge">
<title>Node5&#45;&gt;Node3</title>
<g id="a_edge5_Node000005_Node000003"><a xlink:title=" ">
<path fill="none" stroke="#63b8ff" d="M236.59,-47.5C293.32,-47.5 408.65,-47.5 466.8,-47.5"/>
<polygon fill="#63b8ff" stroke="#63b8ff" points="466.97,-51 476.97,-47.5 466.97,-44 466.97,-51"/>
</a>
</g>
</g>
<!-- Node6 -->
<g id="Node000006" class="node">
<title>Node6</title>
<g id="a_Node000006"><a xlink:href="display__ui_8cpp.html#a4720a85c38264632abe90b06cd0a878a" target="_top" xlink:title="Renderizza il menu in modalità &quot;Highlight&quot; (barra piena e testo invertito).">
<polygon fill="white" stroke="#666666" points="413.5,-19 325.5,-19 325.5,0 413.5,0 413.5,-19"/>
<text text-anchor="middle" x="369.5" y="-7" font-family="Helvetica,sans-Serif" font-size="10.00">drawMenu_evi</text>
</a>
</g>
</g>
<!-- Node5&#45;&gt;Node6 -->
<g id="edge6_Node000005_Node000006" class="edge">
<title>Node5&#45;&gt;Node6</title>
<g id="a_edge6_Node000005_Node000006"><a xlink:title=" ">
<path fill="none" stroke="#63b8ff" d="M236.89,-39.81C259.94,-34.5 291.02,-27.34 317.19,-21.32"/>
<polygon fill="#63b8ff" stroke="#63b8ff" points="318,-24.72 326.96,-19.07 316.43,-17.9 318,-24.72"/>
</a>
</g>
</g>
<!-- Node6&#45;&gt;Node3 -->
<g id="edge7_Node000006_Node000003" class="edge">
<title>Node6&#45;&gt;Node3</title>
<g id="a_edge7_Node000006_Node000003"><a xlink:title=" ">
<path fill="none" stroke="#63b8ff" d="M403.68,-19.09C422.99,-24.67 447.31,-31.7 466.93,-37.37"/>
<polygon fill="#63b8ff" stroke="#63b8ff" points="466.13,-40.78 476.71,-40.19 468.08,-34.05 466.13,-40.78"/>
</a>
</g>
</g>
</g>
</svg>
