<?xml version="1.0" encoding="UTF-8" standalone="no"?>
<!DOCTYPE svg PUBLIC "-//W3C//DTD SVG 1.1//EN"
 "http://www.w3.org/Graphics/SVG/1.1/DTD/svg11.dtd">
<!-- Generated by graphviz version 2.43.0 (0)
 -->
<!-- Title: firm/include/buttons.h Pages: 1 -->
<!--zoomable 247 -->

<svg id="main" version="1.1" xmlns="http://www.w3.org/2000/svg" xmlns:xlink="http://www.w3.org/1999/xlink" xml:space="preserve" onload="init(evt)">
<style type="text/css"><![CDATA[
.node, .edge {opacity: 0.7;}
.node.selected, .edge.selected {opacity: 1;}
.edge:hover path { stroke: red; }
.edge:hover polygon { stroke: red; fill: red; }
]]></style>

<defs>
  <circle id="rim" cx="0" cy="0" r="7"/>
  <circle id="rim2" cx="0" cy="0" r="3.5"/>
  <g id="zoomPlus">
    <use xlink:href="#rim" fill="#404040"><set attributeName="fill" to="#808080" begin="zoomplus.mouseover" end="zoomplus.mouseout"/></use>
    <path d="M-4,0h8M0,-4v8" fill="none" stroke="white" stroke-width="1.5" pointer-events="none"/>
  </g>
  <g id="zoomMin">
    <use xlink:href="#rim" fill="#404040"><set attributeName="fill" to="#808080" begin="zoomminus.mouseover" end="zoomminus.mouseout"/></use>
    <path d="M-4,0h8" fill="none" stroke="white" stroke-width="1.5" pointer-events="none"/>
  </g>
  <g id="arrowUp" transform="translate(30 24)">
    <use xlink:href="#rim"/>
    <path pointer-events="none" fill="none" stroke="white" stroke-width="1.5" d="M0,-3.0v7 M-2.5,-0.5L0,-3.0L2.5,-0.5"/>
  </g>
  <g id="arrowRight" transform="rotate(90) translate(36 -43)">
    <use xlink:href="#rim"/>
    <path pointer-events="none" fill="none" stroke="white" stroke-width="1.5" d="M0,-3.0v7 M-2.5,-0.5L0,-3.0L2.5,-0.5"/>
  </g>
  <g id="arrowDown" transform="rotate(180) translate(-30 -48)">
    <use xlink:href="#rim"/>
    <path pointer-events="none" fill="none" stroke="white" stroke-width="1.5" d="M0,-3.0v7 M-2.5,-0.5L0,-3.0L2.5,-0.5"/>
  </g>
  <g id="arrowLeft" transform="rotate(270) translate(-36 17)">
    <use xlink:href="#rim"/>
    <path pointer-events="none" fill="none" stroke="white" stroke-width="1.5" d="M0,-3.0v7 M-2.5,-0.5L0,-3.0L2.5,-0.5"/>
  </g>
  <g id="resetDef">
    <use xlink:href="#rim2" fill="#404040"><set attributeName="fill" to="#808080" begin="reset.mouseover" end="reset.mouseout"/></use>
  </g>
</defs>
<script type="application/ecmascript">
var viewWidth = 818;
var viewHeight = 247;
var sectionId = 'dynsection-0';
</script>
<script type="application/ecmascript" xlink:href="svg.min.js"/>
<svg id="graph" class="graph">
<g id="viewport">
<title>firm/include/buttons.h</title>
<!-- Node1 -->
<g id="Node000001" class="node">
<title>Node1</title>
<g id="a_Node000001"><a xlink:title="Definizioni e prototipi per la gestione degli input utente e della UI.">
<polygon fill="#999999" stroke="#666666" points="546.8,-239 423.8,-239 423.8,-220 546.8,-220 546.8,-239"/>
<text text-anchor="middle" x="485.3" y="-227" font-family="Helvetica,sans-Serif" font-size="10.00">firm/include/buttons.h</text>
</a>
</g>
</g>
<!-- Node2 -->
<g id="Node000002" class="node">
<title>Node2</title>
<g id="a_Node000002"><a xlink:title=" ">
<polygon fill="#e0e0e0" stroke="#999999" points="187.8,-74 124.8,-74 124.8,-55 187.8,-55 187.8,-74"/>
<text text-anchor="middle" x="156.3" y="-62" font-family="Helvetica,sans-Serif" font-size="10.00">Arduino.h</text>
</a>
</g>
</g>
<!-- Node1&#45;&gt;Node2 -->
<g id="edge1_Node000001_Node000002" class="edge">
<title>Node1&#45;&gt;Node2</title>
<g id="a_edge1_Node000001_Node000002"><a xlink:title=" ">
<path fill="none" stroke="#63b8ff" d="M423.45,-225.01C306.3,-216.98 59.11,-192.71 7.3,-129 -24.28,-90.16 60.12,-74.63 114.46,-68.78"/>
<polygon fill="#63b8ff" stroke="#63b8ff" points="114.96,-72.24 124.56,-67.76 114.26,-65.28 114.96,-72.24"/>
</a>
</g>
</g>
<!-- Node3 -->
<g id="Node000003" class="node">
<title>Node3</title>
<g id="a_Node000003"><a xlink:href="display__ui_8h.html" target="_top" xlink:title="Definizioni hardware e prototipi per l&#39;interfaccia utente OLED.">
<polygon fill="white" stroke="#666666" points="364.8,-184 289.8,-184 289.8,-165 364.8,-165 364.8,-184"/>
<text text-anchor="middle" x="327.3" y="-172" font-family="Helvetica,sans-Serif" font-size="10.00">display_ui.h</text>
</a>
</g>
</g>
<!-- Node1&#45;&gt;Node3 -->
<g id="edge2_Node000001_Node000003" class="edge">
<title>Node1&#45;&gt;Node3</title>
<g id="a_edge2_Node000001_Node000003"><a xlink:title=" ">
<path fill="none" stroke="#63b8ff" d="M454.8,-219.98C426.77,-211.23 385.65,-197.51 357.67,-187.62"/>
<polygon fill="#63b8ff" stroke="#63b8ff" points="358.59,-184.24 348,-184.17 356.24,-190.83 358.59,-184.24"/>
</a>
</g>
</g>
<!-- Node8 -->
<g id="Node000008" class="node">
<title>Node8</title>
<g id="a_Node000008"><a xlink:href="gps_8h.html" target="_top" xlink:title="Definizioni, macro e strutture per la gestione della telemetria GPS.">
<polygon fill="white" stroke="#666666" points="569.8,-129 526.8,-129 526.8,-110 569.8,-110 569.8,-129"/>
<text text-anchor="middle" x="548.3" y="-117" font-family="Helvetica,sans-Serif" font-size="10.00">gps.h</text>
</a>
</g>
</g>
<!-- Node1&#45;&gt;Node8 -->
<g id="edge26_Node000001_Node000008" class="edge">
<title>Node1&#45;&gt;Node8</title>
<g id="a_edge26_Node000001_Node000008"><a xlink:title=" ">
<path fill="none" stroke="#63b8ff" d="M490.46,-219.66C500.85,-201.85 524.46,-161.37 538.09,-138.01"/>
<polygon fill="#63b8ff" stroke="#63b8ff" points="541.24,-139.56 543.25,-129.16 535.19,-136.03 541.24,-139.56"/>
</a>
</g>
</g>
<!-- Node9 -->
<g id="Node000009" class="node">
<title>Node9</title>
<g id="a_Node000009"><a xlink:title=" ">
<polygon fill="#e0e0e0" stroke="#999999" points="715.8,-74 620.8,-74 620.8,-55 715.8,-55 715.8,-74"/>
<text text-anchor="middle" x="668.3" y="-62" font-family="Helvetica,sans-Serif" font-size="10.00">hardware/gpio.h</text>
</a>
</g>
</g>
<!-- Node1&#45;&gt;Node9 -->
<g id="edge27_Node000001_Node000009" class="edge">
<title>Node1&#45;&gt;Node9</title>
<g id="a_edge27_Node000001_Node000009"><a xlink:title=" ">
<path fill="none" stroke="#63b8ff" d="M494.88,-219.97C524.15,-193.9 612.67,-115.06 650.66,-81.21"/>
<polygon fill="#63b8ff" stroke="#63b8ff" points="653.23,-83.61 658.37,-74.34 648.58,-78.38 653.23,-83.61"/>
</a>
</g>
</g>
<!-- Node18 -->
<g id="Node000018" class="node">
<title>Node18</title>
<g id="a_Node000018"><a xlink:title=" ">
<polygon fill="#e0e0e0" stroke="#999999" points="810.3,-74 734.3,-74 734.3,-55 810.3,-55 810.3,-74"/>
<text text-anchor="middle" x="772.3" y="-62" font-family="Helvetica,sans-Serif" font-size="10.00">pico/stdlib.h</text>
</a>
</g>
</g>
<!-- Node1&#45;&gt;Node18 -->
<g id="edge29_Node000001_Node000018" class="edge">
<title>Node1&#45;&gt;Node18</title>
<g id="a_edge29_Node000001_Node000018"><a xlink:title=" ">
<path fill="none" stroke="#63b8ff" d="M500.33,-219.97C547.2,-193.35 691,-111.67 748.34,-79.11"/>
<polygon fill="#63b8ff" stroke="#63b8ff" points="750.11,-82.13 757.08,-74.15 746.65,-76.04 750.11,-82.13"/>
</a>
</g>
</g>
<!-- Node19 -->
<g id="Node000019" class="node">
<title>Node19</title>
<g id="a_Node000019"><a xlink:href="leds_8h.html" target="_top" xlink:title="Definizioni hardware e prototipi per la gestione dei LED RGB.">
<polygon fill="white" stroke="#666666" points="508.3,-129 462.3,-129 462.3,-110 508.3,-110 508.3,-129"/>
<text text-anchor="middle" x="485.3" y="-117" font-family="Helvetica,sans-Serif" font-size="10.00">leds.h</text>
</a>
</g>
</g>
<!-- Node1&#45;&gt;Node19 -->
<g id="edge28_Node000001_Node000019" class="edge">
<title>Node1&#45;&gt;Node19</title>
<g id="a_edge28_Node000001_Node000019"><a xlink:title=" ">
<path fill="none" stroke="#63b8ff" d="M485.3,-219.66C485.3,-202.17 485.3,-162.8 485.3,-139.27"/>
<polygon fill="#63b8ff" stroke="#63b8ff" points="488.8,-139.16 485.3,-129.16 481.8,-139.16 488.8,-139.16"/>
</a>
</g>
</g>
<!-- Node3&#45;&gt;Node1 -->
<g id="edge8_Node000003_Node000001" class="edge">
<title>Node3&#45;&gt;Node1</title>
<g id="a_edge8_Node000003_Node000001"><a xlink:title=" ">
<path fill="none" stroke="#63b8ff" d="M358.02,-184.08C386.2,-192.89 427.47,-206.67 455.4,-216.54"/>
<polygon fill="#63b8ff" stroke="#63b8ff" points="454.44,-219.91 465.03,-219.98 456.79,-213.32 454.44,-219.91"/>
</a>
</g>
</g>
<!-- Node3&#45;&gt;Node2 -->
<g id="edge5_Node000003_Node000002" class="edge">
<title>Node3&#45;&gt;Node2</title>
<g id="a_edge5_Node000003_Node000002"><a xlink:title=" ">
<path fill="none" stroke="#63b8ff" d="M289.66,-173.95C214.96,-173.95 52.16,-169.21 17.3,-129 -13.18,-93.83 63.38,-77.04 114.59,-69.96"/>
<polygon fill="#63b8ff" stroke="#63b8ff" points="115.31,-73.4 124.77,-68.63 114.4,-66.46 115.31,-73.4"/>
</a>
</g>
</g>
<!-- Node4 -->
<g id="Node000004" class="node">
<title>Node4</title>
<g id="a_Node000004"><a xlink:title=" ">
<polygon fill="#e0e0e0" stroke="#999999" points="312.3,-129 222.3,-129 222.3,-110 312.3,-110 312.3,-129"/>
<text text-anchor="middle" x="267.3" y="-117" font-family="Helvetica,sans-Serif" font-size="10.00">Adafruit_GFX.h</text>
</a>
</g>
</g>
<!-- Node3&#45;&gt;Node4 -->
<g id="edge3_Node000003_Node000004" class="edge">
<title>Node3&#45;&gt;Node4</title>
<g id="a_edge3_Node000003_Node000004"><a xlink:title=" ">
<path fill="none" stroke="#63b8ff" d="M317.66,-164.98C308.79,-157.15 295.43,-145.34 284.69,-135.86"/>
<polygon fill="#63b8ff" stroke="#63b8ff" points="286.93,-133.17 277.12,-129.17 282.29,-138.41 286.93,-133.17"/>
</a>
</g>
</g>
<!-- Node5 -->
<g id="Node000005" class="node">
<title>Node5</title>
<g id="a_Node000005"><a xlink:title=" ">
<polygon fill="#e0e0e0" stroke="#999999" points="443.8,-129 330.8,-129 330.8,-110 443.8,-110 443.8,-129"/>
<text text-anchor="middle" x="387.3" y="-117" font-family="Helvetica,sans-Serif" font-size="10.00">Adafruit_SSD1306.h</text>
</a>
</g>
</g>
<!-- Node3&#45;&gt;Node5 -->
<g id="edge4_Node000003_Node000005" class="edge">
<title>Node3&#45;&gt;Node5</title>
<g id="a_edge4_Node000003_Node000005"><a xlink:title=" ">
<path fill="none" stroke="#63b8ff" d="M336.94,-164.98C345.81,-157.15 359.18,-145.34 369.91,-135.86"/>
<polygon fill="#63b8ff" stroke="#63b8ff" points="372.31,-138.41 377.49,-129.17 367.67,-133.17 372.31,-138.41"/>
</a>
</g>
</g>
<!-- Node6 -->
<g id="Node000006" class="node">
<title>Node6</title>
<g id="a_Node000006"><a xlink:title=" ">
<polygon fill="#e0e0e0" stroke="#999999" points="67.8,-129 26.8,-129 26.8,-110 67.8,-110 67.8,-129"/>
<text text-anchor="middle" x="47.3" y="-117" font-family="Helvetica,sans-Serif" font-size="10.00">SPI.h</text>
</a>
</g>
</g>
<!-- Node3&#45;&gt;Node6 -->
<g id="edge6_Node000003_Node000006" class="edge">
<title>Node3&#45;&gt;Node6</title>
<g id="a_edge6_Node000003_Node000006"><a xlink:title=" ">
<path fill="none" stroke="#63b8ff" d="M289.79,-168.02C242.6,-160.87 158.92,-147.31 77.77,-128.9"/>
<polygon fill="#63b8ff" stroke="#63b8ff" points="78.42,-125.45 67.89,-126.63 76.85,-132.28 78.42,-125.45"/>
</a>
</g>
</g>
<!-- Node7 -->
<g id="Node000007" class="node">
<title>Node7</title>
<g id="a_Node000007"><a xlink:title=" ">
<polygon fill="#e0e0e0" stroke="#999999" points="134.3,-129 86.3,-129 86.3,-110 134.3,-110 134.3,-129"/>
<text text-anchor="middle" x="110.3" y="-117" font-family="Helvetica,sans-Serif" font-size="10.00">Wire.h</text>
</a>
</g>
</g>
<!-- Node3&#45;&gt;Node7 -->
<g id="edge7_Node000003_Node000007" class="edge">
<title>Node3&#45;&gt;Node7</title>
<g id="a_edge7_Node000003_Node000007"><a xlink:title=" ">
<path fill="none" stroke="#63b8ff" d="M291.3,-164.96C256.21,-156.6 201.08,-143.37 144.31,-129.22"/>
<polygon fill="#63b8ff" stroke="#63b8ff" points="144.99,-125.79 134.44,-126.76 143.3,-132.58 144.99,-125.79"/>
</a>
</g>
</g>
<!-- Node3&#45;&gt;Node8 -->
<g id="edge9_Node000003_Node000008" class="edge">
<title>Node3&#45;&gt;Node8</title>
<g id="a_edge9_Node000003_Node000008"><a xlink:title=" ">
<path fill="none" stroke="#63b8ff" d="M364.9,-165.13C401.27,-156.94 458.2,-143.86 516.84,-129.04"/>
<polygon fill="#63b8ff" stroke="#63b8ff" points="517.82,-132.4 526.65,-126.55 516.1,-125.62 517.82,-132.4"/>
</a>
</g>
</g>
<!-- Node3&#45;&gt;Node19 -->
<g id="edge21_Node000003_Node000019" class="edge">
<title>Node3&#45;&gt;Node19</title>
<g id="a_edge21_Node000003_Node000019"><a xlink:title=" ">
<path fill="none" stroke="#63b8ff" d="M352.69,-164.98C379.88,-155.86 423.13,-141.36 452.79,-131.4"/>
<polygon fill="#63b8ff" stroke="#63b8ff" points="453.92,-134.72 462.29,-128.22 451.7,-128.08 453.92,-134.72"/>
</a>
</g>
</g>
<!-- Node21 -->
<g id="Node000021" class="node">
<title>Node21</title>
<g id="a_Node000021"><a xlink:href="temp_8h.html" target="_top" xlink:title="Definizioni hardware e prototipi per la lettura della temperatura.">
<polygon fill="white" stroke="#666666" points="203.8,-129 152.8,-129 152.8,-110 203.8,-110 203.8,-129"/>
<text text-anchor="middle" x="178.3" y="-117" font-family="Helvetica,sans-Serif" font-size="10.00">temp.h</text>
</a>
</g>
</g>
<!-- Node3&#45;&gt;Node21 -->
<g id="edge24_Node000003_Node000021" class="edge">
<title>Node3&#45;&gt;Node21</title>
<g id="a_edge24_Node000003_Node000021"><a xlink:title=" ">
<path fill="none" stroke="#63b8ff" d="M303.36,-164.98C278.74,-156.23 240.18,-142.51 212.38,-132.62"/>
<polygon fill="#63b8ff" stroke="#63b8ff" points="213.27,-129.22 202.68,-129.17 210.93,-135.82 213.27,-129.22"/>
</a>
</g>
</g>
<!-- Node8&#45;&gt;Node2 -->
<g id="edge10_Node000008_Node000002" class="edge">
<title>Node8&#45;&gt;Node2</title>
<g id="a_edge10_Node000008_Node000002"><a xlink:title=" ">
<path fill="none" stroke="#63b8ff" d="M526.72,-112.12C523.58,-111.33 520.37,-110.59 517.3,-110 379.91,-83.6 340.4,-95.96 198.01,-73.95"/>
<polygon fill="#63b8ff" stroke="#63b8ff" points="198.46,-70.48 188.03,-72.38 197.37,-77.39 198.46,-70.48"/>
</a>
</g>
</g>
<!-- Node8&#45;&gt;Node9 -->
<g id="edge11_Node000008_Node000009" class="edge">
<title>Node8&#45;&gt;Node9</title>
<g id="a_edge11_Node000008_Node000009"><a xlink:title=" ">
<path fill="none" stroke="#63b8ff" d="M567.58,-109.98C586.97,-101.42 617.11,-88.11 639.37,-78.28"/>
<polygon fill="#63b8ff" stroke="#63b8ff" points="640.94,-81.41 648.67,-74.17 638.11,-75.01 640.94,-81.41"/>
</a>
</g>
</g>
<!-- Node10 -->
<g id="Node000010" class="node">
<title>Node10</title>
<g id="a_Node000010"><a xlink:title=" ">
<polygon fill="#e0e0e0" stroke="#999999" points="356.3,-74 288.3,-74 288.3,-55 356.3,-55 356.3,-74"/>
<text text-anchor="middle" x="322.3" y="-62" font-family="Helvetica,sans-Serif" font-size="10.00">sys/time.h</text>
</a>
</g>
</g>
<!-- Node8&#45;&gt;Node10 -->
<g id="edge12_Node000008_Node000010" class="edge">
<title>Node8&#45;&gt;Node10</title>
<g id="a_edge12_Node000008_Node000010"><a xlink:title=" ">
<path fill="none" stroke="#63b8ff" d="M526.65,-112.44C523.52,-111.6 520.33,-110.76 517.3,-110 465.72,-97.05 406.05,-83.66 366.45,-75"/>
<polygon fill="#63b8ff" stroke="#63b8ff" points="367.09,-71.56 356.58,-72.85 365.6,-78.4 367.09,-71.56"/>
</a>
</g>
</g>
<!-- Node11 -->
<g id="Node000011" class="node">
<title>Node11</title>
<g id="a_Node000011"><a xlink:title=" ">
<polygon fill="#e0e0e0" stroke="#999999" points="422.3,-74 374.3,-74 374.3,-55 422.3,-55 422.3,-74"/>
<text text-anchor="middle" x="398.3" y="-62" font-family="Helvetica,sans-Serif" font-size="10.00">time.h</text>
</a>
</g>
</g>
<!-- Node8&#45;&gt;Node11 -->
<g id="edge13_Node000008_Node000011" class="edge">
<title>Node8&#45;&gt;Node11</title>
<g id="a_edge13_Node000008_Node000011"><a xlink:title=" ">
<path fill="none" stroke="#63b8ff" d="M526.49,-110.79C501.71,-102.04 460.95,-87.64 432.06,-77.43"/>
<polygon fill="#63b8ff" stroke="#63b8ff" points="432.97,-74.04 422.38,-74.01 430.64,-80.64 432.97,-74.04"/>
</a>
</g>
</g>
<!-- Node12 -->
<g id="Node000012" class="node">
<title>Node12</title>
<g id="a_Node000012"><a xlink:href="filesystem_8h.html" target="_top" xlink:title="Interfaccia per la gestione del filesystem FatFS e l&#39;integrazione USB Mass Storage.">
<polygon fill="white" stroke="#666666" points="517.8,-74 440.8,-74 440.8,-55 517.8,-55 517.8,-74"/>
<text text-anchor="middle" x="479.3" y="-62" font-family="Helvetica,sans-Serif" font-size="10.00">filesystem.h</text>
</a>
</g>
</g>
<!-- Node8&#45;&gt;Node12 -->
<g id="edge14_Node000008_Node000012" class="edge">
<title>Node8&#45;&gt;Node12</title>
<g id="a_edge14_Node000008_Node000012"><a xlink:title=" ">
<path fill="none" stroke="#63b8ff" d="M537.22,-109.98C526.82,-102 511.04,-89.88 498.58,-80.31"/>
<polygon fill="#63b8ff" stroke="#63b8ff" points="500.65,-77.49 490.59,-74.17 496.39,-83.04 500.65,-77.49"/>
</a>
</g>
</g>
<!-- Node17 -->
<g id="Node000017" class="node">
<title>Node17</title>
<g id="a_Node000017"><a xlink:title=" ">
<polygon fill="#e0e0e0" stroke="#999999" points="602.3,-74 536.3,-74 536.3,-55 602.3,-55 602.3,-74"/>
<text text-anchor="middle" x="569.3" y="-62" font-family="Helvetica,sans-Serif" font-size="10.00">minmea.h</text>
</a>
</g>
</g>
<!-- Node8&#45;&gt;Node17 -->
<g id="edge19_Node000008_Node000017" class="edge">
<title>Node8&#45;&gt;Node17</title>
<g id="a_edge19_Node000008_Node000017"><a xlink:title=" ">
<path fill="none" stroke="#63b8ff" d="M551.77,-109.75C554.58,-102.65 558.64,-92.4 562.15,-83.56"/>
<polygon fill="#63b8ff" stroke="#63b8ff" points="565.47,-84.68 565.9,-74.09 558.96,-82.1 565.47,-84.68"/>
</a>
</g>
</g>
<!-- Node8&#45;&gt;Node18 -->
<g id="edge20_Node000008_Node000018" class="edge">
<title>Node8&#45;&gt;Node18</title>
<g id="a_edge20_Node000008_Node000018"><a xlink:title=" ">
<path fill="none" stroke="#63b8ff" d="M570.19,-113.32C606.16,-104.81 678.54,-87.69 726.2,-76.41"/>
<polygon fill="#63b8ff" stroke="#63b8ff" points="727.05,-79.8 735.98,-74.1 725.44,-72.99 727.05,-79.8"/>
</a>
</g>
</g>
<!-- Node13 -->
<g id="Node000013" class="node">
<title>Node13</title>
<g id="a_Node000013"><a xlink:title=" ">
<polygon fill="#e0e0e0" stroke="#999999" points="387.8,-19 336.8,-19 336.8,0 387.8,0 387.8,-19"/>
<text text-anchor="middle" x="362.3" y="-7" font-family="Helvetica,sans-Serif" font-size="10.00">FatFS.h</text>
</a>
</g>
</g>
<!-- Node12&#45;&gt;Node13 -->
<g id="edge15_Node000012_Node000013" class="edge">
<title>Node12&#45;&gt;Node13</title>
<g id="a_edge15_Node000012_Node000013"><a xlink:title=" ">
<path fill="none" stroke="#63b8ff" d="M460.5,-54.98C441.68,-46.46 412.48,-33.23 390.81,-23.41"/>
<polygon fill="#63b8ff" stroke="#63b8ff" points="392,-20.11 381.44,-19.17 389.11,-26.48 392,-20.11"/>
</a>
</g>
</g>
<!-- Node14 -->
<g id="Node000014" class="node">
<title>Node14</title>
<g id="a_Node000014"><a xlink:title=" ">
<polygon fill="#e0e0e0" stroke="#999999" points="476.8,-19 405.8,-19 405.8,0 476.8,0 476.8,-19"/>
<text text-anchor="middle" x="441.3" y="-7" font-family="Helvetica,sans-Serif" font-size="10.00">FatFSUSB.h</text>
</a>
</g>
</g>
<!-- Node12&#45;&gt;Node14 -->
<g id="edge16_Node000012_Node000014" class="edge">
<title>Node12&#45;&gt;Node14</title>
<g id="a_edge16_Node000012_Node000014"><a xlink:title=" ">
<path fill="none" stroke="#63b8ff" d="M473.03,-54.75C467.71,-47.34 459.95,-36.5 453.43,-27.41"/>
<polygon fill="#63b8ff" stroke="#63b8ff" points="456.13,-25.18 447.46,-19.09 450.44,-29.26 456.13,-25.18"/>
</a>
</g>
</g>
<!-- Node15 -->
<g id="Node000015" class="node">
<title>Node15</title>
<g id="a_Node000015"><a xlink:title=" ">
<polygon fill="#e0e0e0" stroke="#999999" points="539.3,-19 495.3,-19 495.3,0 539.3,0 539.3,-19"/>
<text text-anchor="middle" x="517.3" y="-7" font-family="Helvetica,sans-Serif" font-size="10.00">VFS.h</text>
</a>
</g>
</g>
<!-- Node12&#45;&gt;Node15 -->
<g id="edge17_Node000012_Node000015" class="edge">
<title>Node12&#45;&gt;Node15</title>
<g id="a_edge17_Node000012_Node000015"><a xlink:title=" ">
<path fill="none" stroke="#63b8ff" d="M485.58,-54.75C490.89,-47.34 498.66,-36.5 505.18,-27.41"/>
<polygon fill="#63b8ff" stroke="#63b8ff" points="508.16,-29.26 511.14,-19.09 502.47,-25.18 508.16,-29.26"/>
</a>
</g>
</g>
<!-- Node16 -->
<g id="Node000016" class="node">
<title>Node16</title>
<g id="a_Node000016"><a xlink:title=" ">
<polygon fill="#e0e0e0" stroke="#999999" points="610.8,-19 557.8,-19 557.8,0 610.8,0 610.8,-19"/>
<text text-anchor="middle" x="584.3" y="-7" font-family="Helvetica,sans-Serif" font-size="10.00">stdint.h</text>
</a>
</g>
</g>
<!-- Node12&#45;&gt;Node16 -->
<g id="edge18_Node000012_Node000016" class="edge">
<title>Node12&#45;&gt;Node16</title>
<g id="a_edge18_Node000012_Node000016"><a xlink:title=" ">
<path fill="none" stroke="#63b8ff" d="M496.17,-54.98C512.91,-46.54 538.8,-33.47 558.19,-23.68"/>
<polygon fill="#63b8ff" stroke="#63b8ff" points="559.77,-26.8 567.12,-19.17 556.62,-20.55 559.77,-26.8"/>
</a>
</g>
</g>
<!-- Node19&#45;&gt;Node2 -->
<g id="edge22_Node000019_Node000002" class="edge">
<title>Node19&#45;&gt;Node2</title>
<g id="a_edge22_Node000019_Node000002"><a xlink:title=" ">
<path fill="none" stroke="#63b8ff" d="M461.96,-111.95C459.06,-111.24 456.12,-110.57 453.3,-110 343.88,-87.86 312.28,-93.33 198.23,-74.04"/>
<polygon fill="#63b8ff" stroke="#63b8ff" points="198.5,-70.54 188.05,-72.29 197.31,-77.44 198.5,-70.54"/>
</a>
</g>
</g>
<!-- Node20 -->
<g id="Node000020" class="node">
<title>Node20</title>
<g id="a_Node000020"><a xlink:title=" ">
<polygon fill="#e0e0e0" stroke="#999999" points="270.3,-74 206.3,-74 206.3,-55 270.3,-55 270.3,-74"/>
<text text-anchor="middle" x="238.3" y="-62" font-family="Helvetica,sans-Serif" font-size="10.00">FastLED.h</text>
</a>
</g>
</g>
<!-- Node19&#45;&gt;Node20 -->
<g id="edge23_Node000019_Node000020" class="edge">
<title>Node19&#45;&gt;Node20</title>
<g id="a_edge23_Node000019_Node000020"><a xlink:title=" ">
<path fill="none" stroke="#63b8ff" d="M462.27,-112.22C459.26,-111.45 456.21,-110.69 453.3,-110 379.6,-92.6 358.35,-90.19 280.8,-74.3"/>
<polygon fill="#63b8ff" stroke="#63b8ff" points="281.03,-70.77 270.53,-72.18 279.62,-77.63 281.03,-70.77"/>
</a>
</g>
</g>
<!-- Node21&#45;&gt;Node2 -->
<g id="edge25_Node000021_Node000002" class="edge">
<title>Node21&#45;&gt;Node2</title>
<g id="a_edge25_Node000021_Node000002"><a xlink:title=" ">
<path fill="none" stroke="#63b8ff" d="M174.67,-109.75C171.72,-102.65 167.47,-92.4 163.8,-83.56"/>
<polygon fill="#63b8ff" stroke="#63b8ff" points="166.93,-81.98 159.87,-74.09 160.47,-84.67 166.93,-81.98"/>
</a>
</g>
</g>
</g>
</svg>

<g id="navigator" transform="translate(0 0)" fill="#404254">
  <rect fill="#f2f5e9" fill-opacity="0.5" stroke="#606060" stroke-width=".5" x="0" y="0" width="60" height="60"/>
  <use id="zoomplus" xlink:href="#zoomPlus" x="17" y="9" onmousedown="handleZoom(evt,'in')"/>
  <use id="zoomminus" xlink:href="#zoomMin" x="42" y="9" onmousedown="handleZoom(evt,'out')"/>
  <use id="reset" xlink:href="#resetDef" x="30" y="36" onmousedown="handleReset()"/>
   <use id="arrowup" xlink:href="#arrowUp" x="0" y="0" onmousedown="handlePan(0,-1)"/>
  <use id="arrowright" xlink:href="#arrowRight" x="0" y="0" onmousedown="handlePan(1,0)"/>
  <use id="arrowdown" xlink:href="#arrowDown" x="0" y="0" onmousedown="handlePan(0,1)"/>
  <use id="arrowleft" xlink:href="#arrowLeft" x="0" y="0" onmousedown="handlePan(-1,0)"/>
</g>
<svg viewBox="0 0 15 15" width="100%" height="30px" preserveAspectRatio="xMaxYMin meet">
 <g id="arrow_out" transform="scale(0.3 0.3)">
  <a xlink:href="buttons_8h__incl_org.svg" target="_base">
   <rect id="button" ry="5" rx="5" y="6" x="6" height="38" width="38"
        fill="#f2f5e9" fill-opacity="0.5" stroke="#606060" stroke-width="1.0"/>
   <path id="arrow"
     d="M 11.500037,31.436501 C 11.940474,20.09759 22.043105,11.32322 32.158766,21.979434 L 37.068811,17.246167 C 37.068811,17.246167 37.088388,32 37.088388,32 L 22.160133,31.978069 C 22.160133,31.978069 26.997745,27.140456 26.997745,27.140456 C 18.528582,18.264221 13.291696,25.230495 11.500037,31.436501 z"
     style="fill:#404040;"/>
  </a>
 </g>
</svg>

<style type='text/css'>
<![CDATA[
[data-mouse-over-selected='false'] { opacity: 0.7; }
[data-mouse-over-selected='true']  { opacity: 1.0; }
]]>
</style>
<script type="application/ecmascript"><![CDATA[
document.addEventListener('DOMContentLoaded', (event) => {
  highlightEdges();
  highlightAdjacentNodes();
});
]]></script>
</svg>
