<?xml version="1.0" encoding="UTF-8" standalone="no"?>
<!DOCTYPE svg PUBLIC "-//W3C//DTD SVG 1.1//EN"
 "http://www.w3.org/Graphics/SVG/1.1/DTD/svg11.dtd">
<!-- Generated by graphviz version 2.43.0 (0)
 -->
<!-- Title: checkLeftRightCombo Pages: 1 -->
<svg width="696pt" height="127pt"
 viewBox="0.00 0.00 696.00 126.64" xmlns="http://www.w3.org/2000/svg" xmlns:xlink="http://www.w3.org/1999/xlink">
<g id="graph0" class="graph" transform="scale(1 1) rotate(0) translate(4 122.64)">
<title>checkLeftRightCombo</title>
<!-- Node1 -->
<g id="Node000001" class="node">
<title>Node1</title>
<g id="a_Node000001"><a xlink:title=" ">
<polygon fill="#999999" stroke="#666666" points="123,-57 0,-57 0,-38 123,-38 123,-57"/>
<text text-anchor="middle" x="61.5" y="-45" font-family="Helvetica,sans-Serif" font-size="10.00">checkLeftRightCombo</text>
</a>
</g>
</g>
<!-- Node2 -->
<g id="Node000002" class="node">
<title>Node2</title>
<g id="a_Node000002"><a xlink:href="buttons_8cpp.html#a476aa2a0a9fd2be3bedddd06747816c4" target="_top" xlink:title=" ">
<polygon fill="white" stroke="#666666" points="266,-57 159,-57 159,-38 266,-38 266,-57"/>
<text text-anchor="middle" x="212.5" y="-45" font-family="Helvetica,sans-Serif" font-size="10.00">onLeftRightCombo</text>
</a>
</g>
</g>
<!-- Node1&#45;&gt;Node2 -->
<g id="edge1_Node000001_Node000002" class="edge">
<title>Node1&#45;&gt;Node2</title>
<g id="a_edge1_Node000001_Node000002"><a xlink:title=" ">
<path fill="none" stroke="#63b8ff" d="M123.1,-47.5C131.47,-47.5 140.07,-47.5 148.48,-47.5"/>
<polygon fill="#63b8ff" stroke="#63b8ff" points="148.6,-51 158.6,-47.5 148.6,-44 148.6,-51"/>
</a>
</g>
</g>
<!-- Node3 -->
<g id="Node000003" class="node">
<title>Node3</title>
<g id="a_Node000003"><a xlink:href="display__ui_8cpp.html#a1946154d8e9e6dd415476d3378b98ff1" target="_top" xlink:title=" ">
<polygon fill="white" stroke="#666666" points="413,-95 310,-95 310,-76 413,-76 413,-95"/>
<text text-anchor="middle" x="361.5" y="-83" font-family="Helvetica,sans-Serif" font-size="10.00">drawHomeScreen</text>
</a>
</g>
</g>
<!-- Node2&#45;&gt;Node3 -->
<g id="edge2_Node000002_Node000003" class="edge">
<title>Node2&#45;&gt;Node3</title>
<g id="a_edge2_Node000002_Node000003"><a xlink:title=" ">
<path fill="none" stroke="#63b8ff" d="M250.59,-57.09C269.82,-62.06 293.49,-68.18 313.93,-73.46"/>
<polygon fill="#63b8ff" stroke="#63b8ff" points="313.11,-76.87 323.67,-75.98 314.87,-70.09 313.11,-76.87"/>
</a>
</g>
</g>
<!-- Node6 -->
<g id="Node000006" class="node">
<title>Node6</title>
<g id="a_Node000006"><a xlink:href="display__ui_8cpp.html#a0cc779d48595c7be531222945c8a5f10" target="_top" xlink:title=" ">
<polygon fill="white" stroke="#666666" points="395.5,-57 327.5,-57 327.5,-38 395.5,-38 395.5,-57"/>
<text text-anchor="middle" x="361.5" y="-45" font-family="Helvetica,sans-Serif" font-size="10.00">drawMenu</text>
</a>
</g>
</g>
<!-- Node2&#45;&gt;Node6 -->
<g id="edge5_Node000002_Node000006" class="edge">
<title>Node2&#45;&gt;Node6</title>
<g id="a_edge5_Node000002_Node000006"><a xlink:title=" ">
<path fill="none" stroke="#63b8ff" d="M266.16,-47.5C282.91,-47.5 301.25,-47.5 317.26,-47.5"/>
<polygon fill="#63b8ff" stroke="#63b8ff" points="317.41,-51 327.41,-47.5 317.41,-44 317.41,-51"/>
</a>
</g>
</g>
<!-- Node8 -->
<g id="Node000008" class="node">
<title>Node8</title>
<g id="a_Node000008"><a xlink:href="leds_8cpp.html#a20b9a2822d58fc522e9aef69e6e52cbe" target="_top" xlink:title=" ">
<polygon fill="white" stroke="#666666" points="421,-20 302,-20 302,-1 421,-1 421,-20"/>
<text text-anchor="middle" x="361.5" y="-8" font-family="Helvetica,sans-Serif" font-size="10.00">ledsToggleAnimation</text>
</a>
</g>
</g>
<!-- Node2&#45;&gt;Node8 -->
<g id="edge9_Node000002_Node000008" class="edge">
<title>Node2&#45;&gt;Node8</title>
<g id="a_edge9_Node000002_Node000008"><a xlink:title=" ">
<path fill="none" stroke="#63b8ff" d="M251.36,-37.97C270.06,-33.26 292.82,-27.53 312.72,-22.53"/>
<polygon fill="#63b8ff" stroke="#63b8ff" points="313.67,-25.9 322.52,-20.06 311.97,-19.11 313.67,-25.9"/>
</a>
</g>
</g>
<!-- Node4 -->
<g id="Node000004" class="node">
<title>Node4</title>
<g id="a_Node000004"><a xlink:href="display__ui_8cpp.html#ab460e1bb5537313cb79cfffa7e93c58b" target="_top" xlink:title=" ">
<polygon fill="white" stroke="#666666" points="688,-57 636,-57 636,-38 688,-38 688,-57"/>
<text text-anchor="middle" x="662" y="-45" font-family="Helvetica,sans-Serif" font-size="10.00">display</text>
</a>
</g>
</g>
<!-- Node3&#45;&gt;Node4 -->
<g id="edge3_Node000003_Node000004" class="edge">
<title>Node3&#45;&gt;Node4</title>
<g id="a_edge3_Node000003_Node000004"><a xlink:title=" ">
<path fill="none" stroke="#63b8ff" d="M389.28,-95.08C434.49,-109.66 528.05,-132.89 600,-104.5 619.91,-96.65 637.14,-78.89 648.17,-65.27"/>
<polygon fill="#63b8ff" stroke="#63b8ff" points="651.16,-67.12 654.48,-57.06 645.61,-62.85 651.16,-67.12"/>
</a>
</g>
</g>
<!-- Node5 -->
<g id="Node000005" class="node">
<title>Node5</title>
<g id="a_Node000005"><a xlink:href="weather_8cpp.html#a8e2b5c9b7658529d8dae9d6ea9d56de7" target="_top" xlink:title=" ">
<polygon fill="white" stroke="#666666" points="600,-95 457,-95 457,-76 600,-76 600,-95"/>
<text text-anchor="middle" x="528.5" y="-83" font-family="Helvetica,sans-Serif" font-size="10.00">Weather_CodeToShortText</text>
</a>
</g>
</g>
<!-- Node3&#45;&gt;Node5 -->
<g id="edge4_Node000003_Node000005" class="edge">
<title>Node3&#45;&gt;Node5</title>
<g id="a_edge4_Node000003_Node000005"><a xlink:title=" ">
<path fill="none" stroke="#63b8ff" d="M413.35,-85.5C423.86,-85.5 435.18,-85.5 446.47,-85.5"/>
<polygon fill="#63b8ff" stroke="#63b8ff" points="446.79,-89 456.79,-85.5 446.79,-82 446.79,-89"/>
</a>
</g>
</g>
<!-- Node6&#45;&gt;Node4 -->
<g id="edge6_Node000006_Node000004" class="edge">
<title>Node6&#45;&gt;Node4</title>
<g id="a_edge6_Node000006_Node000004"><a xlink:title=" ">
<path fill="none" stroke="#63b8ff" d="M395.59,-47.5C452.32,-47.5 567.65,-47.5 625.8,-47.5"/>
<polygon fill="#63b8ff" stroke="#63b8ff" points="625.97,-51 635.97,-47.5 625.97,-44 625.97,-51"/>
</a>
</g>
</g>
<!-- Node7 -->
<g id="Node000007" class="node">
<title>Node7</title>
<g id="a_Node000007"><a xlink:href="display__ui_8cpp.html#a4720a85c38264632abe90b06cd0a878a" target="_top" xlink:title=" ">
<polygon fill="white" stroke="#666666" points="572.5,-19 484.5,-19 484.5,0 572.5,0 572.5,-19"/>
<text text-anchor="middle" x="528.5" y="-7" font-family="Helvetica,sans-Serif" font-size="10.00">drawMenu_evi</text>
</a>
</g>
</g>
<!-- Node6&#45;&gt;Node7 -->
<g id="edge7_Node000006_Node000007" class="edge">
<title>Node6&#45;&gt;Node7</title>
<g id="a_edge7_Node000006_Node000007"><a xlink:title=" ">
<path fill="none" stroke="#63b8ff" d="M395.89,-39.81C418.94,-34.5 450.02,-27.34 476.19,-21.32"/>
<polygon fill="#63b8ff" stroke="#63b8ff" points="477,-24.72 485.96,-19.07 475.43,-17.9 477,-24.72"/>
</a>
</g>
</g>
<!-- Node7&#45;&gt;Node4 -->
<g id="edge8_Node000007_Node000004" class="edge">
<title>Node7&#45;&gt;Node4</title>
<g id="a_edge8_Node000007_Node000004"><a xlink:title=" ">
<path fill="none" stroke="#63b8ff" d="M562.68,-19.09C581.99,-24.67 606.31,-31.7 625.93,-37.37"/>
<polygon fill="#63b8ff" stroke="#63b8ff" points="625.13,-40.78 635.71,-40.19 627.08,-34.05 625.13,-40.78"/>
</a>
</g>
</g>
</g>
</svg>
