<?xml version="1.0" encoding="UTF-8" standalone="no"?>
<!DOCTYPE svg PUBLIC "-//W3C//DTD SVG 1.1//EN"
 "http://www.w3.org/Graphics/SVG/1.1/DTD/svg11.dtd">
<!-- Generated by graphviz version 2.43.0 (0)
 -->
<!-- Title: gpio_callback Pages: 1 -->
<svg width="276pt" height="27pt"
 viewBox="0.00 0.00 276.00 27.00" xmlns="http://www.w3.org/2000/svg" xmlns:xlink="http://www.w3.org/1999/xlink">
<g id="graph0" class="graph" transform="scale(1 1) rotate(0) translate(4 23)">
<title>gpio_callback</title>
<!-- Node1 -->
<g id="Node000001" class="node">
<title>Node1</title>
<g id="a_Node000001"><a xlink:title="Handler degli interrupt GPIO per i pulsanti.">
<polygon fill="#999999" stroke="#666666" points="268,-19 185,-19 185,0 268,0 268,-19"/>
<text text-anchor="middle" x="226.5" y="-7" font-family="Helvetica,sans-Serif" font-size="10.00">gpio_callback</text>
</a>
</g>
</g>
<!-- Node2 -->
<g id="Node000002" class="node">
<title>Node2</title>
<g id="a_Node000002"><a xlink:href="buttons_8cpp.html#a6d3fe55c02bba21088185ebbf7768240" target="_top" xlink:title="Inizializza i pin dei pulsanti e configura gli interrupt.">
<polygon fill="white" stroke="#666666" points="149,-19 80,-19 80,0 149,0 149,-19"/>
<text text-anchor="middle" x="114.5" y="-7" font-family="Helvetica,sans-Serif" font-size="10.00">buttonsInit</text>
</a>
</g>
</g>
<!-- Node1&#45;&gt;Node2 -->
<g id="edge1_Node000001_Node000002" class="edge">
<title>Node1&#45;&gt;Node2</title>
<g id="a_edge1_Node000001_Node000002"><a xlink:title=" ">
<path fill="none" stroke="#63b8ff" d="M174.77,-9.5C166.08,-9.5 157.24,-9.5 149.14,-9.5"/>
<polygon fill="#63b8ff" stroke="#63b8ff" points="174.85,-13 184.85,-9.5 174.85,-6 174.85,-13"/>
</a>
</g>
</g>
<!-- Node3 -->
<g id="Node000003" class="node">
<title>Node3</title>
<g id="a_Node000003"><a xlink:href="main_8cpp.html#a4fc01d736fe50cf5b977f755b675f11d" target="_top" xlink:title="Configurazione iniziale per il Core 0.">
<polygon fill="white" stroke="#666666" points="44,-19 0,-19 0,0 44,0 44,-19"/>
<text text-anchor="middle" x="22" y="-7" font-family="Helvetica,sans-Serif" font-size="10.00">setup</text>
</a>
</g>
</g>
<!-- Node2&#45;&gt;Node3 -->
<g id="edge2_Node000002_Node000003" class="edge">
<title>Node2&#45;&gt;Node3</title>
<g id="a_edge2_Node000002_Node000003"><a xlink:title=" ">
<path fill="none" stroke="#63b8ff" d="M69.52,-9.5C60.66,-9.5 51.74,-9.5 44.11,-9.5"/>
<polygon fill="#63b8ff" stroke="#63b8ff" points="69.8,-13 79.8,-9.5 69.8,-6 69.8,-13"/>
</a>
</g>
</g>
</g>
</svg>
