<?xml version="1.0" encoding="UTF-8" standalone="no"?>
<!DOCTYPE svg PUBLIC "-//W3C//DTD SVG 1.1//EN"
 "http://www.w3.org/Graphics/SVG/1.1/DTD/svg11.dtd">
<!-- Generated by graphviz version 2.43.0 (0)
 -->
<!-- Title: firm/include/buttons.h Pages: 1 -->
<svg width="381pt" height="137pt"
 viewBox="0.00 0.00 381.00 137.00" xmlns="http://www.w3.org/2000/svg" xmlns:xlink="http://www.w3.org/1999/xlink">
<g id="graph0" class="graph" transform="scale(1 1) rotate(0) translate(4 133)">
<title>firm/include/buttons.h</title>
<!-- Node1 -->
<g id="Node000001" class="node">
<title>Node1</title>
<g id="a_Node000001"><a xlink:title="Definizioni e prototipi per la gestione degli input utente e della UI.">
<polygon fill="#999999" stroke="#666666" points="256,-129 133,-129 133,-110 256,-110 256,-129"/>
<text text-anchor="middle" x="194.5" y="-117" font-family="Helvetica,sans-Serif" font-size="10.00">firm/include/buttons.h</text>
</a>
</g>
</g>
<!-- Node2 -->
<g id="Node000002" class="node">
<title>Node2</title>
<g id="a_Node000002"><a xlink:href="display__ui_8h.html" target="_top" xlink:title="Definizioni hardware e prototipi per l&#39;interfaccia utente OLED.">
<polygon fill="white" stroke="#666666" points="262.5,-74 126.5,-74 126.5,-55 262.5,-55 262.5,-74"/>
<text text-anchor="middle" x="194.5" y="-62" font-family="Helvetica,sans-Serif" font-size="10.00">firm/include/display_ui.h</text>
</a>
</g>
</g>
<!-- Node1&#45;&gt;Node2 -->
<g id="edge1_Node000001_Node000002" class="edge">
<title>Node1&#45;&gt;Node2</title>
<g id="a_edge1_Node000001_Node000002"><a xlink:title=" ">
<path fill="none" stroke="#63b8ff" d="M188.01,-99.66C187.41,-90.93 187.86,-80.99 189.37,-74.09"/>
<polygon fill="#63b8ff" stroke="#63b8ff" points="184.56,-100.29 189.33,-109.75 191.5,-99.38 184.56,-100.29"/>
</a>
</g>
</g>
<!-- Node3 -->
<g id="Node000003" class="node">
<title>Node3</title>
<g id="a_Node000003"><a xlink:href="buttons_8cpp_source.html" target="_top" xlink:title=" ">
<polygon fill="white" stroke="#666666" points="113,-19 0,-19 0,0 113,0 113,-19"/>
<text text-anchor="middle" x="56.5" y="-7" font-family="Helvetica,sans-Serif" font-size="10.00">firm/src/buttons.cpp</text>
</a>
</g>
</g>
<!-- Node1&#45;&gt;Node3 -->
<g id="edge6_Node000001_Node000003" class="edge">
<title>Node1&#45;&gt;Node3</title>
<g id="a_edge6_Node000001_Node000003"><a xlink:title=" ">
<path fill="none" stroke="#63b8ff" d="M167.5,-105.3C152.16,-97.23 133,-86.15 117.5,-74 95.6,-56.84 74.01,-31.98 63.36,-19.05"/>
<polygon fill="#63b8ff" stroke="#63b8ff" points="165.99,-108.46 176.48,-109.92 169.19,-102.24 165.99,-108.46"/>
</a>
</g>
</g>
<!-- Node5 -->
<g id="Node000005" class="node">
<title>Node5</title>
<g id="a_Node000005"><a xlink:href="leds_8cpp_source.html" target="_top" xlink:title=" ">
<polygon fill="white" stroke="#666666" points="373,-19 276,-19 276,0 373,0 373,-19"/>
<text text-anchor="middle" x="324.5" y="-7" font-family="Helvetica,sans-Serif" font-size="10.00">firm/src/leds.cpp</text>
</a>
</g>
</g>
<!-- Node1&#45;&gt;Node5 -->
<g id="edge7_Node000001_Node000005" class="edge">
<title>Node1&#45;&gt;Node5</title>
<g id="a_edge7_Node000001_Node000005"><a xlink:title=" ">
<path fill="none" stroke="#63b8ff" d="M222.43,-105.4C237.77,-97.48 256.63,-86.52 271.5,-74 291.49,-57.17 309.85,-32.18 318.79,-19.13"/>
<polygon fill="#63b8ff" stroke="#63b8ff" points="220.78,-102.31 213.41,-109.92 223.92,-108.57 220.78,-102.31"/>
</a>
</g>
</g>
<!-- Node2&#45;&gt;Node1 -->
<g id="edge2_Node000002_Node000001" class="edge">
<title>Node2&#45;&gt;Node1</title>
<g id="a_edge2_Node000002_Node000001"><a xlink:title=" ">
<path fill="none" stroke="#63b8ff" d="M200.98,-84.13C201.6,-92.85 201.16,-102.8 199.67,-109.75"/>
<polygon fill="#63b8ff" stroke="#63b8ff" points="204.43,-83.53 199.63,-74.09 197.49,-84.47 204.43,-83.53"/>
</a>
</g>
</g>
<!-- Node2&#45;&gt;Node3 -->
<g id="edge3_Node000002_Node000003" class="edge">
<title>Node2&#45;&gt;Node3</title>
<g id="a_edge3_Node000002_Node000003"><a xlink:title=" ">
<path fill="none" stroke="#63b8ff" d="M162.71,-51.29C137.13,-41.47 101.83,-27.91 79.08,-19.17"/>
<polygon fill="#63b8ff" stroke="#63b8ff" points="161.74,-54.67 172.33,-54.98 164.25,-48.13 161.74,-54.67"/>
</a>
</g>
</g>
<!-- Node4 -->
<g id="Node000004" class="node">
<title>Node4</title>
<g id="a_Node000004"><a xlink:href="display__ui_8cpp_source.html" target="_top" xlink:title=" ">
<polygon fill="white" stroke="#666666" points="257.5,-19 131.5,-19 131.5,0 257.5,0 257.5,-19"/>
<text text-anchor="middle" x="194.5" y="-7" font-family="Helvetica,sans-Serif" font-size="10.00">firm/src/display_ui.cpp</text>
</a>
</g>
</g>
<!-- Node2&#45;&gt;Node4 -->
<g id="edge4_Node000002_Node000004" class="edge">
<title>Node2&#45;&gt;Node4</title>
<g id="a_edge4_Node000002_Node000004"><a xlink:title=" ">
<path fill="none" stroke="#63b8ff" d="M194.5,-44.66C194.5,-35.93 194.5,-25.99 194.5,-19.09"/>
<polygon fill="#63b8ff" stroke="#63b8ff" points="191,-44.75 194.5,-54.75 198,-44.75 191,-44.75"/>
</a>
</g>
</g>
<!-- Node2&#45;&gt;Node5 -->
<g id="edge5_Node000002_Node000005" class="edge">
<title>Node2&#45;&gt;Node5</title>
<g id="a_edge5_Node000002_Node000005"><a xlink:title=" ">
<path fill="none" stroke="#63b8ff" d="M224.77,-51.16C248.84,-41.35 281.9,-27.87 303.23,-19.17"/>
<polygon fill="#63b8ff" stroke="#63b8ff" points="223.33,-47.97 215.39,-54.98 225.97,-54.45 223.33,-47.97"/>
</a>
</g>
</g>
</g>
</svg>
