<?xml version="1.0" encoding="UTF-8" standalone="no"?>
<!DOCTYPE svg PUBLIC "-//W3C//DTD SVG 1.1//EN"
 "http://www.w3.org/Graphics/SVG/1.1/DTD/svg11.dtd">
<!-- Generated by graphviz version 2.43.0 (0)
 -->
<!-- Title: checkLeftRightCombo Pages: 1 -->
<!--zoomable 127 -->

<svg id="main" version="1.1" xmlns="http://www.w3.org/2000/svg" xmlns:xlink="http://www.w3.org/1999/xlink" xml:space="preserve" onload="init(evt)">
<style type="text/css"><![CDATA[
.node, .edge {opacity: 0.7;}
.node.selected, .edge.selected {opacity: 1;}
.edge:hover path { stroke: red; }
.edge:hover polygon { stroke: red; fill: red; }
]]></style>

<defs>
  <circle id="rim" cx="0" cy="0" r="7"/>
  <circle id="rim2" cx="0" cy="0" r="3.5"/>
  <g id="zoomPlus">
    <use xlink:href="#rim" fill="#404040"><set attributeName="fill" to="#808080" begin="zoomplus.mouseover" end="zoomplus.mouseout"/></use>
    <path d="M-4,0h8M0,-4v8" fill="none" stroke="white" stroke-width="1.5" pointer-events="none"/>
  </g>
  <g id="zoomMin">
    <use xlink:href="#rim" fill="#404040"><set attributeName="fill" to="#808080" begin="zoomminus.mouseover" end="zoomminus.mouseout"/></use>
    <path d="M-4,0h8" fill="none" stroke="white" stroke-width="1.5" pointer-events="none"/>
  </g>
  <g id="arrowUp" transform="translate(30 24)">
    <use xlink:href="#rim"/>
    <path pointer-events="none" fill="none" stroke="white" stroke-width="1.5" d="M0,-3.0v7 M-2.5,-0.5L0,-3.0L2.5,-0.5"/>
  </g>
  <g id="arrowRight" transform="rotate(90) translate(36 -43)">
    <use xlink:href="#rim"/>
    <path pointer-events="none" fill="none" stroke="white" stroke-width="1.5" d="M0,-3.0v7 M-2.5,-0.5L0,-3.0L2.5,-0.5"/>
  </g>
  <g id="arrowDown" transform="rotate(180) translate(-30 -48)">
    <use xlink:href="#rim"/>
    <path pointer-events="none" fill="none" stroke="white" stroke-width="1.5" d="M0,-3.0v7 M-2.5,-0.5L0,-3.0L2.5,-0.5"/>
  </g>
  <g id="arrowLeft" transform="rotate(270) translate(-36 17)">
    <use xlink:href="#rim"/>
    <path pointer-events="none" fill="none" stroke="white" stroke-width="1.5" d="M0,-3.0v7 M-2.5,-0.5L0,-3.0L2.5,-0.5"/>
  </g>
  <g id="resetDef">
    <use xlink:href="#rim2" fill="#404040"><set attributeName="fill" to="#808080" begin="reset.mouseover" end="reset.mouseout"/></use>
  </g>
</defs>
<script type="application/ecmascript">
var viewWidth = 696;
var viewHeight = 127;
var sectionId = 'dynsection-6';
</script>
<script type="application/ecmascript" xlink:href="svg.min.js"/>
<svg id="graph" class="graph">
<g id="viewport">
<title>checkLeftRightCombo</title>
<!-- Node1 -->
<g id="Node000001" class="node">
<title>Node1</title>
<g id="a_Node000001"><a xlink:title=" ">
<polygon fill="#999999" stroke="#666666" points="123,-57 0,-57 0,-38 123,-38 123,-57"/>
<text text-anchor="middle" x="61.5" y="-45" font-family="Helvetica,sans-Serif" font-size="10.00">checkLeftRightCombo</text>
</a>
</g>
</g>
<!-- Node2 -->
<g id="Node000002" class="node">
<title>Node2</title>
<g id="a_Node000002"><a xlink:href="buttons_8cpp.html#a476aa2a0a9fd2be3bedddd06747816c4" target="_top" xlink:title=" ">
<polygon fill="white" stroke="#666666" points="266,-57 159,-57 159,-38 266,-38 266,-57"/>
<text text-anchor="middle" x="212.5" y="-45" font-family="Helvetica,sans-Serif" font-size="10.00">onLeftRightCombo</text>
</a>
</g>
</g>
<!-- Node1&#45;&gt;Node2 -->
<g id="edge1_Node000001_Node000002" class="edge">
<title>Node1&#45;&gt;Node2</title>
<g id="a_edge1_Node000001_Node000002"><a xlink:title=" ">
<path fill="none" stroke="#63b8ff" d="M123.1,-47.5C131.47,-47.5 140.07,-47.5 148.48,-47.5"/>
<polygon fill="#63b8ff" stroke="#63b8ff" points="148.6,-51 158.6,-47.5 148.6,-44 148.6,-51"/>
</a>
</g>
</g>
<!-- Node3 -->
<g id="Node000003" class="node">
<title>Node3</title>
<g id="a_Node000003"><a xlink:href="display__ui_8cpp.html#a1946154d8e9e6dd415476d3378b98ff1" target="_top" xlink:title=" ">
<polygon fill="white" stroke="#666666" points="413,-95 310,-95 310,-76 413,-76 413,-95"/>
<text text-anchor="middle" x="361.5" y="-83" font-family="Helvetica,sans-Serif" font-size="10.00">drawHomeScreen</text>
</a>
</g>
</g>
<!-- Node2&#45;&gt;Node3 -->
<g id="edge2_Node000002_Node000003" class="edge">
<title>Node2&#45;&gt;Node3</title>
<g id="a_edge2_Node000002_Node000003"><a xlink:title=" ">
<path fill="none" stroke="#63b8ff" d="M250.59,-57.09C269.82,-62.06 293.49,-68.18 313.93,-73.46"/>
<polygon fill="#63b8ff" stroke="#63b8ff" points="313.11,-76.87 323.67,-75.98 314.87,-70.09 313.11,-76.87"/>
</a>
</g>
</g>
<!-- Node6 -->
<g id="Node000006" class="node">
<title>Node6</title>
<g id="a_Node000006"><a xlink:href="display__ui_8cpp.html#a0cc779d48595c7be531222945c8a5f10" target="_top" xlink:title=" ">
<polygon fill="white" stroke="#666666" points="395.5,-57 327.5,-57 327.5,-38 395.5,-38 395.5,-57"/>
<text text-anchor="middle" x="361.5" y="-45" font-family="Helvetica,sans-Serif" font-size="10.00">drawMenu</text>
</a>
</g>
</g>
<!-- Node2&#45;&gt;Node6 -->
<g id="edge5_Node000002_Node000006" class="edge">
<title>Node2&#45;&gt;Node6</title>
<g id="a_edge5_Node000002_Node000006"><a xlink:title=" ">
<path fill="none" stroke="#63b8ff" d="M266.16,-47.5C282.91,-47.5 301.25,-47.5 317.26,-47.5"/>
<polygon fill="#63b8ff" stroke="#63b8ff" points="317.41,-51 327.41,-47.5 317.41,-44 317.41,-51"/>
</a>
</g>
</g>
<!-- Node8 -->
<g id="Node000008" class="node">
<title>Node8</title>
<g id="a_Node000008"><a xlink:href="leds_8cpp.html#a20b9a2822d58fc522e9aef69e6e52cbe" target="_top" xlink:title=" ">
<polygon fill="white" stroke="#666666" points="421,-20 302,-20 302,-1 421,-1 421,-20"/>
<text text-anchor="middle" x="361.5" y="-8" font-family="Helvetica,sans-Serif" font-size="10.00">ledsToggleAnimation</text>
</a>
</g>
</g>
<!-- Node2&#45;&gt;Node8 -->
<g id="edge9_Node000002_Node000008" class="edge">
<title>Node2&#45;&gt;Node8</title>
<g id="a_edge9_Node000002_Node000008"><a xlink:title=" ">
<path fill="none" stroke="#63b8ff" d="M251.36,-37.97C270.06,-33.26 292.82,-27.53 312.72,-22.53"/>
<polygon fill="#63b8ff" stroke="#63b8ff" points="313.67,-25.9 322.52,-20.06 311.97,-19.11 313.67,-25.9"/>
</a>
</g>
</g>
<!-- Node4 -->
<g id="Node000004" class="node">
<title>Node4</title>
<g id="a_Node000004"><a xlink:href="display__ui_8cpp.html#ab460e1bb5537313cb79cfffa7e93c58b" target="_top" xlink:title=" ">
<polygon fill="white" stroke="#666666" points="688,-57 636,-57 636,-38 688,-38 688,-57"/>
<text text-anchor="middle" x="662" y="-45" font-family="Helvetica,sans-Serif" font-size="10.00">display</text>
</a>
</g>
</g>
<!-- Node3&#45;&gt;Node4 -->
<g id="edge3_Node000003_Node000004" class="edge">
<title>Node3&#45;&gt;Node4</title>
<g id="a_edge3_Node000003_Node000004"><a xlink:title=" ">
<path fill="none" stroke="#63b8ff" d="M389.28,-95.08C434.49,-109.66 528.05,-132.89 600,-104.5 619.91,-96.65 637.14,-78.89 648.17,-65.27"/>
<polygon fill="#63b8ff" stroke="#63b8ff" points="651.16,-67.12 654.48,-57.06 645.61,-62.85 651.16,-67.12"/>
</a>
</g>
</g>
<!-- Node5 -->
<g id="Node000005" class="node">
<title>Node5</title>
<g id="a_Node000005"><a xlink:href="weather_8cpp.html#a8e2b5c9b7658529d8dae9d6ea9d56de7" target="_top" xlink:title=" ">
<polygon fill="white" stroke="#666666" points="600,-95 457,-95 457,-76 600,-76 600,-95"/>
<text text-anchor="middle" x="528.5" y="-83" font-family="Helvetica,sans-Serif" font-size="10.00">Weather_CodeToShortText</text>
</a>
</g>
</g>
<!-- Node3&#45;&gt;Node5 -->
<g id="edge4_Node000003_Node000005" class="edge">
<title>Node3&#45;&gt;Node5</title>
<g id="a_edge4_Node000003_Node000005"><a xlink:title=" ">
<path fill="none" stroke="#63b8ff" d="M413.35,-85.5C423.86,-85.5 435.18,-85.5 446.47,-85.5"/>
<polygon fill="#63b8ff" stroke="#63b8ff" points="446.79,-89 456.79,-85.5 446.79,-82 446.79,-89"/>
</a>
</g>
</g>
<!-- Node6&#45;&gt;Node4 -->
<g id="edge6_Node000006_Node000004" class="edge">
<title>Node6&#45;&gt;Node4</title>
<g id="a_edge6_Node000006_Node000004"><a xlink:title=" ">
<path fill="none" stroke="#63b8ff" d="M395.59,-47.5C452.32,-47.5 567.65,-47.5 625.8,-47.5"/>
<polygon fill="#63b8ff" stroke="#63b8ff" points="625.97,-51 635.97,-47.5 625.97,-44 625.97,-51"/>
</a>
</g>
</g>
<!-- Node7 -->
<g id="Node000007" class="node">
<title>Node7</title>
<g id="a_Node000007"><a xlink:href="display__ui_8cpp.html#a4720a85c38264632abe90b06cd0a878a" target="_top" xlink:title=" ">
<polygon fill="white" stroke="#666666" points="572.5,-19 484.5,-19 484.5,0 572.5,0 572.5,-19"/>
<text text-anchor="middle" x="528.5" y="-7" font-family="Helvetica,sans-Serif" font-size="10.00">drawMenu_evi</text>
</a>
</g>
</g>
<!-- Node6&#45;&gt;Node7 -->
<g id="edge7_Node000006_Node000007" class="edge">
<title>Node6&#45;&gt;Node7</title>
<g id="a_edge7_Node000006_Node000007"><a xlink:title=" ">
<path fill="none" stroke="#63b8ff" d="M395.89,-39.81C418.94,-34.5 450.02,-27.34 476.19,-21.32"/>
<polygon fill="#63b8ff" stroke="#63b8ff" points="477,-24.72 485.96,-19.07 475.43,-17.9 477,-24.72"/>
</a>
</g>
</g>
<!-- Node7&#45;&gt;Node4 -->
<g id="edge8_Node000007_Node000004" class="edge">
<title>Node7&#45;&gt;Node4</title>
<g id="a_edge8_Node000007_Node000004"><a xlink:title=" ">
<path fill="none" stroke="#63b8ff" d="M562.68,-19.09C581.99,-24.67 606.31,-31.7 625.93,-37.37"/>
<polygon fill="#63b8ff" stroke="#63b8ff" points="625.13,-40.78 635.71,-40.19 627.08,-34.05 625.13,-40.78"/>
</a>
</g>
</g>
</g>
</svg>

<g id="navigator" transform="translate(0 0)" fill="#404254">
  <rect fill="#f2f5e9" fill-opacity="0.5" stroke="#606060" stroke-width=".5" x="0" y="0" width="60" height="60"/>
  <use id="zoomplus" xlink:href="#zoomPlus" x="17" y="9" onmousedown="handleZoom(evt,'in')"/>
  <use id="zoomminus" xlink:href="#zoomMin" x="42" y="9" onmousedown="handleZoom(evt,'out')"/>
  <use id="reset" xlink:href="#resetDef" x="30" y="36" onmousedown="handleReset()"/>
   <use id="arrowup" xlink:href="#arrowUp" x="0" y="0" onmousedown="handlePan(0,-1)"/>
  <use id="arrowright" xlink:href="#arrowRight" x="0" y="0" onmousedown="handlePan(1,0)"/>
  <use id="arrowdown" xlink:href="#arrowDown" x="0" y="0" onmousedown="handlePan(0,1)"/>
  <use id="arrowleft" xlink:href="#arrowLeft" x="0" y="0" onmousedown="handlePan(-1,0)"/>
</g>
<svg viewBox="0 0 15 15" width="100%" height="30px" preserveAspectRatio="xMaxYMin meet">
 <g id="arrow_out" transform="scale(0.3 0.3)">
  <a xlink:href="buttons_8h_a668c3b350a802edf187d6c97a61b4358_cgraph_org.svg" target="_base">
   <rect id="button" ry="5" rx="5" y="6" x="6" height="38" width="38"
        fill="#f2f5e9" fill-opacity="0.5" stroke="#606060" stroke-width="1.0"/>
   <path id="arrow"
     d="M 11.500037,31.436501 C 11.940474,20.09759 22.043105,11.32322 32.158766,21.979434 L 37.068811,17.246167 C 37.068811,17.246167 37.088388,32 37.088388,32 L 22.160133,31.978069 C 22.160133,31.978069 26.997745,27.140456 26.997745,27.140456 C 18.528582,18.264221 13.291696,25.230495 11.500037,31.436501 z"
     style="fill:#404040;"/>
  </a>
 </g>
</svg>

<style type='text/css'>
<![CDATA[
[data-mouse-over-selected='false'] { opacity: 0.7; }
[data-mouse-over-selected='true']  { opacity: 1.0; }
]]>
</style>
<script type="application/ecmascript"><![CDATA[
document.addEventListener('DOMContentLoaded', (event) => {
  highlightEdges();
  highlightAdjacentNodes();
});
]]></script>
</svg>
