<?xml version="1.0" encoding="UTF-8" standalone="no"?>
<!DOCTYPE svg PUBLIC "-//W3C//DTD SVG 1.1//EN"
 "http://www.w3.org/Graphics/SVG/1.1/DTD/svg11.dtd">
<!-- Generated by graphviz version 2.43.0 (0)
 -->
<!-- Title: src/Modules/buttons.h Pages: 1 -->
<svg width="942pt" height="247pt"
 viewBox="0.00 0.00 941.50 247.00" xmlns="http://www.w3.org/2000/svg" xmlns:xlink="http://www.w3.org/1999/xlink">
<g id="graph0" class="graph" transform="scale(1 1) rotate(0) translate(4 243)">
<title>src/Modules/buttons.h</title>
<!-- Node1 -->
<g id="Node000001" class="node">
<title>Node1</title>
<g id="a_Node000001"><a xlink:title="Definizioni e prototipi per la gestione degli input utente e della UI.">
<polygon fill="#999999" stroke="#666666" points="554,-239 430,-239 430,-220 554,-220 554,-239"/>
<text text-anchor="middle" x="492" y="-227" font-family="Helvetica,sans-Serif" font-size="10.00">src/Modules/buttons.h</text>
</a>
</g>
</g>
<!-- Node2 -->
<g id="Node000002" class="node">
<title>Node2</title>
<g id="a_Node000002"><a xlink:title=" ">
<polygon fill="#e0e0e0" stroke="#999999" points="455.5,-74 392.5,-74 392.5,-55 455.5,-55 455.5,-74"/>
<text text-anchor="middle" x="424" y="-62" font-family="Helvetica,sans-Serif" font-size="10.00">Arduino.h</text>
</a>
</g>
</g>
<!-- Node1&#45;&gt;Node2 -->
<g id="edge1_Node000001_Node000002" class="edge">
<title>Node1&#45;&gt;Node2</title>
<g id="a_edge1_Node000001_Node000002"><a xlink:title=" ">
<path fill="none" stroke="#63b8ff" d="M458.91,-219.98C418.33,-207.56 351.34,-180.17 322,-129 317.8,-121.67 317.37,-117.06 322,-110 329.53,-98.5 360.21,-86.03 385.98,-77.23"/>
<polygon fill="#63b8ff" stroke="#63b8ff" points="387.17,-80.52 395.55,-74.04 384.96,-73.88 387.17,-80.52"/>
</a>
</g>
</g>
<!-- Node3 -->
<g id="Node000003" class="node">
<title>Node3</title>
<g id="a_Node000003"><a xlink:title=" ">
<polygon fill="#e0e0e0" stroke="#999999" points="820,-74 744,-74 744,-55 820,-55 820,-74"/>
<text text-anchor="middle" x="782" y="-62" font-family="Helvetica,sans-Serif" font-size="10.00">pico/stdlib.h</text>
</a>
</g>
</g>
<!-- Node1&#45;&gt;Node3 -->
<g id="edge2_Node000001_Node000003" class="edge">
<title>Node1&#45;&gt;Node3</title>
<g id="a_edge2_Node000001_Node000003"><a xlink:title=" ">
<path fill="none" stroke="#63b8ff" d="M549.85,-219.97C637.2,-205.76 796.07,-174.26 829,-129 841.34,-112.03 822.15,-92.67 804.71,-79.83"/>
<polygon fill="#63b8ff" stroke="#63b8ff" points="806.64,-76.92 796.43,-74.09 802.65,-82.67 806.64,-76.92"/>
</a>
</g>
</g>
<!-- Node4 -->
<g id="Node000004" class="node">
<title>Node4</title>
<g id="a_Node000004"><a xlink:title=" ">
<polygon fill="#e0e0e0" stroke="#999999" points="933.5,-74 838.5,-74 838.5,-55 933.5,-55 933.5,-74"/>
<text text-anchor="middle" x="886" y="-62" font-family="Helvetica,sans-Serif" font-size="10.00">hardware/gpio.h</text>
</a>
</g>
</g>
<!-- Node1&#45;&gt;Node4 -->
<g id="edge3_Node000001_Node000004" class="edge">
<title>Node1&#45;&gt;Node4</title>
<g id="a_edge3_Node000001_Node000004"><a xlink:title=" ">
<path fill="none" stroke="#63b8ff" d="M554,-225.68C610.03,-221.42 693.9,-210.75 762,-184 803.19,-167.82 813.9,-160.48 845,-129 858.38,-115.46 869.76,-96.88 877.11,-83.32"/>
<polygon fill="#63b8ff" stroke="#63b8ff" points="880.4,-84.58 881.91,-74.09 874.19,-81.35 880.4,-84.58"/>
</a>
</g>
</g>
<!-- Node5 -->
<g id="Node000005" class="node">
<title>Node5</title>
<g id="a_Node000005"><a xlink:href="display__ui_8h.html" target="_top" xlink:title="Definizioni hardware e prototipi per l&#39;interfaccia utente OLED.">
<polygon fill="white" stroke="#666666" points="529.5,-184 454.5,-184 454.5,-165 529.5,-165 529.5,-184"/>
<text text-anchor="middle" x="492" y="-172" font-family="Helvetica,sans-Serif" font-size="10.00">display_ui.h</text>
</a>
</g>
</g>
<!-- Node1&#45;&gt;Node5 -->
<g id="edge4_Node000001_Node000005" class="edge">
<title>Node1&#45;&gt;Node5</title>
<g id="a_edge4_Node000001_Node000005"><a xlink:title=" ">
<path fill="none" stroke="#63b8ff" d="M486.83,-219.75C485.34,-212.8 484.9,-202.85 485.52,-194.13"/>
<polygon fill="#63b8ff" stroke="#63b8ff" points="489.01,-194.47 486.87,-184.09 482.07,-193.53 489.01,-194.47"/>
</a>
</g>
</g>
<!-- Node11 -->
<g id="Node000011" class="node">
<title>Node11</title>
<g id="a_Node000011"><a xlink:href="gps_8h.html" target="_top" xlink:title="Definizioni, macro e strutture per la gestione della telemetria GPS.">
<polygon fill="white" stroke="#666666" points="244.5,-129 201.5,-129 201.5,-110 244.5,-110 244.5,-129"/>
<text text-anchor="middle" x="223" y="-117" font-family="Helvetica,sans-Serif" font-size="10.00">gps.h</text>
</a>
</g>
</g>
<!-- Node1&#45;&gt;Node11 -->
<g id="edge34_Node000001_Node000011" class="edge">
<title>Node1&#45;&gt;Node11</title>
<g id="a_edge34_Node000001_Node000011"><a xlink:title=" ">
<path fill="none" stroke="#63b8ff" d="M429.85,-222.55C370.36,-215.82 285.82,-203.22 259,-184 243.73,-173.06 234.08,-153.5 228.65,-138.97"/>
<polygon fill="#63b8ff" stroke="#63b8ff" points="231.82,-137.42 225.31,-129.07 225.19,-139.66 231.82,-137.42"/>
</a>
</g>
</g>
<!-- Node23 -->
<g id="Node000023" class="node">
<title>Node23</title>
<g id="a_Node000023"><a xlink:href="leds_8h.html" target="_top" xlink:title="Definizioni hardware e prototipi per la gestione dei LED RGB.">
<polygon fill="white" stroke="#666666" points="820,-129 774,-129 774,-110 820,-110 820,-129"/>
<text text-anchor="middle" x="797" y="-117" font-family="Helvetica,sans-Serif" font-size="10.00">leds.h</text>
</a>
</g>
</g>
<!-- Node1&#45;&gt;Node23 -->
<g id="edge33_Node000001_Node000023" class="edge">
<title>Node1&#45;&gt;Node23</title>
<g id="a_edge33_Node000001_Node000023"><a xlink:title=" ">
<path fill="none" stroke="#63b8ff" d="M516.19,-219.94C570.51,-200.7 702.25,-154.05 764.01,-132.18"/>
<polygon fill="#63b8ff" stroke="#63b8ff" points="765.39,-135.41 773.65,-128.77 763.05,-128.81 765.39,-135.41"/>
</a>
</g>
</g>
<!-- Node5&#45;&gt;Node1 -->
<g id="edge10_Node000005_Node000001" class="edge">
<title>Node5&#45;&gt;Node1</title>
<g id="a_edge10_Node000005_Node000001"><a xlink:title=" ">
<path fill="none" stroke="#63b8ff" d="M497.13,-184.09C498.64,-190.99 499.09,-200.93 498.49,-209.66"/>
<polygon fill="#63b8ff" stroke="#63b8ff" points="495,-209.38 497.17,-219.75 501.94,-210.29 495,-209.38"/>
</a>
</g>
</g>
<!-- Node5&#45;&gt;Node2 -->
<g id="edge5_Node000005_Node000002" class="edge">
<title>Node5&#45;&gt;Node2</title>
<g id="a_edge5_Node000005_Node000002"><a xlink:title=" ">
<path fill="none" stroke="#63b8ff" d="M454.15,-168.42C411.15,-161.79 344.99,-148.66 330,-129 311.53,-104.77 349.72,-86.63 382.83,-76.07"/>
<polygon fill="#63b8ff" stroke="#63b8ff" points="383.87,-79.42 392.43,-73.17 381.85,-72.72 383.87,-79.42"/>
</a>
</g>
</g>
<!-- Node6 -->
<g id="Node000006" class="node">
<title>Node6</title>
<g id="a_Node000006"><a xlink:title=" ">
<polygon fill="#e0e0e0" stroke="#999999" points="624,-129 534,-129 534,-110 624,-110 624,-129"/>
<text text-anchor="middle" x="579" y="-117" font-family="Helvetica,sans-Serif" font-size="10.00">Adafruit_GFX.h</text>
</a>
</g>
</g>
<!-- Node5&#45;&gt;Node6 -->
<g id="edge6_Node000005_Node000006" class="edge">
<title>Node5&#45;&gt;Node6</title>
<g id="a_edge6_Node000005_Node000006"><a xlink:title=" ">
<path fill="none" stroke="#63b8ff" d="M505.98,-164.98C519.47,-156.77 540.13,-144.18 556.04,-134.49"/>
<polygon fill="#63b8ff" stroke="#63b8ff" points="558.05,-137.36 564.77,-129.17 554.41,-131.38 558.05,-137.36"/>
</a>
</g>
</g>
<!-- Node7 -->
<g id="Node000007" class="node">
<title>Node7</title>
<g id="a_Node000007"><a xlink:title=" ">
<polygon fill="#e0e0e0" stroke="#999999" points="755.5,-129 642.5,-129 642.5,-110 755.5,-110 755.5,-129"/>
<text text-anchor="middle" x="699" y="-117" font-family="Helvetica,sans-Serif" font-size="10.00">Adafruit_SSD1306.h</text>
</a>
</g>
</g>
<!-- Node5&#45;&gt;Node7 -->
<g id="edge7_Node000005_Node000007" class="edge">
<title>Node5&#45;&gt;Node7</title>
<g id="a_edge7_Node000005_Node000007"><a xlink:title=" ">
<path fill="none" stroke="#63b8ff" d="M525.26,-164.98C560.61,-155.93 616.67,-141.58 655.51,-131.64"/>
<polygon fill="#63b8ff" stroke="#63b8ff" points="656.66,-134.95 665.48,-129.08 654.93,-128.17 656.66,-134.95"/>
</a>
</g>
</g>
<!-- Node8 -->
<g id="Node000008" class="node">
<title>Node8</title>
<g id="a_Node000008"><a xlink:title=" ">
<polygon fill="#e0e0e0" stroke="#999999" points="380.5,-129 339.5,-129 339.5,-110 380.5,-110 380.5,-129"/>
<text text-anchor="middle" x="360" y="-117" font-family="Helvetica,sans-Serif" font-size="10.00">SPI.h</text>
</a>
</g>
</g>
<!-- Node5&#45;&gt;Node8 -->
<g id="edge8_Node000005_Node000008" class="edge">
<title>Node5&#45;&gt;Node8</title>
<g id="a_edge8_Node000005_Node000008"><a xlink:title=" ">
<path fill="none" stroke="#63b8ff" d="M470.79,-164.98C449.01,-156.24 414.92,-142.55 390.3,-132.67"/>
<polygon fill="#63b8ff" stroke="#63b8ff" points="391.3,-129.3 380.72,-128.82 388.7,-135.79 391.3,-129.3"/>
</a>
</g>
</g>
<!-- Node9 -->
<g id="Node000009" class="node">
<title>Node9</title>
<g id="a_Node000009"><a xlink:title=" ">
<polygon fill="#e0e0e0" stroke="#999999" points="516,-129 468,-129 468,-110 516,-110 516,-129"/>
<text text-anchor="middle" x="492" y="-117" font-family="Helvetica,sans-Serif" font-size="10.00">Wire.h</text>
</a>
</g>
</g>
<!-- Node5&#45;&gt;Node9 -->
<g id="edge9_Node000005_Node000009" class="edge">
<title>Node5&#45;&gt;Node9</title>
<g id="a_edge9_Node000005_Node000009"><a xlink:title=" ">
<path fill="none" stroke="#63b8ff" d="M492,-164.75C492,-157.8 492,-147.85 492,-139.13"/>
<polygon fill="#63b8ff" stroke="#63b8ff" points="495.5,-139.09 492,-129.09 488.5,-139.09 495.5,-139.09"/>
</a>
</g>
</g>
<!-- Node10 -->
<g id="Node000010" class="node">
<title>Node10</title>
<g id="a_Node000010"><a xlink:href="temp_8h.html" target="_top" xlink:title="Definizioni hardware e prototipi per la lettura della temperatura.">
<polygon fill="white" stroke="#666666" points="449.5,-129 398.5,-129 398.5,-110 449.5,-110 449.5,-129"/>
<text text-anchor="middle" x="424" y="-117" font-family="Helvetica,sans-Serif" font-size="10.00">temp.h</text>
</a>
</g>
</g>
<!-- Node5&#45;&gt;Node10 -->
<g id="edge11_Node000005_Node000010" class="edge">
<title>Node5&#45;&gt;Node10</title>
<g id="a_edge11_Node000005_Node000010"><a xlink:title=" ">
<path fill="none" stroke="#63b8ff" d="M481.07,-164.98C470.92,-157.07 455.58,-145.11 443.35,-135.58"/>
<polygon fill="#63b8ff" stroke="#63b8ff" points="445.16,-132.56 435.12,-129.17 440.86,-138.08 445.16,-132.56"/>
</a>
</g>
</g>
<!-- Node5&#45;&gt;Node11 -->
<g id="edge13_Node000005_Node000011" class="edge">
<title>Node5&#45;&gt;Node11</title>
<g id="a_edge13_Node000005_Node000011"><a xlink:title=" ">
<path fill="none" stroke="#63b8ff" d="M454.31,-166.07C400.99,-155.57 304.48,-136.55 254.66,-126.74"/>
<polygon fill="#63b8ff" stroke="#63b8ff" points="255.26,-123.29 244.77,-124.79 253.9,-130.16 255.26,-123.29"/>
</a>
</g>
</g>
<!-- Node5&#45;&gt;Node23 -->
<g id="edge30_Node000005_Node000023" class="edge">
<title>Node5&#45;&gt;Node23</title>
<g id="a_edge30_Node000005_Node000023"><a xlink:title=" ">
<path fill="none" stroke="#63b8ff" d="M529.6,-168.44C582.26,-161.11 680.88,-146.47 764,-129 764.1,-128.98 764.2,-128.96 764.3,-128.94"/>
<polygon fill="#63b8ff" stroke="#63b8ff" points="765.02,-132.36 773.98,-126.71 763.45,-125.54 765.02,-132.36"/>
</a>
</g>
</g>
<!-- Node10&#45;&gt;Node2 -->
<g id="edge12_Node000010_Node000002" class="edge">
<title>Node10&#45;&gt;Node2</title>
<g id="a_edge12_Node000010_Node000002"><a xlink:title=" ">
<path fill="none" stroke="#63b8ff" d="M424,-109.75C424,-102.8 424,-92.85 424,-84.13"/>
<polygon fill="#63b8ff" stroke="#63b8ff" points="427.5,-84.09 424,-74.09 420.5,-84.09 427.5,-84.09"/>
</a>
</g>
</g>
<!-- Node11&#45;&gt;Node2 -->
<g id="edge14_Node000011_Node000002" class="edge">
<title>Node11&#45;&gt;Node2</title>
<g id="a_edge14_Node000011_Node000002"><a xlink:title=" ">
<path fill="none" stroke="#63b8ff" d="M244.51,-112.83C277.35,-104.17 340.59,-87.49 382.55,-76.43"/>
<polygon fill="#63b8ff" stroke="#63b8ff" points="383.69,-79.75 392.46,-73.82 381.9,-72.98 383.69,-79.75"/>
</a>
</g>
</g>
<!-- Node11&#45;&gt;Node3 -->
<g id="edge23_Node000011_Node000003" class="edge">
<title>Node11&#45;&gt;Node3</title>
<g id="a_edge23_Node000011_Node000003"><a xlink:title=" ">
<path fill="none" stroke="#63b8ff" d="M244.79,-116.73C331.86,-109.62 653.64,-83.21 733.81,-73.95"/>
<polygon fill="#63b8ff" stroke="#63b8ff" points="734.33,-77.41 743.83,-72.71 733.47,-70.46 734.33,-77.41"/>
</a>
</g>
</g>
<!-- Node11&#45;&gt;Node4 -->
<g id="edge24_Node000011_Node000004" class="edge">
<title>Node11&#45;&gt;Node4</title>
<g id="a_edge24_Node000011_Node000004"><a xlink:title=" ">
<path fill="none" stroke="#63b8ff" d="M244.72,-116.73C266.33,-114.98 300.46,-112.24 330,-110 548.47,-93.44 606.31,-98.27 828.43,-73.97"/>
<polygon fill="#63b8ff" stroke="#63b8ff" points="828.89,-77.44 838.45,-72.87 828.13,-70.48 828.89,-77.44"/>
</a>
</g>
</g>
<!-- Node12 -->
<g id="Node000012" class="node">
<title>Node12</title>
<g id="a_Node000012"><a xlink:title=" ">
<polygon fill="#e0e0e0" stroke="#999999" points="48,-19 0,-19 0,0 48,0 48,-19"/>
<text text-anchor="middle" x="24" y="-7" font-family="Helvetica,sans-Serif" font-size="10.00">time.h</text>
</a>
</g>
</g>
<!-- Node11&#45;&gt;Node12 -->
<g id="edge15_Node000011_Node000012" class="edge">
<title>Node11&#45;&gt;Node12</title>
<g id="a_edge15_Node000011_Node000012"><a xlink:title=" ">
<path fill="none" stroke="#63b8ff" d="M210.28,-109.98C191.11,-97.29 153.49,-73 120,-55 98.23,-43.3 72.83,-31.6 53.62,-23.14"/>
<polygon fill="#63b8ff" stroke="#63b8ff" points="54.76,-19.82 44.19,-19.03 51.96,-26.24 54.76,-19.82"/>
</a>
</g>
</g>
<!-- Node13 -->
<g id="Node000013" class="node">
<title>Node13</title>
<g id="a_Node000013"><a xlink:title=" ">
<polygon fill="#e0e0e0" stroke="#999999" points="111,-74 43,-74 43,-55 111,-55 111,-74"/>
<text text-anchor="middle" x="77" y="-62" font-family="Helvetica,sans-Serif" font-size="10.00">sys/time.h</text>
</a>
</g>
</g>
<!-- Node11&#45;&gt;Node13 -->
<g id="edge16_Node000011_Node000013" class="edge">
<title>Node11&#45;&gt;Node13</title>
<g id="a_edge16_Node000011_Node000013"><a xlink:title=" ">
<path fill="none" stroke="#63b8ff" d="M201.46,-110.68C177.44,-101.96 138.3,-87.75 110.32,-77.6"/>
<polygon fill="#63b8ff" stroke="#63b8ff" points="111.16,-74.18 100.57,-74.06 108.77,-80.76 111.16,-74.18"/>
</a>
</g>
</g>
<!-- Node14 -->
<g id="Node000014" class="node">
<title>Node14</title>
<g id="a_Node000014"><a xlink:href="minmea_8h.html" target="_top" xlink:title=" ">
<polygon fill="white" stroke="#666666" points="277,-74 167,-74 167,-55 277,-55 277,-74"/>
<text text-anchor="middle" x="222" y="-62" font-family="Helvetica,sans-Serif" font-size="10.00">minmea/minmea.h</text>
</a>
</g>
</g>
<!-- Node11&#45;&gt;Node14 -->
<g id="edge17_Node000011_Node000014" class="edge">
<title>Node11&#45;&gt;Node14</title>
<g id="a_edge17_Node000011_Node000014"><a xlink:title=" ">
<path fill="none" stroke="#63b8ff" d="M222.83,-109.75C222.7,-102.8 222.52,-92.85 222.35,-84.13"/>
<polygon fill="#63b8ff" stroke="#63b8ff" points="225.85,-84.02 222.16,-74.09 218.85,-84.15 225.85,-84.02"/>
</a>
</g>
</g>
<!-- Node19 -->
<g id="Node000019" class="node">
<title>Node19</title>
<g id="a_Node000019"><a xlink:href="Filesystem_8h.html" target="_top" xlink:title="Interfaccia per la gestione del filesystem FatFS e l&#39;integrazione USB Mass Storage.">
<polygon fill="white" stroke="#666666" points="374.5,-74 295.5,-74 295.5,-55 374.5,-55 374.5,-74"/>
<text text-anchor="middle" x="335" y="-62" font-family="Helvetica,sans-Serif" font-size="10.00">Filesystem.h</text>
</a>
</g>
</g>
<!-- Node11&#45;&gt;Node19 -->
<g id="edge25_Node000011_Node000019" class="edge">
<title>Node11&#45;&gt;Node19</title>
<g id="a_edge25_Node000011_Node000019"><a xlink:title=" ">
<path fill="none" stroke="#63b8ff" d="M240.99,-109.98C258.93,-101.5 286.72,-88.35 307.43,-78.54"/>
<polygon fill="#63b8ff" stroke="#63b8ff" points="309.14,-81.61 316.68,-74.17 306.14,-75.28 309.14,-81.61"/>
</a>
</g>
</g>
<!-- Node14&#45;&gt;Node12 -->
<g id="edge21_Node000014_Node000012" class="edge">
<title>Node14&#45;&gt;Node12</title>
<g id="a_edge21_Node000014_Node000012"><a xlink:title=" ">
<path fill="none" stroke="#63b8ff" d="M190.19,-54.98C154.02,-45.3 95.19,-29.56 58.09,-19.63"/>
<polygon fill="#63b8ff" stroke="#63b8ff" points="58.81,-16.19 48.24,-16.99 57,-22.96 58.81,-16.19"/>
</a>
</g>
</g>
<!-- Node15 -->
<g id="Node000015" class="node">
<title>Node15</title>
<g id="a_Node000015"><a xlink:title=" ">
<polygon fill="#e0e0e0" stroke="#999999" points="119.5,-19 66.5,-19 66.5,0 119.5,0 119.5,-19"/>
<text text-anchor="middle" x="93" y="-7" font-family="Helvetica,sans-Serif" font-size="10.00">ctype.h</text>
</a>
</g>
</g>
<!-- Node14&#45;&gt;Node15 -->
<g id="edge18_Node000014_Node000015" class="edge">
<title>Node14&#45;&gt;Node15</title>
<g id="a_edge18_Node000014_Node000015"><a xlink:title=" ">
<path fill="none" stroke="#63b8ff" d="M201.27,-54.98C180.24,-46.34 147.45,-32.87 123.46,-23.02"/>
<polygon fill="#63b8ff" stroke="#63b8ff" points="124.68,-19.73 114.1,-19.17 122.02,-26.21 124.68,-19.73"/>
</a>
</g>
</g>
<!-- Node16 -->
<g id="Node000016" class="node">
<title>Node16</title>
<g id="a_Node000016"><a xlink:title=" ">
<polygon fill="#e0e0e0" stroke="#999999" points="340.5,-19 287.5,-19 287.5,0 340.5,0 340.5,-19"/>
<text text-anchor="middle" x="314" y="-7" font-family="Helvetica,sans-Serif" font-size="10.00">stdint.h</text>
</a>
</g>
</g>
<!-- Node14&#45;&gt;Node16 -->
<g id="edge19_Node000014_Node000016" class="edge">
<title>Node14&#45;&gt;Node16</title>
<g id="a_edge19_Node000014_Node000016"><a xlink:title=" ">
<path fill="none" stroke="#63b8ff" d="M236.78,-54.98C251.18,-46.69 273.31,-33.94 290.19,-24.22"/>
<polygon fill="#63b8ff" stroke="#63b8ff" points="292.03,-27.19 298.95,-19.17 288.54,-21.13 292.03,-27.19"/>
</a>
</g>
</g>
<!-- Node17 -->
<g id="Node000017" class="node">
<title>Node17</title>
<g id="a_Node000017"><a xlink:title=" ">
<polygon fill="#e0e0e0" stroke="#999999" points="200,-19 138,-19 138,0 200,0 200,-19"/>
<text text-anchor="middle" x="169" y="-7" font-family="Helvetica,sans-Serif" font-size="10.00">stdbool.h</text>
</a>
</g>
</g>
<!-- Node14&#45;&gt;Node17 -->
<g id="edge20_Node000014_Node000017" class="edge">
<title>Node14&#45;&gt;Node17</title>
<g id="a_edge20_Node000014_Node000017"><a xlink:title=" ">
<path fill="none" stroke="#63b8ff" d="M213.25,-54.75C205.53,-47.03 194.1,-35.6 184.78,-26.28"/>
<polygon fill="#63b8ff" stroke="#63b8ff" points="187.14,-23.69 177.59,-19.09 182.19,-28.64 187.14,-23.69"/>
</a>
</g>
</g>
<!-- Node18 -->
<g id="Node000018" class="node">
<title>Node18</title>
<g id="a_Node000018"><a xlink:title=" ">
<polygon fill="#e0e0e0" stroke="#999999" points="269.5,-19 218.5,-19 218.5,0 269.5,0 269.5,-19"/>
<text text-anchor="middle" x="244" y="-7" font-family="Helvetica,sans-Serif" font-size="10.00">math.h</text>
</a>
</g>
</g>
<!-- Node14&#45;&gt;Node18 -->
<g id="edge22_Node000014_Node000018" class="edge">
<title>Node14&#45;&gt;Node18</title>
<g id="a_edge22_Node000014_Node000018"><a xlink:title=" ">
<path fill="none" stroke="#63b8ff" d="M225.63,-54.75C228.58,-47.65 232.83,-37.4 236.51,-28.56"/>
<polygon fill="#63b8ff" stroke="#63b8ff" points="239.83,-29.67 240.43,-19.09 233.37,-26.98 239.83,-29.67"/>
</a>
</g>
</g>
<!-- Node19&#45;&gt;Node16 -->
<g id="edge28_Node000019_Node000016" class="edge">
<title>Node19&#45;&gt;Node16</title>
<g id="a_edge28_Node000019_Node000016"><a xlink:title=" ">
<path fill="none" stroke="#63b8ff" d="M331.53,-54.75C328.72,-47.65 324.66,-37.4 321.15,-28.56"/>
<polygon fill="#63b8ff" stroke="#63b8ff" points="324.34,-27.1 317.4,-19.09 317.83,-29.68 324.34,-27.1"/>
</a>
</g>
</g>
<!-- Node20 -->
<g id="Node000020" class="node">
<title>Node20</title>
<g id="a_Node000020"><a xlink:title=" ">
<polygon fill="#e0e0e0" stroke="#999999" points="409.5,-19 358.5,-19 358.5,0 409.5,0 409.5,-19"/>
<text text-anchor="middle" x="384" y="-7" font-family="Helvetica,sans-Serif" font-size="10.00">FatFS.h</text>
</a>
</g>
</g>
<!-- Node19&#45;&gt;Node20 -->
<g id="edge26_Node000019_Node000020" class="edge">
<title>Node19&#45;&gt;Node20</title>
<g id="a_edge26_Node000019_Node000020"><a xlink:title=" ">
<path fill="none" stroke="#63b8ff" d="M343.09,-54.75C350.16,-47.11 360.59,-35.82 369.15,-26.56"/>
<polygon fill="#63b8ff" stroke="#63b8ff" points="371.84,-28.81 376.06,-19.09 366.7,-24.06 371.84,-28.81"/>
</a>
</g>
</g>
<!-- Node21 -->
<g id="Node000021" class="node">
<title>Node21</title>
<g id="a_Node000021"><a xlink:title=" ">
<polygon fill="#e0e0e0" stroke="#999999" points="498.5,-19 427.5,-19 427.5,0 498.5,0 498.5,-19"/>
<text text-anchor="middle" x="463" y="-7" font-family="Helvetica,sans-Serif" font-size="10.00">FatFSUSB.h</text>
</a>
</g>
</g>
<!-- Node19&#45;&gt;Node21 -->
<g id="edge27_Node000019_Node000021" class="edge">
<title>Node19&#45;&gt;Node21</title>
<g id="a_edge27_Node000019_Node000021"><a xlink:title=" ">
<path fill="none" stroke="#63b8ff" d="M355.57,-54.98C376.43,-46.34 408.97,-32.87 432.77,-23.02"/>
<polygon fill="#63b8ff" stroke="#63b8ff" points="434.16,-26.23 442.06,-19.17 431.48,-19.76 434.16,-26.23"/>
</a>
</g>
</g>
<!-- Node22 -->
<g id="Node000022" class="node">
<title>Node22</title>
<g id="a_Node000022"><a xlink:title=" ">
<polygon fill="#e0e0e0" stroke="#999999" points="561,-19 517,-19 517,0 561,0 561,-19"/>
<text text-anchor="middle" x="539" y="-7" font-family="Helvetica,sans-Serif" font-size="10.00">VFS.h</text>
</a>
</g>
</g>
<!-- Node19&#45;&gt;Node22 -->
<g id="edge29_Node000019_Node000022" class="edge">
<title>Node19&#45;&gt;Node22</title>
<g id="a_edge29_Node000019_Node000022"><a xlink:title=" ">
<path fill="none" stroke="#63b8ff" d="M368.31,-54.95C402.97,-46.04 458.81,-31.63 507,-19 507.1,-18.97 507.2,-18.95 507.3,-18.92"/>
<polygon fill="#63b8ff" stroke="#63b8ff" points="508.19,-22.31 516.97,-16.37 506.41,-15.54 508.19,-22.31"/>
</a>
</g>
</g>
<!-- Node23&#45;&gt;Node2 -->
<g id="edge31_Node000023_Node000002" class="edge">
<title>Node23&#45;&gt;Node2</title>
<g id="a_edge31_Node000023_Node000002"><a xlink:title=" ">
<path fill="none" stroke="#63b8ff" d="M773.64,-112.11C770.42,-111.34 767.14,-110.61 764,-110 657.42,-89.38 530.17,-75.56 465.77,-69.31"/>
<polygon fill="#63b8ff" stroke="#63b8ff" points="465.9,-65.81 455.61,-68.34 465.23,-72.77 465.9,-65.81"/>
</a>
</g>
</g>
<!-- Node24 -->
<g id="Node000024" class="node">
<title>Node24</title>
<g id="a_Node000024"><a xlink:title=" ">
<polygon fill="#e0e0e0" stroke="#999999" points="726,-74 662,-74 662,-55 726,-55 726,-74"/>
<text text-anchor="middle" x="694" y="-62" font-family="Helvetica,sans-Serif" font-size="10.00">FastLED.h</text>
</a>
</g>
</g>
<!-- Node23&#45;&gt;Node24 -->
<g id="edge32_Node000023_Node000024" class="edge">
<title>Node23&#45;&gt;Node24</title>
<g id="a_edge32_Node000023_Node000024"><a xlink:title=" ">
<path fill="none" stroke="#63b8ff" d="M780.45,-109.98C764.11,-101.57 738.87,-88.59 719.87,-78.81"/>
<polygon fill="#63b8ff" stroke="#63b8ff" points="721.34,-75.63 710.85,-74.17 718.14,-81.86 721.34,-75.63"/>
</a>
</g>
</g>
</g>
</svg>
