<?xml version="1.0" encoding="UTF-8" standalone="no"?>
<!DOCTYPE svg PUBLIC "-//W3C//DTD SVG 1.1//EN"
 "http://www.w3.org/Graphics/SVG/1.1/DTD/svg11.dtd">
<!-- Generated by graphviz version 2.43.0 (0)
 -->
<!-- Title: src/Modules/buttons.cpp Pages: 1 -->
<svg width="952pt" height="302pt"
 viewBox="0.00 0.00 952.00 302.00" xmlns="http://www.w3.org/2000/svg" xmlns:xlink="http://www.w3.org/1999/xlink">
<g id="graph0" class="graph" transform="scale(1 1) rotate(0) translate(4 298)">
<title>src/Modules/buttons.cpp</title>
<!-- Node1 -->
<g id="Node000001" class="node">
<title>Node1</title>
<g id="a_Node000001"><a xlink:title="Gestione dell&#39;input utente, sitema di debounce e macchina a stati del menu.">
<polygon fill="#999999" stroke="#666666" points="477.5,-294 342.5,-294 342.5,-275 477.5,-275 477.5,-294"/>
<text text-anchor="middle" x="410" y="-282" font-family="Helvetica,sans-Serif" font-size="10.00">src/Modules/buttons.cpp</text>
</a>
</g>
</g>
<!-- Node2 -->
<g id="Node000002" class="node">
<title>Node2</title>
<g id="a_Node000002"><a xlink:href="buttons_8h.html" target="_top" xlink:title="Definizioni e prototipi per la gestione degli input utente e della UI.">
<polygon fill="white" stroke="#666666" points="381,-239 319,-239 319,-220 381,-220 381,-239"/>
<text text-anchor="middle" x="350" y="-227" font-family="Helvetica,sans-Serif" font-size="10.00">buttons.h</text>
</a>
</g>
</g>
<!-- Node1&#45;&gt;Node2 -->
<g id="edge1_Node000001_Node000002" class="edge">
<title>Node1&#45;&gt;Node2</title>
<g id="a_edge1_Node000001_Node000002"><a xlink:title=" ">
<path fill="none" stroke="#63b8ff" d="M400.36,-274.98C391.49,-267.15 378.13,-255.34 367.39,-245.86"/>
<polygon fill="#63b8ff" stroke="#63b8ff" points="369.63,-243.17 359.82,-239.17 364.99,-248.41 369.63,-243.17"/>
</a>
</g>
</g>
<!-- Node6 -->
<g id="Node000006" class="node">
<title>Node6</title>
<g id="a_Node000006"><a xlink:href="display__ui_8h.html" target="_top" xlink:title="Definizioni hardware e prototipi per l&#39;interfaccia utente OLED.">
<polygon fill="white" stroke="#666666" points="535.5,-184 460.5,-184 460.5,-165 535.5,-165 535.5,-184"/>
<text text-anchor="middle" x="498" y="-172" font-family="Helvetica,sans-Serif" font-size="10.00">display_ui.h</text>
</a>
</g>
</g>
<!-- Node1&#45;&gt;Node6 -->
<g id="edge36_Node000001_Node000006" class="edge">
<title>Node1&#45;&gt;Node6</title>
<g id="a_edge36_Node000001_Node000006"><a xlink:title=" ">
<path fill="none" stroke="#63b8ff" d="M417.2,-274.66C431.91,-256.61 465.59,-215.28 484.49,-192.08"/>
<polygon fill="#63b8ff" stroke="#63b8ff" points="487.34,-194.12 490.95,-184.16 481.91,-189.7 487.34,-194.12"/>
</a>
</g>
</g>
<!-- Node12 -->
<g id="Node000012" class="node">
<title>Node12</title>
<g id="a_Node000012"><a xlink:href="gps_8h.html" target="_top" xlink:title="Definizioni, macro e strutture per la gestione della telemetria GPS.">
<polygon fill="white" stroke="#666666" points="320.5,-129 277.5,-129 277.5,-110 320.5,-110 320.5,-129"/>
<text text-anchor="middle" x="299" y="-117" font-family="Helvetica,sans-Serif" font-size="10.00">gps.h</text>
</a>
</g>
</g>
<!-- Node1&#45;&gt;Node12 -->
<g id="edge38_Node000001_Node000012" class="edge">
<title>Node1&#45;&gt;Node12</title>
<g id="a_edge38_Node000001_Node000012"><a xlink:title=" ">
<path fill="none" stroke="#63b8ff" d="M366.83,-274.93C346.29,-268.55 323.35,-257.61 310,-239 288.8,-209.45 291.55,-164.5 295.34,-139.31"/>
<polygon fill="#63b8ff" stroke="#63b8ff" points="298.83,-139.7 297.08,-129.25 291.93,-138.51 298.83,-139.7"/>
</a>
</g>
</g>
<!-- Node24 -->
<g id="Node000024" class="node">
<title>Node24</title>
<g id="a_Node000024"><a xlink:href="leds_8h.html" target="_top" xlink:title="Definizioni hardware e prototipi per la gestione dei LED RGB.">
<polygon fill="white" stroke="#666666" points="935,-129 889,-129 889,-110 935,-110 935,-129"/>
<text text-anchor="middle" x="912" y="-117" font-family="Helvetica,sans-Serif" font-size="10.00">leds.h</text>
</a>
</g>
</g>
<!-- Node1&#45;&gt;Node24 -->
<g id="edge37_Node000001_Node000024" class="edge">
<title>Node1&#45;&gt;Node24</title>
<g id="a_edge37_Node000001_Node000024"><a xlink:title=" ">
<path fill="none" stroke="#63b8ff" d="M436.28,-274.97C520.87,-247.5 785.94,-161.43 879.17,-131.16"/>
<polygon fill="#63b8ff" stroke="#63b8ff" points="880.48,-134.41 888.91,-128 878.32,-127.76 880.48,-134.41"/>
</a>
</g>
</g>
<!-- Node26 -->
<g id="Node000026" class="node">
<title>Node26</title>
<g id="a_Node000026"><a xlink:href="weather_8h.html" target="_top" xlink:title="Definizioni della struttura dati e prototipi per il modulo Meteo.">
<polygon fill="white" stroke="#666666" points="442.5,-184 377.5,-184 377.5,-165 442.5,-165 442.5,-184"/>
<text text-anchor="middle" x="410" y="-172" font-family="Helvetica,sans-Serif" font-size="10.00">weather.h</text>
</a>
</g>
</g>
<!-- Node1&#45;&gt;Node26 -->
<g id="edge39_Node000001_Node000026" class="edge">
<title>Node1&#45;&gt;Node26</title>
<g id="a_edge39_Node000001_Node000026"><a xlink:title=" ">
<path fill="none" stroke="#63b8ff" d="M410,-274.66C410,-257.17 410,-217.8 410,-194.27"/>
<polygon fill="#63b8ff" stroke="#63b8ff" points="413.5,-194.16 410,-184.16 406.5,-194.16 413.5,-194.16"/>
</a>
</g>
</g>
<!-- Node3 -->
<g id="Node000003" class="node">
<title>Node3</title>
<g id="a_Node000003"><a xlink:title=" ">
<polygon fill="#e0e0e0" stroke="#999999" points="620.5,-74 557.5,-74 557.5,-55 620.5,-55 620.5,-74"/>
<text text-anchor="middle" x="589" y="-62" font-family="Helvetica,sans-Serif" font-size="10.00">Arduino.h</text>
</a>
</g>
</g>
<!-- Node2&#45;&gt;Node3 -->
<g id="edge2_Node000002_Node000003" class="edge">
<title>Node2&#45;&gt;Node3</title>
<g id="a_edge2_Node000002_Node000003"><a xlink:title=" ">
<path fill="none" stroke="#63b8ff" d="M351.12,-219.77C353.05,-207.04 357.81,-182.93 368,-165 384.62,-135.75 391.07,-127.16 420,-110 431.03,-103.46 501.22,-86.14 547.61,-75.14"/>
<polygon fill="#63b8ff" stroke="#63b8ff" points="548.47,-78.53 557.4,-72.83 546.86,-71.72 548.47,-78.53"/>
</a>
</g>
</g>
<!-- Node4 -->
<g id="Node000004" class="node">
<title>Node4</title>
<g id="a_Node000004"><a xlink:title=" ">
<polygon fill="#e0e0e0" stroke="#999999" points="76,-74 0,-74 0,-55 76,-55 76,-74"/>
<text text-anchor="middle" x="38" y="-62" font-family="Helvetica,sans-Serif" font-size="10.00">pico/stdlib.h</text>
</a>
</g>
</g>
<!-- Node2&#45;&gt;Node4 -->
<g id="edge3_Node000002_Node000004" class="edge">
<title>Node2&#45;&gt;Node4</title>
<g id="a_edge3_Node000002_Node000004"><a xlink:title=" ">
<path fill="none" stroke="#63b8ff" d="M333.66,-219.97C282.61,-193.29 125.74,-111.34 63.67,-78.91"/>
<polygon fill="#63b8ff" stroke="#63b8ff" points="65.03,-75.67 54.55,-74.15 61.79,-81.88 65.03,-75.67"/>
</a>
</g>
</g>
<!-- Node5 -->
<g id="Node000005" class="node">
<title>Node5</title>
<g id="a_Node000005"><a xlink:title=" ">
<polygon fill="#e0e0e0" stroke="#999999" points="189.5,-74 94.5,-74 94.5,-55 189.5,-55 189.5,-74"/>
<text text-anchor="middle" x="142" y="-62" font-family="Helvetica,sans-Serif" font-size="10.00">hardware/gpio.h</text>
</a>
</g>
</g>
<!-- Node2&#45;&gt;Node5 -->
<g id="edge4_Node000002_Node000005" class="edge">
<title>Node2&#45;&gt;Node5</title>
<g id="a_edge4_Node000002_Node000005"><a xlink:title=" ">
<path fill="none" stroke="#63b8ff" d="M339.11,-219.97C305.56,-193.68 203.49,-113.69 160.94,-80.34"/>
<polygon fill="#63b8ff" stroke="#63b8ff" points="163.06,-77.56 153.03,-74.15 158.75,-83.07 163.06,-77.56"/>
</a>
</g>
</g>
<!-- Node2&#45;&gt;Node6 -->
<g id="edge5_Node000002_Node000006" class="edge">
<title>Node2&#45;&gt;Node6</title>
<g id="a_edge5_Node000002_Node000006"><a xlink:title=" ">
<path fill="none" stroke="#63b8ff" d="M368.66,-219.98C391.45,-211.13 430.17,-197.19 459.39,-187.28"/>
<polygon fill="#63b8ff" stroke="#63b8ff" points="460.54,-190.58 468.91,-184.08 458.31,-183.95 460.54,-190.58"/>
</a>
</g>
</g>
<!-- Node2&#45;&gt;Node12 -->
<g id="edge35_Node000002_Node000012" class="edge">
<title>Node2&#45;&gt;Node12</title>
<g id="a_edge35_Node000002_Node000012"><a xlink:title=" ">
<path fill="none" stroke="#63b8ff" d="M345.83,-219.66C337.45,-201.93 318.47,-161.73 307.41,-138.32"/>
<polygon fill="#63b8ff" stroke="#63b8ff" points="310.52,-136.71 303.09,-129.16 304.19,-139.7 310.52,-136.71"/>
</a>
</g>
</g>
<!-- Node2&#45;&gt;Node24 -->
<g id="edge34_Node000002_Node000024" class="edge">
<title>Node2&#45;&gt;Node24</title>
<g id="a_edge34_Node000002_Node000024"><a xlink:title=" ">
<path fill="none" stroke="#63b8ff" d="M381.23,-223.47C461.97,-210.28 684.35,-172.85 879.14,-129.06"/>
<polygon fill="#63b8ff" stroke="#63b8ff" points="880,-132.45 888.98,-126.83 878.45,-125.62 880,-132.45"/>
</a>
</g>
</g>
<!-- Node6&#45;&gt;Node2 -->
<g id="edge11_Node000006_Node000002" class="edge">
<title>Node6&#45;&gt;Node2</title>
<g id="a_edge11_Node000006_Node000002"><a xlink:title=" ">
<path fill="none" stroke="#63b8ff" d="M478.94,-184.17C456.14,-193.02 417.78,-206.83 388.74,-216.68"/>
<polygon fill="#63b8ff" stroke="#63b8ff" points="387.26,-213.48 378.89,-219.98 389.49,-220.12 387.26,-213.48"/>
</a>
</g>
</g>
<!-- Node6&#45;&gt;Node3 -->
<g id="edge6_Node000006_Node000003" class="edge">
<title>Node6&#45;&gt;Node3</title>
<g id="a_edge6_Node000006_Node000003"><a xlink:title=" ">
<path fill="none" stroke="#63b8ff" d="M481.4,-164.98C460.42,-153.07 428.77,-130.6 444,-110 450.35,-101.41 506.89,-85.83 547.46,-75.58"/>
<polygon fill="#63b8ff" stroke="#63b8ff" points="548.54,-78.92 557.39,-73.09 546.84,-72.12 548.54,-78.92"/>
</a>
</g>
</g>
<!-- Node7 -->
<g id="Node000007" class="node">
<title>Node7</title>
<g id="a_Node000007"><a xlink:title=" ">
<polygon fill="#e0e0e0" stroke="#999999" points="739,-129 649,-129 649,-110 739,-110 739,-129"/>
<text text-anchor="middle" x="694" y="-117" font-family="Helvetica,sans-Serif" font-size="10.00">Adafruit_GFX.h</text>
</a>
</g>
</g>
<!-- Node6&#45;&gt;Node7 -->
<g id="edge7_Node000006_Node000007" class="edge">
<title>Node6&#45;&gt;Node7</title>
<g id="a_edge7_Node000006_Node000007"><a xlink:title=" ">
<path fill="none" stroke="#63b8ff" d="M529.49,-164.98C562.82,-155.97 615.6,-141.7 652.35,-131.76"/>
<polygon fill="#63b8ff" stroke="#63b8ff" points="653.52,-135.07 662.26,-129.08 651.7,-128.31 653.52,-135.07"/>
</a>
</g>
</g>
<!-- Node8 -->
<g id="Node000008" class="node">
<title>Node8</title>
<g id="a_Node000008"><a xlink:title=" ">
<polygon fill="#e0e0e0" stroke="#999999" points="870.5,-129 757.5,-129 757.5,-110 870.5,-110 870.5,-129"/>
<text text-anchor="middle" x="814" y="-117" font-family="Helvetica,sans-Serif" font-size="10.00">Adafruit_SSD1306.h</text>
</a>
</g>
</g>
<!-- Node6&#45;&gt;Node8 -->
<g id="edge8_Node000006_Node000008" class="edge">
<title>Node6&#45;&gt;Node8</title>
<g id="a_edge8_Node000006_Node000008"><a xlink:title=" ">
<path fill="none" stroke="#63b8ff" d="M535.8,-167.16C589.61,-158.14 688.86,-141.49 753.11,-130.71"/>
<polygon fill="#63b8ff" stroke="#63b8ff" points="753.82,-134.14 763.11,-129.04 752.67,-127.24 753.82,-134.14"/>
</a>
</g>
</g>
<!-- Node9 -->
<g id="Node000009" class="node">
<title>Node9</title>
<g id="a_Node000009"><a xlink:title=" ">
<polygon fill="#e0e0e0" stroke="#999999" points="494.5,-129 453.5,-129 453.5,-110 494.5,-110 494.5,-129"/>
<text text-anchor="middle" x="474" y="-117" font-family="Helvetica,sans-Serif" font-size="10.00">SPI.h</text>
</a>
</g>
</g>
<!-- Node6&#45;&gt;Node9 -->
<g id="edge9_Node000006_Node000009" class="edge">
<title>Node6&#45;&gt;Node9</title>
<g id="a_edge9_Node000006_Node000009"><a xlink:title=" ">
<path fill="none" stroke="#63b8ff" d="M494.04,-164.75C490.79,-157.57 486.08,-147.18 482.05,-138.27"/>
<polygon fill="#63b8ff" stroke="#63b8ff" points="485.2,-136.75 477.89,-129.09 478.83,-139.64 485.2,-136.75"/>
</a>
</g>
</g>
<!-- Node10 -->
<g id="Node000010" class="node">
<title>Node10</title>
<g id="a_Node000010"><a xlink:title=" ">
<polygon fill="#e0e0e0" stroke="#999999" points="561,-129 513,-129 513,-110 561,-110 561,-129"/>
<text text-anchor="middle" x="537" y="-117" font-family="Helvetica,sans-Serif" font-size="10.00">Wire.h</text>
</a>
</g>
</g>
<!-- Node6&#45;&gt;Node10 -->
<g id="edge10_Node000006_Node000010" class="edge">
<title>Node6&#45;&gt;Node10</title>
<g id="a_edge10_Node000006_Node000010"><a xlink:title=" ">
<path fill="none" stroke="#63b8ff" d="M504.44,-164.75C509.89,-157.34 517.86,-146.5 524.56,-137.41"/>
<polygon fill="#63b8ff" stroke="#63b8ff" points="527.57,-139.22 530.68,-129.09 521.93,-135.07 527.57,-139.22"/>
</a>
</g>
</g>
<!-- Node11 -->
<g id="Node000011" class="node">
<title>Node11</title>
<g id="a_Node000011"><a xlink:href="temp_8h.html" target="_top" xlink:title="Definizioni hardware e prototipi per la lettura della temperatura.">
<polygon fill="white" stroke="#666666" points="630.5,-129 579.5,-129 579.5,-110 630.5,-110 630.5,-129"/>
<text text-anchor="middle" x="605" y="-117" font-family="Helvetica,sans-Serif" font-size="10.00">temp.h</text>
</a>
</g>
</g>
<!-- Node6&#45;&gt;Node11 -->
<g id="edge12_Node000006_Node000011" class="edge">
<title>Node6&#45;&gt;Node11</title>
<g id="a_edge12_Node000006_Node000011"><a xlink:title=" ">
<path fill="none" stroke="#63b8ff" d="M515.19,-164.98C532.25,-156.54 558.63,-143.47 578.4,-133.68"/>
<polygon fill="#63b8ff" stroke="#63b8ff" points="580.09,-136.75 587.5,-129.17 576.98,-130.47 580.09,-136.75"/>
</a>
</g>
</g>
<!-- Node6&#45;&gt;Node12 -->
<g id="edge14_Node000006_Node000012" class="edge">
<title>Node6&#45;&gt;Node12</title>
<g id="a_edge14_Node000006_Node000012"><a xlink:title=" ">
<path fill="none" stroke="#63b8ff" d="M466.03,-164.98C428.77,-155.06 367.59,-138.77 330.53,-128.9"/>
<polygon fill="#63b8ff" stroke="#63b8ff" points="331.32,-125.48 320.75,-126.29 329.51,-132.25 331.32,-125.48"/>
</a>
</g>
</g>
<!-- Node6&#45;&gt;Node24 -->
<g id="edge31_Node000006_Node000024" class="edge">
<title>Node6&#45;&gt;Node24</title>
<g id="a_edge31_Node000006_Node000024"><a xlink:title=" ">
<path fill="none" stroke="#63b8ff" d="M535.68,-170.91C602.78,-165.92 747.45,-153.4 878.46,-129.04"/>
<polygon fill="#63b8ff" stroke="#63b8ff" points="879.49,-132.41 888.67,-127.11 878.19,-125.53 879.49,-132.41"/>
</a>
</g>
</g>
<!-- Node11&#45;&gt;Node3 -->
<g id="edge13_Node000011_Node000003" class="edge">
<title>Node11&#45;&gt;Node3</title>
<g id="a_edge13_Node000011_Node000003"><a xlink:title=" ">
<path fill="none" stroke="#63b8ff" d="M602.36,-109.75C600.24,-102.72 597.19,-92.62 594.54,-83.84"/>
<polygon fill="#63b8ff" stroke="#63b8ff" points="597.83,-82.65 591.59,-74.09 591.13,-84.67 597.83,-82.65"/>
</a>
</g>
</g>
<!-- Node12&#45;&gt;Node3 -->
<g id="edge15_Node000012_Node000003" class="edge">
<title>Node12&#45;&gt;Node3</title>
<g id="a_edge15_Node000012_Node000003"><a xlink:title=" ">
<path fill="none" stroke="#63b8ff" d="M320.65,-113.15C325.37,-112.05 330.34,-110.94 335,-110 425.98,-91.59 451.94,-91.72 547.18,-74.09"/>
<polygon fill="#63b8ff" stroke="#63b8ff" points="548.05,-77.48 557.24,-72.21 546.77,-70.6 548.05,-77.48"/>
</a>
</g>
</g>
<!-- Node12&#45;&gt;Node4 -->
<g id="edge24_Node000012_Node000004" class="edge">
<title>Node12&#45;&gt;Node4</title>
<g id="a_edge24_Node000012_Node000004"><a xlink:title=" ">
<path fill="none" stroke="#63b8ff" d="M277.2,-114.07C235.36,-105.58 142.92,-86.81 85.99,-75.25"/>
<polygon fill="#63b8ff" stroke="#63b8ff" points="86.64,-71.81 76.14,-73.25 85.24,-78.67 86.64,-71.81"/>
</a>
</g>
</g>
<!-- Node12&#45;&gt;Node5 -->
<g id="edge25_Node000012_Node000005" class="edge">
<title>Node12&#45;&gt;Node5</title>
<g id="a_edge25_Node000012_Node000005"><a xlink:title=" ">
<path fill="none" stroke="#63b8ff" d="M277.5,-111.24C251.58,-102.49 207.68,-87.67 176.89,-77.28"/>
<polygon fill="#63b8ff" stroke="#63b8ff" points="177.99,-73.96 167.4,-74.07 175.75,-80.59 177.99,-73.96"/>
</a>
</g>
</g>
<!-- Node13 -->
<g id="Node000013" class="node">
<title>Node13</title>
<g id="a_Node000013"><a xlink:title=" ">
<polygon fill="#e0e0e0" stroke="#999999" points="427,-19 379,-19 379,0 427,0 427,-19"/>
<text text-anchor="middle" x="403" y="-7" font-family="Helvetica,sans-Serif" font-size="10.00">time.h</text>
</a>
</g>
</g>
<!-- Node12&#45;&gt;Node13 -->
<g id="edge16_Node000012_Node000013" class="edge">
<title>Node12&#45;&gt;Node13</title>
<g id="a_edge16_Node000012_Node000013"><a xlink:title=" ">
<path fill="none" stroke="#63b8ff" d="M302.16,-109.85C307.27,-96.78 318.37,-71.75 334,-55 345.85,-42.3 362.06,-31.61 375.79,-23.89"/>
<polygon fill="#63b8ff" stroke="#63b8ff" points="377.66,-26.85 384.81,-19.03 374.35,-20.69 377.66,-26.85"/>
</a>
</g>
</g>
<!-- Node14 -->
<g id="Node000014" class="node">
<title>Node14</title>
<g id="a_Node000014"><a xlink:title=" ">
<polygon fill="#e0e0e0" stroke="#999999" points="411,-74 343,-74 343,-55 411,-55 411,-74"/>
<text text-anchor="middle" x="377" y="-62" font-family="Helvetica,sans-Serif" font-size="10.00">sys/time.h</text>
</a>
</g>
</g>
<!-- Node12&#45;&gt;Node14 -->
<g id="edge17_Node000012_Node000014" class="edge">
<title>Node12&#45;&gt;Node14</title>
<g id="a_edge17_Node000012_Node000014"><a xlink:title=" ">
<path fill="none" stroke="#63b8ff" d="M311.53,-109.98C323.4,-101.92 341.46,-89.65 355.61,-80.03"/>
<polygon fill="#63b8ff" stroke="#63b8ff" points="357.94,-82.69 364.24,-74.17 354,-76.9 357.94,-82.69"/>
</a>
</g>
</g>
<!-- Node15 -->
<g id="Node000015" class="node">
<title>Node15</title>
<g id="a_Node000015"><a xlink:href="minmea_8h.html" target="_top" xlink:title=" ">
<polygon fill="white" stroke="#666666" points="539,-74 429,-74 429,-55 539,-55 539,-74"/>
<text text-anchor="middle" x="484" y="-62" font-family="Helvetica,sans-Serif" font-size="10.00">minmea/minmea.h</text>
</a>
</g>
</g>
<!-- Node12&#45;&gt;Node15 -->
<g id="edge18_Node000012_Node000015" class="edge">
<title>Node12&#45;&gt;Node15</title>
<g id="a_edge18_Node000012_Node000015"><a xlink:title=" ">
<path fill="none" stroke="#63b8ff" d="M320.58,-112.32C350.94,-103.62 406.78,-87.62 444.64,-76.78"/>
<polygon fill="#63b8ff" stroke="#63b8ff" points="445.68,-80.12 454.33,-74 443.75,-73.39 445.68,-80.12"/>
</a>
</g>
</g>
<!-- Node20 -->
<g id="Node000020" class="node">
<title>Node20</title>
<g id="a_Node000020"><a xlink:href="Filesystem_8h.html" target="_top" xlink:title="Interfaccia per la gestione del filesystem FatFS e l&#39;integrazione USB Mass Storage.">
<polygon fill="white" stroke="#666666" points="286.5,-74 207.5,-74 207.5,-55 286.5,-55 286.5,-74"/>
<text text-anchor="middle" x="247" y="-62" font-family="Helvetica,sans-Serif" font-size="10.00">Filesystem.h</text>
</a>
</g>
</g>
<!-- Node12&#45;&gt;Node20 -->
<g id="edge26_Node000012_Node000020" class="edge">
<title>Node12&#45;&gt;Node20</title>
<g id="a_edge26_Node000012_Node000020"><a xlink:title=" ">
<path fill="none" stroke="#63b8ff" d="M290.41,-109.75C282.84,-102.03 271.62,-90.6 262.49,-81.28"/>
<polygon fill="#63b8ff" stroke="#63b8ff" points="264.93,-78.78 255.43,-74.09 259.93,-83.68 264.93,-78.78"/>
</a>
</g>
</g>
<!-- Node15&#45;&gt;Node13 -->
<g id="edge22_Node000015_Node000013" class="edge">
<title>Node15&#45;&gt;Node13</title>
<g id="a_edge22_Node000015_Node000013"><a xlink:title=" ">
<path fill="none" stroke="#63b8ff" d="M470.99,-54.98C458.54,-46.84 439.54,-34.41 424.79,-24.76"/>
<polygon fill="#63b8ff" stroke="#63b8ff" points="426.54,-21.72 416.25,-19.17 422.7,-27.57 426.54,-21.72"/>
</a>
</g>
</g>
<!-- Node16 -->
<g id="Node000016" class="node">
<title>Node16</title>
<g id="a_Node000016"><a xlink:title=" ">
<polygon fill="#e0e0e0" stroke="#999999" points="647.5,-19 594.5,-19 594.5,0 647.5,0 647.5,-19"/>
<text text-anchor="middle" x="621" y="-7" font-family="Helvetica,sans-Serif" font-size="10.00">ctype.h</text>
</a>
</g>
</g>
<!-- Node15&#45;&gt;Node16 -->
<g id="edge19_Node000015_Node000016" class="edge">
<title>Node15&#45;&gt;Node16</title>
<g id="a_edge19_Node000015_Node000016"><a xlink:title=" ">
<path fill="none" stroke="#63b8ff" d="M506.01,-54.98C528.45,-46.3 563.48,-32.75 588.99,-22.88"/>
<polygon fill="#63b8ff" stroke="#63b8ff" points="590.52,-26.04 598.59,-19.17 588,-19.51 590.52,-26.04"/>
</a>
</g>
</g>
<!-- Node17 -->
<g id="Node000017" class="node">
<title>Node17</title>
<g id="a_Node000017"><a xlink:title=" ">
<polygon fill="#e0e0e0" stroke="#999999" points="360.5,-19 307.5,-19 307.5,0 360.5,0 360.5,-19"/>
<text text-anchor="middle" x="334" y="-7" font-family="Helvetica,sans-Serif" font-size="10.00">stdint.h</text>
</a>
</g>
</g>
<!-- Node15&#45;&gt;Node17 -->
<g id="edge20_Node000015_Node000017" class="edge">
<title>Node15&#45;&gt;Node17</title>
<g id="a_edge20_Node000015_Node000017"><a xlink:title=" ">
<path fill="none" stroke="#63b8ff" d="M459.9,-54.98C435.12,-46.23 396.3,-32.51 368.31,-22.62"/>
<polygon fill="#63b8ff" stroke="#63b8ff" points="369.13,-19.2 358.54,-19.17 366.8,-25.8 369.13,-19.2"/>
</a>
</g>
</g>
<!-- Node18 -->
<g id="Node000018" class="node">
<title>Node18</title>
<g id="a_Node000018"><a xlink:title=" ">
<polygon fill="#e0e0e0" stroke="#999999" points="507,-19 445,-19 445,0 507,0 507,-19"/>
<text text-anchor="middle" x="476" y="-7" font-family="Helvetica,sans-Serif" font-size="10.00">stdbool.h</text>
</a>
</g>
</g>
<!-- Node15&#45;&gt;Node18 -->
<g id="edge21_Node000015_Node000018" class="edge">
<title>Node15&#45;&gt;Node18</title>
<g id="a_edge21_Node000015_Node000018"><a xlink:title=" ">
<path fill="none" stroke="#63b8ff" d="M482.68,-54.75C481.63,-47.8 480.13,-37.85 478.81,-29.13"/>
<polygon fill="#63b8ff" stroke="#63b8ff" points="482.25,-28.45 477.3,-19.09 475.33,-29.5 482.25,-28.45"/>
</a>
</g>
</g>
<!-- Node19 -->
<g id="Node000019" class="node">
<title>Node19</title>
<g id="a_Node000019"><a xlink:title=" ">
<polygon fill="#e0e0e0" stroke="#999999" points="576.5,-19 525.5,-19 525.5,0 576.5,0 576.5,-19"/>
<text text-anchor="middle" x="551" y="-7" font-family="Helvetica,sans-Serif" font-size="10.00">math.h</text>
</a>
</g>
</g>
<!-- Node15&#45;&gt;Node19 -->
<g id="edge23_Node000015_Node000019" class="edge">
<title>Node15&#45;&gt;Node19</title>
<g id="a_edge23_Node000015_Node000019"><a xlink:title=" ">
<path fill="none" stroke="#63b8ff" d="M494.76,-54.98C504.77,-47.07 519.89,-35.11 531.93,-25.58"/>
<polygon fill="#63b8ff" stroke="#63b8ff" points="534.37,-28.12 540.04,-19.17 530.03,-22.63 534.37,-28.12"/>
</a>
</g>
</g>
<!-- Node20&#45;&gt;Node17 -->
<g id="edge29_Node000020_Node000017" class="edge">
<title>Node20&#45;&gt;Node17</title>
<g id="a_edge29_Node000020_Node000017"><a xlink:title=" ">
<path fill="none" stroke="#63b8ff" d="M260.98,-54.98C274.47,-46.77 295.13,-34.18 311.04,-24.49"/>
<polygon fill="#63b8ff" stroke="#63b8ff" points="313.05,-27.36 319.77,-19.17 309.41,-21.38 313.05,-27.36"/>
</a>
</g>
</g>
<!-- Node21 -->
<g id="Node000021" class="node">
<title>Node21</title>
<g id="a_Node000021"><a xlink:title=" ">
<polygon fill="#e0e0e0" stroke="#999999" points="200.5,-19 149.5,-19 149.5,0 200.5,0 200.5,-19"/>
<text text-anchor="middle" x="175" y="-7" font-family="Helvetica,sans-Serif" font-size="10.00">FatFS.h</text>
</a>
</g>
</g>
<!-- Node20&#45;&gt;Node21 -->
<g id="edge27_Node000020_Node000021" class="edge">
<title>Node20&#45;&gt;Node21</title>
<g id="a_edge27_Node000020_Node000021"><a xlink:title=" ">
<path fill="none" stroke="#63b8ff" d="M235.43,-54.98C224.58,-47 208.12,-34.88 195.12,-25.31"/>
<polygon fill="#63b8ff" stroke="#63b8ff" points="196.91,-22.28 186.78,-19.17 192.76,-27.92 196.91,-22.28"/>
</a>
</g>
</g>
<!-- Node22 -->
<g id="Node000022" class="node">
<title>Node22</title>
<g id="a_Node000022"><a xlink:title=" ">
<polygon fill="#e0e0e0" stroke="#999999" points="289.5,-19 218.5,-19 218.5,0 289.5,0 289.5,-19"/>
<text text-anchor="middle" x="254" y="-7" font-family="Helvetica,sans-Serif" font-size="10.00">FatFSUSB.h</text>
</a>
</g>
</g>
<!-- Node20&#45;&gt;Node22 -->
<g id="edge28_Node000020_Node000022" class="edge">
<title>Node20&#45;&gt;Node22</title>
<g id="a_edge28_Node000020_Node000022"><a xlink:title=" ">
<path fill="none" stroke="#63b8ff" d="M248.16,-54.75C249.07,-47.8 250.39,-37.85 251.54,-29.13"/>
<polygon fill="#63b8ff" stroke="#63b8ff" points="255.03,-29.46 252.87,-19.09 248.09,-28.54 255.03,-29.46"/>
</a>
</g>
</g>
<!-- Node23 -->
<g id="Node000023" class="node">
<title>Node23</title>
<g id="a_Node000023"><a xlink:title=" ">
<polygon fill="#e0e0e0" stroke="#999999" points="131,-19 87,-19 87,0 131,0 131,-19"/>
<text text-anchor="middle" x="109" y="-7" font-family="Helvetica,sans-Serif" font-size="10.00">VFS.h</text>
</a>
</g>
</g>
<!-- Node20&#45;&gt;Node23 -->
<g id="edge30_Node000020_Node000023" class="edge">
<title>Node20&#45;&gt;Node23</title>
<g id="a_edge30_Node000020_Node000023"><a xlink:title=" ">
<path fill="none" stroke="#63b8ff" d="M224.83,-54.98C202.09,-46.25 166.52,-32.59 140.79,-22.71"/>
<polygon fill="#63b8ff" stroke="#63b8ff" points="141.71,-19.31 131.12,-18.99 139.2,-25.85 141.71,-19.31"/>
</a>
</g>
</g>
<!-- Node24&#45;&gt;Node3 -->
<g id="edge32_Node000024_Node000003" class="edge">
<title>Node24&#45;&gt;Node3</title>
<g id="a_edge32_Node000024_Node000003"><a xlink:title=" ">
<path fill="none" stroke="#63b8ff" d="M889,-112.07C885.98,-111.32 882.93,-110.61 880,-110 791.92,-91.62 687.37,-77.48 630.65,-70.43"/>
<polygon fill="#63b8ff" stroke="#63b8ff" points="630.99,-66.95 620.63,-69.2 630.13,-73.9 630.99,-66.95"/>
</a>
</g>
</g>
<!-- Node25 -->
<g id="Node000025" class="node">
<title>Node25</title>
<g id="a_Node000025"><a xlink:title=" ">
<polygon fill="#e0e0e0" stroke="#999999" points="944,-74 880,-74 880,-55 944,-55 944,-74"/>
<text text-anchor="middle" x="912" y="-62" font-family="Helvetica,sans-Serif" font-size="10.00">FastLED.h</text>
</a>
</g>
</g>
<!-- Node24&#45;&gt;Node25 -->
<g id="edge33_Node000024_Node000025" class="edge">
<title>Node24&#45;&gt;Node25</title>
<g id="a_edge33_Node000024_Node000025"><a xlink:title=" ">
<path fill="none" stroke="#63b8ff" d="M912,-109.75C912,-102.8 912,-92.85 912,-84.13"/>
<polygon fill="#63b8ff" stroke="#63b8ff" points="915.5,-84.09 912,-74.09 908.5,-84.09 915.5,-84.09"/>
</a>
</g>
</g>
<!-- Node26&#45;&gt;Node3 -->
<g id="edge40_Node000026_Node000003" class="edge">
<title>Node26&#45;&gt;Node3</title>
<g id="a_edge40_Node000026_Node000003"><a xlink:title=" ">
<path fill="none" stroke="#63b8ff" d="M411.3,-164.73C413.79,-151.04 420.53,-124.65 437,-110 445.44,-102.49 505.68,-86.29 547.73,-75.64"/>
<polygon fill="#63b8ff" stroke="#63b8ff" points="548.62,-79.03 557.46,-73.2 546.91,-72.24 548.62,-79.03"/>
</a>
</g>
</g>
</g>
</svg>
