<?xml version="1.0" encoding="UTF-8" standalone="no"?>
<!DOCTYPE svg PUBLIC "-//W3C//DTD SVG 1.1//EN"
 "http://www.w3.org/Graphics/SVG/1.1/DTD/svg11.dtd">
<!-- Generated by graphviz version 2.43.0 (0)
 -->
<!-- Title: buttonsInit Pages: 1 -->
<svg width="342pt" height="27pt"
 viewBox="0.00 0.00 342.00 27.00" xmlns="http://www.w3.org/2000/svg" xmlns:xlink="http://www.w3.org/1999/xlink">
<g id="graph0" class="graph" transform="scale(1 1) rotate(0) translate(4 23)">
<title>buttonsInit</title>
<!-- Node1 -->
<g id="Node000001" class="node">
<title>Node1</title>
<g id="a_Node000001"><a xlink:title="Inizializza i pin dei pulsanti e configura gli interrupt.">
<polygon fill="#999999" stroke="#666666" points="69,-19 0,-19 0,0 69,0 69,-19"/>
<text text-anchor="middle" x="34.5" y="-7" font-family="Helvetica,sans-Serif" font-size="10.00">buttonsInit</text>
</a>
</g>
</g>
<!-- Node2 -->
<g id="Node000002" class="node">
<title>Node2</title>
<g id="a_Node000002"><a xlink:href="buttons_8cpp.html#a7f6538b252b233c2a00eeabf455b6ac8" target="_top" xlink:title="Handler degli interrupt GPIO per i pulsanti.">
<polygon fill="white" stroke="#666666" points="188,-19 105,-19 105,0 188,0 188,-19"/>
<text text-anchor="middle" x="146.5" y="-7" font-family="Helvetica,sans-Serif" font-size="10.00">gpio_callback</text>
</a>
</g>
</g>
<!-- Node1&#45;&gt;Node2 -->
<g id="edge1_Node000001_Node000002" class="edge">
<title>Node1&#45;&gt;Node2</title>
<g id="a_edge1_Node000001_Node000002"><a xlink:title=" ">
<path fill="none" stroke="#63b8ff" d="M69.1,-9.5C77.18,-9.5 86,-9.5 94.67,-9.5"/>
<polygon fill="#63b8ff" stroke="#63b8ff" points="94.74,-13 104.74,-9.5 94.74,-6 94.74,-13"/>
</a>
</g>
</g>
<!-- Node3 -->
<g id="Node000003" class="node">
<title>Node3</title>
<g id="a_Node000003"><a xlink:href="buttons_8cpp.html#a5efcf76744c2885d8d1fd0ce223a5e2d" target="_top" xlink:title="Callback dell&#39;allarme per il filtraggio software del debounce.">
<polygon fill="white" stroke="#666666" points="334,-19 224,-19 224,0 334,0 334,-19"/>
<text text-anchor="middle" x="279" y="-7" font-family="Helvetica,sans-Serif" font-size="10.00">debounce_callback</text>
</a>
</g>
</g>
<!-- Node2&#45;&gt;Node3 -->
<g id="edge2_Node000002_Node000003" class="edge">
<title>Node2&#45;&gt;Node3</title>
<g id="a_edge2_Node000002_Node000003"><a xlink:title=" ">
<path fill="none" stroke="#63b8ff" d="M188.08,-9.5C196.14,-9.5 204.8,-9.5 213.44,-9.5"/>
<polygon fill="#63b8ff" stroke="#63b8ff" points="213.54,-13 223.54,-9.5 213.54,-6 213.54,-13"/>
</a>
</g>
</g>
</g>
</svg>
