<?xml version="1.0" encoding="UTF-8" standalone="no"?>
<!DOCTYPE svg PUBLIC "-//W3C//DTD SVG 1.1//EN"
 "http://www.w3.org/Graphics/SVG/1.1/DTD/svg11.dtd">
<!-- Generated by graphviz version 2.43.0 (0)
 -->
<!-- Title: buttonsUpdate Pages: 1 -->
<svg width="844pt" height="409pt"
 viewBox="0.00 0.00 844.00 409.12" xmlns="http://www.w3.org/2000/svg" xmlns:xlink="http://www.w3.org/1999/xlink">
<g id="graph0" class="graph" transform="scale(1 1) rotate(0) translate(4 405.12)">
<title>buttonsUpdate</title>
<!-- Node1 -->
<g id="Node000001" class="node">
<title>Node1</title>
<g id="a_Node000001"><a xlink:title="Esegue il polling della logica dei menu e gestisce gli eventi dei tasti.">
<polygon fill="#999999" stroke="#666666" points="89,-206 0,-206 0,-187 89,-187 89,-206"/>
<text text-anchor="middle" x="44.5" y="-194" font-family="Helvetica,sans-Serif" font-size="10.00">buttonsUpdate</text>
</a>
</g>
</g>
<!-- Node2 -->
<g id="Node000002" class="node">
<title>Node2</title>
<g id="a_Node000002"><a xlink:href="buttons_8cpp.html#a668c3b350a802edf187d6c97a61b4358" target="_top" xlink:title="Verifica la pressione simultanea dei tasti LEFT e RIGHT.">
<polygon fill="white" stroke="#666666" points="256.5,-244 133.5,-244 133.5,-225 256.5,-225 256.5,-244"/>
<text text-anchor="middle" x="195" y="-232" font-family="Helvetica,sans-Serif" font-size="10.00">checkLeftRightCombo</text>
</a>
</g>
</g>
<!-- Node1&#45;&gt;Node2 -->
<g id="edge1_Node000001_Node000002" class="edge">
<title>Node1&#45;&gt;Node2</title>
<g id="a_edge1_Node000001_Node000002"><a xlink:title=" ">
<path fill="none" stroke="#63b8ff" d="M82.97,-206.09C102.39,-211.06 126.3,-217.18 146.95,-222.46"/>
<polygon fill="#63b8ff" stroke="#63b8ff" points="146.24,-225.89 156.8,-224.98 147.98,-219.11 146.24,-225.89"/>
</a>
</g>
</g>
<!-- Node4 -->
<g id="Node000004" class="node">
<title>Node4</title>
<g id="a_Node000004"><a xlink:href="display__ui_8cpp.html#a1946154d8e9e6dd415476d3378b98ff1" target="_top" xlink:title="Disegna la schermata principale (Ambient Display). Mostra i dati meteo correnti, l&#39;ora e la data recu...">
<polygon fill="white" stroke="#666666" points="561,-282 458,-282 458,-263 561,-263 561,-282"/>
<text text-anchor="middle" x="509.5" y="-270" font-family="Helvetica,sans-Serif" font-size="10.00">drawHomeScreen</text>
</a>
</g>
</g>
<!-- Node1&#45;&gt;Node4 -->
<g id="edge14_Node000001_Node000004" class="edge">
<title>Node1&#45;&gt;Node4</title>
<g id="a_edge14_Node000001_Node000004"><a xlink:title=" ">
<path fill="none" stroke="#63b8ff" d="M55.19,-206.38C69.17,-219.87 96.46,-243.54 125,-253.5 233.72,-291.44 370.34,-286.83 447.7,-279.82"/>
<polygon fill="#63b8ff" stroke="#63b8ff" points="448.13,-283.29 457.75,-278.86 447.46,-276.32 448.13,-283.29"/>
</a>
</g>
</g>
<!-- Node7 -->
<g id="Node000007" class="node">
<title>Node7</title>
<g id="a_Node000007"><a xlink:href="display__ui_8cpp.html#a0cc779d48595c7be531222945c8a5f10" target="_top" xlink:title="Renderizza il menu principale in base allo stile selezionato (ScreenStyle).">
<polygon fill="white" stroke="#666666" points="543.5,-141 475.5,-141 475.5,-122 543.5,-122 543.5,-141"/>
<text text-anchor="middle" x="509.5" y="-129" font-family="Helvetica,sans-Serif" font-size="10.00">drawMenu</text>
</a>
</g>
</g>
<!-- Node1&#45;&gt;Node7 -->
<g id="edge18_Node000001_Node000007" class="edge">
<title>Node1&#45;&gt;Node7</title>
<g id="a_edge18_Node000001_Node000007"><a xlink:title=" ">
<path fill="none" stroke="#63b8ff" d="M89.06,-190.38C177.51,-177.97 377.25,-149.93 465.36,-137.56"/>
<polygon fill="#63b8ff" stroke="#63b8ff" points="465.87,-141.02 475.28,-136.16 464.89,-134.09 465.87,-141.02"/>
</a>
</g>
</g>
<!-- Node10 -->
<g id="Node000010" class="node">
<title>Node10</title>
<g id="a_Node000010"><a xlink:href="display__ui_8cpp.html#ab67f2470dd94c5b293ea60d38b9fae8e" target="_top" xlink:title="Renderizza la schermata dei dati GPS e temporali.">
<polygon fill="white" stroke="#666666" points="241.5,-130 148.5,-130 148.5,-111 241.5,-111 241.5,-130"/>
<text text-anchor="middle" x="195" y="-118" font-family="Helvetica,sans-Serif" font-size="10.00">drawGPSScreen</text>
</a>
</g>
</g>
<!-- Node1&#45;&gt;Node10 -->
<g id="edge11_Node000001_Node000010" class="edge">
<title>Node1&#45;&gt;Node10</title>
<g id="a_edge11_Node000001_Node000010"><a xlink:title=" ">
<path fill="none" stroke="#63b8ff" d="M58.14,-186.83C73.35,-175.52 99.99,-156.8 125,-144.5 133.44,-140.35 142.78,-136.59 151.8,-133.34"/>
<polygon fill="#63b8ff" stroke="#63b8ff" points="153.08,-136.6 161.39,-130.02 150.79,-129.98 153.08,-136.6"/>
</a>
</g>
</g>
<!-- Node12 -->
<g id="Node000012" class="node">
<title>Node12</title>
<g id="a_Node000012"><a xlink:href="display__ui_8cpp.html#a863fa83c4f8c55f3d65de3d448e88467" target="_top" xlink:title="Renderizza la schermata Info.">
<polygon fill="white" stroke="#666666" points="241,-358 149,-358 149,-339 241,-339 241,-358"/>
<text text-anchor="middle" x="195" y="-346" font-family="Helvetica,sans-Serif" font-size="10.00">drawInfoScreen</text>
</a>
</g>
</g>
<!-- Node1&#45;&gt;Node12 -->
<g id="edge15_Node000001_Node000012" class="edge">
<title>Node1&#45;&gt;Node12</title>
<g id="a_edge15_Node000001_Node000012"><a xlink:title=" ">
<path fill="none" stroke="#63b8ff" d="M48.85,-206.07C57.59,-229.67 83.33,-291.16 125,-324.5 130.26,-328.71 136.3,-332.2 142.58,-335.1"/>
<polygon fill="#63b8ff" stroke="#63b8ff" points="141.3,-338.35 151.88,-338.92 143.96,-331.88 141.3,-338.35"/>
</a>
</g>
</g>
<!-- Node14 -->
<g id="Node000014" class="node">
<title>Node14</title>
<g id="a_Node000014"><a xlink:href="display__ui_8cpp.html#ae8a9d818fdd539d4b669b43222987fc7" target="_top" xlink:title="Renderizza la schermata dettagliata del Meteo.">
<polygon fill="white" stroke="#666666" points="561.5,-207 457.5,-207 457.5,-188 561.5,-188 561.5,-207"/>
<text text-anchor="middle" x="509.5" y="-195" font-family="Helvetica,sans-Serif" font-size="10.00">drawMeteoScreen</text>
</a>
</g>
</g>
<!-- Node1&#45;&gt;Node14 -->
<g id="edge19_Node000001_Node000014" class="edge">
<title>Node1&#45;&gt;Node14</title>
<g id="a_edge19_Node000001_Node000014"><a xlink:title=" ">
<path fill="none" stroke="#63b8ff" d="M89.06,-196.59C171.92,-196.77 352.43,-197.16 447.35,-197.37"/>
<polygon fill="#63b8ff" stroke="#63b8ff" points="447.37,-200.87 457.38,-197.39 447.39,-193.87 447.37,-200.87"/>
</a>
</g>
</g>
<!-- Node17 -->
<g id="Node000017" class="node">
<title>Node17</title>
<g id="a_Node000017"><a xlink:href="display__ui_8cpp.html#a14c5649f6c7cf2ce771664a9d9fb7490" target="_top" xlink:title="Disegna la schermata dei dati GPS in tempo reale. Mostra coordinate, qualità del fix e numero di sate...">
<polygon fill="white" stroke="#666666" points="414,-339 301,-339 301,-320 414,-320 414,-339"/>
<text text-anchor="middle" x="357.5" y="-327" font-family="Helvetica,sans-Serif" font-size="10.00">drawSettingsScreen</text>
</a>
</g>
</g>
<!-- Node1&#45;&gt;Node17 -->
<g id="edge24_Node000001_Node000017" class="edge">
<title>Node1&#45;&gt;Node17</title>
<g id="a_edge24_Node000001_Node000017"><a xlink:title=" ">
<path fill="none" stroke="#63b8ff" d="M51.04,-206.27C62.3,-225.16 89.81,-266.56 125,-286.5 175.8,-315.28 241.99,-325.33 290.57,-328.59"/>
<polygon fill="#63b8ff" stroke="#63b8ff" points="290.47,-332.09 300.66,-329.19 290.88,-325.11 290.47,-332.09"/>
</a>
</g>
</g>
<!-- Node18 -->
<g id="Node000018" class="node">
<title>Node18</title>
<g id="a_Node000018"><a xlink:href="display__ui_8cpp.html#a373a756ed10c316c735042c6aa4807cc" target="_top" xlink:title="Renderizza la schermata System.">
<polygon fill="white" stroke="#666666" points="250,-395 140,-395 140,-376 250,-376 250,-395"/>
<text text-anchor="middle" x="195" y="-383" font-family="Helvetica,sans-Serif" font-size="10.00">drawSystemScreen</text>
</a>
</g>
</g>
<!-- Node1&#45;&gt;Node18 -->
<g id="edge26_Node000001_Node000018" class="edge">
<title>Node1&#45;&gt;Node18</title>
<g id="a_edge26_Node000001_Node000018"><a xlink:title=" ">
<path fill="none" stroke="#63b8ff" d="M47.09,-206.39C52.35,-235.77 71.96,-323.24 125,-367.5 126.78,-368.98 128.66,-370.34 130.63,-371.59"/>
<polygon fill="#63b8ff" stroke="#63b8ff" points="129.23,-374.82 139.71,-376.4 132.51,-368.63 129.23,-374.82"/>
</a>
</g>
</g>
<!-- Node19 -->
<g id="Node000019" class="node">
<title>Node19</title>
<g id="a_Node000019"><a xlink:href="leds_8cpp.html#a9c4cbf122cf8fe3ce3a4e9913c366bda" target="_top" xlink:title="Fornisce un feedback visivo durante la navigazione dei menu.">
<polygon fill="white" stroke="#666666" points="265,-19 125,-19 125,0 265,0 265,-19"/>
<text text-anchor="middle" x="195" y="-7" font-family="Helvetica,sans-Serif" font-size="10.00">ledsNavigationAnimation</text>
</a>
</g>
</g>
<!-- Node1&#45;&gt;Node19 -->
<g id="edge28_Node000001_Node000019" class="edge">
<title>Node1&#45;&gt;Node19</title>
<g id="a_edge28_Node000001_Node000019"><a xlink:title=" ">
<path fill="none" stroke="#63b8ff" d="M47.13,-186.72C52.49,-157.68 72.37,-71.21 125,-27.5 126.54,-26.22 128.15,-25.04 129.83,-23.94"/>
<polygon fill="#63b8ff" stroke="#63b8ff" points="131.6,-26.96 138.69,-19.08 128.24,-20.82 131.6,-26.96"/>
</a>
</g>
</g>
<!-- Node20 -->
<g id="Node000020" class="node">
<title>Node20</title>
<g id="a_Node000020"><a xlink:href="gps_8cpp.html#aab2203af6c50eafde7df9509bc632fa6" target="_top" xlink:title="Salva le ultime coordinate valide in un file di testo (modalità overwrite).">
<polygon fill="white" stroke="#666666" points="238,-56 152,-56 152,-37 238,-37 238,-56"/>
<text text-anchor="middle" x="195" y="-44" font-family="Helvetica,sans-Serif" font-size="10.00">save_gps_last</text>
</a>
</g>
</g>
<!-- Node1&#45;&gt;Node20 -->
<g id="edge29_Node000001_Node000020" class="edge">
<title>Node1&#45;&gt;Node20</title>
<g id="a_edge29_Node000001_Node000020"><a xlink:title=" ">
<path fill="none" stroke="#63b8ff" d="M48.48,-186.78C56.52,-162.23 81.08,-97.34 125,-64.5 130.14,-60.66 136.03,-57.63 142.15,-55.25"/>
<polygon fill="#63b8ff" stroke="#63b8ff" points="143.5,-58.49 151.89,-52.02 141.3,-51.85 143.5,-58.49"/>
</a>
</g>
</g>
<!-- Node21 -->
<g id="Node000021" class="node">
<title>Node21</title>
<g id="a_Node000021"><a xlink:href="gps_8cpp.html#a0d11d3ae385799665b8808639a2d3725" target="_top" xlink:title="Implementa un log rotativo (circular buffer) delle ultime 20 posizioni.">
<polygon fill="white" stroke="#666666" points="242.5,-93 147.5,-93 147.5,-74 242.5,-74 242.5,-93"/>
<text text-anchor="middle" x="195" y="-81" font-family="Helvetica,sans-Serif" font-size="10.00">save_gps_log20</text>
</a>
</g>
</g>
<!-- Node1&#45;&gt;Node21 -->
<g id="edge31_Node000001_Node000021" class="edge">
<title>Node1&#45;&gt;Node21</title>
<g id="a_edge31_Node000001_Node000021"><a xlink:title=" ">
<path fill="none" stroke="#63b8ff" d="M50.86,-186.71C61.99,-167.31 89.57,-123.94 125,-101.5 129.04,-98.94 133.42,-96.75 137.97,-94.86"/>
<polygon fill="#63b8ff" stroke="#63b8ff" points="139.24,-98.13 147.44,-91.42 136.84,-91.55 139.24,-98.13"/>
</a>
</g>
</g>
<!-- Node3 -->
<g id="Node000003" class="node">
<title>Node3</title>
<g id="a_Node000003"><a xlink:href="buttons_8cpp.html#a476aa2a0a9fd2be3bedddd06747816c4" target="_top" xlink:title="Azione eseguita al rilevamento della combo LEFT+RIGHT. Esegue il toggle tra modalità Home (Ambient) e...">
<polygon fill="white" stroke="#666666" points="411,-244 304,-244 304,-225 411,-225 411,-244"/>
<text text-anchor="middle" x="357.5" y="-232" font-family="Helvetica,sans-Serif" font-size="10.00">onLeftRightCombo</text>
</a>
</g>
</g>
<!-- Node2&#45;&gt;Node3 -->
<g id="edge2_Node000002_Node000003" class="edge">
<title>Node2&#45;&gt;Node3</title>
<g id="a_edge2_Node000002_Node000003"><a xlink:title=" ">
<path fill="none" stroke="#63b8ff" d="M256.68,-234.5C268.81,-234.5 281.59,-234.5 293.79,-234.5"/>
<polygon fill="#63b8ff" stroke="#63b8ff" points="293.88,-238 303.88,-234.5 293.88,-231 293.88,-238"/>
</a>
</g>
</g>
<!-- Node3&#45;&gt;Node4 -->
<g id="edge3_Node000003_Node000004" class="edge">
<title>Node3&#45;&gt;Node4</title>
<g id="a_edge3_Node000003_Node000004"><a xlink:title=" ">
<path fill="none" stroke="#63b8ff" d="M396.35,-244.09C415.97,-249.06 440.12,-255.18 460.98,-260.46"/>
<polygon fill="#63b8ff" stroke="#63b8ff" points="460.37,-263.92 470.92,-262.98 462.09,-257.13 460.37,-263.92"/>
</a>
</g>
</g>
<!-- Node3&#45;&gt;Node7 -->
<g id="edge6_Node000003_Node000007" class="edge">
<title>Node3&#45;&gt;Node7</title>
<g id="a_edge6_Node000003_Node000007"><a xlink:title=" ">
<path fill="none" stroke="#63b8ff" d="M372.34,-224.99C398.22,-207.23 454.15,-168.82 485.68,-147.17"/>
<polygon fill="#63b8ff" stroke="#63b8ff" points="487.99,-149.83 494.25,-141.28 484.03,-144.06 487.99,-149.83"/>
</a>
</g>
</g>
<!-- Node9 -->
<g id="Node000009" class="node">
<title>Node9</title>
<g id="a_Node000009"><a xlink:href="leds_8cpp.html#a20b9a2822d58fc522e9aef69e6e52cbe" target="_top" xlink:title="Esegue un flash verde per confermare un&#39;azione (Toggle).">
<polygon fill="white" stroke="#666666" points="569,-244 450,-244 450,-225 569,-225 569,-244"/>
<text text-anchor="middle" x="509.5" y="-232" font-family="Helvetica,sans-Serif" font-size="10.00">ledsToggleAnimation</text>
</a>
</g>
</g>
<!-- Node3&#45;&gt;Node9 -->
<g id="edge10_Node000003_Node000009" class="edge">
<title>Node3&#45;&gt;Node9</title>
<g id="a_edge10_Node000003_Node000009"><a xlink:title=" ">
<path fill="none" stroke="#63b8ff" d="M411.38,-234.5C420.55,-234.5 430.2,-234.5 439.72,-234.5"/>
<polygon fill="#63b8ff" stroke="#63b8ff" points="439.97,-238 449.97,-234.5 439.97,-231 439.97,-238"/>
</a>
</g>
</g>
<!-- Node5 -->
<g id="Node000005" class="node">
<title>Node5</title>
<g id="a_Node000005"><a xlink:href="display__ui_8cpp.html#ab460e1bb5537313cb79cfffa7e93c58b" target="_top" xlink:title="Istanza del driver del display SSD1306.">
<polygon fill="white" stroke="#666666" points="836,-245 784,-245 784,-226 836,-226 836,-245"/>
<text text-anchor="middle" x="810" y="-233" font-family="Helvetica,sans-Serif" font-size="10.00">display</text>
</a>
</g>
</g>
<!-- Node4&#45;&gt;Node5 -->
<g id="edge4_Node000004_Node000005" class="edge">
<title>Node4&#45;&gt;Node5</title>
<g id="a_edge4_Node000004_Node000005"><a xlink:title=" ">
<path fill="none" stroke="#63b8ff" d="M536.55,-282.03C581.47,-296.88 675.64,-321.05 748,-292.5 767.91,-284.65 785.14,-266.89 796.17,-253.27"/>
<polygon fill="#63b8ff" stroke="#63b8ff" points="799.16,-255.12 802.48,-245.06 793.61,-250.85 799.16,-255.12"/>
</a>
</g>
</g>
<!-- Node6 -->
<g id="Node000006" class="node">
<title>Node6</title>
<g id="a_Node000006"><a xlink:href="weather_8cpp.html#a8e2b5c9b7658529d8dae9d6ea9d56de7" target="_top" xlink:title="Converte il codice WMO in una descrizione testuale breve.">
<polygon fill="white" stroke="#666666" points="748,-283 605,-283 605,-264 748,-264 748,-283"/>
<text text-anchor="middle" x="676.5" y="-271" font-family="Helvetica,sans-Serif" font-size="10.00">Weather_CodeToShortText</text>
</a>
</g>
</g>
<!-- Node4&#45;&gt;Node6 -->
<g id="edge5_Node000004_Node000006" class="edge">
<title>Node4&#45;&gt;Node6</title>
<g id="a_edge5_Node000004_Node000006"><a xlink:title=" ">
<path fill="none" stroke="#63b8ff" d="M561.35,-272.81C571.86,-272.87 583.18,-272.94 594.47,-273.01"/>
<polygon fill="#63b8ff" stroke="#63b8ff" points="594.77,-276.51 604.79,-273.07 594.82,-269.51 594.77,-276.51"/>
</a>
</g>
</g>
<!-- Node7&#45;&gt;Node5 -->
<g id="edge7_Node000007_Node000005" class="edge">
<title>Node7&#45;&gt;Node5</title>
<g id="a_edge7_Node000007_Node000005"><a xlink:title=" ">
<path fill="none" stroke="#63b8ff" d="M543.81,-123.88C592.28,-114.69 683.48,-104.68 748,-141.5 776.73,-157.9 794.21,-193.99 802.71,-216.38"/>
<polygon fill="#63b8ff" stroke="#63b8ff" points="799.43,-217.6 806.08,-225.85 806.02,-215.26 799.43,-217.6"/>
</a>
</g>
</g>
<!-- Node8 -->
<g id="Node000008" class="node">
<title>Node8</title>
<g id="a_Node000008"><a xlink:href="display__ui_8cpp.html#a4720a85c38264632abe90b06cd0a878a" target="_top" xlink:title="Renderizza il menu in modalità &quot;Highlight&quot; (barra piena e testo invertito).">
<polygon fill="white" stroke="#666666" points="720.5,-94 632.5,-94 632.5,-75 720.5,-75 720.5,-94"/>
<text text-anchor="middle" x="676.5" y="-82" font-family="Helvetica,sans-Serif" font-size="10.00">drawMenu_evi</text>
</a>
</g>
</g>
<!-- Node7&#45;&gt;Node8 -->
<g id="edge8_Node000007_Node000008" class="edge">
<title>Node7&#45;&gt;Node8</title>
<g id="a_edge8_Node000007_Node000008"><a xlink:title=" ">
<path fill="none" stroke="#63b8ff" d="M543.89,-121.99C569.3,-114.75 604.49,-104.73 632.08,-96.87"/>
<polygon fill="#63b8ff" stroke="#63b8ff" points="633.22,-100.18 641.88,-94.08 631.3,-93.45 633.22,-100.18"/>
</a>
</g>
</g>
<!-- Node8&#45;&gt;Node5 -->
<g id="edge9_Node000008_Node000005" class="edge">
<title>Node8&#45;&gt;Node5</title>
<g id="a_edge9_Node000008_Node000005"><a xlink:title=" ">
<path fill="none" stroke="#63b8ff" d="M720.68,-93.2C730.48,-96.72 740.26,-101.64 748,-108.5 780.79,-137.59 797.57,-188.19 804.68,-215.93"/>
<polygon fill="#63b8ff" stroke="#63b8ff" points="801.28,-216.75 807.02,-225.66 808.08,-215.12 801.28,-216.75"/>
</a>
</g>
</g>
<!-- Node10&#45;&gt;Node5 -->
<g id="edge12_Node000010_Node000005" class="edge">
<title>Node10&#45;&gt;Node5</title>
<g id="a_edge12_Node000010_Node000005"><a xlink:title=" ">
<path fill="none" stroke="#63b8ff" d="M231.92,-110.98C340.74,-83.03 664.51,-6.76 748,-65.5 797.29,-100.18 806.95,-178.61 808.71,-215.55"/>
<polygon fill="#63b8ff" stroke="#63b8ff" points="805.22,-216.09 809.04,-225.98 812.22,-215.87 805.22,-216.09"/>
</a>
</g>
</g>
<!-- Node11 -->
<g id="Node000011" class="node">
<title>Node11</title>
<g id="a_Node000011"><a xlink:href="minmea_8h.html#a82cdc79749798023b4a1952faf84f1ca" target="_top" xlink:title=" ">
<polygon fill="white" stroke="#666666" points="407,-56 308,-56 308,-37 407,-37 407,-56"/>
<text text-anchor="middle" x="357.5" y="-44" font-family="Helvetica,sans-Serif" font-size="10.00">minmea_tocoord</text>
</a>
</g>
</g>
<!-- Node10&#45;&gt;Node11 -->
<g id="edge13_Node000010_Node000011" class="edge">
<title>Node10&#45;&gt;Node11</title>
<g id="a_edge13_Node000010_Node000011"><a xlink:title=" ">
<path fill="none" stroke="#63b8ff" d="M241.65,-111.01C249.67,-108.49 257.76,-105.36 265,-101.5 283.63,-91.57 283.11,-81.71 301,-70.5 307.04,-66.72 313.77,-63.26 320.41,-60.21"/>
<polygon fill="#63b8ff" stroke="#63b8ff" points="322.21,-63.25 329.98,-56.05 319.42,-56.83 322.21,-63.25"/>
</a>
</g>
</g>
<!-- Node13 -->
<g id="Node000013" class="node">
<title>Node13</title>
<g id="a_Node000013"><a xlink:href="display__ui_8cpp.html#ab52c20747552f9ca473a8074aa0df6f5" target="_top" xlink:title="Schermata generica per le voci di menu non ancora implementate.">
<polygon fill="white" stroke="#666666" points="399,-395 316,-395 316,-376 399,-376 399,-395"/>
<text text-anchor="middle" x="357.5" y="-383" font-family="Helvetica,sans-Serif" font-size="10.00">drawSelected</text>
</a>
</g>
</g>
<!-- Node12&#45;&gt;Node13 -->
<g id="edge16_Node000012_Node000013" class="edge">
<title>Node12&#45;&gt;Node13</title>
<g id="a_edge16_Node000012_Node000013"><a xlink:title=" ">
<path fill="none" stroke="#63b8ff" d="M237.33,-358.03C258.27,-362.86 283.88,-368.76 305.98,-373.85"/>
<polygon fill="#63b8ff" stroke="#63b8ff" points="305.33,-377.3 315.86,-376.13 306.9,-370.47 305.33,-377.3"/>
</a>
</g>
</g>
<!-- Node13&#45;&gt;Node5 -->
<g id="edge17_Node000013_Node000005" class="edge">
<title>Node13&#45;&gt;Node5</title>
<g id="a_edge17_Node000013_Node000005"><a xlink:title=" ">
<path fill="none" stroke="#63b8ff" d="M399.22,-392.61C474.83,-403.52 639.14,-416.25 748,-344.5 779.7,-323.61 796.57,-280.3 804.07,-255.02"/>
<polygon fill="#63b8ff" stroke="#63b8ff" points="807.52,-255.68 806.8,-245.11 800.77,-253.82 807.52,-255.68"/>
</a>
</g>
</g>
<!-- Node14&#45;&gt;Node5 -->
<g id="edge21_Node000014_Node000005" class="edge">
<title>Node14&#45;&gt;Node5</title>
<g id="a_edge21_Node000014_Node000005"><a xlink:title=" ">
<path fill="none" stroke="#63b8ff" d="M556.02,-207.03C571.51,-210.05 588.97,-213.19 605,-215.5 663.85,-223.97 732.77,-229.9 773.56,-233"/>
<polygon fill="#63b8ff" stroke="#63b8ff" points="773.55,-236.51 783.79,-233.77 774.08,-229.53 773.55,-236.51"/>
</a>
</g>
</g>
<!-- Node14&#45;&gt;Node6 -->
<g id="edge22_Node000014_Node000006" class="edge">
<title>Node14&#45;&gt;Node6</title>
<g id="a_edge22_Node000014_Node000006"><a xlink:title=" ">
<path fill="none" stroke="#63b8ff" d="M550.25,-207.02C556.74,-209.33 563.22,-212.13 569,-215.5 588.01,-226.58 586.15,-238.14 605,-249.5 612.09,-253.77 620.03,-257.41 627.97,-260.46"/>
<polygon fill="#63b8ff" stroke="#63b8ff" points="626.99,-263.82 637.58,-263.89 629.34,-257.23 626.99,-263.82"/>
</a>
</g>
</g>
<!-- Node15 -->
<g id="Node000015" class="node">
<title>Node15</title>
<g id="a_Node000015"><a xlink:href="display__ui_8cpp.html#a640ebbdef8018c8e91e8661db6c9bb36" target="_top" xlink:title="Verifica se sono disponibili dati meteo per il giorno specificato.">
<polygon fill="white" stroke="#666666" points="724,-170 629,-170 629,-151 724,-151 724,-170"/>
<text text-anchor="middle" x="676.5" y="-158" font-family="Helvetica,sans-Serif" font-size="10.00">dayHasForecast</text>
</a>
</g>
</g>
<!-- Node14&#45;&gt;Node15 -->
<g id="edge20_Node000014_Node000015" class="edge">
<title>Node14&#45;&gt;Node15</title>
<g id="a_edge20_Node000014_Node000015"><a xlink:title=" ">
<path fill="none" stroke="#63b8ff" d="M552.99,-187.97C574.37,-183.18 600.47,-177.32 623.08,-172.25"/>
<polygon fill="#63b8ff" stroke="#63b8ff" points="623.87,-175.66 632.87,-170.06 622.34,-168.83 623.87,-175.66"/>
</a>
</g>
</g>
<!-- Node16 -->
<g id="Node000016" class="node">
<title>Node16</title>
<g id="a_Node000016"><a xlink:href="weather_8cpp.html#a51d541fdbe1af3ec8d12cdddd643a1b8" target="_top" xlink:title="Restituisce il nome abbreviato del giorno della settimana.">
<polygon fill="white" stroke="#666666" points="745,-207 608,-207 608,-188 745,-188 745,-207"/>
<text text-anchor="middle" x="676.5" y="-195" font-family="Helvetica,sans-Serif" font-size="10.00">Weather_WeekdayName</text>
</a>
</g>
</g>
<!-- Node14&#45;&gt;Node16 -->
<g id="edge23_Node000014_Node000016" class="edge">
<title>Node14&#45;&gt;Node16</title>
<g id="a_edge23_Node000014_Node000016"><a xlink:title=" ">
<path fill="none" stroke="#63b8ff" d="M561.8,-197.5C573.18,-197.5 585.5,-197.5 597.67,-197.5"/>
<polygon fill="#63b8ff" stroke="#63b8ff" points="597.84,-201 607.84,-197.5 597.84,-194 597.84,-201"/>
</a>
</g>
</g>
<!-- Node17&#45;&gt;Node5 -->
<g id="edge25_Node000017_Node000005" class="edge">
<title>Node17&#45;&gt;Node5</title>
<g id="a_edge25_Node000017_Node000005"><a xlink:title=" ">
<path fill="none" stroke="#63b8ff" d="M403.57,-339.01C479.41,-352.61 635.28,-370.07 748,-312.5 772.59,-299.94 790.48,-272.47 800.3,-253.97"/>
<polygon fill="#63b8ff" stroke="#63b8ff" points="803.44,-255.51 804.81,-245.01 797.19,-252.37 803.44,-255.51"/>
</a>
</g>
</g>
<!-- Node18&#45;&gt;Node13 -->
<g id="edge27_Node000018_Node000013" class="edge">
<title>Node18&#45;&gt;Node13</title>
<g id="a_edge27_Node000018_Node000013"><a xlink:title=" ">
<path fill="none" stroke="#63b8ff" d="M250.34,-385.5C268.28,-385.5 288.16,-385.5 305.81,-385.5"/>
<polygon fill="#63b8ff" stroke="#63b8ff" points="305.92,-389 315.92,-385.5 305.92,-382 305.92,-389"/>
</a>
</g>
</g>
<!-- Node20&#45;&gt;Node11 -->
<g id="edge30_Node000020_Node000011" class="edge">
<title>Node20&#45;&gt;Node11</title>
<g id="a_edge30_Node000020_Node000011"><a xlink:title=" ">
<path fill="none" stroke="#63b8ff" d="M238.17,-46.5C256.36,-46.5 277.95,-46.5 297.68,-46.5"/>
<polygon fill="#63b8ff" stroke="#63b8ff" points="297.79,-50 307.79,-46.5 297.79,-43 297.79,-50"/>
</a>
</g>
</g>
<!-- Node21&#45;&gt;Node11 -->
<g id="edge32_Node000021_Node000011" class="edge">
<title>Node21&#45;&gt;Node11</title>
<g id="a_edge32_Node000021_Node000011"><a xlink:title=" ">
<path fill="none" stroke="#63b8ff" d="M237.33,-73.97C258.03,-69.2 283.29,-63.38 305.22,-58.32"/>
<polygon fill="#63b8ff" stroke="#63b8ff" points="306.07,-61.72 315.03,-56.06 304.5,-54.9 306.07,-61.72"/>
</a>
</g>
</g>
</g>
</svg>
