<?xml version="1.0" encoding="UTF-8" standalone="no"?>
<!DOCTYPE svg PUBLIC "-//W3C//DTD SVG 1.1//EN"
 "http://www.w3.org/Graphics/SVG/1.1/DTD/svg11.dtd">
<!-- Generated by graphviz version 2.43.0 (0)
 -->
<!-- Title: drawMeteoScreen Pages: 1 -->
<svg width="291pt" height="138pt"
 viewBox="0.00 0.00 291.00 138.00" xmlns="http://www.w3.org/2000/svg" xmlns:xlink="http://www.w3.org/1999/xlink">

<svg id="main" version="1.1" xmlns="http://www.w3.org/2000/svg" xmlns:xlink="http://www.w3.org/1999/xlink" xml:space="preserve" onload="init(evt)">
<style type="text/css"><![CDATA[
.node, .edge {opacity: 0.7;}
.node.selected, .edge.selected {opacity: 1;}
.edge:hover path { stroke: red; }
.edge:hover polygon { stroke: red; fill: red; }
]]></style>
<script type="application/ecmascript" xlink:href="svg.min.js"/>
<svg id="graph" class="graph">
<g id="graph0" class="graph" transform="scale(1 1) rotate(0) translate(4 134)">
<title>drawMeteoScreen</title>
<!-- Node1 -->
<g id="Node000001" class="node">
<title>Node1</title>
<g id="a_Node000001"><a xlink:title="Renderizza la schermata dettagliata delle previsioni meteo.">
<polygon fill="#999999" stroke="#666666" points="104,-74 0,-74 0,-55 104,-55 104,-74"/>
<text text-anchor="middle" x="52" y="-62" font-family="Helvetica,sans-Serif" font-size="10.00">drawMeteoScreen</text>
</a>
</g>
</g>
<!-- Node2 -->
<g id="Node000002" class="node">
<title>Node2</title>
<g id="a_Node000002"><a xlink:href="display__ui_8cpp.html#a640ebbdef8018c8e91e8661db6c9bb36" target="_top" xlink:title="Verifica se sono disponibili dati meteo per il giorno specificato.">
<polygon fill="white" stroke="#666666" points="259,-130 164,-130 164,-111 259,-111 259,-130"/>
<text text-anchor="middle" x="211.5" y="-118" font-family="Helvetica,sans-Serif" font-size="10.00">dayHasForecast</text>
</a>
</g>
</g>
<!-- Node1&#45;&gt;Node2 -->
<g id="edge1_Node000001_Node000002" class="edge">
<title>Node1&#45;&gt;Node2</title>
<g id="a_edge1_Node000001_Node000002"><a xlink:title=" ">
<path fill="none" stroke="#63b8ff" d="M72.34,-74.03C89.73,-82.33 116.15,-94.31 140,-102.5 145.96,-104.55 152.27,-106.48 158.57,-108.26"/>
<polygon fill="#63b8ff" stroke="#63b8ff" points="157.85,-111.69 168.42,-110.94 159.69,-104.94 157.85,-111.69"/>
</a>
</g>
</g>
<!-- Node3 -->
<g id="Node000003" class="node">
<title>Node3</title>
<g id="a_Node000003"><a xlink:href="display__ui_8cpp.html#ab460e1bb5537313cb79cfffa7e93c58b" target="_top" xlink:title="Istanza del driver del display SSD1306.">
<polygon fill="white" stroke="#666666" points="237.5,-93 185.5,-93 185.5,-74 237.5,-74 237.5,-93"/>
<text text-anchor="middle" x="211.5" y="-81" font-family="Helvetica,sans-Serif" font-size="10.00">display</text>
</a>
</g>
</g>
<!-- Node1&#45;&gt;Node3 -->
<g id="edge2_Node000001_Node000003" class="edge">
<title>Node1&#45;&gt;Node3</title>
<g id="a_edge2_Node000001_Node000003"><a xlink:title=" ">
<path fill="none" stroke="#63b8ff" d="M104.14,-70.67C127.34,-73.47 154.21,-76.71 175.14,-79.23"/>
<polygon fill="#63b8ff" stroke="#63b8ff" points="174.84,-82.72 185.19,-80.45 175.68,-75.77 174.84,-82.72"/>
</a>
</g>
</g>
<!-- Node4 -->
<g id="Node000004" class="node">
<title>Node4</title>
<g id="a_Node000004"><a xlink:href="weather_8cpp.html#a8e2b5c9b7658529d8dae9d6ea9d56de7" target="_top" xlink:title="Converte il codice WMO in una descrizione testuale breve.">
<polygon fill="white" stroke="#666666" points="283,-56 140,-56 140,-37 283,-37 283,-56"/>
<text text-anchor="middle" x="211.5" y="-44" font-family="Helvetica,sans-Serif" font-size="10.00">Weather_CodeToShortText</text>
</a>
</g>
</g>
<!-- Node1&#45;&gt;Node4 -->
<g id="edge3_Node000001_Node000004" class="edge">
<title>Node1&#45;&gt;Node4</title>
<g id="a_edge3_Node000001_Node000004"><a xlink:title=" ">
<path fill="none" stroke="#63b8ff" d="M104.14,-58.66C112.33,-57.72 120.99,-56.73 129.68,-55.74"/>
<polygon fill="#63b8ff" stroke="#63b8ff" points="130.33,-59.18 139.87,-54.57 129.54,-52.23 130.33,-59.18"/>
</a>
</g>
</g>
<!-- Node5 -->
<g id="Node000005" class="node">
<title>Node5</title>
<g id="a_Node000005"><a xlink:href="weather_8cpp.html#a51d541fdbe1af3ec8d12cdddd643a1b8" target="_top" xlink:title="Restituisce il nome abbreviato del giorno della settimana.">
<polygon fill="white" stroke="#666666" points="280,-19 143,-19 143,0 280,0 280,-19"/>
<text text-anchor="middle" x="211.5" y="-7" font-family="Helvetica,sans-Serif" font-size="10.00">Weather_WeekdayName</text>
</a>
</g>
</g>
<!-- Node1&#45;&gt;Node5 -->
<g id="edge4_Node000001_Node000005" class="edge">
<title>Node1&#45;&gt;Node5</title>
<g id="a_edge4_Node000001_Node000005"><a xlink:title=" ">
<path fill="none" stroke="#63b8ff" d="M73.81,-55C91.25,-47.25 116.94,-36.34 140,-28.5 146.93,-26.14 154.32,-23.88 161.61,-21.8"/>
<polygon fill="#63b8ff" stroke="#63b8ff" points="162.75,-25.11 171.44,-19.06 160.87,-18.37 162.75,-25.11"/>
</a>
</g>
</g>
</g>
</svg>
</svg>

<style type='text/css'>
<![CDATA[
[data-mouse-over-selected='false'] { opacity: 0.7; }
[data-mouse-over-selected='true']  { opacity: 1.0; }
]]>
</style>
<script type="application/ecmascript"><![CDATA[
document.addEventListener('DOMContentLoaded', (event) => {
  highlightEdges();
  highlightAdjacentNodes();
});
]]></script>
</svg>
