<?xml version="1.0" encoding="UTF-8" standalone="no"?>
<!DOCTYPE svg PUBLIC "-//W3C//DTD SVG 1.1//EN"
 "http://www.w3.org/Graphics/SVG/1.1/DTD/svg11.dtd">
<!-- Generated by graphviz version 2.43.0 (0)
 -->
<!-- Title: src/Modules/display_ui.cpp Pages: 1 -->
<svg width="1164pt" height="313pt"
 viewBox="0.00 0.00 1163.96 313.00" xmlns="http://www.w3.org/2000/svg" xmlns:xlink="http://www.w3.org/1999/xlink">
<g id="graph0" class="graph" transform="scale(1 1) rotate(0) translate(4 309)">
<title>src/Modules/display_ui.cpp</title>
<!-- Node1 -->
<g id="Node000001" class="node">
<title>Node1</title>
<g id="a_Node000001"><a xlink:title=" ">
<polygon fill="#999999" stroke="#666666" points="394.96,-305 281.96,-305 281.96,-275 394.96,-275 394.96,-305"/>
<text text-anchor="start" x="289.96" y="-293" font-family="Helvetica,sans-Serif" font-size="10.00">src/Modules/display</text>
<text text-anchor="middle" x="338.46" y="-282" font-family="Helvetica,sans-Serif" font-size="10.00">_ui.cpp</text>
</a>
</g>
</g>
<!-- Node2 -->
<g id="Node000002" class="node">
<title>Node2</title>
<g id="a_Node000002"><a xlink:href="display__ui_8h.html" target="_top" xlink:title=" ">
<polygon fill="white" stroke="#666666" points="375.96,-239 300.96,-239 300.96,-220 375.96,-220 375.96,-239"/>
<text text-anchor="middle" x="338.46" y="-227" font-family="Helvetica,sans-Serif" font-size="10.00">display_ui.h</text>
</a>
</g>
</g>
<!-- Node1&#45;&gt;Node2 -->
<g id="edge1_Node000001_Node000002" class="edge">
<title>Node1&#45;&gt;Node2</title>
<g id="a_edge1_Node000001_Node000002"><a xlink:title=" ">
<path fill="none" stroke="#63b8ff" d="M338.46,-274.84C338.46,-267.21 338.46,-257.7 338.46,-249.45"/>
<polygon fill="#63b8ff" stroke="#63b8ff" points="341.96,-249.27 338.46,-239.27 334.96,-249.27 341.96,-249.27"/>
</a>
</g>
</g>
<!-- Node9 -->
<g id="Node000009" class="node">
<title>Node9</title>
<g id="a_Node000009"><a xlink:href="gps_8h.html" target="_top" xlink:title=" ">
<polygon fill="white" stroke="#666666" points="623.96,-129 580.96,-129 580.96,-110 623.96,-110 623.96,-129"/>
<text text-anchor="middle" x="602.46" y="-117" font-family="Helvetica,sans-Serif" font-size="10.00">gps.h</text>
</a>
</g>
</g>
<!-- Node1&#45;&gt;Node9 -->
<g id="edge38_Node000001_Node000009" class="edge">
<title>Node1&#45;&gt;Node9</title>
<g id="a_edge38_Node000001_Node000009"><a xlink:title=" ">
<path fill="none" stroke="#63b8ff" d="M395.07,-280.02C451.75,-268.03 537.4,-241.25 586.46,-184 596.98,-171.73 600.75,-153.5 602.02,-139.71"/>
<polygon fill="#63b8ff" stroke="#63b8ff" points="605.53,-139.59 602.6,-129.41 598.55,-139.2 605.53,-139.59"/>
</a>
</g>
</g>
<!-- Node26 -->
<g id="Node000026" class="node">
<title>Node26</title>
<g id="a_Node000026"><a xlink:href="weather_8h.html" target="_top" xlink:title=" ">
<polygon fill="white" stroke="#666666" points="160.96,-239 95.96,-239 95.96,-220 160.96,-220 160.96,-239"/>
<text text-anchor="middle" x="128.46" y="-227" font-family="Helvetica,sans-Serif" font-size="10.00">weather.h</text>
</a>
</g>
</g>
<!-- Node1&#45;&gt;Node26 -->
<g id="edge36_Node000001_Node000026" class="edge">
<title>Node1&#45;&gt;Node26</title>
<g id="a_edge36_Node000001_Node000026"><a xlink:title=" ">
<path fill="none" stroke="#63b8ff" d="M288.16,-274.99C251.76,-264.85 203.2,-251.32 169.21,-241.85"/>
<polygon fill="#63b8ff" stroke="#63b8ff" points="169.74,-238.37 159.17,-239.05 167.86,-245.11 169.74,-238.37"/>
</a>
</g>
</g>
<!-- Node3 -->
<g id="Node000003" class="node">
<title>Node3</title>
<g id="a_Node000003"><a xlink:href="buttons_8h.html" target="_top" xlink:title=" ">
<polygon fill="white" stroke="#666666" points="447.46,-184 385.46,-184 385.46,-165 447.46,-165 447.46,-184"/>
<text text-anchor="middle" x="416.46" y="-172" font-family="Helvetica,sans-Serif" font-size="10.00">buttons.h</text>
</a>
</g>
</g>
<!-- Node2&#45;&gt;Node3 -->
<g id="edge2_Node000002_Node000003" class="edge">
<title>Node2&#45;&gt;Node3</title>
<g id="a_edge2_Node000002_Node000003"><a xlink:title=" ">
<path fill="none" stroke="#63b8ff" d="M345.88,-219.98C356.16,-211.77 374.38,-199.18 389.85,-189.49"/>
<polygon fill="#63b8ff" stroke="#63b8ff" points="391.84,-192.37 398.55,-184.17 388.19,-186.39 391.84,-192.37"/>
</a>
</g>
</g>
<!-- Node4 -->
<g id="Node000004" class="node">
<title>Node4</title>
<g id="a_Node000004"><a xlink:title=" ">
<polygon fill="#e0e0e0" stroke="#999999" points="316.96,-74 253.96,-74 253.96,-55 316.96,-55 316.96,-74"/>
<text text-anchor="middle" x="285.46" y="-62" font-family="Helvetica,sans-Serif" font-size="10.00">Arduino.h</text>
</a>
</g>
</g>
<!-- Node2&#45;&gt;Node4 -->
<g id="edge31_Node000002_Node000004" class="edge">
<title>Node2&#45;&gt;Node4</title>
<g id="a_edge31_Node000002_Node000004"><a xlink:title=" ">
<path fill="none" stroke="#63b8ff" d="M335.61,-219.74C327.31,-194.2 303,-119.43 291.55,-84.23"/>
<polygon fill="#63b8ff" stroke="#63b8ff" points="294.74,-82.73 288.32,-74.31 288.09,-84.9 294.74,-82.73"/>
</a>
</g>
</g>
<!-- Node7 -->
<g id="Node000007" class="node">
<title>Node7</title>
<g id="a_Node000007"><a xlink:href="leds_8h.html" target="_top" xlink:title=" ">
<polygon fill="white" stroke="#666666" points="390.46,-129 344.46,-129 344.46,-110 390.46,-110 390.46,-129"/>
<text text-anchor="middle" x="367.46" y="-117" font-family="Helvetica,sans-Serif" font-size="10.00">leds.h</text>
</a>
</g>
</g>
<!-- Node2&#45;&gt;Node7 -->
<g id="edge30_Node000002_Node000007" class="edge">
<title>Node2&#45;&gt;Node7</title>
<g id="a_edge30_Node000002_Node000007"><a xlink:title=" ">
<path fill="none" stroke="#63b8ff" d="M340.83,-219.66C345.55,-202.09 356.2,-162.45 362.51,-138.95"/>
<polygon fill="#63b8ff" stroke="#63b8ff" points="365.92,-139.72 365.14,-129.16 359.16,-137.91 365.92,-139.72"/>
</a>
</g>
</g>
<!-- Node2&#45;&gt;Node9 -->
<g id="edge29_Node000002_Node000009" class="edge">
<title>Node2&#45;&gt;Node9</title>
<g id="a_edge29_Node000002_Node000009"><a xlink:title=" ">
<path fill="none" stroke="#63b8ff" d="M376.27,-224.79C432.47,-218.67 534.61,-204.99 564.46,-184 580.19,-172.94 590.51,-153.1 596.38,-138.54"/>
<polygon fill="#63b8ff" stroke="#63b8ff" points="599.7,-139.66 599.87,-129.06 593.13,-137.23 599.7,-139.66"/>
</a>
</g>
</g>
<!-- Node21 -->
<g id="Node000021" class="node">
<title>Node21</title>
<g id="a_Node000021"><a xlink:href="temp_8h.html" target="_top" xlink:title=" ">
<polygon fill="white" stroke="#666666" points="287.96,-129 236.96,-129 236.96,-110 287.96,-110 287.96,-129"/>
<text text-anchor="middle" x="262.46" y="-117" font-family="Helvetica,sans-Serif" font-size="10.00">temp.h</text>
</a>
</g>
</g>
<!-- Node2&#45;&gt;Node21 -->
<g id="edge27_Node000002_Node000021" class="edge">
<title>Node2&#45;&gt;Node21</title>
<g id="a_edge27_Node000002_Node000021"><a xlink:title=" ">
<path fill="none" stroke="#63b8ff" d="M331.77,-219.72C325.03,-210.8 314.36,-196.55 305.46,-184 294.43,-168.44 282.28,-150.42 273.72,-137.55"/>
<polygon fill="#63b8ff" stroke="#63b8ff" points="276.63,-135.61 268.19,-129.21 270.8,-139.48 276.63,-135.61"/>
</a>
</g>
</g>
<!-- Node22 -->
<g id="Node000022" class="node">
<title>Node22</title>
<g id="a_Node000022"><a xlink:title=" ">
<polygon fill="#e0e0e0" stroke="#999999" points="555.46,-184 465.46,-184 465.46,-165 555.46,-165 555.46,-184"/>
<text text-anchor="middle" x="510.46" y="-172" font-family="Helvetica,sans-Serif" font-size="10.00">Adafruit_GFX.h</text>
</a>
</g>
</g>
<!-- Node2&#45;&gt;Node22 -->
<g id="edge32_Node000002_Node000022" class="edge">
<title>Node2&#45;&gt;Node22</title>
<g id="a_edge32_Node000002_Node000022"><a xlink:title=" ">
<path fill="none" stroke="#63b8ff" d="M366.1,-219.98C394.97,-211.09 440.47,-197.07 472.66,-187.15"/>
<polygon fill="#63b8ff" stroke="#63b8ff" points="474.08,-190.37 482.61,-184.08 472.02,-183.68 474.08,-190.37"/>
</a>
</g>
</g>
<!-- Node23 -->
<g id="Node000023" class="node">
<title>Node23</title>
<g id="a_Node000023"><a xlink:title=" ">
<polygon fill="#e0e0e0" stroke="#999999" points="127.96,-184 14.96,-184 14.96,-165 127.96,-165 127.96,-184"/>
<text text-anchor="middle" x="71.46" y="-172" font-family="Helvetica,sans-Serif" font-size="10.00">Adafruit_SSD1306.h</text>
</a>
</g>
</g>
<!-- Node2&#45;&gt;Node23 -->
<g id="edge33_Node000002_Node000023" class="edge">
<title>Node2&#45;&gt;Node23</title>
<g id="a_edge33_Node000002_Node000023"><a xlink:title=" ">
<path fill="none" stroke="#63b8ff" d="M300.77,-221.02C254.82,-211.9 176.85,-196.42 124.76,-186.08"/>
<polygon fill="#63b8ff" stroke="#63b8ff" points="125.2,-182.6 114.71,-184.08 123.83,-189.46 125.2,-182.6"/>
</a>
</g>
</g>
<!-- Node24 -->
<g id="Node000024" class="node">
<title>Node24</title>
<g id="a_Node000024"><a xlink:title=" ">
<polygon fill="#e0e0e0" stroke="#999999" points="186.96,-184 145.96,-184 145.96,-165 186.96,-165 186.96,-184"/>
<text text-anchor="middle" x="166.46" y="-172" font-family="Helvetica,sans-Serif" font-size="10.00">SPI.h</text>
</a>
</g>
</g>
<!-- Node2&#45;&gt;Node24 -->
<g id="edge34_Node000002_Node000024" class="edge">
<title>Node2&#45;&gt;Node24</title>
<g id="a_edge34_Node000002_Node000024"><a xlink:title=" ">
<path fill="none" stroke="#63b8ff" d="M310.83,-219.98C279.64,-210.37 229.05,-194.79 196.79,-184.85"/>
<polygon fill="#63b8ff" stroke="#63b8ff" points="197.6,-181.43 187.01,-181.83 195.54,-188.12 197.6,-181.43"/>
</a>
</g>
</g>
<!-- Node25 -->
<g id="Node000025" class="node">
<title>Node25</title>
<g id="a_Node000025"><a xlink:title=" ">
<polygon fill="#e0e0e0" stroke="#999999" points="253.46,-184 205.46,-184 205.46,-165 253.46,-165 253.46,-184"/>
<text text-anchor="middle" x="229.46" y="-172" font-family="Helvetica,sans-Serif" font-size="10.00">Wire.h</text>
</a>
</g>
</g>
<!-- Node2&#45;&gt;Node25 -->
<g id="edge35_Node000002_Node000025" class="edge">
<title>Node2&#45;&gt;Node25</title>
<g id="a_edge35_Node000002_Node000025"><a xlink:title=" ">
<path fill="none" stroke="#63b8ff" d="M320.95,-219.98C303.49,-211.5 276.45,-198.35 256.29,-188.54"/>
<polygon fill="#63b8ff" stroke="#63b8ff" points="257.82,-185.4 247.29,-184.17 254.75,-191.69 257.82,-185.4"/>
</a>
</g>
</g>
<!-- Node3&#45;&gt;Node2 -->
<g id="edge6_Node000003_Node000002" class="edge">
<title>Node3&#45;&gt;Node2</title>
<g id="a_edge6_Node000003_Node000002"><a xlink:title=" ">
<path fill="none" stroke="#63b8ff" d="M408.85,-184.17C398.47,-192.44 380.21,-205.04 364.78,-214.7"/>
<polygon fill="#63b8ff" stroke="#63b8ff" points="362.82,-211.79 356.11,-219.98 366.47,-217.77 362.82,-211.79"/>
</a>
</g>
</g>
<!-- Node3&#45;&gt;Node4 -->
<g id="edge3_Node000003_Node000004" class="edge">
<title>Node3&#45;&gt;Node4</title>
<g id="a_edge3_Node000003_Node000004"><a xlink:title=" ">
<path fill="none" stroke="#63b8ff" d="M416.51,-164.97C416.12,-151.61 413.47,-125.65 399.46,-110 389.26,-98.6 354.45,-85.94 325.96,-77.05"/>
<polygon fill="#63b8ff" stroke="#63b8ff" points="326.78,-73.64 316.19,-74.07 324.74,-80.34 326.78,-73.64"/>
</a>
</g>
</g>
<!-- Node5 -->
<g id="Node000005" class="node">
<title>Node5</title>
<g id="a_Node000005"><a xlink:title=" ">
<polygon fill="#e0e0e0" stroke="#999999" points="493.46,-74 417.46,-74 417.46,-55 493.46,-55 493.46,-74"/>
<text text-anchor="middle" x="455.46" y="-62" font-family="Helvetica,sans-Serif" font-size="10.00">pico/stdlib.h</text>
</a>
</g>
</g>
<!-- Node3&#45;&gt;Node5 -->
<g id="edge4_Node000003_Node000005" class="edge">
<title>Node3&#45;&gt;Node5</title>
<g id="a_edge4_Node000003_Node000005"><a xlink:title=" ">
<path fill="none" stroke="#63b8ff" d="M419.65,-164.66C426.03,-147.01 440.44,-107.09 448.91,-83.64"/>
<polygon fill="#63b8ff" stroke="#63b8ff" points="452.23,-84.75 452.33,-74.16 445.65,-82.38 452.23,-84.75"/>
</a>
</g>
</g>
<!-- Node6 -->
<g id="Node000006" class="node">
<title>Node6</title>
<g id="a_Node000006"><a xlink:title=" ">
<polygon fill="#e0e0e0" stroke="#999999" points="606.96,-74 511.96,-74 511.96,-55 606.96,-55 606.96,-74"/>
<text text-anchor="middle" x="559.46" y="-62" font-family="Helvetica,sans-Serif" font-size="10.00">hardware/gpio.h</text>
</a>
</g>
</g>
<!-- Node3&#45;&gt;Node6 -->
<g id="edge5_Node000003_Node000006" class="edge">
<title>Node3&#45;&gt;Node6</title>
<g id="a_edge5_Node000003_Node000006"><a xlink:title=" ">
<path fill="none" stroke="#63b8ff" d="M428.16,-164.66C452.69,-146.14 509.71,-103.08 539.9,-80.28"/>
<polygon fill="#63b8ff" stroke="#63b8ff" points="542.13,-82.98 548,-74.16 537.91,-77.39 542.13,-82.98"/>
</a>
</g>
</g>
<!-- Node3&#45;&gt;Node7 -->
<g id="edge7_Node000003_Node000007" class="edge">
<title>Node3&#45;&gt;Node7</title>
<g id="a_edge7_Node000003_Node000007"><a xlink:title=" ">
<path fill="none" stroke="#63b8ff" d="M408.37,-164.75C401.3,-157.11 390.87,-145.82 382.31,-136.56"/>
<polygon fill="#63b8ff" stroke="#63b8ff" points="384.76,-134.06 375.4,-129.09 379.62,-138.81 384.76,-134.06"/>
</a>
</g>
</g>
<!-- Node3&#45;&gt;Node9 -->
<g id="edge10_Node000003_Node000009" class="edge">
<title>Node3&#45;&gt;Node9</title>
<g id="a_edge10_Node000003_Node000009"><a xlink:title=" ">
<path fill="none" stroke="#63b8ff" d="M446.34,-164.98C480.55,-155.24 536.33,-139.34 571.13,-129.43"/>
<polygon fill="#63b8ff" stroke="#63b8ff" points="572.13,-132.78 580.79,-126.68 570.21,-126.05 572.13,-132.78"/>
</a>
</g>
</g>
<!-- Node7&#45;&gt;Node4 -->
<g id="edge8_Node000007_Node000004" class="edge">
<title>Node7&#45;&gt;Node4</title>
<g id="a_edge8_Node000007_Node000004"><a xlink:title=" ">
<path fill="none" stroke="#63b8ff" d="M354.29,-109.98C341.69,-101.84 322.46,-89.41 307.52,-79.76"/>
<polygon fill="#63b8ff" stroke="#63b8ff" points="309.17,-76.66 298.87,-74.17 305.37,-82.54 309.17,-76.66"/>
</a>
</g>
</g>
<!-- Node8 -->
<g id="Node000008" class="node">
<title>Node8</title>
<g id="a_Node000008"><a xlink:title=" ">
<polygon fill="#e0e0e0" stroke="#999999" points="399.46,-74 335.46,-74 335.46,-55 399.46,-55 399.46,-74"/>
<text text-anchor="middle" x="367.46" y="-62" font-family="Helvetica,sans-Serif" font-size="10.00">FastLED.h</text>
</a>
</g>
</g>
<!-- Node7&#45;&gt;Node8 -->
<g id="edge9_Node000007_Node000008" class="edge">
<title>Node7&#45;&gt;Node8</title>
<g id="a_edge9_Node000007_Node000008"><a xlink:title=" ">
<path fill="none" stroke="#63b8ff" d="M367.46,-109.75C367.46,-102.8 367.46,-92.85 367.46,-84.13"/>
<polygon fill="#63b8ff" stroke="#63b8ff" points="370.96,-84.09 367.46,-74.09 363.96,-84.09 370.96,-84.09"/>
</a>
</g>
</g>
<!-- Node9&#45;&gt;Node4 -->
<g id="edge11_Node000009_Node000004" class="edge">
<title>Node9&#45;&gt;Node4</title>
<g id="a_edge11_Node000009_Node000004"><a xlink:title=" ">
<path fill="none" stroke="#63b8ff" d="M580.93,-115.36C535.89,-108.73 428.21,-92.5 327.28,-74.08"/>
<polygon fill="#63b8ff" stroke="#63b8ff" points="327.68,-70.59 317.22,-72.23 326.42,-77.48 327.68,-70.59"/>
</a>
</g>
</g>
<!-- Node9&#45;&gt;Node5 -->
<g id="edge20_Node000009_Node000005" class="edge">
<title>Node9&#45;&gt;Node5</title>
<g id="a_edge20_Node000009_Node000005"><a xlink:title=" ">
<path fill="none" stroke="#63b8ff" d="M580.77,-110.68C556.48,-101.92 516.83,-87.63 488.64,-77.46"/>
<polygon fill="#63b8ff" stroke="#63b8ff" points="489.79,-74.16 479.19,-74.06 487.41,-80.74 489.79,-74.16"/>
</a>
</g>
</g>
<!-- Node9&#45;&gt;Node6 -->
<g id="edge21_Node000009_Node000006" class="edge">
<title>Node9&#45;&gt;Node6</title>
<g id="a_edge21_Node000009_Node000006"><a xlink:title=" ">
<path fill="none" stroke="#63b8ff" d="M595.36,-109.75C589.29,-102.26 580.37,-91.28 572.95,-82.13"/>
<polygon fill="#63b8ff" stroke="#63b8ff" points="575.45,-79.65 566.43,-74.09 570.01,-84.06 575.45,-79.65"/>
</a>
</g>
</g>
<!-- Node10 -->
<g id="Node000010" class="node">
<title>Node10</title>
<g id="a_Node000010"><a xlink:title=" ">
<polygon fill="#e0e0e0" stroke="#999999" points="863.46,-19 815.46,-19 815.46,0 863.46,0 863.46,-19"/>
<text text-anchor="middle" x="839.46" y="-7" font-family="Helvetica,sans-Serif" font-size="10.00">time.h</text>
</a>
</g>
</g>
<!-- Node9&#45;&gt;Node10 -->
<g id="edge12_Node000009_Node000010" class="edge">
<title>Node9&#45;&gt;Node10</title>
<g id="a_edge12_Node000009_Node000010"><a xlink:title=" ">
<path fill="none" stroke="#63b8ff" d="M624.11,-117.39C675.42,-114.27 802.28,-103.69 830.46,-74 841.59,-62.28 842.99,-43.43 842.12,-29.3"/>
<polygon fill="#63b8ff" stroke="#63b8ff" points="845.58,-28.8 841.07,-19.22 838.62,-29.53 845.58,-28.8"/>
</a>
</g>
</g>
<!-- Node11 -->
<g id="Node000011" class="node">
<title>Node11</title>
<g id="a_Node000011"><a xlink:title=" ">
<polygon fill="#e0e0e0" stroke="#999999" points="693.46,-74 625.46,-74 625.46,-55 693.46,-55 693.46,-74"/>
<text text-anchor="middle" x="659.46" y="-62" font-family="Helvetica,sans-Serif" font-size="10.00">sys/time.h</text>
</a>
</g>
</g>
<!-- Node9&#45;&gt;Node11 -->
<g id="edge13_Node000009_Node000011" class="edge">
<title>Node9&#45;&gt;Node11</title>
<g id="a_edge13_Node000009_Node000011"><a xlink:title=" ">
<path fill="none" stroke="#63b8ff" d="M611.62,-109.98C619.96,-102.23 632.49,-90.58 642.64,-81.14"/>
<polygon fill="#63b8ff" stroke="#63b8ff" points="645.2,-83.54 650.14,-74.17 640.43,-78.42 645.2,-83.54"/>
</a>
</g>
</g>
<!-- Node12 -->
<g id="Node000012" class="node">
<title>Node12</title>
<g id="a_Node000012"><a xlink:href="minmea_8h.html" target="_top" xlink:title=" ">
<polygon fill="white" stroke="#666666" points="821.46,-74 711.46,-74 711.46,-55 821.46,-55 821.46,-74"/>
<text text-anchor="middle" x="766.46" y="-62" font-family="Helvetica,sans-Serif" font-size="10.00">minmea/minmea.h</text>
</a>
</g>
</g>
<!-- Node9&#45;&gt;Node12 -->
<g id="edge14_Node000009_Node000012" class="edge">
<title>Node9&#45;&gt;Node12</title>
<g id="a_edge14_Node000009_Node000012"><a xlink:title=" ">
<path fill="none" stroke="#63b8ff" d="M624.24,-111.46C651.32,-102.71 697.94,-87.64 730.39,-77.16"/>
<polygon fill="#63b8ff" stroke="#63b8ff" points="731.53,-80.47 739.97,-74.06 729.38,-73.8 731.53,-80.47"/>
</a>
</g>
</g>
<!-- Node17 -->
<g id="Node000017" class="node">
<title>Node17</title>
<g id="a_Node000017"><a xlink:href="Filesystem_8h.html" target="_top" xlink:title=" ">
<polygon fill="white" stroke="#666666" points="1027.96,-74 948.96,-74 948.96,-55 1027.96,-55 1027.96,-74"/>
<text text-anchor="middle" x="988.46" y="-62" font-family="Helvetica,sans-Serif" font-size="10.00">Filesystem.h</text>
</a>
</g>
</g>
<!-- Node9&#45;&gt;Node17 -->
<g id="edge22_Node000009_Node000017" class="edge">
<title>Node9&#45;&gt;Node17</title>
<g id="a_edge22_Node000009_Node000017"><a xlink:title=" ">
<path fill="none" stroke="#63b8ff" d="M624.04,-115.54C684,-107.3 853.77,-83.99 938.74,-72.33"/>
<polygon fill="#63b8ff" stroke="#63b8ff" points="939.23,-75.79 948.67,-70.96 938.28,-68.86 939.23,-75.79"/>
</a>
</g>
</g>
<!-- Node12&#45;&gt;Node10 -->
<g id="edge18_Node000012_Node000010" class="edge">
<title>Node12&#45;&gt;Node10</title>
<g id="a_edge18_Node000012_Node000010"><a xlink:title=" ">
<path fill="none" stroke="#63b8ff" d="M778.19,-54.98C789.19,-47 805.88,-34.88 819.06,-25.31"/>
<polygon fill="#63b8ff" stroke="#63b8ff" points="821.48,-27.88 827.52,-19.17 817.37,-22.21 821.48,-27.88"/>
</a>
</g>
</g>
<!-- Node13 -->
<g id="Node000013" class="node">
<title>Node13</title>
<g id="a_Node000013"><a xlink:title=" ">
<polygon fill="#e0e0e0" stroke="#999999" points="716.96,-19 663.96,-19 663.96,0 716.96,0 716.96,-19"/>
<text text-anchor="middle" x="690.46" y="-7" font-family="Helvetica,sans-Serif" font-size="10.00">ctype.h</text>
</a>
</g>
</g>
<!-- Node12&#45;&gt;Node13 -->
<g id="edge15_Node000012_Node000013" class="edge">
<title>Node12&#45;&gt;Node13</title>
<g id="a_edge15_Node000012_Node000013"><a xlink:title=" ">
<path fill="none" stroke="#63b8ff" d="M754.25,-54.98C742.68,-46.92 725.08,-34.65 711.3,-25.03"/>
<polygon fill="#63b8ff" stroke="#63b8ff" points="713.1,-22.02 702.89,-19.17 709.09,-27.76 713.1,-22.02"/>
</a>
</g>
</g>
<!-- Node14 -->
<g id="Node000014" class="node">
<title>Node14</title>
<g id="a_Node000014"><a xlink:title=" ">
<polygon fill="#e0e0e0" stroke="#999999" points="934.96,-19 881.96,-19 881.96,0 934.96,0 934.96,-19"/>
<text text-anchor="middle" x="908.46" y="-7" font-family="Helvetica,sans-Serif" font-size="10.00">stdint.h</text>
</a>
</g>
</g>
<!-- Node12&#45;&gt;Node14 -->
<g id="edge16_Node000012_Node000014" class="edge">
<title>Node12&#45;&gt;Node14</title>
<g id="a_edge16_Node000012_Node000014"><a xlink:title=" ">
<path fill="none" stroke="#63b8ff" d="M789.28,-54.98C812.63,-46.27 849.16,-32.63 875.63,-22.75"/>
<polygon fill="#63b8ff" stroke="#63b8ff" points="877.09,-25.95 885.23,-19.17 874.64,-19.39 877.09,-25.95"/>
</a>
</g>
</g>
<!-- Node15 -->
<g id="Node000015" class="node">
<title>Node15</title>
<g id="a_Node000015"><a xlink:title=" ">
<polygon fill="#e0e0e0" stroke="#999999" points="797.46,-19 735.46,-19 735.46,0 797.46,0 797.46,-19"/>
<text text-anchor="middle" x="766.46" y="-7" font-family="Helvetica,sans-Serif" font-size="10.00">stdbool.h</text>
</a>
</g>
</g>
<!-- Node12&#45;&gt;Node15 -->
<g id="edge17_Node000012_Node000015" class="edge">
<title>Node12&#45;&gt;Node15</title>
<g id="a_edge17_Node000012_Node000015"><a xlink:title=" ">
<path fill="none" stroke="#63b8ff" d="M766.46,-54.75C766.46,-47.8 766.46,-37.85 766.46,-29.13"/>
<polygon fill="#63b8ff" stroke="#63b8ff" points="769.96,-29.09 766.46,-19.09 762.96,-29.09 769.96,-29.09"/>
</a>
</g>
</g>
<!-- Node16 -->
<g id="Node000016" class="node">
<title>Node16</title>
<g id="a_Node000016"><a xlink:title=" ">
<polygon fill="#e0e0e0" stroke="#999999" points="645.96,-19 594.96,-19 594.96,0 645.96,0 645.96,-19"/>
<text text-anchor="middle" x="620.46" y="-7" font-family="Helvetica,sans-Serif" font-size="10.00">math.h</text>
</a>
</g>
</g>
<!-- Node12&#45;&gt;Node16 -->
<g id="edge19_Node000012_Node000016" class="edge">
<title>Node12&#45;&gt;Node16</title>
<g id="a_edge19_Node000012_Node000016"><a xlink:title=" ">
<path fill="none" stroke="#63b8ff" d="M743,-54.98C718.88,-46.23 681.09,-32.51 653.86,-22.62"/>
<polygon fill="#63b8ff" stroke="#63b8ff" points="654.94,-19.29 644.34,-19.17 652.55,-25.87 654.94,-19.29"/>
</a>
</g>
</g>
<!-- Node17&#45;&gt;Node14 -->
<g id="edge25_Node000017_Node000014" class="edge">
<title>Node17&#45;&gt;Node14</title>
<g id="a_edge25_Node000017_Node000014"><a xlink:title=" ">
<path fill="none" stroke="#63b8ff" d="M975.61,-54.98C963.32,-46.84 944.55,-34.41 929.98,-24.76"/>
<polygon fill="#63b8ff" stroke="#63b8ff" points="931.82,-21.78 921.55,-19.17 927.95,-27.61 931.82,-21.78"/>
</a>
</g>
</g>
<!-- Node18 -->
<g id="Node000018" class="node">
<title>Node18</title>
<g id="a_Node000018"><a xlink:title=" ">
<polygon fill="#e0e0e0" stroke="#999999" points="1155.96,-19 1104.96,-19 1104.96,0 1155.96,0 1155.96,-19"/>
<text text-anchor="middle" x="1130.46" y="-7" font-family="Helvetica,sans-Serif" font-size="10.00">FatFS.h</text>
</a>
</g>
</g>
<!-- Node17&#45;&gt;Node18 -->
<g id="edge23_Node000017_Node000018" class="edge">
<title>Node17&#45;&gt;Node18</title>
<g id="a_edge23_Node000017_Node000018"><a xlink:title=" ">
<path fill="none" stroke="#63b8ff" d="M1011.28,-54.98C1034.63,-46.27 1071.16,-32.63 1097.63,-22.75"/>
<polygon fill="#63b8ff" stroke="#63b8ff" points="1099.09,-25.95 1107.23,-19.17 1096.64,-19.39 1099.09,-25.95"/>
</a>
</g>
</g>
<!-- Node19 -->
<g id="Node000019" class="node">
<title>Node19</title>
<g id="a_Node000019"><a xlink:title=" ">
<polygon fill="#e0e0e0" stroke="#999999" points="1023.96,-19 952.96,-19 952.96,0 1023.96,0 1023.96,-19"/>
<text text-anchor="middle" x="988.46" y="-7" font-family="Helvetica,sans-Serif" font-size="10.00">FatFSUSB.h</text>
</a>
</g>
</g>
<!-- Node17&#45;&gt;Node19 -->
<g id="edge24_Node000017_Node000019" class="edge">
<title>Node17&#45;&gt;Node19</title>
<g id="a_edge24_Node000017_Node000019"><a xlink:title=" ">
<path fill="none" stroke="#63b8ff" d="M988.46,-54.75C988.46,-47.8 988.46,-37.85 988.46,-29.13"/>
<polygon fill="#63b8ff" stroke="#63b8ff" points="991.96,-29.09 988.46,-19.09 984.96,-29.09 991.96,-29.09"/>
</a>
</g>
</g>
<!-- Node20 -->
<g id="Node000020" class="node">
<title>Node20</title>
<g id="a_Node000020"><a xlink:title=" ">
<polygon fill="#e0e0e0" stroke="#999999" points="1086.46,-19 1042.46,-19 1042.46,0 1086.46,0 1086.46,-19"/>
<text text-anchor="middle" x="1064.46" y="-7" font-family="Helvetica,sans-Serif" font-size="10.00">VFS.h</text>
</a>
</g>
</g>
<!-- Node17&#45;&gt;Node20 -->
<g id="edge26_Node000017_Node000020" class="edge">
<title>Node17&#45;&gt;Node20</title>
<g id="a_edge26_Node000017_Node000020"><a xlink:title=" ">
<path fill="none" stroke="#63b8ff" d="M1000.67,-54.98C1012.24,-46.92 1029.84,-34.65 1043.62,-25.03"/>
<polygon fill="#63b8ff" stroke="#63b8ff" points="1045.83,-27.76 1052.03,-19.17 1041.82,-22.02 1045.83,-27.76"/>
</a>
</g>
</g>
<!-- Node21&#45;&gt;Node4 -->
<g id="edge28_Node000021_Node000004" class="edge">
<title>Node21&#45;&gt;Node4</title>
<g id="a_edge28_Node000021_Node000004"><a xlink:title=" ">
<path fill="none" stroke="#63b8ff" d="M266.26,-109.75C269.37,-102.57 273.88,-92.18 277.75,-83.27"/>
<polygon fill="#63b8ff" stroke="#63b8ff" points="280.96,-84.66 281.73,-74.09 274.54,-81.87 280.96,-84.66"/>
</a>
</g>
</g>
<!-- Node26&#45;&gt;Node4 -->
<g id="edge37_Node000026_Node000004" class="edge">
<title>Node26&#45;&gt;Node4</title>
<g id="a_edge37_Node000026_Node000004"><a xlink:title=" ">
<path fill="none" stroke="#63b8ff" d="M95.78,-224.38C51.46,-217.38 -19.49,-200.34 5.46,-165 59.99,-87.75 179.98,-70.11 243.73,-66.32"/>
<polygon fill="#63b8ff" stroke="#63b8ff" points="244.03,-69.81 253.84,-65.81 243.67,-62.82 244.03,-69.81"/>
</a>
</g>
</g>
</g>
</svg>
