<?xml version="1.0" encoding="UTF-8" standalone="no"?>
<!DOCTYPE svg PUBLIC "-//W3C//DTD SVG 1.1//EN"
 "http://www.w3.org/Graphics/SVG/1.1/DTD/svg11.dtd">
<!-- Generated by graphviz version 2.43.0 (0)
 -->
<!-- Title: updateDisplayTimeout Pages: 1 -->
<svg width="454pt" height="64pt"
 viewBox="0.00 0.00 454.00 64.00" xmlns="http://www.w3.org/2000/svg" xmlns:xlink="http://www.w3.org/1999/xlink">
<g id="graph0" class="graph" transform="scale(1 1) rotate(0) translate(4 60)">
<title>updateDisplayTimeout</title>
<!-- Node1 -->
<g id="Node000001" class="node">
<title>Node1</title>
<g id="a_Node000001"><a xlink:title="Gestisce il timeout dell&#39;inattività e il ritorno automatico alla Home.">
<polygon fill="#999999" stroke="#666666" points="128,-37 0,-37 0,-18 128,-18 128,-37"/>
<text text-anchor="middle" x="64" y="-25" font-family="Helvetica,sans-Serif" font-size="10.00">updateDisplayTimeout</text>
</a>
</g>
</g>
<!-- Node2 -->
<g id="Node000002" class="node">
<title>Node2</title>
<g id="a_Node000002"><a xlink:href="display__ui_8cpp.html#a1946154d8e9e6dd415476d3378b98ff1" target="_top" xlink:title="Disegna la schermata principale (Ambient Display). Mostra i dati meteo correnti, l&#39;ora e la data recu...">
<polygon fill="white" stroke="#666666" points="267,-37 164,-37 164,-18 267,-18 267,-37"/>
<text text-anchor="middle" x="215.5" y="-25" font-family="Helvetica,sans-Serif" font-size="10.00">drawHomeScreen</text>
</a>
</g>
</g>
<!-- Node1&#45;&gt;Node2 -->
<g id="edge1_Node000001_Node000002" class="edge">
<title>Node1&#45;&gt;Node2</title>
<g id="a_edge1_Node000001_Node000002"><a xlink:title=" ">
<path fill="none" stroke="#63b8ff" d="M128.4,-27.5C136.78,-27.5 145.34,-27.5 153.67,-27.5"/>
<polygon fill="#63b8ff" stroke="#63b8ff" points="153.68,-31 163.68,-27.5 153.68,-24 153.68,-31"/>
</a>
</g>
</g>
<!-- Node3 -->
<g id="Node000003" class="node">
<title>Node3</title>
<g id="a_Node000003"><a xlink:href="display__ui_8cpp.html#ab460e1bb5537313cb79cfffa7e93c58b" target="_top" xlink:title="Istanza del driver del display SSD1306.">
<polygon fill="white" stroke="#666666" points="400.5,-56 348.5,-56 348.5,-37 400.5,-37 400.5,-56"/>
<text text-anchor="middle" x="374.5" y="-44" font-family="Helvetica,sans-Serif" font-size="10.00">display</text>
</a>
</g>
</g>
<!-- Node2&#45;&gt;Node3 -->
<g id="edge2_Node000002_Node000003" class="edge">
<title>Node2&#45;&gt;Node3</title>
<g id="a_edge2_Node000002_Node000003"><a xlink:title=" ">
<path fill="none" stroke="#63b8ff" d="M267.04,-33.62C290.2,-36.42 317.09,-39.67 338.05,-42.21"/>
<polygon fill="#63b8ff" stroke="#63b8ff" points="337.78,-45.7 348.13,-43.43 338.62,-38.75 337.78,-45.7"/>
</a>
</g>
</g>
<!-- Node4 -->
<g id="Node000004" class="node">
<title>Node4</title>
<g id="a_Node000004"><a xlink:href="weather_8cpp.html#a8e2b5c9b7658529d8dae9d6ea9d56de7" target="_top" xlink:title="Converte il codice WMO in una descrizione testuale breve.">
<polygon fill="white" stroke="#666666" points="446,-19 303,-19 303,0 446,0 446,-19"/>
<text text-anchor="middle" x="374.5" y="-7" font-family="Helvetica,sans-Serif" font-size="10.00">Weather_CodeToShortText</text>
</a>
</g>
</g>
<!-- Node2&#45;&gt;Node4 -->
<g id="edge3_Node000002_Node000004" class="edge">
<title>Node2&#45;&gt;Node4</title>
<g id="a_edge3_Node000002_Node000004"><a xlink:title=" ">
<path fill="none" stroke="#63b8ff" d="M267.04,-21.71C275.22,-20.77 283.87,-19.78 292.56,-18.78"/>
<polygon fill="#63b8ff" stroke="#63b8ff" points="293.22,-22.23 302.75,-17.61 292.42,-15.27 293.22,-22.23"/>
</a>
</g>
</g>
</g>
</svg>
