<?xml version="1.0" encoding="UTF-8" standalone="no"?>
<!DOCTYPE svg PUBLIC "-//W3C//DTD SVG 1.1//EN"
 "http://www.w3.org/Graphics/SVG/1.1/DTD/svg11.dtd">
<!-- Generated by graphviz version 2.43.0 (0)
 -->
<!-- Title: src/Modules/display_ui.h Pages: 1 -->
<svg width="465pt" height="148pt"
 viewBox="0.00 0.00 465.00 148.00" xmlns="http://www.w3.org/2000/svg" xmlns:xlink="http://www.w3.org/1999/xlink">

<svg id="main" version="1.1" xmlns="http://www.w3.org/2000/svg" xmlns:xlink="http://www.w3.org/1999/xlink" xml:space="preserve" onload="init(evt)">
<style type="text/css"><![CDATA[
.node, .edge {opacity: 0.7;}
.node.selected, .edge.selected {opacity: 1;}
.edge:hover path { stroke: red; }
.edge:hover polygon { stroke: red; fill: red; }
]]></style>
<script type="application/ecmascript" xlink:href="svg.min.js"/>
<svg id="graph" class="graph">
<g id="graph0" class="graph" transform="scale(1 1) rotate(0) translate(4 144)">
<title>src/Modules/display_ui.h</title>
<!-- Node1 -->
<g id="Node000001" class="node">
<title>Node1</title>
<g id="a_Node000001"><a xlink:title="Definizioni hardware e prototipi per l&#39;interfaccia utente OLED.">
<polygon fill="#999999" stroke="#666666" points="294,-140 157,-140 157,-121 294,-121 294,-140"/>
<text text-anchor="middle" x="225.5" y="-128" font-family="Helvetica,sans-Serif" font-size="10.00">src/Modules/display_ui.h</text>
</a>
</g>
</g>
<!-- Node2 -->
<g id="Node000002" class="node">
<title>Node2</title>
<g id="a_Node000002"><a xlink:href="buttons_8cpp.html" target="_top" xlink:title="Gestione dell&#39;input utente, sitema di debounce e macchina a stati del menu.">
<polygon fill="white" stroke="#666666" points="135,-19 0,-19 0,0 135,0 135,-19"/>
<text text-anchor="middle" x="67.5" y="-7" font-family="Helvetica,sans-Serif" font-size="10.00">src/Modules/buttons.cpp</text>
</a>
</g>
</g>
<!-- Node1&#45;&gt;Node2 -->
<g id="edge1_Node000001_Node000002" class="edge">
<title>Node1&#45;&gt;Node2</title>
<g id="a_edge1_Node000001_Node000002"><a xlink:title=" ">
<path fill="none" stroke="#63b8ff" d="M197.61,-116.21C181.73,-108.11 161.82,-97.02 145.5,-85 117.16,-64.12 88.38,-33.73 75.09,-19.06"/>
<polygon fill="#63b8ff" stroke="#63b8ff" points="196.39,-119.52 206.9,-120.85 199.52,-113.25 196.39,-119.52"/>
</a>
</g>
</g>
<!-- Node3 -->
<g id="Node000003" class="node">
<title>Node3</title>
<g id="a_Node000003"><a xlink:href="buttons_8h.html" target="_top" xlink:title="Definizioni e prototipi per la gestione degli input utente e della UI.">
<polygon fill="white" stroke="#666666" points="287.5,-79.5 163.5,-79.5 163.5,-60.5 287.5,-60.5 287.5,-79.5"/>
<text text-anchor="middle" x="225.5" y="-67.5" font-family="Helvetica,sans-Serif" font-size="10.00">src/Modules/buttons.h</text>
</a>
</g>
</g>
<!-- Node1&#45;&gt;Node3 -->
<g id="edge2_Node000001_Node000003" class="edge">
<title>Node1&#45;&gt;Node3</title>
<g id="a_edge2_Node000001_Node000003"><a xlink:title=" ">
<path fill="none" stroke="#63b8ff" d="M219.15,-110.66C218.32,-100.24 218.79,-87.8 220.54,-79.67"/>
<polygon fill="#63b8ff" stroke="#63b8ff" points="215.72,-111.44 220.54,-120.87 222.65,-110.49 215.72,-111.44"/>
</a>
</g>
</g>
<!-- Node4 -->
<g id="Node000004" class="node">
<title>Node4</title>
<g id="a_Node000004"><a xlink:href="leds_8cpp.html" target="_top" xlink:title="Implementazione dei feedback visivi tramite LED RGB.">
<polygon fill="white" stroke="#666666" points="272,-19 153,-19 153,0 272,0 272,-19"/>
<text text-anchor="middle" x="212.5" y="-7" font-family="Helvetica,sans-Serif" font-size="10.00">src/Modules/leds.cpp</text>
</a>
</g>
</g>
<!-- Node1&#45;&gt;Node4 -->
<g id="edge8_Node000001_Node000004" class="edge">
<title>Node1&#45;&gt;Node4</title>
<g id="a_edge8_Node000001_Node000004"><a xlink:title=" ">
<path fill="none" stroke="#63b8ff" d="M190.61,-116.5C176.79,-109.43 162.34,-99.17 154.5,-85 148.04,-73.33 148.6,-66.96 154.5,-55 162.64,-38.5 180.17,-26.41 193.83,-19.03"/>
<polygon fill="#63b8ff" stroke="#63b8ff" points="189.45,-119.82 199.99,-120.9 192.42,-113.48 189.45,-119.82"/>
</a>
</g>
</g>
<!-- Node5 -->
<g id="Node000005" class="node">
<title>Node5</title>
<g id="a_Node000005"><a xlink:href="main_8cpp.html" target="_top" xlink:title="Orchestratore di sistema e gestione Multicore.">
<polygon fill="white" stroke="#666666" points="369,-19 290,-19 290,0 369,0 369,-19"/>
<text text-anchor="middle" x="329.5" y="-7" font-family="Helvetica,sans-Serif" font-size="10.00">src/main.cpp</text>
</a>
</g>
</g>
<!-- Node1&#45;&gt;Node5 -->
<g id="edge9_Node000001_Node000005" class="edge">
<title>Node1&#45;&gt;Node5</title>
<g id="a_edge9_Node000001_Node000005"><a xlink:title=" ">
<path fill="none" stroke="#63b8ff" d="M254.84,-116.23C268.91,-108.7 285.12,-98.13 296.5,-85 313.91,-64.9 323.55,-34.14 327.44,-19.22"/>
<polygon fill="#63b8ff" stroke="#63b8ff" points="252.87,-113.31 245.54,-120.96 256.04,-119.55 252.87,-113.31"/>
</a>
</g>
</g>
<!-- Node6 -->
<g id="Node000006" class="node">
<title>Node6</title>
<g id="a_Node000006"><a xlink:href="display__ui_8cpp.html" target="_top" xlink:title="Implementazione dell&#39;interfaccia utente (UI) su display OLED SSD1306.">
<polygon fill="white" stroke="#666666" points="457,-85 344,-85 344,-55 457,-55 457,-85"/>
<text text-anchor="start" x="352" y="-73" font-family="Helvetica,sans-Serif" font-size="10.00">src/Modules/display</text>
<text text-anchor="middle" x="400.5" y="-62" font-family="Helvetica,sans-Serif" font-size="10.00">_ui.cpp</text>
</a>
</g>
</g>
<!-- Node1&#45;&gt;Node6 -->
<g id="edge7_Node000001_Node000006" class="edge">
<title>Node1&#45;&gt;Node6</title>
<g id="a_edge7_Node000001_Node000006"><a xlink:title=" ">
<path fill="none" stroke="#63b8ff" d="M260.78,-117.71C288.98,-108.28 328.58,-95.04 358.43,-85.06"/>
<polygon fill="#63b8ff" stroke="#63b8ff" points="259.32,-114.5 250.95,-120.99 261.54,-121.14 259.32,-114.5"/>
</a>
</g>
</g>
<!-- Node3&#45;&gt;Node1 -->
<g id="edge4_Node000003_Node000001" class="edge">
<title>Node3&#45;&gt;Node1</title>
<g id="a_edge4_Node000003_Node000001"><a xlink:title=" ">
<path fill="none" stroke="#63b8ff" d="M231.86,-89.89C232.68,-100.31 232.21,-112.75 230.46,-120.87"/>
<polygon fill="#63b8ff" stroke="#63b8ff" points="235.28,-89.1 230.46,-79.67 228.35,-90.05 235.28,-89.1"/>
</a>
</g>
</g>
<!-- Node3&#45;&gt;Node2 -->
<g id="edge3_Node000003_Node000002" class="edge">
<title>Node3&#45;&gt;Node2</title>
<g id="a_edge3_Node000003_Node000002"><a xlink:title=" ">
<path fill="none" stroke="#63b8ff" d="M192.76,-56.88C162.22,-45.57 117.43,-28.99 90.5,-19.02"/>
<polygon fill="#63b8ff" stroke="#63b8ff" points="191.93,-60.3 202.53,-60.49 194.36,-53.74 191.93,-60.3"/>
</a>
</g>
</g>
<!-- Node3&#45;&gt;Node4 -->
<g id="edge5_Node000003_Node000004" class="edge">
<title>Node3&#45;&gt;Node4</title>
<g id="a_edge5_Node000003_Node000004"><a xlink:title=" ">
<path fill="none" stroke="#63b8ff" d="M221.39,-50.49C219.06,-40.01 216.25,-27.39 214.43,-19.17"/>
<polygon fill="#63b8ff" stroke="#63b8ff" points="218,-51.37 223.58,-60.37 224.83,-49.85 218,-51.37"/>
</a>
</g>
</g>
<!-- Node3&#45;&gt;Node5 -->
<g id="edge6_Node000003_Node000005" class="edge">
<title>Node3&#45;&gt;Node5</title>
<g id="a_edge6_Node000003_Node000005"><a xlink:title=" ">
<path fill="none" stroke="#63b8ff" d="M249.64,-55.42C269.51,-44.24 297.09,-28.73 314.09,-19.17"/>
<polygon fill="#63b8ff" stroke="#63b8ff" points="247.85,-52.41 240.85,-60.37 251.28,-58.52 247.85,-52.41"/>
</a>
</g>
</g>
</g>
</svg>
</svg>

<style type='text/css'>
<![CDATA[
[data-mouse-over-selected='false'] { opacity: 0.7; }
[data-mouse-over-selected='true']  { opacity: 1.0; }
]]>
</style>
<script type="application/ecmascript"><![CDATA[
document.addEventListener('DOMContentLoaded', (event) => {
  highlightEdges();
  highlightAdjacentNodes();
});
]]></script>
</svg>
