<?xml version="1.0" encoding="UTF-8" standalone="no"?>
<!DOCTYPE svg PUBLIC "-//W3C//DTD SVG 1.1//EN"
 "http://www.w3.org/Graphics/SVG/1.1/DTD/svg11.dtd">
<!-- Generated by graphviz version 2.43.0 (0)
 -->
<!-- Title: src/Modules/display_ui.cpp Pages: 1 -->
<!--zoomable 313 -->

<svg id="main" version="1.1" xmlns="http://www.w3.org/2000/svg" xmlns:xlink="http://www.w3.org/1999/xlink" xml:space="preserve" onload="init(evt)">
<style type="text/css"><![CDATA[
.node, .edge {opacity: 0.7;}
.node.selected, .edge.selected {opacity: 1;}
.edge:hover path { stroke: red; }
.edge:hover polygon { stroke: red; fill: red; }
]]></style>

<defs>
  <circle id="rim" cx="0" cy="0" r="7"/>
  <circle id="rim2" cx="0" cy="0" r="3.5"/>
  <g id="zoomPlus">
    <use xlink:href="#rim" fill="#404040"><set attributeName="fill" to="#808080" begin="zoomplus.mouseover" end="zoomplus.mouseout"/></use>
    <path d="M-4,0h8M0,-4v8" fill="none" stroke="white" stroke-width="1.5" pointer-events="none"/>
  </g>
  <g id="zoomMin">
    <use xlink:href="#rim" fill="#404040"><set attributeName="fill" to="#808080" begin="zoomminus.mouseover" end="zoomminus.mouseout"/></use>
    <path d="M-4,0h8" fill="none" stroke="white" stroke-width="1.5" pointer-events="none"/>
  </g>
  <g id="arrowUp" transform="translate(30 24)">
    <use xlink:href="#rim"/>
    <path pointer-events="none" fill="none" stroke="white" stroke-width="1.5" d="M0,-3.0v7 M-2.5,-0.5L0,-3.0L2.5,-0.5"/>
  </g>
  <g id="arrowRight" transform="rotate(90) translate(36 -43)">
    <use xlink:href="#rim"/>
    <path pointer-events="none" fill="none" stroke="white" stroke-width="1.5" d="M0,-3.0v7 M-2.5,-0.5L0,-3.0L2.5,-0.5"/>
  </g>
  <g id="arrowDown" transform="rotate(180) translate(-30 -48)">
    <use xlink:href="#rim"/>
    <path pointer-events="none" fill="none" stroke="white" stroke-width="1.5" d="M0,-3.0v7 M-2.5,-0.5L0,-3.0L2.5,-0.5"/>
  </g>
  <g id="arrowLeft" transform="rotate(270) translate(-36 17)">
    <use xlink:href="#rim"/>
    <path pointer-events="none" fill="none" stroke="white" stroke-width="1.5" d="M0,-3.0v7 M-2.5,-0.5L0,-3.0L2.5,-0.5"/>
  </g>
  <g id="resetDef">
    <use xlink:href="#rim2" fill="#404040"><set attributeName="fill" to="#808080" begin="reset.mouseover" end="reset.mouseout"/></use>
  </g>
</defs>
<script type="application/ecmascript">
var viewWidth = 762;
var viewHeight = 313;
var sectionId = 'dynsection-0';
</script>
<script type="application/ecmascript" xlink:href="svg.min.js"/>
<svg id="graph" class="graph">
<g id="viewport">
<title>src/Modules/display_ui.cpp</title>
<!-- Node1 -->
<g id="Node000001" class="node">
<title>Node1</title>
<g id="a_Node000001"><a xlink:title="Implementazione dell&#39;interfaccia utente (UI) su display OLED SSD1306.">
<polygon fill="#999999" stroke="#666666" points="474.5,-305 361.5,-305 361.5,-275 474.5,-275 474.5,-305"/>
<text text-anchor="start" x="369.5" y="-293" font-family="Helvetica,sans-Serif" font-size="10.00">src/Modules/display</text>
<text text-anchor="middle" x="418" y="-282" font-family="Helvetica,sans-Serif" font-size="10.00">_ui.cpp</text>
</a>
</g>
</g>
<!-- Node2 -->
<g id="Node000002" class="node">
<title>Node2</title>
<g id="a_Node000002"><a xlink:href="display__ui_8h.html" target="_top" xlink:title="Definizioni hardware e prototipi per l&#39;interfaccia utente OLED.">
<polygon fill="white" stroke="#666666" points="455.5,-239 380.5,-239 380.5,-220 455.5,-220 455.5,-239"/>
<text text-anchor="middle" x="418" y="-227" font-family="Helvetica,sans-Serif" font-size="10.00">display_ui.h</text>
</a>
</g>
</g>
<!-- Node1&#45;&gt;Node2 -->
<g id="edge1_Node000001_Node000002" class="edge">
<title>Node1&#45;&gt;Node2</title>
<g id="a_edge1_Node000001_Node000002"><a xlink:title=" ">
<path fill="none" stroke="#63b8ff" d="M418,-274.84C418,-267.21 418,-257.7 418,-249.45"/>
<polygon fill="#63b8ff" stroke="#63b8ff" points="421.5,-249.27 418,-239.27 414.5,-249.27 421.5,-249.27"/>
</a>
</g>
</g>
<!-- Node13 -->
<g id="Node000013" class="node">
<title>Node13</title>
<g id="a_Node000013"><a xlink:href="gps_8h.html" target="_top" xlink:title="Definizioni, macro e strutture per la gestione della telemetria GPS.">
<polygon fill="white" stroke="#666666" points="268.5,-129 225.5,-129 225.5,-110 268.5,-110 268.5,-129"/>
<text text-anchor="middle" x="247" y="-117" font-family="Helvetica,sans-Serif" font-size="10.00">gps.h</text>
</a>
</g>
</g>
<!-- Node1&#45;&gt;Node13 -->
<g id="edge38_Node000001_Node000013" class="edge">
<title>Node1&#45;&gt;Node13</title>
<g id="a_edge38_Node000001_Node000013"><a xlink:title=" ">
<path fill="none" stroke="#63b8ff" d="M361.42,-285.07C297.38,-277.24 195.78,-253.84 148,-184 128.22,-155.09 179.42,-136.41 215.34,-127.23"/>
<polygon fill="#63b8ff" stroke="#63b8ff" points="216.55,-130.54 225.45,-124.79 214.91,-123.73 216.55,-130.54"/>
</a>
</g>
</g>
<!-- Node26 -->
<g id="Node000026" class="node">
<title>Node26</title>
<g id="a_Node000026"><a xlink:href="weather_8h.html" target="_top" xlink:title="Definizioni della struttura dati e prototipi per il modulo Meteo.">
<polygon fill="white" stroke="#666666" points="697.5,-239 632.5,-239 632.5,-220 697.5,-220 697.5,-239"/>
<text text-anchor="middle" x="665" y="-227" font-family="Helvetica,sans-Serif" font-size="10.00">weather.h</text>
</a>
</g>
</g>
<!-- Node1&#45;&gt;Node26 -->
<g id="edge36_Node000001_Node000026" class="edge">
<title>Node1&#45;&gt;Node26</title>
<g id="a_edge36_Node000001_Node000026"><a xlink:title=" ">
<path fill="none" stroke="#63b8ff" d="M474.67,-275.58C519.7,-264.91 581.71,-250.23 622.54,-240.56"/>
<polygon fill="#63b8ff" stroke="#63b8ff" points="623.52,-243.92 632.45,-238.21 621.91,-237.11 623.52,-243.92"/>
</a>
</g>
</g>
<!-- Node3 -->
<g id="Node000003" class="node">
<title>Node3</title>
<g id="a_Node000003"><a xlink:title=" ">
<polygon fill="#e0e0e0" stroke="#999999" points="620.5,-74 557.5,-74 557.5,-55 620.5,-55 620.5,-74"/>
<text text-anchor="middle" x="589" y="-62" font-family="Helvetica,sans-Serif" font-size="10.00">Arduino.h</text>
</a>
</g>
</g>
<!-- Node2&#45;&gt;Node3 -->
<g id="edge2_Node000002_Node000003" class="edge">
<title>Node2&#45;&gt;Node3</title>
<g id="a_edge2_Node000002_Node000003"><a xlink:title=" ">
<path fill="none" stroke="#63b8ff" d="M455.69,-227.99C522.38,-226.2 656.91,-218.31 686,-184 702.84,-164.13 679.82,-130.42 662,-110 650.31,-96.61 633.58,-86 619.09,-78.51"/>
<polygon fill="#63b8ff" stroke="#63b8ff" points="620.48,-75.3 609.96,-74.04 617.4,-81.59 620.48,-75.3"/>
</a>
</g>
</g>
<!-- Node4 -->
<g id="Node000004" class="node">
<title>Node4</title>
<g id="a_Node000004"><a xlink:title=" ">
<polygon fill="#e0e0e0" stroke="#999999" points="403,-184 313,-184 313,-165 403,-165 403,-184"/>
<text text-anchor="middle" x="358" y="-172" font-family="Helvetica,sans-Serif" font-size="10.00">Adafruit_GFX.h</text>
</a>
</g>
</g>
<!-- Node2&#45;&gt;Node4 -->
<g id="edge3_Node000002_Node000004" class="edge">
<title>Node2&#45;&gt;Node4</title>
<g id="a_edge3_Node000002_Node000004"><a xlink:title=" ">
<path fill="none" stroke="#63b8ff" d="M408.36,-219.98C399.49,-212.15 386.13,-200.34 375.39,-190.86"/>
<polygon fill="#63b8ff" stroke="#63b8ff" points="377.63,-188.17 367.82,-184.17 372.99,-193.41 377.63,-188.17"/>
</a>
</g>
</g>
<!-- Node5 -->
<g id="Node000005" class="node">
<title>Node5</title>
<g id="a_Node000005"><a xlink:title=" ">
<polygon fill="#e0e0e0" stroke="#999999" points="534.5,-184 421.5,-184 421.5,-165 534.5,-165 534.5,-184"/>
<text text-anchor="middle" x="478" y="-172" font-family="Helvetica,sans-Serif" font-size="10.00">Adafruit_SSD1306.h</text>
</a>
</g>
</g>
<!-- Node2&#45;&gt;Node5 -->
<g id="edge4_Node000002_Node000005" class="edge">
<title>Node2&#45;&gt;Node5</title>
<g id="a_edge4_Node000002_Node000005"><a xlink:title=" ">
<path fill="none" stroke="#63b8ff" d="M427.64,-219.98C436.51,-212.15 449.87,-200.34 460.61,-190.86"/>
<polygon fill="#63b8ff" stroke="#63b8ff" points="463.01,-193.41 468.18,-184.17 458.37,-188.17 463.01,-193.41"/>
</a>
</g>
</g>
<!-- Node6 -->
<g id="Node000006" class="node">
<title>Node6</title>
<g id="a_Node000006"><a xlink:title=" ">
<polygon fill="#e0e0e0" stroke="#999999" points="593.5,-184 552.5,-184 552.5,-165 593.5,-165 593.5,-184"/>
<text text-anchor="middle" x="573" y="-172" font-family="Helvetica,sans-Serif" font-size="10.00">SPI.h</text>
</a>
</g>
</g>
<!-- Node2&#45;&gt;Node6 -->
<g id="edge5_Node000002_Node000006" class="edge">
<title>Node2&#45;&gt;Node6</title>
<g id="a_edge5_Node000002_Node000006"><a xlink:title=" ">
<path fill="none" stroke="#63b8ff" d="M442.9,-219.98C470,-210.72 513.35,-195.9 542.47,-185.94"/>
<polygon fill="#63b8ff" stroke="#63b8ff" points="543.8,-189.18 552.13,-182.63 541.54,-182.56 543.8,-189.18"/>
</a>
</g>
</g>
<!-- Node7 -->
<g id="Node000007" class="node">
<title>Node7</title>
<g id="a_Node000007"><a xlink:title=" ">
<polygon fill="#e0e0e0" stroke="#999999" points="660,-184 612,-184 612,-165 660,-165 660,-184"/>
<text text-anchor="middle" x="636" y="-172" font-family="Helvetica,sans-Serif" font-size="10.00">Wire.h</text>
</a>
</g>
</g>
<!-- Node2&#45;&gt;Node7 -->
<g id="edge6_Node000002_Node000007" class="edge">
<title>Node2&#45;&gt;Node7</title>
<g id="a_edge6_Node000002_Node000007"><a xlink:title=" ">
<path fill="none" stroke="#63b8ff" d="M453.64,-219.97C490.72,-211.07 550.46,-196.68 602,-184 602.1,-183.98 602.2,-183.95 602.3,-183.93"/>
<polygon fill="#63b8ff" stroke="#63b8ff" points="602.99,-187.36 611.86,-181.56 601.31,-180.57 602.99,-187.36"/>
</a>
</g>
</g>
<!-- Node8 -->
<g id="Node000008" class="node">
<title>Node8</title>
<g id="a_Node000008"><a xlink:href="buttons_8h.html" target="_top" xlink:title="Definizioni e prototipi per la gestione degli input utente e della UI.">
<polygon fill="white" stroke="#666666" points="219,-184 157,-184 157,-165 219,-165 219,-184"/>
<text text-anchor="middle" x="188" y="-172" font-family="Helvetica,sans-Serif" font-size="10.00">buttons.h</text>
</a>
</g>
</g>
<!-- Node2&#45;&gt;Node8 -->
<g id="edge7_Node000002_Node000008" class="edge">
<title>Node2&#45;&gt;Node8</title>
<g id="a_edge7_Node000002_Node000008"><a xlink:title=" ">
<path fill="none" stroke="#63b8ff" d="M380.4,-220.96C338.79,-211.89 272.14,-196.58 229.16,-186.27"/>
<polygon fill="#63b8ff" stroke="#63b8ff" points="229.85,-182.83 219.31,-183.89 228.2,-189.63 229.85,-182.83"/>
</a>
</g>
</g>
<!-- Node11 -->
<g id="Node000011" class="node">
<title>Node11</title>
<g id="a_Node000011"><a xlink:href="leds_8h.html" target="_top" xlink:title="Definizioni hardware e prototipi per la gestione dei LED RGB.">
<polygon fill="white" stroke="#666666" points="653,-129 607,-129 607,-110 653,-110 653,-129"/>
<text text-anchor="middle" x="630" y="-117" font-family="Helvetica,sans-Serif" font-size="10.00">leds.h</text>
</a>
</g>
</g>
<!-- Node2&#45;&gt;Node11 -->
<g id="edge35_Node000002_Node000011" class="edge">
<title>Node2&#45;&gt;Node11</title>
<g id="a_edge35_Node000002_Node000011"><a xlink:title=" ">
<path fill="none" stroke="#63b8ff" d="M455.56,-227.52C518.78,-224.98 642.2,-215.97 669,-184 681.81,-168.72 665.06,-148.82 649.7,-135.4"/>
<polygon fill="#63b8ff" stroke="#63b8ff" points="651.9,-132.68 641.95,-129.04 647.46,-138.09 651.9,-132.68"/>
</a>
</g>
</g>
<!-- Node2&#45;&gt;Node13 -->
<g id="edge34_Node000002_Node000013" class="edge">
<title>Node2&#45;&gt;Node13</title>
<g id="a_edge34_Node000002_Node000013"><a xlink:title=" ">
<path fill="none" stroke="#63b8ff" d="M380.33,-220.85C354.48,-214.24 320.41,-202.73 295,-184 278.37,-171.74 264.79,-152.14 256.38,-137.96"/>
<polygon fill="#63b8ff" stroke="#63b8ff" points="259.37,-136.14 251.4,-129.16 253.28,-139.59 259.37,-136.14"/>
</a>
</g>
</g>
<!-- Node25 -->
<g id="Node000025" class="node">
<title>Node25</title>
<g id="a_Node000025"><a xlink:href="temp_8h.html" target="_top" xlink:title="Definizioni hardware e prototipi per la lettura della temperatura.">
<polygon fill="white" stroke="#666666" points="545.5,-129 494.5,-129 494.5,-110 545.5,-110 545.5,-129"/>
<text text-anchor="middle" x="520" y="-117" font-family="Helvetica,sans-Serif" font-size="10.00">temp.h</text>
</a>
</g>
</g>
<!-- Node2&#45;&gt;Node25 -->
<g id="edge32_Node000002_Node000025" class="edge">
<title>Node2&#45;&gt;Node25</title>
<g id="a_edge32_Node000002_Node000025"><a xlink:title=" ">
<path fill="none" stroke="#63b8ff" d="M380.18,-222C338.27,-213.17 279.6,-194.94 304,-165 326.33,-137.61 428.77,-126.58 484.18,-122.56"/>
<polygon fill="#63b8ff" stroke="#63b8ff" points="484.53,-126.04 494.27,-121.87 484.05,-119.06 484.53,-126.04"/>
</a>
</g>
</g>
<!-- Node8&#45;&gt;Node2 -->
<g id="edge11_Node000008_Node000002" class="edge">
<title>Node8&#45;&gt;Node2</title>
<g id="a_edge11_Node000008_Node000002"><a xlink:title=" ">
<path fill="none" stroke="#63b8ff" d="M219.32,-181.68C260.09,-190.48 331.13,-206.77 376.36,-217.62"/>
<polygon fill="#63b8ff" stroke="#63b8ff" points="375.62,-221.04 386.16,-219.98 377.26,-214.24 375.62,-221.04"/>
</a>
</g>
</g>
<!-- Node8&#45;&gt;Node3 -->
<g id="edge8_Node000008_Node000003" class="edge">
<title>Node8&#45;&gt;Node3</title>
<g id="a_edge8_Node000008_Node000003"><a xlink:title=" ">
<path fill="none" stroke="#63b8ff" d="M219.13,-165.12C290.69,-145.84 466.91,-98.38 547.53,-76.67"/>
<polygon fill="#63b8ff" stroke="#63b8ff" points="548.59,-80.01 557.33,-74.03 546.77,-73.25 548.59,-80.01"/>
</a>
</g>
</g>
<!-- Node9 -->
<g id="Node000009" class="node">
<title>Node9</title>
<g id="a_Node000009"><a xlink:title=" ">
<polygon fill="#e0e0e0" stroke="#999999" points="76,-74 0,-74 0,-55 76,-55 76,-74"/>
<text text-anchor="middle" x="38" y="-62" font-family="Helvetica,sans-Serif" font-size="10.00">pico/stdlib.h</text>
</a>
</g>
</g>
<!-- Node8&#45;&gt;Node9 -->
<g id="edge9_Node000008_Node000009" class="edge">
<title>Node8&#45;&gt;Node9</title>
<g id="a_edge9_Node000008_Node000009"><a xlink:title=" ">
<path fill="none" stroke="#63b8ff" d="M175.98,-164.84C150.31,-146.36 89.89,-102.86 58.2,-80.05"/>
<polygon fill="#63b8ff" stroke="#63b8ff" points="60.24,-77.2 50.08,-74.2 56.15,-82.88 60.24,-77.2"/>
</a>
</g>
</g>
<!-- Node10 -->
<g id="Node000010" class="node">
<title>Node10</title>
<g id="a_Node000010"><a xlink:title=" ">
<polygon fill="#e0e0e0" stroke="#999999" points="189.5,-74 94.5,-74 94.5,-55 189.5,-55 189.5,-74"/>
<text text-anchor="middle" x="142" y="-62" font-family="Helvetica,sans-Serif" font-size="10.00">hardware/gpio.h</text>
</a>
</g>
</g>
<!-- Node8&#45;&gt;Node10 -->
<g id="edge10_Node000008_Node000010" class="edge">
<title>Node8&#45;&gt;Node10</title>
<g id="a_edge10_Node000008_Node000010"><a xlink:title=" ">
<path fill="none" stroke="#63b8ff" d="M184.24,-164.66C176.72,-147.01 159.71,-107.09 149.72,-83.64"/>
<polygon fill="#63b8ff" stroke="#63b8ff" points="152.83,-81.99 145.69,-74.16 146.39,-84.73 152.83,-81.99"/>
</a>
</g>
</g>
<!-- Node8&#45;&gt;Node11 -->
<g id="edge12_Node000008_Node000011" class="edge">
<title>Node8&#45;&gt;Node11</title>
<g id="a_edge12_Node000008_Node000011"><a xlink:title=" ">
<path fill="none" stroke="#63b8ff" d="M219.08,-169.77C299.56,-160.12 514.21,-134.38 596.89,-124.47"/>
<polygon fill="#63b8ff" stroke="#63b8ff" points="597.47,-127.93 606.98,-123.26 596.64,-120.98 597.47,-127.93"/>
</a>
</g>
</g>
<!-- Node8&#45;&gt;Node13 -->
<g id="edge15_Node000008_Node000013" class="edge">
<title>Node8&#45;&gt;Node13</title>
<g id="a_edge15_Node000008_Node000013"><a xlink:title=" ">
<path fill="none" stroke="#63b8ff" d="M197.48,-164.98C206.2,-157.15 219.34,-145.34 229.9,-135.86"/>
<polygon fill="#63b8ff" stroke="#63b8ff" points="232.25,-138.46 237.35,-129.17 227.57,-133.25 232.25,-138.46"/>
</a>
</g>
</g>
<!-- Node11&#45;&gt;Node3 -->
<g id="edge13_Node000011_Node000003" class="edge">
<title>Node11&#45;&gt;Node3</title>
<g id="a_edge13_Node000011_Node000003"><a xlink:title=" ">
<path fill="none" stroke="#63b8ff" d="M623.23,-109.75C617.44,-102.26 608.94,-91.28 601.86,-82.13"/>
<polygon fill="#63b8ff" stroke="#63b8ff" points="604.53,-79.86 595.64,-74.09 598.99,-84.14 604.53,-79.86"/>
</a>
</g>
</g>
<!-- Node12 -->
<g id="Node000012" class="node">
<title>Node12</title>
<g id="a_Node000012"><a xlink:title=" ">
<polygon fill="#e0e0e0" stroke="#999999" points="703,-74 639,-74 639,-55 703,-55 703,-74"/>
<text text-anchor="middle" x="671" y="-62" font-family="Helvetica,sans-Serif" font-size="10.00">FastLED.h</text>
</a>
</g>
</g>
<!-- Node11&#45;&gt;Node12 -->
<g id="edge14_Node000011_Node000012" class="edge">
<title>Node11&#45;&gt;Node12</title>
<g id="a_edge14_Node000011_Node000012"><a xlink:title=" ">
<path fill="none" stroke="#63b8ff" d="M636.77,-109.75C642.56,-102.26 651.06,-91.28 658.14,-82.13"/>
<polygon fill="#63b8ff" stroke="#63b8ff" points="661.01,-84.14 664.36,-74.09 655.47,-79.86 661.01,-84.14"/>
</a>
</g>
</g>
<!-- Node13&#45;&gt;Node3 -->
<g id="edge16_Node000013_Node000003" class="edge">
<title>Node13&#45;&gt;Node3</title>
<g id="a_edge16_Node000013_Node000003"><a xlink:title=" ">
<path fill="none" stroke="#63b8ff" d="M268.6,-115.74C316.7,-109.51 436.42,-93.48 547.24,-74.04"/>
<polygon fill="#63b8ff" stroke="#63b8ff" points="548.01,-77.46 557.25,-72.27 546.79,-70.57 548.01,-77.46"/>
</a>
</g>
</g>
<!-- Node13&#45;&gt;Node9 -->
<g id="edge25_Node000013_Node000009" class="edge">
<title>Node13&#45;&gt;Node9</title>
<g id="a_edge25_Node000013_Node000009"><a xlink:title=" ">
<path fill="none" stroke="#63b8ff" d="M225.42,-113.03C191.65,-104.46 125.64,-87.72 81.67,-76.57"/>
<polygon fill="#63b8ff" stroke="#63b8ff" points="82.38,-73.14 71.82,-74.08 80.66,-79.93 82.38,-73.14"/>
</a>
</g>
</g>
<!-- Node13&#45;&gt;Node10 -->
<g id="edge26_Node000013_Node000010" class="edge">
<title>Node13&#45;&gt;Node10</title>
<g id="a_edge26_Node000013_Node000010"><a xlink:title=" ">
<path fill="none" stroke="#63b8ff" d="M230.13,-109.98C213.39,-101.54 187.5,-88.47 168.11,-78.68"/>
<polygon fill="#63b8ff" stroke="#63b8ff" points="169.68,-75.55 159.18,-74.17 166.53,-81.8 169.68,-75.55"/>
</a>
</g>
</g>
<!-- Node14 -->
<g id="Node000014" class="node">
<title>Node14</title>
<g id="a_Node000014"><a xlink:title=" ">
<polygon fill="#e0e0e0" stroke="#999999" points="432,-19 384,-19 384,0 432,0 432,-19"/>
<text text-anchor="middle" x="408" y="-7" font-family="Helvetica,sans-Serif" font-size="10.00">time.h</text>
</a>
</g>
</g>
<!-- Node13&#45;&gt;Node14 -->
<g id="edge17_Node000013_Node000014" class="edge">
<title>Node13&#45;&gt;Node14</title>
<g id="a_edge17_Node000013_Node000014"><a xlink:title=" ">
<path fill="none" stroke="#63b8ff" d="M268.51,-116.91C297.74,-113.65 350.05,-103.78 382,-74 394.65,-62.21 401.32,-43.37 404.71,-29.26"/>
<polygon fill="#63b8ff" stroke="#63b8ff" points="408.2,-29.7 406.79,-19.2 401.34,-28.28 408.2,-29.7"/>
</a>
</g>
</g>
<!-- Node15 -->
<g id="Node000015" class="node">
<title>Node15</title>
<g id="a_Node000015"><a xlink:title=" ">
<polygon fill="#e0e0e0" stroke="#999999" points="373,-74 305,-74 305,-55 373,-55 373,-74"/>
<text text-anchor="middle" x="339" y="-62" font-family="Helvetica,sans-Serif" font-size="10.00">sys/time.h</text>
</a>
</g>
</g>
<!-- Node13&#45;&gt;Node15 -->
<g id="edge18_Node000013_Node000015" class="edge">
<title>Node13&#45;&gt;Node15</title>
<g id="a_edge18_Node000013_Node000015"><a xlink:title=" ">
<path fill="none" stroke="#63b8ff" d="M261.78,-109.98C276.18,-101.69 298.31,-88.94 315.19,-79.22"/>
<polygon fill="#63b8ff" stroke="#63b8ff" points="317.03,-82.19 323.95,-74.17 313.54,-76.13 317.03,-82.19"/>
</a>
</g>
</g>
<!-- Node16 -->
<g id="Node000016" class="node">
<title>Node16</title>
<g id="a_Node000016"><a xlink:href="minmea_8h.html" target="_top" xlink:title=" ">
<polygon fill="white" stroke="#666666" points="539,-74 429,-74 429,-55 539,-55 539,-74"/>
<text text-anchor="middle" x="484" y="-62" font-family="Helvetica,sans-Serif" font-size="10.00">minmea/minmea.h</text>
</a>
</g>
</g>
<!-- Node13&#45;&gt;Node16 -->
<g id="edge19_Node000013_Node000016" class="edge">
<title>Node13&#45;&gt;Node16</title>
<g id="a_edge19_Node000013_Node000016"><a xlink:title=" ">
<path fill="none" stroke="#63b8ff" d="M268.87,-113.61C306.69,-105.15 385.12,-87.61 436.11,-76.21"/>
<polygon fill="#63b8ff" stroke="#63b8ff" points="436.93,-79.61 445.92,-74.02 435.4,-72.78 436.93,-79.61"/>
</a>
</g>
</g>
<!-- Node21 -->
<g id="Node000021" class="node">
<title>Node21</title>
<g id="a_Node000021"><a xlink:href="Filesystem_8h.html" target="_top" xlink:title="Interfaccia per la gestione del filesystem FatFS e l&#39;integrazione USB Mass Storage.">
<polygon fill="white" stroke="#666666" points="286.5,-74 207.5,-74 207.5,-55 286.5,-55 286.5,-74"/>
<text text-anchor="middle" x="247" y="-62" font-family="Helvetica,sans-Serif" font-size="10.00">Filesystem.h</text>
</a>
</g>
</g>
<!-- Node13&#45;&gt;Node21 -->
<g id="edge27_Node000013_Node000021" class="edge">
<title>Node13&#45;&gt;Node21</title>
<g id="a_edge27_Node000013_Node000021"><a xlink:title=" ">
<path fill="none" stroke="#63b8ff" d="M247,-109.75C247,-102.8 247,-92.85 247,-84.13"/>
<polygon fill="#63b8ff" stroke="#63b8ff" points="250.5,-84.09 247,-74.09 243.5,-84.09 250.5,-84.09"/>
</a>
</g>
</g>
<!-- Node16&#45;&gt;Node14 -->
<g id="edge23_Node000016_Node000014" class="edge">
<title>Node16&#45;&gt;Node14</title>
<g id="a_edge23_Node000016_Node000014"><a xlink:title=" ">
<path fill="none" stroke="#63b8ff" d="M471.79,-54.98C460.22,-46.92 442.62,-34.65 428.84,-25.03"/>
<polygon fill="#63b8ff" stroke="#63b8ff" points="430.64,-22.02 420.43,-19.17 426.63,-27.76 430.64,-22.02"/>
</a>
</g>
</g>
<!-- Node17 -->
<g id="Node000017" class="node">
<title>Node17</title>
<g id="a_Node000017"><a xlink:title=" ">
<polygon fill="#e0e0e0" stroke="#999999" points="572.5,-19 519.5,-19 519.5,0 572.5,0 572.5,-19"/>
<text text-anchor="middle" x="546" y="-7" font-family="Helvetica,sans-Serif" font-size="10.00">ctype.h</text>
</a>
</g>
</g>
<!-- Node16&#45;&gt;Node17 -->
<g id="edge20_Node000016_Node000017" class="edge">
<title>Node16&#45;&gt;Node17</title>
<g id="a_edge20_Node000016_Node000017"><a xlink:title=" ">
<path fill="none" stroke="#63b8ff" d="M493.96,-54.98C503.13,-47.15 516.94,-35.34 528.03,-25.86"/>
<polygon fill="#63b8ff" stroke="#63b8ff" points="530.53,-28.33 535.86,-19.17 525.98,-23.01 530.53,-28.33"/>
</a>
</g>
</g>
<!-- Node18 -->
<g id="Node000018" class="node">
<title>Node18</title>
<g id="a_Node000018"><a xlink:title=" ">
<polygon fill="#e0e0e0" stroke="#999999" points="365.5,-19 312.5,-19 312.5,0 365.5,0 365.5,-19"/>
<text text-anchor="middle" x="339" y="-7" font-family="Helvetica,sans-Serif" font-size="10.00">stdint.h</text>
</a>
</g>
</g>
<!-- Node16&#45;&gt;Node18 -->
<g id="edge21_Node000016_Node000018" class="edge">
<title>Node16&#45;&gt;Node18</title>
<g id="a_edge21_Node000016_Node000018"><a xlink:title=" ">
<path fill="none" stroke="#63b8ff" d="M460.7,-54.98C436.75,-46.23 399.22,-32.51 372.17,-22.62"/>
<polygon fill="#63b8ff" stroke="#63b8ff" points="373.31,-19.32 362.72,-19.17 370.91,-25.89 373.31,-19.32"/>
</a>
</g>
</g>
<!-- Node19 -->
<g id="Node000019" class="node">
<title>Node19</title>
<g id="a_Node000019"><a xlink:title=" ">
<polygon fill="#e0e0e0" stroke="#999999" points="653,-19 591,-19 591,0 653,0 653,-19"/>
<text text-anchor="middle" x="622" y="-7" font-family="Helvetica,sans-Serif" font-size="10.00">stdbool.h</text>
</a>
</g>
</g>
<!-- Node16&#45;&gt;Node19 -->
<g id="edge22_Node000016_Node000019" class="edge">
<title>Node16&#45;&gt;Node19</title>
<g id="a_edge22_Node000016_Node000019"><a xlink:title=" ">
<path fill="none" stroke="#63b8ff" d="M506.17,-54.98C528.77,-46.3 564.06,-32.75 589.75,-22.88"/>
<polygon fill="#63b8ff" stroke="#63b8ff" points="591.34,-26.02 599.42,-19.17 588.83,-19.49 591.34,-26.02"/>
</a>
</g>
</g>
<!-- Node20 -->
<g id="Node000020" class="node">
<title>Node20</title>
<g id="a_Node000020"><a xlink:title=" ">
<polygon fill="#e0e0e0" stroke="#999999" points="501.5,-19 450.5,-19 450.5,0 501.5,0 501.5,-19"/>
<text text-anchor="middle" x="476" y="-7" font-family="Helvetica,sans-Serif" font-size="10.00">math.h</text>
</a>
</g>
</g>
<!-- Node16&#45;&gt;Node20 -->
<g id="edge24_Node000016_Node000020" class="edge">
<title>Node16&#45;&gt;Node20</title>
<g id="a_edge24_Node000016_Node000020"><a xlink:title=" ">
<path fill="none" stroke="#63b8ff" d="M482.68,-54.75C481.63,-47.8 480.13,-37.85 478.81,-29.13"/>
<polygon fill="#63b8ff" stroke="#63b8ff" points="482.25,-28.45 477.3,-19.09 475.33,-29.5 482.25,-28.45"/>
</a>
</g>
</g>
<!-- Node21&#45;&gt;Node18 -->
<g id="edge30_Node000021_Node000018" class="edge">
<title>Node21&#45;&gt;Node18</title>
<g id="a_edge30_Node000021_Node000018"><a xlink:title=" ">
<path fill="none" stroke="#63b8ff" d="M261.78,-54.98C276.18,-46.69 298.31,-33.94 315.19,-24.22"/>
<polygon fill="#63b8ff" stroke="#63b8ff" points="317.03,-27.19 323.95,-19.17 313.54,-21.13 317.03,-27.19"/>
</a>
</g>
</g>
<!-- Node22 -->
<g id="Node000022" class="node">
<title>Node22</title>
<g id="a_Node000022"><a xlink:title=" ">
<polygon fill="#e0e0e0" stroke="#999999" points="142.5,-19 91.5,-19 91.5,0 142.5,0 142.5,-19"/>
<text text-anchor="middle" x="117" y="-7" font-family="Helvetica,sans-Serif" font-size="10.00">FatFS.h</text>
</a>
</g>
</g>
<!-- Node21&#45;&gt;Node22 -->
<g id="edge28_Node000021_Node000022" class="edge">
<title>Node21&#45;&gt;Node22</title>
<g id="a_edge28_Node000021_Node000022"><a xlink:title=" ">
<path fill="none" stroke="#63b8ff" d="M226.11,-54.98C204.92,-46.34 171.87,-32.87 147.7,-23.02"/>
<polygon fill="#63b8ff" stroke="#63b8ff" points="148.85,-19.7 138.27,-19.17 146.21,-26.19 148.85,-19.7"/>
</a>
</g>
</g>
<!-- Node23 -->
<g id="Node000023" class="node">
<title>Node23</title>
<g id="a_Node000023"><a xlink:title=" ">
<polygon fill="#e0e0e0" stroke="#999999" points="231.5,-19 160.5,-19 160.5,0 231.5,0 231.5,-19"/>
<text text-anchor="middle" x="196" y="-7" font-family="Helvetica,sans-Serif" font-size="10.00">FatFSUSB.h</text>
</a>
</g>
</g>
<!-- Node21&#45;&gt;Node23 -->
<g id="edge29_Node000021_Node000023" class="edge">
<title>Node21&#45;&gt;Node23</title>
<g id="a_edge29_Node000021_Node000023"><a xlink:title=" ">
<path fill="none" stroke="#63b8ff" d="M238.58,-54.75C231.23,-47.11 220.37,-35.82 211.46,-26.56"/>
<polygon fill="#63b8ff" stroke="#63b8ff" points="213.72,-23.87 204.26,-19.09 208.68,-28.72 213.72,-23.87"/>
</a>
</g>
</g>
<!-- Node24 -->
<g id="Node000024" class="node">
<title>Node24</title>
<g id="a_Node000024"><a xlink:title=" ">
<polygon fill="#e0e0e0" stroke="#999999" points="294,-19 250,-19 250,0 294,0 294,-19"/>
<text text-anchor="middle" x="272" y="-7" font-family="Helvetica,sans-Serif" font-size="10.00">VFS.h</text>
</a>
</g>
</g>
<!-- Node21&#45;&gt;Node24 -->
<g id="edge31_Node000021_Node000024" class="edge">
<title>Node21&#45;&gt;Node24</title>
<g id="a_edge31_Node000021_Node000024"><a xlink:title=" ">
<path fill="none" stroke="#63b8ff" d="M251.13,-54.75C254.51,-47.57 259.42,-37.18 263.62,-28.27"/>
<polygon fill="#63b8ff" stroke="#63b8ff" points="266.85,-29.63 267.95,-19.09 260.52,-26.64 266.85,-29.63"/>
</a>
</g>
</g>
<!-- Node25&#45;&gt;Node3 -->
<g id="edge33_Node000025_Node000003" class="edge">
<title>Node25&#45;&gt;Node3</title>
<g id="a_edge33_Node000025_Node000003"><a xlink:title=" ">
<path fill="none" stroke="#63b8ff" d="M531.09,-109.98C541.49,-102 557.26,-89.88 569.72,-80.31"/>
<polygon fill="#63b8ff" stroke="#63b8ff" points="571.91,-83.04 577.71,-74.17 567.65,-77.49 571.91,-83.04"/>
</a>
</g>
</g>
<!-- Node26&#45;&gt;Node3 -->
<g id="edge37_Node000026_Node000003" class="edge">
<title>Node26&#45;&gt;Node3</title>
<g id="a_edge37_Node000026_Node000003"><a xlink:title=" ">
<path fill="none" stroke="#63b8ff" d="M692.65,-219.98C709.58,-213.17 729.89,-201.76 740,-184 756.27,-155.42 759.7,-136.34 740,-110 733.28,-101.01 672.97,-85.22 630.64,-75.07"/>
<polygon fill="#63b8ff" stroke="#63b8ff" points="631.38,-71.65 620.84,-72.75 629.76,-78.46 631.38,-71.65"/>
</a>
</g>
</g>
</g>
</svg>

<g id="navigator" transform="translate(0 0)" fill="#404254">
  <rect fill="#f2f5e9" fill-opacity="0.5" stroke="#606060" stroke-width=".5" x="0" y="0" width="60" height="60"/>
  <use id="zoomplus" xlink:href="#zoomPlus" x="17" y="9" onmousedown="handleZoom(evt,'in')"/>
  <use id="zoomminus" xlink:href="#zoomMin" x="42" y="9" onmousedown="handleZoom(evt,'out')"/>
  <use id="reset" xlink:href="#resetDef" x="30" y="36" onmousedown="handleReset()"/>
   <use id="arrowup" xlink:href="#arrowUp" x="0" y="0" onmousedown="handlePan(0,-1)"/>
  <use id="arrowright" xlink:href="#arrowRight" x="0" y="0" onmousedown="handlePan(1,0)"/>
  <use id="arrowdown" xlink:href="#arrowDown" x="0" y="0" onmousedown="handlePan(0,1)"/>
  <use id="arrowleft" xlink:href="#arrowLeft" x="0" y="0" onmousedown="handlePan(-1,0)"/>
</g>
<svg viewBox="0 0 15 15" width="100%" height="30px" preserveAspectRatio="xMaxYMin meet">
 <g id="arrow_out" transform="scale(0.3 0.3)">
  <a xlink:href="display__ui_8cpp__incl_org.svg" target="_base">
   <rect id="button" ry="5" rx="5" y="6" x="6" height="38" width="38"
        fill="#f2f5e9" fill-opacity="0.5" stroke="#606060" stroke-width="1.0"/>
   <path id="arrow"
     d="M 11.500037,31.436501 C 11.940474,20.09759 22.043105,11.32322 32.158766,21.979434 L 37.068811,17.246167 C 37.068811,17.246167 37.088388,32 37.088388,32 L 22.160133,31.978069 C 22.160133,31.978069 26.997745,27.140456 26.997745,27.140456 C 18.528582,18.264221 13.291696,25.230495 11.500037,31.436501 z"
     style="fill:#404040;"/>
  </a>
 </g>
</svg>

<style type='text/css'>
<![CDATA[
[data-mouse-over-selected='false'] { opacity: 0.7; }
[data-mouse-over-selected='true']  { opacity: 1.0; }
]]>
</style>
<script type="application/ecmascript"><![CDATA[
document.addEventListener('DOMContentLoaded', (event) => {
  highlightEdges();
  highlightAdjacentNodes();
});
]]></script>
</svg>
