<?xml version="1.0" encoding="UTF-8" standalone="no"?>
<!DOCTYPE svg PUBLIC "-//W3C//DTD SVG 1.1//EN"
 "http://www.w3.org/Graphics/SVG/1.1/DTD/svg11.dtd">
<!-- Generated by graphviz version 2.43.0 (0)
 -->
<!-- Title: firm/include/display_ui.h Pages: 1 -->
<svg width="371pt" height="137pt"
 viewBox="0.00 0.00 370.50 137.00" xmlns="http://www.w3.org/2000/svg" xmlns:xlink="http://www.w3.org/1999/xlink">
<g id="graph0" class="graph" transform="scale(1 1) rotate(0) translate(4 133)">
<title>firm/include/display_ui.h</title>
<!-- Node1 -->
<g id="Node000001" class="node">
<title>Node1</title>
<g id="a_Node000001"><a xlink:title="Definizioni hardware e prototipi per l&#39;interfaccia utente OLED.">
<polygon fill="#999999" stroke="#666666" points="186.5,-129 50.5,-129 50.5,-110 186.5,-110 186.5,-129"/>
<text text-anchor="middle" x="118.5" y="-117" font-family="Helvetica,sans-Serif" font-size="10.00">firm/include/display_ui.h</text>
</a>
</g>
</g>
<!-- Node2 -->
<g id="Node000002" class="node">
<title>Node2</title>
<g id="a_Node000002"><a xlink:href="buttons_8h.html" target="_top" xlink:title="Definizioni e prototipi per la gestione degli input utente e della UI.">
<polygon fill="white" stroke="#666666" points="180,-74 57,-74 57,-55 180,-55 180,-74"/>
<text text-anchor="middle" x="118.5" y="-62" font-family="Helvetica,sans-Serif" font-size="10.00">firm/include/buttons.h</text>
</a>
</g>
</g>
<!-- Node1&#45;&gt;Node2 -->
<g id="edge1_Node000001_Node000002" class="edge">
<title>Node1&#45;&gt;Node2</title>
<g id="a_edge1_Node000001_Node000002"><a xlink:title=" ">
<path fill="none" stroke="#63b8ff" d="M112.01,-99.66C111.41,-90.93 111.86,-80.99 113.37,-74.09"/>
<polygon fill="#63b8ff" stroke="#63b8ff" points="108.56,-100.29 113.33,-109.75 115.5,-99.38 108.56,-100.29"/>
</a>
</g>
</g>
<!-- Node3 -->
<g id="Node000003" class="node">
<title>Node3</title>
<g id="a_Node000003"><a xlink:href="buttons_8cpp_source.html" target="_top" xlink:title=" ">
<polygon fill="white" stroke="#666666" points="113,-19 0,-19 0,0 113,0 113,-19"/>
<text text-anchor="middle" x="56.5" y="-7" font-family="Helvetica,sans-Serif" font-size="10.00">firm/src/buttons.cpp</text>
</a>
</g>
</g>
<!-- Node1&#45;&gt;Node3 -->
<g id="edge5_Node000001_Node000003" class="edge">
<title>Node1&#45;&gt;Node3</title>
<g id="a_edge5_Node000001_Node000003"><a xlink:title=" ">
<path fill="none" stroke="#63b8ff" d="M83.61,-105.5C69.79,-98.43 55.34,-88.17 47.5,-74 37.8,-56.46 46.19,-32.19 52.03,-19.33"/>
<polygon fill="#63b8ff" stroke="#63b8ff" points="82.45,-108.82 92.99,-109.9 85.42,-102.48 82.45,-108.82"/>
</a>
</g>
</g>
<!-- Node4 -->
<g id="Node000004" class="node">
<title>Node4</title>
<g id="a_Node000004"><a xlink:href="leds_8cpp_source.html" target="_top" xlink:title=" ">
<polygon fill="white" stroke="#666666" points="242,-19 145,-19 145,0 242,0 242,-19"/>
<text text-anchor="middle" x="193.5" y="-7" font-family="Helvetica,sans-Serif" font-size="10.00">firm/src/leds.cpp</text>
</a>
</g>
</g>
<!-- Node1&#45;&gt;Node4 -->
<g id="edge7_Node000001_Node000004" class="edge">
<title>Node1&#45;&gt;Node4</title>
<g id="a_edge7_Node000001_Node000004"><a xlink:title=" ">
<path fill="none" stroke="#63b8ff" d="M152.36,-105.57C166.29,-98.44 181.1,-88.12 189.5,-74 199.78,-56.72 197.47,-31.92 195.27,-19.02"/>
<polygon fill="#63b8ff" stroke="#63b8ff" points="150.51,-102.57 142.95,-110 153.49,-108.9 150.51,-102.57"/>
</a>
</g>
</g>
<!-- Node5 -->
<g id="Node000005" class="node">
<title>Node5</title>
<g id="a_Node000005"><a xlink:href="display__ui_8cpp_source.html" target="_top" xlink:title=" ">
<polygon fill="white" stroke="#666666" points="362.5,-74 236.5,-74 236.5,-55 362.5,-55 362.5,-74"/>
<text text-anchor="middle" x="299.5" y="-62" font-family="Helvetica,sans-Serif" font-size="10.00">firm/src/display_ui.cpp</text>
</a>
</g>
</g>
<!-- Node1&#45;&gt;Node5 -->
<g id="edge6_Node000001_Node000005" class="edge">
<title>Node1&#45;&gt;Node5</title>
<g id="a_edge6_Node000001_Node000005"><a xlink:title=" ">
<path fill="none" stroke="#63b8ff" d="M157.58,-107.06C191.41,-97.15 239.58,-83.04 270.19,-74.08"/>
<polygon fill="#63b8ff" stroke="#63b8ff" points="156.19,-103.82 147.58,-109.98 158.16,-110.53 156.19,-103.82"/>
</a>
</g>
</g>
<!-- Node2&#45;&gt;Node1 -->
<g id="edge2_Node000002_Node000001" class="edge">
<title>Node2&#45;&gt;Node1</title>
<g id="a_edge2_Node000002_Node000001"><a xlink:title=" ">
<path fill="none" stroke="#63b8ff" d="M124.98,-84.13C125.6,-92.85 125.16,-102.8 123.67,-109.75"/>
<polygon fill="#63b8ff" stroke="#63b8ff" points="128.43,-83.53 123.63,-74.09 121.49,-84.47 128.43,-83.53"/>
</a>
</g>
</g>
<!-- Node2&#45;&gt;Node3 -->
<g id="edge3_Node000002_Node000003" class="edge">
<title>Node2&#45;&gt;Node3</title>
<g id="a_edge3_Node000002_Node000003"><a xlink:title=" ">
<path fill="none" stroke="#63b8ff" d="M100.75,-48.32C89.69,-38.87 75.87,-27.06 66.64,-19.17"/>
<polygon fill="#63b8ff" stroke="#63b8ff" points="98.66,-51.15 108.54,-54.98 103.21,-45.83 98.66,-51.15"/>
</a>
</g>
</g>
<!-- Node2&#45;&gt;Node4 -->
<g id="edge4_Node000002_Node000004" class="edge">
<title>Node2&#45;&gt;Node4</title>
<g id="a_edge4_Node000002_Node000004"><a xlink:title=" ">
<path fill="none" stroke="#63b8ff" d="M138.81,-49.15C152.36,-39.57 169.74,-27.29 181.23,-19.17"/>
<polygon fill="#63b8ff" stroke="#63b8ff" points="136.7,-46.36 130.55,-54.98 140.74,-52.07 136.7,-46.36"/>
</a>
</g>
</g>
</g>
</svg>
