<?xml version="1.0" encoding="UTF-8" standalone="no"?>
<!DOCTYPE svg PUBLIC "-//W3C//DTD SVG 1.1//EN"
 "http://www.w3.org/Graphics/SVG/1.1/DTD/svg11.dtd">
<!-- Generated by graphviz version 2.43.0 (0)
 -->
<!-- Title: drawMenu_evi Pages: 1 -->
<svg width="701pt" height="46pt"
 viewBox="0.00 0.00 701.00 46.00" xmlns="http://www.w3.org/2000/svg" xmlns:xlink="http://www.w3.org/1999/xlink">
<g id="graph0" class="graph" transform="scale(1 1) rotate(0) translate(4 42)">
<title>drawMenu_evi</title>
<!-- Node1 -->
<g id="Node000001" class="node">
<title>Node1</title>
<g id="a_Node000001"><a xlink:title="Renderizza forzatamente il menu con stile evidenziato (testo invertito).">
<polygon fill="#999999" stroke="#666666" points="693,-38 605,-38 605,-19 693,-19 693,-38"/>
<text text-anchor="middle" x="649" y="-26" font-family="Helvetica,sans-Serif" font-size="10.00">drawMenu_evi</text>
</a>
</g>
</g>
<!-- Node2 -->
<g id="Node000002" class="node">
<title>Node2</title>
<g id="a_Node000002"><a xlink:href="display__ui_8cpp.html#a0cc779d48595c7be531222945c8a5f10" target="_top" xlink:title="Renderizza il menu principale in base allo stile selezionato (ScreenStyle).">
<polygon fill="white" stroke="#666666" points="569,-38 501,-38 501,-19 569,-19 569,-38"/>
<text text-anchor="middle" x="535" y="-26" font-family="Helvetica,sans-Serif" font-size="10.00">drawMenu</text>
</a>
</g>
</g>
<!-- Node1&#45;&gt;Node2 -->
<g id="edge1_Node000001_Node000002" class="edge">
<title>Node1&#45;&gt;Node2</title>
<g id="a_edge1_Node000001_Node000002"><a xlink:title=" ">
<path fill="none" stroke="#63b8ff" d="M594.59,-28.5C585.9,-28.5 577.13,-28.5 569.11,-28.5"/>
<polygon fill="#63b8ff" stroke="#63b8ff" points="594.7,-32 604.7,-28.5 594.7,-25 594.7,-32"/>
</a>
</g>
</g>
<!-- Node3 -->
<g id="Node000003" class="node">
<title>Node3</title>
<g id="a_Node000003"><a xlink:href="buttons_8cpp.html#a362a9b2582e0724627b8cd9f2e16f599" target="_top" xlink:title="Funzione di update della logica dei menu. Da chiamare nel loop principale.">
<polygon fill="white" stroke="#666666" points="163,-38 74,-38 74,-19 163,-19 163,-38"/>
<text text-anchor="middle" x="118.5" y="-26" font-family="Helvetica,sans-Serif" font-size="10.00">buttonsUpdate</text>
</a>
</g>
</g>
<!-- Node2&#45;&gt;Node3 -->
<g id="edge2_Node000002_Node000003" class="edge">
<title>Node2&#45;&gt;Node3</title>
<g id="a_edge2_Node000002_Node000003"><a xlink:title=" ">
<path fill="none" stroke="#63b8ff" d="M490.63,-28.5C411.16,-28.5 243.06,-28.5 163.29,-28.5"/>
<polygon fill="#63b8ff" stroke="#63b8ff" points="490.78,-32 500.78,-28.5 490.78,-25 490.78,-32"/>
</a>
</g>
</g>
<!-- Node5 -->
<g id="Node000005" class="node">
<title>Node5</title>
<g id="a_Node000005"><a xlink:href="buttons_8cpp.html#a476aa2a0a9fd2be3bedddd06747816c4" target="_top" xlink:title="Azione eseguita al rilevamento della combo LEFT+RIGHT. Esegue il toggle tra modalità Home (Ambient) e...">
<polygon fill="white" stroke="#666666" points="465,-19 358,-19 358,0 465,0 465,-19"/>
<text text-anchor="middle" x="411.5" y="-7" font-family="Helvetica,sans-Serif" font-size="10.00">onLeftRightCombo</text>
</a>
</g>
</g>
<!-- Node2&#45;&gt;Node5 -->
<g id="edge4_Node000002_Node000005" class="edge">
<title>Node2&#45;&gt;Node5</title>
<g id="a_edge4_Node000002_Node000005"><a xlink:title=" ">
<path fill="none" stroke="#63b8ff" d="M490.69,-21.73C482.47,-20.44 473.78,-19.08 465.31,-17.76"/>
<polygon fill="#63b8ff" stroke="#63b8ff" points="490.38,-25.22 500.8,-23.31 491.46,-18.31 490.38,-25.22"/>
</a>
</g>
</g>
<!-- Node4 -->
<g id="Node000004" class="node">
<title>Node4</title>
<g id="a_Node000004"><a xlink:href="main_8cpp.html#afe461d27b9c48d5921c00d521181f12f" target="_top" xlink:title="Loop principale del Core 0.">
<polygon fill="white" stroke="#666666" points="38,-38 0,-38 0,-19 38,-19 38,-38"/>
<text text-anchor="middle" x="19" y="-26" font-family="Helvetica,sans-Serif" font-size="10.00">loop</text>
</a>
</g>
</g>
<!-- Node3&#45;&gt;Node4 -->
<g id="edge3_Node000003_Node000004" class="edge">
<title>Node3&#45;&gt;Node4</title>
<g id="a_edge3_Node000003_Node000004"><a xlink:title=" ">
<path fill="none" stroke="#63b8ff" d="M63.83,-28.5C54.59,-28.5 45.59,-28.5 38.17,-28.5"/>
<polygon fill="#63b8ff" stroke="#63b8ff" points="63.88,-32 73.88,-28.5 63.88,-25 63.88,-32"/>
</a>
</g>
</g>
<!-- Node6 -->
<g id="Node000006" class="node">
<title>Node6</title>
<g id="a_Node000006"><a xlink:href="buttons_8cpp.html#a668c3b350a802edf187d6c97a61b4358" target="_top" xlink:title="Verifica la pressione simultanea dei tasti LEFT e RIGHT.">
<polygon fill="white" stroke="#666666" points="322,-19 199,-19 199,0 322,0 322,-19"/>
<text text-anchor="middle" x="260.5" y="-7" font-family="Helvetica,sans-Serif" font-size="10.00">checkLeftRightCombo</text>
</a>
</g>
</g>
<!-- Node5&#45;&gt;Node6 -->
<g id="edge5_Node000005_Node000006" class="edge">
<title>Node5&#45;&gt;Node6</title>
<g id="a_edge5_Node000005_Node000006"><a xlink:title=" ">
<path fill="none" stroke="#63b8ff" d="M347.78,-9.5C339.31,-9.5 330.64,-9.5 322.21,-9.5"/>
<polygon fill="#63b8ff" stroke="#63b8ff" points="347.97,-13 357.97,-9.5 347.97,-6 347.97,-13"/>
</a>
</g>
</g>
<!-- Node6&#45;&gt;Node3 -->
<g id="edge6_Node000006_Node000003" class="edge">
<title>Node6&#45;&gt;Node3</title>
<g id="a_edge6_Node000006_Node000003"><a xlink:title=" ">
<path fill="none" stroke="#63b8ff" d="M188.75,-19.1C180.08,-20.28 171.42,-21.45 163.31,-22.55"/>
<polygon fill="#63b8ff" stroke="#63b8ff" points="189.47,-22.54 198.91,-17.72 188.53,-15.6 189.47,-22.54"/>
</a>
</g>
</g>
</g>
</svg>
