<?xml version="1.0" encoding="UTF-8" standalone="no"?>
<!DOCTYPE svg PUBLIC "-//W3C//DTD SVG 1.1//EN"
 "http://www.w3.org/Graphics/SVG/1.1/DTD/svg11.dtd">
<!-- Generated by graphviz version 2.43.0 (0)
 -->
<!-- Title: unplug Pages: 1 -->
<svg width="275pt" height="27pt"
 viewBox="0.00 0.00 275.00 27.00" xmlns="http://www.w3.org/2000/svg" xmlns:xlink="http://www.w3.org/1999/xlink">
<g id="graph0" class="graph" transform="scale(1 1) rotate(0) translate(4 23)">
<title>unplug</title>
<!-- Node1 -->
<g id="Node000001" class="node">
<title>Node1</title>
<g id="a_Node000001"><a xlink:title="Callback eseguito alla disconnessione USB.">
<polygon fill="#999999" stroke="#666666" points="267,-19 217,-19 217,0 267,0 267,-19"/>
<text text-anchor="middle" x="242" y="-7" font-family="Helvetica,sans-Serif" font-size="10.00">unplug</text>
</a>
</g>
</g>
<!-- Node2 -->
<g id="Node000002" class="node">
<title>Node2</title>
<g id="a_Node000002"><a xlink:href="Filesystem_8cpp.html#aadf4a6d086b5111da73b529111a54e2f" target="_top" xlink:title="Configura l&#39;interfaccia USB Mass Storage.">
<polygon fill="white" stroke="#666666" points="181,-19 86,-19 86,0 181,0 181,-19"/>
<text text-anchor="middle" x="133.5" y="-7" font-family="Helvetica,sans-Serif" font-size="10.00">FatFSUSB_Setup</text>
</a>
</g>
</g>
<!-- Node1&#45;&gt;Node2 -->
<g id="edge1_Node000001_Node000002" class="edge">
<title>Node1&#45;&gt;Node2</title>
<g id="a_edge1_Node000001_Node000002"><a xlink:title=" ">
<path fill="none" stroke="#63b8ff" d="M206.65,-9.5C198.55,-9.5 189.78,-9.5 181.24,-9.5"/>
<polygon fill="#63b8ff" stroke="#63b8ff" points="206.83,-13 216.83,-9.5 206.83,-6 206.83,-13"/>
</a>
</g>
</g>
<!-- Node3 -->
<g id="Node000003" class="node">
<title>Node3</title>
<g id="a_Node000003"><a xlink:href="main_8cpp.html#ac764ee28e2916a7de10b22927e02d1a4" target="_top" xlink:title="Configurazione iniziale per il Core 1.">
<polygon fill="white" stroke="#666666" points="50,-19 0,-19 0,0 50,0 50,-19"/>
<text text-anchor="middle" x="25" y="-7" font-family="Helvetica,sans-Serif" font-size="10.00">setup1</text>
</a>
</g>
</g>
<!-- Node2&#45;&gt;Node3 -->
<g id="edge2_Node000002_Node000003" class="edge">
<title>Node2&#45;&gt;Node3</title>
<g id="a_edge2_Node000002_Node000003"><a xlink:title=" ">
<path fill="none" stroke="#63b8ff" d="M75.65,-9.5C66.67,-9.5 57.84,-9.5 50.16,-9.5"/>
<polygon fill="#63b8ff" stroke="#63b8ff" points="75.79,-13 85.79,-9.5 75.79,-6 75.79,-13"/>
</a>
</g>
</g>
</g>
</svg>
