<?xml version="1.0" encoding="UTF-8" standalone="no"?>
<!DOCTYPE svg PUBLIC "-//W3C//DTD SVG 1.1//EN"
 "http://www.w3.org/Graphics/SVG/1.1/DTD/svg11.dtd">
<!-- Generated by graphviz version 2.43.0 (0)
 -->
<!-- Title: src/Modules/Filesystem.h Pages: 1 -->
<svg width="508pt" height="258pt"
 viewBox="0.00 0.00 508.00 258.00" xmlns="http://www.w3.org/2000/svg" xmlns:xlink="http://www.w3.org/1999/xlink">
<g id="graph0" class="graph" transform="scale(1 1) rotate(0) translate(4 254)">
<title>src/Modules/Filesystem.h</title>
<!-- Node1 -->
<g id="Node000001" class="node">
<title>Node1</title>
<g id="a_Node000001"><a xlink:title=" ">
<polygon fill="#999999" stroke="#666666" points="451.5,-250 311.5,-250 311.5,-231 451.5,-231 451.5,-250"/>
<text text-anchor="middle" x="381.5" y="-238" font-family="Helvetica,sans-Serif" font-size="10.00">src/Modules/Filesystem.h</text>
</a>
</g>
</g>
<!-- Node2 -->
<g id="Node000002" class="node">
<title>Node2</title>
<g id="a_Node000002"><a xlink:href="Filesystem_8cpp.html" target="_top" xlink:title=" ">
<polygon fill="white" stroke="#666666" points="311.5,-195 159.5,-195 159.5,-176 311.5,-176 311.5,-195"/>
<text text-anchor="middle" x="235.5" y="-183" font-family="Helvetica,sans-Serif" font-size="10.00">src/Modules/Filesystem.cpp</text>
</a>
</g>
</g>
<!-- Node1&#45;&gt;Node2 -->
<g id="edge1_Node000001_Node000002" class="edge">
<title>Node1&#45;&gt;Node2</title>
<g id="a_edge1_Node000001_Node000002"><a xlink:title=" ">
<path fill="none" stroke="#63b8ff" d="M348.58,-227.55C321.47,-217.71 283.67,-203.98 259.38,-195.17"/>
<polygon fill="#63b8ff" stroke="#63b8ff" points="347.45,-230.86 358.04,-230.98 349.84,-224.28 347.45,-230.86"/>
</a>
</g>
</g>
<!-- Node3 -->
<g id="Node000003" class="node">
<title>Node3</title>
<g id="a_Node000003"><a xlink:href="gps_8h.html" target="_top" xlink:title=" ">
<polygon fill="white" stroke="#666666" points="433.5,-195 329.5,-195 329.5,-176 433.5,-176 433.5,-195"/>
<text text-anchor="middle" x="381.5" y="-183" font-family="Helvetica,sans-Serif" font-size="10.00">src/Modules/gps.h</text>
</a>
</g>
</g>
<!-- Node1&#45;&gt;Node3 -->
<g id="edge2_Node000001_Node000003" class="edge">
<title>Node1&#45;&gt;Node3</title>
<g id="a_edge2_Node000001_Node000003"><a xlink:title=" ">
<path fill="none" stroke="#63b8ff" d="M381.5,-220.66C381.5,-211.93 381.5,-201.99 381.5,-195.09"/>
<polygon fill="#63b8ff" stroke="#63b8ff" points="378,-220.75 381.5,-230.75 385,-220.75 378,-220.75"/>
</a>
</g>
</g>
<!-- Node9 -->
<g id="Node000009" class="node">
<title>Node9</title>
<g id="a_Node000009"><a xlink:href="main_8cpp.html" target="_top" xlink:title=" ">
<polygon fill="white" stroke="#666666" points="500,-24.5 421,-24.5 421,-5.5 500,-5.5 500,-24.5"/>
<text text-anchor="middle" x="460.5" y="-12.5" font-family="Helvetica,sans-Serif" font-size="10.00">src/main.cpp</text>
</a>
</g>
</g>
<!-- Node1&#45;&gt;Node9 -->
<g id="edge18_Node000001_Node000009" class="edge">
<title>Node1&#45;&gt;Node9</title>
<g id="a_edge18_Node000001_Node000009"><a xlink:title=" ">
<path fill="none" stroke="#63b8ff" d="M409.64,-225.88C421.81,-218.49 434.97,-208.14 442.5,-195 475.58,-137.28 466.07,-51.69 461.95,-24.57"/>
<polygon fill="#63b8ff" stroke="#63b8ff" points="407.62,-223 400.63,-230.96 411.06,-229.1 407.62,-223"/>
</a>
</g>
</g>
<!-- Node4 -->
<g id="Node000004" class="node">
<title>Node4</title>
<g id="a_Node000004"><a xlink:href="buttons_8cpp.html" target="_top" xlink:title=" ">
<polygon fill="white" stroke="#666666" points="135,-24.5 0,-24.5 0,-5.5 135,-5.5 135,-24.5"/>
<text text-anchor="middle" x="67.5" y="-12.5" font-family="Helvetica,sans-Serif" font-size="10.00">src/Modules/buttons.cpp</text>
</a>
</g>
</g>
<!-- Node3&#45;&gt;Node4 -->
<g id="edge3_Node000003_Node000004" class="edge">
<title>Node3&#45;&gt;Node4</title>
<g id="a_edge3_Node000003_Node000004"><a xlink:title=" ">
<path fill="none" stroke="#63b8ff" d="M319.31,-175.58C233.37,-163.19 88.56,-142.06 86.5,-140 54.74,-108.31 61.79,-47.33 65.76,-24.72"/>
<polygon fill="#63b8ff" stroke="#63b8ff" points="318.83,-179.05 329.23,-177.01 319.83,-172.12 318.83,-179.05"/>
</a>
</g>
</g>
<!-- Node5 -->
<g id="Node000005" class="node">
<title>Node5</title>
<g id="a_Node000005"><a xlink:href="buttons_8h.html" target="_top" xlink:title=" ">
<polygon fill="white" stroke="#666666" points="219.5,-140 95.5,-140 95.5,-121 219.5,-121 219.5,-140"/>
<text text-anchor="middle" x="157.5" y="-128" font-family="Helvetica,sans-Serif" font-size="10.00">src/Modules/buttons.h</text>
</a>
</g>
</g>
<!-- Node3&#45;&gt;Node5 -->
<g id="edge4_Node000003_Node000005" class="edge">
<title>Node3&#45;&gt;Node5</title>
<g id="a_edge4_Node000003_Node000005"><a xlink:title=" ">
<path fill="none" stroke="#63b8ff" d="M335.55,-173.63C293.59,-163.7 232.38,-149.22 193.77,-140.08"/>
<polygon fill="#63b8ff" stroke="#63b8ff" points="334.97,-177.09 345.51,-175.98 336.59,-170.28 334.97,-177.09"/>
</a>
</g>
</g>
<!-- Node6 -->
<g id="Node000006" class="node">
<title>Node6</title>
<g id="a_Node000006"><a xlink:href="display__ui_8h.html" target="_top" xlink:title=" ">
<polygon fill="white" stroke="#666666" points="323,-85 186,-85 186,-66 323,-66 323,-85"/>
<text text-anchor="middle" x="254.5" y="-73" font-family="Helvetica,sans-Serif" font-size="10.00">src/Modules/display_ui.h</text>
</a>
</g>
</g>
<!-- Node3&#45;&gt;Node6 -->
<g id="edge15_Node000003_Node000006" class="edge">
<title>Node3&#45;&gt;Node6</title>
<g id="a_edge15_Node000003_Node000006"><a xlink:title=" ">
<path fill="none" stroke="#63b8ff" d="M380.15,-165.66C378.22,-151.78 373.6,-133.27 362.5,-121 345.77,-102.5 320.18,-91.51 298.11,-85.07"/>
<polygon fill="#63b8ff" stroke="#63b8ff" points="376.7,-166.39 381.21,-175.98 383.67,-165.68 376.7,-166.39"/>
</a>
</g>
</g>
<!-- Node7 -->
<g id="Node000007" class="node">
<title>Node7</title>
<g id="a_Node000007"><a xlink:href="display__ui_8cpp.html" target="_top" xlink:title=" ">
<polygon fill="white" stroke="#666666" points="403,-30 290,-30 290,0 403,0 403,-30"/>
<text text-anchor="start" x="298" y="-18" font-family="Helvetica,sans-Serif" font-size="10.00">src/Modules/display</text>
<text text-anchor="middle" x="346.5" y="-7" font-family="Helvetica,sans-Serif" font-size="10.00">_ui.cpp</text>
</a>
</g>
</g>
<!-- Node3&#45;&gt;Node7 -->
<g id="edge14_Node000003_Node000007" class="edge">
<title>Node3&#45;&gt;Node7</title>
<g id="a_edge14_Node000003_Node000007"><a xlink:title=" ">
<path fill="none" stroke="#63b8ff" d="M383.08,-165.56C383.75,-152.87 383.91,-135.83 381.5,-121 376.05,-87.43 361.41,-50.09 352.89,-30.23"/>
<polygon fill="#63b8ff" stroke="#63b8ff" points="379.57,-165.59 382.38,-175.8 386.55,-166.07 379.57,-165.59"/>
</a>
</g>
</g>
<!-- Node3&#45;&gt;Node9 -->
<g id="edge17_Node000003_Node000009" class="edge">
<title>Node3&#45;&gt;Node9</title>
<g id="a_edge17_Node000003_Node000009"><a xlink:title=" ">
<path fill="none" stroke="#63b8ff" d="M389.86,-166.67C406.66,-130.85 443.97,-51.27 456.39,-24.77"/>
<polygon fill="#63b8ff" stroke="#63b8ff" points="386.6,-165.37 385.53,-175.91 392.94,-168.34 386.6,-165.37"/>
</a>
</g>
</g>
<!-- Node10 -->
<g id="Node000010" class="node">
<title>Node10</title>
<g id="a_Node000010"><a xlink:href="gps_8cpp.html" target="_top" xlink:title=" ">
<polygon fill="white" stroke="#666666" points="353.5,-140 237.5,-140 237.5,-121 353.5,-121 353.5,-140"/>
<text text-anchor="middle" x="295.5" y="-128" font-family="Helvetica,sans-Serif" font-size="10.00">src/Modules/gps.cpp</text>
</a>
</g>
</g>
<!-- Node3&#45;&gt;Node10 -->
<g id="edge16_Node000003_Node000010" class="edge">
<title>Node3&#45;&gt;Node10</title>
<g id="a_edge16_Node000003_Node000010"><a xlink:title=" ">
<path fill="none" stroke="#63b8ff" d="M359.1,-170.7C343.43,-161.04 322.99,-148.44 309.57,-140.17"/>
<polygon fill="#63b8ff" stroke="#63b8ff" points="357.33,-173.72 367.68,-175.98 361.01,-167.76 357.33,-173.72"/>
</a>
</g>
</g>
<!-- Node5&#45;&gt;Node4 -->
<g id="edge5_Node000005_Node000004" class="edge">
<title>Node5&#45;&gt;Node4</title>
<g id="a_edge5_Node000005_Node000004"><a xlink:title=" ">
<path fill="none" stroke="#63b8ff" d="M144.39,-112.96C124.97,-88.48 89.27,-43.46 74.34,-24.63"/>
<polygon fill="#63b8ff" stroke="#63b8ff" points="141.78,-115.31 150.74,-120.97 147.26,-110.96 141.78,-115.31"/>
</a>
</g>
</g>
<!-- Node5&#45;&gt;Node6 -->
<g id="edge6_Node000005_Node000006" class="edge">
<title>Node5&#45;&gt;Node6</title>
<g id="a_edge6_Node000005_Node000006"><a xlink:title=" ">
<path fill="none" stroke="#63b8ff" d="M176.76,-115.7C193.2,-106.04 216.55,-93.44 233.48,-85.17"/>
<polygon fill="#63b8ff" stroke="#63b8ff" points="174.73,-112.83 167.97,-120.98 178.34,-118.83 174.73,-112.83"/>
</a>
</g>
</g>
<!-- Node8 -->
<g id="Node000008" class="node">
<title>Node8</title>
<g id="a_Node000008"><a xlink:href="leds_8cpp.html" target="_top" xlink:title=" ">
<polygon fill="white" stroke="#666666" points="272,-24.5 153,-24.5 153,-5.5 272,-5.5 272,-24.5"/>
<text text-anchor="middle" x="212.5" y="-12.5" font-family="Helvetica,sans-Serif" font-size="10.00">src/Modules/leds.cpp</text>
</a>
</g>
</g>
<!-- Node5&#45;&gt;Node8 -->
<g id="edge12_Node000005_Node000008" class="edge">
<title>Node5&#45;&gt;Node8</title>
<g id="a_edge12_Node000005_Node000008"><a xlink:title=" ">
<path fill="none" stroke="#63b8ff" d="M161.34,-110.89C164.43,-97.89 169.43,-80.37 176.5,-66 184.25,-50.26 196.84,-34.17 204.89,-24.63"/>
<polygon fill="#63b8ff" stroke="#63b8ff" points="157.85,-110.43 159.11,-120.95 164.69,-111.94 157.85,-110.43"/>
</a>
</g>
</g>
<!-- Node5&#45;&gt;Node9 -->
<g id="edge13_Node000005_Node000009" class="edge">
<title>Node5&#45;&gt;Node9</title>
<g id="a_edge13_Node000005_Node000009"><a xlink:title=" ">
<path fill="none" stroke="#63b8ff" d="M213.09,-118.86C247.78,-111.35 293.01,-99.96 331.5,-85 375.77,-67.79 424.2,-38.91 447.09,-24.59"/>
<polygon fill="#63b8ff" stroke="#63b8ff" points="212.19,-115.47 203.13,-120.97 213.64,-122.32 212.19,-115.47"/>
</a>
</g>
</g>
<!-- Node6&#45;&gt;Node4 -->
<g id="edge7_Node000006_Node000004" class="edge">
<title>Node6&#45;&gt;Node4</title>
<g id="a_edge7_Node000006_Node000004"><a xlink:title=" ">
<path fill="none" stroke="#63b8ff" d="M217.62,-62.96C181.45,-51.65 127.15,-34.66 94.72,-24.52"/>
<polygon fill="#63b8ff" stroke="#63b8ff" points="216.72,-66.35 227.31,-65.99 218.81,-59.67 216.72,-66.35"/>
</a>
</g>
</g>
<!-- Node6&#45;&gt;Node5 -->
<g id="edge8_Node000006_Node000005" class="edge">
<title>Node6&#45;&gt;Node5</title>
<g id="a_edge8_Node000006_Node000005"><a xlink:title=" ">
<path fill="none" stroke="#63b8ff" d="M234.93,-90.49C218.4,-100.18 195.05,-112.77 178.2,-120.98"/>
<polygon fill="#63b8ff" stroke="#63b8ff" points="237.01,-93.32 243.78,-85.17 233.41,-87.32 237.01,-93.32"/>
</a>
</g>
</g>
<!-- Node6&#45;&gt;Node7 -->
<g id="edge9_Node000006_Node000007" class="edge">
<title>Node6&#45;&gt;Node7</title>
<g id="a_edge9_Node000006_Node000007"><a xlink:title=" ">
<path fill="none" stroke="#63b8ff" d="M276.84,-60.29C291.25,-51.13 309.92,-39.26 324.3,-30.11"/>
<polygon fill="#63b8ff" stroke="#63b8ff" points="274.64,-57.55 268.07,-65.87 278.39,-63.46 274.64,-57.55"/>
</a>
</g>
</g>
<!-- Node6&#45;&gt;Node8 -->
<g id="edge10_Node000006_Node000008" class="edge">
<title>Node6&#45;&gt;Node8</title>
<g id="a_edge10_Node000006_Node000008"><a xlink:title=" ">
<path fill="none" stroke="#63b8ff" d="M242.39,-57.63C234.65,-46.85 224.94,-33.32 218.72,-24.67"/>
<polygon fill="#63b8ff" stroke="#63b8ff" points="239.63,-59.79 248.3,-65.87 245.31,-55.7 239.63,-59.79"/>
</a>
</g>
</g>
<!-- Node6&#45;&gt;Node9 -->
<g id="edge11_Node000006_Node000009" class="edge">
<title>Node6&#45;&gt;Node9</title>
<g id="a_edge11_Node000006_Node000009"><a xlink:title=" ">
<path fill="none" stroke="#63b8ff" d="M294.97,-63.21C326.91,-54.28 372.58,-41.44 412.5,-30 418.59,-28.25 425.11,-26.37 431.32,-24.56"/>
<polygon fill="#63b8ff" stroke="#63b8ff" points="293.8,-59.91 285.11,-65.97 295.68,-66.65 293.8,-59.91"/>
</a>
</g>
</g>
</g>
</svg>
