<?xml version="1.0" encoding="UTF-8" standalone="no"?>
<!DOCTYPE svg PUBLIC "-//W3C//DTD SVG 1.1//EN"
 "http://www.w3.org/Graphics/SVG/1.1/DTD/svg11.dtd">
<!-- Generated by graphviz version 2.43.0 (0)
 -->
<!-- Title: check_GPS_sync_req Pages: 1 -->
<!--zoomable 471 -->

<svg id="main" version="1.1" xmlns="http://www.w3.org/2000/svg" xmlns:xlink="http://www.w3.org/1999/xlink" xml:space="preserve" onload="init(evt)">
<style type="text/css"><![CDATA[
.node, .edge {opacity: 0.7;}
.node.selected, .edge.selected {opacity: 1;}
.edge:hover path { stroke: red; }
.edge:hover polygon { stroke: red; fill: red; }
]]></style>

<defs>
  <circle id="rim" cx="0" cy="0" r="7"/>
  <circle id="rim2" cx="0" cy="0" r="3.5"/>
  <g id="zoomPlus">
    <use xlink:href="#rim" fill="#404040"><set attributeName="fill" to="#808080" begin="zoomplus.mouseover" end="zoomplus.mouseout"/></use>
    <path d="M-4,0h8M0,-4v8" fill="none" stroke="white" stroke-width="1.5" pointer-events="none"/>
  </g>
  <g id="zoomMin">
    <use xlink:href="#rim" fill="#404040"><set attributeName="fill" to="#808080" begin="zoomminus.mouseover" end="zoomminus.mouseout"/></use>
    <path d="M-4,0h8" fill="none" stroke="white" stroke-width="1.5" pointer-events="none"/>
  </g>
  <g id="arrowUp" transform="translate(30 24)">
    <use xlink:href="#rim"/>
    <path pointer-events="none" fill="none" stroke="white" stroke-width="1.5" d="M0,-3.0v7 M-2.5,-0.5L0,-3.0L2.5,-0.5"/>
  </g>
  <g id="arrowRight" transform="rotate(90) translate(36 -43)">
    <use xlink:href="#rim"/>
    <path pointer-events="none" fill="none" stroke="white" stroke-width="1.5" d="M0,-3.0v7 M-2.5,-0.5L0,-3.0L2.5,-0.5"/>
  </g>
  <g id="arrowDown" transform="rotate(180) translate(-30 -48)">
    <use xlink:href="#rim"/>
    <path pointer-events="none" fill="none" stroke="white" stroke-width="1.5" d="M0,-3.0v7 M-2.5,-0.5L0,-3.0L2.5,-0.5"/>
  </g>
  <g id="arrowLeft" transform="rotate(270) translate(-36 17)">
    <use xlink:href="#rim"/>
    <path pointer-events="none" fill="none" stroke="white" stroke-width="1.5" d="M0,-3.0v7 M-2.5,-0.5L0,-3.0L2.5,-0.5"/>
  </g>
  <g id="resetDef">
    <use xlink:href="#rim2" fill="#404040"><set attributeName="fill" to="#808080" begin="reset.mouseover" end="reset.mouseout"/></use>
  </g>
</defs>
<script type="application/ecmascript">
var viewWidth = 1079;
var viewHeight = 471;
var sectionId = 'dynsection-1';
</script>
<script type="application/ecmascript" xlink:href="svg.min.js"/>
<svg id="graph" class="graph">
<g id="viewport">
<title>check_GPS_sync_req</title>
<!-- Node1 -->
<g id="Node000001" class="node">
<title>Node1</title>
<g id="a_Node000001"><a xlink:title="Monitora la coda dei messaggi inter&#45;core per richieste di sincronizzazione GPS.">
<polygon fill="#999999" stroke="#666666" points="119,-185 0,-185 0,-166 119,-166 119,-185"/>
<text text-anchor="middle" x="59.5" y="-173" font-family="Helvetica,sans-Serif" font-size="10.00">check_GPS_sync_req</text>
</a>
</g>
</g>
<!-- Node2 -->
<g id="Node000002" class="node">
<title>Node2</title>
<g id="a_Node000002"><a xlink:href="gps_8cpp.html#a79c2c486e631815579df4be3e190ebad" target="_top" xlink:title="Sincronizza i dati GPS globali e gestisce il salvataggio su Flash.">
<polygon fill="white" stroke="#666666" points="219,-185 155,-185 155,-166 219,-166 219,-185"/>
<text text-anchor="middle" x="187" y="-173" font-family="Helvetica,sans-Serif" font-size="10.00">GPS_sync</text>
</a>
</g>
</g>
<!-- Node1&#45;&gt;Node2 -->
<g id="edge1_Node000001_Node000002" class="edge">
<title>Node1&#45;&gt;Node2</title>
<g id="a_edge1_Node000001_Node000002"><a xlink:title=" ">
<path fill="none" stroke="#63b8ff" d="M119.21,-175.5C127.72,-175.5 136.34,-175.5 144.43,-175.5"/>
<polygon fill="#63b8ff" stroke="#63b8ff" points="144.7,-179 154.7,-175.5 144.7,-172 144.7,-179"/>
</a>
</g>
</g>
<!-- Node3 -->
<g id="Node000003" class="node">
<title>Node3</title>
<g id="a_Node000003"><a xlink:href="gps_8cpp.html#aadbd2f07e07e8a3f472065571970cefe" target="_top" xlink:title="Estrae data e ora dai messaggi RMC.">
<polygon fill="white" stroke="#666666" points="383.5,-185 273.5,-185 273.5,-166 383.5,-166 383.5,-185"/>
<text text-anchor="middle" x="328.5" y="-173" font-family="Helvetica,sans-Serif" font-size="10.00">GetDate_and_Time</text>
</a>
</g>
</g>
<!-- Node2&#45;&gt;Node3 -->
<g id="edge2_Node000002_Node000003" class="edge">
<title>Node2&#45;&gt;Node3</title>
<g id="a_edge2_Node000002_Node000003"><a xlink:title=" ">
<path fill="none" stroke="#63b8ff" d="M219.31,-175.5C232.23,-175.5 247.71,-175.5 262.87,-175.5"/>
<polygon fill="#63b8ff" stroke="#63b8ff" points="263.28,-179 273.28,-175.5 263.28,-172 263.28,-179"/>
</a>
</g>
</g>
<!-- Node23 -->
<g id="Node000023" class="node">
<title>Node23</title>
<g id="a_Node000023"><a xlink:href="gps_8cpp.html#a177ee65fb57b969753487772f3fc552c" target="_top" xlink:title="Estrae posizione e numero satelliti dai messaggi GGA.">
<polygon fill="white" stroke="#666666" points="402,-222 255,-222 255,-203 402,-203 402,-222"/>
<text text-anchor="middle" x="328.5" y="-210" font-family="Helvetica,sans-Serif" font-size="10.00">GetPosition_and_Satellites</text>
</a>
</g>
</g>
<!-- Node2&#45;&gt;Node23 -->
<g id="edge30_Node000002_Node000023" class="edge">
<title>Node2&#45;&gt;Node23</title>
<g id="a_edge30_Node000002_Node000023"><a xlink:title=" ">
<path fill="none" stroke="#63b8ff" d="M219.3,-184.61C230.54,-187.81 243.32,-191.39 255,-194.5 262.49,-196.49 270.44,-198.53 278.21,-200.5"/>
<polygon fill="#63b8ff" stroke="#63b8ff" points="277.38,-203.89 287.93,-202.93 279.08,-197.1 277.38,-203.89"/>
</a>
</g>
</g>
<!-- Node24 -->
<g id="Node000024" class="node">
<title>Node24</title>
<g id="a_Node000024"><a xlink:href="gps_8cpp.html#aab2203af6c50eafde7df9509bc632fa6" target="_top" xlink:title="Salva le ultime coordinate valide in un file di testo (modalità overwrite).">
<polygon fill="white" stroke="#666666" points="524,-36 438,-36 438,-17 524,-17 524,-36"/>
<text text-anchor="middle" x="481" y="-24" font-family="Helvetica,sans-Serif" font-size="10.00">save_gps_last</text>
</a>
</g>
</g>
<!-- Node2&#45;&gt;Node24 -->
<g id="edge32_Node000002_Node000024" class="edge">
<title>Node2&#45;&gt;Node24</title>
<g id="a_edge32_Node000002_Node000024"><a xlink:title=" ">
<path fill="none" stroke="#63b8ff" d="M206.71,-165.95C256.55,-140.52 392.75,-71.02 451.93,-40.82"/>
<polygon fill="#63b8ff" stroke="#63b8ff" points="453.75,-43.82 461.07,-36.16 450.57,-37.59 453.75,-43.82"/>
</a>
</g>
</g>
<!-- Node4 -->
<g id="Node000004" class="node">
<title>Node4</title>
<g id="a_Node000004"><a xlink:href="gps_8cpp.html#a5c33ca28d942d03c752f418f3c04711f" target="_top" xlink:title="Tenta di acquisire un tipo specifico di sentenza NMEA dalla seriale.">
<polygon fill="white" stroke="#666666" points="516.5,-222 445.5,-222 445.5,-203 516.5,-203 516.5,-222"/>
<text text-anchor="middle" x="481" y="-210" font-family="Helvetica,sans-Serif" font-size="10.00">gpsAcquire</text>
</a>
</g>
</g>
<!-- Node3&#45;&gt;Node4 -->
<g id="edge3_Node000003_Node000004" class="edge">
<title>Node3&#45;&gt;Node4</title>
<g id="a_edge3_Node000003_Node000004"><a xlink:title=" ">
<path fill="none" stroke="#63b8ff" d="M368.26,-185.03C388.86,-190.09 414.27,-196.34 435.66,-201.6"/>
<polygon fill="#63b8ff" stroke="#63b8ff" points="434.93,-205.02 445.48,-204.01 436.61,-198.23 434.93,-205.02"/>
</a>
</g>
</g>
<!-- Node5 -->
<g id="Node000005" class="node">
<title>Node5</title>
<g id="a_Node000005"><a xlink:href="gps_8cpp.html#a1584cd930020560265588b72bde4654c" target="_top" xlink:title="Smista e decodifica una stringa NMEA grezza nella struttura dati corrispondente.">
<polygon fill="white" stroke="#666666" points="659,-241 560,-241 560,-222 659,-222 659,-241"/>
<text text-anchor="middle" x="609.5" y="-229" font-family="Helvetica,sans-Serif" font-size="10.00">nmea_gps_parse</text>
</a>
</g>
</g>
<!-- Node4&#45;&gt;Node5 -->
<g id="edge4_Node000004_Node000005" class="edge">
<title>Node4&#45;&gt;Node5</title>
<g id="a_edge4_Node000004_Node000005"><a xlink:title=" ">
<path fill="none" stroke="#63b8ff" d="M516.57,-217.69C526.86,-219.24 538.45,-220.98 549.83,-222.69"/>
<polygon fill="#63b8ff" stroke="#63b8ff" points="549.34,-226.15 559.75,-224.18 550.38,-219.23 549.34,-226.15"/>
</a>
</g>
</g>
<!-- Node6 -->
<g id="Node000006" class="node">
<title>Node6</title>
<g id="a_Node000006"><a xlink:href="minmea_8c.html#a0e892adb1166185572c0e4614bc1eb13" target="_top" xlink:title=" ">
<polygon fill="white" stroke="#666666" points="808,-278 695,-278 695,-259 808,-259 808,-278"/>
<text text-anchor="middle" x="751.5" y="-266" font-family="Helvetica,sans-Serif" font-size="10.00">minmea_parse_gga</text>
</a>
</g>
</g>
<!-- Node5&#45;&gt;Node6 -->
<g id="edge5_Node000005_Node000006" class="edge">
<title>Node5&#45;&gt;Node6</title>
<g id="a_edge5_Node000005_Node000006"><a xlink:title=" ">
<path fill="none" stroke="#63b8ff" d="M646.55,-241.03C664.13,-245.67 685.48,-251.32 704.25,-256.28"/>
<polygon fill="#63b8ff" stroke="#63b8ff" points="703.52,-259.7 714.08,-258.88 705.31,-252.94 703.52,-259.7"/>
</a>
</g>
</g>
<!-- Node9 -->
<g id="Node000009" class="node">
<title>Node9</title>
<g id="a_Node000009"><a xlink:href="minmea_8c.html#ac699de4ccd27d72d2eda3ddb64158014" target="_top" xlink:title=" ">
<polygon fill="white" stroke="#666666" points="806.5,-241 696.5,-241 696.5,-222 806.5,-222 806.5,-241"/>
<text text-anchor="middle" x="751.5" y="-229" font-family="Helvetica,sans-Serif" font-size="10.00">minmea_parse_gst</text>
</a>
</g>
</g>
<!-- Node5&#45;&gt;Node9 -->
<g id="edge8_Node000005_Node000009" class="edge">
<title>Node5&#45;&gt;Node9</title>
<g id="a_edge8_Node000005_Node000009"><a xlink:title=" ">
<path fill="none" stroke="#63b8ff" d="M659.07,-231.5C667.79,-231.5 677.01,-231.5 686.09,-231.5"/>
<polygon fill="#63b8ff" stroke="#63b8ff" points="686.27,-235 696.27,-231.5 686.27,-228 686.27,-235"/>
</a>
</g>
</g>
<!-- Node10 -->
<g id="Node000010" class="node">
<title>Node10</title>
<g id="a_Node000010"><a xlink:href="minmea_8c.html#abe3a4ed1fc95c8d8f847b8ff54b23242" target="_top" xlink:title=" ">
<polygon fill="white" stroke="#666666" points="807.5,-204 695.5,-204 695.5,-185 807.5,-185 807.5,-204"/>
<text text-anchor="middle" x="751.5" y="-192" font-family="Helvetica,sans-Serif" font-size="10.00">minmea_parse_gsv</text>
</a>
</g>
</g>
<!-- Node5&#45;&gt;Node10 -->
<g id="edge10_Node000005_Node000010" class="edge">
<title>Node5&#45;&gt;Node10</title>
<g id="a_edge10_Node000005_Node000010"><a xlink:title=" ">
<path fill="none" stroke="#63b8ff" d="M646.55,-221.97C664.13,-217.33 685.48,-211.68 704.25,-206.72"/>
<polygon fill="#63b8ff" stroke="#63b8ff" points="705.31,-210.06 714.08,-204.12 703.52,-203.3 705.31,-210.06"/>
</a>
</g>
</g>
<!-- Node11 -->
<g id="Node000011" class="node">
<title>Node11</title>
<g id="a_Node000011"><a xlink:href="minmea_8c.html#a9a6083eb3b90edb0b96eaedc732313b7" target="_top" xlink:title=" ">
<polygon fill="white" stroke="#666666" points="808,-463 695,-463 695,-444 808,-444 808,-463"/>
<text text-anchor="middle" x="751.5" y="-451" font-family="Helvetica,sans-Serif" font-size="10.00">minmea_parse_rmc</text>
</a>
</g>
</g>
<!-- Node5&#45;&gt;Node11 -->
<g id="edge12_Node000005_Node000011" class="edge">
<title>Node5&#45;&gt;Node11</title>
<g id="a_edge12_Node000005_Node000011"><a xlink:title=" ">
<path fill="none" stroke="#63b8ff" d="M611.65,-241.22C616.01,-273.7 634.46,-379.57 695,-435.5 696.28,-436.68 697.64,-437.79 699.06,-438.82"/>
<polygon fill="#63b8ff" stroke="#63b8ff" points="697.36,-441.88 707.75,-443.97 700.93,-435.86 697.36,-441.88"/>
</a>
</g>
</g>
<!-- Node12 -->
<g id="Node000012" class="node">
<title>Node12</title>
<g id="a_Node000012"><a xlink:href="minmea_8c.html#afe00342610ebb8d37f3560b0cc31a52f" target="_top" xlink:title=" ">
<polygon fill="white" stroke="#666666" points="806.5,-352 696.5,-352 696.5,-333 806.5,-333 806.5,-352"/>
<text text-anchor="middle" x="751.5" y="-340" font-family="Helvetica,sans-Serif" font-size="10.00">minmea_parse_vtg</text>
</a>
</g>
</g>
<!-- Node5&#45;&gt;Node12 -->
<g id="edge14_Node000005_Node000012" class="edge">
<title>Node5&#45;&gt;Node12</title>
<g id="a_edge14_Node000005_Node000012"><a xlink:title=" ">
<path fill="none" stroke="#63b8ff" d="M616.71,-241.18C629.25,-259.97 659.45,-301.54 695,-324.5 697.43,-326.07 700.02,-327.52 702.68,-328.84"/>
<polygon fill="#63b8ff" stroke="#63b8ff" points="701.42,-332.11 711.99,-332.91 704.23,-325.7 701.42,-332.11"/>
</a>
</g>
</g>
<!-- Node13 -->
<g id="Node000013" class="node">
<title>Node13</title>
<g id="a_Node000013"><a xlink:href="minmea_8c.html#a389a195750045dfecc8e47d2641dec13" target="_top" xlink:title=" ">
<polygon fill="white" stroke="#666666" points="807.5,-315 695.5,-315 695.5,-296 807.5,-296 807.5,-315"/>
<text text-anchor="middle" x="751.5" y="-303" font-family="Helvetica,sans-Serif" font-size="10.00">minmea_parse_zda</text>
</a>
</g>
</g>
<!-- Node5&#45;&gt;Node13 -->
<g id="edge16_Node000005_Node000013" class="edge">
<title>Node5&#45;&gt;Node13</title>
<g id="a_edge16_Node000005_Node000013"><a xlink:title=" ">
<path fill="none" stroke="#63b8ff" d="M622.74,-241.17C638.63,-253.35 667.58,-274.27 695,-287.5 698.75,-289.31 702.72,-291 706.75,-292.56"/>
<polygon fill="#63b8ff" stroke="#63b8ff" points="705.58,-295.86 716.18,-295.98 707.97,-289.28 705.58,-295.86"/>
</a>
</g>
</g>
<!-- Node14 -->
<g id="Node000014" class="node">
<title>Node14</title>
<g id="a_Node000014"><a xlink:href="gps_8cpp.html#ae7e06054042f4d22ce3f7641a654dfba" target="_top" xlink:title="Stampa la qualità del fix da una sentenza $xxGGA (Global Positioning System Fix Data).">
<polygon fill="white" stroke="#666666" points="800,-130 703,-130 703,-111 800,-111 800,-130"/>
<text text-anchor="middle" x="751.5" y="-118" font-family="Helvetica,sans-Serif" font-size="10.00">print_NMEA_gga</text>
</a>
</g>
</g>
<!-- Node5&#45;&gt;Node14 -->
<g id="edge18_Node000005_Node000014" class="edge">
<title>Node5&#45;&gt;Node14</title>
<g id="a_edge18_Node000005_Node000014"><a xlink:title=" ">
<path fill="none" stroke="#63b8ff" d="M616.71,-221.82C629.25,-203.03 659.45,-161.46 695,-138.5 697.43,-136.93 700.02,-135.48 702.68,-134.16"/>
<polygon fill="#63b8ff" stroke="#63b8ff" points="704.23,-137.3 711.99,-130.09 701.42,-130.89 704.23,-137.3"/>
</a>
</g>
</g>
<!-- Node15 -->
<g id="Node000015" class="node">
<title>Node15</title>
<g id="a_Node000015"><a xlink:href="gps_8cpp.html#a86800585d87c13db519115d7d460aac0" target="_top" xlink:title="Stampa gli errori di deviazione da una sentenza $xxGST (GPS Pseudorange Noise Statistics).">
<polygon fill="white" stroke="#666666" points="798.5,-93 704.5,-93 704.5,-74 798.5,-74 798.5,-93"/>
<text text-anchor="middle" x="751.5" y="-81" font-family="Helvetica,sans-Serif" font-size="10.00">print_NMEA_gst</text>
</a>
</g>
</g>
<!-- Node5&#45;&gt;Node15 -->
<g id="edge19_Node000005_Node000015" class="edge">
<title>Node5&#45;&gt;Node15</title>
<g id="a_edge19_Node000005_Node000015"><a xlink:title=" ">
<path fill="none" stroke="#63b8ff" d="M614.15,-221.72C623.64,-197.62 651.42,-134.91 695,-101.5 696.8,-100.12 698.7,-98.85 700.68,-97.67"/>
<polygon fill="#63b8ff" stroke="#63b8ff" points="702.41,-100.72 709.76,-93.1 699.26,-94.47 702.41,-100.72"/>
</a>
</g>
</g>
<!-- Node18 -->
<g id="Node000018" class="node">
<title>Node18</title>
<g id="a_Node000018"><a xlink:href="gps_8cpp.html#a6ec6b5a4090671490d31c770fe6afa0d" target="_top" xlink:title="Stampa lo stato dei satelliti in vista da una sentenza $xxGSV (Satellites in View).">
<polygon fill="white" stroke="#666666" points="799.5,-426 703.5,-426 703.5,-407 799.5,-407 799.5,-426"/>
<text text-anchor="middle" x="751.5" y="-414" font-family="Helvetica,sans-Serif" font-size="10.00">print_NMEA_gsv</text>
</a>
</g>
</g>
<!-- Node5&#45;&gt;Node18 -->
<g id="edge22_Node000005_Node000018" class="edge">
<title>Node5&#45;&gt;Node18</title>
<g id="a_edge22_Node000005_Node000018"><a xlink:title=" ">
<path fill="none" stroke="#63b8ff" d="M612.59,-241.03C619.29,-269.38 642.92,-353.91 695,-398.5 696.5,-399.78 698.09,-400.98 699.76,-402.09"/>
<polygon fill="#63b8ff" stroke="#63b8ff" points="698.12,-405.18 708.56,-406.95 701.5,-399.05 698.12,-405.18"/>
</a>
</g>
</g>
<!-- Node19 -->
<g id="Node000019" class="node">
<title>Node19</title>
<g id="a_Node000019"><a xlink:href="gps_8cpp.html#a4650a0bef4037f605b746db3e8dce5bf" target="_top" xlink:title="Stampa i dettagli di una sentenza $xxRMC (Recommended Minimum Navigation Information).">
<polygon fill="white" stroke="#666666" points="800.5,-56 702.5,-56 702.5,-37 800.5,-37 800.5,-56"/>
<text text-anchor="middle" x="751.5" y="-44" font-family="Helvetica,sans-Serif" font-size="10.00">print_NMEA_rmc</text>
</a>
</g>
</g>
<!-- Node5&#45;&gt;Node19 -->
<g id="edge23_Node000005_Node000019" class="edge">
<title>Node5&#45;&gt;Node19</title>
<g id="a_edge23_Node000005_Node000019"><a xlink:title=" ">
<path fill="none" stroke="#63b8ff" d="M612.59,-221.97C619.29,-193.62 642.92,-109.09 695,-64.5 696.5,-63.22 698.09,-62.02 699.76,-60.91"/>
<polygon fill="#63b8ff" stroke="#63b8ff" points="701.5,-63.95 708.56,-56.05 698.12,-57.82 701.5,-63.95"/>
</a>
</g>
</g>
<!-- Node21 -->
<g id="Node000021" class="node">
<title>Node21</title>
<g id="a_Node000021"><a xlink:href="gps_8cpp.html#a77ab7d9e159a0a804e5467a44204eebd" target="_top" xlink:title="Stampa rotta e velocità al suolo da una sentenza $xxVTG (Track Made Good and Ground Speed).">
<polygon fill="white" stroke="#666666" points="799,-167 704,-167 704,-148 799,-148 799,-167"/>
<text text-anchor="middle" x="751.5" y="-155" font-family="Helvetica,sans-Serif" font-size="10.00">print_NMEA_vtg</text>
</a>
</g>
</g>
<!-- Node5&#45;&gt;Node21 -->
<g id="edge27_Node000005_Node000021" class="edge">
<title>Node5&#45;&gt;Node21</title>
<g id="a_edge27_Node000005_Node000021"><a xlink:title=" ">
<path fill="none" stroke="#63b8ff" d="M623.08,-221.88C639.09,-209.98 667.94,-189.69 695,-176.5 699.35,-174.38 703.99,-172.39 708.68,-170.56"/>
<polygon fill="#63b8ff" stroke="#63b8ff" points="710.09,-173.77 718.26,-167.03 707.66,-167.21 710.09,-173.77"/>
</a>
</g>
</g>
<!-- Node22 -->
<g id="Node000022" class="node">
<title>Node22</title>
<g id="a_Node000022"><a xlink:href="gps_8cpp.html#ac1555845e4e7fe4d8de83d57a2a6c949" target="_top" xlink:title="Stampa data e ora UTC da una sentenza $xxZDA (Time &amp; Date).">
<polygon fill="white" stroke="#666666" points="799.5,-389 703.5,-389 703.5,-370 799.5,-370 799.5,-389"/>
<text text-anchor="middle" x="751.5" y="-377" font-family="Helvetica,sans-Serif" font-size="10.00">print_NMEA_zda</text>
</a>
</g>
</g>
<!-- Node5&#45;&gt;Node22 -->
<g id="edge29_Node000005_Node000022" class="edge">
<title>Node5&#45;&gt;Node22</title>
<g id="a_edge29_Node000005_Node000022"><a xlink:title=" ">
<path fill="none" stroke="#63b8ff" d="M614.15,-241.28C623.64,-265.38 651.42,-328.09 695,-361.5 696.8,-362.88 698.7,-364.15 700.68,-365.33"/>
<polygon fill="#63b8ff" stroke="#63b8ff" points="699.26,-368.53 709.76,-369.9 702.41,-362.28 699.26,-368.53"/>
</a>
</g>
</g>
<!-- Node7 -->
<g id="Node000007" class="node">
<title>Node7</title>
<g id="a_Node000007"><a xlink:href="minmea_8c.html#a15e9012d03411f7471ca65649f206cc0" target="_top" xlink:title=" ">
<polygon fill="white" stroke="#666666" points="936,-296 851,-296 851,-277 936,-277 936,-296"/>
<text text-anchor="middle" x="893.5" y="-284" font-family="Helvetica,sans-Serif" font-size="10.00">minmea_scan</text>
</a>
</g>
</g>
<!-- Node6&#45;&gt;Node7 -->
<g id="edge6_Node000006_Node000007" class="edge">
<title>Node6&#45;&gt;Node7</title>
<g id="a_edge6_Node000006_Node000007"><a xlink:title=" ">
<path fill="none" stroke="#63b8ff" d="M808.23,-275.67C818.98,-277.05 830.2,-278.49 840.81,-279.85"/>
<polygon fill="#63b8ff" stroke="#63b8ff" points="840.4,-283.33 850.77,-281.13 841.29,-276.39 840.4,-283.33"/>
</a>
</g>
</g>
<!-- Node8 -->
<g id="Node000008" class="node">
<title>Node8</title>
<g id="a_Node000008"><a xlink:href="minmea_8h.html#acd31fbf84ad0c2e5dac349ca993248be" target="_top" xlink:title=" ">
<polygon fill="white" stroke="#666666" points="1071,-296 979,-296 979,-277 1071,-277 1071,-296"/>
<text text-anchor="middle" x="1025" y="-284" font-family="Helvetica,sans-Serif" font-size="10.00">minmea_isfield</text>
</a>
</g>
</g>
<!-- Node7&#45;&gt;Node8 -->
<g id="edge7_Node000007_Node000008" class="edge">
<title>Node7&#45;&gt;Node8</title>
<g id="a_edge7_Node000007_Node000008"><a xlink:title=" ">
<path fill="none" stroke="#63b8ff" d="M936.19,-286.5C946.5,-286.5 957.7,-286.5 968.56,-286.5"/>
<polygon fill="#63b8ff" stroke="#63b8ff" points="968.81,-290 978.81,-286.5 968.81,-283 968.81,-290"/>
</a>
</g>
</g>
<!-- Node9&#45;&gt;Node7 -->
<g id="edge9_Node000009_Node000007" class="edge">
<title>Node9&#45;&gt;Node7</title>
<g id="a_edge9_Node000009_Node000007"><a xlink:title=" ">
<path fill="none" stroke="#63b8ff" d="M781.74,-241.06C790.25,-243.97 799.54,-247.25 808,-250.5 826,-257.41 845.85,-265.82 861.78,-272.77"/>
<polygon fill="#63b8ff" stroke="#63b8ff" points="860.58,-276.07 871.14,-276.89 863.4,-269.66 860.58,-276.07"/>
</a>
</g>
</g>
<!-- Node10&#45;&gt;Node7 -->
<g id="edge11_Node000010_Node000007" class="edge">
<title>Node10&#45;&gt;Node7</title>
<g id="a_edge11_Node000010_Node000007"><a xlink:title=" ">
<path fill="none" stroke="#63b8ff" d="M787.15,-204.07C794.27,-206.66 801.55,-209.8 808,-213.5 834.58,-228.76 860.57,-253.02 876.55,-269.34"/>
<polygon fill="#63b8ff" stroke="#63b8ff" points="874.1,-271.85 883.55,-276.64 879.15,-267 874.1,-271.85"/>
</a>
</g>
</g>
<!-- Node11&#45;&gt;Node7 -->
<g id="edge13_Node000011_Node000007" class="edge">
<title>Node11&#45;&gt;Node7</title>
<g id="a_edge13_Node000011_Node000007"><a xlink:title=" ">
<path fill="none" stroke="#63b8ff" d="M794,-443.9C799.02,-441.65 803.84,-438.89 808,-435.5 850.88,-400.52 876.06,-337.68 886.63,-305.95"/>
<polygon fill="#63b8ff" stroke="#63b8ff" points="890.06,-306.72 889.76,-296.13 883.39,-304.59 890.06,-306.72"/>
</a>
</g>
</g>
<!-- Node12&#45;&gt;Node7 -->
<g id="edge15_Node000012_Node000007" class="edge">
<title>Node12&#45;&gt;Node7</title>
<g id="a_edge15_Node000012_Node000007"><a xlink:title=" ">
<path fill="none" stroke="#63b8ff" d="M783.82,-333C791.77,-330.41 800.25,-327.49 808,-324.5 826.77,-317.26 847.36,-308.03 863.52,-300.48"/>
<polygon fill="#63b8ff" stroke="#63b8ff" points="865.4,-303.46 872.95,-296.02 862.41,-297.13 865.4,-303.46"/>
</a>
</g>
</g>
<!-- Node13&#45;&gt;Node7 -->
<g id="edge17_Node000013_Node000007" class="edge">
<title>Node13&#45;&gt;Node7</title>
<g id="a_edge17_Node000013_Node000007"><a xlink:title=" ">
<path fill="none" stroke="#63b8ff" d="M807.83,-297.99C818.72,-296.51 830.11,-294.97 840.87,-293.51"/>
<polygon fill="#63b8ff" stroke="#63b8ff" points="841.52,-296.95 850.96,-292.14 840.58,-290.01 841.52,-296.95"/>
</a>
</g>
</g>
<!-- Node16 -->
<g id="Node000016" class="node">
<title>Node16</title>
<g id="a_Node000016"><a xlink:href="minmea_8h.html#a7d5b32164f339789b22446e5bfc1afbc" target="_top" xlink:title=" ">
<polygon fill="white" stroke="#666666" points="942.5,-56 844.5,-56 844.5,-37 942.5,-37 942.5,-56"/>
<text text-anchor="middle" x="893.5" y="-44" font-family="Helvetica,sans-Serif" font-size="10.00">minmea_rescale</text>
</a>
</g>
</g>
<!-- Node15&#45;&gt;Node16 -->
<g id="edge20_Node000015_Node000016" class="edge">
<title>Node15&#45;&gt;Node16</title>
<g id="a_edge20_Node000015_Node000016"><a xlink:title=" ">
<path fill="none" stroke="#63b8ff" d="M788.55,-73.97C806.13,-69.33 827.48,-63.68 846.25,-58.72"/>
<polygon fill="#63b8ff" stroke="#63b8ff" points="847.31,-62.06 856.08,-56.12 845.52,-55.3 847.31,-62.06"/>
</a>
</g>
</g>
<!-- Node17 -->
<g id="Node000017" class="node">
<title>Node17</title>
<g id="a_Node000017"><a xlink:href="minmea_8h.html#ac7f8c6a8f35e4181b7f376560fef677b" target="_top" xlink:title=" ">
<polygon fill="white" stroke="#666666" points="940.5,-93 846.5,-93 846.5,-74 940.5,-74 940.5,-93"/>
<text text-anchor="middle" x="893.5" y="-81" font-family="Helvetica,sans-Serif" font-size="10.00">minmea_tofloat</text>
</a>
</g>
</g>
<!-- Node15&#45;&gt;Node17 -->
<g id="edge21_Node000015_Node000017" class="edge">
<title>Node15&#45;&gt;Node17</title>
<g id="a_edge21_Node000015_Node000017"><a xlink:title=" ">
<path fill="none" stroke="#63b8ff" d="M798.73,-83.5C810.68,-83.5 823.67,-83.5 836.08,-83.5"/>
<polygon fill="#63b8ff" stroke="#63b8ff" points="836.32,-87 846.32,-83.5 836.32,-80 836.32,-87"/>
</a>
</g>
</g>
<!-- Node19&#45;&gt;Node16 -->
<g id="edge24_Node000019_Node000016" class="edge">
<title>Node19&#45;&gt;Node16</title>
<g id="a_edge24_Node000019_Node000016"><a xlink:title=" ">
<path fill="none" stroke="#63b8ff" d="M800.68,-46.5C811.46,-46.5 823.01,-46.5 834.15,-46.5"/>
<polygon fill="#63b8ff" stroke="#63b8ff" points="834.23,-50 844.23,-46.5 834.23,-43 834.23,-50"/>
</a>
</g>
</g>
<!-- Node19&#45;&gt;Node17 -->
<g id="edge26_Node000019_Node000017" class="edge">
<title>Node19&#45;&gt;Node17</title>
<g id="a_edge26_Node000019_Node000017"><a xlink:title=" ">
<path fill="none" stroke="#63b8ff" d="M788.55,-56.03C806.13,-60.67 827.48,-66.32 846.25,-71.28"/>
<polygon fill="#63b8ff" stroke="#63b8ff" points="845.52,-74.7 856.08,-73.88 847.31,-67.94 845.52,-74.7"/>
</a>
</g>
</g>
<!-- Node20 -->
<g id="Node000020" class="node">
<title>Node20</title>
<g id="a_Node000020"><a xlink:href="minmea_8h.html#a82cdc79749798023b4a1952faf84f1ca" target="_top" xlink:title=" ">
<polygon fill="white" stroke="#666666" points="943,-19 844,-19 844,0 943,0 943,-19"/>
<text text-anchor="middle" x="893.5" y="-7" font-family="Helvetica,sans-Serif" font-size="10.00">minmea_tocoord</text>
</a>
</g>
</g>
<!-- Node19&#45;&gt;Node20 -->
<g id="edge25_Node000019_Node000020" class="edge">
<title>Node19&#45;&gt;Node20</title>
<g id="a_edge25_Node000019_Node000020"><a xlink:title=" ">
<path fill="none" stroke="#63b8ff" d="M788.55,-36.97C806.13,-32.33 827.48,-26.68 846.25,-21.72"/>
<polygon fill="#63b8ff" stroke="#63b8ff" points="847.31,-25.06 856.08,-19.12 845.52,-18.3 847.31,-25.06"/>
</a>
</g>
</g>
<!-- Node21&#45;&gt;Node17 -->
<g id="edge28_Node000021_Node000017" class="edge">
<title>Node21&#45;&gt;Node17</title>
<g id="a_edge28_Node000021_Node000017"><a xlink:title=" ">
<path fill="none" stroke="#63b8ff" d="M784.74,-147.97C792.51,-145.26 800.68,-142.07 808,-138.5 830.84,-127.37 854.94,-111.19 871.53,-99.25"/>
<polygon fill="#63b8ff" stroke="#63b8ff" points="873.91,-101.85 879.92,-93.12 869.78,-96.2 873.91,-101.85"/>
</a>
</g>
</g>
<!-- Node23&#45;&gt;Node4 -->
<g id="edge31_Node000023_Node000004" class="edge">
<title>Node23&#45;&gt;Node4</title>
<g id="a_edge31_Node000023_Node000004"><a xlink:title=" ">
<path fill="none" stroke="#63b8ff" d="M402.1,-212.5C413.38,-212.5 424.73,-212.5 435.15,-212.5"/>
<polygon fill="#63b8ff" stroke="#63b8ff" points="435.22,-216 445.22,-212.5 435.22,-209 435.22,-216"/>
</a>
</g>
</g>
<!-- Node24&#45;&gt;Node20 -->
<g id="edge33_Node000024_Node000020" class="edge">
<title>Node24&#45;&gt;Node20</title>
<g id="a_edge33_Node000024_Node000020"><a xlink:title=" ">
<path fill="none" stroke="#63b8ff" d="M524,-24.76C597.56,-21.71 749.85,-15.41 833.79,-11.93"/>
<polygon fill="#63b8ff" stroke="#63b8ff" points="834.08,-15.42 843.93,-11.51 833.79,-8.43 834.08,-15.42"/>
</a>
</g>
</g>
</g>
</svg>

<g id="navigator" transform="translate(0 0)" fill="#404254">
  <rect fill="#f2f5e9" fill-opacity="0.5" stroke="#606060" stroke-width=".5" x="0" y="0" width="60" height="60"/>
  <use id="zoomplus" xlink:href="#zoomPlus" x="17" y="9" onmousedown="handleZoom(evt,'in')"/>
  <use id="zoomminus" xlink:href="#zoomMin" x="42" y="9" onmousedown="handleZoom(evt,'out')"/>
  <use id="reset" xlink:href="#resetDef" x="30" y="36" onmousedown="handleReset()"/>
   <use id="arrowup" xlink:href="#arrowUp" x="0" y="0" onmousedown="handlePan(0,-1)"/>
  <use id="arrowright" xlink:href="#arrowRight" x="0" y="0" onmousedown="handlePan(1,0)"/>
  <use id="arrowdown" xlink:href="#arrowDown" x="0" y="0" onmousedown="handlePan(0,1)"/>
  <use id="arrowleft" xlink:href="#arrowLeft" x="0" y="0" onmousedown="handlePan(-1,0)"/>
</g>
<svg viewBox="0 0 15 15" width="100%" height="30px" preserveAspectRatio="xMaxYMin meet">
 <g id="arrow_out" transform="scale(0.3 0.3)">
  <a xlink:href="gps_8cpp_a58c63785b84f6e923c4e8ca91f335c43_cgraph_org.svg" target="_base">
   <rect id="button" ry="5" rx="5" y="6" x="6" height="38" width="38"
        fill="#f2f5e9" fill-opacity="0.5" stroke="#606060" stroke-width="1.0"/>
   <path id="arrow"
     d="M 11.500037,31.436501 C 11.940474,20.09759 22.043105,11.32322 32.158766,21.979434 L 37.068811,17.246167 C 37.068811,17.246167 37.088388,32 37.088388,32 L 22.160133,31.978069 C 22.160133,31.978069 26.997745,27.140456 26.997745,27.140456 C 18.528582,18.264221 13.291696,25.230495 11.500037,31.436501 z"
     style="fill:#404040;"/>
  </a>
 </g>
</svg>

<style type='text/css'>
<![CDATA[
[data-mouse-over-selected='false'] { opacity: 0.7; }
[data-mouse-over-selected='true']  { opacity: 1.0; }
]]>
</style>
<script type="application/ecmascript"><![CDATA[
document.addEventListener('DOMContentLoaded', (event) => {
  highlightEdges();
  highlightAdjacentNodes();
});
]]></script>
</svg>
