<?xml version="1.0" encoding="UTF-8" standalone="no"?>
<!DOCTYPE svg PUBLIC "-//W3C//DTD SVG 1.1//EN"
 "http://www.w3.org/Graphics/SVG/1.1/DTD/svg11.dtd">
<!-- Generated by graphviz version 2.43.0 (0)
 -->
<!-- Title: firm/include/gps.h Pages: 1 -->
<svg width="440pt" height="192pt"
 viewBox="0.00 0.00 439.50 192.00" xmlns="http://www.w3.org/2000/svg" xmlns:xlink="http://www.w3.org/1999/xlink">
<g id="graph0" class="graph" transform="scale(1 1) rotate(0) translate(4 188)">
<title>firm/include/gps.h</title>
<!-- Node1 -->
<g id="Node000001" class="node">
<title>Node1</title>
<g id="a_Node000001"><a xlink:title="Definizioni, macro e strutture per la gestione della telemetria GPS.">
<polygon fill="#999999" stroke="#666666" points="298.5,-184 194.5,-184 194.5,-165 298.5,-165 298.5,-184"/>
<text text-anchor="middle" x="246.5" y="-172" font-family="Helvetica,sans-Serif" font-size="10.00">firm/include/gps.h</text>
</a>
</g>
</g>
<!-- Node2 -->
<g id="Node000002" class="node">
<title>Node2</title>
<g id="a_Node000002"><a xlink:href="buttons_8h.html" target="_top" xlink:title="Definizioni e prototipi per la gestione degli input utente e della UI.">
<polygon fill="white" stroke="#666666" points="218,-129 95,-129 95,-110 218,-110 218,-129"/>
<text text-anchor="middle" x="156.5" y="-117" font-family="Helvetica,sans-Serif" font-size="10.00">firm/include/buttons.h</text>
</a>
</g>
</g>
<!-- Node1&#45;&gt;Node2 -->
<g id="edge1_Node000001_Node000002" class="edge">
<title>Node1&#45;&gt;Node2</title>
<g id="a_edge1_Node000001_Node000002"><a xlink:title=" ">
<path fill="none" stroke="#63b8ff" d="M223.06,-159.7C206.66,-150.04 185.27,-137.44 171.22,-129.17"/>
<polygon fill="#63b8ff" stroke="#63b8ff" points="221.65,-162.93 232.04,-164.98 225.2,-156.89 221.65,-162.93"/>
</a>
</g>
</g>
<!-- Node3 -->
<g id="Node000003" class="node">
<title>Node3</title>
<g id="a_Node000003"><a xlink:href="display__ui_8h.html" target="_top" xlink:title="Definizioni hardware e prototipi per l&#39;interfaccia utente OLED.">
<polygon fill="white" stroke="#666666" points="281.5,-74 145.5,-74 145.5,-55 281.5,-55 281.5,-74"/>
<text text-anchor="middle" x="213.5" y="-62" font-family="Helvetica,sans-Serif" font-size="10.00">firm/include/display_ui.h</text>
</a>
</g>
</g>
<!-- Node1&#45;&gt;Node3 -->
<g id="edge9_Node000001_Node000003" class="edge">
<title>Node1&#45;&gt;Node3</title>
<g id="a_edge9_Node000001_Node000003"><a xlink:title=" ">
<path fill="none" stroke="#63b8ff" d="M241.05,-155.05C237.29,-142.37 232.15,-125.15 227.5,-110 223.65,-97.46 219.07,-82.97 216.22,-74.02"/>
<polygon fill="#63b8ff" stroke="#63b8ff" points="237.76,-156.26 243.96,-164.86 244.48,-154.28 237.76,-156.26"/>
</a>
</g>
</g>
<!-- Node4 -->
<g id="Node000004" class="node">
<title>Node4</title>
<g id="a_Node000004"><a xlink:href="buttons_8cpp_source.html" target="_top" xlink:title=" ">
<polygon fill="white" stroke="#666666" points="113,-19 0,-19 0,0 113,0 113,-19"/>
<text text-anchor="middle" x="56.5" y="-7" font-family="Helvetica,sans-Serif" font-size="10.00">firm/src/buttons.cpp</text>
</a>
</g>
</g>
<!-- Node1&#45;&gt;Node4 -->
<g id="edge10_Node000001_Node000004" class="edge">
<title>Node1&#45;&gt;Node4</title>
<g id="a_edge10_Node000001_Node000004"><a xlink:title=" ">
<path fill="none" stroke="#63b8ff" d="M184.14,-171.06C150.61,-166.48 111.04,-155.31 85.5,-129 55.26,-97.85 54.85,-40.6 55.89,-19.03"/>
<polygon fill="#63b8ff" stroke="#63b8ff" points="183.98,-174.56 194.33,-172.27 184.81,-167.61 183.98,-174.56"/>
</a>
</g>
</g>
<!-- Node5 -->
<g id="Node000005" class="node">
<title>Node5</title>
<g id="a_Node000005"><a xlink:href="display__ui_8cpp_source.html" target="_top" xlink:title=" ">
<polygon fill="white" stroke="#666666" points="372.5,-19 246.5,-19 246.5,0 372.5,0 372.5,-19"/>
<text text-anchor="middle" x="309.5" y="-7" font-family="Helvetica,sans-Serif" font-size="10.00">firm/src/display_ui.cpp</text>
</a>
</g>
</g>
<!-- Node1&#45;&gt;Node5 -->
<g id="edge11_Node000001_Node000005" class="edge">
<title>Node1&#45;&gt;Node5</title>
<g id="a_edge11_Node000001_Node000005"><a xlink:title=" ">
<path fill="none" stroke="#63b8ff" d="M255.23,-155.6C264.65,-135.9 279.75,-103.14 290.5,-74 297.59,-54.78 304.01,-31.59 307.26,-19.24"/>
<polygon fill="#63b8ff" stroke="#63b8ff" points="251.96,-154.34 250.76,-164.87 258.26,-157.38 251.96,-154.34"/>
</a>
</g>
</g>
<!-- Node7 -->
<g id="Node000007" class="node">
<title>Node7</title>
<g id="a_Node000007"><a xlink:href="gps_8cpp_source.html" target="_top" xlink:title=" ">
<polygon fill="white" stroke="#666666" points="431.5,-129 337.5,-129 337.5,-110 431.5,-110 431.5,-129"/>
<text text-anchor="middle" x="384.5" y="-117" font-family="Helvetica,sans-Serif" font-size="10.00">firm/src/gps.cpp</text>
</a>
</g>
</g>
<!-- Node1&#45;&gt;Node7 -->
<g id="edge12_Node000001_Node000007" class="edge">
<title>Node1&#45;&gt;Node7</title>
<g id="a_edge12_Node000001_Node000007"><a xlink:title=" ">
<path fill="none" stroke="#63b8ff" d="M278.29,-161.29C303.87,-151.47 339.17,-137.91 361.92,-129.17"/>
<polygon fill="#63b8ff" stroke="#63b8ff" points="276.75,-158.13 268.67,-164.98 279.26,-164.67 276.75,-158.13"/>
</a>
</g>
</g>
<!-- Node2&#45;&gt;Node3 -->
<g id="edge2_Node000002_Node000003" class="edge">
<title>Node2&#45;&gt;Node3</title>
<g id="a_edge2_Node000002_Node000003"><a xlink:title=" ">
<path fill="none" stroke="#63b8ff" d="M167.71,-102.24C176.8,-92.95 189.31,-81.68 199.13,-74.09"/>
<polygon fill="#63b8ff" stroke="#63b8ff" points="164.98,-100.04 160.75,-109.75 170.11,-104.79 164.98,-100.04"/>
</a>
</g>
</g>
<!-- Node2&#45;&gt;Node4 -->
<g id="edge7_Node000002_Node000004" class="edge">
<title>Node2&#45;&gt;Node4</title>
<g id="a_edge7_Node000002_Node000004"><a xlink:title=" ">
<path fill="none" stroke="#63b8ff" d="M141.5,-102.3C120.02,-79.1 81.23,-37.21 64.52,-19.16"/>
<polygon fill="#63b8ff" stroke="#63b8ff" points="138.95,-104.7 148.32,-109.66 144.09,-99.95 138.95,-104.7"/>
</a>
</g>
</g>
<!-- Node6 -->
<g id="Node000006" class="node">
<title>Node6</title>
<g id="a_Node000006"><a xlink:href="leds_8cpp_source.html" target="_top" xlink:title=" ">
<polygon fill="white" stroke="#666666" points="228,-19 131,-19 131,0 228,0 228,-19"/>
<text text-anchor="middle" x="179.5" y="-7" font-family="Helvetica,sans-Serif" font-size="10.00">firm/src/leds.cpp</text>
</a>
</g>
</g>
<!-- Node2&#45;&gt;Node6 -->
<g id="edge8_Node000002_Node000006" class="edge">
<title>Node2&#45;&gt;Node6</title>
<g id="a_edge8_Node000002_Node000006"><a xlink:title=" ">
<path fill="none" stroke="#63b8ff" d="M144.45,-100.95C137.16,-88.05 130.36,-70.2 136.5,-55 142.62,-39.86 156.63,-27.01 167.01,-19.07"/>
<polygon fill="#63b8ff" stroke="#63b8ff" points="141.66,-103.08 149.91,-109.72 147.6,-99.38 141.66,-103.08"/>
</a>
</g>
</g>
<!-- Node3&#45;&gt;Node2 -->
<g id="edge3_Node000003_Node000002" class="edge">
<title>Node3&#45;&gt;Node2</title>
<g id="a_edge3_Node000003_Node000002"><a xlink:title=" ">
<path fill="none" stroke="#63b8ff" d="M202.35,-81.71C193.22,-91.04 180.63,-102.38 170.77,-109.98"/>
<polygon fill="#63b8ff" stroke="#63b8ff" points="205.1,-83.89 209.32,-74.17 199.96,-79.13 205.1,-83.89"/>
</a>
</g>
</g>
<!-- Node3&#45;&gt;Node4 -->
<g id="edge4_Node000003_Node000004" class="edge">
<title>Node3&#45;&gt;Node4</title>
<g id="a_edge4_Node000003_Node000004"><a xlink:title=" ">
<path fill="none" stroke="#63b8ff" d="M178.45,-51.67C149.18,-41.79 108.13,-27.93 81.92,-19.08"/>
<polygon fill="#63b8ff" stroke="#63b8ff" points="177.68,-55.1 188.28,-54.98 179.92,-48.47 177.68,-55.1"/>
</a>
</g>
</g>
<!-- Node3&#45;&gt;Node5 -->
<g id="edge5_Node000003_Node000005" class="edge">
<title>Node3&#45;&gt;Node5</title>
<g id="a_edge5_Node000003_Node000005"><a xlink:title=" ">
<path fill="none" stroke="#63b8ff" d="M238.02,-49.97C255.56,-40.28 278.67,-27.52 293.8,-19.17"/>
<polygon fill="#63b8ff" stroke="#63b8ff" points="235.99,-47.09 228.92,-54.98 239.37,-53.22 235.99,-47.09"/>
</a>
</g>
</g>
<!-- Node3&#45;&gt;Node6 -->
<g id="edge6_Node000003_Node000006" class="edge">
<title>Node3&#45;&gt;Node6</title>
<g id="a_edge6_Node000003_Node000006"><a xlink:title=" ">
<path fill="none" stroke="#63b8ff" d="M202.34,-46.1C196.53,-37.04 189.68,-26.37 185.01,-19.09"/>
<polygon fill="#63b8ff" stroke="#63b8ff" points="199.54,-48.22 207.89,-54.75 205.43,-44.44 199.54,-48.22"/>
</a>
</g>
</g>
</g>
</svg>
