<?xml version="1.0" encoding="UTF-8" standalone="no"?>
<!DOCTYPE svg PUBLIC "-//W3C//DTD SVG 1.1//EN"
 "http://www.w3.org/Graphics/SVG/1.1/DTD/svg11.dtd">
<!-- Generated by graphviz version 2.43.0 (0)
 -->
<!-- Title: print_NMEA_rmc Pages: 1 -->
<svg width="241pt" height="101pt"
 viewBox="0.00 0.00 241.00 101.00" xmlns="http://www.w3.org/2000/svg" xmlns:xlink="http://www.w3.org/1999/xlink">
<g id="graph0" class="graph" transform="scale(1 1) rotate(0) translate(4 97)">
<title>print_NMEA_rmc</title>
<!-- Node1 -->
<g id="Node000001" class="node">
<title>Node1</title>
<g id="a_Node000001"><a xlink:title="Stampa i dettagli di una sentenza $xxRMC (Recommended Minimum Navigation Information).">
<polygon fill="#999999" stroke="#666666" points="98,-56 0,-56 0,-37 98,-37 98,-56"/>
<text text-anchor="middle" x="49" y="-44" font-family="Helvetica,sans-Serif" font-size="10.00">print_NMEA_rmc</text>
</a>
</g>
</g>
<!-- Node2 -->
<g id="Node000002" class="node">
<title>Node2</title>
<g id="a_Node000002"><a xlink:href="minmea_8h.html#a7d5b32164f339789b22446e5bfc1afbc" target="_top" xlink:title=" ">
<polygon fill="white" stroke="#666666" points="232.5,-93 134.5,-93 134.5,-74 232.5,-74 232.5,-93"/>
<text text-anchor="middle" x="183.5" y="-81" font-family="Helvetica,sans-Serif" font-size="10.00">minmea_rescale</text>
</a>
</g>
</g>
<!-- Node1&#45;&gt;Node2 -->
<g id="edge1_Node000001_Node000002" class="edge">
<title>Node1&#45;&gt;Node2</title>
<g id="a_edge1_Node000001_Node000002"><a xlink:title=" ">
<path fill="none" stroke="#63b8ff" d="M84.12,-56.03C100.53,-60.61 120.41,-66.16 137.99,-71.07"/>
<polygon fill="#63b8ff" stroke="#63b8ff" points="137.46,-74.56 148.03,-73.88 139.34,-67.81 137.46,-74.56"/>
</a>
</g>
</g>
<!-- Node3 -->
<g id="Node000003" class="node">
<title>Node3</title>
<g id="a_Node000003"><a xlink:href="minmea_8h.html#a82cdc79749798023b4a1952faf84f1ca" target="_top" xlink:title=" ">
<polygon fill="white" stroke="#666666" points="233,-56 134,-56 134,-37 233,-37 233,-56"/>
<text text-anchor="middle" x="183.5" y="-44" font-family="Helvetica,sans-Serif" font-size="10.00">minmea_tocoord</text>
</a>
</g>
</g>
<!-- Node1&#45;&gt;Node3 -->
<g id="edge2_Node000001_Node000003" class="edge">
<title>Node1&#45;&gt;Node3</title>
<g id="a_edge2_Node000001_Node000003"><a xlink:title=" ">
<path fill="none" stroke="#63b8ff" d="M98.21,-46.5C106.42,-46.5 115.02,-46.5 123.47,-46.5"/>
<polygon fill="#63b8ff" stroke="#63b8ff" points="123.66,-50 133.66,-46.5 123.66,-43 123.66,-50"/>
</a>
</g>
</g>
<!-- Node4 -->
<g id="Node000004" class="node">
<title>Node4</title>
<g id="a_Node000004"><a xlink:href="minmea_8h.html#ac7f8c6a8f35e4181b7f376560fef677b" target="_top" xlink:title=" ">
<polygon fill="white" stroke="#666666" points="230.5,-19 136.5,-19 136.5,0 230.5,0 230.5,-19"/>
<text text-anchor="middle" x="183.5" y="-7" font-family="Helvetica,sans-Serif" font-size="10.00">minmea_tofloat</text>
</a>
</g>
</g>
<!-- Node1&#45;&gt;Node4 -->
<g id="edge3_Node000001_Node000004" class="edge">
<title>Node1&#45;&gt;Node4</title>
<g id="a_edge3_Node000001_Node000004"><a xlink:title=" ">
<path fill="none" stroke="#63b8ff" d="M84.12,-36.97C100.53,-32.39 120.41,-26.84 137.99,-21.93"/>
<polygon fill="#63b8ff" stroke="#63b8ff" points="139.34,-25.19 148.03,-19.12 137.46,-18.44 139.34,-25.19"/>
</a>
</g>
</g>
</g>
</svg>
