<?xml version="1.0" encoding="UTF-8" standalone="no"?>
<!DOCTYPE svg PUBLIC "-//W3C//DTD SVG 1.1//EN"
 "http://www.w3.org/Graphics/SVG/1.1/DTD/svg11.dtd">
<!-- Generated by graphviz version 2.43.0 (0)
 -->
<!-- Title: nmea_gps_parse Pages: 1 -->
<svg width="519pt" height="434pt"
 viewBox="0.00 0.00 519.00 434.00" xmlns="http://www.w3.org/2000/svg" xmlns:xlink="http://www.w3.org/1999/xlink">
<g id="graph0" class="graph" transform="scale(1 1) rotate(0) translate(4 430)">
<title>nmea_gps_parse</title>
<!-- Node1 -->
<g id="Node000001" class="node">
<title>Node1</title>
<g id="a_Node000001"><a xlink:title="Esegue il parsing di una stringa NMEA.">
<polygon fill="#999999" stroke="#666666" points="99,-222 0,-222 0,-203 99,-203 99,-222"/>
<text text-anchor="middle" x="49.5" y="-210" font-family="Helvetica,sans-Serif" font-size="10.00">nmea_gps_parse</text>
</a>
</g>
</g>
<!-- Node2 -->
<g id="Node000002" class="node">
<title>Node2</title>
<g id="a_Node000002"><a xlink:href="minmea_8c.html#a0e892adb1166185572c0e4614bc1eb13" target="_top" xlink:title=" ">
<polygon fill="white" stroke="#666666" points="248,-426 135,-426 135,-407 248,-407 248,-426"/>
<text text-anchor="middle" x="191.5" y="-414" font-family="Helvetica,sans-Serif" font-size="10.00">minmea_parse_gga</text>
</a>
</g>
</g>
<!-- Node1&#45;&gt;Node2 -->
<g id="edge1_Node000001_Node000002" class="edge">
<title>Node1&#45;&gt;Node2</title>
<g id="a_edge1_Node000001_Node000002"><a xlink:title=" ">
<path fill="none" stroke="#63b8ff" d="M52.08,-222.22C57.57,-252.83 78.65,-348.18 135,-398.5 136.32,-399.68 137.73,-400.79 139.19,-401.82"/>
<polygon fill="#63b8ff" stroke="#63b8ff" points="137.73,-405.02 148.14,-406.98 141.23,-398.95 137.73,-405.02"/>
</a>
</g>
</g>
<!-- Node5 -->
<g id="Node000005" class="node">
<title>Node5</title>
<g id="a_Node000005"><a xlink:href="minmea_8c.html#ac699de4ccd27d72d2eda3ddb64158014" target="_top" xlink:title=" ">
<polygon fill="white" stroke="#666666" points="246.5,-389 136.5,-389 136.5,-370 246.5,-370 246.5,-389"/>
<text text-anchor="middle" x="191.5" y="-377" font-family="Helvetica,sans-Serif" font-size="10.00">minmea_parse_gst</text>
</a>
</g>
</g>
<!-- Node1&#45;&gt;Node5 -->
<g id="edge4_Node000001_Node000005" class="edge">
<title>Node1&#45;&gt;Node5</title>
<g id="a_edge4_Node000001_Node000005"><a xlink:title=" ">
<path fill="none" stroke="#63b8ff" d="M53.24,-222.13C61.24,-248.47 87.07,-322.4 135,-361.5 136.56,-362.77 138.21,-363.96 139.93,-365.06"/>
<polygon fill="#63b8ff" stroke="#63b8ff" points="138.53,-368.27 149,-369.9 141.83,-362.1 138.53,-368.27"/>
</a>
</g>
</g>
<!-- Node6 -->
<g id="Node000006" class="node">
<title>Node6</title>
<g id="a_Node000006"><a xlink:href="minmea_8c.html#abe3a4ed1fc95c8d8f847b8ff54b23242" target="_top" xlink:title=" ">
<polygon fill="white" stroke="#666666" points="247.5,-352 135.5,-352 135.5,-333 247.5,-333 247.5,-352"/>
<text text-anchor="middle" x="191.5" y="-340" font-family="Helvetica,sans-Serif" font-size="10.00">minmea_parse_gsv</text>
</a>
</g>
</g>
<!-- Node1&#45;&gt;Node6 -->
<g id="edge6_Node000001_Node000006" class="edge">
<title>Node1&#45;&gt;Node6</title>
<g id="a_edge6_Node000001_Node000006"><a xlink:title=" ">
<path fill="none" stroke="#63b8ff" d="M55.17,-222.18C66.07,-243.77 95.32,-296.23 135,-324.5 137.09,-325.99 139.32,-327.36 141.62,-328.63"/>
<polygon fill="#63b8ff" stroke="#63b8ff" points="140.3,-331.87 150.84,-332.97 143.29,-325.54 140.3,-331.87"/>
</a>
</g>
</g>
<!-- Node7 -->
<g id="Node000007" class="node">
<title>Node7</title>
<g id="a_Node000007"><a xlink:href="minmea_8c.html#a9a6083eb3b90edb0b96eaedc732313b7" target="_top" xlink:title=" ">
<polygon fill="white" stroke="#666666" points="248,-315 135,-315 135,-296 248,-296 248,-315"/>
<text text-anchor="middle" x="191.5" y="-303" font-family="Helvetica,sans-Serif" font-size="10.00">minmea_parse_rmc</text>
</a>
</g>
</g>
<!-- Node1&#45;&gt;Node7 -->
<g id="edge8_Node000001_Node000007" class="edge">
<title>Node1&#45;&gt;Node7</title>
<g id="a_edge8_Node000001_Node000007"><a xlink:title=" ">
<path fill="none" stroke="#63b8ff" d="M58.9,-222.19C73.08,-238 103.33,-269.38 135,-287.5 137.99,-289.21 141.17,-290.79 144.43,-292.23"/>
<polygon fill="#63b8ff" stroke="#63b8ff" points="143.17,-295.5 153.75,-295.96 145.77,-289 143.17,-295.5"/>
</a>
</g>
</g>
<!-- Node8 -->
<g id="Node000008" class="node">
<title>Node8</title>
<g id="a_Node000008"><a xlink:href="minmea_8c.html#afe00342610ebb8d37f3560b0cc31a52f" target="_top" xlink:title=" ">
<polygon fill="white" stroke="#666666" points="246.5,-278 136.5,-278 136.5,-259 246.5,-259 246.5,-278"/>
<text text-anchor="middle" x="191.5" y="-266" font-family="Helvetica,sans-Serif" font-size="10.00">minmea_parse_vtg</text>
</a>
</g>
</g>
<!-- Node1&#45;&gt;Node8 -->
<g id="edge10_Node000001_Node000008" class="edge">
<title>Node1&#45;&gt;Node8</title>
<g id="a_edge10_Node000001_Node000008"><a xlink:title=" ">
<path fill="none" stroke="#63b8ff" d="M70.05,-222.02C87.01,-230.11 112.34,-241.76 135,-250.5 139.6,-252.27 144.46,-254.03 149.31,-255.7"/>
<polygon fill="#63b8ff" stroke="#63b8ff" points="148.58,-259.14 159.18,-259 150.8,-252.51 148.58,-259.14"/>
</a>
</g>
</g>
<!-- Node9 -->
<g id="Node000009" class="node">
<title>Node9</title>
<g id="a_Node000009"><a xlink:href="minmea_8c.html#a389a195750045dfecc8e47d2641dec13" target="_top" xlink:title=" ">
<polygon fill="white" stroke="#666666" points="247.5,-241 135.5,-241 135.5,-222 247.5,-222 247.5,-241"/>
<text text-anchor="middle" x="191.5" y="-229" font-family="Helvetica,sans-Serif" font-size="10.00">minmea_parse_zda</text>
</a>
</g>
</g>
<!-- Node1&#45;&gt;Node9 -->
<g id="edge12_Node000001_Node000009" class="edge">
<title>Node1&#45;&gt;Node9</title>
<g id="a_edge12_Node000001_Node000009"><a xlink:title=" ">
<path fill="none" stroke="#63b8ff" d="M99.07,-219.09C107.56,-220.24 116.52,-221.46 125.38,-222.66"/>
<polygon fill="#63b8ff" stroke="#63b8ff" points="124.92,-226.13 135.3,-224.01 125.86,-219.2 124.92,-226.13"/>
</a>
</g>
</g>
<!-- Node10 -->
<g id="Node000010" class="node">
<title>Node10</title>
<g id="a_Node000010"><a xlink:href="gps_8cpp.html#ae7e06054042f4d22ce3f7641a654dfba" target="_top" xlink:title="Stampa la qualità del fix da una sentenza $xxGGA (Global Positioning System Fix Data).">
<polygon fill="white" stroke="#666666" points="240,-204 143,-204 143,-185 240,-185 240,-204"/>
<text text-anchor="middle" x="191.5" y="-192" font-family="Helvetica,sans-Serif" font-size="10.00">print_NMEA_gga</text>
</a>
</g>
</g>
<!-- Node1&#45;&gt;Node10 -->
<g id="edge14_Node000001_Node000010" class="edge">
<title>Node1&#45;&gt;Node10</title>
<g id="a_edge14_Node000001_Node000010"><a xlink:title=" ">
<path fill="none" stroke="#63b8ff" d="M99.07,-206.25C109.96,-204.86 121.6,-203.36 132.82,-201.92"/>
<polygon fill="#63b8ff" stroke="#63b8ff" points="133.49,-205.36 142.96,-200.61 132.59,-198.42 133.49,-205.36"/>
</a>
</g>
</g>
<!-- Node11 -->
<g id="Node000011" class="node">
<title>Node11</title>
<g id="a_Node000011"><a xlink:href="gps_8cpp.html#a86800585d87c13db519115d7d460aac0" target="_top" xlink:title="Stampa gli errori di deviazione da una sentenza $xxGST (GPS Pseudorange Noise Statistics).">
<polygon fill="white" stroke="#666666" points="238.5,-130 144.5,-130 144.5,-111 238.5,-111 238.5,-130"/>
<text text-anchor="middle" x="191.5" y="-118" font-family="Helvetica,sans-Serif" font-size="10.00">print_NMEA_gst</text>
</a>
</g>
</g>
<!-- Node1&#45;&gt;Node11 -->
<g id="edge15_Node000001_Node000011" class="edge">
<title>Node1&#45;&gt;Node11</title>
<g id="a_edge15_Node000001_Node000011"><a xlink:title=" ">
<path fill="none" stroke="#63b8ff" d="M58.92,-202.94C73.14,-187.36 103.46,-156.41 135,-138.5 138,-136.8 141.18,-135.23 144.44,-133.79"/>
<polygon fill="#63b8ff" stroke="#63b8ff" points="145.78,-137.03 153.77,-130.07 143.19,-130.52 145.78,-137.03"/>
</a>
</g>
</g>
<!-- Node14 -->
<g id="Node000014" class="node">
<title>Node14</title>
<g id="a_Node000014"><a xlink:href="gps_8cpp.html#a6ec6b5a4090671490d31c770fe6afa0d" target="_top" xlink:title="Stampa lo stato dei satelliti in vista da una sentenza $xxGSV (Satellites in View).">
<polygon fill="white" stroke="#666666" points="239.5,-56 143.5,-56 143.5,-37 239.5,-37 239.5,-56"/>
<text text-anchor="middle" x="191.5" y="-44" font-family="Helvetica,sans-Serif" font-size="10.00">print_NMEA_gsv</text>
</a>
</g>
</g>
<!-- Node1&#45;&gt;Node14 -->
<g id="edge18_Node000001_Node000014" class="edge">
<title>Node1&#45;&gt;Node14</title>
<g id="a_edge18_Node000001_Node000014"><a xlink:title=" ">
<path fill="none" stroke="#63b8ff" d="M53.26,-202.94C61.31,-176.77 87.26,-103.33 135,-64.5 136.56,-63.23 138.22,-62.05 139.94,-60.95"/>
<polygon fill="#63b8ff" stroke="#63b8ff" points="141.83,-63.91 149.01,-56.11 138.54,-57.73 141.83,-63.91"/>
</a>
</g>
</g>
<!-- Node15 -->
<g id="Node000015" class="node">
<title>Node15</title>
<g id="a_Node000015"><a xlink:href="gps_8cpp.html#a4650a0bef4037f605b746db3e8dce5bf" target="_top" xlink:title="Stampa i dettagli di una sentenza $xxRMC (Recommended Minimum Navigation Information).">
<polygon fill="white" stroke="#666666" points="240.5,-93 142.5,-93 142.5,-74 240.5,-74 240.5,-93"/>
<text text-anchor="middle" x="191.5" y="-81" font-family="Helvetica,sans-Serif" font-size="10.00">print_NMEA_rmc</text>
</a>
</g>
</g>
<!-- Node1&#45;&gt;Node15 -->
<g id="edge19_Node000001_Node000015" class="edge">
<title>Node1&#45;&gt;Node15</title>
<g id="a_edge19_Node000001_Node000015"><a xlink:title=" ">
<path fill="none" stroke="#63b8ff" d="M55.19,-202.91C66.14,-181.51 95.49,-129.52 135,-101.5 137.1,-100.01 139.32,-98.64 141.63,-97.38"/>
<polygon fill="#63b8ff" stroke="#63b8ff" points="143.3,-100.47 150.86,-93.05 140.32,-94.14 143.3,-100.47"/>
</a>
</g>
</g>
<!-- Node17 -->
<g id="Node000017" class="node">
<title>Node17</title>
<g id="a_Node000017"><a xlink:href="gps_8cpp.html#a77ab7d9e159a0a804e5467a44204eebd" target="_top" xlink:title="Stampa rotta e velocità al suolo da una sentenza $xxVTG (Track Made Good and Ground Speed).">
<polygon fill="white" stroke="#666666" points="239,-167 144,-167 144,-148 239,-148 239,-167"/>
<text text-anchor="middle" x="191.5" y="-155" font-family="Helvetica,sans-Serif" font-size="10.00">print_NMEA_vtg</text>
</a>
</g>
</g>
<!-- Node1&#45;&gt;Node17 -->
<g id="edge23_Node000001_Node000017" class="edge">
<title>Node1&#45;&gt;Node17</title>
<g id="a_edge23_Node000001_Node000017"><a xlink:title=" ">
<path fill="none" stroke="#63b8ff" d="M70.76,-202.95C87.73,-195.12 112.69,-183.98 135,-175.5 139.61,-173.75 144.47,-172.01 149.33,-170.35"/>
<polygon fill="#63b8ff" stroke="#63b8ff" points="150.82,-173.54 159.2,-167.05 148.6,-166.9 150.82,-173.54"/>
</a>
</g>
</g>
<!-- Node18 -->
<g id="Node000018" class="node">
<title>Node18</title>
<g id="a_Node000018"><a xlink:href="gps_8cpp.html#ac1555845e4e7fe4d8de83d57a2a6c949" target="_top" xlink:title="Stampa data e ora UTC da una sentenza $xxZDA (Time &amp; Date).">
<polygon fill="white" stroke="#666666" points="239.5,-19 143.5,-19 143.5,0 239.5,0 239.5,-19"/>
<text text-anchor="middle" x="191.5" y="-7" font-family="Helvetica,sans-Serif" font-size="10.00">print_NMEA_zda</text>
</a>
</g>
</g>
<!-- Node1&#45;&gt;Node18 -->
<g id="edge25_Node000001_Node000018" class="edge">
<title>Node1&#45;&gt;Node18</title>
<g id="a_edge25_Node000001_Node000018"><a xlink:title=" ">
<path fill="none" stroke="#63b8ff" d="M52.1,-202.83C57.64,-172.38 78.85,-77.54 135,-27.5 136.33,-26.32 137.73,-25.21 139.2,-24.18"/>
<polygon fill="#63b8ff" stroke="#63b8ff" points="141.23,-27.05 148.15,-19.03 137.74,-20.98 141.23,-27.05"/>
</a>
</g>
</g>
<!-- Node3 -->
<g id="Node000003" class="node">
<title>Node3</title>
<g id="a_Node000003"><a xlink:href="minmea_8c.html#a15e9012d03411f7471ca65649f206cc0" target="_top" xlink:title=" ">
<polygon fill="white" stroke="#666666" points="376,-333 291,-333 291,-314 376,-314 376,-333"/>
<text text-anchor="middle" x="333.5" y="-321" font-family="Helvetica,sans-Serif" font-size="10.00">minmea_scan</text>
</a>
</g>
</g>
<!-- Node2&#45;&gt;Node3 -->
<g id="edge2_Node000002_Node000003" class="edge">
<title>Node2&#45;&gt;Node3</title>
<g id="a_edge2_Node000002_Node000003"><a xlink:title=" ">
<path fill="none" stroke="#63b8ff" d="M229.25,-406.96C235.7,-404.63 242.2,-401.82 248,-398.5 275.21,-382.93 301.39,-357.56 317.21,-340.7"/>
<polygon fill="#63b8ff" stroke="#63b8ff" points="319.92,-342.93 324.1,-333.19 314.76,-338.19 319.92,-342.93"/>
</a>
</g>
</g>
<!-- Node4 -->
<g id="Node000004" class="node">
<title>Node4</title>
<g id="a_Node000004"><a xlink:href="minmea_8h.html#acd31fbf84ad0c2e5dac349ca993248be" target="_top" xlink:title=" ">
<polygon fill="white" stroke="#666666" points="511,-333 419,-333 419,-314 511,-314 511,-333"/>
<text text-anchor="middle" x="465" y="-321" font-family="Helvetica,sans-Serif" font-size="10.00">minmea_isfield</text>
</a>
</g>
</g>
<!-- Node3&#45;&gt;Node4 -->
<g id="edge3_Node000003_Node000004" class="edge">
<title>Node3&#45;&gt;Node4</title>
<g id="a_edge3_Node000003_Node000004"><a xlink:title=" ">
<path fill="none" stroke="#63b8ff" d="M376.19,-323.5C386.5,-323.5 397.7,-323.5 408.56,-323.5"/>
<polygon fill="#63b8ff" stroke="#63b8ff" points="408.81,-327 418.81,-323.5 408.81,-320 408.81,-327"/>
</a>
</g>
</g>
<!-- Node5&#45;&gt;Node3 -->
<g id="edge5_Node000005_Node000003" class="edge">
<title>Node5&#45;&gt;Node3</title>
<g id="a_edge5_Node000005_Node000003"><a xlink:title=" ">
<path fill="none" stroke="#63b8ff" d="M223.82,-370C231.77,-367.41 240.25,-364.49 248,-361.5 266.77,-354.26 287.36,-345.03 303.52,-337.48"/>
<polygon fill="#63b8ff" stroke="#63b8ff" points="305.4,-340.46 312.95,-333.02 302.41,-334.13 305.4,-340.46"/>
</a>
</g>
</g>
<!-- Node6&#45;&gt;Node3 -->
<g id="edge7_Node000006_Node000003" class="edge">
<title>Node6&#45;&gt;Node3</title>
<g id="a_edge7_Node000006_Node000003"><a xlink:title=" ">
<path fill="none" stroke="#63b8ff" d="M247.83,-334.99C258.72,-333.51 270.11,-331.97 280.87,-330.51"/>
<polygon fill="#63b8ff" stroke="#63b8ff" points="281.52,-333.95 290.96,-329.14 280.58,-327.01 281.52,-333.95"/>
</a>
</g>
</g>
<!-- Node7&#45;&gt;Node3 -->
<g id="edge9_Node000007_Node000003" class="edge">
<title>Node7&#45;&gt;Node3</title>
<g id="a_edge9_Node000007_Node000003"><a xlink:title=" ">
<path fill="none" stroke="#63b8ff" d="M248.23,-312.67C258.98,-314.05 270.2,-315.49 280.81,-316.85"/>
<polygon fill="#63b8ff" stroke="#63b8ff" points="280.4,-320.33 290.77,-318.13 281.29,-313.39 280.4,-320.33"/>
</a>
</g>
</g>
<!-- Node8&#45;&gt;Node3 -->
<g id="edge11_Node000008_Node000003" class="edge">
<title>Node8&#45;&gt;Node3</title>
<g id="a_edge11_Node000008_Node000003"><a xlink:title=" ">
<path fill="none" stroke="#63b8ff" d="M221.74,-278.06C230.25,-280.97 239.54,-284.25 248,-287.5 266,-294.41 285.85,-302.82 301.78,-309.77"/>
<polygon fill="#63b8ff" stroke="#63b8ff" points="300.58,-313.07 311.14,-313.89 303.4,-306.66 300.58,-313.07"/>
</a>
</g>
</g>
<!-- Node9&#45;&gt;Node3 -->
<g id="edge13_Node000009_Node000003" class="edge">
<title>Node9&#45;&gt;Node3</title>
<g id="a_edge13_Node000009_Node000003"><a xlink:title=" ">
<path fill="none" stroke="#63b8ff" d="M227.15,-241.07C234.27,-243.66 241.55,-246.8 248,-250.5 274.58,-265.76 300.57,-290.02 316.55,-306.34"/>
<polygon fill="#63b8ff" stroke="#63b8ff" points="314.1,-308.85 323.55,-313.64 319.15,-304 314.1,-308.85"/>
</a>
</g>
</g>
<!-- Node12 -->
<g id="Node000012" class="node">
<title>Node12</title>
<g id="a_Node000012"><a xlink:href="minmea_8h.html#a7d5b32164f339789b22446e5bfc1afbc" target="_top" xlink:title=" ">
<polygon fill="white" stroke="#666666" points="382.5,-112 284.5,-112 284.5,-93 382.5,-93 382.5,-112"/>
<text text-anchor="middle" x="333.5" y="-100" font-family="Helvetica,sans-Serif" font-size="10.00">minmea_rescale</text>
</a>
</g>
</g>
<!-- Node11&#45;&gt;Node12 -->
<g id="edge16_Node000011_Node000012" class="edge">
<title>Node11&#45;&gt;Node12</title>
<g id="a_edge16_Node000011_Node000012"><a xlink:title=" ">
<path fill="none" stroke="#63b8ff" d="M238.73,-114.56C250.06,-113.1 262.34,-111.52 274.16,-110"/>
<polygon fill="#63b8ff" stroke="#63b8ff" points="274.93,-113.43 284.4,-108.68 274.03,-106.49 274.93,-113.43"/>
</a>
</g>
</g>
<!-- Node13 -->
<g id="Node000013" class="node">
<title>Node13</title>
<g id="a_Node000013"><a xlink:href="minmea_8h.html#ac7f8c6a8f35e4181b7f376560fef677b" target="_top" xlink:title=" ">
<polygon fill="white" stroke="#666666" points="380.5,-149 286.5,-149 286.5,-130 380.5,-130 380.5,-149"/>
<text text-anchor="middle" x="333.5" y="-137" font-family="Helvetica,sans-Serif" font-size="10.00">minmea_tofloat</text>
</a>
</g>
</g>
<!-- Node11&#45;&gt;Node13 -->
<g id="edge17_Node000011_Node000013" class="edge">
<title>Node11&#45;&gt;Node13</title>
<g id="a_edge17_Node000011_Node000013"><a xlink:title=" ">
<path fill="none" stroke="#63b8ff" d="M238.73,-126.77C250.68,-128.4 263.67,-130.16 276.08,-131.84"/>
<polygon fill="#63b8ff" stroke="#63b8ff" points="275.94,-135.36 286.32,-133.23 276.88,-128.42 275.94,-135.36"/>
</a>
</g>
</g>
<!-- Node15&#45;&gt;Node12 -->
<g id="edge20_Node000015_Node000012" class="edge">
<title>Node15&#45;&gt;Node12</title>
<g id="a_edge20_Node000015_Node000012"><a xlink:title=" ">
<path fill="none" stroke="#63b8ff" d="M240.68,-90.04C251.46,-91.5 263.01,-93.07 274.15,-94.58"/>
<polygon fill="#63b8ff" stroke="#63b8ff" points="273.85,-98.07 284.23,-95.95 274.79,-91.14 273.85,-98.07"/>
</a>
</g>
</g>
<!-- Node15&#45;&gt;Node13 -->
<g id="edge22_Node000015_Node000013" class="edge">
<title>Node15&#45;&gt;Node13</title>
<g id="a_edge22_Node000015_Node000013"><a xlink:title=" ">
<path fill="none" stroke="#63b8ff" d="M225.13,-93.05C232.73,-95.55 240.72,-98.43 248,-101.5 264.67,-108.54 267.55,-112.97 284,-120.5 288.18,-122.42 292.62,-124.32 297.04,-126.14"/>
<polygon fill="#63b8ff" stroke="#63b8ff" points="296.02,-129.5 306.6,-129.97 298.62,-123 296.02,-129.5"/>
</a>
</g>
</g>
<!-- Node16 -->
<g id="Node000016" class="node">
<title>Node16</title>
<g id="a_Node000016"><a xlink:href="minmea_8h.html#a82cdc79749798023b4a1952faf84f1ca" target="_top" xlink:title=" ">
<polygon fill="white" stroke="#666666" points="383,-75 284,-75 284,-56 383,-56 383,-75"/>
<text text-anchor="middle" x="333.5" y="-63" font-family="Helvetica,sans-Serif" font-size="10.00">minmea_tocoord</text>
</a>
</g>
</g>
<!-- Node15&#45;&gt;Node16 -->
<g id="edge21_Node000015_Node000016" class="edge">
<title>Node15&#45;&gt;Node16</title>
<g id="a_edge21_Node000015_Node000016"><a xlink:title=" ">
<path fill="none" stroke="#63b8ff" d="M240.68,-77.31C251.34,-75.94 262.75,-74.47 273.77,-73.05"/>
<polygon fill="#63b8ff" stroke="#63b8ff" points="274.28,-76.51 283.76,-71.77 273.39,-69.57 274.28,-76.51"/>
</a>
</g>
</g>
<!-- Node17&#45;&gt;Node13 -->
<g id="edge24_Node000017_Node000013" class="edge">
<title>Node17&#45;&gt;Node13</title>
<g id="a_edge24_Node000017_Node000013"><a xlink:title=" ">
<path fill="none" stroke="#63b8ff" d="M239.12,-151.51C250.93,-149.99 263.74,-148.34 275.97,-146.77"/>
<polygon fill="#63b8ff" stroke="#63b8ff" points="276.61,-150.21 286.09,-145.47 275.72,-143.27 276.61,-150.21"/>
</a>
</g>
</g>
</g>
</svg>
