<?xml version="1.0" encoding="UTF-8" standalone="no"?>
<!DOCTYPE svg PUBLIC "-//W3C//DTD SVG 1.1//EN"
 "http://www.w3.org/Graphics/SVG/1.1/DTD/svg11.dtd">
<!-- Generated by graphviz version 2.43.0 (0)
 -->
<!-- Title: GPS_sync Pages: 1 -->
<svg width="924pt" height="471pt"
 viewBox="0.00 0.00 924.00 471.00" xmlns="http://www.w3.org/2000/svg" xmlns:xlink="http://www.w3.org/1999/xlink">
<g id="graph0" class="graph" transform="scale(1 1) rotate(0) translate(4 467)">
<title>GPS_sync</title>
<!-- Node1 -->
<g id="Node000001" class="node">
<title>Node1</title>
<g id="a_Node000001"><a xlink:title="Sincronizza i dati GPS globali e gestisce il salvataggio su Flash.">
<polygon fill="#999999" stroke="#666666" points="64,-185 0,-185 0,-166 64,-166 64,-185"/>
<text text-anchor="middle" x="32" y="-173" font-family="Helvetica,sans-Serif" font-size="10.00">GPS_sync</text>
</a>
</g>
</g>
<!-- Node2 -->
<g id="Node000002" class="node">
<title>Node2</title>
<g id="a_Node000002"><a xlink:href="gps_8cpp.html#aadbd2f07e07e8a3f472065571970cefe" target="_top" xlink:title="Estrae data e ora dai messaggi RMC.">
<polygon fill="white" stroke="#666666" points="228.5,-185 118.5,-185 118.5,-166 228.5,-166 228.5,-185"/>
<text text-anchor="middle" x="173.5" y="-173" font-family="Helvetica,sans-Serif" font-size="10.00">GetDate_and_Time</text>
</a>
</g>
</g>
<!-- Node1&#45;&gt;Node2 -->
<g id="edge1_Node000001_Node000002" class="edge">
<title>Node1&#45;&gt;Node2</title>
<g id="a_edge1_Node000001_Node000002"><a xlink:title=" ">
<path fill="none" stroke="#63b8ff" d="M64.31,-175.5C77.23,-175.5 92.71,-175.5 107.87,-175.5"/>
<polygon fill="#63b8ff" stroke="#63b8ff" points="108.28,-179 118.28,-175.5 108.28,-172 108.28,-179"/>
</a>
</g>
</g>
<!-- Node22 -->
<g id="Node000022" class="node">
<title>Node22</title>
<g id="a_Node000022"><a xlink:href="gps_8cpp.html#a177ee65fb57b969753487772f3fc552c" target="_top" xlink:title="Estrae posizione e numero satelliti dai messaggi GGA.">
<polygon fill="white" stroke="#666666" points="247,-222 100,-222 100,-203 247,-203 247,-222"/>
<text text-anchor="middle" x="173.5" y="-210" font-family="Helvetica,sans-Serif" font-size="10.00">GetPosition_and_Satellites</text>
</a>
</g>
</g>
<!-- Node1&#45;&gt;Node22 -->
<g id="edge29_Node000001_Node000022" class="edge">
<title>Node1&#45;&gt;Node22</title>
<g id="a_edge29_Node000001_Node000022"><a xlink:title=" ">
<path fill="none" stroke="#63b8ff" d="M64.3,-184.61C75.54,-187.81 88.32,-191.39 100,-194.5 107.49,-196.49 115.44,-198.53 123.21,-200.5"/>
<polygon fill="#63b8ff" stroke="#63b8ff" points="122.38,-203.89 132.93,-202.93 124.08,-197.1 122.38,-203.89"/>
</a>
</g>
</g>
<!-- Node23 -->
<g id="Node000023" class="node">
<title>Node23</title>
<g id="a_Node000023"><a xlink:href="gps_8cpp.html#aab2203af6c50eafde7df9509bc632fa6" target="_top" xlink:title="Salva le ultime coordinate valide in un file di testo (modalità overwrite).">
<polygon fill="white" stroke="#666666" points="369,-36 283,-36 283,-17 369,-17 369,-36"/>
<text text-anchor="middle" x="326" y="-24" font-family="Helvetica,sans-Serif" font-size="10.00">save_gps_last</text>
</a>
</g>
</g>
<!-- Node1&#45;&gt;Node23 -->
<g id="edge31_Node000001_Node000023" class="edge">
<title>Node1&#45;&gt;Node23</title>
<g id="a_edge31_Node000001_Node000023"><a xlink:title=" ">
<path fill="none" stroke="#63b8ff" d="M51.71,-165.95C101.55,-140.52 237.75,-71.02 296.93,-40.82"/>
<polygon fill="#63b8ff" stroke="#63b8ff" points="298.75,-43.82 306.07,-36.16 295.57,-37.59 298.75,-43.82"/>
</a>
</g>
</g>
<!-- Node3 -->
<g id="Node000003" class="node">
<title>Node3</title>
<g id="a_Node000003"><a xlink:href="gps_8cpp.html#a5c33ca28d942d03c752f418f3c04711f" target="_top" xlink:title="Tenta di acquisire un tipo specifico di sentenza NMEA dalla seriale.">
<polygon fill="white" stroke="#666666" points="361.5,-222 290.5,-222 290.5,-203 361.5,-203 361.5,-222"/>
<text text-anchor="middle" x="326" y="-210" font-family="Helvetica,sans-Serif" font-size="10.00">gpsAcquire</text>
</a>
</g>
</g>
<!-- Node2&#45;&gt;Node3 -->
<g id="edge2_Node000002_Node000003" class="edge">
<title>Node2&#45;&gt;Node3</title>
<g id="a_edge2_Node000002_Node000003"><a xlink:title=" ">
<path fill="none" stroke="#63b8ff" d="M213.26,-185.03C233.86,-190.09 259.27,-196.34 280.66,-201.6"/>
<polygon fill="#63b8ff" stroke="#63b8ff" points="279.93,-205.02 290.48,-204.01 281.61,-198.23 279.93,-205.02"/>
</a>
</g>
</g>
<!-- Node4 -->
<g id="Node000004" class="node">
<title>Node4</title>
<g id="a_Node000004"><a xlink:href="gps_8cpp.html#a1584cd930020560265588b72bde4654c" target="_top" xlink:title="Smista e decodifica una stringa NMEA grezza nella struttura dati corrispondente.">
<polygon fill="white" stroke="#666666" points="504,-241 405,-241 405,-222 504,-222 504,-241"/>
<text text-anchor="middle" x="454.5" y="-229" font-family="Helvetica,sans-Serif" font-size="10.00">nmea_gps_parse</text>
</a>
</g>
</g>
<!-- Node3&#45;&gt;Node4 -->
<g id="edge3_Node000003_Node000004" class="edge">
<title>Node3&#45;&gt;Node4</title>
<g id="a_edge3_Node000003_Node000004"><a xlink:title=" ">
<path fill="none" stroke="#63b8ff" d="M361.57,-217.69C371.86,-219.24 383.45,-220.98 394.83,-222.69"/>
<polygon fill="#63b8ff" stroke="#63b8ff" points="394.34,-226.15 404.75,-224.18 395.38,-219.23 394.34,-226.15"/>
</a>
</g>
</g>
<!-- Node5 -->
<g id="Node000005" class="node">
<title>Node5</title>
<g id="a_Node000005"><a xlink:href="minmea_8c.html#a0e892adb1166185572c0e4614bc1eb13" target="_top" xlink:title=" ">
<polygon fill="white" stroke="#666666" points="653,-278 540,-278 540,-259 653,-259 653,-278"/>
<text text-anchor="middle" x="596.5" y="-266" font-family="Helvetica,sans-Serif" font-size="10.00">minmea_parse_gga</text>
</a>
</g>
</g>
<!-- Node4&#45;&gt;Node5 -->
<g id="edge4_Node000004_Node000005" class="edge">
<title>Node4&#45;&gt;Node5</title>
<g id="a_edge4_Node000004_Node000005"><a xlink:title=" ">
<path fill="none" stroke="#63b8ff" d="M491.55,-241.03C509.13,-245.67 530.48,-251.32 549.25,-256.28"/>
<polygon fill="#63b8ff" stroke="#63b8ff" points="548.52,-259.7 559.08,-258.88 550.31,-252.94 548.52,-259.7"/>
</a>
</g>
</g>
<!-- Node8 -->
<g id="Node000008" class="node">
<title>Node8</title>
<g id="a_Node000008"><a xlink:href="minmea_8c.html#ac699de4ccd27d72d2eda3ddb64158014" target="_top" xlink:title=" ">
<polygon fill="white" stroke="#666666" points="651.5,-241 541.5,-241 541.5,-222 651.5,-222 651.5,-241"/>
<text text-anchor="middle" x="596.5" y="-229" font-family="Helvetica,sans-Serif" font-size="10.00">minmea_parse_gst</text>
</a>
</g>
</g>
<!-- Node4&#45;&gt;Node8 -->
<g id="edge7_Node000004_Node000008" class="edge">
<title>Node4&#45;&gt;Node8</title>
<g id="a_edge7_Node000004_Node000008"><a xlink:title=" ">
<path fill="none" stroke="#63b8ff" d="M504.07,-231.5C512.79,-231.5 522.01,-231.5 531.09,-231.5"/>
<polygon fill="#63b8ff" stroke="#63b8ff" points="531.27,-235 541.27,-231.5 531.27,-228 531.27,-235"/>
</a>
</g>
</g>
<!-- Node9 -->
<g id="Node000009" class="node">
<title>Node9</title>
<g id="a_Node000009"><a xlink:href="minmea_8c.html#abe3a4ed1fc95c8d8f847b8ff54b23242" target="_top" xlink:title=" ">
<polygon fill="white" stroke="#666666" points="652.5,-204 540.5,-204 540.5,-185 652.5,-185 652.5,-204"/>
<text text-anchor="middle" x="596.5" y="-192" font-family="Helvetica,sans-Serif" font-size="10.00">minmea_parse_gsv</text>
</a>
</g>
</g>
<!-- Node4&#45;&gt;Node9 -->
<g id="edge9_Node000004_Node000009" class="edge">
<title>Node4&#45;&gt;Node9</title>
<g id="a_edge9_Node000004_Node000009"><a xlink:title=" ">
<path fill="none" stroke="#63b8ff" d="M491.55,-221.97C509.13,-217.33 530.48,-211.68 549.25,-206.72"/>
<polygon fill="#63b8ff" stroke="#63b8ff" points="550.31,-210.06 559.08,-204.12 548.52,-203.3 550.31,-210.06"/>
</a>
</g>
</g>
<!-- Node10 -->
<g id="Node000010" class="node">
<title>Node10</title>
<g id="a_Node000010"><a xlink:href="minmea_8c.html#a9a6083eb3b90edb0b96eaedc732313b7" target="_top" xlink:title=" ">
<polygon fill="white" stroke="#666666" points="653,-463 540,-463 540,-444 653,-444 653,-463"/>
<text text-anchor="middle" x="596.5" y="-451" font-family="Helvetica,sans-Serif" font-size="10.00">minmea_parse_rmc</text>
</a>
</g>
</g>
<!-- Node4&#45;&gt;Node10 -->
<g id="edge11_Node000004_Node000010" class="edge">
<title>Node4&#45;&gt;Node10</title>
<g id="a_edge11_Node000004_Node000010"><a xlink:title=" ">
<path fill="none" stroke="#63b8ff" d="M456.65,-241.22C461.01,-273.7 479.46,-379.57 540,-435.5 541.28,-436.68 542.64,-437.79 544.06,-438.82"/>
<polygon fill="#63b8ff" stroke="#63b8ff" points="542.36,-441.88 552.75,-443.97 545.93,-435.86 542.36,-441.88"/>
</a>
</g>
</g>
<!-- Node11 -->
<g id="Node000011" class="node">
<title>Node11</title>
<g id="a_Node000011"><a xlink:href="minmea_8c.html#afe00342610ebb8d37f3560b0cc31a52f" target="_top" xlink:title=" ">
<polygon fill="white" stroke="#666666" points="651.5,-352 541.5,-352 541.5,-333 651.5,-333 651.5,-352"/>
<text text-anchor="middle" x="596.5" y="-340" font-family="Helvetica,sans-Serif" font-size="10.00">minmea_parse_vtg</text>
</a>
</g>
</g>
<!-- Node4&#45;&gt;Node11 -->
<g id="edge13_Node000004_Node000011" class="edge">
<title>Node4&#45;&gt;Node11</title>
<g id="a_edge13_Node000004_Node000011"><a xlink:title=" ">
<path fill="none" stroke="#63b8ff" d="M461.71,-241.18C474.25,-259.97 504.45,-301.54 540,-324.5 542.43,-326.07 545.02,-327.52 547.68,-328.84"/>
<polygon fill="#63b8ff" stroke="#63b8ff" points="546.42,-332.11 556.99,-332.91 549.23,-325.7 546.42,-332.11"/>
</a>
</g>
</g>
<!-- Node12 -->
<g id="Node000012" class="node">
<title>Node12</title>
<g id="a_Node000012"><a xlink:href="minmea_8c.html#a389a195750045dfecc8e47d2641dec13" target="_top" xlink:title=" ">
<polygon fill="white" stroke="#666666" points="652.5,-315 540.5,-315 540.5,-296 652.5,-296 652.5,-315"/>
<text text-anchor="middle" x="596.5" y="-303" font-family="Helvetica,sans-Serif" font-size="10.00">minmea_parse_zda</text>
</a>
</g>
</g>
<!-- Node4&#45;&gt;Node12 -->
<g id="edge15_Node000004_Node000012" class="edge">
<title>Node4&#45;&gt;Node12</title>
<g id="a_edge15_Node000004_Node000012"><a xlink:title=" ">
<path fill="none" stroke="#63b8ff" d="M467.74,-241.17C483.63,-253.35 512.58,-274.27 540,-287.5 543.75,-289.31 547.72,-291 551.75,-292.56"/>
<polygon fill="#63b8ff" stroke="#63b8ff" points="550.58,-295.86 561.18,-295.98 552.97,-289.28 550.58,-295.86"/>
</a>
</g>
</g>
<!-- Node13 -->
<g id="Node000013" class="node">
<title>Node13</title>
<g id="a_Node000013"><a xlink:href="gps_8cpp.html#ae7e06054042f4d22ce3f7641a654dfba" target="_top" xlink:title="Stampa la qualità del fix da una sentenza $xxGGA (Global Positioning System Fix Data).">
<polygon fill="white" stroke="#666666" points="645,-130 548,-130 548,-111 645,-111 645,-130"/>
<text text-anchor="middle" x="596.5" y="-118" font-family="Helvetica,sans-Serif" font-size="10.00">print_NMEA_gga</text>
</a>
</g>
</g>
<!-- Node4&#45;&gt;Node13 -->
<g id="edge17_Node000004_Node000013" class="edge">
<title>Node4&#45;&gt;Node13</title>
<g id="a_edge17_Node000004_Node000013"><a xlink:title=" ">
<path fill="none" stroke="#63b8ff" d="M461.71,-221.82C474.25,-203.03 504.45,-161.46 540,-138.5 542.43,-136.93 545.02,-135.48 547.68,-134.16"/>
<polygon fill="#63b8ff" stroke="#63b8ff" points="549.23,-137.3 556.99,-130.09 546.42,-130.89 549.23,-137.3"/>
</a>
</g>
</g>
<!-- Node14 -->
<g id="Node000014" class="node">
<title>Node14</title>
<g id="a_Node000014"><a xlink:href="gps_8cpp.html#a86800585d87c13db519115d7d460aac0" target="_top" xlink:title="Stampa gli errori di deviazione da una sentenza $xxGST (GPS Pseudorange Noise Statistics).">
<polygon fill="white" stroke="#666666" points="643.5,-93 549.5,-93 549.5,-74 643.5,-74 643.5,-93"/>
<text text-anchor="middle" x="596.5" y="-81" font-family="Helvetica,sans-Serif" font-size="10.00">print_NMEA_gst</text>
</a>
</g>
</g>
<!-- Node4&#45;&gt;Node14 -->
<g id="edge18_Node000004_Node000014" class="edge">
<title>Node4&#45;&gt;Node14</title>
<g id="a_edge18_Node000004_Node000014"><a xlink:title=" ">
<path fill="none" stroke="#63b8ff" d="M459.15,-221.72C468.64,-197.62 496.42,-134.91 540,-101.5 541.8,-100.12 543.7,-98.85 545.68,-97.67"/>
<polygon fill="#63b8ff" stroke="#63b8ff" points="547.41,-100.72 554.76,-93.1 544.26,-94.47 547.41,-100.72"/>
</a>
</g>
</g>
<!-- Node17 -->
<g id="Node000017" class="node">
<title>Node17</title>
<g id="a_Node000017"><a xlink:href="gps_8cpp.html#a6ec6b5a4090671490d31c770fe6afa0d" target="_top" xlink:title="Stampa lo stato dei satelliti in vista da una sentenza $xxGSV (Satellites in View).">
<polygon fill="white" stroke="#666666" points="644.5,-426 548.5,-426 548.5,-407 644.5,-407 644.5,-426"/>
<text text-anchor="middle" x="596.5" y="-414" font-family="Helvetica,sans-Serif" font-size="10.00">print_NMEA_gsv</text>
</a>
</g>
</g>
<!-- Node4&#45;&gt;Node17 -->
<g id="edge21_Node000004_Node000017" class="edge">
<title>Node4&#45;&gt;Node17</title>
<g id="a_edge21_Node000004_Node000017"><a xlink:title=" ">
<path fill="none" stroke="#63b8ff" d="M457.59,-241.03C464.29,-269.38 487.92,-353.91 540,-398.5 541.5,-399.78 543.09,-400.98 544.76,-402.09"/>
<polygon fill="#63b8ff" stroke="#63b8ff" points="543.12,-405.18 553.56,-406.95 546.5,-399.05 543.12,-405.18"/>
</a>
</g>
</g>
<!-- Node18 -->
<g id="Node000018" class="node">
<title>Node18</title>
<g id="a_Node000018"><a xlink:href="gps_8cpp.html#a4650a0bef4037f605b746db3e8dce5bf" target="_top" xlink:title="Stampa i dettagli di una sentenza $xxRMC (Recommended Minimum Navigation Information).">
<polygon fill="white" stroke="#666666" points="645.5,-56 547.5,-56 547.5,-37 645.5,-37 645.5,-56"/>
<text text-anchor="middle" x="596.5" y="-44" font-family="Helvetica,sans-Serif" font-size="10.00">print_NMEA_rmc</text>
</a>
</g>
</g>
<!-- Node4&#45;&gt;Node18 -->
<g id="edge22_Node000004_Node000018" class="edge">
<title>Node4&#45;&gt;Node18</title>
<g id="a_edge22_Node000004_Node000018"><a xlink:title=" ">
<path fill="none" stroke="#63b8ff" d="M457.59,-221.97C464.29,-193.62 487.92,-109.09 540,-64.5 541.5,-63.22 543.09,-62.02 544.76,-60.91"/>
<polygon fill="#63b8ff" stroke="#63b8ff" points="546.5,-63.95 553.56,-56.05 543.12,-57.82 546.5,-63.95"/>
</a>
</g>
</g>
<!-- Node20 -->
<g id="Node000020" class="node">
<title>Node20</title>
<g id="a_Node000020"><a xlink:href="gps_8cpp.html#a77ab7d9e159a0a804e5467a44204eebd" target="_top" xlink:title="Stampa rotta e velocità al suolo da una sentenza $xxVTG (Track Made Good and Ground Speed).">
<polygon fill="white" stroke="#666666" points="644,-167 549,-167 549,-148 644,-148 644,-167"/>
<text text-anchor="middle" x="596.5" y="-155" font-family="Helvetica,sans-Serif" font-size="10.00">print_NMEA_vtg</text>
</a>
</g>
</g>
<!-- Node4&#45;&gt;Node20 -->
<g id="edge26_Node000004_Node000020" class="edge">
<title>Node4&#45;&gt;Node20</title>
<g id="a_edge26_Node000004_Node000020"><a xlink:title=" ">
<path fill="none" stroke="#63b8ff" d="M468.08,-221.88C484.09,-209.98 512.94,-189.69 540,-176.5 544.35,-174.38 548.99,-172.39 553.68,-170.56"/>
<polygon fill="#63b8ff" stroke="#63b8ff" points="555.09,-173.77 563.26,-167.03 552.66,-167.21 555.09,-173.77"/>
</a>
</g>
</g>
<!-- Node21 -->
<g id="Node000021" class="node">
<title>Node21</title>
<g id="a_Node000021"><a xlink:href="gps_8cpp.html#ac1555845e4e7fe4d8de83d57a2a6c949" target="_top" xlink:title="Stampa data e ora UTC da una sentenza $xxZDA (Time &amp; Date).">
<polygon fill="white" stroke="#666666" points="644.5,-389 548.5,-389 548.5,-370 644.5,-370 644.5,-389"/>
<text text-anchor="middle" x="596.5" y="-377" font-family="Helvetica,sans-Serif" font-size="10.00">print_NMEA_zda</text>
</a>
</g>
</g>
<!-- Node4&#45;&gt;Node21 -->
<g id="edge28_Node000004_Node000021" class="edge">
<title>Node4&#45;&gt;Node21</title>
<g id="a_edge28_Node000004_Node000021"><a xlink:title=" ">
<path fill="none" stroke="#63b8ff" d="M459.15,-241.28C468.64,-265.38 496.42,-328.09 540,-361.5 541.8,-362.88 543.7,-364.15 545.68,-365.33"/>
<polygon fill="#63b8ff" stroke="#63b8ff" points="544.26,-368.53 554.76,-369.9 547.41,-362.28 544.26,-368.53"/>
</a>
</g>
</g>
<!-- Node6 -->
<g id="Node000006" class="node">
<title>Node6</title>
<g id="a_Node000006"><a xlink:href="minmea_8c.html#a15e9012d03411f7471ca65649f206cc0" target="_top" xlink:title=" ">
<polygon fill="white" stroke="#666666" points="781,-296 696,-296 696,-277 781,-277 781,-296"/>
<text text-anchor="middle" x="738.5" y="-284" font-family="Helvetica,sans-Serif" font-size="10.00">minmea_scan</text>
</a>
</g>
</g>
<!-- Node5&#45;&gt;Node6 -->
<g id="edge5_Node000005_Node000006" class="edge">
<title>Node5&#45;&gt;Node6</title>
<g id="a_edge5_Node000005_Node000006"><a xlink:title=" ">
<path fill="none" stroke="#63b8ff" d="M653.23,-275.67C663.98,-277.05 675.2,-278.49 685.81,-279.85"/>
<polygon fill="#63b8ff" stroke="#63b8ff" points="685.4,-283.33 695.77,-281.13 686.29,-276.39 685.4,-283.33"/>
</a>
</g>
</g>
<!-- Node7 -->
<g id="Node000007" class="node">
<title>Node7</title>
<g id="a_Node000007"><a xlink:href="minmea_8h.html#acd31fbf84ad0c2e5dac349ca993248be" target="_top" xlink:title=" ">
<polygon fill="white" stroke="#666666" points="916,-296 824,-296 824,-277 916,-277 916,-296"/>
<text text-anchor="middle" x="870" y="-284" font-family="Helvetica,sans-Serif" font-size="10.00">minmea_isfield</text>
</a>
</g>
</g>
<!-- Node6&#45;&gt;Node7 -->
<g id="edge6_Node000006_Node000007" class="edge">
<title>Node6&#45;&gt;Node7</title>
<g id="a_edge6_Node000006_Node000007"><a xlink:title=" ">
<path fill="none" stroke="#63b8ff" d="M781.19,-286.5C791.5,-286.5 802.7,-286.5 813.56,-286.5"/>
<polygon fill="#63b8ff" stroke="#63b8ff" points="813.81,-290 823.81,-286.5 813.81,-283 813.81,-290"/>
</a>
</g>
</g>
<!-- Node8&#45;&gt;Node6 -->
<g id="edge8_Node000008_Node000006" class="edge">
<title>Node8&#45;&gt;Node6</title>
<g id="a_edge8_Node000008_Node000006"><a xlink:title=" ">
<path fill="none" stroke="#63b8ff" d="M626.74,-241.06C635.25,-243.97 644.54,-247.25 653,-250.5 671,-257.41 690.85,-265.82 706.78,-272.77"/>
<polygon fill="#63b8ff" stroke="#63b8ff" points="705.58,-276.07 716.14,-276.89 708.4,-269.66 705.58,-276.07"/>
</a>
</g>
</g>
<!-- Node9&#45;&gt;Node6 -->
<g id="edge10_Node000009_Node000006" class="edge">
<title>Node9&#45;&gt;Node6</title>
<g id="a_edge10_Node000009_Node000006"><a xlink:title=" ">
<path fill="none" stroke="#63b8ff" d="M632.15,-204.07C639.27,-206.66 646.55,-209.8 653,-213.5 679.58,-228.76 705.57,-253.02 721.55,-269.34"/>
<polygon fill="#63b8ff" stroke="#63b8ff" points="719.1,-271.85 728.55,-276.64 724.15,-267 719.1,-271.85"/>
</a>
</g>
</g>
<!-- Node10&#45;&gt;Node6 -->
<g id="edge12_Node000010_Node000006" class="edge">
<title>Node10&#45;&gt;Node6</title>
<g id="a_edge12_Node000010_Node000006"><a xlink:title=" ">
<path fill="none" stroke="#63b8ff" d="M639,-443.9C644.02,-441.65 648.84,-438.89 653,-435.5 695.88,-400.52 721.06,-337.68 731.63,-305.95"/>
<polygon fill="#63b8ff" stroke="#63b8ff" points="735.06,-306.72 734.76,-296.13 728.39,-304.59 735.06,-306.72"/>
</a>
</g>
</g>
<!-- Node11&#45;&gt;Node6 -->
<g id="edge14_Node000011_Node000006" class="edge">
<title>Node11&#45;&gt;Node6</title>
<g id="a_edge14_Node000011_Node000006"><a xlink:title=" ">
<path fill="none" stroke="#63b8ff" d="M628.82,-333C636.77,-330.41 645.25,-327.49 653,-324.5 671.77,-317.26 692.36,-308.03 708.52,-300.48"/>
<polygon fill="#63b8ff" stroke="#63b8ff" points="710.4,-303.46 717.95,-296.02 707.41,-297.13 710.4,-303.46"/>
</a>
</g>
</g>
<!-- Node12&#45;&gt;Node6 -->
<g id="edge16_Node000012_Node000006" class="edge">
<title>Node12&#45;&gt;Node6</title>
<g id="a_edge16_Node000012_Node000006"><a xlink:title=" ">
<path fill="none" stroke="#63b8ff" d="M652.83,-297.99C663.72,-296.51 675.11,-294.97 685.87,-293.51"/>
<polygon fill="#63b8ff" stroke="#63b8ff" points="686.52,-296.95 695.96,-292.14 685.58,-290.01 686.52,-296.95"/>
</a>
</g>
</g>
<!-- Node15 -->
<g id="Node000015" class="node">
<title>Node15</title>
<g id="a_Node000015"><a xlink:href="minmea_8h.html#a7d5b32164f339789b22446e5bfc1afbc" target="_top" xlink:title=" ">
<polygon fill="white" stroke="#666666" points="787.5,-56 689.5,-56 689.5,-37 787.5,-37 787.5,-56"/>
<text text-anchor="middle" x="738.5" y="-44" font-family="Helvetica,sans-Serif" font-size="10.00">minmea_rescale</text>
</a>
</g>
</g>
<!-- Node14&#45;&gt;Node15 -->
<g id="edge19_Node000014_Node000015" class="edge">
<title>Node14&#45;&gt;Node15</title>
<g id="a_edge19_Node000014_Node000015"><a xlink:title=" ">
<path fill="none" stroke="#63b8ff" d="M633.55,-73.97C651.13,-69.33 672.48,-63.68 691.25,-58.72"/>
<polygon fill="#63b8ff" stroke="#63b8ff" points="692.31,-62.06 701.08,-56.12 690.52,-55.3 692.31,-62.06"/>
</a>
</g>
</g>
<!-- Node16 -->
<g id="Node000016" class="node">
<title>Node16</title>
<g id="a_Node000016"><a xlink:href="minmea_8h.html#ac7f8c6a8f35e4181b7f376560fef677b" target="_top" xlink:title=" ">
<polygon fill="white" stroke="#666666" points="785.5,-93 691.5,-93 691.5,-74 785.5,-74 785.5,-93"/>
<text text-anchor="middle" x="738.5" y="-81" font-family="Helvetica,sans-Serif" font-size="10.00">minmea_tofloat</text>
</a>
</g>
</g>
<!-- Node14&#45;&gt;Node16 -->
<g id="edge20_Node000014_Node000016" class="edge">
<title>Node14&#45;&gt;Node16</title>
<g id="a_edge20_Node000014_Node000016"><a xlink:title=" ">
<path fill="none" stroke="#63b8ff" d="M643.73,-83.5C655.68,-83.5 668.67,-83.5 681.08,-83.5"/>
<polygon fill="#63b8ff" stroke="#63b8ff" points="681.32,-87 691.32,-83.5 681.32,-80 681.32,-87"/>
</a>
</g>
</g>
<!-- Node18&#45;&gt;Node15 -->
<g id="edge23_Node000018_Node000015" class="edge">
<title>Node18&#45;&gt;Node15</title>
<g id="a_edge23_Node000018_Node000015"><a xlink:title=" ">
<path fill="none" stroke="#63b8ff" d="M645.68,-46.5C656.46,-46.5 668.01,-46.5 679.15,-46.5"/>
<polygon fill="#63b8ff" stroke="#63b8ff" points="679.23,-50 689.23,-46.5 679.23,-43 679.23,-50"/>
</a>
</g>
</g>
<!-- Node18&#45;&gt;Node16 -->
<g id="edge25_Node000018_Node000016" class="edge">
<title>Node18&#45;&gt;Node16</title>
<g id="a_edge25_Node000018_Node000016"><a xlink:title=" ">
<path fill="none" stroke="#63b8ff" d="M633.55,-56.03C651.13,-60.67 672.48,-66.32 691.25,-71.28"/>
<polygon fill="#63b8ff" stroke="#63b8ff" points="690.52,-74.7 701.08,-73.88 692.31,-67.94 690.52,-74.7"/>
</a>
</g>
</g>
<!-- Node19 -->
<g id="Node000019" class="node">
<title>Node19</title>
<g id="a_Node000019"><a xlink:href="minmea_8h.html#a82cdc79749798023b4a1952faf84f1ca" target="_top" xlink:title=" ">
<polygon fill="white" stroke="#666666" points="788,-19 689,-19 689,0 788,0 788,-19"/>
<text text-anchor="middle" x="738.5" y="-7" font-family="Helvetica,sans-Serif" font-size="10.00">minmea_tocoord</text>
</a>
</g>
</g>
<!-- Node18&#45;&gt;Node19 -->
<g id="edge24_Node000018_Node000019" class="edge">
<title>Node18&#45;&gt;Node19</title>
<g id="a_edge24_Node000018_Node000019"><a xlink:title=" ">
<path fill="none" stroke="#63b8ff" d="M633.55,-36.97C651.13,-32.33 672.48,-26.68 691.25,-21.72"/>
<polygon fill="#63b8ff" stroke="#63b8ff" points="692.31,-25.06 701.08,-19.12 690.52,-18.3 692.31,-25.06"/>
</a>
</g>
</g>
<!-- Node20&#45;&gt;Node16 -->
<g id="edge27_Node000020_Node000016" class="edge">
<title>Node20&#45;&gt;Node16</title>
<g id="a_edge27_Node000020_Node000016"><a xlink:title=" ">
<path fill="none" stroke="#63b8ff" d="M629.74,-147.97C637.51,-145.26 645.68,-142.07 653,-138.5 675.84,-127.37 699.94,-111.19 716.53,-99.25"/>
<polygon fill="#63b8ff" stroke="#63b8ff" points="718.91,-101.85 724.92,-93.12 714.78,-96.2 718.91,-101.85"/>
</a>
</g>
</g>
<!-- Node22&#45;&gt;Node3 -->
<g id="edge30_Node000022_Node000003" class="edge">
<title>Node22&#45;&gt;Node3</title>
<g id="a_edge30_Node000022_Node000003"><a xlink:title=" ">
<path fill="none" stroke="#63b8ff" d="M247.1,-212.5C258.38,-212.5 269.73,-212.5 280.15,-212.5"/>
<polygon fill="#63b8ff" stroke="#63b8ff" points="280.22,-216 290.22,-212.5 280.22,-209 280.22,-216"/>
</a>
</g>
</g>
<!-- Node23&#45;&gt;Node19 -->
<g id="edge32_Node000023_Node000019" class="edge">
<title>Node23&#45;&gt;Node19</title>
<g id="a_edge32_Node000023_Node000019"><a xlink:title=" ">
<path fill="none" stroke="#63b8ff" d="M369,-24.76C442.56,-21.71 594.85,-15.41 678.79,-11.93"/>
<polygon fill="#63b8ff" stroke="#63b8ff" points="679.08,-15.42 688.93,-11.51 678.79,-8.43 679.08,-15.42"/>
</a>
</g>
</g>
</g>
</svg>
