<?xml version="1.0" encoding="UTF-8" standalone="no"?>
<!DOCTYPE svg PUBLIC "-//W3C//DTD SVG 1.1//EN"
 "http://www.w3.org/Graphics/SVG/1.1/DTD/svg11.dtd">
<!-- Generated by graphviz version 2.43.0 (0)
 -->
<!-- Title: GetDate_and_Time Pages: 1 -->
<!--zoomable 434 -->

<svg id="main" version="1.1" xmlns="http://www.w3.org/2000/svg" xmlns:xlink="http://www.w3.org/1999/xlink" xml:space="preserve" onload="init(evt)">
<style type="text/css"><![CDATA[
.node, .edge {opacity: 0.7;}
.node.selected, .edge.selected {opacity: 1;}
.edge:hover path { stroke: red; }
.edge:hover polygon { stroke: red; fill: red; }
]]></style>

<defs>
  <circle id="rim" cx="0" cy="0" r="7"/>
  <circle id="rim2" cx="0" cy="0" r="3.5"/>
  <g id="zoomPlus">
    <use xlink:href="#rim" fill="#404040"><set attributeName="fill" to="#808080" begin="zoomplus.mouseover" end="zoomplus.mouseout"/></use>
    <path d="M-4,0h8M0,-4v8" fill="none" stroke="white" stroke-width="1.5" pointer-events="none"/>
  </g>
  <g id="zoomMin">
    <use xlink:href="#rim" fill="#404040"><set attributeName="fill" to="#808080" begin="zoomminus.mouseover" end="zoomminus.mouseout"/></use>
    <path d="M-4,0h8" fill="none" stroke="white" stroke-width="1.5" pointer-events="none"/>
  </g>
  <g id="arrowUp" transform="translate(30 24)">
    <use xlink:href="#rim"/>
    <path pointer-events="none" fill="none" stroke="white" stroke-width="1.5" d="M0,-3.0v7 M-2.5,-0.5L0,-3.0L2.5,-0.5"/>
  </g>
  <g id="arrowRight" transform="rotate(90) translate(36 -43)">
    <use xlink:href="#rim"/>
    <path pointer-events="none" fill="none" stroke="white" stroke-width="1.5" d="M0,-3.0v7 M-2.5,-0.5L0,-3.0L2.5,-0.5"/>
  </g>
  <g id="arrowDown" transform="rotate(180) translate(-30 -48)">
    <use xlink:href="#rim"/>
    <path pointer-events="none" fill="none" stroke="white" stroke-width="1.5" d="M0,-3.0v7 M-2.5,-0.5L0,-3.0L2.5,-0.5"/>
  </g>
  <g id="arrowLeft" transform="rotate(270) translate(-36 17)">
    <use xlink:href="#rim"/>
    <path pointer-events="none" fill="none" stroke="white" stroke-width="1.5" d="M0,-3.0v7 M-2.5,-0.5L0,-3.0L2.5,-0.5"/>
  </g>
  <g id="resetDef">
    <use xlink:href="#rim2" fill="#404040"><set attributeName="fill" to="#808080" begin="reset.mouseover" end="reset.mouseout"/></use>
  </g>
</defs>
<script type="application/ecmascript">
var viewWidth = 772;
var viewHeight = 434;
var sectionId = 'dynsection-4';
</script>
<script type="application/ecmascript" xlink:href="svg.min.js"/>
<svg id="graph" class="graph">
<g id="viewport">
<title>GetDate_and_Time</title>
<!-- Node1 -->
<g id="Node000001" class="node">
<title>Node1</title>
<g id="a_Node000001"><a xlink:title="Estrae data e ora dai messaggi RMC.">
<polygon fill="#999999" stroke="#666666" points="110,-222 0,-222 0,-203 110,-203 110,-222"/>
<text text-anchor="middle" x="55" y="-210" font-family="Helvetica,sans-Serif" font-size="10.00">GetDate_and_Time</text>
</a>
</g>
</g>
<!-- Node2 -->
<g id="Node000002" class="node">
<title>Node2</title>
<g id="a_Node000002"><a xlink:href="gps_8cpp.html#a5c33ca28d942d03c752f418f3c04711f" target="_top" xlink:title="Tenta di acquisire un tipo specifico di sentenza NMEA dalla seriale.">
<polygon fill="white" stroke="#666666" points="217,-222 146,-222 146,-203 217,-203 217,-222"/>
<text text-anchor="middle" x="181.5" y="-210" font-family="Helvetica,sans-Serif" font-size="10.00">gpsAcquire</text>
</a>
</g>
</g>
<!-- Node1&#45;&gt;Node2 -->
<g id="edge1_Node000001_Node000002" class="edge">
<title>Node1&#45;&gt;Node2</title>
<g id="a_edge1_Node000001_Node000002"><a xlink:title=" ">
<path fill="none" stroke="#63b8ff" d="M110.25,-212.5C118.72,-212.5 127.4,-212.5 135.64,-212.5"/>
<polygon fill="#63b8ff" stroke="#63b8ff" points="135.79,-216 145.79,-212.5 135.79,-209 135.79,-216"/>
</a>
</g>
</g>
<!-- Node3 -->
<g id="Node000003" class="node">
<title>Node3</title>
<g id="a_Node000003"><a xlink:href="gps_8cpp.html#a1584cd930020560265588b72bde4654c" target="_top" xlink:title="Smista e decodifica una stringa NMEA grezza nella struttura dati corrispondente.">
<polygon fill="white" stroke="#666666" points="352,-222 253,-222 253,-203 352,-203 352,-222"/>
<text text-anchor="middle" x="302.5" y="-210" font-family="Helvetica,sans-Serif" font-size="10.00">nmea_gps_parse</text>
</a>
</g>
</g>
<!-- Node2&#45;&gt;Node3 -->
<g id="edge2_Node000002_Node000003" class="edge">
<title>Node2&#45;&gt;Node3</title>
<g id="a_edge2_Node000002_Node000003"><a xlink:title=" ">
<path fill="none" stroke="#63b8ff" d="M217.24,-212.5C225.23,-212.5 233.94,-212.5 242.63,-212.5"/>
<polygon fill="#63b8ff" stroke="#63b8ff" points="242.79,-216 252.79,-212.5 242.79,-209 242.79,-216"/>
</a>
</g>
</g>
<!-- Node4 -->
<g id="Node000004" class="node">
<title>Node4</title>
<g id="a_Node000004"><a xlink:href="minmea_8c.html#a0e892adb1166185572c0e4614bc1eb13" target="_top" xlink:title=" ">
<polygon fill="white" stroke="#666666" points="501,-426 388,-426 388,-407 501,-407 501,-426"/>
<text text-anchor="middle" x="444.5" y="-414" font-family="Helvetica,sans-Serif" font-size="10.00">minmea_parse_gga</text>
</a>
</g>
</g>
<!-- Node3&#45;&gt;Node4 -->
<g id="edge3_Node000003_Node000004" class="edge">
<title>Node3&#45;&gt;Node4</title>
<g id="a_edge3_Node000003_Node000004"><a xlink:title=" ">
<path fill="none" stroke="#63b8ff" d="M305.08,-222.22C310.57,-252.83 331.65,-348.18 388,-398.5 389.32,-399.68 390.73,-400.79 392.19,-401.82"/>
<polygon fill="#63b8ff" stroke="#63b8ff" points="390.73,-405.02 401.14,-406.98 394.23,-398.95 390.73,-405.02"/>
</a>
</g>
</g>
<!-- Node7 -->
<g id="Node000007" class="node">
<title>Node7</title>
<g id="a_Node000007"><a xlink:href="minmea_8c.html#ac699de4ccd27d72d2eda3ddb64158014" target="_top" xlink:title=" ">
<polygon fill="white" stroke="#666666" points="499.5,-389 389.5,-389 389.5,-370 499.5,-370 499.5,-389"/>
<text text-anchor="middle" x="444.5" y="-377" font-family="Helvetica,sans-Serif" font-size="10.00">minmea_parse_gst</text>
</a>
</g>
</g>
<!-- Node3&#45;&gt;Node7 -->
<g id="edge6_Node000003_Node000007" class="edge">
<title>Node3&#45;&gt;Node7</title>
<g id="a_edge6_Node000003_Node000007"><a xlink:title=" ">
<path fill="none" stroke="#63b8ff" d="M306.24,-222.13C314.24,-248.47 340.07,-322.4 388,-361.5 389.56,-362.77 391.21,-363.96 392.93,-365.06"/>
<polygon fill="#63b8ff" stroke="#63b8ff" points="391.53,-368.27 402,-369.9 394.83,-362.1 391.53,-368.27"/>
</a>
</g>
</g>
<!-- Node8 -->
<g id="Node000008" class="node">
<title>Node8</title>
<g id="a_Node000008"><a xlink:href="minmea_8c.html#abe3a4ed1fc95c8d8f847b8ff54b23242" target="_top" xlink:title=" ">
<polygon fill="white" stroke="#666666" points="500.5,-352 388.5,-352 388.5,-333 500.5,-333 500.5,-352"/>
<text text-anchor="middle" x="444.5" y="-340" font-family="Helvetica,sans-Serif" font-size="10.00">minmea_parse_gsv</text>
</a>
</g>
</g>
<!-- Node3&#45;&gt;Node8 -->
<g id="edge8_Node000003_Node000008" class="edge">
<title>Node3&#45;&gt;Node8</title>
<g id="a_edge8_Node000003_Node000008"><a xlink:title=" ">
<path fill="none" stroke="#63b8ff" d="M308.17,-222.18C319.07,-243.77 348.32,-296.23 388,-324.5 390.09,-325.99 392.32,-327.36 394.62,-328.63"/>
<polygon fill="#63b8ff" stroke="#63b8ff" points="393.3,-331.87 403.84,-332.97 396.29,-325.54 393.3,-331.87"/>
</a>
</g>
</g>
<!-- Node9 -->
<g id="Node000009" class="node">
<title>Node9</title>
<g id="a_Node000009"><a xlink:href="minmea_8c.html#a9a6083eb3b90edb0b96eaedc732313b7" target="_top" xlink:title=" ">
<polygon fill="white" stroke="#666666" points="501,-315 388,-315 388,-296 501,-296 501,-315"/>
<text text-anchor="middle" x="444.5" y="-303" font-family="Helvetica,sans-Serif" font-size="10.00">minmea_parse_rmc</text>
</a>
</g>
</g>
<!-- Node3&#45;&gt;Node9 -->
<g id="edge10_Node000003_Node000009" class="edge">
<title>Node3&#45;&gt;Node9</title>
<g id="a_edge10_Node000003_Node000009"><a xlink:title=" ">
<path fill="none" stroke="#63b8ff" d="M311.9,-222.19C326.08,-238 356.33,-269.38 388,-287.5 390.99,-289.21 394.17,-290.79 397.43,-292.23"/>
<polygon fill="#63b8ff" stroke="#63b8ff" points="396.17,-295.5 406.75,-295.96 398.77,-289 396.17,-295.5"/>
</a>
</g>
</g>
<!-- Node10 -->
<g id="Node000010" class="node">
<title>Node10</title>
<g id="a_Node000010"><a xlink:href="minmea_8c.html#afe00342610ebb8d37f3560b0cc31a52f" target="_top" xlink:title=" ">
<polygon fill="white" stroke="#666666" points="499.5,-278 389.5,-278 389.5,-259 499.5,-259 499.5,-278"/>
<text text-anchor="middle" x="444.5" y="-266" font-family="Helvetica,sans-Serif" font-size="10.00">minmea_parse_vtg</text>
</a>
</g>
</g>
<!-- Node3&#45;&gt;Node10 -->
<g id="edge12_Node000003_Node000010" class="edge">
<title>Node3&#45;&gt;Node10</title>
<g id="a_edge12_Node000003_Node000010"><a xlink:title=" ">
<path fill="none" stroke="#63b8ff" d="M323.05,-222.02C340.01,-230.11 365.34,-241.76 388,-250.5 392.6,-252.27 397.46,-254.03 402.31,-255.7"/>
<polygon fill="#63b8ff" stroke="#63b8ff" points="401.58,-259.14 412.18,-259 403.8,-252.51 401.58,-259.14"/>
</a>
</g>
</g>
<!-- Node11 -->
<g id="Node000011" class="node">
<title>Node11</title>
<g id="a_Node000011"><a xlink:href="minmea_8c.html#a389a195750045dfecc8e47d2641dec13" target="_top" xlink:title=" ">
<polygon fill="white" stroke="#666666" points="500.5,-241 388.5,-241 388.5,-222 500.5,-222 500.5,-241"/>
<text text-anchor="middle" x="444.5" y="-229" font-family="Helvetica,sans-Serif" font-size="10.00">minmea_parse_zda</text>
</a>
</g>
</g>
<!-- Node3&#45;&gt;Node11 -->
<g id="edge14_Node000003_Node000011" class="edge">
<title>Node3&#45;&gt;Node11</title>
<g id="a_edge14_Node000003_Node000011"><a xlink:title=" ">
<path fill="none" stroke="#63b8ff" d="M352.07,-219.09C360.56,-220.24 369.52,-221.46 378.38,-222.66"/>
<polygon fill="#63b8ff" stroke="#63b8ff" points="377.92,-226.13 388.3,-224.01 378.86,-219.2 377.92,-226.13"/>
</a>
</g>
</g>
<!-- Node12 -->
<g id="Node000012" class="node">
<title>Node12</title>
<g id="a_Node000012"><a xlink:href="gps_8cpp.html#ae7e06054042f4d22ce3f7641a654dfba" target="_top" xlink:title="Stampa la qualità del fix da una sentenza $xxGGA (Global Positioning System Fix Data).">
<polygon fill="white" stroke="#666666" points="493,-204 396,-204 396,-185 493,-185 493,-204"/>
<text text-anchor="middle" x="444.5" y="-192" font-family="Helvetica,sans-Serif" font-size="10.00">print_NMEA_gga</text>
</a>
</g>
</g>
<!-- Node3&#45;&gt;Node12 -->
<g id="edge16_Node000003_Node000012" class="edge">
<title>Node3&#45;&gt;Node12</title>
<g id="a_edge16_Node000003_Node000012"><a xlink:title=" ">
<path fill="none" stroke="#63b8ff" d="M352.07,-206.25C362.96,-204.86 374.6,-203.36 385.82,-201.92"/>
<polygon fill="#63b8ff" stroke="#63b8ff" points="386.49,-205.36 395.96,-200.61 385.59,-198.42 386.49,-205.36"/>
</a>
</g>
</g>
<!-- Node13 -->
<g id="Node000013" class="node">
<title>Node13</title>
<g id="a_Node000013"><a xlink:href="gps_8cpp.html#a86800585d87c13db519115d7d460aac0" target="_top" xlink:title="Stampa gli errori di deviazione da una sentenza $xxGST (GPS Pseudorange Noise Statistics).">
<polygon fill="white" stroke="#666666" points="491.5,-130 397.5,-130 397.5,-111 491.5,-111 491.5,-130"/>
<text text-anchor="middle" x="444.5" y="-118" font-family="Helvetica,sans-Serif" font-size="10.00">print_NMEA_gst</text>
</a>
</g>
</g>
<!-- Node3&#45;&gt;Node13 -->
<g id="edge17_Node000003_Node000013" class="edge">
<title>Node3&#45;&gt;Node13</title>
<g id="a_edge17_Node000003_Node000013"><a xlink:title=" ">
<path fill="none" stroke="#63b8ff" d="M311.92,-202.94C326.14,-187.36 356.46,-156.41 388,-138.5 391,-136.8 394.18,-135.23 397.44,-133.79"/>
<polygon fill="#63b8ff" stroke="#63b8ff" points="398.78,-137.03 406.77,-130.07 396.19,-130.52 398.78,-137.03"/>
</a>
</g>
</g>
<!-- Node16 -->
<g id="Node000016" class="node">
<title>Node16</title>
<g id="a_Node000016"><a xlink:href="gps_8cpp.html#a6ec6b5a4090671490d31c770fe6afa0d" target="_top" xlink:title="Stampa lo stato dei satelliti in vista da una sentenza $xxGSV (Satellites in View).">
<polygon fill="white" stroke="#666666" points="492.5,-56 396.5,-56 396.5,-37 492.5,-37 492.5,-56"/>
<text text-anchor="middle" x="444.5" y="-44" font-family="Helvetica,sans-Serif" font-size="10.00">print_NMEA_gsv</text>
</a>
</g>
</g>
<!-- Node3&#45;&gt;Node16 -->
<g id="edge20_Node000003_Node000016" class="edge">
<title>Node3&#45;&gt;Node16</title>
<g id="a_edge20_Node000003_Node000016"><a xlink:title=" ">
<path fill="none" stroke="#63b8ff" d="M306.26,-202.94C314.31,-176.77 340.26,-103.33 388,-64.5 389.56,-63.23 391.22,-62.05 392.94,-60.95"/>
<polygon fill="#63b8ff" stroke="#63b8ff" points="394.83,-63.91 402.01,-56.11 391.54,-57.73 394.83,-63.91"/>
</a>
</g>
</g>
<!-- Node17 -->
<g id="Node000017" class="node">
<title>Node17</title>
<g id="a_Node000017"><a xlink:href="gps_8cpp.html#a4650a0bef4037f605b746db3e8dce5bf" target="_top" xlink:title="Stampa i dettagli di una sentenza $xxRMC (Recommended Minimum Navigation Information).">
<polygon fill="white" stroke="#666666" points="493.5,-93 395.5,-93 395.5,-74 493.5,-74 493.5,-93"/>
<text text-anchor="middle" x="444.5" y="-81" font-family="Helvetica,sans-Serif" font-size="10.00">print_NMEA_rmc</text>
</a>
</g>
</g>
<!-- Node3&#45;&gt;Node17 -->
<g id="edge21_Node000003_Node000017" class="edge">
<title>Node3&#45;&gt;Node17</title>
<g id="a_edge21_Node000003_Node000017"><a xlink:title=" ">
<path fill="none" stroke="#63b8ff" d="M308.19,-202.91C319.14,-181.51 348.49,-129.52 388,-101.5 390.1,-100.01 392.32,-98.64 394.63,-97.38"/>
<polygon fill="#63b8ff" stroke="#63b8ff" points="396.3,-100.47 403.86,-93.05 393.32,-94.14 396.3,-100.47"/>
</a>
</g>
</g>
<!-- Node19 -->
<g id="Node000019" class="node">
<title>Node19</title>
<g id="a_Node000019"><a xlink:href="gps_8cpp.html#a77ab7d9e159a0a804e5467a44204eebd" target="_top" xlink:title="Stampa rotta e velocità al suolo da una sentenza $xxVTG (Track Made Good and Ground Speed).">
<polygon fill="white" stroke="#666666" points="492,-167 397,-167 397,-148 492,-148 492,-167"/>
<text text-anchor="middle" x="444.5" y="-155" font-family="Helvetica,sans-Serif" font-size="10.00">print_NMEA_vtg</text>
</a>
</g>
</g>
<!-- Node3&#45;&gt;Node19 -->
<g id="edge25_Node000003_Node000019" class="edge">
<title>Node3&#45;&gt;Node19</title>
<g id="a_edge25_Node000003_Node000019"><a xlink:title=" ">
<path fill="none" stroke="#63b8ff" d="M323.76,-202.95C340.73,-195.12 365.69,-183.98 388,-175.5 392.61,-173.75 397.47,-172.01 402.33,-170.35"/>
<polygon fill="#63b8ff" stroke="#63b8ff" points="403.82,-173.54 412.2,-167.05 401.6,-166.9 403.82,-173.54"/>
</a>
</g>
</g>
<!-- Node20 -->
<g id="Node000020" class="node">
<title>Node20</title>
<g id="a_Node000020"><a xlink:href="gps_8cpp.html#ac1555845e4e7fe4d8de83d57a2a6c949" target="_top" xlink:title="Stampa data e ora UTC da una sentenza $xxZDA (Time &amp; Date).">
<polygon fill="white" stroke="#666666" points="492.5,-19 396.5,-19 396.5,0 492.5,0 492.5,-19"/>
<text text-anchor="middle" x="444.5" y="-7" font-family="Helvetica,sans-Serif" font-size="10.00">print_NMEA_zda</text>
</a>
</g>
</g>
<!-- Node3&#45;&gt;Node20 -->
<g id="edge27_Node000003_Node000020" class="edge">
<title>Node3&#45;&gt;Node20</title>
<g id="a_edge27_Node000003_Node000020"><a xlink:title=" ">
<path fill="none" stroke="#63b8ff" d="M305.1,-202.83C310.64,-172.38 331.85,-77.54 388,-27.5 389.33,-26.32 390.73,-25.21 392.2,-24.18"/>
<polygon fill="#63b8ff" stroke="#63b8ff" points="394.23,-27.05 401.15,-19.03 390.74,-20.98 394.23,-27.05"/>
</a>
</g>
</g>
<!-- Node5 -->
<g id="Node000005" class="node">
<title>Node5</title>
<g id="a_Node000005"><a xlink:href="minmea_8c.html#a15e9012d03411f7471ca65649f206cc0" target="_top" xlink:title=" ">
<polygon fill="white" stroke="#666666" points="629,-333 544,-333 544,-314 629,-314 629,-333"/>
<text text-anchor="middle" x="586.5" y="-321" font-family="Helvetica,sans-Serif" font-size="10.00">minmea_scan</text>
</a>
</g>
</g>
<!-- Node4&#45;&gt;Node5 -->
<g id="edge4_Node000004_Node000005" class="edge">
<title>Node4&#45;&gt;Node5</title>
<g id="a_edge4_Node000004_Node000005"><a xlink:title=" ">
<path fill="none" stroke="#63b8ff" d="M482.25,-406.96C488.7,-404.63 495.2,-401.82 501,-398.5 528.21,-382.93 554.39,-357.56 570.21,-340.7"/>
<polygon fill="#63b8ff" stroke="#63b8ff" points="572.92,-342.93 577.1,-333.19 567.76,-338.19 572.92,-342.93"/>
</a>
</g>
</g>
<!-- Node6 -->
<g id="Node000006" class="node">
<title>Node6</title>
<g id="a_Node000006"><a xlink:href="minmea_8h.html#acd31fbf84ad0c2e5dac349ca993248be" target="_top" xlink:title=" ">
<polygon fill="white" stroke="#666666" points="764,-333 672,-333 672,-314 764,-314 764,-333"/>
<text text-anchor="middle" x="718" y="-321" font-family="Helvetica,sans-Serif" font-size="10.00">minmea_isfield</text>
</a>
</g>
</g>
<!-- Node5&#45;&gt;Node6 -->
<g id="edge5_Node000005_Node000006" class="edge">
<title>Node5&#45;&gt;Node6</title>
<g id="a_edge5_Node000005_Node000006"><a xlink:title=" ">
<path fill="none" stroke="#63b8ff" d="M629.19,-323.5C639.5,-323.5 650.7,-323.5 661.56,-323.5"/>
<polygon fill="#63b8ff" stroke="#63b8ff" points="661.81,-327 671.81,-323.5 661.81,-320 661.81,-327"/>
</a>
</g>
</g>
<!-- Node7&#45;&gt;Node5 -->
<g id="edge7_Node000007_Node000005" class="edge">
<title>Node7&#45;&gt;Node5</title>
<g id="a_edge7_Node000007_Node000005"><a xlink:title=" ">
<path fill="none" stroke="#63b8ff" d="M476.82,-370C484.77,-367.41 493.25,-364.49 501,-361.5 519.77,-354.26 540.36,-345.03 556.52,-337.48"/>
<polygon fill="#63b8ff" stroke="#63b8ff" points="558.4,-340.46 565.95,-333.02 555.41,-334.13 558.4,-340.46"/>
</a>
</g>
</g>
<!-- Node8&#45;&gt;Node5 -->
<g id="edge9_Node000008_Node000005" class="edge">
<title>Node8&#45;&gt;Node5</title>
<g id="a_edge9_Node000008_Node000005"><a xlink:title=" ">
<path fill="none" stroke="#63b8ff" d="M500.83,-334.99C511.72,-333.51 523.11,-331.97 533.87,-330.51"/>
<polygon fill="#63b8ff" stroke="#63b8ff" points="534.52,-333.95 543.96,-329.14 533.58,-327.01 534.52,-333.95"/>
</a>
</g>
</g>
<!-- Node9&#45;&gt;Node5 -->
<g id="edge11_Node000009_Node000005" class="edge">
<title>Node9&#45;&gt;Node5</title>
<g id="a_edge11_Node000009_Node000005"><a xlink:title=" ">
<path fill="none" stroke="#63b8ff" d="M501.23,-312.67C511.98,-314.05 523.2,-315.49 533.81,-316.85"/>
<polygon fill="#63b8ff" stroke="#63b8ff" points="533.4,-320.33 543.77,-318.13 534.29,-313.39 533.4,-320.33"/>
</a>
</g>
</g>
<!-- Node10&#45;&gt;Node5 -->
<g id="edge13_Node000010_Node000005" class="edge">
<title>Node10&#45;&gt;Node5</title>
<g id="a_edge13_Node000010_Node000005"><a xlink:title=" ">
<path fill="none" stroke="#63b8ff" d="M474.74,-278.06C483.25,-280.97 492.54,-284.25 501,-287.5 519,-294.41 538.85,-302.82 554.78,-309.77"/>
<polygon fill="#63b8ff" stroke="#63b8ff" points="553.58,-313.07 564.14,-313.89 556.4,-306.66 553.58,-313.07"/>
</a>
</g>
</g>
<!-- Node11&#45;&gt;Node5 -->
<g id="edge15_Node000011_Node000005" class="edge">
<title>Node11&#45;&gt;Node5</title>
<g id="a_edge15_Node000011_Node000005"><a xlink:title=" ">
<path fill="none" stroke="#63b8ff" d="M480.15,-241.07C487.27,-243.66 494.55,-246.8 501,-250.5 527.58,-265.76 553.57,-290.02 569.55,-306.34"/>
<polygon fill="#63b8ff" stroke="#63b8ff" points="567.1,-308.85 576.55,-313.64 572.15,-304 567.1,-308.85"/>
</a>
</g>
</g>
<!-- Node14 -->
<g id="Node000014" class="node">
<title>Node14</title>
<g id="a_Node000014"><a xlink:href="minmea_8h.html#a7d5b32164f339789b22446e5bfc1afbc" target="_top" xlink:title=" ">
<polygon fill="white" stroke="#666666" points="635.5,-112 537.5,-112 537.5,-93 635.5,-93 635.5,-112"/>
<text text-anchor="middle" x="586.5" y="-100" font-family="Helvetica,sans-Serif" font-size="10.00">minmea_rescale</text>
</a>
</g>
</g>
<!-- Node13&#45;&gt;Node14 -->
<g id="edge18_Node000013_Node000014" class="edge">
<title>Node13&#45;&gt;Node14</title>
<g id="a_edge18_Node000013_Node000014"><a xlink:title=" ">
<path fill="none" stroke="#63b8ff" d="M491.73,-114.56C503.06,-113.1 515.34,-111.52 527.16,-110"/>
<polygon fill="#63b8ff" stroke="#63b8ff" points="527.93,-113.43 537.4,-108.68 527.03,-106.49 527.93,-113.43"/>
</a>
</g>
</g>
<!-- Node15 -->
<g id="Node000015" class="node">
<title>Node15</title>
<g id="a_Node000015"><a xlink:href="minmea_8h.html#ac7f8c6a8f35e4181b7f376560fef677b" target="_top" xlink:title=" ">
<polygon fill="white" stroke="#666666" points="633.5,-149 539.5,-149 539.5,-130 633.5,-130 633.5,-149"/>
<text text-anchor="middle" x="586.5" y="-137" font-family="Helvetica,sans-Serif" font-size="10.00">minmea_tofloat</text>
</a>
</g>
</g>
<!-- Node13&#45;&gt;Node15 -->
<g id="edge19_Node000013_Node000015" class="edge">
<title>Node13&#45;&gt;Node15</title>
<g id="a_edge19_Node000013_Node000015"><a xlink:title=" ">
<path fill="none" stroke="#63b8ff" d="M491.73,-126.77C503.68,-128.4 516.67,-130.16 529.08,-131.84"/>
<polygon fill="#63b8ff" stroke="#63b8ff" points="528.94,-135.36 539.32,-133.23 529.88,-128.42 528.94,-135.36"/>
</a>
</g>
</g>
<!-- Node17&#45;&gt;Node14 -->
<g id="edge22_Node000017_Node000014" class="edge">
<title>Node17&#45;&gt;Node14</title>
<g id="a_edge22_Node000017_Node000014"><a xlink:title=" ">
<path fill="none" stroke="#63b8ff" d="M493.68,-90.04C504.46,-91.5 516.01,-93.07 527.15,-94.58"/>
<polygon fill="#63b8ff" stroke="#63b8ff" points="526.85,-98.07 537.23,-95.95 527.79,-91.14 526.85,-98.07"/>
</a>
</g>
</g>
<!-- Node17&#45;&gt;Node15 -->
<g id="edge24_Node000017_Node000015" class="edge">
<title>Node17&#45;&gt;Node15</title>
<g id="a_edge24_Node000017_Node000015"><a xlink:title=" ">
<path fill="none" stroke="#63b8ff" d="M478.13,-93.05C485.73,-95.55 493.72,-98.43 501,-101.5 517.67,-108.54 520.55,-112.97 537,-120.5 541.18,-122.42 545.62,-124.32 550.04,-126.14"/>
<polygon fill="#63b8ff" stroke="#63b8ff" points="549.02,-129.5 559.6,-129.97 551.62,-123 549.02,-129.5"/>
</a>
</g>
</g>
<!-- Node18 -->
<g id="Node000018" class="node">
<title>Node18</title>
<g id="a_Node000018"><a xlink:href="minmea_8h.html#a82cdc79749798023b4a1952faf84f1ca" target="_top" xlink:title=" ">
<polygon fill="white" stroke="#666666" points="636,-75 537,-75 537,-56 636,-56 636,-75"/>
<text text-anchor="middle" x="586.5" y="-63" font-family="Helvetica,sans-Serif" font-size="10.00">minmea_tocoord</text>
</a>
</g>
</g>
<!-- Node17&#45;&gt;Node18 -->
<g id="edge23_Node000017_Node000018" class="edge">
<title>Node17&#45;&gt;Node18</title>
<g id="a_edge23_Node000017_Node000018"><a xlink:title=" ">
<path fill="none" stroke="#63b8ff" d="M493.68,-77.31C504.34,-75.94 515.75,-74.47 526.77,-73.05"/>
<polygon fill="#63b8ff" stroke="#63b8ff" points="527.28,-76.51 536.76,-71.77 526.39,-69.57 527.28,-76.51"/>
</a>
</g>
</g>
<!-- Node19&#45;&gt;Node15 -->
<g id="edge26_Node000019_Node000015" class="edge">
<title>Node19&#45;&gt;Node15</title>
<g id="a_edge26_Node000019_Node000015"><a xlink:title=" ">
<path fill="none" stroke="#63b8ff" d="M492.12,-151.51C503.93,-149.99 516.74,-148.34 528.97,-146.77"/>
<polygon fill="#63b8ff" stroke="#63b8ff" points="529.61,-150.21 539.09,-145.47 528.72,-143.27 529.61,-150.21"/>
</a>
</g>
</g>
</g>
</svg>

<g id="navigator" transform="translate(0 0)" fill="#404254">
  <rect fill="#f2f5e9" fill-opacity="0.5" stroke="#606060" stroke-width=".5" x="0" y="0" width="60" height="60"/>
  <use id="zoomplus" xlink:href="#zoomPlus" x="17" y="9" onmousedown="handleZoom(evt,'in')"/>
  <use id="zoomminus" xlink:href="#zoomMin" x="42" y="9" onmousedown="handleZoom(evt,'out')"/>
  <use id="reset" xlink:href="#resetDef" x="30" y="36" onmousedown="handleReset()"/>
   <use id="arrowup" xlink:href="#arrowUp" x="0" y="0" onmousedown="handlePan(0,-1)"/>
  <use id="arrowright" xlink:href="#arrowRight" x="0" y="0" onmousedown="handlePan(1,0)"/>
  <use id="arrowdown" xlink:href="#arrowDown" x="0" y="0" onmousedown="handlePan(0,1)"/>
  <use id="arrowleft" xlink:href="#arrowLeft" x="0" y="0" onmousedown="handlePan(-1,0)"/>
</g>
<svg viewBox="0 0 15 15" width="100%" height="30px" preserveAspectRatio="xMaxYMin meet">
 <g id="arrow_out" transform="scale(0.3 0.3)">
  <a xlink:href="gps_8h_aadbd2f07e07e8a3f472065571970cefe_cgraph_org.svg" target="_base">
   <rect id="button" ry="5" rx="5" y="6" x="6" height="38" width="38"
        fill="#f2f5e9" fill-opacity="0.5" stroke="#606060" stroke-width="1.0"/>
   <path id="arrow"
     d="M 11.500037,31.436501 C 11.940474,20.09759 22.043105,11.32322 32.158766,21.979434 L 37.068811,17.246167 C 37.068811,17.246167 37.088388,32 37.088388,32 L 22.160133,31.978069 C 22.160133,31.978069 26.997745,27.140456 26.997745,27.140456 C 18.528582,18.264221 13.291696,25.230495 11.500037,31.436501 z"
     style="fill:#404040;"/>
  </a>
 </g>
</svg>

<style type='text/css'>
<![CDATA[
[data-mouse-over-selected='false'] { opacity: 0.7; }
[data-mouse-over-selected='true']  { opacity: 1.0; }
]]>
</style>
<script type="application/ecmascript"><![CDATA[
document.addEventListener('DOMContentLoaded', (event) => {
  highlightEdges();
  highlightAdjacentNodes();
});
]]></script>
</svg>
