<?xml version="1.0" encoding="UTF-8" standalone="no"?>
<!DOCTYPE svg PUBLIC "-//W3C//DTD SVG 1.1//EN"
 "http://www.w3.org/Graphics/SVG/1.1/DTD/svg11.dtd">
<!-- Generated by graphviz version 2.43.0 (0)
 -->
<!-- Title: save_gps_last Pages: 1 -->
<svg width="454pt" height="103pt"
 viewBox="0.00 0.00 454.00 103.00" xmlns="http://www.w3.org/2000/svg" xmlns:xlink="http://www.w3.org/1999/xlink">

<svg id="main" version="1.1" xmlns="http://www.w3.org/2000/svg" xmlns:xlink="http://www.w3.org/1999/xlink" xml:space="preserve" onload="init(evt)">
<style type="text/css"><![CDATA[
.node, .edge {opacity: 0.7;}
.node.selected, .edge.selected {opacity: 1;}
.edge:hover path { stroke: red; }
.edge:hover polygon { stroke: red; fill: red; }
]]></style>
<script type="application/ecmascript" xlink:href="svg.min.js"/>
<svg id="graph" class="graph">
<g id="graph0" class="graph" transform="scale(1 1) rotate(0) translate(4 99)">
<title>save_gps_last</title>
<!-- Node1 -->
<g id="Node000001" class="node">
<title>Node1</title>
<g id="a_Node000001"><a xlink:title="Sovrascrive il file dell&#39;ultimo fix noto.">
<polygon fill="#999999" stroke="#666666" points="446,-57 360,-57 360,-38 446,-38 446,-57"/>
<text text-anchor="middle" x="403" y="-45" font-family="Helvetica,sans-Serif" font-size="10.00">save_gps_last</text>
</a>
</g>
</g>
<!-- Node2 -->
<g id="Node000002" class="node">
<title>Node2</title>
<g id="a_Node000002"><a xlink:href="buttons_8cpp.html#a362a9b2582e0724627b8cd9f2e16f599" target="_top" xlink:title="Funzione di update della logica dei menu. Da chiamare nel loop principale.">
<polygon fill="white" stroke="#666666" points="324,-95 235,-95 235,-76 324,-76 324,-95"/>
<text text-anchor="middle" x="279.5" y="-83" font-family="Helvetica,sans-Serif" font-size="10.00">buttonsUpdate</text>
</a>
</g>
</g>
<!-- Node1&#45;&gt;Node2 -->
<g id="edge1_Node000001_Node000002" class="edge">
<title>Node1&#45;&gt;Node2</title>
<g id="a_edge1_Node000001_Node000002"><a xlink:title=" ">
<path fill="none" stroke="#63b8ff" d="M361.46,-60.18C345.04,-65.31 326.4,-71.14 311.15,-75.91"/>
<polygon fill="#63b8ff" stroke="#63b8ff" points="362.84,-63.41 371.34,-57.09 360.75,-56.73 362.84,-63.41"/>
</a>
</g>
</g>
<!-- Node3 -->
<g id="Node000003" class="node">
<title>Node3</title>
<g id="a_Node000003"><a xlink:href="main_8cpp.html#afe461d27b9c48d5921c00d521181f12f" target="_top" xlink:title="Loop principale del Core 0.">
<polygon fill="white" stroke="#666666" points="158.5,-85 120.5,-85 120.5,-66 158.5,-66 158.5,-85"/>
<text text-anchor="middle" x="139.5" y="-73" font-family="Helvetica,sans-Serif" font-size="10.00">loop</text>
</a>
</g>
</g>
<!-- Node1&#45;&gt;Node3 -->
<g id="edge7_Node000001_Node000003" class="edge">
<title>Node1&#45;&gt;Node3</title>
<g id="a_edge7_Node000001_Node000003"><a xlink:title=" ">
<path fill="none" stroke="#63b8ff" d="M349.72,-53.1C290.56,-59.43 197.4,-69.41 158.5,-73.57"/>
<polygon fill="#63b8ff" stroke="#63b8ff" points="350.41,-56.54 359.99,-52 349.67,-49.58 350.41,-56.54"/>
</a>
</g>
</g>
<!-- Node4 -->
<g id="Node000004" class="node">
<title>Node4</title>
<g id="a_Node000004"><a xlink:href="gps_8cpp.html#a79c2c486e631815579df4be3e190ebad" target="_top" xlink:title="Sincronizza i dati GPS globali e gestisce il salvataggio su Flash.">
<polygon fill="white" stroke="#666666" points="311.5,-19 247.5,-19 247.5,0 311.5,0 311.5,-19"/>
<text text-anchor="middle" x="279.5" y="-7" font-family="Helvetica,sans-Serif" font-size="10.00">GPS_sync</text>
</a>
</g>
</g>
<!-- Node1&#45;&gt;Node4 -->
<g id="edge3_Node000001_Node000004" class="edge">
<title>Node1&#45;&gt;Node4</title>
<g id="a_edge3_Node000001_Node000004"><a xlink:title=" ">
<path fill="none" stroke="#63b8ff" d="M361.46,-34.82C345.04,-29.69 326.4,-23.86 311.15,-19.09"/>
<polygon fill="#63b8ff" stroke="#63b8ff" points="360.75,-38.27 371.34,-37.91 362.84,-31.59 360.75,-38.27"/>
</a>
</g>
</g>
<!-- Node2&#45;&gt;Node3 -->
<g id="edge2_Node000002_Node000003" class="edge">
<title>Node2&#45;&gt;Node3</title>
<g id="a_edge2_Node000002_Node000003"><a xlink:title=" ">
<path fill="none" stroke="#63b8ff" d="M224.65,-81.6C201.25,-79.9 175.4,-78.03 158.61,-76.81"/>
<polygon fill="#63b8ff" stroke="#63b8ff" points="224.61,-85.1 234.84,-82.34 225.12,-78.12 224.61,-85.1"/>
</a>
</g>
</g>
<!-- Node5 -->
<g id="Node000005" class="node">
<title>Node5</title>
<g id="a_Node000005"><a xlink:href="gps_8cpp.html#a58c63785b84f6e923c4e8ca91f335c43" target="_top" xlink:title="Monitora la coda dei messaggi inter&#45;core per richieste di sincronizzazione GPS.">
<polygon fill="white" stroke="#666666" points="199,-39 80,-39 80,-20 199,-20 199,-39"/>
<text text-anchor="middle" x="139.5" y="-27" font-family="Helvetica,sans-Serif" font-size="10.00">check_GPS_sync_req</text>
</a>
</g>
</g>
<!-- Node4&#45;&gt;Node5 -->
<g id="edge4_Node000004_Node000005" class="edge">
<title>Node4&#45;&gt;Node5</title>
<g id="a_edge4_Node000004_Node000005"><a xlink:title=" ">
<path fill="none" stroke="#63b8ff" d="M237.08,-15.5C225.14,-17.23 211.89,-19.15 199.12,-21"/>
<polygon fill="#63b8ff" stroke="#63b8ff" points="237.79,-18.94 247.19,-14.04 236.79,-12.01 237.79,-18.94"/>
</a>
</g>
</g>
<!-- Node6 -->
<g id="Node000006" class="node">
<title>Node6</title>
<g id="a_Node000006"><a xlink:href="main_8cpp.html#a39ceba300a80e348e278539f57e0ca79" target="_top" xlink:title="Loop principale del Core 1.">
<polygon fill="white" stroke="#666666" points="44,-20 0,-20 0,-1 44,-1 44,-20"/>
<text text-anchor="middle" x="22" y="-8" font-family="Helvetica,sans-Serif" font-size="10.00">loop1</text>
</a>
</g>
</g>
<!-- Node4&#45;&gt;Node6 -->
<g id="edge6_Node000004_Node000006" class="edge">
<title>Node4&#45;&gt;Node6</title>
<g id="a_edge6_Node000004_Node000006"><a xlink:title=" ">
<path fill="none" stroke="#63b8ff" d="M237.3,-9.66C182.21,-9.88 86.58,-10.25 44.23,-10.42"/>
<polygon fill="#63b8ff" stroke="#63b8ff" points="237.44,-13.16 247.43,-9.62 237.41,-6.16 237.44,-13.16"/>
</a>
</g>
</g>
<!-- Node5&#45;&gt;Node6 -->
<g id="edge5_Node000005_Node000006" class="edge">
<title>Node5&#45;&gt;Node6</title>
<g id="a_edge5_Node000005_Node000006"><a xlink:title=" ">
<path fill="none" stroke="#63b8ff" d="M70.38,-18.29C60.85,-16.73 51.71,-15.22 44.04,-13.96"/>
<polygon fill="#63b8ff" stroke="#63b8ff" points="69.98,-21.77 80.41,-19.94 71.11,-14.87 69.98,-21.77"/>
</a>
</g>
</g>
</g>
</svg>
</svg>

<style type='text/css'>
<![CDATA[
[data-mouse-over-selected='false'] { opacity: 0.7; }
[data-mouse-over-selected='true']  { opacity: 1.0; }
]]>
</style>
<script type="application/ecmascript"><![CDATA[
document.addEventListener('DOMContentLoaded', (event) => {
  highlightEdges();
  highlightAdjacentNodes();
});
]]></script>
</svg>
