<?xml version="1.0" encoding="UTF-8" standalone="no"?>
<!DOCTYPE svg PUBLIC "-//W3C//DTD SVG 1.1//EN"
 "http://www.w3.org/Graphics/SVG/1.1/DTD/svg11.dtd">
<!-- Generated by graphviz version 2.43.0 (0)
 -->
<!-- Title: print_NMEA_gst Pages: 1 -->
<svg width="236pt" height="64pt"
 viewBox="0.00 0.00 236.00 64.00" xmlns="http://www.w3.org/2000/svg" xmlns:xlink="http://www.w3.org/1999/xlink">
<g id="graph0" class="graph" transform="scale(1 1) rotate(0) translate(4 60)">
<title>print_NMEA_gst</title>
<!-- Node1 -->
<g id="Node000001" class="node">
<title>Node1</title>
<g id="a_Node000001"><a xlink:title="Stampa gli errori di deviazione da una sentenza $xxGST (GPS Pseudorange Noise Statistics).">
<polygon fill="#999999" stroke="#666666" points="94,-37 0,-37 0,-18 94,-18 94,-37"/>
<text text-anchor="middle" x="47" y="-25" font-family="Helvetica,sans-Serif" font-size="10.00">print_NMEA_gst</text>
</a>
</g>
</g>
<!-- Node2 -->
<g id="Node000002" class="node">
<title>Node2</title>
<g id="a_Node000002"><a xlink:href="minmea_8h.html#a7d5b32164f339789b22446e5bfc1afbc" target="_top" xlink:title=" ">
<polygon fill="white" stroke="#666666" points="228,-56 130,-56 130,-37 228,-37 228,-56"/>
<text text-anchor="middle" x="179" y="-44" font-family="Helvetica,sans-Serif" font-size="10.00">minmea_rescale</text>
</a>
</g>
</g>
<!-- Node1&#45;&gt;Node2 -->
<g id="edge1_Node000001_Node000002" class="edge">
<title>Node1&#45;&gt;Node2</title>
<g id="a_edge1_Node000001_Node000002"><a xlink:title=" ">
<path fill="none" stroke="#63b8ff" d="M94.2,-34.25C102.49,-35.46 111.22,-36.74 119.8,-37.99"/>
<polygon fill="#63b8ff" stroke="#63b8ff" points="119.35,-41.47 129.75,-39.45 120.36,-34.54 119.35,-41.47"/>
</a>
</g>
</g>
<!-- Node3 -->
<g id="Node000003" class="node">
<title>Node3</title>
<g id="a_Node000003"><a xlink:href="minmea_8h.html#ac7f8c6a8f35e4181b7f376560fef677b" target="_top" xlink:title=" ">
<polygon fill="white" stroke="#666666" points="226,-19 132,-19 132,0 226,0 226,-19"/>
<text text-anchor="middle" x="179" y="-7" font-family="Helvetica,sans-Serif" font-size="10.00">minmea_tofloat</text>
</a>
</g>
</g>
<!-- Node1&#45;&gt;Node3 -->
<g id="edge2_Node000001_Node000003" class="edge">
<title>Node1&#45;&gt;Node3</title>
<g id="a_edge2_Node000001_Node000003"><a xlink:title=" ">
<path fill="none" stroke="#63b8ff" d="M94.2,-21.1C103.2,-19.86 112.73,-18.54 122.01,-17.25"/>
<polygon fill="#63b8ff" stroke="#63b8ff" points="122.52,-20.71 131.95,-15.88 121.56,-13.78 122.52,-20.71"/>
</a>
</g>
</g>
</g>
</svg>
