<?xml version="1.0" encoding="UTF-8" standalone="no"?>
<!DOCTYPE svg PUBLIC "-//W3C//DTD SVG 1.1//EN"
 "http://www.w3.org/Graphics/SVG/1.1/DTD/svg11.dtd">
<!-- Generated by graphviz version 2.43.0 (0)
 -->
<!-- Title: src/Modules/leds.cpp Pages: 1 -->
<svg width="914pt" height="302pt"
 viewBox="0.00 0.00 914.49 302.00" xmlns="http://www.w3.org/2000/svg" xmlns:xlink="http://www.w3.org/1999/xlink">
<g id="graph0" class="graph" transform="scale(1 1) rotate(0) translate(4 298)">
<title>src/Modules/leds.cpp</title>
<!-- Node1 -->
<g id="Node000001" class="node">
<title>Node1</title>
<g id="a_Node000001"><a xlink:title="Implementazione dei feedback visivi tramite LED RGB.">
<polygon fill="#999999" stroke="#666666" points="396.49,-294 277.49,-294 277.49,-275 396.49,-275 396.49,-294"/>
<text text-anchor="middle" x="336.99" y="-282" font-family="Helvetica,sans-Serif" font-size="10.00">src/Modules/leds.cpp</text>
</a>
</g>
</g>
<!-- Node2 -->
<g id="Node000002" class="node">
<title>Node2</title>
<g id="a_Node000002"><a xlink:href="leds_8h.html" target="_top" xlink:title="Definizioni hardware e prototipi per la gestione dei LED RGB.">
<polygon fill="white" stroke="#666666" points="289.99,-129 243.99,-129 243.99,-110 289.99,-110 289.99,-129"/>
<text text-anchor="middle" x="266.99" y="-117" font-family="Helvetica,sans-Serif" font-size="10.00">leds.h</text>
</a>
</g>
</g>
<!-- Node1&#45;&gt;Node2 -->
<g id="edge1_Node000001_Node000002" class="edge">
<title>Node1&#45;&gt;Node2</title>
<g id="a_edge1_Node000001_Node000002"><a xlink:title=" ">
<path fill="none" stroke="#63b8ff" d="M281.35,-275C195.52,-260.62 37.24,-228.64 3.99,-184 -1.06,-177.23 -1.46,-171.45 3.99,-165 33.02,-130.64 169.43,-122.8 233.54,-121.02"/>
<polygon fill="#63b8ff" stroke="#63b8ff" points="233.99,-124.51 243.91,-120.77 233.82,-117.51 233.99,-124.51"/>
</a>
</g>
</g>
<!-- Node5 -->
<g id="Node000005" class="node">
<title>Node5</title>
<g id="a_Node000005"><a xlink:href="display__ui_8h.html" target="_top" xlink:title="Definizioni hardware e prototipi per l&#39;interfaccia utente OLED.">
<polygon fill="white" stroke="#666666" points="374.49,-239 299.49,-239 299.49,-220 374.49,-220 374.49,-239"/>
<text text-anchor="middle" x="336.99" y="-227" font-family="Helvetica,sans-Serif" font-size="10.00">display_ui.h</text>
</a>
</g>
</g>
<!-- Node1&#45;&gt;Node5 -->
<g id="edge4_Node000001_Node000005" class="edge">
<title>Node1&#45;&gt;Node5</title>
<g id="a_edge4_Node000001_Node000005"><a xlink:title=" ">
<path fill="none" stroke="#63b8ff" d="M336.99,-274.75C336.99,-267.8 336.99,-257.85 336.99,-249.13"/>
<polygon fill="#63b8ff" stroke="#63b8ff" points="340.49,-249.09 336.99,-239.09 333.49,-249.09 340.49,-249.09"/>
</a>
</g>
</g>
<!-- Node10 -->
<g id="Node000010" class="node">
<title>Node10</title>
<g id="a_Node000010"><a xlink:href="buttons_8h.html" target="_top" xlink:title="Definizioni e prototipi per la gestione degli input utente e della UI.">
<polygon fill="white" stroke="#666666" points="591.99,-184 529.99,-184 529.99,-165 591.99,-165 591.99,-184"/>
<text text-anchor="middle" x="560.99" y="-172" font-family="Helvetica,sans-Serif" font-size="10.00">buttons.h</text>
</a>
</g>
</g>
<!-- Node1&#45;&gt;Node10 -->
<g id="edge37_Node000001_Node000010" class="edge">
<title>Node1&#45;&gt;Node10</title>
<g id="a_edge37_Node000001_Node000010"><a xlink:title=" ">
<path fill="none" stroke="#63b8ff" d="M354.94,-274.84C394.19,-255.92 487.84,-210.77 534.14,-188.45"/>
<polygon fill="#63b8ff" stroke="#63b8ff" points="535.77,-191.54 543.26,-184.05 532.73,-185.24 535.77,-191.54"/>
</a>
</g>
</g>
<!-- Node3 -->
<g id="Node000003" class="node">
<title>Node3</title>
<g id="a_Node000003"><a xlink:title=" ">
<polygon fill="#e0e0e0" stroke="#999999" points="349.49,-74 286.49,-74 286.49,-55 349.49,-55 349.49,-74"/>
<text text-anchor="middle" x="317.99" y="-62" font-family="Helvetica,sans-Serif" font-size="10.00">Arduino.h</text>
</a>
</g>
</g>
<!-- Node2&#45;&gt;Node3 -->
<g id="edge2_Node000002_Node000003" class="edge">
<title>Node2&#45;&gt;Node3</title>
<g id="a_edge2_Node000002_Node000003"><a xlink:title=" ">
<path fill="none" stroke="#63b8ff" d="M275.41,-109.75C282.76,-102.11 293.62,-90.82 302.53,-81.56"/>
<polygon fill="#63b8ff" stroke="#63b8ff" points="305.31,-83.72 309.72,-74.09 300.27,-78.87 305.31,-83.72"/>
</a>
</g>
</g>
<!-- Node4 -->
<g id="Node000004" class="node">
<title>Node4</title>
<g id="a_Node000004"><a xlink:title=" ">
<polygon fill="#e0e0e0" stroke="#999999" points="267.99,-74 203.99,-74 203.99,-55 267.99,-55 267.99,-74"/>
<text text-anchor="middle" x="235.99" y="-62" font-family="Helvetica,sans-Serif" font-size="10.00">FastLED.h</text>
</a>
</g>
</g>
<!-- Node2&#45;&gt;Node4 -->
<g id="edge3_Node000002_Node000004" class="edge">
<title>Node2&#45;&gt;Node4</title>
<g id="a_edge3_Node000002_Node000004"><a xlink:title=" ">
<path fill="none" stroke="#63b8ff" d="M261.87,-109.75C257.62,-102.49 251.46,-91.95 246.21,-82.98"/>
<polygon fill="#63b8ff" stroke="#63b8ff" points="249.08,-80.95 241.01,-74.09 243.04,-84.49 249.08,-80.95"/>
</a>
</g>
</g>
<!-- Node5&#45;&gt;Node2 -->
<g id="edge36_Node000005_Node000002" class="edge">
<title>Node5&#45;&gt;Node2</title>
<g id="a_edge36_Node000005_Node000002"><a xlink:title=" ">
<path fill="none" stroke="#63b8ff" d="M330.12,-219.84C323.23,-211.02 312.46,-196.85 303.99,-184 294.03,-168.89 283.74,-151.03 276.55,-138.11"/>
<polygon fill="#63b8ff" stroke="#63b8ff" points="279.6,-136.39 271.72,-129.31 273.47,-139.76 279.6,-136.39"/>
</a>
</g>
</g>
<!-- Node5&#45;&gt;Node3 -->
<g id="edge5_Node000005_Node000003" class="edge">
<title>Node5&#45;&gt;Node3</title>
<g id="a_edge5_Node000005_Node000003"><a xlink:title=" ">
<path fill="none" stroke="#63b8ff" d="M335.96,-219.74C333,-194.31 324.35,-120.08 320.22,-84.69"/>
<polygon fill="#63b8ff" stroke="#63b8ff" points="323.65,-83.83 319.01,-74.31 316.69,-84.64 323.65,-83.83"/>
</a>
</g>
</g>
<!-- Node6 -->
<g id="Node000006" class="node">
<title>Node6</title>
<g id="a_Node000006"><a xlink:title=" ">
<polygon fill="#e0e0e0" stroke="#999999" points="511.99,-184 421.99,-184 421.99,-165 511.99,-165 511.99,-184"/>
<text text-anchor="middle" x="466.99" y="-172" font-family="Helvetica,sans-Serif" font-size="10.00">Adafruit_GFX.h</text>
</a>
</g>
</g>
<!-- Node5&#45;&gt;Node6 -->
<g id="edge6_Node000005_Node000006" class="edge">
<title>Node5&#45;&gt;Node6</title>
<g id="a_edge6_Node000005_Node000006"><a xlink:title=" ">
<path fill="none" stroke="#63b8ff" d="M357.87,-219.98C379.07,-211.34 412.11,-197.87 436.29,-188.02"/>
<polygon fill="#63b8ff" stroke="#63b8ff" points="437.78,-191.19 445.72,-184.17 435.14,-184.7 437.78,-191.19"/>
</a>
</g>
</g>
<!-- Node7 -->
<g id="Node000007" class="node">
<title>Node7</title>
<g id="a_Node000007"><a xlink:title=" ">
<polygon fill="#e0e0e0" stroke="#999999" points="126.49,-184 13.49,-184 13.49,-165 126.49,-165 126.49,-184"/>
<text text-anchor="middle" x="69.99" y="-172" font-family="Helvetica,sans-Serif" font-size="10.00">Adafruit_SSD1306.h</text>
</a>
</g>
</g>
<!-- Node5&#45;&gt;Node7 -->
<g id="edge7_Node000005_Node000007" class="edge">
<title>Node5&#45;&gt;Node7</title>
<g id="a_edge7_Node000005_Node000007"><a xlink:title=" ">
<path fill="none" stroke="#63b8ff" d="M299.3,-221.02C253.34,-211.9 175.38,-196.42 123.29,-186.08"/>
<polygon fill="#63b8ff" stroke="#63b8ff" points="123.72,-182.6 113.23,-184.08 122.36,-189.46 123.72,-182.6"/>
</a>
</g>
</g>
<!-- Node8 -->
<g id="Node000008" class="node">
<title>Node8</title>
<g id="a_Node000008"><a xlink:title=" ">
<polygon fill="#e0e0e0" stroke="#999999" points="185.49,-184 144.49,-184 144.49,-165 185.49,-165 185.49,-184"/>
<text text-anchor="middle" x="164.99" y="-172" font-family="Helvetica,sans-Serif" font-size="10.00">SPI.h</text>
</a>
</g>
</g>
<!-- Node5&#45;&gt;Node8 -->
<g id="edge8_Node000005_Node000008" class="edge">
<title>Node5&#45;&gt;Node8</title>
<g id="a_edge8_Node000005_Node000008"><a xlink:title=" ">
<path fill="none" stroke="#63b8ff" d="M309.35,-219.98C278.16,-210.37 227.58,-194.79 195.32,-184.85"/>
<polygon fill="#63b8ff" stroke="#63b8ff" points="196.12,-181.43 185.54,-181.83 194.06,-188.12 196.12,-181.43"/>
</a>
</g>
</g>
<!-- Node9 -->
<g id="Node000009" class="node">
<title>Node9</title>
<g id="a_Node000009"><a xlink:title=" ">
<polygon fill="#e0e0e0" stroke="#999999" points="251.99,-184 203.99,-184 203.99,-165 251.99,-165 251.99,-184"/>
<text text-anchor="middle" x="227.99" y="-172" font-family="Helvetica,sans-Serif" font-size="10.00">Wire.h</text>
</a>
</g>
</g>
<!-- Node5&#45;&gt;Node9 -->
<g id="edge9_Node000005_Node000009" class="edge">
<title>Node5&#45;&gt;Node9</title>
<g id="a_edge9_Node000005_Node000009"><a xlink:title=" ">
<path fill="none" stroke="#63b8ff" d="M319.47,-219.98C302.02,-211.5 274.98,-198.35 254.81,-188.54"/>
<polygon fill="#63b8ff" stroke="#63b8ff" points="256.34,-185.4 245.82,-184.17 253.28,-191.69 256.34,-185.4"/>
</a>
</g>
</g>
<!-- Node5&#45;&gt;Node10 -->
<g id="edge10_Node000005_Node000010" class="edge">
<title>Node5&#45;&gt;Node10</title>
<g id="a_edge10_Node000005_Node000010"><a xlink:title=" ">
<path fill="none" stroke="#63b8ff" d="M367.86,-219.98C407.44,-210.1 475.9,-193.9 519.86,-184.02"/>
<polygon fill="#63b8ff" stroke="#63b8ff" points="520.66,-187.43 529.66,-181.83 519.13,-180.6 520.66,-187.43"/>
</a>
</g>
</g>
<!-- Node13 -->
<g id="Node000013" class="node">
<title>Node13</title>
<g id="a_Node000013"><a xlink:href="gps_8h.html" target="_top" xlink:title="Definizioni, macro e strutture per la gestione della telemetria GPS.">
<polygon fill="white" stroke="#666666" points="582.49,-129 539.49,-129 539.49,-110 582.49,-110 582.49,-129"/>
<text text-anchor="middle" x="560.99" y="-117" font-family="Helvetica,sans-Serif" font-size="10.00">gps.h</text>
</a>
</g>
</g>
<!-- Node5&#45;&gt;Node13 -->
<g id="edge35_Node000005_Node000013" class="edge">
<title>Node5&#45;&gt;Node13</title>
<g id="a_edge35_Node000005_Node000013"><a xlink:title=" ">
<path fill="none" stroke="#63b8ff" d="M345.03,-219.82C358.06,-206.24 385.13,-180 412.99,-165 450.55,-144.77 498.56,-132.5 529.53,-126.11"/>
<polygon fill="#63b8ff" stroke="#63b8ff" points="530.22,-129.54 539.35,-124.16 528.86,-122.68 530.22,-129.54"/>
</a>
</g>
</g>
<!-- Node25 -->
<g id="Node000025" class="node">
<title>Node25</title>
<g id="a_Node000025"><a xlink:href="temp_8h.html" target="_top" xlink:title="Definizioni hardware e prototipi per la lettura della temperatura.">
<polygon fill="white" stroke="#666666" points="397.49,-129 346.49,-129 346.49,-110 397.49,-110 397.49,-129"/>
<text text-anchor="middle" x="371.99" y="-117" font-family="Helvetica,sans-Serif" font-size="10.00">temp.h</text>
</a>
</g>
</g>
<!-- Node5&#45;&gt;Node25 -->
<g id="edge33_Node000005_Node000025" class="edge">
<title>Node5&#45;&gt;Node25</title>
<g id="a_edge33_Node000005_Node000025"><a xlink:title=" ">
<path fill="none" stroke="#63b8ff" d="M339.85,-219.66C345.54,-202.09 358.39,-162.45 366.01,-138.95"/>
<polygon fill="#63b8ff" stroke="#63b8ff" points="369.43,-139.75 369.18,-129.16 362.77,-137.59 369.43,-139.75"/>
</a>
</g>
</g>
<!-- Node10&#45;&gt;Node2 -->
<g id="edge15_Node000010_Node000002" class="edge">
<title>Node10&#45;&gt;Node2</title>
<g id="a_edge15_Node000010_Node000002"><a xlink:title=" ">
<path fill="none" stroke="#63b8ff" d="M529.57,-166.71C526.67,-166.12 523.77,-165.54 520.99,-165 441.96,-149.69 348.64,-133.93 300.09,-125.91"/>
<polygon fill="#63b8ff" stroke="#63b8ff" points="300.59,-122.44 290.15,-124.27 299.45,-129.35 300.59,-122.44"/>
</a>
</g>
</g>
<!-- Node10&#45;&gt;Node3 -->
<g id="edge11_Node000010_Node000003" class="edge">
<title>Node10&#45;&gt;Node3</title>
<g id="a_edge11_Node000010_Node000003"><a xlink:title=" ">
<path fill="none" stroke="#63b8ff" d="M541.51,-164.84C498.75,-145.84 396.49,-100.39 346.49,-78.17"/>
<polygon fill="#63b8ff" stroke="#63b8ff" points="347.78,-74.91 337.22,-74.05 344.93,-81.31 347.78,-74.91"/>
</a>
</g>
</g>
<!-- Node10&#45;&gt;Node5 -->
<g id="edge14_Node000010_Node000005" class="edge">
<title>Node10&#45;&gt;Node5</title>
<g id="a_edge14_Node000010_Node000005"><a xlink:title=" ">
<path fill="none" stroke="#63b8ff" d="M529.87,-184.08C492.16,-193.49 428.48,-208.58 384.61,-218.51"/>
<polygon fill="#63b8ff" stroke="#63b8ff" points="383.73,-215.12 374.74,-220.74 385.26,-221.95 383.73,-215.12"/>
</a>
</g>
</g>
<!-- Node11 -->
<g id="Node000011" class="node">
<title>Node11</title>
<g id="a_Node000011"><a xlink:title=" ">
<polygon fill="#e0e0e0" stroke="#999999" points="792.99,-74 716.99,-74 716.99,-55 792.99,-55 792.99,-74"/>
<text text-anchor="middle" x="754.99" y="-62" font-family="Helvetica,sans-Serif" font-size="10.00">pico/stdlib.h</text>
</a>
</g>
</g>
<!-- Node10&#45;&gt;Node11 -->
<g id="edge12_Node000010_Node000011" class="edge">
<title>Node10&#45;&gt;Node11</title>
<g id="a_edge12_Node000010_Node000011"><a xlink:title=" ">
<path fill="none" stroke="#63b8ff" d="M576.53,-164.84C610.25,-146.08 690.28,-101.52 730.72,-79.01"/>
<polygon fill="#63b8ff" stroke="#63b8ff" points="732.6,-81.97 739.63,-74.05 729.19,-75.85 732.6,-81.97"/>
</a>
</g>
</g>
<!-- Node12 -->
<g id="Node000012" class="node">
<title>Node12</title>
<g id="a_Node000012"><a xlink:title=" ">
<polygon fill="#e0e0e0" stroke="#999999" points="906.49,-74 811.49,-74 811.49,-55 906.49,-55 906.49,-74"/>
<text text-anchor="middle" x="858.99" y="-62" font-family="Helvetica,sans-Serif" font-size="10.00">hardware/gpio.h</text>
</a>
</g>
</g>
<!-- Node10&#45;&gt;Node12 -->
<g id="edge13_Node000010_Node000012" class="edge">
<title>Node10&#45;&gt;Node12</title>
<g id="a_edge13_Node000010_Node000012"><a xlink:title=" ">
<path fill="none" stroke="#63b8ff" d="M584.62,-164.94C637.43,-145.79 765.14,-99.51 825.86,-77.51"/>
<polygon fill="#63b8ff" stroke="#63b8ff" points="827.14,-80.76 835.35,-74.07 824.76,-74.18 827.14,-80.76"/>
</a>
</g>
</g>
<!-- Node10&#45;&gt;Node13 -->
<g id="edge16_Node000010_Node000013" class="edge">
<title>Node10&#45;&gt;Node13</title>
<g id="a_edge16_Node000010_Node000013"><a xlink:title=" ">
<path fill="none" stroke="#63b8ff" d="M560.99,-164.75C560.99,-157.8 560.99,-147.85 560.99,-139.13"/>
<polygon fill="#63b8ff" stroke="#63b8ff" points="564.49,-139.09 560.99,-129.09 557.49,-139.09 564.49,-139.09"/>
</a>
</g>
</g>
<!-- Node13&#45;&gt;Node3 -->
<g id="edge17_Node000013_Node000003" class="edge">
<title>Node13&#45;&gt;Node3</title>
<g id="a_edge17_Node000013_Node000003"><a xlink:title=" ">
<path fill="none" stroke="#63b8ff" d="M539.42,-113.8C499.13,-105.01 411.8,-85.96 359.65,-74.59"/>
<polygon fill="#63b8ff" stroke="#63b8ff" points="360.24,-71.13 349.72,-72.42 358.74,-77.97 360.24,-71.13"/>
</a>
</g>
</g>
<!-- Node13&#45;&gt;Node11 -->
<g id="edge26_Node000013_Node000011" class="edge">
<title>Node13&#45;&gt;Node11</title>
<g id="a_edge26_Node000013_Node000011"><a xlink:title=" ">
<path fill="none" stroke="#63b8ff" d="M582.49,-112.63C614.14,-103.98 673.85,-87.67 714.03,-76.69"/>
<polygon fill="#63b8ff" stroke="#63b8ff" points="715.07,-80.03 723.8,-74.02 713.23,-73.28 715.07,-80.03"/>
</a>
</g>
</g>
<!-- Node13&#45;&gt;Node12 -->
<g id="edge27_Node000013_Node000012" class="edge">
<title>Node13&#45;&gt;Node12</title>
<g id="a_edge27_Node000013_Node000012"><a xlink:title=" ">
<path fill="none" stroke="#63b8ff" d="M582.9,-114.6C628.48,-106.5 734.78,-87.59 801.39,-75.74"/>
<polygon fill="#63b8ff" stroke="#63b8ff" points="802.08,-79.18 811.32,-73.98 800.86,-72.28 802.08,-79.18"/>
</a>
</g>
</g>
<!-- Node14 -->
<g id="Node000014" class="node">
<title>Node14</title>
<g id="a_Node000014"><a xlink:title=" ">
<polygon fill="#e0e0e0" stroke="#999999" points="591.99,-19 543.99,-19 543.99,0 591.99,0 591.99,-19"/>
<text text-anchor="middle" x="567.99" y="-7" font-family="Helvetica,sans-Serif" font-size="10.00">time.h</text>
</a>
</g>
</g>
<!-- Node13&#45;&gt;Node14 -->
<g id="edge18_Node000013_Node000014" class="edge">
<title>Node13&#45;&gt;Node14</title>
<g id="a_edge18_Node000013_Node000014"><a xlink:title=" ">
<path fill="none" stroke="#63b8ff" d="M561.56,-109.66C562.69,-92.17 565.24,-52.8 566.77,-29.27"/>
<polygon fill="#63b8ff" stroke="#63b8ff" points="570.27,-29.36 567.43,-19.16 563.29,-28.91 570.27,-29.36"/>
</a>
</g>
</g>
<!-- Node15 -->
<g id="Node000015" class="node">
<title>Node15</title>
<g id="a_Node000015"><a xlink:title=" ">
<polygon fill="#e0e0e0" stroke="#999999" points="532.99,-74 464.99,-74 464.99,-55 532.99,-55 532.99,-74"/>
<text text-anchor="middle" x="498.99" y="-62" font-family="Helvetica,sans-Serif" font-size="10.00">sys/time.h</text>
</a>
</g>
</g>
<!-- Node13&#45;&gt;Node15 -->
<g id="edge19_Node000013_Node000015" class="edge">
<title>Node13&#45;&gt;Node15</title>
<g id="a_edge19_Node000013_Node000015"><a xlink:title=" ">
<path fill="none" stroke="#63b8ff" d="M551.02,-109.98C541.86,-102.15 528.05,-90.34 516.96,-80.86"/>
<polygon fill="#63b8ff" stroke="#63b8ff" points="519,-78.01 509.13,-74.17 514.46,-83.33 519,-78.01"/>
</a>
</g>
</g>
<!-- Node16 -->
<g id="Node000016" class="node">
<title>Node16</title>
<g id="a_Node000016"><a xlink:href="minmea_8h.html" target="_top" xlink:title=" ">
<polygon fill="white" stroke="#666666" points="698.99,-74 588.99,-74 588.99,-55 698.99,-55 698.99,-74"/>
<text text-anchor="middle" x="643.99" y="-62" font-family="Helvetica,sans-Serif" font-size="10.00">minmea/minmea.h</text>
</a>
</g>
</g>
<!-- Node13&#45;&gt;Node16 -->
<g id="edge20_Node000013_Node000016" class="edge">
<title>Node13&#45;&gt;Node16</title>
<g id="a_edge20_Node000013_Node000016"><a xlink:title=" ">
<path fill="none" stroke="#63b8ff" d="M574.32,-109.98C587.07,-101.84 606.54,-89.41 621.66,-79.76"/>
<polygon fill="#63b8ff" stroke="#63b8ff" points="623.86,-82.5 630.41,-74.17 620.1,-76.6 623.86,-82.5"/>
</a>
</g>
</g>
<!-- Node21 -->
<g id="Node000021" class="node">
<title>Node21</title>
<g id="a_Node000021"><a xlink:href="Filesystem_8h.html" target="_top" xlink:title="Interfaccia per la gestione del filesystem FatFS e l&#39;integrazione USB Mass Storage.">
<polygon fill="white" stroke="#666666" points="446.49,-74 367.49,-74 367.49,-55 446.49,-55 446.49,-74"/>
<text text-anchor="middle" x="406.99" y="-62" font-family="Helvetica,sans-Serif" font-size="10.00">Filesystem.h</text>
</a>
</g>
</g>
<!-- Node13&#45;&gt;Node21 -->
<g id="edge28_Node000013_Node000021" class="edge">
<title>Node13&#45;&gt;Node21</title>
<g id="a_edge28_Node000013_Node000021"><a xlink:title=" ">
<path fill="none" stroke="#63b8ff" d="M539.25,-111.02C513.85,-102.28 471.49,-87.7 441.56,-77.4"/>
<polygon fill="#63b8ff" stroke="#63b8ff" points="442.53,-74.03 431.93,-74.08 440.25,-80.65 442.53,-74.03"/>
</a>
</g>
</g>
<!-- Node16&#45;&gt;Node14 -->
<g id="edge24_Node000016_Node000014" class="edge">
<title>Node16&#45;&gt;Node14</title>
<g id="a_edge24_Node000016_Node000014"><a xlink:title=" ">
<path fill="none" stroke="#63b8ff" d="M631.78,-54.98C620.21,-46.92 602.61,-34.65 588.83,-25.03"/>
<polygon fill="#63b8ff" stroke="#63b8ff" points="590.62,-22.02 580.42,-19.17 586.62,-27.76 590.62,-22.02"/>
</a>
</g>
</g>
<!-- Node17 -->
<g id="Node000017" class="node">
<title>Node17</title>
<g id="a_Node000017"><a xlink:title=" ">
<polygon fill="#e0e0e0" stroke="#999999" points="663.49,-19 610.49,-19 610.49,0 663.49,0 663.49,-19"/>
<text text-anchor="middle" x="636.99" y="-7" font-family="Helvetica,sans-Serif" font-size="10.00">ctype.h</text>
</a>
</g>
</g>
<!-- Node16&#45;&gt;Node17 -->
<g id="edge21_Node000016_Node000017" class="edge">
<title>Node16&#45;&gt;Node17</title>
<g id="a_edge21_Node000016_Node000017"><a xlink:title=" ">
<path fill="none" stroke="#63b8ff" d="M642.83,-54.75C641.91,-47.8 640.6,-37.85 639.45,-29.13"/>
<polygon fill="#63b8ff" stroke="#63b8ff" points="642.9,-28.54 638.12,-19.09 635.96,-29.46 642.9,-28.54"/>
</a>
</g>
</g>
<!-- Node18 -->
<g id="Node000018" class="node">
<title>Node18</title>
<g id="a_Node000018"><a xlink:title=" ">
<polygon fill="#e0e0e0" stroke="#999999" points="525.49,-19 472.49,-19 472.49,0 525.49,0 525.49,-19"/>
<text text-anchor="middle" x="498.99" y="-7" font-family="Helvetica,sans-Serif" font-size="10.00">stdint.h</text>
</a>
</g>
</g>
<!-- Node16&#45;&gt;Node18 -->
<g id="edge22_Node000016_Node000018" class="edge">
<title>Node16&#45;&gt;Node18</title>
<g id="a_edge22_Node000016_Node000018"><a xlink:title=" ">
<path fill="none" stroke="#63b8ff" d="M620.69,-54.98C596.73,-46.23 559.21,-32.51 532.15,-22.62"/>
<polygon fill="#63b8ff" stroke="#63b8ff" points="533.3,-19.32 522.71,-19.17 530.9,-25.89 533.3,-19.32"/>
</a>
</g>
</g>
<!-- Node19 -->
<g id="Node000019" class="node">
<title>Node19</title>
<g id="a_Node000019"><a xlink:title=" ">
<polygon fill="#e0e0e0" stroke="#999999" points="743.99,-19 681.99,-19 681.99,0 743.99,0 743.99,-19"/>
<text text-anchor="middle" x="712.99" y="-7" font-family="Helvetica,sans-Serif" font-size="10.00">stdbool.h</text>
</a>
</g>
</g>
<!-- Node16&#45;&gt;Node19 -->
<g id="edge23_Node000016_Node000019" class="edge">
<title>Node16&#45;&gt;Node19</title>
<g id="a_edge23_Node000016_Node000019"><a xlink:title=" ">
<path fill="none" stroke="#63b8ff" d="M655.07,-54.98C665.47,-47 681.25,-34.88 693.71,-25.31"/>
<polygon fill="#63b8ff" stroke="#63b8ff" points="695.9,-28.04 701.7,-19.17 691.64,-22.49 695.9,-28.04"/>
</a>
</g>
</g>
<!-- Node20 -->
<g id="Node000020" class="node">
<title>Node20</title>
<g id="a_Node000020"><a xlink:title=" ">
<polygon fill="#e0e0e0" stroke="#999999" points="813.49,-19 762.49,-19 762.49,0 813.49,0 813.49,-19"/>
<text text-anchor="middle" x="787.99" y="-7" font-family="Helvetica,sans-Serif" font-size="10.00">math.h</text>
</a>
</g>
</g>
<!-- Node16&#45;&gt;Node20 -->
<g id="edge25_Node000016_Node000020" class="edge">
<title>Node16&#45;&gt;Node20</title>
<g id="a_edge25_Node000016_Node000020"><a xlink:title=" ">
<path fill="none" stroke="#63b8ff" d="M667.12,-54.98C690.81,-46.27 727.86,-32.63 754.69,-22.75"/>
<polygon fill="#63b8ff" stroke="#63b8ff" points="756.25,-25.91 764.43,-19.17 753.84,-19.34 756.25,-25.91"/>
</a>
</g>
</g>
<!-- Node21&#45;&gt;Node18 -->
<g id="edge31_Node000021_Node000018" class="edge">
<title>Node21&#45;&gt;Node18</title>
<g id="a_edge31_Node000021_Node000018"><a xlink:title=" ">
<path fill="none" stroke="#63b8ff" d="M421.77,-54.98C436.17,-46.69 458.3,-33.94 475.18,-24.22"/>
<polygon fill="#63b8ff" stroke="#63b8ff" points="477.02,-27.19 483.94,-19.17 473.52,-21.13 477.02,-27.19"/>
</a>
</g>
</g>
<!-- Node22 -->
<g id="Node000022" class="node">
<title>Node22</title>
<g id="a_Node000022"><a xlink:title=" ">
<polygon fill="#e0e0e0" stroke="#999999" points="454.49,-19 403.49,-19 403.49,0 454.49,0 454.49,-19"/>
<text text-anchor="middle" x="428.99" y="-7" font-family="Helvetica,sans-Serif" font-size="10.00">FatFS.h</text>
</a>
</g>
</g>
<!-- Node21&#45;&gt;Node22 -->
<g id="edge29_Node000021_Node000022" class="edge">
<title>Node21&#45;&gt;Node22</title>
<g id="a_edge29_Node000021_Node000022"><a xlink:title=" ">
<path fill="none" stroke="#63b8ff" d="M410.62,-54.75C413.57,-47.65 417.82,-37.4 421.49,-28.56"/>
<polygon fill="#63b8ff" stroke="#63b8ff" points="424.82,-29.67 425.42,-19.09 418.35,-26.98 424.82,-29.67"/>
</a>
</g>
</g>
<!-- Node23 -->
<g id="Node000023" class="node">
<title>Node23</title>
<g id="a_Node000023"><a xlink:title=" ">
<polygon fill="#e0e0e0" stroke="#999999" points="322.49,-19 251.49,-19 251.49,0 322.49,0 322.49,-19"/>
<text text-anchor="middle" x="286.99" y="-7" font-family="Helvetica,sans-Serif" font-size="10.00">FatFSUSB.h</text>
</a>
</g>
</g>
<!-- Node21&#45;&gt;Node23 -->
<g id="edge30_Node000021_Node000023" class="edge">
<title>Node21&#45;&gt;Node23</title>
<g id="a_edge30_Node000021_Node000023"><a xlink:title=" ">
<path fill="none" stroke="#63b8ff" d="M387.71,-54.98C368.31,-46.42 338.18,-33.11 315.92,-23.28"/>
<polygon fill="#63b8ff" stroke="#63b8ff" points="317.18,-20.01 306.62,-19.17 314.35,-26.41 317.18,-20.01"/>
</a>
</g>
</g>
<!-- Node24 -->
<g id="Node000024" class="node">
<title>Node24</title>
<g id="a_Node000024"><a xlink:title=" ">
<polygon fill="#e0e0e0" stroke="#999999" points="384.99,-19 340.99,-19 340.99,0 384.99,0 384.99,-19"/>
<text text-anchor="middle" x="362.99" y="-7" font-family="Helvetica,sans-Serif" font-size="10.00">VFS.h</text>
</a>
</g>
</g>
<!-- Node21&#45;&gt;Node24 -->
<g id="edge32_Node000021_Node000024" class="edge">
<title>Node21&#45;&gt;Node24</title>
<g id="a_edge32_Node000021_Node000024"><a xlink:title=" ">
<path fill="none" stroke="#63b8ff" d="M399.72,-54.75C393.44,-47.18 384.2,-36.05 376.56,-26.84"/>
<polygon fill="#63b8ff" stroke="#63b8ff" points="379.2,-24.55 370.12,-19.09 373.81,-29.02 379.2,-24.55"/>
</a>
</g>
</g>
<!-- Node25&#45;&gt;Node3 -->
<g id="edge34_Node000025_Node000003" class="edge">
<title>Node25&#45;&gt;Node3</title>
<g id="a_edge34_Node000025_Node000003"><a xlink:title=" ">
<path fill="none" stroke="#63b8ff" d="M363.07,-109.75C355.21,-102.03 343.56,-90.6 334.07,-81.28"/>
<polygon fill="#63b8ff" stroke="#63b8ff" points="336.33,-78.6 326.74,-74.09 331.42,-83.59 336.33,-78.6"/>
</a>
</g>
</g>
</g>
</svg>
