<?xml version="1.0" encoding="UTF-8" standalone="no"?>
<!DOCTYPE svg PUBLIC "-//W3C//DTD SVG 1.1//EN"
 "http://www.w3.org/Graphics/SVG/1.1/DTD/svg11.dtd">
<!-- Generated by graphviz version 2.43.0 (0)
 -->
<!-- Title: firm/include/leds.h Pages: 1 -->
<svg width="381pt" height="192pt"
 viewBox="0.00 0.00 381.00 192.00" xmlns="http://www.w3.org/2000/svg" xmlns:xlink="http://www.w3.org/1999/xlink">

<svg id="main" version="1.1" xmlns="http://www.w3.org/2000/svg" xmlns:xlink="http://www.w3.org/1999/xlink" xml:space="preserve" onload="init(evt)">
<style type="text/css"><![CDATA[
.node, .edge {opacity: 0.7;}
.node.selected, .edge.selected {opacity: 1;}
.edge:hover path { stroke: red; }
.edge:hover polygon { stroke: red; fill: red; }
]]></style>
<script type="application/ecmascript" xlink:href="svg.min.js"/>
<svg id="graph" class="graph">
<g id="graph0" class="graph" transform="scale(1 1) rotate(0) translate(4 188)">
<title>firm/include/leds.h</title>
<!-- Node1 -->
<g id="Node000001" class="node">
<title>Node1</title>
<g id="a_Node000001"><a xlink:title="Definizioni hardware e prototipi per la gestione dei LED RGB.">
<polygon fill="#999999" stroke="#666666" points="191,-184 84,-184 84,-165 191,-165 191,-184"/>
<text text-anchor="middle" x="137.5" y="-172" font-family="Helvetica,sans-Serif" font-size="10.00">firm/include/leds.h</text>
</a>
</g>
</g>
<!-- Node2 -->
<g id="Node000002" class="node">
<title>Node2</title>
<g id="a_Node000002"><a xlink:href="buttons_8h.html" target="_top" xlink:title="Definizioni e prototipi per la gestione degli input utente e della UI.">
<polygon fill="white" stroke="#666666" points="244,-129 121,-129 121,-110 244,-110 244,-129"/>
<text text-anchor="middle" x="182.5" y="-117" font-family="Helvetica,sans-Serif" font-size="10.00">firm/include/buttons.h</text>
</a>
</g>
</g>
<!-- Node1&#45;&gt;Node2 -->
<g id="edge1_Node000001_Node000002" class="edge">
<title>Node1&#45;&gt;Node2</title>
<g id="a_edge1_Node000001_Node000002"><a xlink:title=" ">
<path fill="none" stroke="#63b8ff" d="M151.55,-156.96C159.39,-147.72 168.83,-136.6 175.21,-129.09"/>
<polygon fill="#63b8ff" stroke="#63b8ff" points="148.74,-154.86 144.93,-164.75 154.07,-159.39 148.74,-154.86"/>
</a>
</g>
</g>
<!-- Node3 -->
<g id="Node000003" class="node">
<title>Node3</title>
<g id="a_Node000003"><a xlink:href="display__ui_8h.html" target="_top" xlink:title="Definizioni hardware e prototipi per l&#39;interfaccia utente OLED.">
<polygon fill="white" stroke="#666666" points="250.5,-74 114.5,-74 114.5,-55 250.5,-55 250.5,-74"/>
<text text-anchor="middle" x="182.5" y="-62" font-family="Helvetica,sans-Serif" font-size="10.00">firm/include/display_ui.h</text>
</a>
</g>
</g>
<!-- Node1&#45;&gt;Node3 -->
<g id="edge9_Node000001_Node000003" class="edge">
<title>Node1&#45;&gt;Node3</title>
<g id="a_edge9_Node000001_Node000003"><a xlink:title=" ">
<path fill="none" stroke="#63b8ff" d="M123.06,-156.87C113.51,-143.75 104.16,-125.19 112.5,-110 122.07,-92.58 141.66,-81.01 157.69,-74.05"/>
<polygon fill="#63b8ff" stroke="#63b8ff" points="120.53,-159.31 129.48,-164.98 126.01,-154.97 120.53,-159.31"/>
</a>
</g>
</g>
<!-- Node4 -->
<g id="Node000004" class="node">
<title>Node4</title>
<g id="a_Node000004"><a xlink:href="buttons_8cpp_source.html" target="_top" xlink:title=" ">
<polygon fill="white" stroke="#666666" points="373,-19 260,-19 260,0 373,0 373,-19"/>
<text text-anchor="middle" x="316.5" y="-7" font-family="Helvetica,sans-Serif" font-size="10.00">firm/src/buttons.cpp</text>
</a>
</g>
</g>
<!-- Node1&#45;&gt;Node4 -->
<g id="edge10_Node000001_Node000004" class="edge">
<title>Node1&#45;&gt;Node4</title>
<g id="a_edge10_Node000001_Node000004"><a xlink:title=" ">
<path fill="none" stroke="#63b8ff" d="M189.73,-162.11C211.38,-155.34 235.57,-144.86 253.5,-129 289.1,-97.51 307.97,-40.96 314.16,-19.28"/>
<polygon fill="#63b8ff" stroke="#63b8ff" points="188.6,-158.79 179.99,-164.97 190.57,-165.51 188.6,-158.79"/>
</a>
</g>
</g>
<!-- Node6 -->
<g id="Node000006" class="node">
<title>Node6</title>
<g id="a_Node000006"><a xlink:href="leds_8cpp_source.html" target="_top" xlink:title=" ">
<polygon fill="white" stroke="#666666" points="97,-19 0,-19 0,0 97,0 97,-19"/>
<text text-anchor="middle" x="48.5" y="-7" font-family="Helvetica,sans-Serif" font-size="10.00">firm/src/leds.cpp</text>
</a>
</g>
</g>
<!-- Node1&#45;&gt;Node6 -->
<g id="edge11_Node000001_Node000006" class="edge">
<title>Node1&#45;&gt;Node6</title>
<g id="a_edge11_Node000001_Node000006"><a xlink:title=" ">
<path fill="none" stroke="#63b8ff" d="M124.07,-157.03C117.74,-148.86 110.31,-138.69 104.5,-129 80.99,-89.77 59.88,-39.09 51.89,-19.13"/>
<polygon fill="#63b8ff" stroke="#63b8ff" points="121.44,-159.34 130.4,-164.99 126.92,-154.98 121.44,-159.34"/>
</a>
</g>
</g>
<!-- Node2&#45;&gt;Node3 -->
<g id="edge2_Node000002_Node000003" class="edge">
<title>Node2&#45;&gt;Node3</title>
<g id="a_edge2_Node000002_Node000003"><a xlink:title=" ">
<path fill="none" stroke="#63b8ff" d="M176.01,-99.66C175.41,-90.93 175.86,-80.99 177.37,-74.09"/>
<polygon fill="#63b8ff" stroke="#63b8ff" points="172.56,-100.29 177.33,-109.75 179.5,-99.38 172.56,-100.29"/>
</a>
</g>
</g>
<!-- Node2&#45;&gt;Node4 -->
<g id="edge7_Node000002_Node000004" class="edge">
<title>Node2&#45;&gt;Node4</title>
<g id="a_edge7_Node000002_Node000004"><a xlink:title=" ">
<path fill="none" stroke="#63b8ff" d="M209.96,-105.34C225.29,-97.35 244.31,-86.33 259.5,-74 280.44,-57.01 300.41,-32.08 310.21,-19.09"/>
<polygon fill="#63b8ff" stroke="#63b8ff" points="208.29,-102.27 200.96,-109.91 211.46,-108.51 208.29,-102.27"/>
</a>
</g>
</g>
<!-- Node2&#45;&gt;Node6 -->
<g id="edge8_Node000002_Node000006" class="edge">
<title>Node2&#45;&gt;Node6</title>
<g id="a_edge8_Node000002_Node000006"><a xlink:title=" ">
<path fill="none" stroke="#63b8ff" d="M155.04,-105.34C139.71,-97.35 120.69,-86.33 105.5,-74 84.56,-57.01 64.59,-32.08 54.79,-19.09"/>
<polygon fill="#63b8ff" stroke="#63b8ff" points="153.54,-108.51 164.04,-109.91 156.71,-102.27 153.54,-108.51"/>
</a>
</g>
</g>
<!-- Node3&#45;&gt;Node2 -->
<g id="edge3_Node000003_Node000002" class="edge">
<title>Node3&#45;&gt;Node2</title>
<g id="a_edge3_Node000003_Node000002"><a xlink:title=" ">
<path fill="none" stroke="#63b8ff" d="M188.98,-84.13C189.6,-92.85 189.16,-102.8 187.67,-109.75"/>
<polygon fill="#63b8ff" stroke="#63b8ff" points="192.43,-83.53 187.63,-74.09 185.49,-84.47 192.43,-83.53"/>
</a>
</g>
</g>
<!-- Node3&#45;&gt;Node4 -->
<g id="edge4_Node000003_Node000004" class="edge">
<title>Node3&#45;&gt;Node4</title>
<g id="a_edge4_Node000003_Node000004"><a xlink:title=" ">
<path fill="none" stroke="#63b8ff" d="M213.37,-51.29C238.2,-41.47 272.49,-27.91 294.58,-19.17"/>
<polygon fill="#63b8ff" stroke="#63b8ff" points="212.04,-48.05 204.03,-54.98 214.62,-54.56 212.04,-48.05"/>
</a>
</g>
</g>
<!-- Node5 -->
<g id="Node000005" class="node">
<title>Node5</title>
<g id="a_Node000005"><a xlink:href="display__ui_8cpp_source.html" target="_top" xlink:title=" ">
<polygon fill="white" stroke="#666666" points="241.5,-19 115.5,-19 115.5,0 241.5,0 241.5,-19"/>
<text text-anchor="middle" x="178.5" y="-7" font-family="Helvetica,sans-Serif" font-size="10.00">firm/src/display_ui.cpp</text>
</a>
</g>
</g>
<!-- Node3&#45;&gt;Node5 -->
<g id="edge5_Node000003_Node000005" class="edge">
<title>Node3&#45;&gt;Node5</title>
<g id="a_edge5_Node000003_Node000005"><a xlink:title=" ">
<path fill="none" stroke="#63b8ff" d="M181.08,-44.66C180.42,-35.93 179.67,-25.99 179.15,-19.09"/>
<polygon fill="#63b8ff" stroke="#63b8ff" points="177.6,-45.04 181.84,-54.75 184.58,-44.51 177.6,-45.04"/>
</a>
</g>
</g>
<!-- Node3&#45;&gt;Node6 -->
<g id="edge6_Node000003_Node000006" class="edge">
<title>Node3&#45;&gt;Node6</title>
<g id="a_edge6_Node000003_Node000006"><a xlink:title=" ">
<path fill="none" stroke="#63b8ff" d="M151.63,-51.29C126.8,-41.47 92.51,-27.91 70.42,-19.17"/>
<polygon fill="#63b8ff" stroke="#63b8ff" points="150.38,-54.56 160.97,-54.98 152.96,-48.05 150.38,-54.56"/>
</a>
</g>
</g>
</g>
</svg>
</svg>

<style type='text/css'>
<![CDATA[
[data-mouse-over-selected='false'] { opacity: 0.7; }
[data-mouse-over-selected='true']  { opacity: 1.0; }
]]>
</style>
<script type="application/ecmascript"><![CDATA[
document.addEventListener('DOMContentLoaded', (event) => {
  highlightEdges();
  highlightAdjacentNodes();
});
]]></script>
</svg>
