<?xml version="1.0" encoding="UTF-8" standalone="no"?>
<!DOCTYPE svg PUBLIC "-//W3C//DTD SVG 1.1//EN"
 "http://www.w3.org/Graphics/SVG/1.1/DTD/svg11.dtd">
<!-- Generated by graphviz version 2.43.0 (0)
 -->
<!-- Title: setup Pages: 1 -->
<svg width="542pt" height="212pt"
 viewBox="0.00 0.00 542.00 212.00" xmlns="http://www.w3.org/2000/svg" xmlns:xlink="http://www.w3.org/1999/xlink">
<g id="graph0" class="graph" transform="scale(1 1) rotate(0) translate(4 208)">
<title>setup</title>
<!-- Node1 -->
<g id="Node000001" class="node">
<title>Node1</title>
<g id="a_Node000001"><a xlink:title="Configurazione iniziale per il Core 0.">
<polygon fill="#999999" stroke="#666666" points="44,-111 0,-111 0,-92 44,-92 44,-111"/>
<text text-anchor="middle" x="22" y="-99" font-family="Helvetica,sans-Serif" font-size="10.00">setup</text>
</a>
</g>
</g>
<!-- Node2 -->
<g id="Node000002" class="node">
<title>Node2</title>
<g id="a_Node000002"><a xlink:href="buttons_8cpp.html#a6d3fe55c02bba21088185ebbf7768240" target="_top" xlink:title="Inizializza i pin dei pulsanti e configura gli interrupt.">
<polygon fill="white" stroke="#666666" points="179,-204 110,-204 110,-185 179,-185 179,-204"/>
<text text-anchor="middle" x="144.5" y="-192" font-family="Helvetica,sans-Serif" font-size="10.00">buttonsInit</text>
</a>
</g>
</g>
<!-- Node1&#45;&gt;Node2 -->
<g id="edge1_Node000001_Node000002" class="edge">
<title>Node1&#45;&gt;Node2</title>
<g id="a_edge1_Node000001_Node000002"><a xlink:title=" ">
<path fill="none" stroke="#63b8ff" d="M27.88,-111.24C36.32,-127.09 55.15,-158.4 80,-175.5 86.06,-179.67 93.06,-182.94 100.14,-185.51"/>
<polygon fill="#63b8ff" stroke="#63b8ff" points="99.18,-188.87 109.78,-188.58 101.31,-182.2 99.18,-188.87"/>
</a>
</g>
</g>
<!-- Node5 -->
<g id="Node000005" class="node">
<title>Node5</title>
<g id="a_Node000005"><a xlink:href="display__ui_8cpp.html#ad84e2073edf05b4e109ecaecca07a99d" target="_top" xlink:title="Inizializza l&#39;hardware del display e il bus I2C.">
<polygon fill="white" stroke="#666666" points="178.5,-167 110.5,-167 110.5,-148 178.5,-148 178.5,-167"/>
<text text-anchor="middle" x="144.5" y="-155" font-family="Helvetica,sans-Serif" font-size="10.00">displayInit</text>
</a>
</g>
</g>
<!-- Node1&#45;&gt;Node5 -->
<g id="edge4_Node000001_Node000005" class="edge">
<title>Node1&#45;&gt;Node5</title>
<g id="a_edge4_Node000001_Node000005"><a xlink:title=" ">
<path fill="none" stroke="#63b8ff" d="M35.52,-111.13C46.68,-119.34 63.72,-130.97 80,-138.5 86.39,-141.45 93.34,-144.08 100.23,-146.37"/>
<polygon fill="#63b8ff" stroke="#63b8ff" points="99.62,-149.84 110.21,-149.47 101.7,-143.16 99.62,-149.84"/>
</a>
</g>
</g>
<!-- Node7 -->
<g id="Node000007" class="node">
<title>Node7</title>
<g id="a_Node000007"><a xlink:href="display__ui_8cpp.html#a1946154d8e9e6dd415476d3378b98ff1" target="_top" xlink:title="Disegna la schermata principale (Ambient Display). Mostra i dati meteo correnti, l&#39;ora e la data recu...">
<polygon fill="white" stroke="#666666" points="196,-130 93,-130 93,-111 196,-111 196,-130"/>
<text text-anchor="middle" x="144.5" y="-118" font-family="Helvetica,sans-Serif" font-size="10.00">drawHomeScreen</text>
</a>
</g>
</g>
<!-- Node1&#45;&gt;Node7 -->
<g id="edge6_Node000001_Node000007" class="edge">
<title>Node1&#45;&gt;Node7</title>
<g id="a_edge6_Node000001_Node000007"><a xlink:title=" ">
<path fill="none" stroke="#63b8ff" d="M44.27,-104.85C55.14,-106.57 68.98,-108.75 82.85,-110.94"/>
<polygon fill="#63b8ff" stroke="#63b8ff" points="82.49,-114.42 92.92,-112.52 83.58,-107.51 82.49,-114.42"/>
</a>
</g>
</g>
<!-- Node9 -->
<g id="Node000009" class="node">
<title>Node9</title>
<g id="a_Node000009"><a xlink:href="leds_8cpp.html#aadcaa5aaa722b9e5699f50c6d9ca7bfe" target="_top" xlink:title="Inizializza l&#39;hardware dei LED.">
<polygon fill="white" stroke="#666666" points="171,-93 118,-93 118,-74 171,-74 171,-93"/>
<text text-anchor="middle" x="144.5" y="-81" font-family="Helvetica,sans-Serif" font-size="10.00">ledsInit</text>
</a>
</g>
</g>
<!-- Node1&#45;&gt;Node9 -->
<g id="edge9_Node000001_Node000009" class="edge">
<title>Node1&#45;&gt;Node9</title>
<g id="a_edge9_Node000001_Node000009"><a xlink:title=" ">
<path fill="none" stroke="#63b8ff" d="M44.27,-98.32C61.84,-95.7 87.16,-91.92 107.83,-88.83"/>
<polygon fill="#63b8ff" stroke="#63b8ff" points="108.47,-92.27 117.84,-87.33 107.44,-85.35 108.47,-92.27"/>
</a>
</g>
</g>
<!-- Node10 -->
<g id="Node000010" class="node">
<title>Node10</title>
<g id="a_Node000010"><a xlink:href="leds_8cpp.html#a6adf4836bb1cbe26b640aeb5a177071d" target="_top" xlink:title="Esegue l&#39;animazione di avvio del sistema.">
<polygon fill="white" stroke="#666666" points="209,-56 80,-56 80,-37 209,-37 209,-56"/>
<text text-anchor="middle" x="144.5" y="-44" font-family="Helvetica,sans-Serif" font-size="10.00">ledsShowInitAnimation</text>
</a>
</g>
</g>
<!-- Node1&#45;&gt;Node10 -->
<g id="edge10_Node000001_Node000010" class="edge">
<title>Node1&#45;&gt;Node10</title>
<g id="a_edge10_Node000001_Node000010"><a xlink:title=" ">
<path fill="none" stroke="#63b8ff" d="M35.49,-91.81C46.64,-83.56 63.67,-71.91 80,-64.5 84.16,-62.61 88.57,-60.87 93.04,-59.29"/>
<polygon fill="#63b8ff" stroke="#63b8ff" points="94.47,-62.5 102.88,-56.05 92.28,-55.85 94.47,-62.5"/>
</a>
</g>
</g>
<!-- Node11 -->
<g id="Node000011" class="node">
<title>Node11</title>
<g id="a_Node000011"><a xlink:href="temp_8cpp.html#a58739d6d0d1d87e784cc1a5482ea13a6" target="_top" xlink:title="Inizializza l&#39;hardware dell&#39;ADC per la lettura termica.">
<polygon fill="white" stroke="#666666" points="174,-19 115,-19 115,0 174,0 174,-19"/>
<text text-anchor="middle" x="144.5" y="-7" font-family="Helvetica,sans-Serif" font-size="10.00">TempInit</text>
</a>
</g>
</g>
<!-- Node1&#45;&gt;Node11 -->
<g id="edge11_Node000001_Node000011" class="edge">
<title>Node1&#45;&gt;Node11</title>
<g id="a_edge11_Node000001_Node000011"><a xlink:title=" ">
<path fill="none" stroke="#63b8ff" d="M27.72,-91.98C36.05,-76.15 54.89,-44.51 80,-27.5 87.51,-22.41 96.46,-18.75 105.22,-16.12"/>
<polygon fill="#63b8ff" stroke="#63b8ff" points="106.18,-19.48 114.96,-13.56 104.4,-12.71 106.18,-19.48"/>
</a>
</g>
</g>
<!-- Node3 -->
<g id="Node000003" class="node">
<title>Node3</title>
<g id="a_Node000003"><a xlink:href="buttons_8cpp.html#a7f6538b252b233c2a00eeabf455b6ac8" target="_top" xlink:title="Handler degli interrupt GPIO per i pulsanti.">
<polygon fill="white" stroke="#666666" points="358,-204 275,-204 275,-185 358,-185 358,-204"/>
<text text-anchor="middle" x="316.5" y="-192" font-family="Helvetica,sans-Serif" font-size="10.00">gpio_callback</text>
</a>
</g>
</g>
<!-- Node2&#45;&gt;Node3 -->
<g id="edge2_Node000002_Node000003" class="edge">
<title>Node2&#45;&gt;Node3</title>
<g id="a_edge2_Node000002_Node000003"><a xlink:title=" ">
<path fill="none" stroke="#63b8ff" d="M179.09,-194.5C203.45,-194.5 236.85,-194.5 264.5,-194.5"/>
<polygon fill="#63b8ff" stroke="#63b8ff" points="264.79,-198 274.79,-194.5 264.79,-191 264.79,-198"/>
</a>
</g>
</g>
<!-- Node4 -->
<g id="Node000004" class="node">
<title>Node4</title>
<g id="a_Node000004"><a xlink:href="buttons_8cpp.html#a5efcf76744c2885d8d1fd0ce223a5e2d" target="_top" xlink:title="Callback dell&#39;allarme per il filtraggio software del debounce.">
<polygon fill="white" stroke="#666666" points="534,-204 424,-204 424,-185 534,-185 534,-204"/>
<text text-anchor="middle" x="479" y="-192" font-family="Helvetica,sans-Serif" font-size="10.00">debounce_callback</text>
</a>
</g>
</g>
<!-- Node3&#45;&gt;Node4 -->
<g id="edge3_Node000003_Node000004" class="edge">
<title>Node3&#45;&gt;Node4</title>
<g id="a_edge3_Node000003_Node000004"><a xlink:title=" ">
<path fill="none" stroke="#63b8ff" d="M358,-194.5C374.93,-194.5 395,-194.5 413.85,-194.5"/>
<polygon fill="#63b8ff" stroke="#63b8ff" points="413.86,-198 423.86,-194.5 413.86,-191 413.86,-198"/>
</a>
</g>
</g>
<!-- Node6 -->
<g id="Node000006" class="node">
<title>Node6</title>
<g id="a_Node000006"><a xlink:href="display__ui_8cpp.html#ab460e1bb5537313cb79cfffa7e93c58b" target="_top" xlink:title="Istanza del driver del display SSD1306.">
<polygon fill="white" stroke="#666666" points="342.5,-167 290.5,-167 290.5,-148 342.5,-148 342.5,-167"/>
<text text-anchor="middle" x="316.5" y="-155" font-family="Helvetica,sans-Serif" font-size="10.00">display</text>
</a>
</g>
</g>
<!-- Node5&#45;&gt;Node6 -->
<g id="edge5_Node000005_Node000006" class="edge">
<title>Node5&#45;&gt;Node6</title>
<g id="a_edge5_Node000005_Node000006"><a xlink:title=" ">
<path fill="none" stroke="#63b8ff" d="M178.68,-157.5C207.86,-157.5 250.2,-157.5 280.03,-157.5"/>
<polygon fill="#63b8ff" stroke="#63b8ff" points="280.41,-161 290.41,-157.5 280.41,-154 280.41,-161"/>
</a>
</g>
</g>
<!-- Node7&#45;&gt;Node6 -->
<g id="edge7_Node000007_Node000006" class="edge">
<title>Node7&#45;&gt;Node6</title>
<g id="a_edge7_Node000007_Node000006"><a xlink:title=" ">
<path fill="none" stroke="#63b8ff" d="M189.28,-130.03C217.59,-136.19 253.96,-144.11 280.37,-149.86"/>
<polygon fill="#63b8ff" stroke="#63b8ff" points="279.81,-153.31 290.33,-152.02 281.3,-146.47 279.81,-153.31"/>
</a>
</g>
</g>
<!-- Node8 -->
<g id="Node000008" class="node">
<title>Node8</title>
<g id="a_Node000008"><a xlink:href="weather_8cpp.html#a8e2b5c9b7658529d8dae9d6ea9d56de7" target="_top" xlink:title="Converte il codice WMO in una descrizione testuale breve.">
<polygon fill="white" stroke="#666666" points="388,-130 245,-130 245,-111 388,-111 388,-130"/>
<text text-anchor="middle" x="316.5" y="-118" font-family="Helvetica,sans-Serif" font-size="10.00">Weather_CodeToShortText</text>
</a>
</g>
</g>
<!-- Node7&#45;&gt;Node8 -->
<g id="edge8_Node000007_Node000008" class="edge">
<title>Node7&#45;&gt;Node8</title>
<g id="a_edge8_Node000007_Node000008"><a xlink:title=" ">
<path fill="none" stroke="#63b8ff" d="M196.05,-120.5C208.21,-120.5 221.51,-120.5 234.68,-120.5"/>
<polygon fill="#63b8ff" stroke="#63b8ff" points="234.7,-124 244.7,-120.5 234.7,-117 234.7,-124"/>
</a>
</g>
</g>
</g>
</svg>
