<?xml version="1.0" encoding="UTF-8" standalone="no"?>
<!DOCTYPE svg PUBLIC "-//W3C//DTD SVG 1.1//EN"
 "http://www.w3.org/Graphics/SVG/1.1/DTD/svg11.dtd">
<!-- Generated by graphviz version 2.43.0 (0)
 -->
<!-- Title: loop Pages: 1 -->
<svg width="918pt" height="413pt"
 viewBox="0.00 0.00 918.00 413.00" xmlns="http://www.w3.org/2000/svg" xmlns:xlink="http://www.w3.org/1999/xlink">
<g id="graph0" class="graph" transform="scale(1 1) rotate(0) translate(4 409)">
<title>loop</title>
<!-- Node1 -->
<g id="Node000001" class="node">
<title>Node1</title>
<g id="a_Node000001"><a xlink:title=" ">
<polygon fill="#999999" stroke="#666666" points="38,-123 0,-123 0,-104 38,-104 38,-123"/>
<text text-anchor="middle" x="19" y="-111" font-family="Helvetica,sans-Serif" font-size="10.00">loop</text>
</a>
</g>
</g>
<!-- Node2 -->
<g id="Node000002" class="node">
<title>Node2</title>
<g id="a_Node000002"><a xlink:href="buttons_8cpp.html#a362a9b2582e0724627b8cd9f2e16f599" target="_top" xlink:title=" ">
<polygon fill="white" stroke="#666666" points="163,-198 74,-198 74,-179 163,-179 163,-198"/>
<text text-anchor="middle" x="118.5" y="-186" font-family="Helvetica,sans-Serif" font-size="10.00">buttonsUpdate</text>
</a>
</g>
</g>
<!-- Node1&#45;&gt;Node2 -->
<g id="edge1_Node000001_Node000002" class="edge">
<title>Node1&#45;&gt;Node2</title>
<g id="a_edge1_Node000001_Node000002"><a xlink:title=" ">
<path fill="none" stroke="#63b8ff" d="M32.75,-123.3C49.11,-135.89 77.71,-157.9 97.12,-172.82"/>
<polygon fill="#63b8ff" stroke="#63b8ff" points="95,-175.61 105.06,-178.93 99.27,-170.06 95,-175.61"/>
</a>
</g>
</g>
<!-- Node21 -->
<g id="Node000021" class="node">
<title>Node21</title>
<g id="a_Node000021"><a xlink:href="gps_8cpp.html#aab2203af6c50eafde7df9509bc632fa6" target="_top" xlink:title=" ">
<polygon fill="white" stroke="#666666" points="312,-29 226,-29 226,-10 312,-10 312,-29"/>
<text text-anchor="middle" x="269" y="-17" font-family="Helvetica,sans-Serif" font-size="10.00">save_gps_last</text>
</a>
</g>
</g>
<!-- Node1&#45;&gt;Node21 -->
<g id="edge34_Node000001_Node000021" class="edge">
<title>Node1&#45;&gt;Node21</title>
<g id="a_edge34_Node000001_Node000021"><a xlink:title=" ">
<path fill="none" stroke="#63b8ff" d="M38.21,-104.72C70.18,-89.53 138.76,-58.02 199,-37.5 204.92,-35.48 211.19,-33.56 217.45,-31.77"/>
<polygon fill="#63b8ff" stroke="#63b8ff" points="218.5,-35.12 227.21,-29.09 216.64,-28.37 218.5,-35.12"/>
</a>
</g>
</g>
<!-- Node3 -->
<g id="Node000003" class="node">
<title>Node3</title>
<g id="a_Node000003"><a xlink:href="buttons_8cpp.html#a668c3b350a802edf187d6c97a61b4358" target="_top" xlink:title=" ">
<polygon fill="white" stroke="#666666" points="330.5,-217 207.5,-217 207.5,-198 330.5,-198 330.5,-217"/>
<text text-anchor="middle" x="269" y="-205" font-family="Helvetica,sans-Serif" font-size="10.00">checkLeftRightCombo</text>
</a>
</g>
</g>
<!-- Node2&#45;&gt;Node3 -->
<g id="edge2_Node000002_Node000003" class="edge">
<title>Node2&#45;&gt;Node3</title>
<g id="a_edge2_Node000002_Node000003"><a xlink:title=" ">
<path fill="none" stroke="#63b8ff" d="M163.25,-194.1C173.91,-195.46 185.57,-196.95 197.13,-198.43"/>
<polygon fill="#63b8ff" stroke="#63b8ff" points="196.87,-201.93 207.23,-199.72 197.76,-194.98 196.87,-201.93"/>
</a>
</g>
</g>
<!-- Node5 -->
<g id="Node000005" class="node">
<title>Node5</title>
<g id="a_Node000005"><a xlink:href="display__ui_8cpp.html#a1946154d8e9e6dd415476d3378b98ff1" target="_top" xlink:title=" ">
<polygon fill="white" stroke="#666666" points="635,-255 532,-255 532,-236 635,-236 635,-255"/>
<text text-anchor="middle" x="583.5" y="-243" font-family="Helvetica,sans-Serif" font-size="10.00">drawHomeScreen</text>
</a>
</g>
</g>
<!-- Node2&#45;&gt;Node5 -->
<g id="edge15_Node000002_Node000005" class="edge">
<title>Node2&#45;&gt;Node5</title>
<g id="a_edge15_Node000002_Node000005"><a xlink:title=" ">
<path fill="none" stroke="#63b8ff" d="M134.94,-198.16C150.46,-207.32 175.42,-220.54 199,-226.5 310.1,-254.6 444.93,-253.53 521.52,-249.79"/>
<polygon fill="#63b8ff" stroke="#63b8ff" points="522.12,-253.26 531.93,-249.25 521.76,-246.27 522.12,-253.26"/>
</a>
</g>
</g>
<!-- Node8 -->
<g id="Node000008" class="node">
<title>Node8</title>
<g id="a_Node000008"><a xlink:href="display__ui_8cpp.html#a0cc779d48595c7be531222945c8a5f10" target="_top" xlink:title=" ">
<polygon fill="white" stroke="#666666" points="617.5,-114 549.5,-114 549.5,-95 617.5,-95 617.5,-114"/>
<text text-anchor="middle" x="583.5" y="-102" font-family="Helvetica,sans-Serif" font-size="10.00">drawMenu</text>
</a>
</g>
</g>
<!-- Node2&#45;&gt;Node8 -->
<g id="edge19_Node000002_Node000008" class="edge">
<title>Node2&#45;&gt;Node8</title>
<g id="a_edge19_Node000002_Node000008"><a xlink:title=" ">
<path fill="none" stroke="#63b8ff" d="M163.06,-180.6C251.51,-164.55 451.25,-128.31 539.36,-112.33"/>
<polygon fill="#63b8ff" stroke="#63b8ff" points="540.07,-115.76 549.28,-110.53 538.82,-108.87 540.07,-115.76"/>
</a>
</g>
</g>
<!-- Node11 -->
<g id="Node000011" class="node">
<title>Node11</title>
<g id="a_Node000011"><a xlink:href="display__ui_8cpp.html#ab67f2470dd94c5b293ea60d38b9fae8e" target="_top" xlink:title=" ">
<polygon fill="white" stroke="#666666" points="315.5,-103 222.5,-103 222.5,-84 315.5,-84 315.5,-103"/>
<text text-anchor="middle" x="269" y="-91" font-family="Helvetica,sans-Serif" font-size="10.00">drawGPSScreen</text>
</a>
</g>
</g>
<!-- Node2&#45;&gt;Node11 -->
<g id="edge12_Node000002_Node000011" class="edge">
<title>Node2&#45;&gt;Node11</title>
<g id="a_edge12_Node000002_Node000011"><a xlink:title=" ">
<path fill="none" stroke="#63b8ff" d="M127.86,-178.91C141.42,-163.89 169.65,-134.77 199,-117.5 206.31,-113.2 214.5,-109.51 222.62,-106.4"/>
<polygon fill="#63b8ff" stroke="#63b8ff" points="223.83,-109.69 232.07,-103.02 221.47,-103.1 223.83,-109.69"/>
</a>
</g>
</g>
<!-- Node13 -->
<g id="Node000013" class="node">
<title>Node13</title>
<g id="a_Node000013"><a xlink:href="display__ui_8cpp.html#a863fa83c4f8c55f3d65de3d448e88467" target="_top" xlink:title=" ">
<polygon fill="white" stroke="#666666" points="315,-331 223,-331 223,-312 315,-312 315,-331"/>
<text text-anchor="middle" x="269" y="-319" font-family="Helvetica,sans-Serif" font-size="10.00">drawInfoScreen</text>
</a>
</g>
</g>
<!-- Node2&#45;&gt;Node13 -->
<g id="edge16_Node000002_Node000013" class="edge">
<title>Node2&#45;&gt;Node13</title>
<g id="a_edge16_Node000002_Node000013"><a xlink:title=" ">
<path fill="none" stroke="#63b8ff" d="M124,-198.18C134.28,-219.28 161.55,-269.75 199,-297.5 204.61,-301.66 211.01,-305.14 217.59,-308.04"/>
<polygon fill="#63b8ff" stroke="#63b8ff" points="216.7,-311.46 227.28,-311.89 219.28,-304.95 216.7,-311.46"/>
</a>
</g>
</g>
<!-- Node15 -->
<g id="Node000015" class="node">
<title>Node15</title>
<g id="a_Node000015"><a xlink:href="display__ui_8cpp.html#ae8a9d818fdd539d4b669b43222987fc7" target="_top" xlink:title=" ">
<polygon fill="white" stroke="#666666" points="635.5,-180 531.5,-180 531.5,-161 635.5,-161 635.5,-180"/>
<text text-anchor="middle" x="583.5" y="-168" font-family="Helvetica,sans-Serif" font-size="10.00">drawMeteoScreen</text>
</a>
</g>
</g>
<!-- Node2&#45;&gt;Node15 -->
<g id="edge20_Node000002_Node000015" class="edge">
<title>Node2&#45;&gt;Node15</title>
<g id="a_edge20_Node000002_Node000015"><a xlink:title=" ">
<path fill="none" stroke="#63b8ff" d="M163.06,-186.81C245.92,-183.59 426.43,-176.57 521.35,-172.88"/>
<polygon fill="#63b8ff" stroke="#63b8ff" points="521.52,-176.37 531.38,-172.49 521.25,-169.38 521.52,-176.37"/>
</a>
</g>
</g>
<!-- Node18 -->
<g id="Node000018" class="node">
<title>Node18</title>
<g id="a_Node000018"><a xlink:href="display__ui_8cpp.html#a14c5649f6c7cf2ce771664a9d9fb7490" target="_top" xlink:title=" ">
<polygon fill="white" stroke="#666666" points="488,-312 375,-312 375,-293 488,-293 488,-312"/>
<text text-anchor="middle" x="431.5" y="-300" font-family="Helvetica,sans-Serif" font-size="10.00">drawSettingsScreen</text>
</a>
</g>
</g>
<!-- Node2&#45;&gt;Node18 -->
<g id="edge25_Node000002_Node000018" class="edge">
<title>Node2&#45;&gt;Node18</title>
<g id="a_edge25_Node000002_Node000018"><a xlink:title=" ">
<path fill="none" stroke="#63b8ff" d="M127.15,-198.12C140.14,-213.73 168.1,-244.33 199,-259.5 251.07,-285.06 316.55,-295.5 364.57,-299.72"/>
<polygon fill="#63b8ff" stroke="#63b8ff" points="364.29,-303.21 374.54,-300.53 364.86,-296.23 364.29,-303.21"/>
</a>
</g>
</g>
<!-- Node19 -->
<g id="Node000019" class="node">
<title>Node19</title>
<g id="a_Node000019"><a xlink:href="display__ui_8cpp.html#a373a756ed10c316c735042c6aa4807cc" target="_top" xlink:title=" ">
<polygon fill="white" stroke="#666666" points="324,-368 214,-368 214,-349 324,-349 324,-368"/>
<text text-anchor="middle" x="269" y="-356" font-family="Helvetica,sans-Serif" font-size="10.00">drawSystemScreen</text>
</a>
</g>
</g>
<!-- Node2&#45;&gt;Node19 -->
<g id="edge27_Node000002_Node000019" class="edge">
<title>Node2&#45;&gt;Node19</title>
<g id="a_edge27_Node000002_Node000019"><a xlink:title=" ">
<path fill="none" stroke="#63b8ff" d="M121.63,-198.07C128.13,-224.96 150.29,-301.75 199,-340.5 200.81,-341.94 202.72,-343.27 204.72,-344.49"/>
<polygon fill="#63b8ff" stroke="#63b8ff" points="203.38,-347.74 213.88,-349.19 206.58,-341.51 203.38,-347.74"/>
</a>
</g>
</g>
<!-- Node20 -->
<g id="Node000020" class="node">
<title>Node20</title>
<g id="a_Node000020"><a xlink:href="leds_8cpp.html#a9c4cbf122cf8fe3ce3a4e9913c366bda" target="_top" xlink:title=" ">
<polygon fill="white" stroke="#666666" points="339,-405 199,-405 199,-386 339,-386 339,-405"/>
<text text-anchor="middle" x="269" y="-393" font-family="Helvetica,sans-Serif" font-size="10.00">ledsNavigationAnimation</text>
</a>
</g>
</g>
<!-- Node2&#45;&gt;Node20 -->
<g id="edge29_Node000002_Node000020" class="edge">
<title>Node2&#45;&gt;Node20</title>
<g id="a_edge29_Node000002_Node000020"><a xlink:title=" ">
<path fill="none" stroke="#63b8ff" d="M120.57,-198.06C124.55,-229.06 141.42,-327.62 199,-377.5 200.35,-378.67 201.77,-379.77 203.24,-380.79"/>
<polygon fill="#63b8ff" stroke="#63b8ff" points="201.79,-383.99 212.2,-385.93 205.27,-377.92 201.79,-383.99"/>
</a>
</g>
</g>
<!-- Node2&#45;&gt;Node21 -->
<g id="edge30_Node000002_Node000021" class="edge">
<title>Node2&#45;&gt;Node21</title>
<g id="a_edge30_Node000002_Node000021"><a xlink:title=" ">
<path fill="none" stroke="#63b8ff" d="M124.81,-178.94C133.1,-163.99 149.55,-134.11 163,-108.5 179.45,-77.18 171.45,-59.7 199,-37.5 204.06,-33.42 209.95,-30.26 216.11,-27.81"/>
<polygon fill="#63b8ff" stroke="#63b8ff" points="217.57,-31.01 225.94,-24.51 215.34,-24.37 217.57,-31.01"/>
</a>
</g>
</g>
<!-- Node22 -->
<g id="Node000022" class="node">
<title>Node22</title>
<g id="a_Node000022"><a xlink:href="gps_8cpp.html#a0d11d3ae385799665b8808639a2d3725" target="_top" xlink:title=" ">
<polygon fill="white" stroke="#666666" points="316.5,-66 221.5,-66 221.5,-47 316.5,-47 316.5,-66"/>
<text text-anchor="middle" x="269" y="-54" font-family="Helvetica,sans-Serif" font-size="10.00">save_gps_log20</text>
</a>
</g>
</g>
<!-- Node2&#45;&gt;Node22 -->
<g id="edge32_Node000002_Node000022" class="edge">
<title>Node2&#45;&gt;Node22</title>
<g id="a_edge32_Node000002_Node000022"><a xlink:title=" ">
<path fill="none" stroke="#63b8ff" d="M123.42,-178.81C132.89,-156.69 159.21,-102.22 199,-74.5 202.98,-71.73 207.36,-69.38 211.92,-67.4"/>
<polygon fill="#63b8ff" stroke="#63b8ff" points="213.34,-70.6 221.47,-63.81 210.88,-64.05 213.34,-70.6"/>
</a>
</g>
</g>
<!-- Node4 -->
<g id="Node000004" class="node">
<title>Node4</title>
<g id="a_Node000004"><a xlink:href="buttons_8cpp.html#a476aa2a0a9fd2be3bedddd06747816c4" target="_top" xlink:title=" ">
<polygon fill="white" stroke="#666666" points="485,-217 378,-217 378,-198 485,-198 485,-217"/>
<text text-anchor="middle" x="431.5" y="-205" font-family="Helvetica,sans-Serif" font-size="10.00">onLeftRightCombo</text>
</a>
</g>
</g>
<!-- Node3&#45;&gt;Node4 -->
<g id="edge3_Node000003_Node000004" class="edge">
<title>Node3&#45;&gt;Node4</title>
<g id="a_edge3_Node000003_Node000004"><a xlink:title=" ">
<path fill="none" stroke="#63b8ff" d="M330.68,-207.5C342.81,-207.5 355.59,-207.5 367.79,-207.5"/>
<polygon fill="#63b8ff" stroke="#63b8ff" points="367.88,-211 377.88,-207.5 367.88,-204 367.88,-211"/>
</a>
</g>
</g>
<!-- Node4&#45;&gt;Node5 -->
<g id="edge4_Node000004_Node000005" class="edge">
<title>Node4&#45;&gt;Node5</title>
<g id="a_edge4_Node000004_Node000005"><a xlink:title=" ">
<path fill="none" stroke="#63b8ff" d="M470.35,-217.09C489.97,-222.06 514.12,-228.18 534.98,-233.46"/>
<polygon fill="#63b8ff" stroke="#63b8ff" points="534.37,-236.92 544.92,-235.98 536.09,-230.13 534.37,-236.92"/>
</a>
</g>
</g>
<!-- Node4&#45;&gt;Node8 -->
<g id="edge7_Node000004_Node000008" class="edge">
<title>Node4&#45;&gt;Node8</title>
<g id="a_edge7_Node000004_Node000008"><a xlink:title=" ">
<path fill="none" stroke="#63b8ff" d="M446.34,-197.99C472.22,-180.23 528.15,-141.82 559.68,-120.17"/>
<polygon fill="#63b8ff" stroke="#63b8ff" points="561.99,-122.83 568.25,-114.28 558.03,-117.06 561.99,-122.83"/>
</a>
</g>
</g>
<!-- Node10 -->
<g id="Node000010" class="node">
<title>Node10</title>
<g id="a_Node000010"><a xlink:href="leds_8cpp.html#a20b9a2822d58fc522e9aef69e6e52cbe" target="_top" xlink:title=" ">
<polygon fill="white" stroke="#666666" points="643,-217 524,-217 524,-198 643,-198 643,-217"/>
<text text-anchor="middle" x="583.5" y="-205" font-family="Helvetica,sans-Serif" font-size="10.00">ledsToggleAnimation</text>
</a>
</g>
</g>
<!-- Node4&#45;&gt;Node10 -->
<g id="edge11_Node000004_Node000010" class="edge">
<title>Node4&#45;&gt;Node10</title>
<g id="a_edge11_Node000004_Node000010"><a xlink:title=" ">
<path fill="none" stroke="#63b8ff" d="M485.38,-207.5C494.55,-207.5 504.2,-207.5 513.72,-207.5"/>
<polygon fill="#63b8ff" stroke="#63b8ff" points="513.97,-211 523.97,-207.5 513.97,-204 513.97,-211"/>
</a>
</g>
</g>
<!-- Node6 -->
<g id="Node000006" class="node">
<title>Node6</title>
<g id="a_Node000006"><a xlink:href="display__ui_8cpp.html#ab460e1bb5537313cb79cfffa7e93c58b" target="_top" xlink:title=" ">
<polygon fill="white" stroke="#666666" points="910,-218 858,-218 858,-199 910,-199 910,-218"/>
<text text-anchor="middle" x="884" y="-206" font-family="Helvetica,sans-Serif" font-size="10.00">display</text>
</a>
</g>
</g>
<!-- Node5&#45;&gt;Node6 -->
<g id="edge5_Node000005_Node000006" class="edge">
<title>Node5&#45;&gt;Node6</title>
<g id="a_edge5_Node000005_Node000006"><a xlink:title=" ">
<path fill="none" stroke="#63b8ff" d="M610.55,-255.03C655.47,-269.88 749.64,-294.05 822,-265.5 841.91,-257.65 859.14,-239.89 870.17,-226.27"/>
<polygon fill="#63b8ff" stroke="#63b8ff" points="873.16,-228.12 876.48,-218.06 867.61,-223.85 873.16,-228.12"/>
</a>
</g>
</g>
<!-- Node7 -->
<g id="Node000007" class="node">
<title>Node7</title>
<g id="a_Node000007"><a xlink:href="weather_8cpp.html#a8e2b5c9b7658529d8dae9d6ea9d56de7" target="_top" xlink:title=" ">
<polygon fill="white" stroke="#666666" points="822,-256 679,-256 679,-237 822,-237 822,-256"/>
<text text-anchor="middle" x="750.5" y="-244" font-family="Helvetica,sans-Serif" font-size="10.00">Weather_CodeToShortText</text>
</a>
</g>
</g>
<!-- Node5&#45;&gt;Node7 -->
<g id="edge6_Node000005_Node000007" class="edge">
<title>Node5&#45;&gt;Node7</title>
<g id="a_edge6_Node000005_Node000007"><a xlink:title=" ">
<path fill="none" stroke="#63b8ff" d="M635.35,-245.81C645.86,-245.87 657.18,-245.94 668.47,-246.01"/>
<polygon fill="#63b8ff" stroke="#63b8ff" points="668.77,-249.51 678.79,-246.07 668.82,-242.51 668.77,-249.51"/>
</a>
</g>
</g>
<!-- Node8&#45;&gt;Node6 -->
<g id="edge8_Node000008_Node000006" class="edge">
<title>Node8&#45;&gt;Node6</title>
<g id="a_edge8_Node000008_Node000006"><a xlink:title=" ">
<path fill="none" stroke="#63b8ff" d="M617.81,-96.88C666.28,-87.69 757.48,-77.68 822,-114.5 850.73,-130.9 868.21,-166.99 876.71,-189.38"/>
<polygon fill="#63b8ff" stroke="#63b8ff" points="873.43,-190.6 880.08,-198.85 880.02,-188.26 873.43,-190.6"/>
</a>
</g>
</g>
<!-- Node9 -->
<g id="Node000009" class="node">
<title>Node9</title>
<g id="a_Node000009"><a xlink:href="display__ui_8cpp.html#a4720a85c38264632abe90b06cd0a878a" target="_top" xlink:title=" ">
<polygon fill="white" stroke="#666666" points="794.5,-67 706.5,-67 706.5,-48 794.5,-48 794.5,-67"/>
<text text-anchor="middle" x="750.5" y="-55" font-family="Helvetica,sans-Serif" font-size="10.00">drawMenu_evi</text>
</a>
</g>
</g>
<!-- Node8&#45;&gt;Node9 -->
<g id="edge9_Node000008_Node000009" class="edge">
<title>Node8&#45;&gt;Node9</title>
<g id="a_edge9_Node000008_Node000009"><a xlink:title=" ">
<path fill="none" stroke="#63b8ff" d="M617.89,-94.99C643.3,-87.75 678.49,-77.73 706.08,-69.87"/>
<polygon fill="#63b8ff" stroke="#63b8ff" points="707.22,-73.18 715.88,-67.08 705.3,-66.45 707.22,-73.18"/>
</a>
</g>
</g>
<!-- Node9&#45;&gt;Node6 -->
<g id="edge10_Node000009_Node000006" class="edge">
<title>Node9&#45;&gt;Node6</title>
<g id="a_edge10_Node000009_Node000006"><a xlink:title=" ">
<path fill="none" stroke="#63b8ff" d="M794.68,-66.2C804.48,-69.72 814.26,-74.64 822,-81.5 854.79,-110.59 871.57,-161.19 878.68,-188.93"/>
<polygon fill="#63b8ff" stroke="#63b8ff" points="875.28,-189.75 881.02,-198.66 882.08,-188.12 875.28,-189.75"/>
</a>
</g>
</g>
<!-- Node11&#45;&gt;Node6 -->
<g id="edge13_Node000011_Node000006" class="edge">
<title>Node11&#45;&gt;Node6</title>
<g id="a_edge13_Node000011_Node000006"><a xlink:title=" ">
<path fill="none" stroke="#63b8ff" d="M305.92,-83.98C414.74,-56.03 738.51,20.24 822,-38.5 871.29,-73.18 880.95,-151.61 882.71,-188.55"/>
<polygon fill="#63b8ff" stroke="#63b8ff" points="879.22,-189.09 883.04,-198.98 886.22,-188.87 879.22,-189.09"/>
</a>
</g>
</g>
<!-- Node12 -->
<g id="Node000012" class="node">
<title>Node12</title>
<g id="a_Node000012"><a xlink:href="minmea_8h.html#a82cdc79749798023b4a1952faf84f1ca" target="_top" xlink:title=" ">
<polygon fill="white" stroke="#666666" points="481,-19 382,-19 382,0 481,0 481,-19"/>
<text text-anchor="middle" x="431.5" y="-7" font-family="Helvetica,sans-Serif" font-size="10.00">minmea_tocoord</text>
</a>
</g>
</g>
<!-- Node11&#45;&gt;Node12 -->
<g id="edge14_Node000011_Node000012" class="edge">
<title>Node11&#45;&gt;Node12</title>
<g id="a_edge14_Node000011_Node000012"><a xlink:title=" ">
<path fill="none" stroke="#63b8ff" d="M315.76,-84.95C323.86,-82.33 331.94,-78.92 339,-74.5 359.55,-61.63 355.39,-47.77 375,-33.5 380.29,-29.65 386.3,-26.25 392.36,-23.31"/>
<polygon fill="#63b8ff" stroke="#63b8ff" points="394.13,-26.35 401.82,-19.07 391.27,-19.96 394.13,-26.35"/>
</a>
</g>
</g>
<!-- Node14 -->
<g id="Node000014" class="node">
<title>Node14</title>
<g id="a_Node000014"><a xlink:href="display__ui_8cpp.html#ab52c20747552f9ca473a8074aa0df6f5" target="_top" xlink:title=" ">
<polygon fill="white" stroke="#666666" points="473,-368 390,-368 390,-349 473,-349 473,-368"/>
<text text-anchor="middle" x="431.5" y="-356" font-family="Helvetica,sans-Serif" font-size="10.00">drawSelected</text>
</a>
</g>
</g>
<!-- Node13&#45;&gt;Node14 -->
<g id="edge17_Node000013_Node000014" class="edge">
<title>Node13&#45;&gt;Node14</title>
<g id="a_edge17_Node000013_Node000014"><a xlink:title=" ">
<path fill="none" stroke="#63b8ff" d="M311.33,-331.03C332.27,-335.86 357.88,-341.76 379.98,-346.85"/>
<polygon fill="#63b8ff" stroke="#63b8ff" points="379.33,-350.3 389.86,-349.13 380.9,-343.47 379.33,-350.3"/>
</a>
</g>
</g>
<!-- Node14&#45;&gt;Node6 -->
<g id="edge18_Node000014_Node000006" class="edge">
<title>Node14&#45;&gt;Node6</title>
<g id="a_edge18_Node000014_Node000006"><a xlink:title=" ">
<path fill="none" stroke="#63b8ff" d="M473.22,-365.61C548.83,-376.52 713.14,-389.25 822,-317.5 853.7,-296.61 870.57,-253.3 878.07,-228.02"/>
<polygon fill="#63b8ff" stroke="#63b8ff" points="881.52,-228.68 880.8,-218.11 874.77,-226.82 881.52,-228.68"/>
</a>
</g>
</g>
<!-- Node15&#45;&gt;Node6 -->
<g id="edge22_Node000015_Node000006" class="edge">
<title>Node15&#45;&gt;Node6</title>
<g id="a_edge22_Node000015_Node000006"><a xlink:title=" ">
<path fill="none" stroke="#63b8ff" d="M630.02,-180.03C645.51,-183.05 662.97,-186.19 679,-188.5 737.85,-196.97 806.77,-202.9 847.56,-206"/>
<polygon fill="#63b8ff" stroke="#63b8ff" points="847.55,-209.51 857.79,-206.77 848.08,-202.53 847.55,-209.51"/>
</a>
</g>
</g>
<!-- Node15&#45;&gt;Node7 -->
<g id="edge23_Node000015_Node000007" class="edge">
<title>Node15&#45;&gt;Node7</title>
<g id="a_edge23_Node000015_Node000007"><a xlink:title=" ">
<path fill="none" stroke="#63b8ff" d="M624.25,-180.02C630.74,-182.33 637.22,-185.13 643,-188.5 662.01,-199.58 660.15,-211.14 679,-222.5 686.09,-226.77 694.03,-230.41 701.97,-233.46"/>
<polygon fill="#63b8ff" stroke="#63b8ff" points="700.99,-236.82 711.58,-236.89 703.34,-230.23 700.99,-236.82"/>
</a>
</g>
</g>
<!-- Node16 -->
<g id="Node000016" class="node">
<title>Node16</title>
<g id="a_Node000016"><a xlink:href="display__ui_8cpp.html#a640ebbdef8018c8e91e8661db6c9bb36" target="_top" xlink:title=" ">
<polygon fill="white" stroke="#666666" points="798,-143 703,-143 703,-124 798,-124 798,-143"/>
<text text-anchor="middle" x="750.5" y="-131" font-family="Helvetica,sans-Serif" font-size="10.00">dayHasForecast</text>
</a>
</g>
</g>
<!-- Node15&#45;&gt;Node16 -->
<g id="edge21_Node000015_Node000016" class="edge">
<title>Node15&#45;&gt;Node16</title>
<g id="a_edge21_Node000015_Node000016"><a xlink:title=" ">
<path fill="none" stroke="#63b8ff" d="M626.99,-160.97C648.37,-156.18 674.47,-150.32 697.08,-145.25"/>
<polygon fill="#63b8ff" stroke="#63b8ff" points="697.87,-148.66 706.87,-143.06 696.34,-141.83 697.87,-148.66"/>
</a>
</g>
</g>
<!-- Node17 -->
<g id="Node000017" class="node">
<title>Node17</title>
<g id="a_Node000017"><a xlink:href="weather_8cpp.html#a51d541fdbe1af3ec8d12cdddd643a1b8" target="_top" xlink:title=" ">
<polygon fill="white" stroke="#666666" points="819,-180 682,-180 682,-161 819,-161 819,-180"/>
<text text-anchor="middle" x="750.5" y="-168" font-family="Helvetica,sans-Serif" font-size="10.00">Weather_WeekdayName</text>
</a>
</g>
</g>
<!-- Node15&#45;&gt;Node17 -->
<g id="edge24_Node000015_Node000017" class="edge">
<title>Node15&#45;&gt;Node17</title>
<g id="a_edge24_Node000015_Node000017"><a xlink:title=" ">
<path fill="none" stroke="#63b8ff" d="M635.8,-170.5C647.18,-170.5 659.5,-170.5 671.67,-170.5"/>
<polygon fill="#63b8ff" stroke="#63b8ff" points="671.84,-174 681.84,-170.5 671.84,-167 671.84,-174"/>
</a>
</g>
</g>
<!-- Node18&#45;&gt;Node6 -->
<g id="edge26_Node000018_Node000006" class="edge">
<title>Node18&#45;&gt;Node6</title>
<g id="a_edge26_Node000018_Node000006"><a xlink:title=" ">
<path fill="none" stroke="#63b8ff" d="M477.57,-312.01C553.41,-325.61 709.28,-343.07 822,-285.5 846.59,-272.94 864.48,-245.47 874.3,-226.97"/>
<polygon fill="#63b8ff" stroke="#63b8ff" points="877.44,-228.51 878.81,-218.01 871.19,-225.37 877.44,-228.51"/>
</a>
</g>
</g>
<!-- Node19&#45;&gt;Node14 -->
<g id="edge28_Node000019_Node000014" class="edge">
<title>Node19&#45;&gt;Node14</title>
<g id="a_edge28_Node000019_Node000014"><a xlink:title=" ">
<path fill="none" stroke="#63b8ff" d="M324.34,-358.5C342.28,-358.5 362.16,-358.5 379.81,-358.5"/>
<polygon fill="#63b8ff" stroke="#63b8ff" points="379.92,-362 389.92,-358.5 379.92,-355 379.92,-362"/>
</a>
</g>
</g>
<!-- Node21&#45;&gt;Node12 -->
<g id="edge31_Node000021_Node000012" class="edge">
<title>Node21&#45;&gt;Node12</title>
<g id="a_edge31_Node000021_Node000012"><a xlink:title=" ">
<path fill="none" stroke="#63b8ff" d="M312.17,-16.87C330.36,-15.74 351.95,-14.39 371.68,-13.17"/>
<polygon fill="#63b8ff" stroke="#63b8ff" points="372.03,-16.65 381.79,-12.53 371.59,-9.66 372.03,-16.65"/>
</a>
</g>
</g>
<!-- Node22&#45;&gt;Node12 -->
<g id="edge33_Node000022_Node000012" class="edge">
<title>Node22&#45;&gt;Node12</title>
<g id="a_edge33_Node000022_Node000012"><a xlink:title=" ">
<path fill="none" stroke="#63b8ff" d="M305.51,-46.93C316.29,-43.97 328.14,-40.66 339,-37.5 355.91,-32.59 374.5,-26.94 390.49,-22.01"/>
<polygon fill="#63b8ff" stroke="#63b8ff" points="391.55,-25.35 400.06,-19.05 389.48,-18.66 391.55,-25.35"/>
</a>
</g>
</g>
</g>
</svg>
