<?xml version="1.0" encoding="UTF-8" standalone="no"?>
<!DOCTYPE svg PUBLIC "-//W3C//DTD SVG 1.1//EN"
 "http://www.w3.org/Graphics/SVG/1.1/DTD/svg11.dtd">
<!-- Generated by graphviz version 2.43.0 (0)
 -->
<!-- Title: setup1 Pages: 1 -->
<svg width="294pt" height="101pt"
 viewBox="0.00 0.00 294.00 101.00" xmlns="http://www.w3.org/2000/svg" xmlns:xlink="http://www.w3.org/1999/xlink">

<svg id="main" version="1.1" xmlns="http://www.w3.org/2000/svg" xmlns:xlink="http://www.w3.org/1999/xlink" xml:space="preserve" onload="init(evt)">
<style type="text/css"><![CDATA[
.node, .edge {opacity: 0.7;}
.node.selected, .edge.selected {opacity: 1;}
.edge:hover path { stroke: red; }
.edge:hover polygon { stroke: red; fill: red; }
]]></style>
<script type="application/ecmascript" xlink:href="svg.min.js"/>
<svg id="graph" class="graph">
<g id="graph0" class="graph" transform="scale(1 1) rotate(0) translate(4 97)">
<title>setup1</title>
<!-- Node1 -->
<g id="Node000001" class="node">
<title>Node1</title>
<g id="a_Node000001"><a xlink:title="Configurazione iniziale per il Core 1.">
<polygon fill="#999999" stroke="#666666" points="50,-56 0,-56 0,-37 50,-37 50,-56"/>
<text text-anchor="middle" x="25" y="-44" font-family="Helvetica,sans-Serif" font-size="10.00">setup1</text>
</a>
</g>
</g>
<!-- Node2 -->
<g id="Node000002" class="node">
<title>Node2</title>
<g id="a_Node000002"><a xlink:href="Filesystem_8cpp.html#af3f1e5af9825fbd3178a8dd29ec898ff" target="_top" xlink:title="Inizializza il filesystem FatFS sulla memoria Flash.">
<polygon fill="white" stroke="#666666" points="171,-93 96,-93 96,-74 171,-74 171,-93"/>
<text text-anchor="middle" x="133.5" y="-81" font-family="Helvetica,sans-Serif" font-size="10.00">FatFS_Setup</text>
</a>
</g>
</g>
<!-- Node1&#45;&gt;Node2 -->
<g id="edge1_Node000001_Node000002" class="edge">
<title>Node1&#45;&gt;Node2</title>
<g id="a_edge1_Node000001_Node000002"><a xlink:title=" ">
<path fill="none" stroke="#63b8ff" d="M50.17,-54.9C63.56,-59.55 80.49,-65.43 95.51,-70.65"/>
<polygon fill="#63b8ff" stroke="#63b8ff" points="94.46,-73.99 105.05,-73.96 96.75,-67.38 94.46,-73.99"/>
</a>
</g>
</g>
<!-- Node3 -->
<g id="Node000003" class="node">
<title>Node3</title>
<g id="a_Node000003"><a xlink:href="Filesystem_8cpp.html#aadf4a6d086b5111da73b529111a54e2f" target="_top" xlink:title="Configura l&#39;interfaccia USB Mass Storage.">
<polygon fill="white" stroke="#666666" points="181,-56 86,-56 86,-37 181,-37 181,-56"/>
<text text-anchor="middle" x="133.5" y="-44" font-family="Helvetica,sans-Serif" font-size="10.00">FatFSUSB_Setup</text>
</a>
</g>
</g>
<!-- Node1&#45;&gt;Node3 -->
<g id="edge2_Node000001_Node000003" class="edge">
<title>Node1&#45;&gt;Node3</title>
<g id="a_edge2_Node000001_Node000003"><a xlink:title=" ">
<path fill="none" stroke="#63b8ff" d="M50.17,-46.5C57.84,-46.5 66.67,-46.5 75.63,-46.5"/>
<polygon fill="#63b8ff" stroke="#63b8ff" points="75.76,-50 85.76,-46.5 75.76,-43 75.76,-50"/>
</a>
</g>
</g>
<!-- Node7 -->
<g id="Node000007" class="node">
<title>Node7</title>
<g id="a_Node000007"><a xlink:href="gps_8cpp.html#a27c44e6a267029d9db9678b90361b91a" target="_top" xlink:title="Inizializza l&#39;hardware dedicato al GPS.">
<polygon fill="white" stroke="#666666" points="158.5,-19 108.5,-19 108.5,0 158.5,0 158.5,-19"/>
<text text-anchor="middle" x="133.5" y="-7" font-family="Helvetica,sans-Serif" font-size="10.00">gpsInit</text>
</a>
</g>
</g>
<!-- Node1&#45;&gt;Node7 -->
<g id="edge6_Node000001_Node000007" class="edge">
<title>Node1&#45;&gt;Node7</title>
<g id="a_edge6_Node000001_Node000007"><a xlink:title=" ">
<path fill="none" stroke="#63b8ff" d="M50.17,-38.1C64.6,-33.09 83.15,-26.65 98.98,-21.15"/>
<polygon fill="#63b8ff" stroke="#63b8ff" points="100.13,-24.45 108.43,-17.86 97.83,-17.84 100.13,-24.45"/>
</a>
</g>
</g>
<!-- Node4 -->
<g id="Node000004" class="node">
<title>Node4</title>
<g id="a_Node000004"><a xlink:href="Filesystem_8cpp.html#a74282d889889088af618af7147a0af10" target="_top" xlink:title="Verifica se il filesystem è pronto per essere montato dall&#39;host USB.">
<polygon fill="white" stroke="#666666" points="286,-93 217,-93 217,-74 286,-74 286,-93"/>
<text text-anchor="middle" x="251.5" y="-81" font-family="Helvetica,sans-Serif" font-size="10.00">mountable</text>
</a>
</g>
</g>
<!-- Node3&#45;&gt;Node4 -->
<g id="edge3_Node000003_Node000004" class="edge">
<title>Node3&#45;&gt;Node4</title>
<g id="a_edge3_Node000003_Node000004"><a xlink:title=" ">
<path fill="none" stroke="#63b8ff" d="M164.37,-56.03C178.47,-60.52 195.49,-65.95 210.67,-70.8"/>
<polygon fill="#63b8ff" stroke="#63b8ff" points="209.73,-74.17 220.33,-73.88 211.86,-67.5 209.73,-74.17"/>
</a>
</g>
</g>
<!-- Node5 -->
<g id="Node000005" class="node">
<title>Node5</title>
<g id="a_Node000005"><a xlink:href="Filesystem_8cpp.html#a3c394d6181de6a9514b3810fa42e787d" target="_top" xlink:title="Callback eseguito alla connessione USB.">
<polygon fill="white" stroke="#666666" points="270.5,-56 232.5,-56 232.5,-37 270.5,-37 270.5,-56"/>
<text text-anchor="middle" x="251.5" y="-44" font-family="Helvetica,sans-Serif" font-size="10.00">plug</text>
</a>
</g>
</g>
<!-- Node3&#45;&gt;Node5 -->
<g id="edge4_Node000003_Node000005" class="edge">
<title>Node3&#45;&gt;Node5</title>
<g id="a_edge4_Node000003_Node000005"><a xlink:title=" ">
<path fill="none" stroke="#63b8ff" d="M181.01,-46.5C194.96,-46.5 209.82,-46.5 222.21,-46.5"/>
<polygon fill="#63b8ff" stroke="#63b8ff" points="222.37,-50 232.37,-46.5 222.37,-43 222.37,-50"/>
</a>
</g>
</g>
<!-- Node6 -->
<g id="Node000006" class="node">
<title>Node6</title>
<g id="a_Node000006"><a xlink:href="Filesystem_8cpp.html#a8e24a774e23a962350e4ebb5e948f2f0" target="_top" xlink:title="Callback eseguito alla disconnessione USB.">
<polygon fill="white" stroke="#666666" points="276.5,-19 226.5,-19 226.5,0 276.5,0 276.5,-19"/>
<text text-anchor="middle" x="251.5" y="-7" font-family="Helvetica,sans-Serif" font-size="10.00">unplug</text>
</a>
</g>
</g>
<!-- Node3&#45;&gt;Node6 -->
<g id="edge5_Node000003_Node000006" class="edge">
<title>Node3&#45;&gt;Node6</title>
<g id="a_edge5_Node000003_Node000006"><a xlink:title=" ">
<path fill="none" stroke="#63b8ff" d="M164.37,-36.97C180.27,-31.9 199.89,-25.64 216.39,-20.38"/>
<polygon fill="#63b8ff" stroke="#63b8ff" points="217.73,-23.63 226.19,-17.25 215.6,-16.96 217.73,-23.63"/>
</a>
</g>
</g>
</g>
</svg>
</svg>

<style type='text/css'>
<![CDATA[
[data-mouse-over-selected='false'] { opacity: 0.7; }
[data-mouse-over-selected='true']  { opacity: 1.0; }
]]>
</style>
<script type="application/ecmascript"><![CDATA[
document.addEventListener('DOMContentLoaded', (event) => {
  highlightEdges();
  highlightAdjacentNodes();
});
]]></script>
</svg>
