<?xml version="1.0" encoding="UTF-8" standalone="no"?>
<!DOCTYPE svg PUBLIC "-//W3C//DTD SVG 1.1//EN"
 "http://www.w3.org/Graphics/SVG/1.1/DTD/svg11.dtd">
<!-- Generated by graphviz version 2.43.0 (0)
 -->
<!-- Title: loop1 Pages: 1 -->
<!--zoomable 471 -->

<svg id="main" version="1.1" xmlns="http://www.w3.org/2000/svg" xmlns:xlink="http://www.w3.org/1999/xlink" xml:space="preserve" onload="init(evt)">
<style type="text/css"><![CDATA[
.node, .edge {opacity: 0.7;}
.node.selected, .edge.selected {opacity: 1;}
.edge:hover path { stroke: red; }
.edge:hover polygon { stroke: red; fill: red; }
]]></style>

<defs>
  <circle id="rim" cx="0" cy="0" r="7"/>
  <circle id="rim2" cx="0" cy="0" r="3.5"/>
  <g id="zoomPlus">
    <use xlink:href="#rim" fill="#404040"><set attributeName="fill" to="#808080" begin="zoomplus.mouseover" end="zoomplus.mouseout"/></use>
    <path d="M-4,0h8M0,-4v8" fill="none" stroke="white" stroke-width="1.5" pointer-events="none"/>
  </g>
  <g id="zoomMin">
    <use xlink:href="#rim" fill="#404040"><set attributeName="fill" to="#808080" begin="zoomminus.mouseover" end="zoomminus.mouseout"/></use>
    <path d="M-4,0h8" fill="none" stroke="white" stroke-width="1.5" pointer-events="none"/>
  </g>
  <g id="arrowUp" transform="translate(30 24)">
    <use xlink:href="#rim"/>
    <path pointer-events="none" fill="none" stroke="white" stroke-width="1.5" d="M0,-3.0v7 M-2.5,-0.5L0,-3.0L2.5,-0.5"/>
  </g>
  <g id="arrowRight" transform="rotate(90) translate(36 -43)">
    <use xlink:href="#rim"/>
    <path pointer-events="none" fill="none" stroke="white" stroke-width="1.5" d="M0,-3.0v7 M-2.5,-0.5L0,-3.0L2.5,-0.5"/>
  </g>
  <g id="arrowDown" transform="rotate(180) translate(-30 -48)">
    <use xlink:href="#rim"/>
    <path pointer-events="none" fill="none" stroke="white" stroke-width="1.5" d="M0,-3.0v7 M-2.5,-0.5L0,-3.0L2.5,-0.5"/>
  </g>
  <g id="arrowLeft" transform="rotate(270) translate(-36 17)">
    <use xlink:href="#rim"/>
    <path pointer-events="none" fill="none" stroke="white" stroke-width="1.5" d="M0,-3.0v7 M-2.5,-0.5L0,-3.0L2.5,-0.5"/>
  </g>
  <g id="resetDef">
    <use xlink:href="#rim2" fill="#404040"><set attributeName="fill" to="#808080" begin="reset.mouseover" end="reset.mouseout"/></use>
  </g>
</defs>
<script type="application/ecmascript">
var viewWidth = 1170;
var viewHeight = 471;
var sectionId = 'dynsection-2';
</script>
<script type="application/ecmascript" xlink:href="svg.min.js"/>
<svg id="graph" class="graph">
<g id="viewport">
<title>loop1</title>
<!-- Node1 -->
<g id="Node000001" class="node">
<title>Node1</title>
<g id="a_Node000001"><a xlink:title="Loop principale del Core 1.">
<polygon fill="#999999" stroke="#666666" points="44,-166 0,-166 0,-147 44,-147 44,-166"/>
<text text-anchor="middle" x="22" y="-154" font-family="Helvetica,sans-Serif" font-size="10.00">loop1</text>
</a>
</g>
</g>
<!-- Node2 -->
<g id="Node000002" class="node">
<title>Node2</title>
<g id="a_Node000002"><a xlink:href="gps_8cpp.html#a58c63785b84f6e923c4e8ca91f335c43" target="_top" xlink:title="Monitora la coda dei messaggi inter&#45;core per richieste di sincronizzazione GPS.">
<polygon fill="white" stroke="#666666" points="199,-204 80,-204 80,-185 199,-185 199,-204"/>
<text text-anchor="middle" x="139.5" y="-192" font-family="Helvetica,sans-Serif" font-size="10.00">check_GPS_sync_req</text>
</a>
</g>
</g>
<!-- Node1&#45;&gt;Node2 -->
<g id="edge1_Node000001_Node000002" class="edge">
<title>Node1&#45;&gt;Node2</title>
<g id="a_edge1_Node000001_Node000002"><a xlink:title=" ">
<path fill="none" stroke="#63b8ff" d="M44.18,-163.47C59.75,-168.59 81.34,-175.69 99.94,-181.81"/>
<polygon fill="#63b8ff" stroke="#63b8ff" points="99.03,-185.2 109.62,-185 101.21,-178.55 99.03,-185.2"/>
</a>
</g>
</g>
<!-- Node3 -->
<g id="Node000003" class="node">
<title>Node3</title>
<g id="a_Node000003"><a xlink:href="gps_8cpp.html#a79c2c486e631815579df4be3e190ebad" target="_top" xlink:title="Sincronizza i dati GPS globali e gestisce il salvataggio su Flash.">
<polygon fill="white" stroke="#666666" points="304.5,-185 240.5,-185 240.5,-166 304.5,-166 304.5,-185"/>
<text text-anchor="middle" x="272.5" y="-173" font-family="Helvetica,sans-Serif" font-size="10.00">GPS_sync</text>
</a>
</g>
</g>
<!-- Node1&#45;&gt;Node3 -->
<g id="edge35_Node000001_Node000003" class="edge">
<title>Node1&#45;&gt;Node3</title>
<g id="a_edge35_Node000001_Node000003"><a xlink:title=" ">
<path fill="none" stroke="#63b8ff" d="M44.19,-158.12C85.34,-161.27 176.73,-168.25 230.25,-172.35"/>
<polygon fill="#63b8ff" stroke="#63b8ff" points="230.19,-175.85 240.43,-173.12 230.72,-168.87 230.19,-175.85"/>
</a>
</g>
</g>
<!-- Node26 -->
<g id="Node000026" class="node">
<title>Node26</title>
<g id="a_Node000026"><a xlink:href="Filesystem_8cpp.html#acde6b81e46f60c50c323ae21b153d1bf" target="_top" xlink:title="Sincronizza lo stato del filesystem e gestisce la rimonta dopo l&#39;uso USB.">
<polygon fill="white" stroke="#666666" points="172,-128 107,-128 107,-109 172,-109 172,-128"/>
<text text-anchor="middle" x="139.5" y="-116" font-family="Helvetica,sans-Serif" font-size="10.00">sync_files</text>
</a>
</g>
</g>
<!-- Node1&#45;&gt;Node26 -->
<g id="edge36_Node000001_Node000026" class="edge">
<title>Node1&#45;&gt;Node26</title>
<g id="a_edge36_Node000001_Node000026"><a xlink:title=" ">
<path fill="none" stroke="#63b8ff" d="M44.18,-149.53C59.75,-144.41 81.34,-137.31 99.94,-131.19"/>
<polygon fill="#63b8ff" stroke="#63b8ff" points="101.21,-134.45 109.62,-128 99.03,-127.8 101.21,-134.45"/>
</a>
</g>
</g>
<!-- Node2&#45;&gt;Node3 -->
<g id="edge2_Node000002_Node000003" class="edge">
<title>Node2&#45;&gt;Node3</title>
<g id="a_edge2_Node000002_Node000003"><a xlink:title=" ">
<path fill="none" stroke="#63b8ff" d="M199.1,-186C209.62,-184.47 220.38,-182.91 230.27,-181.48"/>
<polygon fill="#63b8ff" stroke="#63b8ff" points="230.83,-184.94 240.23,-180.04 229.83,-178.01 230.83,-184.94"/>
</a>
</g>
</g>
<!-- Node4 -->
<g id="Node000004" class="node">
<title>Node4</title>
<g id="a_Node000004"><a xlink:href="gps_8cpp.html#aadbd2f07e07e8a3f472065571970cefe" target="_top" xlink:title="Estrae data e ora dai messaggi RMC.">
<polygon fill="white" stroke="#666666" points="474.5,-185 364.5,-185 364.5,-166 474.5,-166 474.5,-185"/>
<text text-anchor="middle" x="419.5" y="-173" font-family="Helvetica,sans-Serif" font-size="10.00">GetDate_and_Time</text>
</a>
</g>
</g>
<!-- Node3&#45;&gt;Node4 -->
<g id="edge3_Node000003_Node000004" class="edge">
<title>Node3&#45;&gt;Node4</title>
<g id="a_edge3_Node000003_Node000004"><a xlink:title=" ">
<path fill="none" stroke="#63b8ff" d="M304.61,-175.5C319.14,-175.5 337.02,-175.5 354.27,-175.5"/>
<polygon fill="#63b8ff" stroke="#63b8ff" points="354.32,-179 364.32,-175.5 354.32,-172 354.32,-179"/>
</a>
</g>
</g>
<!-- Node24 -->
<g id="Node000024" class="node">
<title>Node24</title>
<g id="a_Node000024"><a xlink:href="gps_8cpp.html#a177ee65fb57b969753487772f3fc552c" target="_top" xlink:title="Estrae posizione e numero satelliti dai messaggi GGA.">
<polygon fill="white" stroke="#666666" points="493,-222 346,-222 346,-203 493,-203 493,-222"/>
<text text-anchor="middle" x="419.5" y="-210" font-family="Helvetica,sans-Serif" font-size="10.00">GetPosition_and_Satellites</text>
</a>
</g>
</g>
<!-- Node3&#45;&gt;Node24 -->
<g id="edge31_Node000003_Node000024" class="edge">
<title>Node3&#45;&gt;Node24</title>
<g id="a_edge31_Node000003_Node000024"><a xlink:title=" ">
<path fill="none" stroke="#63b8ff" d="M304.52,-183.72C317.35,-187.1 332.38,-191.03 346,-194.5 353.69,-196.46 361.84,-198.51 369.8,-200.5"/>
<polygon fill="#63b8ff" stroke="#63b8ff" points="369.17,-203.95 379.72,-202.97 370.86,-197.16 369.17,-203.95"/>
</a>
</g>
</g>
<!-- Node25 -->
<g id="Node000025" class="node">
<title>Node25</title>
<g id="a_Node000025"><a xlink:href="gps_8cpp.html#aab2203af6c50eafde7df9509bc632fa6" target="_top" xlink:title="Salva le ultime coordinate valide in un file di testo (modalità overwrite).">
<polygon fill="white" stroke="#666666" points="615,-36 529,-36 529,-17 615,-17 615,-36"/>
<text text-anchor="middle" x="572" y="-24" font-family="Helvetica,sans-Serif" font-size="10.00">save_gps_last</text>
</a>
</g>
</g>
<!-- Node3&#45;&gt;Node25 -->
<g id="edge33_Node000003_Node000025" class="edge">
<title>Node3&#45;&gt;Node25</title>
<g id="a_edge33_Node000003_Node000025"><a xlink:title=" ">
<path fill="none" stroke="#63b8ff" d="M292.56,-165.95C343.34,-140.52 482.11,-71.02 542.4,-40.82"/>
<polygon fill="#63b8ff" stroke="#63b8ff" points="544.34,-43.77 551.71,-36.16 541.2,-37.51 544.34,-43.77"/>
</a>
</g>
</g>
<!-- Node5 -->
<g id="Node000005" class="node">
<title>Node5</title>
<g id="a_Node000005"><a xlink:href="gps_8cpp.html#a5c33ca28d942d03c752f418f3c04711f" target="_top" xlink:title="Tenta di acquisire un tipo specifico di sentenza NMEA dalla seriale.">
<polygon fill="white" stroke="#666666" points="607.5,-222 536.5,-222 536.5,-203 607.5,-203 607.5,-222"/>
<text text-anchor="middle" x="572" y="-210" font-family="Helvetica,sans-Serif" font-size="10.00">gpsAcquire</text>
</a>
</g>
</g>
<!-- Node4&#45;&gt;Node5 -->
<g id="edge4_Node000004_Node000005" class="edge">
<title>Node4&#45;&gt;Node5</title>
<g id="a_edge4_Node000004_Node000005"><a xlink:title=" ">
<path fill="none" stroke="#63b8ff" d="M459.26,-185.03C479.86,-190.09 505.27,-196.34 526.66,-201.6"/>
<polygon fill="#63b8ff" stroke="#63b8ff" points="525.93,-205.02 536.48,-204.01 527.61,-198.23 525.93,-205.02"/>
</a>
</g>
</g>
<!-- Node6 -->
<g id="Node000006" class="node">
<title>Node6</title>
<g id="a_Node000006"><a xlink:href="gps_8cpp.html#a1584cd930020560265588b72bde4654c" target="_top" xlink:title="Smista e decodifica una stringa NMEA grezza nella struttura dati corrispondente.">
<polygon fill="white" stroke="#666666" points="750,-241 651,-241 651,-222 750,-222 750,-241"/>
<text text-anchor="middle" x="700.5" y="-229" font-family="Helvetica,sans-Serif" font-size="10.00">nmea_gps_parse</text>
</a>
</g>
</g>
<!-- Node5&#45;&gt;Node6 -->
<g id="edge5_Node000005_Node000006" class="edge">
<title>Node5&#45;&gt;Node6</title>
<g id="a_edge5_Node000005_Node000006"><a xlink:title=" ">
<path fill="none" stroke="#63b8ff" d="M607.57,-217.69C617.86,-219.24 629.45,-220.98 640.83,-222.69"/>
<polygon fill="#63b8ff" stroke="#63b8ff" points="640.34,-226.15 650.75,-224.18 641.38,-219.23 640.34,-226.15"/>
</a>
</g>
</g>
<!-- Node7 -->
<g id="Node000007" class="node">
<title>Node7</title>
<g id="a_Node000007"><a xlink:href="minmea_8c.html#a0e892adb1166185572c0e4614bc1eb13" target="_top" xlink:title=" ">
<polygon fill="white" stroke="#666666" points="899,-278 786,-278 786,-259 899,-259 899,-278"/>
<text text-anchor="middle" x="842.5" y="-266" font-family="Helvetica,sans-Serif" font-size="10.00">minmea_parse_gga</text>
</a>
</g>
</g>
<!-- Node6&#45;&gt;Node7 -->
<g id="edge6_Node000006_Node000007" class="edge">
<title>Node6&#45;&gt;Node7</title>
<g id="a_edge6_Node000006_Node000007"><a xlink:title=" ">
<path fill="none" stroke="#63b8ff" d="M737.55,-241.03C755.13,-245.67 776.48,-251.32 795.25,-256.28"/>
<polygon fill="#63b8ff" stroke="#63b8ff" points="794.52,-259.7 805.08,-258.88 796.31,-252.94 794.52,-259.7"/>
</a>
</g>
</g>
<!-- Node10 -->
<g id="Node000010" class="node">
<title>Node10</title>
<g id="a_Node000010"><a xlink:href="minmea_8c.html#ac699de4ccd27d72d2eda3ddb64158014" target="_top" xlink:title=" ">
<polygon fill="white" stroke="#666666" points="897.5,-241 787.5,-241 787.5,-222 897.5,-222 897.5,-241"/>
<text text-anchor="middle" x="842.5" y="-229" font-family="Helvetica,sans-Serif" font-size="10.00">minmea_parse_gst</text>
</a>
</g>
</g>
<!-- Node6&#45;&gt;Node10 -->
<g id="edge9_Node000006_Node000010" class="edge">
<title>Node6&#45;&gt;Node10</title>
<g id="a_edge9_Node000006_Node000010"><a xlink:title=" ">
<path fill="none" stroke="#63b8ff" d="M750.07,-231.5C758.79,-231.5 768.01,-231.5 777.09,-231.5"/>
<polygon fill="#63b8ff" stroke="#63b8ff" points="777.27,-235 787.27,-231.5 777.27,-228 777.27,-235"/>
</a>
</g>
</g>
<!-- Node11 -->
<g id="Node000011" class="node">
<title>Node11</title>
<g id="a_Node000011"><a xlink:href="minmea_8c.html#abe3a4ed1fc95c8d8f847b8ff54b23242" target="_top" xlink:title=" ">
<polygon fill="white" stroke="#666666" points="898.5,-204 786.5,-204 786.5,-185 898.5,-185 898.5,-204"/>
<text text-anchor="middle" x="842.5" y="-192" font-family="Helvetica,sans-Serif" font-size="10.00">minmea_parse_gsv</text>
</a>
</g>
</g>
<!-- Node6&#45;&gt;Node11 -->
<g id="edge11_Node000006_Node000011" class="edge">
<title>Node6&#45;&gt;Node11</title>
<g id="a_edge11_Node000006_Node000011"><a xlink:title=" ">
<path fill="none" stroke="#63b8ff" d="M737.55,-221.97C755.13,-217.33 776.48,-211.68 795.25,-206.72"/>
<polygon fill="#63b8ff" stroke="#63b8ff" points="796.31,-210.06 805.08,-204.12 794.52,-203.3 796.31,-210.06"/>
</a>
</g>
</g>
<!-- Node12 -->
<g id="Node000012" class="node">
<title>Node12</title>
<g id="a_Node000012"><a xlink:href="minmea_8c.html#a9a6083eb3b90edb0b96eaedc732313b7" target="_top" xlink:title=" ">
<polygon fill="white" stroke="#666666" points="899,-463 786,-463 786,-444 899,-444 899,-463"/>
<text text-anchor="middle" x="842.5" y="-451" font-family="Helvetica,sans-Serif" font-size="10.00">minmea_parse_rmc</text>
</a>
</g>
</g>
<!-- Node6&#45;&gt;Node12 -->
<g id="edge13_Node000006_Node000012" class="edge">
<title>Node6&#45;&gt;Node12</title>
<g id="a_edge13_Node000006_Node000012"><a xlink:title=" ">
<path fill="none" stroke="#63b8ff" d="M702.65,-241.22C707.01,-273.7 725.46,-379.57 786,-435.5 787.28,-436.68 788.64,-437.79 790.06,-438.82"/>
<polygon fill="#63b8ff" stroke="#63b8ff" points="788.36,-441.88 798.75,-443.97 791.93,-435.86 788.36,-441.88"/>
</a>
</g>
</g>
<!-- Node13 -->
<g id="Node000013" class="node">
<title>Node13</title>
<g id="a_Node000013"><a xlink:href="minmea_8c.html#afe00342610ebb8d37f3560b0cc31a52f" target="_top" xlink:title=" ">
<polygon fill="white" stroke="#666666" points="897.5,-352 787.5,-352 787.5,-333 897.5,-333 897.5,-352"/>
<text text-anchor="middle" x="842.5" y="-340" font-family="Helvetica,sans-Serif" font-size="10.00">minmea_parse_vtg</text>
</a>
</g>
</g>
<!-- Node6&#45;&gt;Node13 -->
<g id="edge15_Node000006_Node000013" class="edge">
<title>Node6&#45;&gt;Node13</title>
<g id="a_edge15_Node000006_Node000013"><a xlink:title=" ">
<path fill="none" stroke="#63b8ff" d="M707.71,-241.18C720.25,-259.97 750.45,-301.54 786,-324.5 788.43,-326.07 791.02,-327.52 793.68,-328.84"/>
<polygon fill="#63b8ff" stroke="#63b8ff" points="792.42,-332.11 802.99,-332.91 795.23,-325.7 792.42,-332.11"/>
</a>
</g>
</g>
<!-- Node14 -->
<g id="Node000014" class="node">
<title>Node14</title>
<g id="a_Node000014"><a xlink:href="minmea_8c.html#a389a195750045dfecc8e47d2641dec13" target="_top" xlink:title=" ">
<polygon fill="white" stroke="#666666" points="898.5,-315 786.5,-315 786.5,-296 898.5,-296 898.5,-315"/>
<text text-anchor="middle" x="842.5" y="-303" font-family="Helvetica,sans-Serif" font-size="10.00">minmea_parse_zda</text>
</a>
</g>
</g>
<!-- Node6&#45;&gt;Node14 -->
<g id="edge17_Node000006_Node000014" class="edge">
<title>Node6&#45;&gt;Node14</title>
<g id="a_edge17_Node000006_Node000014"><a xlink:title=" ">
<path fill="none" stroke="#63b8ff" d="M713.74,-241.17C729.63,-253.35 758.58,-274.27 786,-287.5 789.75,-289.31 793.72,-291 797.75,-292.56"/>
<polygon fill="#63b8ff" stroke="#63b8ff" points="796.58,-295.86 807.18,-295.98 798.97,-289.28 796.58,-295.86"/>
</a>
</g>
</g>
<!-- Node15 -->
<g id="Node000015" class="node">
<title>Node15</title>
<g id="a_Node000015"><a xlink:href="gps_8cpp.html#ae7e06054042f4d22ce3f7641a654dfba" target="_top" xlink:title="Stampa la qualità del fix da una sentenza $xxGGA (Global Positioning System Fix Data).">
<polygon fill="white" stroke="#666666" points="891,-130 794,-130 794,-111 891,-111 891,-130"/>
<text text-anchor="middle" x="842.5" y="-118" font-family="Helvetica,sans-Serif" font-size="10.00">print_NMEA_gga</text>
</a>
</g>
</g>
<!-- Node6&#45;&gt;Node15 -->
<g id="edge19_Node000006_Node000015" class="edge">
<title>Node6&#45;&gt;Node15</title>
<g id="a_edge19_Node000006_Node000015"><a xlink:title=" ">
<path fill="none" stroke="#63b8ff" d="M707.71,-221.82C720.25,-203.03 750.45,-161.46 786,-138.5 788.43,-136.93 791.02,-135.48 793.68,-134.16"/>
<polygon fill="#63b8ff" stroke="#63b8ff" points="795.23,-137.3 802.99,-130.09 792.42,-130.89 795.23,-137.3"/>
</a>
</g>
</g>
<!-- Node16 -->
<g id="Node000016" class="node">
<title>Node16</title>
<g id="a_Node000016"><a xlink:href="gps_8cpp.html#a86800585d87c13db519115d7d460aac0" target="_top" xlink:title="Stampa gli errori di deviazione da una sentenza $xxGST (GPS Pseudorange Noise Statistics).">
<polygon fill="white" stroke="#666666" points="889.5,-93 795.5,-93 795.5,-74 889.5,-74 889.5,-93"/>
<text text-anchor="middle" x="842.5" y="-81" font-family="Helvetica,sans-Serif" font-size="10.00">print_NMEA_gst</text>
</a>
</g>
</g>
<!-- Node6&#45;&gt;Node16 -->
<g id="edge20_Node000006_Node000016" class="edge">
<title>Node6&#45;&gt;Node16</title>
<g id="a_edge20_Node000006_Node000016"><a xlink:title=" ">
<path fill="none" stroke="#63b8ff" d="M705.15,-221.72C714.64,-197.62 742.42,-134.91 786,-101.5 787.8,-100.12 789.7,-98.85 791.68,-97.67"/>
<polygon fill="#63b8ff" stroke="#63b8ff" points="793.41,-100.72 800.76,-93.1 790.26,-94.47 793.41,-100.72"/>
</a>
</g>
</g>
<!-- Node19 -->
<g id="Node000019" class="node">
<title>Node19</title>
<g id="a_Node000019"><a xlink:href="gps_8cpp.html#a6ec6b5a4090671490d31c770fe6afa0d" target="_top" xlink:title="Stampa lo stato dei satelliti in vista da una sentenza $xxGSV (Satellites in View).">
<polygon fill="white" stroke="#666666" points="890.5,-426 794.5,-426 794.5,-407 890.5,-407 890.5,-426"/>
<text text-anchor="middle" x="842.5" y="-414" font-family="Helvetica,sans-Serif" font-size="10.00">print_NMEA_gsv</text>
</a>
</g>
</g>
<!-- Node6&#45;&gt;Node19 -->
<g id="edge23_Node000006_Node000019" class="edge">
<title>Node6&#45;&gt;Node19</title>
<g id="a_edge23_Node000006_Node000019"><a xlink:title=" ">
<path fill="none" stroke="#63b8ff" d="M703.59,-241.03C710.29,-269.38 733.92,-353.91 786,-398.5 787.5,-399.78 789.09,-400.98 790.76,-402.09"/>
<polygon fill="#63b8ff" stroke="#63b8ff" points="789.12,-405.18 799.56,-406.95 792.5,-399.05 789.12,-405.18"/>
</a>
</g>
</g>
<!-- Node20 -->
<g id="Node000020" class="node">
<title>Node20</title>
<g id="a_Node000020"><a xlink:href="gps_8cpp.html#a4650a0bef4037f605b746db3e8dce5bf" target="_top" xlink:title="Stampa i dettagli di una sentenza $xxRMC (Recommended Minimum Navigation Information).">
<polygon fill="white" stroke="#666666" points="891.5,-56 793.5,-56 793.5,-37 891.5,-37 891.5,-56"/>
<text text-anchor="middle" x="842.5" y="-44" font-family="Helvetica,sans-Serif" font-size="10.00">print_NMEA_rmc</text>
</a>
</g>
</g>
<!-- Node6&#45;&gt;Node20 -->
<g id="edge24_Node000006_Node000020" class="edge">
<title>Node6&#45;&gt;Node20</title>
<g id="a_edge24_Node000006_Node000020"><a xlink:title=" ">
<path fill="none" stroke="#63b8ff" d="M703.59,-221.97C710.29,-193.62 733.92,-109.09 786,-64.5 787.5,-63.22 789.09,-62.02 790.76,-60.91"/>
<polygon fill="#63b8ff" stroke="#63b8ff" points="792.5,-63.95 799.56,-56.05 789.12,-57.82 792.5,-63.95"/>
</a>
</g>
</g>
<!-- Node22 -->
<g id="Node000022" class="node">
<title>Node22</title>
<g id="a_Node000022"><a xlink:href="gps_8cpp.html#a77ab7d9e159a0a804e5467a44204eebd" target="_top" xlink:title="Stampa rotta e velocità al suolo da una sentenza $xxVTG (Track Made Good and Ground Speed).">
<polygon fill="white" stroke="#666666" points="890,-167 795,-167 795,-148 890,-148 890,-167"/>
<text text-anchor="middle" x="842.5" y="-155" font-family="Helvetica,sans-Serif" font-size="10.00">print_NMEA_vtg</text>
</a>
</g>
</g>
<!-- Node6&#45;&gt;Node22 -->
<g id="edge28_Node000006_Node000022" class="edge">
<title>Node6&#45;&gt;Node22</title>
<g id="a_edge28_Node000006_Node000022"><a xlink:title=" ">
<path fill="none" stroke="#63b8ff" d="M714.08,-221.88C730.09,-209.98 758.94,-189.69 786,-176.5 790.35,-174.38 794.99,-172.39 799.68,-170.56"/>
<polygon fill="#63b8ff" stroke="#63b8ff" points="801.09,-173.77 809.26,-167.03 798.66,-167.21 801.09,-173.77"/>
</a>
</g>
</g>
<!-- Node23 -->
<g id="Node000023" class="node">
<title>Node23</title>
<g id="a_Node000023"><a xlink:href="gps_8cpp.html#ac1555845e4e7fe4d8de83d57a2a6c949" target="_top" xlink:title="Stampa data e ora UTC da una sentenza $xxZDA (Time &amp; Date).">
<polygon fill="white" stroke="#666666" points="890.5,-389 794.5,-389 794.5,-370 890.5,-370 890.5,-389"/>
<text text-anchor="middle" x="842.5" y="-377" font-family="Helvetica,sans-Serif" font-size="10.00">print_NMEA_zda</text>
</a>
</g>
</g>
<!-- Node6&#45;&gt;Node23 -->
<g id="edge30_Node000006_Node000023" class="edge">
<title>Node6&#45;&gt;Node23</title>
<g id="a_edge30_Node000006_Node000023"><a xlink:title=" ">
<path fill="none" stroke="#63b8ff" d="M705.15,-241.28C714.64,-265.38 742.42,-328.09 786,-361.5 787.8,-362.88 789.7,-364.15 791.68,-365.33"/>
<polygon fill="#63b8ff" stroke="#63b8ff" points="790.26,-368.53 800.76,-369.9 793.41,-362.28 790.26,-368.53"/>
</a>
</g>
</g>
<!-- Node8 -->
<g id="Node000008" class="node">
<title>Node8</title>
<g id="a_Node000008"><a xlink:href="minmea_8c.html#a15e9012d03411f7471ca65649f206cc0" target="_top" xlink:title=" ">
<polygon fill="white" stroke="#666666" points="1027,-296 942,-296 942,-277 1027,-277 1027,-296"/>
<text text-anchor="middle" x="984.5" y="-284" font-family="Helvetica,sans-Serif" font-size="10.00">minmea_scan</text>
</a>
</g>
</g>
<!-- Node7&#45;&gt;Node8 -->
<g id="edge7_Node000007_Node000008" class="edge">
<title>Node7&#45;&gt;Node8</title>
<g id="a_edge7_Node000007_Node000008"><a xlink:title=" ">
<path fill="none" stroke="#63b8ff" d="M899.23,-275.67C909.98,-277.05 921.2,-278.49 931.81,-279.85"/>
<polygon fill="#63b8ff" stroke="#63b8ff" points="931.4,-283.33 941.77,-281.13 932.29,-276.39 931.4,-283.33"/>
</a>
</g>
</g>
<!-- Node9 -->
<g id="Node000009" class="node">
<title>Node9</title>
<g id="a_Node000009"><a xlink:href="minmea_8h.html#acd31fbf84ad0c2e5dac349ca993248be" target="_top" xlink:title=" ">
<polygon fill="white" stroke="#666666" points="1162,-296 1070,-296 1070,-277 1162,-277 1162,-296"/>
<text text-anchor="middle" x="1116" y="-284" font-family="Helvetica,sans-Serif" font-size="10.00">minmea_isfield</text>
</a>
</g>
</g>
<!-- Node8&#45;&gt;Node9 -->
<g id="edge8_Node000008_Node000009" class="edge">
<title>Node8&#45;&gt;Node9</title>
<g id="a_edge8_Node000008_Node000009"><a xlink:title=" ">
<path fill="none" stroke="#63b8ff" d="M1027.19,-286.5C1037.5,-286.5 1048.7,-286.5 1059.56,-286.5"/>
<polygon fill="#63b8ff" stroke="#63b8ff" points="1059.81,-290 1069.81,-286.5 1059.81,-283 1059.81,-290"/>
</a>
</g>
</g>
<!-- Node10&#45;&gt;Node8 -->
<g id="edge10_Node000010_Node000008" class="edge">
<title>Node10&#45;&gt;Node8</title>
<g id="a_edge10_Node000010_Node000008"><a xlink:title=" ">
<path fill="none" stroke="#63b8ff" d="M872.74,-241.06C881.25,-243.97 890.54,-247.25 899,-250.5 917,-257.41 936.85,-265.82 952.78,-272.77"/>
<polygon fill="#63b8ff" stroke="#63b8ff" points="951.58,-276.07 962.14,-276.89 954.4,-269.66 951.58,-276.07"/>
</a>
</g>
</g>
<!-- Node11&#45;&gt;Node8 -->
<g id="edge12_Node000011_Node000008" class="edge">
<title>Node11&#45;&gt;Node8</title>
<g id="a_edge12_Node000011_Node000008"><a xlink:title=" ">
<path fill="none" stroke="#63b8ff" d="M878.15,-204.07C885.27,-206.66 892.55,-209.8 899,-213.5 925.58,-228.76 951.57,-253.02 967.55,-269.34"/>
<polygon fill="#63b8ff" stroke="#63b8ff" points="965.1,-271.85 974.55,-276.64 970.15,-267 965.1,-271.85"/>
</a>
</g>
</g>
<!-- Node12&#45;&gt;Node8 -->
<g id="edge14_Node000012_Node000008" class="edge">
<title>Node12&#45;&gt;Node8</title>
<g id="a_edge14_Node000012_Node000008"><a xlink:title=" ">
<path fill="none" stroke="#63b8ff" d="M885,-443.9C890.02,-441.65 894.84,-438.89 899,-435.5 941.88,-400.52 967.06,-337.68 977.63,-305.95"/>
<polygon fill="#63b8ff" stroke="#63b8ff" points="981.06,-306.72 980.76,-296.13 974.39,-304.59 981.06,-306.72"/>
</a>
</g>
</g>
<!-- Node13&#45;&gt;Node8 -->
<g id="edge16_Node000013_Node000008" class="edge">
<title>Node13&#45;&gt;Node8</title>
<g id="a_edge16_Node000013_Node000008"><a xlink:title=" ">
<path fill="none" stroke="#63b8ff" d="M874.82,-333C882.77,-330.41 891.25,-327.49 899,-324.5 917.77,-317.26 938.36,-308.03 954.52,-300.48"/>
<polygon fill="#63b8ff" stroke="#63b8ff" points="956.4,-303.46 963.95,-296.02 953.41,-297.13 956.4,-303.46"/>
</a>
</g>
</g>
<!-- Node14&#45;&gt;Node8 -->
<g id="edge18_Node000014_Node000008" class="edge">
<title>Node14&#45;&gt;Node8</title>
<g id="a_edge18_Node000014_Node000008"><a xlink:title=" ">
<path fill="none" stroke="#63b8ff" d="M898.83,-297.99C909.72,-296.51 921.11,-294.97 931.87,-293.51"/>
<polygon fill="#63b8ff" stroke="#63b8ff" points="932.52,-296.95 941.96,-292.14 931.58,-290.01 932.52,-296.95"/>
</a>
</g>
</g>
<!-- Node17 -->
<g id="Node000017" class="node">
<title>Node17</title>
<g id="a_Node000017"><a xlink:href="minmea_8h.html#a7d5b32164f339789b22446e5bfc1afbc" target="_top" xlink:title=" ">
<polygon fill="white" stroke="#666666" points="1033.5,-56 935.5,-56 935.5,-37 1033.5,-37 1033.5,-56"/>
<text text-anchor="middle" x="984.5" y="-44" font-family="Helvetica,sans-Serif" font-size="10.00">minmea_rescale</text>
</a>
</g>
</g>
<!-- Node16&#45;&gt;Node17 -->
<g id="edge21_Node000016_Node000017" class="edge">
<title>Node16&#45;&gt;Node17</title>
<g id="a_edge21_Node000016_Node000017"><a xlink:title=" ">
<path fill="none" stroke="#63b8ff" d="M879.55,-73.97C897.13,-69.33 918.48,-63.68 937.25,-58.72"/>
<polygon fill="#63b8ff" stroke="#63b8ff" points="938.31,-62.06 947.08,-56.12 936.52,-55.3 938.31,-62.06"/>
</a>
</g>
</g>
<!-- Node18 -->
<g id="Node000018" class="node">
<title>Node18</title>
<g id="a_Node000018"><a xlink:href="minmea_8h.html#ac7f8c6a8f35e4181b7f376560fef677b" target="_top" xlink:title=" ">
<polygon fill="white" stroke="#666666" points="1031.5,-93 937.5,-93 937.5,-74 1031.5,-74 1031.5,-93"/>
<text text-anchor="middle" x="984.5" y="-81" font-family="Helvetica,sans-Serif" font-size="10.00">minmea_tofloat</text>
</a>
</g>
</g>
<!-- Node16&#45;&gt;Node18 -->
<g id="edge22_Node000016_Node000018" class="edge">
<title>Node16&#45;&gt;Node18</title>
<g id="a_edge22_Node000016_Node000018"><a xlink:title=" ">
<path fill="none" stroke="#63b8ff" d="M889.73,-83.5C901.68,-83.5 914.67,-83.5 927.08,-83.5"/>
<polygon fill="#63b8ff" stroke="#63b8ff" points="927.32,-87 937.32,-83.5 927.32,-80 927.32,-87"/>
</a>
</g>
</g>
<!-- Node20&#45;&gt;Node17 -->
<g id="edge25_Node000020_Node000017" class="edge">
<title>Node20&#45;&gt;Node17</title>
<g id="a_edge25_Node000020_Node000017"><a xlink:title=" ">
<path fill="none" stroke="#63b8ff" d="M891.68,-46.5C902.46,-46.5 914.01,-46.5 925.15,-46.5"/>
<polygon fill="#63b8ff" stroke="#63b8ff" points="925.23,-50 935.23,-46.5 925.23,-43 925.23,-50"/>
</a>
</g>
</g>
<!-- Node20&#45;&gt;Node18 -->
<g id="edge27_Node000020_Node000018" class="edge">
<title>Node20&#45;&gt;Node18</title>
<g id="a_edge27_Node000020_Node000018"><a xlink:title=" ">
<path fill="none" stroke="#63b8ff" d="M879.55,-56.03C897.13,-60.67 918.48,-66.32 937.25,-71.28"/>
<polygon fill="#63b8ff" stroke="#63b8ff" points="936.52,-74.7 947.08,-73.88 938.31,-67.94 936.52,-74.7"/>
</a>
</g>
</g>
<!-- Node21 -->
<g id="Node000021" class="node">
<title>Node21</title>
<g id="a_Node000021"><a xlink:href="minmea_8h.html#a82cdc79749798023b4a1952faf84f1ca" target="_top" xlink:title=" ">
<polygon fill="white" stroke="#666666" points="1034,-19 935,-19 935,0 1034,0 1034,-19"/>
<text text-anchor="middle" x="984.5" y="-7" font-family="Helvetica,sans-Serif" font-size="10.00">minmea_tocoord</text>
</a>
</g>
</g>
<!-- Node20&#45;&gt;Node21 -->
<g id="edge26_Node000020_Node000021" class="edge">
<title>Node20&#45;&gt;Node21</title>
<g id="a_edge26_Node000020_Node000021"><a xlink:title=" ">
<path fill="none" stroke="#63b8ff" d="M879.55,-36.97C897.13,-32.33 918.48,-26.68 937.25,-21.72"/>
<polygon fill="#63b8ff" stroke="#63b8ff" points="938.31,-25.06 947.08,-19.12 936.52,-18.3 938.31,-25.06"/>
</a>
</g>
</g>
<!-- Node22&#45;&gt;Node18 -->
<g id="edge29_Node000022_Node000018" class="edge">
<title>Node22&#45;&gt;Node18</title>
<g id="a_edge29_Node000022_Node000018"><a xlink:title=" ">
<path fill="none" stroke="#63b8ff" d="M875.74,-147.97C883.51,-145.26 891.68,-142.07 899,-138.5 921.84,-127.37 945.94,-111.19 962.53,-99.25"/>
<polygon fill="#63b8ff" stroke="#63b8ff" points="964.91,-101.85 970.92,-93.12 960.78,-96.2 964.91,-101.85"/>
</a>
</g>
</g>
<!-- Node24&#45;&gt;Node5 -->
<g id="edge32_Node000024_Node000005" class="edge">
<title>Node24&#45;&gt;Node5</title>
<g id="a_edge32_Node000024_Node000005"><a xlink:title=" ">
<path fill="none" stroke="#63b8ff" d="M493.1,-212.5C504.38,-212.5 515.73,-212.5 526.15,-212.5"/>
<polygon fill="#63b8ff" stroke="#63b8ff" points="526.22,-216 536.22,-212.5 526.22,-209 526.22,-216"/>
</a>
</g>
</g>
<!-- Node25&#45;&gt;Node21 -->
<g id="edge34_Node000025_Node000021" class="edge">
<title>Node25&#45;&gt;Node21</title>
<g id="a_edge34_Node000025_Node000021"><a xlink:title=" ">
<path fill="none" stroke="#63b8ff" d="M615,-24.76C688.56,-21.71 840.85,-15.41 924.79,-11.93"/>
<polygon fill="#63b8ff" stroke="#63b8ff" points="925.08,-15.42 934.93,-11.51 924.79,-8.43 925.08,-15.42"/>
</a>
</g>
</g>
<!-- Node27 -->
<g id="Node000027" class="node">
<title>Node27</title>
<g id="a_Node000027"><a xlink:href="Filesystem_8cpp.html#af3f1e5af9825fbd3178a8dd29ec898ff" target="_top" xlink:title="Inizializza il filesystem FatFS sulla memoria Flash.">
<polygon fill="white" stroke="#666666" points="310,-128 235,-128 235,-109 310,-109 310,-128"/>
<text text-anchor="middle" x="272.5" y="-116" font-family="Helvetica,sans-Serif" font-size="10.00">FatFS_Setup</text>
</a>
</g>
</g>
<!-- Node26&#45;&gt;Node27 -->
<g id="edge37_Node000026_Node000027" class="edge">
<title>Node26&#45;&gt;Node27</title>
<g id="a_edge37_Node000026_Node000027"><a xlink:title=" ">
<path fill="none" stroke="#63b8ff" d="M172.21,-118.5C188.04,-118.5 207.48,-118.5 224.96,-118.5"/>
<polygon fill="#63b8ff" stroke="#63b8ff" points="224.98,-122 234.98,-118.5 224.98,-115 224.98,-122"/>
</a>
</g>
</g>
</g>
</svg>

<g id="navigator" transform="translate(0 0)" fill="#404254">
  <rect fill="#f2f5e9" fill-opacity="0.5" stroke="#606060" stroke-width=".5" x="0" y="0" width="60" height="60"/>
  <use id="zoomplus" xlink:href="#zoomPlus" x="17" y="9" onmousedown="handleZoom(evt,'in')"/>
  <use id="zoomminus" xlink:href="#zoomMin" x="42" y="9" onmousedown="handleZoom(evt,'out')"/>
  <use id="reset" xlink:href="#resetDef" x="30" y="36" onmousedown="handleReset()"/>
   <use id="arrowup" xlink:href="#arrowUp" x="0" y="0" onmousedown="handlePan(0,-1)"/>
  <use id="arrowright" xlink:href="#arrowRight" x="0" y="0" onmousedown="handlePan(1,0)"/>
  <use id="arrowdown" xlink:href="#arrowDown" x="0" y="0" onmousedown="handlePan(0,1)"/>
  <use id="arrowleft" xlink:href="#arrowLeft" x="0" y="0" onmousedown="handlePan(-1,0)"/>
</g>
<svg viewBox="0 0 15 15" width="100%" height="30px" preserveAspectRatio="xMaxYMin meet">
 <g id="arrow_out" transform="scale(0.3 0.3)">
  <a xlink:href="main_8cpp_a39ceba300a80e348e278539f57e0ca79_cgraph_org.svg" target="_base">
   <rect id="button" ry="5" rx="5" y="6" x="6" height="38" width="38"
        fill="#f2f5e9" fill-opacity="0.5" stroke="#606060" stroke-width="1.0"/>
   <path id="arrow"
     d="M 11.500037,31.436501 C 11.940474,20.09759 22.043105,11.32322 32.158766,21.979434 L 37.068811,17.246167 C 37.068811,17.246167 37.088388,32 37.088388,32 L 22.160133,31.978069 C 22.160133,31.978069 26.997745,27.140456 26.997745,27.140456 C 18.528582,18.264221 13.291696,25.230495 11.500037,31.436501 z"
     style="fill:#404040;"/>
  </a>
 </g>
</svg>

<style type='text/css'>
<![CDATA[
[data-mouse-over-selected='false'] { opacity: 0.7; }
[data-mouse-over-selected='true']  { opacity: 1.0; }
]]>
</style>
<script type="application/ecmascript"><![CDATA[
document.addEventListener('DOMContentLoaded', (event) => {
  highlightEdges();
  highlightAdjacentNodes();
});
]]></script>
</svg>
