<?xml version="1.0" encoding="UTF-8" standalone="no"?>
<!DOCTYPE svg PUBLIC "-//W3C//DTD SVG 1.1//EN"
 "http://www.w3.org/Graphics/SVG/1.1/DTD/svg11.dtd">
<!-- Generated by graphviz version 2.43.0 (0)
 -->
<!-- Title: src/main.cpp Pages: 1 -->
<svg width="1265pt" height="302pt"
 viewBox="0.00 0.00 1264.50 302.00" xmlns="http://www.w3.org/2000/svg" xmlns:xlink="http://www.w3.org/1999/xlink">
<g id="graph0" class="graph" transform="scale(1 1) rotate(0) translate(4 298)">
<title>src/main.cpp</title>
<!-- Node1 -->
<g id="Node000001" class="node">
<title>Node1</title>
<g id="a_Node000001"><a xlink:title="Orchestratore di sistema e gestione Multicore.">
<polygon fill="#999999" stroke="#666666" points="763,-294 684,-294 684,-275 763,-275 763,-294"/>
<text text-anchor="middle" x="723.5" y="-282" font-family="Helvetica,sans-Serif" font-size="10.00">src/main.cpp</text>
</a>
</g>
</g>
<!-- Node2 -->
<g id="Node000002" class="node">
<title>Node2</title>
<g id="a_Node000002"><a xlink:href="buttons_8h.html" target="_top" xlink:title="Definizioni e prototipi per la gestione degli input utente e della UI.">
<polygon fill="white" stroke="#666666" points="618,-239 511,-239 511,-220 618,-220 618,-239"/>
<text text-anchor="middle" x="564.5" y="-227" font-family="Helvetica,sans-Serif" font-size="10.00">Modules/buttons.h</text>
</a>
</g>
</g>
<!-- Node1&#45;&gt;Node2 -->
<g id="edge1_Node000001_Node000002" class="edge">
<title>Node1&#45;&gt;Node2</title>
<g id="a_edge1_Node000001_Node000002"><a xlink:title=" ">
<path fill="none" stroke="#63b8ff" d="M697.95,-274.98C671.38,-266.13 629.56,-252.19 599.83,-242.28"/>
<polygon fill="#63b8ff" stroke="#63b8ff" points="600.84,-238.92 590.25,-239.08 598.63,-245.56 600.84,-238.92"/>
</a>
</g>
</g>
<!-- Node4 -->
<g id="Node000004" class="node">
<title>Node4</title>
<g id="a_Node000004"><a xlink:title=" ">
<polygon fill="#e0e0e0" stroke="#999999" points="89.5,-74 13.5,-74 13.5,-55 89.5,-55 89.5,-74"/>
<text text-anchor="middle" x="51.5" y="-62" font-family="Helvetica,sans-Serif" font-size="10.00">pico/stdlib.h</text>
</a>
</g>
</g>
<!-- Node1&#45;&gt;Node4 -->
<g id="edge44_Node000001_Node000004" class="edge">
<title>Node1&#45;&gt;Node4</title>
<g id="a_edge44_Node000001_Node000004"><a xlink:title=" ">
<path fill="none" stroke="#63b8ff" d="M683.67,-281.53C591.51,-275.86 357.67,-255.04 177.5,-184 131.75,-165.96 114.87,-165.11 81.5,-129 69.62,-116.14 61.63,-97.73 56.9,-84.03"/>
<polygon fill="#63b8ff" stroke="#63b8ff" points="60.16,-82.74 53.8,-74.26 53.49,-84.86 60.16,-82.74"/>
</a>
</g>
</g>
<!-- Node5 -->
<g id="Node000005" class="node">
<title>Node5</title>
<g id="a_Node000005"><a xlink:title=" ">
<polygon fill="#e0e0e0" stroke="#999999" points="917,-74 822,-74 822,-55 917,-55 917,-74"/>
<text text-anchor="middle" x="869.5" y="-62" font-family="Helvetica,sans-Serif" font-size="10.00">hardware/gpio.h</text>
</a>
</g>
</g>
<!-- Node1&#45;&gt;Node5 -->
<g id="edge43_Node000001_Node000005" class="edge">
<title>Node1&#45;&gt;Node5</title>
<g id="a_edge43_Node000001_Node000005"><a xlink:title=" ">
<path fill="none" stroke="#63b8ff" d="M746.36,-274.88C764.01,-267.38 788.26,-255.19 805.5,-239 847.57,-199.5 858.54,-184.46 874.5,-129 878.71,-114.37 876.94,-97.11 874.41,-84.28"/>
<polygon fill="#63b8ff" stroke="#63b8ff" points="877.78,-83.29 872.13,-74.32 870.96,-84.85 877.78,-83.29"/>
</a>
</g>
</g>
<!-- Node6 -->
<g id="Node000006" class="node">
<title>Node6</title>
<g id="a_Node000006"><a xlink:href="display__ui_8h.html" target="_top" xlink:title="Definizioni hardware e prototipi per l&#39;interfaccia utente OLED.">
<polygon fill="white" stroke="#666666" points="520,-184 445,-184 445,-165 520,-165 520,-184"/>
<text text-anchor="middle" x="482.5" y="-172" font-family="Helvetica,sans-Serif" font-size="10.00">display_ui.h</text>
</a>
</g>
</g>
<!-- Node1&#45;&gt;Node6 -->
<g id="edge40_Node000001_Node000006" class="edge">
<title>Node1&#45;&gt;Node6</title>
<g id="a_edge40_Node000001_Node000006"><a xlink:title=" ">
<path fill="none" stroke="#63b8ff" d="M683.8,-280.41C627.33,-275.22 527.72,-262.89 501.5,-239 489.15,-227.75 484.7,-208.83 483.16,-194.57"/>
<polygon fill="#63b8ff" stroke="#63b8ff" points="486.63,-194.09 482.45,-184.36 479.65,-194.58 486.63,-194.09"/>
</a>
</g>
</g>
<!-- Node11 -->
<g id="Node000011" class="node">
<title>Node11</title>
<g id="a_Node000011"><a xlink:href="temp_8h.html" target="_top" xlink:title="Definizioni hardware e prototipi per la lettura della temperatura.">
<polygon fill="white" stroke="#666666" points="672,-129 621,-129 621,-110 672,-110 672,-129"/>
<text text-anchor="middle" x="646.5" y="-117" font-family="Helvetica,sans-Serif" font-size="10.00">temp.h</text>
</a>
</g>
</g>
<!-- Node1&#45;&gt;Node11 -->
<g id="edge41_Node000001_Node000011" class="edge">
<title>Node1&#45;&gt;Node11</title>
<g id="a_edge41_Node000001_Node000011"><a xlink:title=" ">
<path fill="none" stroke="#63b8ff" d="M719.36,-274.74C707.24,-249.09 671.67,-173.78 655.13,-138.78"/>
<polygon fill="#63b8ff" stroke="#63b8ff" points="658.1,-136.85 650.66,-129.31 651.77,-139.84 658.1,-136.85"/>
</a>
</g>
</g>
<!-- Node12 -->
<g id="Node000012" class="node">
<title>Node12</title>
<g id="a_Node000012"><a xlink:href="gps_8h.html" target="_top" xlink:title="Definizioni, macro e strutture per la gestione della telemetria GPS.">
<polygon fill="white" stroke="#666666" points="161,-129 118,-129 118,-110 161,-110 161,-129"/>
<text text-anchor="middle" x="139.5" y="-117" font-family="Helvetica,sans-Serif" font-size="10.00">gps.h</text>
</a>
</g>
</g>
<!-- Node1&#45;&gt;Node12 -->
<g id="edge38_Node000001_Node000012" class="edge">
<title>Node1&#45;&gt;Node12</title>
<g id="a_edge38_Node000001_Node000012"><a xlink:title=" ">
<path fill="none" stroke="#63b8ff" d="M683.79,-277.43C636.48,-269.87 555.21,-255.89 486.5,-239 405.27,-219.03 385.64,-211.1 306.5,-184 258.5,-167.56 203.66,-146.2 170.31,-132.93"/>
<polygon fill="#63b8ff" stroke="#63b8ff" points="171.27,-129.54 160.69,-129.08 168.67,-136.04 171.27,-129.54"/>
</a>
</g>
</g>
<!-- Node20 -->
<g id="Node000020" class="node">
<title>Node20</title>
<g id="a_Node000020"><a xlink:href="Filesystem_8h.html" target="_top" xlink:title="Interfaccia per la gestione del filesystem FatFS e l&#39;integrazione USB Mass Storage.">
<polygon fill="white" stroke="#666666" points="804,-74 725,-74 725,-55 804,-55 804,-74"/>
<text text-anchor="middle" x="764.5" y="-62" font-family="Helvetica,sans-Serif" font-size="10.00">Filesystem.h</text>
</a>
</g>
</g>
<!-- Node1&#45;&gt;Node20 -->
<g id="edge42_Node000001_Node000020" class="edge">
<title>Node1&#45;&gt;Node20</title>
<g id="a_edge42_Node000001_Node000020"><a xlink:title=" ">
<path fill="none" stroke="#63b8ff" d="M737.41,-274.89C760.3,-259.8 805.11,-226.12 822.5,-184 838.06,-146.31 803.93,-103.74 781.7,-81.3"/>
<polygon fill="#63b8ff" stroke="#63b8ff" points="784.04,-78.7 774.43,-74.24 779.17,-83.72 784.04,-78.7"/>
</a>
</g>
</g>
<!-- Node24 -->
<g id="Node000024" class="node">
<title>Node24</title>
<g id="a_Node000024"><a xlink:href="leds_8h.html" target="_top" xlink:title="Definizioni hardware e prototipi per la gestione dei LED RGB.">
<polygon fill="white" stroke="#666666" points="736.5,-129 690.5,-129 690.5,-110 736.5,-110 736.5,-129"/>
<text text-anchor="middle" x="713.5" y="-117" font-family="Helvetica,sans-Serif" font-size="10.00">leds.h</text>
</a>
</g>
</g>
<!-- Node1&#45;&gt;Node24 -->
<g id="edge39_Node000001_Node000024" class="edge">
<title>Node1&#45;&gt;Node24</title>
<g id="a_edge39_Node000001_Node000024"><a xlink:title=" ">
<path fill="none" stroke="#63b8ff" d="M720.39,-274.92C713.69,-255.47 698.9,-206.47 703.5,-165 704.46,-156.34 706.44,-146.91 708.39,-138.97"/>
<polygon fill="#63b8ff" stroke="#63b8ff" points="711.78,-139.83 710.93,-129.27 705.01,-138.06 711.78,-139.83"/>
</a>
</g>
</g>
<!-- Node26 -->
<g id="Node000026" class="node">
<title>Node26</title>
<g id="a_Node000026"><a xlink:href="buzzer_8h.html" target="_top" xlink:title="Definizioni e prototipi per il controllo del feedback sonoro.">
<polygon fill="white" stroke="#666666" points="814,-184 713,-184 713,-165 814,-165 814,-184"/>
<text text-anchor="middle" x="763.5" y="-172" font-family="Helvetica,sans-Serif" font-size="10.00">Modules/buzzer.h</text>
</a>
</g>
</g>
<!-- Node1&#45;&gt;Node26 -->
<g id="edge36_Node000001_Node000026" class="edge">
<title>Node1&#45;&gt;Node26</title>
<g id="a_edge36_Node000001_Node000026"><a xlink:title=" ">
<path fill="none" stroke="#63b8ff" d="M726.77,-274.66C733.31,-257.01 748.1,-217.09 756.78,-193.64"/>
<polygon fill="#63b8ff" stroke="#63b8ff" points="760.1,-194.75 760.29,-184.16 753.54,-192.32 760.1,-194.75"/>
</a>
</g>
</g>
<!-- Node27 -->
<g id="Node000027" class="node">
<title>Node27</title>
<g id="a_Node000027"><a xlink:title=" ">
<polygon fill="#e0e0e0" stroke="#999999" points="1042,-239 947,-239 947,-220 1042,-220 1042,-239"/>
<text text-anchor="middle" x="994.5" y="-227" font-family="Helvetica,sans-Serif" font-size="10.00">pico/multicore.h</text>
</a>
</g>
</g>
<!-- Node1&#45;&gt;Node27 -->
<g id="edge45_Node000001_Node000027" class="edge">
<title>Node1&#45;&gt;Node27</title>
<g id="a_edge45_Node000001_Node000027"><a xlink:title=" ">
<path fill="none" stroke="#63b8ff" d="M763.2,-275.74C810.06,-266.57 888.22,-251.29 940.55,-241.05"/>
<polygon fill="#63b8ff" stroke="#63b8ff" points="941.51,-244.43 950.65,-239.08 940.17,-237.56 941.51,-244.43"/>
</a>
</g>
</g>
<!-- Node28 -->
<g id="Node000028" class="node">
<title>Node28</title>
<g id="a_Node000028"><a xlink:title=" ">
<polygon fill="#e0e0e0" stroke="#999999" points="1140.5,-239 1060.5,-239 1060.5,-220 1140.5,-220 1140.5,-239"/>
<text text-anchor="middle" x="1100.5" y="-227" font-family="Helvetica,sans-Serif" font-size="10.00">pico/mutex.h</text>
</a>
</g>
</g>
<!-- Node1&#45;&gt;Node28 -->
<g id="edge46_Node000001_Node000028" class="edge">
<title>Node1&#45;&gt;Node28</title>
<g id="a_edge46_Node000001_Node000028"><a xlink:title=" ">
<path fill="none" stroke="#63b8ff" d="M763.2,-278.59C823.15,-271.08 940.57,-255.96 1050.48,-239.11"/>
<polygon fill="#63b8ff" stroke="#63b8ff" points="1051.06,-242.56 1060.41,-237.58 1049.99,-235.64 1051.06,-242.56"/>
</a>
</g>
</g>
<!-- Node29 -->
<g id="Node000029" class="node">
<title>Node29</title>
<g id="a_Node000029"><a xlink:title=" ">
<polygon fill="#e0e0e0" stroke="#999999" points="1256.5,-239 1158.5,-239 1158.5,-220 1256.5,-220 1256.5,-239"/>
<text text-anchor="middle" x="1207.5" y="-227" font-family="Helvetica,sans-Serif" font-size="10.00">pico/util/queue.h</text>
</a>
</g>
</g>
<!-- Node1&#45;&gt;Node29 -->
<g id="edge47_Node000001_Node000029" class="edge">
<title>Node1&#45;&gt;Node29</title>
<g id="a_edge47_Node000001_Node000029"><a xlink:title=" ">
<path fill="none" stroke="#63b8ff" d="M763.21,-279.91C836.91,-273.12 1000.11,-257.52 1148.28,-239.1"/>
<polygon fill="#63b8ff" stroke="#63b8ff" points="1148.98,-242.54 1158.47,-237.83 1148.11,-235.6 1148.98,-242.54"/>
</a>
</g>
</g>
<!-- Node3 -->
<g id="Node000003" class="node">
<title>Node3</title>
<g id="a_Node000003"><a xlink:title=" ">
<polygon fill="#e0e0e0" stroke="#999999" points="624,-74 561,-74 561,-55 624,-55 624,-74"/>
<text text-anchor="middle" x="592.5" y="-62" font-family="Helvetica,sans-Serif" font-size="10.00">Arduino.h</text>
</a>
</g>
</g>
<!-- Node2&#45;&gt;Node3 -->
<g id="edge2_Node000002_Node000003" class="edge">
<title>Node2&#45;&gt;Node3</title>
<g id="a_edge2_Node000002_Node000003"><a xlink:title=" ">
<path fill="none" stroke="#63b8ff" d="M566.01,-219.74C570.39,-194.2 583.24,-119.43 589.28,-84.23"/>
<polygon fill="#63b8ff" stroke="#63b8ff" points="592.74,-84.76 590.99,-74.31 585.84,-83.57 592.74,-84.76"/>
</a>
</g>
</g>
<!-- Node2&#45;&gt;Node4 -->
<g id="edge3_Node000002_Node000004" class="edge">
<title>Node2&#45;&gt;Node4</title>
<g id="a_edge3_Node000002_Node000004"><a xlink:title=" ">
<path fill="none" stroke="#63b8ff" d="M510.68,-228.1C420.74,-225.1 237.1,-208.75 108.5,-129 89.5,-117.22 73.09,-97.25 62.82,-82.85"/>
<polygon fill="#63b8ff" stroke="#63b8ff" points="65.53,-80.61 56.99,-74.33 59.75,-84.56 65.53,-80.61"/>
</a>
</g>
</g>
<!-- Node2&#45;&gt;Node5 -->
<g id="edge4_Node000002_Node000005" class="edge">
<title>Node2&#45;&gt;Node5</title>
<g id="a_edge4_Node000002_Node000005"><a xlink:title=" ">
<path fill="none" stroke="#63b8ff" d="M618.08,-225.36C684.27,-220.46 791.89,-208.85 822.5,-184 853.33,-158.97 864.03,-110.8 867.68,-84.24"/>
<polygon fill="#63b8ff" stroke="#63b8ff" points="871.19,-84.35 868.87,-74.01 864.23,-83.53 871.19,-84.35"/>
</a>
</g>
</g>
<!-- Node2&#45;&gt;Node6 -->
<g id="edge5_Node000002_Node000006" class="edge">
<title>Node2&#45;&gt;Node6</title>
<g id="a_edge5_Node000002_Node000006"><a xlink:title=" ">
<path fill="none" stroke="#63b8ff" d="M546.21,-219.98C531.95,-211.92 512.64,-199.65 498.89,-190.03"/>
<polygon fill="#63b8ff" stroke="#63b8ff" points="500.92,-187.18 490.77,-184.17 496.83,-192.86 500.92,-187.18"/>
</a>
</g>
</g>
<!-- Node2&#45;&gt;Node12 -->
<g id="edge35_Node000002_Node000012" class="edge">
<title>Node2&#45;&gt;Node12</title>
<g id="a_edge35_Node000002_Node000012"><a xlink:title=" ">
<path fill="none" stroke="#63b8ff" d="M529.27,-219.99C461.75,-203.61 309.23,-166.22 171.03,-129.36"/>
<polygon fill="#63b8ff" stroke="#63b8ff" points="171.67,-125.91 161.11,-126.7 169.87,-132.67 171.67,-125.91"/>
</a>
</g>
</g>
<!-- Node2&#45;&gt;Node24 -->
<g id="edge34_Node000002_Node000024" class="edge">
<title>Node2&#45;&gt;Node24</title>
<g id="a_edge34_Node000002_Node000024"><a xlink:title=" ">
<path fill="none" stroke="#63b8ff" d="M576.44,-219.84C601.83,-201.44 661.44,-158.23 693.03,-135.34"/>
<polygon fill="#63b8ff" stroke="#63b8ff" points="695.46,-137.9 701.5,-129.2 691.35,-132.23 695.46,-137.9"/>
</a>
</g>
</g>
<!-- Node6&#45;&gt;Node2 -->
<g id="edge11_Node000006_Node000002" class="edge">
<title>Node6&#45;&gt;Node2</title>
<g id="a_edge11_Node000006_Node000002"><a xlink:title=" ">
<path fill="none" stroke="#63b8ff" d="M501.06,-184.17C515.25,-192.21 534.33,-204.34 547.98,-213.88"/>
<polygon fill="#63b8ff" stroke="#63b8ff" points="546.28,-216.97 556.44,-219.98 550.38,-211.29 546.28,-216.97"/>
</a>
</g>
</g>
<!-- Node6&#45;&gt;Node3 -->
<g id="edge6_Node000006_Node000003" class="edge">
<title>Node6&#45;&gt;Node3</title>
<g id="a_edge6_Node000006_Node000003"><a xlink:title=" ">
<path fill="none" stroke="#63b8ff" d="M493.19,-165C503.94,-156.3 520.84,-142.22 534.5,-129 550.34,-113.66 567.2,-94.89 578.64,-81.75"/>
<polygon fill="#63b8ff" stroke="#63b8ff" points="581.42,-83.88 585.3,-74.02 576.12,-79.31 581.42,-83.88"/>
</a>
</g>
</g>
<!-- Node7 -->
<g id="Node000007" class="node">
<title>Node7</title>
<g id="a_Node000007"><a xlink:title=" ">
<polygon fill="#e0e0e0" stroke="#999999" points="394.5,-129 304.5,-129 304.5,-110 394.5,-110 394.5,-129"/>
<text text-anchor="middle" x="349.5" y="-117" font-family="Helvetica,sans-Serif" font-size="10.00">Adafruit_GFX.h</text>
</a>
</g>
</g>
<!-- Node6&#45;&gt;Node7 -->
<g id="edge7_Node000006_Node000007" class="edge">
<title>Node6&#45;&gt;Node7</title>
<g id="a_edge7_Node000006_Node000007"><a xlink:title=" ">
<path fill="none" stroke="#63b8ff" d="M461.13,-164.98C439.35,-156.3 405.34,-142.75 380.58,-132.88"/>
<polygon fill="#63b8ff" stroke="#63b8ff" points="381.84,-129.62 371.26,-129.17 379.25,-136.12 381.84,-129.62"/>
</a>
</g>
</g>
<!-- Node8 -->
<g id="Node000008" class="node">
<title>Node8</title>
<g id="a_Node000008"><a xlink:title=" ">
<polygon fill="#e0e0e0" stroke="#999999" points="526,-129 413,-129 413,-110 526,-110 526,-129"/>
<text text-anchor="middle" x="469.5" y="-117" font-family="Helvetica,sans-Serif" font-size="10.00">Adafruit_SSD1306.h</text>
</a>
</g>
</g>
<!-- Node6&#45;&gt;Node8 -->
<g id="edge8_Node000006_Node000008" class="edge">
<title>Node6&#45;&gt;Node8</title>
<g id="a_edge8_Node000006_Node000008"><a xlink:title=" ">
<path fill="none" stroke="#63b8ff" d="M480.35,-164.75C478.63,-157.72 476.15,-147.62 474,-138.84"/>
<polygon fill="#63b8ff" stroke="#63b8ff" points="477.39,-137.97 471.61,-129.09 470.59,-139.63 477.39,-137.97"/>
</a>
</g>
</g>
<!-- Node9 -->
<g id="Node000009" class="node">
<title>Node9</title>
<g id="a_Node000009"><a xlink:title=" ">
<polygon fill="#e0e0e0" stroke="#999999" points="220,-129 179,-129 179,-110 220,-110 220,-129"/>
<text text-anchor="middle" x="199.5" y="-117" font-family="Helvetica,sans-Serif" font-size="10.00">SPI.h</text>
</a>
</g>
</g>
<!-- Node6&#45;&gt;Node9 -->
<g id="edge9_Node000006_Node000009" class="edge">
<title>Node6&#45;&gt;Node9</title>
<g id="a_edge9_Node000006_Node000009"><a xlink:title=" ">
<path fill="none" stroke="#63b8ff" d="M444.97,-168.12C397.24,-161.02 312.16,-147.45 229.85,-128.86"/>
<polygon fill="#63b8ff" stroke="#63b8ff" points="230.61,-125.45 220.09,-126.63 229.05,-132.27 230.61,-125.45"/>
</a>
</g>
</g>
<!-- Node10 -->
<g id="Node000010" class="node">
<title>Node10</title>
<g id="a_Node000010"><a xlink:title=" ">
<polygon fill="#e0e0e0" stroke="#999999" points="286.5,-129 238.5,-129 238.5,-110 286.5,-110 286.5,-129"/>
<text text-anchor="middle" x="262.5" y="-117" font-family="Helvetica,sans-Serif" font-size="10.00">Wire.h</text>
</a>
</g>
</g>
<!-- Node6&#45;&gt;Node10 -->
<g id="edge10_Node000006_Node000010" class="edge">
<title>Node6&#45;&gt;Node10</title>
<g id="a_edge10_Node000006_Node000010"><a xlink:title=" ">
<path fill="none" stroke="#63b8ff" d="M445.55,-164.92C409.86,-156.58 354.02,-143.42 296.61,-129.24"/>
<polygon fill="#63b8ff" stroke="#63b8ff" points="297.19,-125.78 286.64,-126.77 295.5,-132.57 297.19,-125.78"/>
</a>
</g>
</g>
<!-- Node6&#45;&gt;Node11 -->
<g id="edge12_Node000006_Node000011" class="edge">
<title>Node6&#45;&gt;Node11</title>
<g id="a_edge12_Node000006_Node000011"><a xlink:title=" ">
<path fill="none" stroke="#63b8ff" d="M508.85,-164.98C536.51,-156.05 580.16,-141.94 610.88,-132.01"/>
<polygon fill="#63b8ff" stroke="#63b8ff" points="612.32,-135.23 620.76,-128.82 610.16,-128.56 612.32,-135.23"/>
</a>
</g>
</g>
<!-- Node6&#45;&gt;Node12 -->
<g id="edge14_Node000006_Node000012" class="edge">
<title>Node6&#45;&gt;Node12</title>
<g id="a_edge14_Node000006_Node000012"><a xlink:title=" ">
<path fill="none" stroke="#63b8ff" d="M444.63,-169.78C387.33,-163.8 275.06,-150.66 171.08,-129.09"/>
<polygon fill="#63b8ff" stroke="#63b8ff" points="171.55,-125.62 161.04,-126.98 170.11,-132.47 171.55,-125.62"/>
</a>
</g>
</g>
<!-- Node6&#45;&gt;Node24 -->
<g id="edge31_Node000006_Node000024" class="edge">
<title>Node6&#45;&gt;Node24</title>
<g id="a_edge31_Node000006_Node000024"><a xlink:title=" ">
<path fill="none" stroke="#63b8ff" d="M520.17,-165.4C560.06,-156.73 624.84,-142.42 680.5,-129 680.6,-128.98 680.7,-128.95 680.8,-128.93"/>
<polygon fill="#63b8ff" stroke="#63b8ff" points="681.58,-132.34 690.44,-126.54 679.9,-125.55 681.58,-132.34"/>
</a>
</g>
</g>
<!-- Node11&#45;&gt;Node3 -->
<g id="edge13_Node000011_Node000003" class="edge">
<title>Node11&#45;&gt;Node3</title>
<g id="a_edge13_Node000011_Node000003"><a xlink:title=" ">
<path fill="none" stroke="#63b8ff" d="M637.58,-109.75C629.72,-102.03 618.07,-90.6 608.58,-81.28"/>
<polygon fill="#63b8ff" stroke="#63b8ff" points="610.84,-78.6 601.25,-74.09 605.94,-83.59 610.84,-78.6"/>
</a>
</g>
</g>
<!-- Node12&#45;&gt;Node3 -->
<g id="edge15_Node000012_Node000003" class="edge">
<title>Node12&#45;&gt;Node3</title>
<g id="a_edge15_Node000012_Node000003"><a xlink:title=" ">
<path fill="none" stroke="#63b8ff" d="M161.02,-111.92C163.86,-111.2 166.74,-110.53 169.5,-110 307.65,-83.36 474.48,-71.73 550.77,-67.52"/>
<polygon fill="#63b8ff" stroke="#63b8ff" points="551.12,-71 560.92,-66.97 550.75,-64.01 551.12,-71"/>
</a>
</g>
</g>
<!-- Node12&#45;&gt;Node4 -->
<g id="edge24_Node000012_Node000004" class="edge">
<title>Node12&#45;&gt;Node4</title>
<g id="a_edge24_Node000012_Node000004"><a xlink:title=" ">
<path fill="none" stroke="#63b8ff" d="M125.36,-109.98C111.71,-101.77 90.81,-89.18 74.72,-79.49"/>
<polygon fill="#63b8ff" stroke="#63b8ff" points="76.27,-76.33 65.9,-74.17 72.66,-82.33 76.27,-76.33"/>
</a>
</g>
</g>
<!-- Node12&#45;&gt;Node5 -->
<g id="edge25_Node000012_Node000005" class="edge">
<title>Node12&#45;&gt;Node5</title>
<g id="a_edge25_Node000012_Node000005"><a xlink:title=" ">
<path fill="none" stroke="#63b8ff" d="M161,-111.8C163.84,-111.09 166.72,-110.47 169.5,-110 448.48,-63.26 525.95,-102.2 811.7,-73.96"/>
<polygon fill="#63b8ff" stroke="#63b8ff" points="812.36,-77.41 821.96,-72.92 811.65,-70.44 812.36,-77.41"/>
</a>
</g>
</g>
<!-- Node13 -->
<g id="Node000013" class="node">
<title>Node13</title>
<g id="a_Node000013"><a xlink:title=" ">
<polygon fill="#e0e0e0" stroke="#999999" points="269.5,-19 221.5,-19 221.5,0 269.5,0 269.5,-19"/>
<text text-anchor="middle" x="245.5" y="-7" font-family="Helvetica,sans-Serif" font-size="10.00">time.h</text>
</a>
</g>
</g>
<!-- Node12&#45;&gt;Node13 -->
<g id="edge16_Node000012_Node000013" class="edge">
<title>Node12&#45;&gt;Node13</title>
<g id="a_edge16_Node000012_Node000013"><a xlink:title=" ">
<path fill="none" stroke="#63b8ff" d="M161.2,-112.74C180.96,-106.41 209.56,-94.34 226.5,-74 236.97,-61.43 241.67,-43.23 243.78,-29.54"/>
<polygon fill="#63b8ff" stroke="#63b8ff" points="247.29,-29.66 245.01,-19.32 240.34,-28.82 247.29,-29.66"/>
</a>
</g>
</g>
<!-- Node14 -->
<g id="Node000014" class="node">
<title>Node14</title>
<g id="a_Node000014"><a xlink:title=" ">
<polygon fill="#e0e0e0" stroke="#999999" points="341.5,-74 273.5,-74 273.5,-55 341.5,-55 341.5,-74"/>
<text text-anchor="middle" x="307.5" y="-62" font-family="Helvetica,sans-Serif" font-size="10.00">sys/time.h</text>
</a>
</g>
</g>
<!-- Node12&#45;&gt;Node14 -->
<g id="edge17_Node000012_Node000014" class="edge">
<title>Node12&#45;&gt;Node14</title>
<g id="a_edge17_Node000012_Node000014"><a xlink:title=" ">
<path fill="none" stroke="#63b8ff" d="M161.12,-111.68C188.75,-102.96 237,-87.74 270.52,-77.17"/>
<polygon fill="#63b8ff" stroke="#63b8ff" points="271.93,-80.39 280.41,-74.05 269.82,-73.72 271.93,-80.39"/>
</a>
</g>
</g>
<!-- Node15 -->
<g id="Node000015" class="node">
<title>Node15</title>
<g id="a_Node000015"><a xlink:href="minmea_8h.html" target="_top" xlink:title=" ">
<polygon fill="white" stroke="#666666" points="217.5,-74 107.5,-74 107.5,-55 217.5,-55 217.5,-74"/>
<text text-anchor="middle" x="162.5" y="-62" font-family="Helvetica,sans-Serif" font-size="10.00">minmea/minmea.h</text>
</a>
</g>
</g>
<!-- Node12&#45;&gt;Node15 -->
<g id="edge18_Node000012_Node000015" class="edge">
<title>Node12&#45;&gt;Node15</title>
<g id="a_edge18_Node000012_Node000015"><a xlink:title=" ">
<path fill="none" stroke="#63b8ff" d="M143.3,-109.75C146.41,-102.57 150.92,-92.18 154.79,-83.27"/>
<polygon fill="#63b8ff" stroke="#63b8ff" points="158,-84.66 158.77,-74.09 151.58,-81.87 158,-84.66"/>
</a>
</g>
</g>
<!-- Node12&#45;&gt;Node20 -->
<g id="edge26_Node000012_Node000020" class="edge">
<title>Node12&#45;&gt;Node20</title>
<g id="a_edge26_Node000012_Node000020"><a xlink:title=" ">
<path fill="none" stroke="#63b8ff" d="M161.01,-111.82C163.84,-111.11 166.73,-110.48 169.5,-110 405.87,-69.19 472.21,-101.9 714.78,-73.93"/>
<polygon fill="#63b8ff" stroke="#63b8ff" points="715.45,-77.37 724.97,-72.73 714.63,-70.42 715.45,-77.37"/>
</a>
</g>
</g>
<!-- Node15&#45;&gt;Node13 -->
<g id="edge22_Node000015_Node000013" class="edge">
<title>Node15&#45;&gt;Node13</title>
<g id="a_edge22_Node000015_Node000013"><a xlink:title=" ">
<path fill="none" stroke="#63b8ff" d="M175.84,-54.98C188.59,-46.84 208.05,-34.41 223.17,-24.76"/>
<polygon fill="#63b8ff" stroke="#63b8ff" points="225.38,-27.5 231.92,-19.17 221.61,-21.6 225.38,-27.5"/>
</a>
</g>
</g>
<!-- Node16 -->
<g id="Node000016" class="node">
<title>Node16</title>
<g id="a_Node000016"><a xlink:title=" ">
<polygon fill="#e0e0e0" stroke="#999999" points="53,-19 0,-19 0,0 53,0 53,-19"/>
<text text-anchor="middle" x="26.5" y="-7" font-family="Helvetica,sans-Serif" font-size="10.00">ctype.h</text>
</a>
</g>
</g>
<!-- Node15&#45;&gt;Node16 -->
<g id="edge19_Node000015_Node000016" class="edge">
<title>Node15&#45;&gt;Node16</title>
<g id="a_edge19_Node000015_Node000016"><a xlink:title=" ">
<path fill="none" stroke="#63b8ff" d="M140.65,-54.98C118.38,-46.3 83.6,-32.75 58.28,-22.88"/>
<polygon fill="#63b8ff" stroke="#63b8ff" points="59.34,-19.54 48.75,-19.17 56.79,-26.06 59.34,-19.54"/>
</a>
</g>
</g>
<!-- Node17 -->
<g id="Node000017" class="node">
<title>Node17</title>
<g id="a_Node000017"><a xlink:title=" ">
<polygon fill="#e0e0e0" stroke="#999999" points="488,-19 435,-19 435,0 488,0 488,-19"/>
<text text-anchor="middle" x="461.5" y="-7" font-family="Helvetica,sans-Serif" font-size="10.00">stdint.h</text>
</a>
</g>
</g>
<!-- Node15&#45;&gt;Node17 -->
<g id="edge20_Node000015_Node000017" class="edge">
<title>Node15&#45;&gt;Node17</title>
<g id="a_edge20_Node000015_Node000017"><a xlink:title=" ">
<path fill="none" stroke="#63b8ff" d="M210.54,-54.98C270.28,-44.4 370.94,-26.55 424.83,-17"/>
<polygon fill="#63b8ff" stroke="#63b8ff" points="425.73,-20.4 434.96,-15.2 424.5,-13.5 425.73,-20.4"/>
</a>
</g>
</g>
<!-- Node18 -->
<g id="Node000018" class="node">
<title>Node18</title>
<g id="a_Node000018"><a xlink:title=" ">
<polygon fill="#e0e0e0" stroke="#999999" points="133.5,-19 71.5,-19 71.5,0 133.5,0 133.5,-19"/>
<text text-anchor="middle" x="102.5" y="-7" font-family="Helvetica,sans-Serif" font-size="10.00">stdbool.h</text>
</a>
</g>
</g>
<!-- Node15&#45;&gt;Node18 -->
<g id="edge21_Node000015_Node000018" class="edge">
<title>Node15&#45;&gt;Node18</title>
<g id="a_edge21_Node000015_Node000018"><a xlink:title=" ">
<path fill="none" stroke="#63b8ff" d="M152.86,-54.98C143.99,-47.15 130.63,-35.34 119.89,-25.86"/>
<polygon fill="#63b8ff" stroke="#63b8ff" points="122.13,-23.17 112.32,-19.17 117.49,-28.41 122.13,-23.17"/>
</a>
</g>
</g>
<!-- Node19 -->
<g id="Node000019" class="node">
<title>Node19</title>
<g id="a_Node000019"><a xlink:title=" ">
<polygon fill="#e0e0e0" stroke="#999999" points="203,-19 152,-19 152,0 203,0 203,-19"/>
<text text-anchor="middle" x="177.5" y="-7" font-family="Helvetica,sans-Serif" font-size="10.00">math.h</text>
</a>
</g>
</g>
<!-- Node15&#45;&gt;Node19 -->
<g id="edge23_Node000015_Node000019" class="edge">
<title>Node15&#45;&gt;Node19</title>
<g id="a_edge23_Node000015_Node000019"><a xlink:title=" ">
<path fill="none" stroke="#63b8ff" d="M164.98,-54.75C166.96,-47.72 169.82,-37.62 172.31,-28.84"/>
<polygon fill="#63b8ff" stroke="#63b8ff" points="175.71,-29.66 175.07,-19.09 168.98,-27.76 175.71,-29.66"/>
</a>
</g>
</g>
<!-- Node20&#45;&gt;Node17 -->
<g id="edge29_Node000020_Node000017" class="edge">
<title>Node20&#45;&gt;Node17</title>
<g id="a_edge29_Node000020_Node000017"><a xlink:title=" ">
<path fill="none" stroke="#63b8ff" d="M724.89,-56.57C665.84,-46.24 555.56,-26.95 498.23,-16.93"/>
<polygon fill="#63b8ff" stroke="#63b8ff" points="498.62,-13.44 488.17,-15.16 497.42,-20.34 498.62,-13.44"/>
</a>
</g>
</g>
<!-- Node21 -->
<g id="Node000021" class="node">
<title>Node21</title>
<g id="a_Node000021"><a xlink:title=" ">
<polygon fill="#e0e0e0" stroke="#999999" points="856,-19 805,-19 805,0 856,0 856,-19"/>
<text text-anchor="middle" x="830.5" y="-7" font-family="Helvetica,sans-Serif" font-size="10.00">FatFS.h</text>
</a>
</g>
</g>
<!-- Node20&#45;&gt;Node21 -->
<g id="edge27_Node000020_Node000021" class="edge">
<title>Node20&#45;&gt;Node21</title>
<g id="a_edge27_Node000020_Node000021"><a xlink:title=" ">
<path fill="none" stroke="#63b8ff" d="M775.1,-54.98C784.96,-47.07 799.85,-35.11 811.72,-25.58"/>
<polygon fill="#63b8ff" stroke="#63b8ff" points="814.1,-28.16 819.7,-19.17 809.71,-22.7 814.1,-28.16"/>
</a>
</g>
</g>
<!-- Node22 -->
<g id="Node000022" class="node">
<title>Node22</title>
<g id="a_Node000022"><a xlink:title=" ">
<polygon fill="#e0e0e0" stroke="#999999" points="724,-19 653,-19 653,0 724,0 724,-19"/>
<text text-anchor="middle" x="688.5" y="-7" font-family="Helvetica,sans-Serif" font-size="10.00">FatFSUSB.h</text>
</a>
</g>
</g>
<!-- Node20&#45;&gt;Node22 -->
<g id="edge28_Node000020_Node000022" class="edge">
<title>Node20&#45;&gt;Node22</title>
<g id="a_edge28_Node000020_Node000022"><a xlink:title=" ">
<path fill="none" stroke="#63b8ff" d="M752.29,-54.98C740.72,-46.92 723.12,-34.65 709.34,-25.03"/>
<polygon fill="#63b8ff" stroke="#63b8ff" points="711.14,-22.02 700.93,-19.17 707.13,-27.76 711.14,-22.02"/>
</a>
</g>
</g>
<!-- Node23 -->
<g id="Node000023" class="node">
<title>Node23</title>
<g id="a_Node000023"><a xlink:title=" ">
<polygon fill="#e0e0e0" stroke="#999999" points="786.5,-19 742.5,-19 742.5,0 786.5,0 786.5,-19"/>
<text text-anchor="middle" x="764.5" y="-7" font-family="Helvetica,sans-Serif" font-size="10.00">VFS.h</text>
</a>
</g>
</g>
<!-- Node20&#45;&gt;Node23 -->
<g id="edge30_Node000020_Node000023" class="edge">
<title>Node20&#45;&gt;Node23</title>
<g id="a_edge30_Node000020_Node000023"><a xlink:title=" ">
<path fill="none" stroke="#63b8ff" d="M764.5,-54.75C764.5,-47.8 764.5,-37.85 764.5,-29.13"/>
<polygon fill="#63b8ff" stroke="#63b8ff" points="768,-29.09 764.5,-19.09 761,-29.09 768,-29.09"/>
</a>
</g>
</g>
<!-- Node24&#45;&gt;Node3 -->
<g id="edge32_Node000024_Node000003" class="edge">
<title>Node24&#45;&gt;Node3</title>
<g id="a_edge32_Node000024_Node000003"><a xlink:title=" ">
<path fill="none" stroke="#63b8ff" d="M694.06,-109.98C674.51,-101.42 644.12,-88.11 621.68,-78.28"/>
<polygon fill="#63b8ff" stroke="#63b8ff" points="622.86,-74.98 612.29,-74.17 620.05,-81.39 622.86,-74.98"/>
</a>
</g>
</g>
<!-- Node25 -->
<g id="Node000025" class="node">
<title>Node25</title>
<g id="a_Node000025"><a xlink:title=" ">
<polygon fill="#e0e0e0" stroke="#999999" points="706.5,-74 642.5,-74 642.5,-55 706.5,-55 706.5,-74"/>
<text text-anchor="middle" x="674.5" y="-62" font-family="Helvetica,sans-Serif" font-size="10.00">FastLED.h</text>
</a>
</g>
</g>
<!-- Node24&#45;&gt;Node25 -->
<g id="edge33_Node000024_Node000025" class="edge">
<title>Node24&#45;&gt;Node25</title>
<g id="a_edge33_Node000024_Node000025"><a xlink:title=" ">
<path fill="none" stroke="#63b8ff" d="M707.06,-109.75C701.61,-102.34 693.64,-91.5 686.94,-82.41"/>
<polygon fill="#63b8ff" stroke="#63b8ff" points="689.57,-80.07 680.82,-74.09 683.93,-84.22 689.57,-80.07"/>
</a>
</g>
</g>
<!-- Node26&#45;&gt;Node3 -->
<g id="edge37_Node000026_Node000003" class="edge">
<title>Node26&#45;&gt;Node3</title>
<g id="a_edge37_Node000026_Node000003"><a xlink:title=" ">
<path fill="none" stroke="#63b8ff" d="M763.56,-164.81C763.16,-151.22 760.36,-124.96 745.5,-110 737.47,-101.91 676.38,-85.8 633.87,-75.34"/>
<polygon fill="#63b8ff" stroke="#63b8ff" points="634.58,-71.91 624.04,-72.94 632.92,-78.71 634.58,-71.91"/>
</a>
</g>
</g>
</g>
</svg>
