<?xml version="1.0" encoding="UTF-8" standalone="no"?>
<!DOCTYPE svg PUBLIC "-//W3C//DTD SVG 1.1//EN"
 "http://www.w3.org/Graphics/SVG/1.1/DTD/svg11.dtd">
<!-- Generated by graphviz version 2.43.0 (0)
 -->
<!-- Title: src/main.cpp Pages: 1 -->
<svg width="969pt" height="302pt"
 viewBox="0.00 0.00 969.00 302.00" xmlns="http://www.w3.org/2000/svg" xmlns:xlink="http://www.w3.org/1999/xlink">
<g id="graph0" class="graph" transform="scale(1 1) rotate(0) translate(4 298)">
<title>src/main.cpp</title>
<!-- Node1 -->
<g id="Node000001" class="node">
<title>Node1</title>
<g id="a_Node000001"><a xlink:title=" ">
<polygon fill="#999999" stroke="#666666" points="565.5,-294 486.5,-294 486.5,-275 565.5,-275 565.5,-294"/>
<text text-anchor="middle" x="526" y="-282" font-family="Helvetica,sans-Serif" font-size="10.00">src/main.cpp</text>
</a>
</g>
</g>
<!-- Node2 -->
<g id="Node000002" class="node">
<title>Node2</title>
<g id="a_Node000002"><a xlink:href="buttons_8h.html" target="_top" xlink:title=" ">
<polygon fill="white" stroke="#666666" points="431.5,-239 324.5,-239 324.5,-220 431.5,-220 431.5,-239"/>
<text text-anchor="middle" x="378" y="-227" font-family="Helvetica,sans-Serif" font-size="10.00">Modules/buttons.h</text>
</a>
</g>
</g>
<!-- Node1&#45;&gt;Node2 -->
<g id="edge1_Node000001_Node000002" class="edge">
<title>Node1&#45;&gt;Node2</title>
<g id="a_edge1_Node000001_Node000002"><a xlink:title=" ">
<path fill="none" stroke="#63b8ff" d="M502.22,-274.98C477.77,-266.23 439.47,-252.51 411.85,-242.62"/>
<polygon fill="#63b8ff" stroke="#63b8ff" points="412.81,-239.25 402.21,-239.17 410.45,-245.84 412.81,-239.25"/>
</a>
</g>
</g>
<!-- Node4 -->
<g id="Node000004" class="node">
<title>Node4</title>
<g id="a_Node000004"><a xlink:title=" ">
<polygon fill="#e0e0e0" stroke="#999999" points="76,-74 0,-74 0,-55 76,-55 76,-74"/>
<text text-anchor="middle" x="38" y="-62" font-family="Helvetica,sans-Serif" font-size="10.00">pico/stdlib.h</text>
</a>
</g>
</g>
<!-- Node1&#45;&gt;Node4 -->
<g id="edge44_Node000001_Node000004" class="edge">
<title>Node1&#45;&gt;Node4</title>
<g id="a_edge44_Node000001_Node000004"><a xlink:title=" ">
<path fill="none" stroke="#63b8ff" d="M486.43,-281.67C409.36,-277.55 242.3,-265.74 192,-239 122.11,-201.84 68.77,-119.49 47.76,-83.23"/>
<polygon fill="#63b8ff" stroke="#63b8ff" points="50.67,-81.27 42.7,-74.3 44.58,-84.72 50.67,-81.27"/>
</a>
</g>
</g>
<!-- Node5 -->
<g id="Node000005" class="node">
<title>Node5</title>
<g id="a_Node000005"><a xlink:title=" ">
<polygon fill="#e0e0e0" stroke="#999999" points="189.5,-74 94.5,-74 94.5,-55 189.5,-55 189.5,-74"/>
<text text-anchor="middle" x="142" y="-62" font-family="Helvetica,sans-Serif" font-size="10.00">hardware/gpio.h</text>
</a>
</g>
</g>
<!-- Node1&#45;&gt;Node5 -->
<g id="edge43_Node000001_Node000005" class="edge">
<title>Node1&#45;&gt;Node5</title>
<g id="a_edge43_Node000001_Node000005"><a xlink:title=" ">
<path fill="none" stroke="#63b8ff" d="M486.25,-282.55C412.01,-280.03 256.02,-270.98 214,-239 163.65,-200.68 148.26,-120.8 143.76,-84.36"/>
<polygon fill="#63b8ff" stroke="#63b8ff" points="147.22,-83.72 142.66,-74.16 140.26,-84.48 147.22,-83.72"/>
</a>
</g>
</g>
<!-- Node6 -->
<g id="Node000006" class="node">
<title>Node6</title>
<g id="a_Node000006"><a xlink:href="display__ui_8h.html" target="_top" xlink:title=" ">
<polygon fill="white" stroke="#666666" points="480.5,-184 405.5,-184 405.5,-165 480.5,-165 480.5,-184"/>
<text text-anchor="middle" x="443" y="-172" font-family="Helvetica,sans-Serif" font-size="10.00">display_ui.h</text>
</a>
</g>
</g>
<!-- Node1&#45;&gt;Node6 -->
<g id="edge38_Node000001_Node000006" class="edge">
<title>Node1&#45;&gt;Node6</title>
<g id="a_edge38_Node000001_Node000006"><a xlink:title=" ">
<path fill="none" stroke="#63b8ff" d="M519.21,-274.66C505.4,-256.69 473.85,-215.64 455.98,-192.38"/>
<polygon fill="#63b8ff" stroke="#63b8ff" points="458.52,-189.95 449.65,-184.16 452.97,-194.22 458.52,-189.95"/>
</a>
</g>
</g>
<!-- Node7 -->
<g id="Node000007" class="node">
<title>Node7</title>
<g id="a_Node000007"><a xlink:href="temp_8h.html" target="_top" xlink:title=" ">
<polygon fill="white" stroke="#666666" points="788.5,-129 737.5,-129 737.5,-110 788.5,-110 788.5,-129"/>
<text text-anchor="middle" x="763" y="-117" font-family="Helvetica,sans-Serif" font-size="10.00">temp.h</text>
</a>
</g>
</g>
<!-- Node1&#45;&gt;Node7 -->
<g id="edge41_Node000001_Node000007" class="edge">
<title>Node1&#45;&gt;Node7</title>
<g id="a_edge41_Node000001_Node000007"><a xlink:title=" ">
<path fill="none" stroke="#63b8ff" d="M526.6,-274.8C528.6,-252.81 537.02,-194.67 571,-165 582.75,-154.74 675.17,-136.52 727.38,-126.88"/>
<polygon fill="#63b8ff" stroke="#63b8ff" points="728.05,-130.32 737.25,-125.08 726.78,-123.43 728.05,-130.32"/>
</a>
</g>
</g>
<!-- Node8 -->
<g id="Node000008" class="node">
<title>Node8</title>
<g id="a_Node000008"><a xlink:href="gps_8h.html" target="_top" xlink:title=" ">
<polygon fill="white" stroke="#666666" points="239.5,-129 196.5,-129 196.5,-110 239.5,-110 239.5,-129"/>
<text text-anchor="middle" x="218" y="-117" font-family="Helvetica,sans-Serif" font-size="10.00">gps.h</text>
</a>
</g>
</g>
<!-- Node1&#45;&gt;Node8 -->
<g id="edge39_Node000001_Node000008" class="edge">
<title>Node1&#45;&gt;Node8</title>
<g id="a_edge39_Node000001_Node000008"><a xlink:title=" ">
<path fill="none" stroke="#63b8ff" d="M486.49,-283.32C414.1,-282.11 264.46,-275.16 230,-239 204.53,-212.27 208.75,-165.17 213.64,-139.13"/>
<polygon fill="#63b8ff" stroke="#63b8ff" points="217.12,-139.59 215.76,-129.08 210.27,-138.14 217.12,-139.59"/>
</a>
</g>
</g>
<!-- Node16 -->
<g id="Node000016" class="node">
<title>Node16</title>
<g id="a_Node000016"><a xlink:href="Filesystem_8h.html" target="_top" xlink:title=" ">
<polygon fill="white" stroke="#666666" points="565.5,-74 486.5,-74 486.5,-55 565.5,-55 565.5,-74"/>
<text text-anchor="middle" x="526" y="-62" font-family="Helvetica,sans-Serif" font-size="10.00">Filesystem.h</text>
</a>
</g>
</g>
<!-- Node1&#45;&gt;Node16 -->
<g id="edge42_Node000001_Node000016" class="edge">
<title>Node1&#45;&gt;Node16</title>
<g id="a_edge42_Node000001_Node000016"><a xlink:title=" ">
<path fill="none" stroke="#63b8ff" d="M486.47,-280.89C431.53,-276.36 336.4,-264.9 315,-239 278.48,-194.8 276.84,-154.5 313,-110 323.28,-97.36 416.44,-81.54 476.1,-72.58"/>
<polygon fill="#63b8ff" stroke="#63b8ff" points="476.72,-76.02 486.1,-71.09 475.69,-69.1 476.72,-76.02"/>
</a>
</g>
</g>
<!-- Node20 -->
<g id="Node000020" class="node">
<title>Node20</title>
<g id="a_Node000020"><a xlink:href="leds_8h.html" target="_top" xlink:title=" ">
<polygon fill="white" stroke="#666666" points="853,-129 807,-129 807,-110 853,-110 853,-129"/>
<text text-anchor="middle" x="830" y="-117" font-family="Helvetica,sans-Serif" font-size="10.00">leds.h</text>
</a>
</g>
</g>
<!-- Node1&#45;&gt;Node20 -->
<g id="edge40_Node000001_Node000020" class="edge">
<title>Node1&#45;&gt;Node20</title>
<g id="a_edge40_Node000001_Node000020"><a xlink:title=" ">
<path fill="none" stroke="#63b8ff" d="M534.96,-274.97C548.82,-262.06 576.59,-237.24 603,-220 666.98,-178.23 751.42,-146.53 797.15,-131.03"/>
<polygon fill="#63b8ff" stroke="#63b8ff" points="798.46,-134.28 806.84,-127.8 796.24,-127.64 798.46,-134.28"/>
</a>
</g>
</g>
<!-- Node26 -->
<g id="Node000026" class="node">
<title>Node26</title>
<g id="a_Node000026"><a xlink:href="buzzer_8h.html" target="_top" xlink:title=" ">
<polygon fill="white" stroke="#666666" points="822.5,-184 721.5,-184 721.5,-165 822.5,-165 822.5,-184"/>
<text text-anchor="middle" x="772" y="-172" font-family="Helvetica,sans-Serif" font-size="10.00">Modules/buzzer.h</text>
</a>
</g>
</g>
<!-- Node1&#45;&gt;Node26 -->
<g id="edge36_Node000001_Node000026" class="edge">
<title>Node1&#45;&gt;Node26</title>
<g id="a_edge36_Node000001_Node000026"><a xlink:title=" ">
<path fill="none" stroke="#63b8ff" d="M539.89,-274.88C561.27,-261.84 603.77,-236.86 642,-220 671.81,-206.86 706.8,-195.07 732.97,-186.94"/>
<polygon fill="#63b8ff" stroke="#63b8ff" points="734.01,-190.28 742.54,-184 731.95,-183.59 734.01,-190.28"/>
</a>
</g>
</g>
<!-- Node27 -->
<g id="Node000027" class="node">
<title>Node27</title>
<g id="a_Node000027"><a xlink:title=" ">
<polygon fill="#e0e0e0" stroke="#999999" points="746.5,-239 651.5,-239 651.5,-220 746.5,-220 746.5,-239"/>
<text text-anchor="middle" x="699" y="-227" font-family="Helvetica,sans-Serif" font-size="10.00">pico/multicore.h</text>
</a>
</g>
</g>
<!-- Node1&#45;&gt;Node27 -->
<g id="edge45_Node000001_Node000027" class="edge">
<title>Node1&#45;&gt;Node27</title>
<g id="a_edge45_Node000001_Node000027"><a xlink:title=" ">
<path fill="none" stroke="#63b8ff" d="M553.8,-274.98C582.97,-266.05 629,-251.94 661.4,-242.02"/>
<polygon fill="#63b8ff" stroke="#63b8ff" points="662.45,-245.36 670.99,-239.08 660.4,-238.66 662.45,-245.36"/>
</a>
</g>
</g>
<!-- Node28 -->
<g id="Node000028" class="node">
<title>Node28</title>
<g id="a_Node000028"><a xlink:title=" ">
<polygon fill="#e0e0e0" stroke="#999999" points="845,-239 765,-239 765,-220 845,-220 845,-239"/>
<text text-anchor="middle" x="805" y="-227" font-family="Helvetica,sans-Serif" font-size="10.00">pico/mutex.h</text>
</a>
</g>
</g>
<!-- Node1&#45;&gt;Node28 -->
<g id="edge46_Node000001_Node000028" class="edge">
<title>Node1&#45;&gt;Node28</title>
<g id="a_edge46_Node000001_Node000028"><a xlink:title=" ">
<path fill="none" stroke="#63b8ff" d="M565.68,-275.96C615.29,-266.54 700.26,-250.4 754.47,-240.1"/>
<polygon fill="#63b8ff" stroke="#63b8ff" points="755.38,-243.49 764.55,-238.18 754.08,-236.61 755.38,-243.49"/>
</a>
</g>
</g>
<!-- Node29 -->
<g id="Node000029" class="node">
<title>Node29</title>
<g id="a_Node000029"><a xlink:title=" ">
<polygon fill="#e0e0e0" stroke="#999999" points="961,-239 863,-239 863,-220 961,-220 961,-239"/>
<text text-anchor="middle" x="912" y="-227" font-family="Helvetica,sans-Serif" font-size="10.00">pico/util/queue.h</text>
</a>
</g>
</g>
<!-- Node1&#45;&gt;Node29 -->
<g id="edge47_Node000001_Node000029" class="edge">
<title>Node1&#45;&gt;Node29</title>
<g id="a_edge47_Node000001_Node000029"><a xlink:title=" ">
<path fill="none" stroke="#63b8ff" d="M565.65,-278.26C625.53,-270.31 742.88,-254.63 853.01,-239.13"/>
<polygon fill="#63b8ff" stroke="#63b8ff" points="853.54,-242.59 862.96,-237.72 852.57,-235.66 853.54,-242.59"/>
</a>
</g>
</g>
<!-- Node3 -->
<g id="Node000003" class="node">
<title>Node3</title>
<g id="a_Node000003"><a xlink:title=" ">
<polygon fill="#e0e0e0" stroke="#999999" points="759.5,-74 696.5,-74 696.5,-55 759.5,-55 759.5,-74"/>
<text text-anchor="middle" x="728" y="-62" font-family="Helvetica,sans-Serif" font-size="10.00">Arduino.h</text>
</a>
</g>
</g>
<!-- Node2&#45;&gt;Node3 -->
<g id="edge2_Node000002_Node000003" class="edge">
<title>Node2&#45;&gt;Node3</title>
<g id="a_edge2_Node000002_Node000003"><a xlink:title=" ">
<path fill="none" stroke="#63b8ff" d="M368.2,-219.75C345.69,-198.62 294.48,-144.08 325,-110 336.98,-96.63 585.85,-76.3 686.4,-68.6"/>
<polygon fill="#63b8ff" stroke="#63b8ff" points="686.79,-72.08 696.5,-67.83 686.26,-65.1 686.79,-72.08"/>
</a>
</g>
</g>
<!-- Node2&#45;&gt;Node4 -->
<g id="edge3_Node000002_Node000004" class="edge">
<title>Node2&#45;&gt;Node4</title>
<g id="a_edge3_Node000002_Node000004"><a xlink:title=" ">
<path fill="none" stroke="#63b8ff" d="M342.46,-219.99C312.99,-212.33 270.35,-199.85 235,-184 166.8,-153.41 92.96,-104.17 58.23,-79.93"/>
<polygon fill="#63b8ff" stroke="#63b8ff" points="60.08,-76.95 49.89,-74.06 56.05,-82.67 60.08,-76.95"/>
</a>
</g>
</g>
<!-- Node2&#45;&gt;Node5 -->
<g id="edge4_Node000002_Node000005" class="edge">
<title>Node2&#45;&gt;Node5</title>
<g id="a_edge4_Node000002_Node000005"><a xlink:title=" ">
<path fill="none" stroke="#63b8ff" d="M353.16,-219.93C314.42,-205.67 238.7,-174.1 187,-129 172.09,-115.99 159.51,-97.09 151.48,-83.29"/>
<polygon fill="#63b8ff" stroke="#63b8ff" points="154.39,-81.33 146.46,-74.3 148.28,-84.74 154.39,-81.33"/>
</a>
</g>
</g>
<!-- Node2&#45;&gt;Node6 -->
<g id="edge5_Node000002_Node000006" class="edge">
<title>Node2&#45;&gt;Node6</title>
<g id="a_edge5_Node000002_Node000006"><a xlink:title=" ">
<path fill="none" stroke="#63b8ff" d="M383.57,-219.75C391.69,-211.72 406.14,-199.67 418.89,-190.18"/>
<polygon fill="#63b8ff" stroke="#63b8ff" points="421.27,-192.77 427.34,-184.09 417.18,-187.1 421.27,-192.77"/>
</a>
</g>
</g>
<!-- Node2&#45;&gt;Node8 -->
<g id="edge35_Node000002_Node000008" class="edge">
<title>Node2&#45;&gt;Node8</title>
<g id="a_edge35_Node000002_Node000008"><a xlink:title=" ">
<path fill="none" stroke="#63b8ff" d="M367.74,-219.79C352.54,-207.08 322.95,-183 296,-165 279.03,-153.67 259.04,-142.3 243.54,-133.89"/>
<polygon fill="#63b8ff" stroke="#63b8ff" points="245,-130.7 234.53,-129.06 241.69,-136.87 245,-130.7"/>
</a>
</g>
</g>
<!-- Node2&#45;&gt;Node20 -->
<g id="edge34_Node000002_Node000020" class="edge">
<title>Node2&#45;&gt;Node20</title>
<g id="a_edge34_Node000002_Node000020"><a xlink:title=" ">
<path fill="none" stroke="#63b8ff" d="M399.95,-220C435.42,-206.55 507.75,-180.34 571,-165 669.85,-141.03 697.42,-149.71 797,-129 797.1,-128.98 797.2,-128.96 797.3,-128.94"/>
<polygon fill="#63b8ff" stroke="#63b8ff" points="798.02,-132.36 806.99,-126.72 796.46,-125.54 798.02,-132.36"/>
</a>
</g>
</g>
<!-- Node6&#45;&gt;Node2 -->
<g id="edge6_Node000006_Node000002" class="edge">
<title>Node6&#45;&gt;Node2</title>
<g id="a_edge6_Node000006_Node000002"><a xlink:title=" ">
<path fill="none" stroke="#63b8ff" d="M437.52,-184.17C429.4,-192.21 414.84,-204.34 402.04,-213.88"/>
<polygon fill="#63b8ff" stroke="#63b8ff" points="399.63,-211.3 393.56,-219.98 403.72,-216.98 399.63,-211.3"/>
</a>
</g>
</g>
<!-- Node6&#45;&gt;Node3 -->
<g id="edge29_Node000006_Node000003" class="edge">
<title>Node6&#45;&gt;Node3</title>
<g id="a_edge29_Node000006_Node000003"><a xlink:title=" ">
<path fill="none" stroke="#63b8ff" d="M480.52,-167.15C548.56,-155.58 685.69,-131.98 690,-129 705.82,-118.06 716.13,-98.21 721.97,-83.6"/>
<polygon fill="#63b8ff" stroke="#63b8ff" points="725.29,-84.69 725.44,-74.1 718.72,-82.29 725.29,-84.69"/>
</a>
</g>
</g>
<!-- Node6&#45;&gt;Node7 -->
<g id="edge7_Node000006_Node000007" class="edge">
<title>Node6&#45;&gt;Node7</title>
<g id="a_edge7_Node000006_Node000007"><a xlink:title=" ">
<path fill="none" stroke="#63b8ff" d="M480.77,-167.3C485.56,-166.52 490.39,-165.74 495,-165 596.29,-148.73 622.12,-147.67 723,-129 724.44,-128.73 725.91,-128.45 727.39,-128.17"/>
<polygon fill="#63b8ff" stroke="#63b8ff" points="728.11,-131.59 737.22,-126.19 726.72,-124.73 728.11,-131.59"/>
</a>
</g>
</g>
<!-- Node6&#45;&gt;Node8 -->
<g id="edge9_Node000006_Node000008" class="edge">
<title>Node6&#45;&gt;Node8</title>
<g id="a_edge9_Node000006_Node000008"><a xlink:title=" ">
<path fill="none" stroke="#63b8ff" d="M406.85,-164.98C363.33,-154.73 290.96,-137.69 249.59,-127.94"/>
<polygon fill="#63b8ff" stroke="#63b8ff" points="250.31,-124.51 239.77,-125.63 248.7,-131.33 250.31,-124.51"/>
</a>
</g>
</g>
<!-- Node6&#45;&gt;Node20 -->
<g id="edge26_Node000006_Node000020" class="edge">
<title>Node6&#45;&gt;Node20</title>
<g id="a_edge26_Node000006_Node000020"><a xlink:title=" ">
<path fill="none" stroke="#63b8ff" d="M480.74,-167.13C485.54,-166.38 490.38,-165.65 495,-165 625.71,-146.54 662.43,-153.56 796.8,-128.77"/>
<polygon fill="#63b8ff" stroke="#63b8ff" points="797.46,-132.2 806.65,-126.93 796.18,-125.32 797.46,-132.2"/>
</a>
</g>
</g>
<!-- Node22 -->
<g id="Node000022" class="node">
<title>Node22</title>
<g id="a_Node000022"><a xlink:title=" ">
<polygon fill="#e0e0e0" stroke="#999999" points="424,-129 334,-129 334,-110 424,-110 424,-129"/>
<text text-anchor="middle" x="379" y="-117" font-family="Helvetica,sans-Serif" font-size="10.00">Adafruit_GFX.h</text>
</a>
</g>
</g>
<!-- Node6&#45;&gt;Node22 -->
<g id="edge30_Node000006_Node000022" class="edge">
<title>Node6&#45;&gt;Node22</title>
<g id="a_edge30_Node000006_Node000022"><a xlink:title=" ">
<path fill="none" stroke="#63b8ff" d="M432.72,-164.98C423.16,-157.07 408.72,-145.11 397.22,-135.58"/>
<polygon fill="#63b8ff" stroke="#63b8ff" points="399.4,-132.85 389.47,-129.17 394.94,-138.24 399.4,-132.85"/>
</a>
</g>
</g>
<!-- Node23 -->
<g id="Node000023" class="node">
<title>Node23</title>
<g id="a_Node000023"><a xlink:title=" ">
<polygon fill="#e0e0e0" stroke="#999999" points="555.5,-129 442.5,-129 442.5,-110 555.5,-110 555.5,-129"/>
<text text-anchor="middle" x="499" y="-117" font-family="Helvetica,sans-Serif" font-size="10.00">Adafruit_SSD1306.h</text>
</a>
</g>
</g>
<!-- Node6&#45;&gt;Node23 -->
<g id="edge31_Node000006_Node000023" class="edge">
<title>Node6&#45;&gt;Node23</title>
<g id="a_edge31_Node000006_Node000023"><a xlink:title=" ">
<path fill="none" stroke="#63b8ff" d="M452,-164.98C460.19,-157.23 472.51,-145.58 482.47,-136.14"/>
<polygon fill="#63b8ff" stroke="#63b8ff" points="484.98,-138.59 489.84,-129.17 480.17,-133.5 484.98,-138.59"/>
</a>
</g>
</g>
<!-- Node24 -->
<g id="Node000024" class="node">
<title>Node24</title>
<g id="a_Node000024"><a xlink:title=" ">
<polygon fill="#e0e0e0" stroke="#999999" points="614.5,-129 573.5,-129 573.5,-110 614.5,-110 614.5,-129"/>
<text text-anchor="middle" x="594" y="-117" font-family="Helvetica,sans-Serif" font-size="10.00">SPI.h</text>
</a>
</g>
</g>
<!-- Node6&#45;&gt;Node24 -->
<g id="edge32_Node000006_Node000024" class="edge">
<title>Node6&#45;&gt;Node24</title>
<g id="a_edge32_Node000006_Node000024"><a xlink:title=" ">
<path fill="none" stroke="#63b8ff" d="M467.26,-164.98C493.4,-155.81 535.04,-141.19 563.41,-131.24"/>
<polygon fill="#63b8ff" stroke="#63b8ff" points="564.93,-134.41 573.2,-127.8 562.61,-127.81 564.93,-134.41"/>
</a>
</g>
</g>
<!-- Node25 -->
<g id="Node000025" class="node">
<title>Node25</title>
<g id="a_Node000025"><a xlink:title=" ">
<polygon fill="#e0e0e0" stroke="#999999" points="681,-129 633,-129 633,-110 681,-110 681,-129"/>
<text text-anchor="middle" x="657" y="-117" font-family="Helvetica,sans-Serif" font-size="10.00">Wire.h</text>
</a>
</g>
</g>
<!-- Node6&#45;&gt;Node25 -->
<g id="edge33_Node000006_Node000025" class="edge">
<title>Node6&#45;&gt;Node25</title>
<g id="a_edge33_Node000006_Node000025"><a xlink:title=" ">
<path fill="none" stroke="#63b8ff" d="M477.51,-165C513.75,-156.06 572.39,-141.58 623,-129 623.1,-128.98 623.2,-128.95 623.3,-128.93"/>
<polygon fill="#63b8ff" stroke="#63b8ff" points="624,-132.36 632.86,-126.54 622.31,-125.57 624,-132.36"/>
</a>
</g>
</g>
<!-- Node7&#45;&gt;Node3 -->
<g id="edge8_Node000007_Node000003" class="edge">
<title>Node7&#45;&gt;Node3</title>
<g id="a_edge8_Node000007_Node000003"><a xlink:title=" ">
<path fill="none" stroke="#63b8ff" d="M757.22,-109.75C752.38,-102.42 745.32,-91.73 739.36,-82.7"/>
<polygon fill="#63b8ff" stroke="#63b8ff" points="742.1,-80.5 733.67,-74.09 736.26,-84.36 742.1,-80.5"/>
</a>
</g>
</g>
<!-- Node8&#45;&gt;Node3 -->
<g id="edge10_Node000008_Node000003" class="edge">
<title>Node8&#45;&gt;Node3</title>
<g id="a_edge10_Node000008_Node000003"><a xlink:title=" ">
<path fill="none" stroke="#63b8ff" d="M239.69,-115.94C254.43,-114.21 274.39,-111.91 292,-110 436.49,-94.33 608.1,-77.27 685.91,-69.62"/>
<polygon fill="#63b8ff" stroke="#63b8ff" points="686.65,-73.06 696.26,-68.6 685.96,-66.1 686.65,-73.06"/>
</a>
</g>
</g>
<!-- Node8&#45;&gt;Node4 -->
<g id="edge19_Node000008_Node000004" class="edge">
<title>Node8&#45;&gt;Node4</title>
<g id="a_edge19_Node000008_Node000004"><a xlink:title=" ">
<path fill="none" stroke="#63b8ff" d="M196.29,-112.11C166.72,-103.4 113.28,-87.67 76.75,-76.91"/>
<polygon fill="#63b8ff" stroke="#63b8ff" points="77.51,-73.48 66.92,-74.02 75.53,-80.2 77.51,-73.48"/>
</a>
</g>
</g>
<!-- Node8&#45;&gt;Node5 -->
<g id="edge20_Node000008_Node000005" class="edge">
<title>Node8&#45;&gt;Node5</title>
<g id="a_edge20_Node000008_Node000005"><a xlink:title=" ">
<path fill="none" stroke="#63b8ff" d="M205.79,-109.98C194.22,-101.92 176.62,-89.65 162.84,-80.03"/>
<polygon fill="#63b8ff" stroke="#63b8ff" points="164.64,-77.02 154.43,-74.17 160.63,-82.76 164.64,-77.02"/>
</a>
</g>
</g>
<!-- Node9 -->
<g id="Node000009" class="node">
<title>Node9</title>
<g id="a_Node000009"><a xlink:title=" ">
<polygon fill="#e0e0e0" stroke="#999999" points="219,-19 171,-19 171,0 219,0 219,-19"/>
<text text-anchor="middle" x="195" y="-7" font-family="Helvetica,sans-Serif" font-size="10.00">time.h</text>
</a>
</g>
</g>
<!-- Node8&#45;&gt;Node9 -->
<g id="edge11_Node000008_Node000009" class="edge">
<title>Node8&#45;&gt;Node9</title>
<g id="a_edge11_Node000008_Node000009"><a xlink:title=" ">
<path fill="none" stroke="#63b8ff" d="M216.12,-109.66C212.38,-92.09 203.93,-52.45 198.93,-28.95"/>
<polygon fill="#63b8ff" stroke="#63b8ff" points="202.35,-28.21 196.84,-19.16 195.5,-29.67 202.35,-28.21"/>
</a>
</g>
</g>
<!-- Node10 -->
<g id="Node000010" class="node">
<title>Node10</title>
<g id="a_Node000010"><a xlink:title=" ">
<polygon fill="#e0e0e0" stroke="#999999" points="314,-74 246,-74 246,-55 314,-55 314,-74"/>
<text text-anchor="middle" x="280" y="-62" font-family="Helvetica,sans-Serif" font-size="10.00">sys/time.h</text>
</a>
</g>
</g>
<!-- Node8&#45;&gt;Node10 -->
<g id="edge12_Node000008_Node000010" class="edge">
<title>Node8&#45;&gt;Node10</title>
<g id="a_edge12_Node000008_Node000010"><a xlink:title=" ">
<path fill="none" stroke="#63b8ff" d="M227.96,-109.98C237.13,-102.15 250.94,-90.34 262.03,-80.86"/>
<polygon fill="#63b8ff" stroke="#63b8ff" points="264.53,-83.33 269.86,-74.17 259.98,-78.01 264.53,-83.33"/>
</a>
</g>
</g>
<!-- Node11 -->
<g id="Node000011" class="node">
<title>Node11</title>
<g id="a_Node000011"><a xlink:href="minmea_8h.html" target="_top" xlink:title=" ">
<polygon fill="white" stroke="#666666" points="442,-74 332,-74 332,-55 442,-55 442,-74"/>
<text text-anchor="middle" x="387" y="-62" font-family="Helvetica,sans-Serif" font-size="10.00">minmea/minmea.h</text>
</a>
</g>
</g>
<!-- Node8&#45;&gt;Node11 -->
<g id="edge13_Node000008_Node000011" class="edge">
<title>Node8&#45;&gt;Node11</title>
<g id="a_edge13_Node000008_Node000011"><a xlink:title=" ">
<path fill="none" stroke="#63b8ff" d="M239.75,-111.68C267.54,-102.96 316.08,-87.74 349.8,-77.17"/>
<polygon fill="#63b8ff" stroke="#63b8ff" points="351.25,-80.38 359.75,-74.05 349.16,-73.7 351.25,-80.38"/>
</a>
</g>
</g>
<!-- Node8&#45;&gt;Node16 -->
<g id="edge21_Node000008_Node000016" class="edge">
<title>Node8&#45;&gt;Node16</title>
<g id="a_edge21_Node000008_Node000016"><a xlink:title=" ">
<path fill="none" stroke="#63b8ff" d="M239.65,-113.13C244.37,-112.03 249.34,-110.93 254,-110 331.15,-94.6 421.38,-80.63 476.08,-72.6"/>
<polygon fill="#63b8ff" stroke="#63b8ff" points="476.81,-76.03 486.2,-71.12 475.8,-69.1 476.81,-76.03"/>
</a>
</g>
</g>
<!-- Node11&#45;&gt;Node9 -->
<g id="edge17_Node000011_Node000009" class="edge">
<title>Node11&#45;&gt;Node9</title>
<g id="a_edge17_Node000011_Node000009"><a xlink:title=" ">
<path fill="none" stroke="#63b8ff" d="M356.15,-54.98C321.42,-45.4 265.14,-29.86 229.12,-19.92"/>
<polygon fill="#63b8ff" stroke="#63b8ff" points="229.66,-16.44 219.09,-17.15 227.79,-23.18 229.66,-16.44"/>
</a>
</g>
</g>
<!-- Node12 -->
<g id="Node000012" class="node">
<title>Node12</title>
<g id="a_Node000012"><a xlink:title=" ">
<polygon fill="#e0e0e0" stroke="#999999" points="359.5,-19 306.5,-19 306.5,0 359.5,0 359.5,-19"/>
<text text-anchor="middle" x="333" y="-7" font-family="Helvetica,sans-Serif" font-size="10.00">ctype.h</text>
</a>
</g>
</g>
<!-- Node11&#45;&gt;Node12 -->
<g id="edge14_Node000011_Node000012" class="edge">
<title>Node11&#45;&gt;Node12</title>
<g id="a_edge14_Node000011_Node000012"><a xlink:title=" ">
<path fill="none" stroke="#63b8ff" d="M378.08,-54.75C370.22,-47.03 358.57,-35.6 349.08,-26.28"/>
<polygon fill="#63b8ff" stroke="#63b8ff" points="351.34,-23.6 341.75,-19.09 346.44,-28.59 351.34,-23.6"/>
</a>
</g>
</g>
<!-- Node13 -->
<g id="Node000013" class="node">
<title>Node13</title>
<g id="a_Node000013"><a xlink:title=" ">
<polygon fill="#e0e0e0" stroke="#999999" points="511.5,-19 458.5,-19 458.5,0 511.5,0 511.5,-19"/>
<text text-anchor="middle" x="485" y="-7" font-family="Helvetica,sans-Serif" font-size="10.00">stdint.h</text>
</a>
</g>
</g>
<!-- Node11&#45;&gt;Node13 -->
<g id="edge15_Node000011_Node000013" class="edge">
<title>Node11&#45;&gt;Node13</title>
<g id="a_edge15_Node000011_Node000013"><a xlink:title=" ">
<path fill="none" stroke="#63b8ff" d="M402.75,-54.98C418.23,-46.61 442.09,-33.7 460.14,-23.95"/>
<polygon fill="#63b8ff" stroke="#63b8ff" points="461.84,-27.01 468.97,-19.17 458.51,-20.85 461.84,-27.01"/>
</a>
</g>
</g>
<!-- Node14 -->
<g id="Node000014" class="node">
<title>Node14</title>
<g id="a_Node000014"><a xlink:title=" ">
<polygon fill="#e0e0e0" stroke="#999999" points="440,-19 378,-19 378,0 440,0 440,-19"/>
<text text-anchor="middle" x="409" y="-7" font-family="Helvetica,sans-Serif" font-size="10.00">stdbool.h</text>
</a>
</g>
</g>
<!-- Node11&#45;&gt;Node14 -->
<g id="edge16_Node000011_Node000014" class="edge">
<title>Node11&#45;&gt;Node14</title>
<g id="a_edge16_Node000011_Node000014"><a xlink:title=" ">
<path fill="none" stroke="#63b8ff" d="M390.63,-54.75C393.58,-47.65 397.83,-37.4 401.51,-28.56"/>
<polygon fill="#63b8ff" stroke="#63b8ff" points="404.83,-29.67 405.43,-19.09 398.37,-26.98 404.83,-29.67"/>
</a>
</g>
</g>
<!-- Node15 -->
<g id="Node000015" class="node">
<title>Node15</title>
<g id="a_Node000015"><a xlink:title=" ">
<polygon fill="#e0e0e0" stroke="#999999" points="288.5,-19 237.5,-19 237.5,0 288.5,0 288.5,-19"/>
<text text-anchor="middle" x="263" y="-7" font-family="Helvetica,sans-Serif" font-size="10.00">math.h</text>
</a>
</g>
</g>
<!-- Node11&#45;&gt;Node15 -->
<g id="edge18_Node000011_Node000015" class="edge">
<title>Node11&#45;&gt;Node15</title>
<g id="a_edge18_Node000011_Node000015"><a xlink:title=" ">
<path fill="none" stroke="#63b8ff" d="M367.08,-54.98C346.95,-46.38 315.62,-32.99 292.59,-23.15"/>
<polygon fill="#63b8ff" stroke="#63b8ff" points="293.86,-19.88 283.29,-19.17 291.1,-26.32 293.86,-19.88"/>
</a>
</g>
</g>
<!-- Node16&#45;&gt;Node13 -->
<g id="edge24_Node000016_Node000013" class="edge">
<title>Node16&#45;&gt;Node13</title>
<g id="a_edge24_Node000016_Node000013"><a xlink:title=" ">
<path fill="none" stroke="#63b8ff" d="M519.23,-54.75C513.44,-47.26 504.94,-36.28 497.86,-27.13"/>
<polygon fill="#63b8ff" stroke="#63b8ff" points="500.53,-24.86 491.64,-19.09 494.99,-29.14 500.53,-24.86"/>
</a>
</g>
</g>
<!-- Node17 -->
<g id="Node000017" class="node">
<title>Node17</title>
<g id="a_Node000017"><a xlink:title=" ">
<polygon fill="#e0e0e0" stroke="#999999" points="643.5,-19 592.5,-19 592.5,0 643.5,0 643.5,-19"/>
<text text-anchor="middle" x="618" y="-7" font-family="Helvetica,sans-Serif" font-size="10.00">FatFS.h</text>
</a>
</g>
</g>
<!-- Node16&#45;&gt;Node17 -->
<g id="edge22_Node000016_Node000017" class="edge">
<title>Node16&#45;&gt;Node17</title>
<g id="a_edge22_Node000016_Node000017"><a xlink:title=" ">
<path fill="none" stroke="#63b8ff" d="M540.78,-54.98C555.18,-46.69 577.31,-33.94 594.19,-24.22"/>
<polygon fill="#63b8ff" stroke="#63b8ff" points="596.03,-27.19 602.95,-19.17 592.54,-21.13 596.03,-27.19"/>
</a>
</g>
</g>
<!-- Node18 -->
<g id="Node000018" class="node">
<title>Node18</title>
<g id="a_Node000018"><a xlink:title=" ">
<polygon fill="#e0e0e0" stroke="#999999" points="732.5,-19 661.5,-19 661.5,0 732.5,0 732.5,-19"/>
<text text-anchor="middle" x="697" y="-7" font-family="Helvetica,sans-Serif" font-size="10.00">FatFSUSB.h</text>
</a>
</g>
</g>
<!-- Node16&#45;&gt;Node18 -->
<g id="edge23_Node000016_Node000018" class="edge">
<title>Node16&#45;&gt;Node18</title>
<g id="a_edge23_Node000016_Node000018"><a xlink:title=" ">
<path fill="none" stroke="#63b8ff" d="M553.47,-54.98C582.18,-46.09 627.42,-32.07 659.42,-22.15"/>
<polygon fill="#63b8ff" stroke="#63b8ff" points="660.8,-25.39 669.31,-19.08 658.72,-18.7 660.8,-25.39"/>
</a>
</g>
</g>
<!-- Node19 -->
<g id="Node000019" class="node">
<title>Node19</title>
<g id="a_Node000019"><a xlink:title=" ">
<polygon fill="#e0e0e0" stroke="#999999" points="574,-19 530,-19 530,0 574,0 574,-19"/>
<text text-anchor="middle" x="552" y="-7" font-family="Helvetica,sans-Serif" font-size="10.00">VFS.h</text>
</a>
</g>
</g>
<!-- Node16&#45;&gt;Node19 -->
<g id="edge25_Node000016_Node000019" class="edge">
<title>Node16&#45;&gt;Node19</title>
<g id="a_edge25_Node000016_Node000019"><a xlink:title=" ">
<path fill="none" stroke="#63b8ff" d="M530.29,-54.75C533.81,-47.57 538.91,-37.18 543.28,-28.27"/>
<polygon fill="#63b8ff" stroke="#63b8ff" points="546.52,-29.61 547.79,-19.09 540.24,-26.53 546.52,-29.61"/>
</a>
</g>
</g>
<!-- Node20&#45;&gt;Node3 -->
<g id="edge27_Node000020_Node000003" class="edge">
<title>Node20&#45;&gt;Node3</title>
<g id="a_edge27_Node000020_Node000003"><a xlink:title=" ">
<path fill="none" stroke="#63b8ff" d="M813.61,-109.98C797.43,-101.57 772.43,-88.59 753.62,-78.81"/>
<polygon fill="#63b8ff" stroke="#63b8ff" points="755.17,-75.68 744.69,-74.17 751.95,-81.89 755.17,-75.68"/>
</a>
</g>
</g>
<!-- Node21 -->
<g id="Node000021" class="node">
<title>Node21</title>
<g id="a_Node000021"><a xlink:title=" ">
<polygon fill="#e0e0e0" stroke="#999999" points="862,-74 798,-74 798,-55 862,-55 862,-74"/>
<text text-anchor="middle" x="830" y="-62" font-family="Helvetica,sans-Serif" font-size="10.00">FastLED.h</text>
</a>
</g>
</g>
<!-- Node20&#45;&gt;Node21 -->
<g id="edge28_Node000020_Node000021" class="edge">
<title>Node20&#45;&gt;Node21</title>
<g id="a_edge28_Node000020_Node000021"><a xlink:title=" ">
<path fill="none" stroke="#63b8ff" d="M830,-109.75C830,-102.8 830,-92.85 830,-84.13"/>
<polygon fill="#63b8ff" stroke="#63b8ff" points="833.5,-84.09 830,-74.09 826.5,-84.09 833.5,-84.09"/>
</a>
</g>
</g>
<!-- Node26&#45;&gt;Node3 -->
<g id="edge37_Node000026_Node000003" class="edge">
<title>Node26&#45;&gt;Node3</title>
<g id="a_edge37_Node000026_Node000003"><a xlink:title=" ">
<path fill="none" stroke="#63b8ff" d="M804.73,-164.93C837.48,-154.68 880.52,-135.66 862,-110 850.97,-94.71 804.82,-81.73 769.73,-73.8"/>
<polygon fill="#63b8ff" stroke="#63b8ff" points="770.23,-70.33 759.71,-71.61 768.73,-77.17 770.23,-70.33"/>
</a>
</g>
</g>
</g>
</svg>
