<?xml version="1.0" encoding="UTF-8" standalone="no"?>
<!DOCTYPE svg PUBLIC "-//W3C//DTD SVG 1.1//EN"
 "http://www.w3.org/Graphics/SVG/1.1/DTD/svg11.dtd">
<!-- Generated by graphviz version 2.43.0 (0)
 -->
<!-- Title: src/minmea/minmea.h Pages: 1 -->
<!--zoomable 258 -->

<svg id="main" version="1.1" xmlns="http://www.w3.org/2000/svg" xmlns:xlink="http://www.w3.org/1999/xlink" xml:space="preserve" onload="init(evt)">
<style type="text/css"><![CDATA[
.node, .edge {opacity: 0.7;}
.node.selected, .edge.selected {opacity: 1;}
.edge:hover path { stroke: red; }
.edge:hover polygon { stroke: red; fill: red; }
]]></style>

<defs>
  <circle id="rim" cx="0" cy="0" r="7"/>
  <circle id="rim2" cx="0" cy="0" r="3.5"/>
  <g id="zoomPlus">
    <use xlink:href="#rim" fill="#404040"><set attributeName="fill" to="#808080" begin="zoomplus.mouseover" end="zoomplus.mouseout"/></use>
    <path d="M-4,0h8M0,-4v8" fill="none" stroke="white" stroke-width="1.5" pointer-events="none"/>
  </g>
  <g id="zoomMin">
    <use xlink:href="#rim" fill="#404040"><set attributeName="fill" to="#808080" begin="zoomminus.mouseover" end="zoomminus.mouseout"/></use>
    <path d="M-4,0h8" fill="none" stroke="white" stroke-width="1.5" pointer-events="none"/>
  </g>
  <g id="arrowUp" transform="translate(30 24)">
    <use xlink:href="#rim"/>
    <path pointer-events="none" fill="none" stroke="white" stroke-width="1.5" d="M0,-3.0v7 M-2.5,-0.5L0,-3.0L2.5,-0.5"/>
  </g>
  <g id="arrowRight" transform="rotate(90) translate(36 -43)">
    <use xlink:href="#rim"/>
    <path pointer-events="none" fill="none" stroke="white" stroke-width="1.5" d="M0,-3.0v7 M-2.5,-0.5L0,-3.0L2.5,-0.5"/>
  </g>
  <g id="arrowDown" transform="rotate(180) translate(-30 -48)">
    <use xlink:href="#rim"/>
    <path pointer-events="none" fill="none" stroke="white" stroke-width="1.5" d="M0,-3.0v7 M-2.5,-0.5L0,-3.0L2.5,-0.5"/>
  </g>
  <g id="arrowLeft" transform="rotate(270) translate(-36 17)">
    <use xlink:href="#rim"/>
    <path pointer-events="none" fill="none" stroke="white" stroke-width="1.5" d="M0,-3.0v7 M-2.5,-0.5L0,-3.0L2.5,-0.5"/>
  </g>
  <g id="resetDef">
    <use xlink:href="#rim2" fill="#404040"><set attributeName="fill" to="#808080" begin="reset.mouseover" end="reset.mouseout"/></use>
  </g>
</defs>
<script type="application/ecmascript">
var viewWidth = 592;
var viewHeight = 258;
var sectionId = 'dynsection-1';
</script>
<script type="application/ecmascript" xlink:href="svg.min.js"/>
<svg id="graph" class="graph">
<g id="viewport">
<title>src/minmea/minmea.h</title>
<!-- Node1 -->
<g id="Node000001" class="node">
<title>Node1</title>
<g id="a_Node000001"><a xlink:title=" ">
<polygon fill="#999999" stroke="#666666" points="506,-250 379,-250 379,-231 506,-231 506,-250"/>
<text text-anchor="middle" x="442.5" y="-238" font-family="Helvetica,sans-Serif" font-size="10.00">src/minmea/minmea.h</text>
</a>
</g>
</g>
<!-- Node2 -->
<g id="Node000002" class="node">
<title>Node2</title>
<g id="a_Node000002"><a xlink:href="gps_8h.html" target="_top" xlink:title="Definizioni, macro e strutture per la gestione della telemetria GPS.">
<polygon fill="white" stroke="#666666" points="428.5,-195 324.5,-195 324.5,-176 428.5,-176 428.5,-195"/>
<text text-anchor="middle" x="376.5" y="-183" font-family="Helvetica,sans-Serif" font-size="10.00">src/Modules/gps.h</text>
</a>
</g>
</g>
<!-- Node1&#45;&gt;Node2 -->
<g id="edge1_Node000001_Node000002" class="edge">
<title>Node1&#45;&gt;Node2</title>
<g id="a_edge1_Node000001_Node000002"><a xlink:title=" ">
<path fill="none" stroke="#63b8ff" d="M423.95,-224.6C412.12,-215.11 397.21,-203.13 387.3,-195.17"/>
<polygon fill="#63b8ff" stroke="#63b8ff" points="421.91,-227.45 431.9,-230.98 426.29,-221.99 421.91,-227.45"/>
</a>
</g>
</g>
<!-- Node10 -->
<g id="Node000010" class="node">
<title>Node10</title>
<g id="a_Node000010"><a xlink:href="minmea_8c.html" target="_top" xlink:title=" ">
<polygon fill="white" stroke="#666666" points="572.5,-195 446.5,-195 446.5,-176 572.5,-176 572.5,-195"/>
<text text-anchor="middle" x="509.5" y="-183" font-family="Helvetica,sans-Serif" font-size="10.00">src/minmea/minmea.c</text>
</a>
</g>
</g>
<!-- Node1&#45;&gt;Node10 -->
<g id="edge17_Node000001_Node000010" class="edge">
<title>Node1&#45;&gt;Node10</title>
<g id="a_edge17_Node000001_Node000010"><a xlink:title=" ">
<path fill="none" stroke="#63b8ff" d="M461.33,-224.6C473.34,-215.11 488.47,-203.13 498.54,-195.17"/>
<polygon fill="#63b8ff" stroke="#63b8ff" points="458.94,-222.04 453.26,-230.98 463.28,-227.53 458.94,-222.04"/>
</a>
</g>
</g>
<!-- Node3 -->
<g id="Node000003" class="node">
<title>Node3</title>
<g id="a_Node000003"><a xlink:href="buttons_8cpp.html" target="_top" xlink:title="Gestione dell&#39;input utente, sitema di debounce e macchina a stati del menu.">
<polygon fill="white" stroke="#666666" points="135,-24.5 0,-24.5 0,-5.5 135,-5.5 135,-24.5"/>
<text text-anchor="middle" x="67.5" y="-12.5" font-family="Helvetica,sans-Serif" font-size="10.00">src/Modules/buttons.cpp</text>
</a>
</g>
</g>
<!-- Node2&#45;&gt;Node3 -->
<g id="edge2_Node000002_Node000003" class="edge">
<title>Node2&#45;&gt;Node3</title>
<g id="a_edge2_Node000002_Node000003"><a xlink:title=" ">
<path fill="none" stroke="#63b8ff" d="M314.37,-177.57C257.3,-170.26 177.72,-157.38 151.5,-140 106.64,-110.26 79.4,-47.54 70.62,-24.62"/>
<polygon fill="#63b8ff" stroke="#63b8ff" points="314.03,-181.06 324.39,-178.83 314.9,-174.11 314.03,-181.06"/>
</a>
</g>
</g>
<!-- Node4 -->
<g id="Node000004" class="node">
<title>Node4</title>
<g id="a_Node000004"><a xlink:href="buttons_8h.html" target="_top" xlink:title="Definizioni e prototipi per la gestione degli input utente e della UI.">
<polygon fill="white" stroke="#666666" points="284.5,-140 160.5,-140 160.5,-121 284.5,-121 284.5,-140"/>
<text text-anchor="middle" x="222.5" y="-128" font-family="Helvetica,sans-Serif" font-size="10.00">src/Modules/buttons.h</text>
</a>
</g>
</g>
<!-- Node2&#45;&gt;Node4 -->
<g id="edge3_Node000002_Node000004" class="edge">
<title>Node2&#45;&gt;Node4</title>
<g id="a_edge3_Node000002_Node000004"><a xlink:title=" ">
<path fill="none" stroke="#63b8ff" d="M342.12,-172.67C313.41,-162.79 273.14,-148.93 247.44,-140.08"/>
<polygon fill="#63b8ff" stroke="#63b8ff" points="341.16,-176.04 351.76,-175.98 343.44,-169.42 341.16,-176.04"/>
</a>
</g>
</g>
<!-- Node5 -->
<g id="Node000005" class="node">
<title>Node5</title>
<g id="a_Node000005"><a xlink:href="display__ui_8h.html" target="_top" xlink:title="Definizioni hardware e prototipi per l&#39;interfaccia utente OLED.">
<polygon fill="white" stroke="#666666" points="373,-85 236,-85 236,-66 373,-66 373,-85"/>
<text text-anchor="middle" x="304.5" y="-73" font-family="Helvetica,sans-Serif" font-size="10.00">src/Modules/display_ui.h</text>
</a>
</g>
</g>
<!-- Node2&#45;&gt;Node5 -->
<g id="edge14_Node000002_Node000005" class="edge">
<title>Node2&#45;&gt;Node5</title>
<g id="a_edge14_Node000002_Node000005"><a xlink:title=" ">
<path fill="none" stroke="#63b8ff" d="M364.88,-167.07C349.26,-143.64 322.09,-102.89 310.27,-85.16"/>
<polygon fill="#63b8ff" stroke="#63b8ff" points="362.15,-169.28 370.61,-175.66 367.97,-165.4 362.15,-169.28"/>
</a>
</g>
</g>
<!-- Node6 -->
<g id="Node000006" class="node">
<title>Node6</title>
<g id="a_Node000006"><a xlink:href="display__ui_8cpp.html" target="_top" xlink:title="Implementazione dell&#39;interfaccia utente (UI) su display OLED SSD1306.">
<polygon fill="white" stroke="#666666" points="500,-30 387,-30 387,0 500,0 500,-30"/>
<text text-anchor="start" x="395" y="-18" font-family="Helvetica,sans-Serif" font-size="10.00">src/Modules/display</text>
<text text-anchor="middle" x="443.5" y="-7" font-family="Helvetica,sans-Serif" font-size="10.00">_ui.cpp</text>
</a>
</g>
</g>
<!-- Node2&#45;&gt;Node6 -->
<g id="edge13_Node000002_Node000006" class="edge">
<title>Node2&#45;&gt;Node6</title>
<g id="a_edge13_Node000002_Node000006"><a xlink:title=" ">
<path fill="none" stroke="#63b8ff" d="M387.62,-167.41C392.59,-159.31 398.27,-149.38 402.5,-140 419.85,-101.56 433.63,-53.52 439.87,-30.12"/>
<polygon fill="#63b8ff" stroke="#63b8ff" points="384.62,-165.6 382.24,-175.92 390.54,-169.34 384.62,-165.6"/>
</a>
</g>
</g>
<!-- Node8 -->
<g id="Node000008" class="node">
<title>Node8</title>
<g id="a_Node000008"><a xlink:href="main_8cpp.html" target="_top" xlink:title="Orchestratore di sistema e gestione Multicore.">
<polygon fill="white" stroke="#666666" points="369,-24.5 290,-24.5 290,-5.5 369,-5.5 369,-24.5"/>
<text text-anchor="middle" x="329.5" y="-12.5" font-family="Helvetica,sans-Serif" font-size="10.00">src/main.cpp</text>
</a>
</g>
</g>
<!-- Node2&#45;&gt;Node8 -->
<g id="edge16_Node000002_Node000008" class="edge">
<title>Node2&#45;&gt;Node8</title>
<g id="a_edge16_Node000002_Node000008"><a xlink:title=" ">
<path fill="none" stroke="#63b8ff" d="M382.29,-166.07C388.8,-141.98 396.72,-98.97 382.5,-66 374.68,-47.88 356.71,-33.28 343.87,-24.63"/>
<polygon fill="#63b8ff" stroke="#63b8ff" points="378.92,-165.13 379.48,-175.71 385.64,-167.08 378.92,-165.13"/>
</a>
</g>
</g>
<!-- Node9 -->
<g id="Node000009" class="node">
<title>Node9</title>
<g id="a_Node000009"><a xlink:href="gps_8cpp.html" target="_top" xlink:title="Implementazione del driver GPS e gestione della telemetria NMEA.">
<polygon fill="white" stroke="#666666" points="583.5,-140 467.5,-140 467.5,-121 583.5,-121 583.5,-140"/>
<text text-anchor="middle" x="525.5" y="-128" font-family="Helvetica,sans-Serif" font-size="10.00">src/Modules/gps.cpp</text>
</a>
</g>
</g>
<!-- Node2&#45;&gt;Node9 -->
<g id="edge15_Node000002_Node000009" class="edge">
<title>Node2&#45;&gt;Node9</title>
<g id="a_edge15_Node000002_Node000009"><a xlink:title=" ">
<path fill="none" stroke="#63b8ff" d="M410.09,-172.55C437.76,-162.71 476.34,-148.98 501.12,-140.17"/>
<polygon fill="#63b8ff" stroke="#63b8ff" points="408.69,-169.34 400.44,-175.98 411.03,-175.93 408.69,-169.34"/>
</a>
</g>
</g>
<!-- Node4&#45;&gt;Node3 -->
<g id="edge4_Node000004_Node000003" class="edge">
<title>Node4&#45;&gt;Node3</title>
<g id="a_edge4_Node000004_Node000003"><a xlink:title=" ">
<path fill="none" stroke="#63b8ff" d="M202.5,-114.85C169.74,-90.87 105.67,-43.95 79.29,-24.63"/>
<polygon fill="#63b8ff" stroke="#63b8ff" points="200.71,-117.88 210.85,-120.97 204.85,-112.24 200.71,-117.88"/>
</a>
</g>
</g>
<!-- Node4&#45;&gt;Node5 -->
<g id="edge5_Node000004_Node000005" class="edge">
<title>Node4&#45;&gt;Node5</title>
<g id="a_edge5_Node000004_Node000005"><a xlink:title=" ">
<path fill="none" stroke="#63b8ff" d="M239.02,-114.88C252.67,-105.34 271.75,-93.21 285.94,-85.17"/>
<polygon fill="#63b8ff" stroke="#63b8ff" points="236.62,-112.29 230.56,-120.98 240.72,-117.97 236.62,-112.29"/>
</a>
</g>
</g>
<!-- Node7 -->
<g id="Node000007" class="node">
<title>Node7</title>
<g id="a_Node000007"><a xlink:href="leds_8cpp.html" target="_top" xlink:title="Implementazione dei feedback visivi tramite LED RGB.">
<polygon fill="white" stroke="#666666" points="272,-24.5 153,-24.5 153,-5.5 272,-5.5 272,-24.5"/>
<text text-anchor="middle" x="212.5" y="-12.5" font-family="Helvetica,sans-Serif" font-size="10.00">src/Modules/leds.cpp</text>
</a>
</g>
</g>
<!-- Node4&#45;&gt;Node7 -->
<g id="edge11_Node000004_Node000007" class="edge">
<title>Node4&#45;&gt;Node7</title>
<g id="a_edge11_Node000004_Node000007"><a xlink:title=" ">
<path fill="none" stroke="#63b8ff" d="M208.29,-112.78C202.5,-104.89 196.48,-95.02 193.5,-85 187.06,-63.32 199.38,-37.59 207.04,-24.53"/>
<polygon fill="#63b8ff" stroke="#63b8ff" points="205.63,-115.05 214.56,-120.75 211.13,-110.72 205.63,-115.05"/>
</a>
</g>
</g>
<!-- Node4&#45;&gt;Node8 -->
<g id="edge12_Node000004_Node000008" class="edge">
<title>Node4&#45;&gt;Node8</title>
<g id="a_edge12_Node000004_Node000008"><a xlink:title=" ">
<path fill="none" stroke="#63b8ff" d="M218.98,-110.74C217.49,-97.19 217.75,-79.04 226.5,-66 235.86,-52.05 277.75,-34.73 305.14,-24.57"/>
<polygon fill="#63b8ff" stroke="#63b8ff" points="215.55,-111.47 220.5,-120.83 222.47,-110.42 215.55,-111.47"/>
</a>
</g>
</g>
<!-- Node5&#45;&gt;Node3 -->
<g id="edge6_Node000005_Node000003" class="edge">
<title>Node5&#45;&gt;Node3</title>
<g id="a_edge6_Node000005_Node000003"><a xlink:title=" ">
<path fill="none" stroke="#63b8ff" d="M260.09,-63.54C214.28,-52.23 143.8,-34.83 102,-24.52"/>
<polygon fill="#63b8ff" stroke="#63b8ff" points="259.49,-67 270.04,-65.99 261.17,-60.2 259.49,-67"/>
</a>
</g>
</g>
<!-- Node5&#45;&gt;Node4 -->
<g id="edge7_Node000005_Node000004" class="edge">
<title>Node5&#45;&gt;Node4</title>
<g id="a_edge7_Node000005_Node000004"><a xlink:title=" ">
<path fill="none" stroke="#63b8ff" d="M288.11,-91.03C274.36,-100.65 255.05,-112.92 240.79,-120.98"/>
<polygon fill="#63b8ff" stroke="#63b8ff" points="290.17,-93.86 296.23,-85.17 286.08,-88.18 290.17,-93.86"/>
</a>
</g>
</g>
<!-- Node5&#45;&gt;Node6 -->
<g id="edge8_Node000005_Node000006" class="edge">
<title>Node5&#45;&gt;Node6</title>
<g id="a_edge8_Node000005_Node000006"><a xlink:title=" ">
<path fill="none" stroke="#63b8ff" d="M334.01,-62.08C356.29,-52.7 386.9,-39.82 410.08,-30.06"/>
<polygon fill="#63b8ff" stroke="#63b8ff" points="332.57,-58.89 324.71,-65.99 335.29,-65.34 332.57,-58.89"/>
</a>
</g>
</g>
<!-- Node5&#45;&gt;Node7 -->
<g id="edge9_Node000005_Node000007" class="edge">
<title>Node5&#45;&gt;Node7</title>
<g id="a_edge9_Node000005_Node000007"><a xlink:title=" ">
<path fill="none" stroke="#63b8ff" d="M282.43,-60.47C264.91,-49.32 240.97,-34.1 226.13,-24.67"/>
<polygon fill="#63b8ff" stroke="#63b8ff" points="280.61,-63.46 290.93,-65.87 284.36,-57.55 280.61,-63.46"/>
</a>
</g>
</g>
<!-- Node5&#45;&gt;Node8 -->
<g id="edge10_Node000005_Node000008" class="edge">
<title>Node5&#45;&gt;Node8</title>
<g id="a_edge10_Node000005_Node000008"><a xlink:title=" ">
<path fill="none" stroke="#63b8ff" d="M312.13,-56.65C316.66,-46.04 322.21,-33.06 325.8,-24.67"/>
<polygon fill="#63b8ff" stroke="#63b8ff" points="308.9,-55.3 308.19,-65.87 315.34,-58.05 308.9,-55.3"/>
</a>
</g>
</g>
</g>
</svg>

<g id="navigator" transform="translate(0 0)" fill="#404254">
  <rect fill="#f2f5e9" fill-opacity="0.5" stroke="#606060" stroke-width=".5" x="0" y="0" width="60" height="60"/>
  <use id="zoomplus" xlink:href="#zoomPlus" x="17" y="9" onmousedown="handleZoom(evt,'in')"/>
  <use id="zoomminus" xlink:href="#zoomMin" x="42" y="9" onmousedown="handleZoom(evt,'out')"/>
  <use id="reset" xlink:href="#resetDef" x="30" y="36" onmousedown="handleReset()"/>
   <use id="arrowup" xlink:href="#arrowUp" x="0" y="0" onmousedown="handlePan(0,-1)"/>
  <use id="arrowright" xlink:href="#arrowRight" x="0" y="0" onmousedown="handlePan(1,0)"/>
  <use id="arrowdown" xlink:href="#arrowDown" x="0" y="0" onmousedown="handlePan(0,1)"/>
  <use id="arrowleft" xlink:href="#arrowLeft" x="0" y="0" onmousedown="handlePan(-1,0)"/>
</g>
<svg viewBox="0 0 15 15" width="100%" height="30px" preserveAspectRatio="xMaxYMin meet">
 <g id="arrow_out" transform="scale(0.3 0.3)">
  <a xlink:href="minmea_8h__dep__incl_org.svg" target="_base">
   <rect id="button" ry="5" rx="5" y="6" x="6" height="38" width="38"
        fill="#f2f5e9" fill-opacity="0.5" stroke="#606060" stroke-width="1.0"/>
   <path id="arrow"
     d="M 11.500037,31.436501 C 11.940474,20.09759 22.043105,11.32322 32.158766,21.979434 L 37.068811,17.246167 C 37.068811,17.246167 37.088388,32 37.088388,32 L 22.160133,31.978069 C 22.160133,31.978069 26.997745,27.140456 26.997745,27.140456 C 18.528582,18.264221 13.291696,25.230495 11.500037,31.436501 z"
     style="fill:#404040;"/>
  </a>
 </g>
</svg>

<style type='text/css'>
<![CDATA[
[data-mouse-over-selected='false'] { opacity: 0.7; }
[data-mouse-over-selected='true']  { opacity: 1.0; }
]]>
</style>
<script type="application/ecmascript"><![CDATA[
document.addEventListener('DOMContentLoaded', (event) => {
  highlightEdges();
  highlightAdjacentNodes();
});
]]></script>
</svg>
