<?xml version="1.0" encoding="UTF-8" standalone="no"?>
<!DOCTYPE svg PUBLIC "-//W3C//DTD SVG 1.1//EN"
 "http://www.w3.org/Graphics/SVG/1.1/DTD/svg11.dtd">
<!-- Generated by graphviz version 2.43.0 (0)
 -->
<!-- Title: minmea_isfield Pages: 1 -->
<svg width="1138pt" height="397pt"
 viewBox="0.00 0.00 1138.00 397.00" xmlns="http://www.w3.org/2000/svg" xmlns:xlink="http://www.w3.org/1999/xlink">
<g id="graph0" class="graph" transform="scale(1 1) rotate(0) translate(4 393)">
<title>minmea_isfield</title>
<!-- Node1 -->
<g id="Node000001" class="node">
<title>Node1</title>
<g id="a_Node000001"><a xlink:title=" ">
<polygon fill="#999999" stroke="#666666" points="1130,-204 1038,-204 1038,-185 1130,-185 1130,-204"/>
<text text-anchor="middle" x="1084" y="-192" font-family="Helvetica,sans-Serif" font-size="10.00">minmea_isfield</text>
</a>
</g>
</g>
<!-- Node2 -->
<g id="Node000002" class="node">
<title>Node2</title>
<g id="a_Node000002"><a xlink:href="minmea_8c.html#a15e9012d03411f7471ca65649f206cc0" target="_top" xlink:title=" ">
<polygon fill="white" stroke="#666666" points="1002,-204 917,-204 917,-185 1002,-185 1002,-204"/>
<text text-anchor="middle" x="959.5" y="-192" font-family="Helvetica,sans-Serif" font-size="10.00">minmea_scan</text>
</a>
</g>
</g>
<!-- Node1&#45;&gt;Node2 -->
<g id="edge1_Node000001_Node000002" class="edge">
<title>Node1&#45;&gt;Node2</title>
<g id="a_edge1_Node000001_Node000002"><a xlink:title=" ">
<path fill="none" stroke="#63b8ff" d="M1027.52,-194.5C1019.06,-194.5 1010.44,-194.5 1002.33,-194.5"/>
<polygon fill="#63b8ff" stroke="#63b8ff" points="1027.73,-198 1037.73,-194.5 1027.73,-191 1027.73,-198"/>
</a>
</g>
</g>
<!-- Node3 -->
<g id="Node000003" class="node">
<title>Node3</title>
<g id="a_Node000003"><a xlink:href="minmea_8c.html#a5d84873cb2687047cf2533ffd84c4968" target="_top" xlink:title=" ">
<polygon fill="white" stroke="#666666" points="876.5,-389 764.5,-389 764.5,-370 876.5,-370 876.5,-389"/>
<text text-anchor="middle" x="820.5" y="-377" font-family="Helvetica,sans-Serif" font-size="10.00">minmea_parse_gbs</text>
</a>
</g>
</g>
<!-- Node2&#45;&gt;Node3 -->
<g id="edge2_Node000002_Node000003" class="edge">
<title>Node2&#45;&gt;Node3</title>
<g id="a_edge2_Node000002_Node000003"><a xlink:title=" ">
<path fill="none" stroke="#63b8ff" d="M954.89,-213.92C947.42,-248.68 926.95,-321.6 881,-361.5 877.09,-364.9 872.55,-367.65 867.76,-369.89"/>
<polygon fill="#63b8ff" stroke="#63b8ff" points="958.33,-214.56 956.88,-204.07 951.47,-213.18 958.33,-214.56"/>
</a>
</g>
</g>
<!-- Node4 -->
<g id="Node000004" class="node">
<title>Node4</title>
<g id="a_Node000004"><a xlink:href="minmea_8c.html#a0e892adb1166185572c0e4614bc1eb13" target="_top" xlink:title=" ">
<polygon fill="white" stroke="#666666" points="877,-352 764,-352 764,-333 877,-333 877,-352"/>
<text text-anchor="middle" x="820.5" y="-340" font-family="Helvetica,sans-Serif" font-size="10.00">minmea_parse_gga</text>
</a>
</g>
</g>
<!-- Node2&#45;&gt;Node4 -->
<g id="edge3_Node000002_Node000004" class="edge">
<title>Node2&#45;&gt;Node4</title>
<g id="a_edge3_Node000002_Node000004"><a xlink:title=" ">
<path fill="none" stroke="#63b8ff" d="M952.07,-213.95C941.67,-242.42 918.45,-295.23 881,-324.5 876.66,-327.89 871.69,-330.64 866.51,-332.88"/>
<polygon fill="#63b8ff" stroke="#63b8ff" points="955.44,-214.92 955.43,-204.33 948.83,-212.61 955.44,-214.92"/>
</a>
</g>
</g>
<!-- Node12 -->
<g id="Node000012" class="node">
<title>Node12</title>
<g id="a_Node000012"><a xlink:href="minmea_8c.html#ab5e326086699ca74eaee5791d5915cf1" target="_top" xlink:title=" ">
<polygon fill="white" stroke="#666666" points="874,-315 767,-315 767,-296 874,-296 874,-315"/>
<text text-anchor="middle" x="820.5" y="-303" font-family="Helvetica,sans-Serif" font-size="10.00">minmea_parse_gll</text>
</a>
</g>
</g>
<!-- Node2&#45;&gt;Node12 -->
<g id="edge13_Node000002_Node000012" class="edge">
<title>Node2&#45;&gt;Node12</title>
<g id="a_edge13_Node000002_Node000012"><a xlink:title=" ">
<path fill="none" stroke="#63b8ff" d="M947.81,-212.91C934.68,-233.95 910.48,-267.98 881,-287.5 875.87,-290.9 870.08,-293.67 864.17,-295.94"/>
<polygon fill="#63b8ff" stroke="#63b8ff" points="950.87,-214.63 953.05,-204.26 944.88,-211.01 950.87,-214.63"/>
</a>
</g>
</g>
<!-- Node13 -->
<g id="Node000013" class="node">
<title>Node13</title>
<g id="a_Node000013"><a xlink:href="minmea_8c.html#a7434f0184b1ef54ef536f979250a6ce3" target="_top" xlink:title=" ">
<polygon fill="white" stroke="#666666" points="876.5,-278 764.5,-278 764.5,-259 876.5,-259 876.5,-278"/>
<text text-anchor="middle" x="820.5" y="-266" font-family="Helvetica,sans-Serif" font-size="10.00">minmea_parse_gsa</text>
</a>
</g>
</g>
<!-- Node2&#45;&gt;Node13 -->
<g id="edge14_Node000002_Node000013" class="edge">
<title>Node2&#45;&gt;Node13</title>
<g id="a_edge14_Node000002_Node000013"><a xlink:title=" ">
<path fill="none" stroke="#63b8ff" d="M939.73,-210.82C924.71,-223.17 902.64,-239.79 881,-250.5 874.42,-253.76 867.14,-256.55 860,-258.9"/>
<polygon fill="#63b8ff" stroke="#63b8ff" points="942.3,-213.22 947.71,-204.11 937.8,-207.87 942.3,-213.22"/>
</a>
</g>
</g>
<!-- Node14 -->
<g id="Node000014" class="node">
<title>Node14</title>
<g id="a_Node000014"><a xlink:href="minmea_8c.html#ac699de4ccd27d72d2eda3ddb64158014" target="_top" xlink:title=" ">
<polygon fill="white" stroke="#666666" points="875.5,-241 765.5,-241 765.5,-222 875.5,-222 875.5,-241"/>
<text text-anchor="middle" x="820.5" y="-229" font-family="Helvetica,sans-Serif" font-size="10.00">minmea_parse_gst</text>
</a>
</g>
</g>
<!-- Node2&#45;&gt;Node14 -->
<g id="edge15_Node000002_Node000014" class="edge">
<title>Node2&#45;&gt;Node14</title>
<g id="a_edge15_Node000002_Node000014"><a xlink:title=" ">
<path fill="none" stroke="#63b8ff" d="M913.37,-206.69C895.1,-211.62 874.31,-217.24 857.14,-221.88"/>
<polygon fill="#63b8ff" stroke="#63b8ff" points="914.48,-210.01 923.22,-204.03 912.65,-203.26 914.48,-210.01"/>
</a>
</g>
</g>
<!-- Node15 -->
<g id="Node000015" class="node">
<title>Node15</title>
<g id="a_Node000015"><a xlink:href="minmea_8c.html#abe3a4ed1fc95c8d8f847b8ff54b23242" target="_top" xlink:title=" ">
<polygon fill="white" stroke="#666666" points="876.5,-204 764.5,-204 764.5,-185 876.5,-185 876.5,-204"/>
<text text-anchor="middle" x="820.5" y="-192" font-family="Helvetica,sans-Serif" font-size="10.00">minmea_parse_gsv</text>
</a>
</g>
</g>
<!-- Node2&#45;&gt;Node15 -->
<g id="edge17_Node000002_Node000015" class="edge">
<title>Node2&#45;&gt;Node15</title>
<g id="a_edge17_Node000002_Node000015"><a xlink:title=" ">
<path fill="none" stroke="#63b8ff" d="M906.36,-194.5C896.67,-194.5 886.51,-194.5 876.73,-194.5"/>
<polygon fill="#63b8ff" stroke="#63b8ff" points="906.65,-198 916.65,-194.5 906.65,-191 906.65,-198"/>
</a>
</g>
</g>
<!-- Node16 -->
<g id="Node000016" class="node">
<title>Node16</title>
<g id="a_Node000016"><a xlink:href="minmea_8c.html#a9a6083eb3b90edb0b96eaedc732313b7" target="_top" xlink:title=" ">
<polygon fill="white" stroke="#666666" points="877,-167 764,-167 764,-148 877,-148 877,-167"/>
<text text-anchor="middle" x="820.5" y="-155" font-family="Helvetica,sans-Serif" font-size="10.00">minmea_parse_rmc</text>
</a>
</g>
</g>
<!-- Node2&#45;&gt;Node16 -->
<g id="edge19_Node000002_Node000016" class="edge">
<title>Node2&#45;&gt;Node16</title>
<g id="a_edge19_Node000002_Node000016"><a xlink:title=" ">
<path fill="none" stroke="#63b8ff" d="M913.37,-182.31C895.1,-177.38 874.31,-171.76 857.14,-167.12"/>
<polygon fill="#63b8ff" stroke="#63b8ff" points="912.65,-185.74 923.22,-184.97 914.48,-178.99 912.65,-185.74"/>
</a>
</g>
</g>
<!-- Node17 -->
<g id="Node000017" class="node">
<title>Node17</title>
<g id="a_Node000017"><a xlink:href="minmea_8c.html#afe00342610ebb8d37f3560b0cc31a52f" target="_top" xlink:title=" ">
<polygon fill="white" stroke="#666666" points="875.5,-130 765.5,-130 765.5,-111 875.5,-111 875.5,-130"/>
<text text-anchor="middle" x="820.5" y="-118" font-family="Helvetica,sans-Serif" font-size="10.00">minmea_parse_vtg</text>
</a>
</g>
</g>
<!-- Node2&#45;&gt;Node17 -->
<g id="edge21_Node000002_Node000017" class="edge">
<title>Node2&#45;&gt;Node17</title>
<g id="a_edge21_Node000002_Node000017"><a xlink:title=" ">
<path fill="none" stroke="#63b8ff" d="M939.38,-178.38C924.31,-166.33 902.35,-150.16 881,-139.5 873.63,-135.82 865.39,-132.65 857.45,-130.01"/>
<polygon fill="#63b8ff" stroke="#63b8ff" points="937.44,-181.31 947.4,-184.93 941.86,-175.89 937.44,-181.31"/>
</a>
</g>
</g>
<!-- Node18 -->
<g id="Node000018" class="node">
<title>Node18</title>
<g id="a_Node000018"><a xlink:href="minmea_8c.html#a389a195750045dfecc8e47d2641dec13" target="_top" xlink:title=" ">
<polygon fill="white" stroke="#666666" points="876.5,-93 764.5,-93 764.5,-74 876.5,-74 876.5,-93"/>
<text text-anchor="middle" x="820.5" y="-81" font-family="Helvetica,sans-Serif" font-size="10.00">minmea_parse_zda</text>
</a>
</g>
</g>
<!-- Node2&#45;&gt;Node18 -->
<g id="edge23_Node000002_Node000018" class="edge">
<title>Node2&#45;&gt;Node18</title>
<g id="a_edge23_Node000002_Node000018"><a xlink:title=" ">
<path fill="none" stroke="#63b8ff" d="M947.71,-176.37C934.49,-155.63 910.2,-122.04 881,-102.5 875.23,-98.64 868.63,-95.52 861.97,-93.02"/>
<polygon fill="#63b8ff" stroke="#63b8ff" points="944.75,-178.23 952.99,-184.89 950.7,-174.55 944.75,-178.23"/>
</a>
</g>
</g>
<!-- Node19 -->
<g id="Node000019" class="node">
<title>Node19</title>
<g id="a_Node000019"><a xlink:href="minmea_8c.html#ad147c6c4489f367099832a74f93e578d" target="_top" xlink:title=" ">
<polygon fill="white" stroke="#666666" points="881,-56 760,-56 760,-37 881,-37 881,-56"/>
<text text-anchor="middle" x="820.5" y="-44" font-family="Helvetica,sans-Serif" font-size="10.00">minmea_sentence_id</text>
</a>
</g>
</g>
<!-- Node2&#45;&gt;Node19 -->
<g id="edge25_Node000002_Node000019" class="edge">
<title>Node2&#45;&gt;Node19</title>
<g id="a_edge25_Node000002_Node000019"><a xlink:title=" ">
<path fill="none" stroke="#63b8ff" d="M951.97,-175.28C941.44,-147.12 918.06,-94.83 881,-65.5 876.07,-61.6 870.32,-58.49 864.37,-56.01"/>
<polygon fill="#63b8ff" stroke="#63b8ff" points="948.71,-176.56 955.38,-184.79 955.3,-174.19 948.71,-176.56"/>
</a>
</g>
</g>
<!-- Node20 -->
<g id="Node000020" class="node">
<title>Node20</title>
<g id="a_Node000020"><a xlink:href="minmea_8c.html#a057caa391cfad91221fbeba2cca47fe3" target="_top" xlink:title=" ">
<polygon fill="white" stroke="#666666" points="872.5,-19 768.5,-19 768.5,0 872.5,0 872.5,-19"/>
<text text-anchor="middle" x="820.5" y="-7" font-family="Helvetica,sans-Serif" font-size="10.00">minmea_talker_id</text>
</a>
</g>
</g>
<!-- Node2&#45;&gt;Node20 -->
<g id="edge26_Node000002_Node000020" class="edge">
<title>Node2&#45;&gt;Node20</title>
<g id="a_edge26_Node000002_Node000020"><a xlink:title=" ">
<path fill="none" stroke="#63b8ff" d="M954.69,-174.77C946.97,-140.14 926.25,-68.31 881,-28.5 876.6,-24.63 871.41,-21.55 865.96,-19.1"/>
<polygon fill="#63b8ff" stroke="#63b8ff" points="951.27,-175.55 956.75,-184.62 958.13,-174.12 951.27,-175.55"/>
</a>
</g>
</g>
<!-- Node5 -->
<g id="Node000005" class="node">
<title>Node5</title>
<g id="a_Node000005"><a xlink:href="gps_8cpp.html#a1584cd930020560265588b72bde4654c" target="_top" xlink:title=" ">
<polygon fill="white" stroke="#666666" points="724,-185 625,-185 625,-166 724,-166 724,-185"/>
<text text-anchor="middle" x="674.5" y="-173" font-family="Helvetica,sans-Serif" font-size="10.00">nmea_gps_parse</text>
</a>
</g>
</g>
<!-- Node4&#45;&gt;Node5 -->
<g id="edge4_Node000004_Node000005" class="edge">
<title>Node4&#45;&gt;Node5</title>
<g id="a_edge4_Node000004_Node000005"><a xlink:title=" ">
<path fill="none" stroke="#63b8ff" d="M765.53,-328.37C763.6,-327.18 761.75,-325.9 760,-324.5 711.68,-285.88 686.1,-211.65 678.2,-185.18"/>
<polygon fill="#63b8ff" stroke="#63b8ff" points="763.92,-331.48 774.41,-332.97 767.14,-325.26 763.92,-331.48"/>
</a>
</g>
</g>
<!-- Node6 -->
<g id="Node000006" class="node">
<title>Node6</title>
<g id="a_Node000006"><a xlink:href="gps_8cpp.html#a5c33ca28d942d03c752f418f3c04711f" target="_top" xlink:title=" ">
<polygon fill="white" stroke="#666666" points="589,-185 518,-185 518,-166 589,-166 589,-185"/>
<text text-anchor="middle" x="553.5" y="-173" font-family="Helvetica,sans-Serif" font-size="10.00">gpsAcquire</text>
</a>
</g>
</g>
<!-- Node5&#45;&gt;Node6 -->
<g id="edge5_Node000005_Node000006" class="edge">
<title>Node5&#45;&gt;Node6</title>
<g id="a_edge5_Node000005_Node000006"><a xlink:title=" ">
<path fill="none" stroke="#63b8ff" d="M614.58,-175.5C605.88,-175.5 597.15,-175.5 589.16,-175.5"/>
<polygon fill="#63b8ff" stroke="#63b8ff" points="614.75,-179 624.75,-175.5 614.75,-172 614.75,-179"/>
</a>
</g>
</g>
<!-- Node7 -->
<g id="Node000007" class="node">
<title>Node7</title>
<g id="a_Node000007"><a xlink:href="gps_8cpp.html#aadbd2f07e07e8a3f472065571970cefe" target="_top" xlink:title=" ">
<polygon fill="white" stroke="#666666" points="463.5,-204 353.5,-204 353.5,-185 463.5,-185 463.5,-204"/>
<text text-anchor="middle" x="408.5" y="-192" font-family="Helvetica,sans-Serif" font-size="10.00">GetDate_and_Time</text>
</a>
</g>
</g>
<!-- Node6&#45;&gt;Node7 -->
<g id="edge6_Node000006_Node000007" class="edge">
<title>Node6&#45;&gt;Node7</title>
<g id="a_edge6_Node000006_Node000007"><a xlink:title=" ">
<path fill="none" stroke="#63b8ff" d="M507.57,-181.47C493.62,-183.32 478.1,-185.38 463.6,-187.31"/>
<polygon fill="#63b8ff" stroke="#63b8ff" points="508.43,-184.89 517.88,-180.1 507.51,-177.95 508.43,-184.89"/>
</a>
</g>
</g>
<!-- Node11 -->
<g id="Node000011" class="node">
<title>Node11</title>
<g id="a_Node000011"><a xlink:href="gps_8cpp.html#a177ee65fb57b969753487772f3fc552c" target="_top" xlink:title=" ">
<polygon fill="white" stroke="#666666" points="482,-167 335,-167 335,-148 482,-148 482,-167"/>
<text text-anchor="middle" x="408.5" y="-155" font-family="Helvetica,sans-Serif" font-size="10.00">GetPosition_and_Satellites</text>
</a>
</g>
</g>
<!-- Node6&#45;&gt;Node11 -->
<g id="edge11_Node000006_Node000011" class="edge">
<title>Node6&#45;&gt;Node11</title>
<g id="a_edge11_Node000006_Node000011"><a xlink:title=" ">
<path fill="none" stroke="#63b8ff" d="M507.87,-169.88C499.7,-168.85 490.98,-167.76 482.24,-166.66"/>
<polygon fill="#63b8ff" stroke="#63b8ff" points="507.52,-173.37 517.88,-171.14 508.4,-166.42 507.52,-173.37"/>
</a>
</g>
</g>
<!-- Node8 -->
<g id="Node000008" class="node">
<title>Node8</title>
<g id="a_Node000008"><a xlink:href="gps_8cpp.html#a79c2c486e631815579df4be3e190ebad" target="_top" xlink:title=" ">
<polygon fill="white" stroke="#666666" points="299,-185 235,-185 235,-166 299,-166 299,-185"/>
<text text-anchor="middle" x="267" y="-173" font-family="Helvetica,sans-Serif" font-size="10.00">GPS_sync</text>
</a>
</g>
</g>
<!-- Node7&#45;&gt;Node8 -->
<g id="edge7_Node000007_Node000008" class="edge">
<title>Node7&#45;&gt;Node8</title>
<g id="a_edge7_Node000007_Node000008"><a xlink:title=" ">
<path fill="none" stroke="#63b8ff" d="M343.15,-185.74C327.8,-183.64 312.08,-181.5 299.02,-179.73"/>
<polygon fill="#63b8ff" stroke="#63b8ff" points="342.79,-189.22 353.17,-187.1 343.73,-182.28 342.79,-189.22"/>
</a>
</g>
</g>
<!-- Node9 -->
<g id="Node000009" class="node">
<title>Node9</title>
<g id="a_Node000009"><a xlink:href="gps_8cpp.html#a58c63785b84f6e923c4e8ca91f335c43" target="_top" xlink:title=" ">
<polygon fill="white" stroke="#666666" points="199,-204 80,-204 80,-185 199,-185 199,-204"/>
<text text-anchor="middle" x="139.5" y="-192" font-family="Helvetica,sans-Serif" font-size="10.00">check_GPS_sync_req</text>
</a>
</g>
</g>
<!-- Node8&#45;&gt;Node9 -->
<g id="edge8_Node000008_Node000009" class="edge">
<title>Node8&#45;&gt;Node9</title>
<g id="a_edge8_Node000008_Node000009"><a xlink:title=" ">
<path fill="none" stroke="#63b8ff" d="M224.87,-181.73C216.62,-182.98 207.79,-184.31 199.07,-185.63"/>
<polygon fill="#63b8ff" stroke="#63b8ff" points="225.61,-185.15 234.98,-180.2 224.57,-178.23 225.61,-185.15"/>
</a>
</g>
</g>
<!-- Node10 -->
<g id="Node000010" class="node">
<title>Node10</title>
<g id="a_Node000010"><a xlink:href="main_8cpp.html#a39ceba300a80e348e278539f57e0ca79" target="_top" xlink:title=" ">
<polygon fill="white" stroke="#666666" points="44,-185 0,-185 0,-166 44,-166 44,-185"/>
<text text-anchor="middle" x="22" y="-173" font-family="Helvetica,sans-Serif" font-size="10.00">loop1</text>
</a>
</g>
</g>
<!-- Node8&#45;&gt;Node10 -->
<g id="edge10_Node000008_Node000010" class="edge">
<title>Node8&#45;&gt;Node10</title>
<g id="a_edge10_Node000008_Node000010"><a xlink:title=" ">
<path fill="none" stroke="#63b8ff" d="M224.45,-175.5C172.15,-175.5 84.3,-175.5 44.16,-175.5"/>
<polygon fill="#63b8ff" stroke="#63b8ff" points="224.73,-179 234.73,-175.5 224.73,-172 224.73,-179"/>
</a>
</g>
</g>
<!-- Node9&#45;&gt;Node10 -->
<g id="edge9_Node000009_Node000010" class="edge">
<title>Node9&#45;&gt;Node10</title>
<g id="a_edge9_Node000009_Node000010"><a xlink:title=" ">
<path fill="none" stroke="#63b8ff" d="M70.38,-183.29C60.85,-181.73 51.71,-180.22 44.04,-178.96"/>
<polygon fill="#63b8ff" stroke="#63b8ff" points="69.98,-186.77 80.41,-184.94 71.11,-179.87 69.98,-186.77"/>
</a>
</g>
</g>
<!-- Node11&#45;&gt;Node8 -->
<g id="edge12_Node000011_Node000008" class="edge">
<title>Node11&#45;&gt;Node8</title>
<g id="a_edge12_Node000011_Node000008"><a xlink:title=" ">
<path fill="none" stroke="#63b8ff" d="M324.92,-168.16C315.82,-169.33 307.02,-170.47 299.17,-171.48"/>
<polygon fill="#63b8ff" stroke="#63b8ff" points="325.42,-171.62 334.89,-166.87 324.52,-164.68 325.42,-171.62"/>
</a>
</g>
</g>
<!-- Node14&#45;&gt;Node5 -->
<g id="edge16_Node000014_Node000005" class="edge">
<title>Node14&#45;&gt;Node5</title>
<g id="a_edge16_Node000014_Node000005"><a xlink:title=" ">
<path fill="none" stroke="#63b8ff" d="M775.34,-218.84C770.14,-217.14 764.93,-215.34 760,-213.5 737.25,-204.98 711.94,-193.29 695,-185.14"/>
<polygon fill="#63b8ff" stroke="#63b8ff" points="774.68,-222.3 785.27,-221.97 776.78,-215.62 774.68,-222.3"/>
</a>
</g>
</g>
<!-- Node15&#45;&gt;Node5 -->
<g id="edge18_Node000015_Node000005" class="edge">
<title>Node15&#45;&gt;Node5</title>
<g id="a_edge18_Node000015_Node000005"><a xlink:title=" ">
<path fill="none" stroke="#63b8ff" d="M754.24,-185.89C744.16,-184.56 733.9,-183.21 724.26,-181.93"/>
<polygon fill="#63b8ff" stroke="#63b8ff" points="753.87,-189.37 764.24,-187.21 754.78,-182.43 753.87,-189.37"/>
</a>
</g>
</g>
<!-- Node16&#45;&gt;Node5 -->
<g id="edge20_Node000016_Node000005" class="edge">
<title>Node16&#45;&gt;Node5</title>
<g id="a_edge20_Node000016_Node000005"><a xlink:title=" ">
<path fill="none" stroke="#63b8ff" d="M753.67,-165.73C743.84,-166.96 733.85,-168.21 724.46,-169.38"/>
<polygon fill="#63b8ff" stroke="#63b8ff" points="754.34,-169.17 763.83,-164.46 753.47,-162.23 754.34,-169.17"/>
</a>
</g>
</g>
<!-- Node17&#45;&gt;Node5 -->
<g id="edge22_Node000017_Node000005" class="edge">
<title>Node17&#45;&gt;Node5</title>
<g id="a_edge22_Node000017_Node000005"><a xlink:title=" ">
<path fill="none" stroke="#63b8ff" d="M778.28,-133.11C772.12,-135.15 765.87,-137.32 760,-139.5 738.03,-147.67 713.43,-158.33 696.46,-165.92"/>
<polygon fill="#63b8ff" stroke="#63b8ff" points="779.39,-136.43 787.81,-130.01 777.22,-129.77 779.39,-136.43"/>
</a>
</g>
</g>
<!-- Node18&#45;&gt;Node5 -->
<g id="edge24_Node000018_Node000005" class="edge">
<title>Node18&#45;&gt;Node5</title>
<g id="a_edge24_Node000018_Node000005"><a xlink:title=" ">
<path fill="none" stroke="#63b8ff" d="M772.31,-96.59C768.05,-98.36 763.88,-100.32 760,-102.5 728.88,-119.94 698.84,-150.02 684.41,-165.56"/>
<polygon fill="#63b8ff" stroke="#63b8ff" points="773.6,-99.84 781.71,-93.03 771.12,-93.3 773.6,-99.84"/>
</a>
</g>
</g>
</g>
</svg>
