<?xml version="1.0" encoding="UTF-8" standalone="no"?>
<!DOCTYPE svg PUBLIC "-//W3C//DTD SVG 1.1//EN"
 "http://www.w3.org/Graphics/SVG/1.1/DTD/svg11.dtd">
<!-- Generated by graphviz version 2.43.0 (0)
 -->
<!-- Title: minmea_tofloat Pages: 1 -->
<svg width="996pt" height="101pt"
 viewBox="0.00 0.00 996.00 101.00" xmlns="http://www.w3.org/2000/svg" xmlns:xlink="http://www.w3.org/1999/xlink">
<g id="graph0" class="graph" transform="scale(1 1) rotate(0) translate(4 97)">
<title>minmea_tofloat</title>
<!-- Node1 -->
<g id="Node000001" class="node">
<title>Node1</title>
<g id="a_Node000001"><a xlink:title=" ">
<polygon fill="#999999" stroke="#666666" points="988,-56 894,-56 894,-37 988,-37 988,-56"/>
<text text-anchor="middle" x="941" y="-44" font-family="Helvetica,sans-Serif" font-size="10.00">minmea_tofloat</text>
</a>
</g>
</g>
<!-- Node2 -->
<g id="Node000002" class="node">
<title>Node2</title>
<g id="a_Node000002"><a xlink:href="gps_8cpp.html#a86800585d87c13db519115d7d460aac0" target="_top" xlink:title=" ">
<polygon fill="white" stroke="#666666" points="856,-93 762,-93 762,-74 856,-74 856,-93"/>
<text text-anchor="middle" x="809" y="-81" font-family="Helvetica,sans-Serif" font-size="10.00">print_NMEA_gst</text>
</a>
</g>
</g>
<!-- Node1&#45;&gt;Node2 -->
<g id="edge1_Node000001_Node000002" class="edge">
<title>Node1&#45;&gt;Node2</title>
<g id="a_edge1_Node000001_Node000002"><a xlink:title=" ">
<path fill="none" stroke="#63b8ff" d="M896.69,-58.83C879.47,-63.73 859.96,-69.28 843.82,-73.88"/>
<polygon fill="#63b8ff" stroke="#63b8ff" points="897.86,-62.13 906.52,-56.03 895.95,-55.4 897.86,-62.13"/>
</a>
</g>
</g>
<!-- Node10 -->
<g id="Node000010" class="node">
<title>Node10</title>
<g id="a_Node000010"><a xlink:href="gps_8cpp.html#a4650a0bef4037f605b746db3e8dce5bf" target="_top" xlink:title=" ">
<polygon fill="white" stroke="#666666" points="858,-56 760,-56 760,-37 858,-37 858,-56"/>
<text text-anchor="middle" x="809" y="-44" font-family="Helvetica,sans-Serif" font-size="10.00">print_NMEA_rmc</text>
</a>
</g>
</g>
<!-- Node1&#45;&gt;Node10 -->
<g id="edge11_Node000001_Node000010" class="edge">
<title>Node1&#45;&gt;Node10</title>
<g id="a_edge11_Node000001_Node000010"><a xlink:title=" ">
<path fill="none" stroke="#63b8ff" d="M883.62,-46.5C875.17,-46.5 866.51,-46.5 858.25,-46.5"/>
<polygon fill="#63b8ff" stroke="#63b8ff" points="883.8,-50 893.8,-46.5 883.8,-43 883.8,-50"/>
</a>
</g>
</g>
<!-- Node11 -->
<g id="Node000011" class="node">
<title>Node11</title>
<g id="a_Node000011"><a xlink:href="gps_8cpp.html#a77ab7d9e159a0a804e5467a44204eebd" target="_top" xlink:title=" ">
<polygon fill="white" stroke="#666666" points="856.5,-19 761.5,-19 761.5,0 856.5,0 856.5,-19"/>
<text text-anchor="middle" x="809" y="-7" font-family="Helvetica,sans-Serif" font-size="10.00">print_NMEA_vtg</text>
</a>
</g>
</g>
<!-- Node1&#45;&gt;Node11 -->
<g id="edge13_Node000001_Node000011" class="edge">
<title>Node1&#45;&gt;Node11</title>
<g id="a_edge13_Node000001_Node000011"><a xlink:title=" ">
<path fill="none" stroke="#63b8ff" d="M896.69,-34.17C879.47,-29.27 859.96,-23.72 843.82,-19.12"/>
<polygon fill="#63b8ff" stroke="#63b8ff" points="895.95,-37.6 906.52,-36.97 897.86,-30.87 895.95,-37.6"/>
</a>
</g>
</g>
<!-- Node3 -->
<g id="Node000003" class="node">
<title>Node3</title>
<g id="a_Node000003"><a xlink:href="gps_8cpp.html#a1584cd930020560265588b72bde4654c" target="_top" xlink:title=" ">
<polygon fill="white" stroke="#666666" points="724,-56 625,-56 625,-37 724,-37 724,-56"/>
<text text-anchor="middle" x="674.5" y="-44" font-family="Helvetica,sans-Serif" font-size="10.00">nmea_gps_parse</text>
</a>
</g>
</g>
<!-- Node2&#45;&gt;Node3 -->
<g id="edge2_Node000002_Node000003" class="edge">
<title>Node2&#45;&gt;Node3</title>
<g id="a_edge2_Node000002_Node000003"><a xlink:title=" ">
<path fill="none" stroke="#63b8ff" d="M763.86,-71.17C746.31,-66.27 726.42,-60.72 709.97,-56.12"/>
<polygon fill="#63b8ff" stroke="#63b8ff" points="763.31,-74.65 773.88,-73.97 765.19,-67.91 763.31,-74.65"/>
</a>
</g>
</g>
<!-- Node4 -->
<g id="Node000004" class="node">
<title>Node4</title>
<g id="a_Node000004"><a xlink:href="gps_8cpp.html#a5c33ca28d942d03c752f418f3c04711f" target="_top" xlink:title=" ">
<polygon fill="white" stroke="#666666" points="589,-56 518,-56 518,-37 589,-37 589,-56"/>
<text text-anchor="middle" x="553.5" y="-44" font-family="Helvetica,sans-Serif" font-size="10.00">gpsAcquire</text>
</a>
</g>
</g>
<!-- Node3&#45;&gt;Node4 -->
<g id="edge3_Node000003_Node000004" class="edge">
<title>Node3&#45;&gt;Node4</title>
<g id="a_edge3_Node000003_Node000004"><a xlink:title=" ">
<path fill="none" stroke="#63b8ff" d="M614.58,-46.5C605.88,-46.5 597.15,-46.5 589.16,-46.5"/>
<polygon fill="#63b8ff" stroke="#63b8ff" points="614.75,-50 624.75,-46.5 614.75,-43 614.75,-50"/>
</a>
</g>
</g>
<!-- Node5 -->
<g id="Node000005" class="node">
<title>Node5</title>
<g id="a_Node000005"><a xlink:href="gps_8cpp.html#aadbd2f07e07e8a3f472065571970cefe" target="_top" xlink:title=" ">
<polygon fill="white" stroke="#666666" points="463.5,-75 353.5,-75 353.5,-56 463.5,-56 463.5,-75"/>
<text text-anchor="middle" x="408.5" y="-63" font-family="Helvetica,sans-Serif" font-size="10.00">GetDate_and_Time</text>
</a>
</g>
</g>
<!-- Node4&#45;&gt;Node5 -->
<g id="edge4_Node000004_Node000005" class="edge">
<title>Node4&#45;&gt;Node5</title>
<g id="a_edge4_Node000004_Node000005"><a xlink:title=" ">
<path fill="none" stroke="#63b8ff" d="M507.57,-52.47C493.62,-54.32 478.1,-56.38 463.6,-58.31"/>
<polygon fill="#63b8ff" stroke="#63b8ff" points="508.43,-55.89 517.88,-51.1 507.51,-48.95 508.43,-55.89"/>
</a>
</g>
</g>
<!-- Node9 -->
<g id="Node000009" class="node">
<title>Node9</title>
<g id="a_Node000009"><a xlink:href="gps_8cpp.html#a177ee65fb57b969753487772f3fc552c" target="_top" xlink:title=" ">
<polygon fill="white" stroke="#666666" points="482,-38 335,-38 335,-19 482,-19 482,-38"/>
<text text-anchor="middle" x="408.5" y="-26" font-family="Helvetica,sans-Serif" font-size="10.00">GetPosition_and_Satellites</text>
</a>
</g>
</g>
<!-- Node4&#45;&gt;Node9 -->
<g id="edge9_Node000004_Node000009" class="edge">
<title>Node4&#45;&gt;Node9</title>
<g id="a_edge9_Node000004_Node000009"><a xlink:title=" ">
<path fill="none" stroke="#63b8ff" d="M507.87,-40.88C499.7,-39.85 490.98,-38.76 482.24,-37.66"/>
<polygon fill="#63b8ff" stroke="#63b8ff" points="507.52,-44.37 517.88,-42.14 508.4,-37.42 507.52,-44.37"/>
</a>
</g>
</g>
<!-- Node6 -->
<g id="Node000006" class="node">
<title>Node6</title>
<g id="a_Node000006"><a xlink:href="gps_8cpp.html#a79c2c486e631815579df4be3e190ebad" target="_top" xlink:title=" ">
<polygon fill="white" stroke="#666666" points="299,-56 235,-56 235,-37 299,-37 299,-56"/>
<text text-anchor="middle" x="267" y="-44" font-family="Helvetica,sans-Serif" font-size="10.00">GPS_sync</text>
</a>
</g>
</g>
<!-- Node5&#45;&gt;Node6 -->
<g id="edge5_Node000005_Node000006" class="edge">
<title>Node5&#45;&gt;Node6</title>
<g id="a_edge5_Node000005_Node000006"><a xlink:title=" ">
<path fill="none" stroke="#63b8ff" d="M343.15,-56.74C327.8,-54.64 312.08,-52.5 299.02,-50.73"/>
<polygon fill="#63b8ff" stroke="#63b8ff" points="342.79,-60.22 353.17,-58.1 343.73,-53.28 342.79,-60.22"/>
</a>
</g>
</g>
<!-- Node7 -->
<g id="Node000007" class="node">
<title>Node7</title>
<g id="a_Node000007"><a xlink:href="gps_8cpp.html#a58c63785b84f6e923c4e8ca91f335c43" target="_top" xlink:title=" ">
<polygon fill="white" stroke="#666666" points="199,-75 80,-75 80,-56 199,-56 199,-75"/>
<text text-anchor="middle" x="139.5" y="-63" font-family="Helvetica,sans-Serif" font-size="10.00">check_GPS_sync_req</text>
</a>
</g>
</g>
<!-- Node6&#45;&gt;Node7 -->
<g id="edge6_Node000006_Node000007" class="edge">
<title>Node6&#45;&gt;Node7</title>
<g id="a_edge6_Node000006_Node000007"><a xlink:title=" ">
<path fill="none" stroke="#63b8ff" d="M224.87,-52.73C216.62,-53.98 207.79,-55.31 199.07,-56.63"/>
<polygon fill="#63b8ff" stroke="#63b8ff" points="225.61,-56.15 234.98,-51.2 224.57,-49.23 225.61,-56.15"/>
</a>
</g>
</g>
<!-- Node8 -->
<g id="Node000008" class="node">
<title>Node8</title>
<g id="a_Node000008"><a xlink:href="main_8cpp.html#a39ceba300a80e348e278539f57e0ca79" target="_top" xlink:title=" ">
<polygon fill="white" stroke="#666666" points="44,-56 0,-56 0,-37 44,-37 44,-56"/>
<text text-anchor="middle" x="22" y="-44" font-family="Helvetica,sans-Serif" font-size="10.00">loop1</text>
</a>
</g>
</g>
<!-- Node6&#45;&gt;Node8 -->
<g id="edge8_Node000006_Node000008" class="edge">
<title>Node6&#45;&gt;Node8</title>
<g id="a_edge8_Node000006_Node000008"><a xlink:title=" ">
<path fill="none" stroke="#63b8ff" d="M224.45,-46.5C172.15,-46.5 84.3,-46.5 44.16,-46.5"/>
<polygon fill="#63b8ff" stroke="#63b8ff" points="224.73,-50 234.73,-46.5 224.73,-43 224.73,-50"/>
</a>
</g>
</g>
<!-- Node7&#45;&gt;Node8 -->
<g id="edge7_Node000007_Node000008" class="edge">
<title>Node7&#45;&gt;Node8</title>
<g id="a_edge7_Node000007_Node000008"><a xlink:title=" ">
<path fill="none" stroke="#63b8ff" d="M70.38,-54.29C60.85,-52.73 51.71,-51.22 44.04,-49.96"/>
<polygon fill="#63b8ff" stroke="#63b8ff" points="69.98,-57.77 80.41,-55.94 71.11,-50.87 69.98,-57.77"/>
</a>
</g>
</g>
<!-- Node9&#45;&gt;Node6 -->
<g id="edge10_Node000009_Node000006" class="edge">
<title>Node9&#45;&gt;Node6</title>
<g id="a_edge10_Node000009_Node000006"><a xlink:title=" ">
<path fill="none" stroke="#63b8ff" d="M324.92,-39.16C315.82,-40.33 307.02,-41.47 299.17,-42.48"/>
<polygon fill="#63b8ff" stroke="#63b8ff" points="325.42,-42.62 334.89,-37.87 324.52,-35.68 325.42,-42.62"/>
</a>
</g>
</g>
<!-- Node10&#45;&gt;Node3 -->
<g id="edge12_Node000010_Node000003" class="edge">
<title>Node10&#45;&gt;Node3</title>
<g id="a_edge12_Node000010_Node000003"><a xlink:title=" ">
<path fill="none" stroke="#63b8ff" d="M749.62,-46.5C741.18,-46.5 732.57,-46.5 724.34,-46.5"/>
<polygon fill="#63b8ff" stroke="#63b8ff" points="749.79,-50 759.79,-46.5 749.79,-43 749.79,-50"/>
</a>
</g>
</g>
<!-- Node11&#45;&gt;Node3 -->
<g id="edge14_Node000011_Node000003" class="edge">
<title>Node11&#45;&gt;Node3</title>
<g id="a_edge14_Node000011_Node000003"><a xlink:title=" ">
<path fill="none" stroke="#63b8ff" d="M763.86,-21.83C746.31,-26.73 726.42,-32.28 709.97,-36.88"/>
<polygon fill="#63b8ff" stroke="#63b8ff" points="765.19,-25.09 773.88,-19.03 763.31,-18.35 765.19,-25.09"/>
</a>
</g>
</g>
</g>
</svg>
