<?xml version="1.0" encoding="UTF-8" standalone="no"?>
<!DOCTYPE svg PUBLIC "-//W3C//DTD SVG 1.1//EN"
 "http://www.w3.org/Graphics/SVG/1.1/DTD/svg11.dtd">
<!-- Generated by graphviz version 2.43.0 (0)
 -->
<!-- Title: minmea_sentence_gst Pages: 1 -->
<svg width="365pt" height="159pt"
 viewBox="0.00 0.00 365.00 159.00" xmlns="http://www.w3.org/2000/svg" xmlns:xlink="http://www.w3.org/1999/xlink">
<g id="graph0" class="graph" transform="scale(1 1) rotate(0) translate(4 155)">
<title>minmea_sentence_gst</title>
<!-- Node1 -->
<g id="Node000001" class="node">
<title>Node1</title>
<g id="a_Node000001"><a xlink:title=" ">
<polygon fill="#999999" stroke="#666666" points="208.5,-19 81.5,-19 81.5,0 208.5,0 208.5,-19"/>
<text text-anchor="middle" x="145" y="-7" font-family="Helvetica,sans-Serif" font-size="10.00">minmea_sentence_gst</text>
</a>
</g>
</g>
<!-- Node2 -->
<g id="Node000002" class="node">
<title>Node2</title>
<g id="a_Node000002"><a xlink:href="unionminmea__type.html" target="_top" xlink:title=" ">
<polygon fill="white" stroke="#666666" points="84,-151 0,-151 0,-132 84,-132 84,-151"/>
<text text-anchor="middle" x="42" y="-139" font-family="Helvetica,sans-Serif" font-size="10.00">minmea_type</text>
</a>
</g>
</g>
<!-- Node2&#45;&gt;Node1 -->
<g id="edge1_Node000001_Node000002" class="edge">
<title>Node2&#45;&gt;Node1</title>
<g id="a_edge1_Node000001_Node000002"><a xlink:title=" ">
<path fill="none" stroke="#9a32cd" stroke-dasharray="5,2" d="M52.81,-123.13C66.39,-101.87 90.96,-65.23 116,-37 121.7,-30.57 128.82,-24.05 134.57,-19.09"/>
<polygon fill="#9a32cd" stroke="#9a32cd" points="49.76,-121.4 47.38,-131.73 55.68,-125.14 49.76,-121.4"/>
</a>
</g>
<text text-anchor="middle" x="128.5" y="-73" font-family="Helvetica,sans-Serif" font-size="10.00" fill="grey"> type</text>
</g>
<!-- Node3 -->
<g id="Node000003" class="node">
<title>Node3</title>
<g id="a_Node000003"><a xlink:href="structminmea__time.html" target="_top" xlink:title=" ">
<polygon fill="white" stroke="#666666" points="187.5,-151 102.5,-151 102.5,-132 187.5,-132 187.5,-151"/>
<text text-anchor="middle" x="145" y="-139" font-family="Helvetica,sans-Serif" font-size="10.00">minmea_time</text>
</a>
</g>
</g>
<!-- Node3&#45;&gt;Node1 -->
<g id="edge2_Node000001_Node000003" class="edge">
<title>Node3&#45;&gt;Node1</title>
<g id="a_edge2_Node000001_Node000003"><a xlink:title=" ">
<path fill="none" stroke="#9a32cd" stroke-dasharray="5,2" d="M145,-121.73C145,-93.22 145,-40.09 145,-19.23"/>
<polygon fill="#9a32cd" stroke="#9a32cd" points="141.5,-121.97 145,-131.97 148.5,-121.97 141.5,-121.97"/>
</a>
</g>
<text text-anchor="middle" x="158" y="-73" font-family="Helvetica,sans-Serif" font-size="10.00" fill="grey"> time</text>
</g>
<!-- Node4 -->
<g id="Node000004" class="node">
<title>Node4</title>
<g id="a_Node000004"><a xlink:href="structminmea__float.html" target="_top" xlink:title=" ">
<polygon fill="white" stroke="#666666" points="290,-151 206,-151 206,-132 290,-132 290,-151"/>
<text text-anchor="middle" x="248" y="-139" font-family="Helvetica,sans-Serif" font-size="10.00">minmea_float</text>
</a>
</g>
</g>
<!-- Node4&#45;&gt;Node1 -->
<g id="edge3_Node000001_Node000004" class="edge">
<title>Node4&#45;&gt;Node1</title>
<g id="a_edge3_Node000001_Node000004"><a xlink:title=" ">
<path fill="none" stroke="#9a32cd" stroke-dasharray="5,2" d="M237.66,-123.37C224.44,-102.08 200.2,-65.11 175,-37 169.16,-30.48 161.8,-23.96 155.83,-19.02"/>
<polygon fill="#9a32cd" stroke="#9a32cd" points="234.72,-125.27 242.93,-131.96 240.69,-121.61 234.72,-125.27"/>
</a>
</g>
<text text-anchor="middle" x="294" y="-106" font-family="Helvetica,sans-Serif" font-size="10.00" fill="grey"> altitude_error_deviation</text>
<text text-anchor="middle" x="294" y="-95" font-family="Helvetica,sans-Serif" font-size="10.00" fill="grey">latitude_error_deviation</text>
<text text-anchor="middle" x="294" y="-84" font-family="Helvetica,sans-Serif" font-size="10.00" fill="grey">longitude_error_deviation</text>
<text text-anchor="middle" x="294" y="-73" font-family="Helvetica,sans-Serif" font-size="10.00" fill="grey">rms_deviation</text>
<text text-anchor="middle" x="294" y="-62" font-family="Helvetica,sans-Serif" font-size="10.00" fill="grey">semi_major_deviation</text>
<text text-anchor="middle" x="294" y="-51" font-family="Helvetica,sans-Serif" font-size="10.00" fill="grey">semi_major_orientation</text>
<text text-anchor="middle" x="294" y="-40" font-family="Helvetica,sans-Serif" font-size="10.00" fill="grey">semi_minor_deviation</text>
</g>
</g>
</svg>
