<?xml version="1.0" encoding="UTF-8" standalone="no"?>
<!DOCTYPE svg PUBLIC "-//W3C//DTD SVG 1.1//EN"
 "http://www.w3.org/Graphics/SVG/1.1/DTD/svg11.dtd">
<!-- Generated by graphviz version 2.43.0 (0)
 -->
<!-- Title: minmea_sentence_gga Pages: 1 -->
<svg width="298pt" height="148pt"
 viewBox="0.00 0.00 298.00 148.00" xmlns="http://www.w3.org/2000/svg" xmlns:xlink="http://www.w3.org/1999/xlink">
<g id="graph0" class="graph" transform="scale(1 1) rotate(0) translate(4 144)">
<title>minmea_sentence_gga</title>
<!-- Node1 -->
<g id="Node000001" class="node">
<title>Node1</title>
<g id="a_Node000001"><a xlink:title=" ">
<polygon fill="#999999" stroke="#666666" points="210,-19 80,-19 80,0 210,0 210,-19"/>
<text text-anchor="middle" x="145" y="-7" font-family="Helvetica,sans-Serif" font-size="10.00">minmea_sentence_gga</text>
</a>
</g>
</g>
<!-- Node2 -->
<g id="Node000002" class="node">
<title>Node2</title>
<g id="a_Node000002"><a xlink:href="unionminmea__type.html" target="_top" xlink:title=" ">
<polygon fill="white" stroke="#666666" points="84,-140 0,-140 0,-121 84,-121 84,-140"/>
<text text-anchor="middle" x="42" y="-128" font-family="Helvetica,sans-Serif" font-size="10.00">minmea_type</text>
</a>
</g>
</g>
<!-- Node2&#45;&gt;Node1 -->
<g id="edge1_Node000001_Node000002" class="edge">
<title>Node2&#45;&gt;Node1</title>
<g id="a_edge1_Node000001_Node000002"><a xlink:title=" ">
<path fill="none" stroke="#9a32cd" stroke-dasharray="5,2" d="M54.17,-112.73C68.27,-93.69 92.56,-62.03 116,-37 121.87,-30.73 128.99,-24.21 134.7,-19.21"/>
<polygon fill="#9a32cd" stroke="#9a32cd" points="51.21,-110.84 48.12,-120.98 56.86,-114.98 51.21,-110.84"/>
</a>
</g>
<text text-anchor="middle" x="128.5" y="-67.5" font-family="Helvetica,sans-Serif" font-size="10.00" fill="grey"> type</text>
</g>
<!-- Node3 -->
<g id="Node000003" class="node">
<title>Node3</title>
<g id="a_Node000003"><a xlink:href="structminmea__time.html" target="_top" xlink:title=" ">
<polygon fill="white" stroke="#666666" points="187.5,-140 102.5,-140 102.5,-121 187.5,-121 187.5,-140"/>
<text text-anchor="middle" x="145" y="-128" font-family="Helvetica,sans-Serif" font-size="10.00">minmea_time</text>
</a>
</g>
</g>
<!-- Node3&#45;&gt;Node1 -->
<g id="edge2_Node000001_Node000003" class="edge">
<title>Node3&#45;&gt;Node1</title>
<g id="a_edge2_Node000001_Node000003"><a xlink:title=" ">
<path fill="none" stroke="#9a32cd" stroke-dasharray="5,2" d="M145,-110.86C145,-84.81 145,-38.56 145,-19.3"/>
<polygon fill="#9a32cd" stroke="#9a32cd" points="141.5,-110.94 145,-120.94 148.5,-110.94 141.5,-110.94"/>
</a>
</g>
<text text-anchor="middle" x="158" y="-67.5" font-family="Helvetica,sans-Serif" font-size="10.00" fill="grey"> time</text>
</g>
<!-- Node4 -->
<g id="Node000004" class="node">
<title>Node4</title>
<g id="a_Node000004"><a xlink:href="structminmea__float.html" target="_top" xlink:title=" ">
<polygon fill="white" stroke="#666666" points="290,-140 206,-140 206,-121 290,-121 290,-140"/>
<text text-anchor="middle" x="248" y="-128" font-family="Helvetica,sans-Serif" font-size="10.00">minmea_float</text>
</a>
</g>
</g>
<!-- Node4&#45;&gt;Node1 -->
<g id="edge3_Node000001_Node000004" class="edge">
<title>Node4&#45;&gt;Node1</title>
<g id="a_edge3_Node000001_Node000004"><a xlink:title=" ">
<path fill="none" stroke="#9a32cd" stroke-dasharray="5,2" d="M236.11,-112.64C222.31,-93.51 198.44,-61.78 175,-37 168.98,-30.64 161.62,-24.12 155.7,-19.14"/>
<polygon fill="#9a32cd" stroke="#9a32cd" points="233.37,-114.82 242.03,-120.92 239.06,-110.75 233.37,-114.82"/>
</a>
</g>
<text text-anchor="middle" x="251.5" y="-95" font-family="Helvetica,sans-Serif" font-size="10.00" fill="grey"> altitude</text>
<text text-anchor="middle" x="251.5" y="-84" font-family="Helvetica,sans-Serif" font-size="10.00" fill="grey">dgps_age</text>
<text text-anchor="middle" x="251.5" y="-73" font-family="Helvetica,sans-Serif" font-size="10.00" fill="grey">hdop</text>
<text text-anchor="middle" x="251.5" y="-62" font-family="Helvetica,sans-Serif" font-size="10.00" fill="grey">height</text>
<text text-anchor="middle" x="251.5" y="-51" font-family="Helvetica,sans-Serif" font-size="10.00" fill="grey">latitude</text>
<text text-anchor="middle" x="251.5" y="-40" font-family="Helvetica,sans-Serif" font-size="10.00" fill="grey">longitude</text>
</g>
</g>
</svg>
