<?xml version="1.0" encoding="UTF-8" standalone="no"?>
<!DOCTYPE svg PUBLIC "-//W3C//DTD SVG 1.1//EN"
 "http://www.w3.org/Graphics/SVG/1.1/DTD/svg11.dtd">
<!-- Generated by graphviz version 2.43.0 (0)
 -->
<!-- Title: minmea_sentence_gll Pages: 1 -->
<svg width="298pt" height="104pt"
 viewBox="0.00 0.00 297.50 104.00" xmlns="http://www.w3.org/2000/svg" xmlns:xlink="http://www.w3.org/1999/xlink">
<g id="graph0" class="graph" transform="scale(1 1) rotate(0) translate(4 100)">
<title>minmea_sentence_gll</title>
<!-- Node1 -->
<g id="Node000001" class="node">
<title>Node1</title>
<g id="a_Node000001"><a xlink:title=" ">
<polygon fill="#999999" stroke="#666666" points="206,-19 82,-19 82,0 206,0 206,-19"/>
<text text-anchor="middle" x="144" y="-7" font-family="Helvetica,sans-Serif" font-size="10.00">minmea_sentence_gll</text>
</a>
</g>
</g>
<!-- Node2 -->
<g id="Node000002" class="node">
<title>Node2</title>
<g id="a_Node000002"><a xlink:href="unionminmea__type.html" target="_top" xlink:title=" ">
<polygon fill="white" stroke="#666666" points="84,-96 0,-96 0,-77 84,-77 84,-96"/>
<text text-anchor="middle" x="42" y="-84" font-family="Helvetica,sans-Serif" font-size="10.00">minmea_type</text>
</a>
</g>
</g>
<!-- Node2&#45;&gt;Node1 -->
<g id="edge1_Node000001_Node000002" class="edge">
<title>Node2&#45;&gt;Node1</title>
<g id="a_edge1_Node000001_Node000002"><a xlink:title=" ">
<path fill="none" stroke="#9a32cd" stroke-dasharray="5,2" d="M61.93,-70.85C82.93,-55.4 115.3,-31.6 132.44,-19"/>
<polygon fill="#9a32cd" stroke="#9a32cd" points="59.68,-68.15 53.7,-76.9 63.83,-73.79 59.68,-68.15"/>
</a>
</g>
<text text-anchor="middle" x="118.5" y="-45.5" font-family="Helvetica,sans-Serif" font-size="10.00" fill="grey"> type</text>
</g>
<!-- Node3 -->
<g id="Node000003" class="node">
<title>Node3</title>
<g id="a_Node000003"><a xlink:href="structminmea__float.html" target="_top" xlink:title=" ">
<polygon fill="white" stroke="#666666" points="186,-96 102,-96 102,-77 186,-77 186,-96"/>
<text text-anchor="middle" x="144" y="-84" font-family="Helvetica,sans-Serif" font-size="10.00">minmea_float</text>
</a>
</g>
</g>
<!-- Node3&#45;&gt;Node1 -->
<g id="edge2_Node000001_Node000003" class="edge">
<title>Node3&#45;&gt;Node1</title>
<g id="a_edge2_Node000001_Node000003"><a xlink:title=" ">
<path fill="none" stroke="#9a32cd" stroke-dasharray="5,2" d="M144,-66.52C144,-51.24 144,-30.48 144,-19"/>
<polygon fill="#9a32cd" stroke="#9a32cd" points="140.5,-66.9 144,-76.9 147.5,-66.9 140.5,-66.9"/>
</a>
</g>
<text text-anchor="middle" x="167" y="-51" font-family="Helvetica,sans-Serif" font-size="10.00" fill="grey"> latitude</text>
<text text-anchor="middle" x="167" y="-40" font-family="Helvetica,sans-Serif" font-size="10.00" fill="grey">longitude</text>
</g>
<!-- Node4 -->
<g id="Node000004" class="node">
<title>Node4</title>
<g id="a_Node000004"><a xlink:href="structminmea__time.html" target="_top" xlink:title=" ">
<polygon fill="white" stroke="#666666" points="289.5,-96 204.5,-96 204.5,-77 289.5,-77 289.5,-96"/>
<text text-anchor="middle" x="247" y="-84" font-family="Helvetica,sans-Serif" font-size="10.00">minmea_time</text>
</a>
</g>
</g>
<!-- Node4&#45;&gt;Node1 -->
<g id="edge3_Node000001_Node000004" class="edge">
<title>Node4&#45;&gt;Node1</title>
<g id="a_edge3_Node000001_Node000004"><a xlink:title=" ">
<path fill="none" stroke="#9a32cd" stroke-dasharray="5,2" d="M231.7,-69.55C221.57,-59.5 207.67,-46.64 194,-37 184.21,-30.09 172.39,-23.75 162.71,-19"/>
<polygon fill="#9a32cd" stroke="#9a32cd" points="229.43,-72.23 238.94,-76.89 234.41,-67.32 229.43,-72.23"/>
</a>
</g>
<text text-anchor="middle" x="232" y="-45.5" font-family="Helvetica,sans-Serif" font-size="10.00" fill="grey"> time</text>
</g>
</g>
</svg>
