<?xml version="1.0" encoding="UTF-8" standalone="no"?>
<!DOCTYPE svg PUBLIC "-//W3C//DTD SVG 1.1//EN"
 "http://www.w3.org/Graphics/SVG/1.1/DTD/svg11.dtd">
<!-- Generated by graphviz version 2.43.0 (0)
 -->
<!-- Title: minmea_sentence_rmc Pages: 1 -->
<svg width="400pt" height="137pt"
 viewBox="0.00 0.00 400.00 137.00" xmlns="http://www.w3.org/2000/svg" xmlns:xlink="http://www.w3.org/1999/xlink">

<svg id="main" version="1.1" xmlns="http://www.w3.org/2000/svg" xmlns:xlink="http://www.w3.org/1999/xlink" xml:space="preserve" onload="init(evt)">
<style type="text/css"><![CDATA[
.node, .edge {opacity: 0.7;}
.node.selected, .edge.selected {opacity: 1;}
.edge:hover path { stroke: red; }
.edge:hover polygon { stroke: red; fill: red; }
]]></style>
<script type="application/ecmascript" xlink:href="svg.min.js"/>
<svg id="graph" class="graph">
<g id="graph0" class="graph" transform="scale(1 1) rotate(0) translate(4 133)">
<title>minmea_sentence_rmc</title>
<!-- Node1 -->
<g id="Node000001" class="node">
<title>Node1</title>
<g id="a_Node000001"><a xlink:title=" ">
<polygon fill="#999999" stroke="#666666" points="261.5,-19 130.5,-19 130.5,0 261.5,0 261.5,-19"/>
<text text-anchor="middle" x="196" y="-7" font-family="Helvetica,sans-Serif" font-size="10.00">minmea_sentence_rmc</text>
</a>
</g>
</g>
<!-- Node2 -->
<g id="Node000002" class="node">
<title>Node2</title>
<g id="a_Node000002"><a xlink:href="unionminmea__type.html" target="_top" xlink:title=" ">
<polygon fill="white" stroke="#666666" points="84,-129 0,-129 0,-110 84,-110 84,-129"/>
<text text-anchor="middle" x="42" y="-117" font-family="Helvetica,sans-Serif" font-size="10.00">minmea_type</text>
</a>
</g>
</g>
<!-- Node2&#45;&gt;Node1 -->
<g id="edge1_Node000001_Node000002" class="edge">
<title>Node2&#45;&gt;Node1</title>
<g id="a_edge1_Node000001_Node000002"><a xlink:title=" ">
<path fill="none" stroke="#9a32cd" stroke-dasharray="5,2" d="M56.45,-101.89C72.81,-83.92 100.97,-55.38 130,-37 141.79,-29.54 156.03,-23.5 168.26,-19.08"/>
<polygon fill="#9a32cd" stroke="#9a32cd" points="53.46,-99.98 49.42,-109.78 58.69,-104.64 53.46,-99.98"/>
</a>
</g>
<text text-anchor="middle" x="142.5" y="-62" font-family="Helvetica,sans-Serif" font-size="10.00" fill="grey"> type</text>
</g>
<!-- Node3 -->
<g id="Node000003" class="node">
<title>Node3</title>
<g id="a_Node000003"><a xlink:href="structminmea__time.html" target="_top" xlink:title=" ">
<polygon fill="white" stroke="#666666" points="187.5,-129 102.5,-129 102.5,-110 187.5,-110 187.5,-129"/>
<text text-anchor="middle" x="145" y="-117" font-family="Helvetica,sans-Serif" font-size="10.00">minmea_time</text>
</a>
</g>
</g>
<!-- Node3&#45;&gt;Node1 -->
<g id="edge2_Node000001_Node000003" class="edge">
<title>Node3&#45;&gt;Node1</title>
<g id="a_edge2_Node000001_Node000003"><a xlink:title=" ">
<path fill="none" stroke="#9a32cd" stroke-dasharray="5,2" d="M153.53,-100.44C164.63,-76.92 183.61,-36.73 191.91,-19.16"/>
<polygon fill="#9a32cd" stroke="#9a32cd" points="150.28,-99.12 149.17,-109.66 156.61,-102.11 150.28,-99.12"/>
</a>
</g>
<text text-anchor="middle" x="196" y="-62" font-family="Helvetica,sans-Serif" font-size="10.00" fill="grey"> time</text>
</g>
<!-- Node4 -->
<g id="Node000004" class="node">
<title>Node4</title>
<g id="a_Node000004"><a xlink:href="structminmea__float.html" target="_top" xlink:title=" ">
<polygon fill="white" stroke="#666666" points="290,-129 206,-129 206,-110 290,-110 290,-129"/>
<text text-anchor="middle" x="248" y="-117" font-family="Helvetica,sans-Serif" font-size="10.00">minmea_float</text>
</a>
</g>
</g>
<!-- Node4&#45;&gt;Node1 -->
<g id="edge3_Node000001_Node000004" class="edge">
<title>Node4&#45;&gt;Node1</title>
<g id="a_edge3_Node000001_Node000004"><a xlink:title=" ">
<path fill="none" stroke="#9a32cd" stroke-dasharray="5,2" d="M241.08,-100.04C234.56,-83.26 224.13,-57.98 213,-37 209.72,-30.82 205.47,-24.2 202.04,-19.12"/>
<polygon fill="#9a32cd" stroke="#9a32cd" points="237.94,-101.62 244.78,-109.72 244.48,-99.13 237.94,-101.62"/>
</a>
</g>
<text text-anchor="middle" x="260" y="-84" font-family="Helvetica,sans-Serif" font-size="10.00" fill="grey"> course</text>
<text text-anchor="middle" x="260" y="-73" font-family="Helvetica,sans-Serif" font-size="10.00" fill="grey">latitude</text>
<text text-anchor="middle" x="260" y="-62" font-family="Helvetica,sans-Serif" font-size="10.00" fill="grey">longitude</text>
<text text-anchor="middle" x="260" y="-51" font-family="Helvetica,sans-Serif" font-size="10.00" fill="grey">speed</text>
<text text-anchor="middle" x="260" y="-40" font-family="Helvetica,sans-Serif" font-size="10.00" fill="grey">variation</text>
</g>
<!-- Node5 -->
<g id="Node000005" class="node">
<title>Node5</title>
<g id="a_Node000005"><a xlink:href="structminmea__date.html" target="_top" xlink:title=" ">
<polygon fill="white" stroke="#666666" points="392,-129 308,-129 308,-110 392,-110 392,-129"/>
<text text-anchor="middle" x="350" y="-117" font-family="Helvetica,sans-Serif" font-size="10.00">minmea_date</text>
</a>
</g>
</g>
<!-- Node5&#45;&gt;Node1 -->
<g id="edge4_Node000001_Node000005" class="edge">
<title>Node5&#45;&gt;Node1</title>
<g id="a_edge4_Node000001_Node000005"><a xlink:title=" ">
<path fill="none" stroke="#9a32cd" stroke-dasharray="5,2" d="M340.92,-101.04C330.38,-82.47 311.3,-53.56 287,-37 274.9,-28.75 260.21,-23.04 246.2,-19.09"/>
<polygon fill="#9a32cd" stroke="#9a32cd" points="337.89,-102.8 345.75,-109.91 344.04,-99.46 337.89,-102.8"/>
</a>
</g>
<text text-anchor="middle" x="347.5" y="-62" font-family="Helvetica,sans-Serif" font-size="10.00" fill="grey"> date</text>
</g>
</g>
</svg>
</svg>

<style type='text/css'>
<![CDATA[
[data-mouse-over-selected='false'] { opacity: 0.7; }
[data-mouse-over-selected='true']  { opacity: 1.0; }
]]>
</style>
<script type="application/ecmascript"><![CDATA[
document.addEventListener('DOMContentLoaded', (event) => {
  highlightEdges();
  highlightAdjacentNodes();
});
]]></script>
</svg>
