<?xml version="1.0" encoding="UTF-8" standalone="no"?>
<!DOCTYPE svg PUBLIC "-//W3C//DTD SVG 1.1//EN"
 "http://www.w3.org/Graphics/SVG/1.1/DTD/svg11.dtd">
<!-- Generated by graphviz version 2.43.0 (0)
 -->
<!-- Title: src/Modules/temp.h Pages: 1 -->
<!--zoomable 203 -->

<svg id="main" version="1.1" xmlns="http://www.w3.org/2000/svg" xmlns:xlink="http://www.w3.org/1999/xlink" xml:space="preserve" onload="init(evt)">
<style type="text/css"><![CDATA[
.node, .edge {opacity: 0.7;}
.node.selected, .edge.selected {opacity: 1;}
.edge:hover path { stroke: red; }
.edge:hover polygon { stroke: red; fill: red; }
]]></style>

<defs>
  <circle id="rim" cx="0" cy="0" r="7"/>
  <circle id="rim2" cx="0" cy="0" r="3.5"/>
  <g id="zoomPlus">
    <use xlink:href="#rim" fill="#404040"><set attributeName="fill" to="#808080" begin="zoomplus.mouseover" end="zoomplus.mouseout"/></use>
    <path d="M-4,0h8M0,-4v8" fill="none" stroke="white" stroke-width="1.5" pointer-events="none"/>
  </g>
  <g id="zoomMin">
    <use xlink:href="#rim" fill="#404040"><set attributeName="fill" to="#808080" begin="zoomminus.mouseover" end="zoomminus.mouseout"/></use>
    <path d="M-4,0h8" fill="none" stroke="white" stroke-width="1.5" pointer-events="none"/>
  </g>
  <g id="arrowUp" transform="translate(30 24)">
    <use xlink:href="#rim"/>
    <path pointer-events="none" fill="none" stroke="white" stroke-width="1.5" d="M0,-3.0v7 M-2.5,-0.5L0,-3.0L2.5,-0.5"/>
  </g>
  <g id="arrowRight" transform="rotate(90) translate(36 -43)">
    <use xlink:href="#rim"/>
    <path pointer-events="none" fill="none" stroke="white" stroke-width="1.5" d="M0,-3.0v7 M-2.5,-0.5L0,-3.0L2.5,-0.5"/>
  </g>
  <g id="arrowDown" transform="rotate(180) translate(-30 -48)">
    <use xlink:href="#rim"/>
    <path pointer-events="none" fill="none" stroke="white" stroke-width="1.5" d="M0,-3.0v7 M-2.5,-0.5L0,-3.0L2.5,-0.5"/>
  </g>
  <g id="arrowLeft" transform="rotate(270) translate(-36 17)">
    <use xlink:href="#rim"/>
    <path pointer-events="none" fill="none" stroke="white" stroke-width="1.5" d="M0,-3.0v7 M-2.5,-0.5L0,-3.0L2.5,-0.5"/>
  </g>
  <g id="resetDef">
    <use xlink:href="#rim2" fill="#404040"><set attributeName="fill" to="#808080" begin="reset.mouseover" end="reset.mouseout"/></use>
  </g>
</defs>
<script type="application/ecmascript">
var viewWidth = 568;
var viewHeight = 203;
var sectionId = 'dynsection-1';
</script>
<script type="application/ecmascript" xlink:href="svg.min.js"/>
<svg id="graph" class="graph">
<g id="viewport">
<title>src/Modules/temp.h</title>
<!-- Node1 -->
<g id="Node000001" class="node">
<title>Node1</title>
<g id="a_Node000001"><a xlink:title="Definizioni hardware e prototipi per la lettura della temperatura.">
<polygon fill="#999999" stroke="#666666" points="464,-195 351,-195 351,-176 464,-176 464,-195"/>
<text text-anchor="middle" x="407.5" y="-183" font-family="Helvetica,sans-Serif" font-size="10.00">src/Modules/temp.h</text>
</a>
</g>
</g>
<!-- Node2 -->
<g id="Node000002" class="node">
<title>Node2</title>
<g id="a_Node000002"><a xlink:href="display__ui_8h.html" target="_top" xlink:title="Definizioni hardware e prototipi per l&#39;interfaccia utente OLED.">
<polygon fill="white" stroke="#666666" points="310,-140 173,-140 173,-121 310,-121 310,-140"/>
<text text-anchor="middle" x="241.5" y="-128" font-family="Helvetica,sans-Serif" font-size="10.00">src/Modules/display_ui.h</text>
</a>
</g>
</g>
<!-- Node1&#45;&gt;Node2 -->
<g id="edge1_Node000001_Node000002" class="edge">
<title>Node1&#45;&gt;Node2</title>
<g id="a_edge1_Node000001_Node000002"><a xlink:title=" ">
<path fill="none" stroke="#63b8ff" d="M371.25,-172.93C340.25,-163.03 296.33,-149.01 268.38,-140.08"/>
<polygon fill="#63b8ff" stroke="#63b8ff" points="370.24,-176.28 380.83,-175.98 372.37,-169.61 370.24,-176.28"/>
</a>
</g>
</g>
<!-- Node6 -->
<g id="Node000006" class="node">
<title>Node6</title>
<g id="a_Node000006"><a xlink:href="main_8cpp.html" target="_top" xlink:title="Orchestratore di sistema e gestione Multicore.">
<polygon fill="white" stroke="#666666" points="409,-19 330,-19 330,0 409,0 409,-19"/>
<text text-anchor="middle" x="369.5" y="-7" font-family="Helvetica,sans-Serif" font-size="10.00">src/main.cpp</text>
</a>
</g>
</g>
<!-- Node1&#45;&gt;Node6 -->
<g id="edge12_Node000001_Node000006" class="edge">
<title>Node1&#45;&gt;Node6</title>
<g id="a_edge12_Node000001_Node000006"><a xlink:title=" ">
<path fill="none" stroke="#63b8ff" d="M403.36,-165.56C395.19,-128.12 377.24,-45.95 371.39,-19.14"/>
<polygon fill="#63b8ff" stroke="#63b8ff" points="400.01,-166.61 405.56,-175.63 406.85,-165.12 400.01,-166.61"/>
</a>
</g>
</g>
<!-- Node8 -->
<g id="Node000008" class="node">
<title>Node8</title>
<g id="a_Node000008"><a xlink:href="temp_8cpp.html" target="_top" xlink:title="Implementazione della lettura della temperatura analogica.">
<polygon fill="white" stroke="#666666" points="559.5,-140 435.5,-140 435.5,-121 559.5,-121 559.5,-140"/>
<text text-anchor="middle" x="497.5" y="-128" font-family="Helvetica,sans-Serif" font-size="10.00">src/Modules/temp.cpp</text>
</a>
</g>
</g>
<!-- Node1&#45;&gt;Node8 -->
<g id="edge11_Node000001_Node000008" class="edge">
<title>Node1&#45;&gt;Node8</title>
<g id="a_edge11_Node000001_Node000008"><a xlink:title=" ">
<path fill="none" stroke="#63b8ff" d="M430.94,-170.7C447.34,-161.04 468.73,-148.44 482.78,-140.17"/>
<polygon fill="#63b8ff" stroke="#63b8ff" points="428.8,-167.89 421.96,-175.98 432.35,-173.93 428.8,-167.89"/>
</a>
</g>
</g>
<!-- Node3 -->
<g id="Node000003" class="node">
<title>Node3</title>
<g id="a_Node000003"><a xlink:href="buttons_8cpp.html" target="_top" xlink:title="Gestione dell&#39;input utente, sitema di debounce e macchina a stati del menu.">
<polygon fill="white" stroke="#666666" points="310,-19 175,-19 175,0 310,0 310,-19"/>
<text text-anchor="middle" x="242.5" y="-7" font-family="Helvetica,sans-Serif" font-size="10.00">src/Modules/buttons.cpp</text>
</a>
</g>
</g>
<!-- Node2&#45;&gt;Node3 -->
<g id="edge2_Node000002_Node000003" class="edge">
<title>Node2&#45;&gt;Node3</title>
<g id="a_edge2_Node000002_Node000003"><a xlink:title=" ">
<path fill="none" stroke="#63b8ff" d="M276.39,-116.5C290.21,-109.43 304.66,-99.17 312.5,-85 318.96,-73.33 318.92,-66.69 312.5,-55 302.93,-37.58 283.34,-26.01 267.31,-19.05"/>
<polygon fill="#63b8ff" stroke="#63b8ff" points="274.58,-113.48 267.01,-120.9 277.55,-119.82 274.58,-113.48"/>
</a>
</g>
</g>
<!-- Node4 -->
<g id="Node000004" class="node">
<title>Node4</title>
<g id="a_Node000004"><a xlink:href="buttons_8h.html" target="_top" xlink:title="Definizioni e prototipi per la gestione degli input utente e della UI.">
<polygon fill="white" stroke="#666666" points="303.5,-79.5 179.5,-79.5 179.5,-60.5 303.5,-60.5 303.5,-79.5"/>
<text text-anchor="middle" x="241.5" y="-67.5" font-family="Helvetica,sans-Serif" font-size="10.00">src/Modules/buttons.h</text>
</a>
</g>
</g>
<!-- Node2&#45;&gt;Node4 -->
<g id="edge3_Node000002_Node000004" class="edge">
<title>Node2&#45;&gt;Node4</title>
<g id="a_edge3_Node000002_Node000004"><a xlink:title=" ">
<path fill="none" stroke="#63b8ff" d="M235.15,-110.66C234.32,-100.24 234.79,-87.8 236.54,-79.67"/>
<polygon fill="#63b8ff" stroke="#63b8ff" points="231.72,-111.44 236.54,-120.87 238.65,-110.49 231.72,-111.44"/>
</a>
</g>
</g>
<!-- Node5 -->
<g id="Node000005" class="node">
<title>Node5</title>
<g id="a_Node000005"><a xlink:href="leds_8cpp.html" target="_top" xlink:title="Implementazione dei feedback visivi tramite LED RGB.">
<polygon fill="white" stroke="#666666" points="119,-19 0,-19 0,0 119,0 119,-19"/>
<text text-anchor="middle" x="59.5" y="-7" font-family="Helvetica,sans-Serif" font-size="10.00">src/Modules/leds.cpp</text>
</a>
</g>
</g>
<!-- Node2&#45;&gt;Node5 -->
<g id="edge9_Node000002_Node000005" class="edge">
<title>Node2&#45;&gt;Node5</title>
<g id="a_edge9_Node000002_Node000005"><a xlink:title=" ">
<path fill="none" stroke="#63b8ff" d="M162.57,-122.31C112.46,-115.93 54.18,-104.49 38.5,-85 22.66,-65.32 41.41,-34.36 52.49,-19.31"/>
<polygon fill="#63b8ff" stroke="#63b8ff" points="162.44,-125.82 172.8,-123.56 163.29,-118.87 162.44,-125.82"/>
</a>
</g>
</g>
<!-- Node2&#45;&gt;Node6 -->
<g id="edge10_Node000002_Node000006" class="edge">
<title>Node2&#45;&gt;Node6</title>
<g id="a_edge10_Node000002_Node000006"><a xlink:title=" ">
<path fill="none" stroke="#63b8ff" d="M277.26,-116.93C294.29,-109.61 314.05,-99.02 328.5,-85 348.42,-65.67 361.19,-34.55 366.57,-19.39"/>
<polygon fill="#63b8ff" stroke="#63b8ff" points="275.54,-113.85 267.61,-120.87 278.19,-120.33 275.54,-113.85"/>
</a>
</g>
</g>
<!-- Node7 -->
<g id="Node000007" class="node">
<title>Node7</title>
<g id="a_Node000007"><a xlink:href="display__ui_8cpp.html" target="_top" xlink:title="Implementazione dell&#39;interfaccia utente (UI) su display OLED SSD1306.">
<polygon fill="white" stroke="#666666" points="161,-85 48,-85 48,-55 161,-55 161,-85"/>
<text text-anchor="start" x="56" y="-73" font-family="Helvetica,sans-Serif" font-size="10.00">src/Modules/display</text>
<text text-anchor="middle" x="104.5" y="-62" font-family="Helvetica,sans-Serif" font-size="10.00">_ui.cpp</text>
</a>
</g>
</g>
<!-- Node2&#45;&gt;Node7 -->
<g id="edge8_Node000002_Node000007" class="edge">
<title>Node2&#45;&gt;Node7</title>
<g id="a_edge8_Node000002_Node000007"><a xlink:title=" ">
<path fill="none" stroke="#63b8ff" d="M212.12,-116.95C190.18,-107.59 160.19,-94.78 137.44,-85.06"/>
<polygon fill="#63b8ff" stroke="#63b8ff" points="211.01,-120.29 221.58,-120.99 213.76,-113.85 211.01,-120.29"/>
</a>
</g>
</g>
<!-- Node4&#45;&gt;Node2 -->
<g id="edge5_Node000004_Node000002" class="edge">
<title>Node4&#45;&gt;Node2</title>
<g id="a_edge5_Node000004_Node000002"><a xlink:title=" ">
<path fill="none" stroke="#63b8ff" d="M247.86,-89.89C248.68,-100.31 248.21,-112.75 246.46,-120.87"/>
<polygon fill="#63b8ff" stroke="#63b8ff" points="251.28,-89.1 246.46,-79.67 244.35,-90.05 251.28,-89.1"/>
</a>
</g>
</g>
<!-- Node4&#45;&gt;Node3 -->
<g id="edge4_Node000004_Node000003" class="edge">
<title>Node4&#45;&gt;Node3</title>
<g id="a_edge4_Node000004_Node000003"><a xlink:title=" ">
<path fill="none" stroke="#63b8ff" d="M241.82,-50.16C242,-39.74 242.21,-27.3 242.35,-19.17"/>
<polygon fill="#63b8ff" stroke="#63b8ff" points="238.32,-50.31 241.65,-60.37 245.32,-50.43 238.32,-50.31"/>
</a>
</g>
</g>
<!-- Node4&#45;&gt;Node5 -->
<g id="edge6_Node000004_Node000005" class="edge">
<title>Node4&#45;&gt;Node5</title>
<g id="a_edge6_Node000004_Node000005"><a xlink:title=" ">
<path fill="none" stroke="#63b8ff" d="M205.15,-57.32C169.95,-46 117.42,-29.12 86,-19.02"/>
<polygon fill="#63b8ff" stroke="#63b8ff" points="204.44,-60.77 215.04,-60.49 206.59,-54.1 204.44,-60.77"/>
</a>
</g>
</g>
<!-- Node4&#45;&gt;Node6 -->
<g id="edge7_Node000004_Node000006" class="edge">
<title>Node4&#45;&gt;Node6</title>
<g id="a_edge7_Node000004_Node000006"><a xlink:title=" ">
<path fill="none" stroke="#63b8ff" d="M269.33,-56.28C294.03,-44.99 329.43,-28.81 350.87,-19.02"/>
<polygon fill="#63b8ff" stroke="#63b8ff" points="267.75,-53.15 260.11,-60.49 270.66,-59.52 267.75,-53.15"/>
</a>
</g>
</g>
</g>
</svg>

<g id="navigator" transform="translate(0 0)" fill="#404254">
  <rect fill="#f2f5e9" fill-opacity="0.5" stroke="#606060" stroke-width=".5" x="0" y="0" width="60" height="60"/>
  <use id="zoomplus" xlink:href="#zoomPlus" x="17" y="9" onmousedown="handleZoom(evt,'in')"/>
  <use id="zoomminus" xlink:href="#zoomMin" x="42" y="9" onmousedown="handleZoom(evt,'out')"/>
  <use id="reset" xlink:href="#resetDef" x="30" y="36" onmousedown="handleReset()"/>
   <use id="arrowup" xlink:href="#arrowUp" x="0" y="0" onmousedown="handlePan(0,-1)"/>
  <use id="arrowright" xlink:href="#arrowRight" x="0" y="0" onmousedown="handlePan(1,0)"/>
  <use id="arrowdown" xlink:href="#arrowDown" x="0" y="0" onmousedown="handlePan(0,1)"/>
  <use id="arrowleft" xlink:href="#arrowLeft" x="0" y="0" onmousedown="handlePan(-1,0)"/>
</g>
<svg viewBox="0 0 15 15" width="100%" height="30px" preserveAspectRatio="xMaxYMin meet">
 <g id="arrow_out" transform="scale(0.3 0.3)">
  <a xlink:href="temp_8h__dep__incl_org.svg" target="_base">
   <rect id="button" ry="5" rx="5" y="6" x="6" height="38" width="38"
        fill="#f2f5e9" fill-opacity="0.5" stroke="#606060" stroke-width="1.0"/>
   <path id="arrow"
     d="M 11.500037,31.436501 C 11.940474,20.09759 22.043105,11.32322 32.158766,21.979434 L 37.068811,17.246167 C 37.068811,17.246167 37.088388,32 37.088388,32 L 22.160133,31.978069 C 22.160133,31.978069 26.997745,27.140456 26.997745,27.140456 C 18.528582,18.264221 13.291696,25.230495 11.500037,31.436501 z"
     style="fill:#404040;"/>
  </a>
 </g>
</svg>

<style type='text/css'>
<![CDATA[
[data-mouse-over-selected='false'] { opacity: 0.7; }
[data-mouse-over-selected='true']  { opacity: 1.0; }
]]>
</style>
<script type="application/ecmascript"><![CDATA[
document.addEventListener('DOMContentLoaded', (event) => {
  highlightEdges();
  highlightAdjacentNodes();
});
]]></script>
</svg>
