<?xml version="1.0" encoding="UTF-8" standalone="no"?>
<!DOCTYPE svg PUBLIC "-//W3C//DTD SVG 1.1//EN"
 "http://www.w3.org/Graphics/SVG/1.1/DTD/svg11.dtd">
<!-- Generated by graphviz version 2.43.0 (0)
 -->
<!-- Title: src/Modules/temp.cpp Pages: 1 -->
<svg width="302pt" height="137pt"
 viewBox="0.00 0.00 301.50 137.00" xmlns="http://www.w3.org/2000/svg" xmlns:xlink="http://www.w3.org/1999/xlink">

<svg id="main" version="1.1" xmlns="http://www.w3.org/2000/svg" xmlns:xlink="http://www.w3.org/1999/xlink" xml:space="preserve" onload="init(evt)">
<style type="text/css"><![CDATA[
.node, .edge {opacity: 0.7;}
.node.selected, .edge.selected {opacity: 1;}
.edge:hover path { stroke: red; }
.edge:hover polygon { stroke: red; fill: red; }
]]></style>
<script type="application/ecmascript" xlink:href="svg.min.js"/>
<svg id="graph" class="graph">
<g id="graph0" class="graph" transform="scale(1 1) rotate(0) translate(4 133)">
<title>src/Modules/temp.cpp</title>
<!-- Node1 -->
<g id="Node000001" class="node">
<title>Node1</title>
<g id="a_Node000001"><a xlink:title="Implementazione della lettura della temperatura analogica.">
<polygon fill="#999999" stroke="#666666" points="174.5,-129 50.5,-129 50.5,-110 174.5,-110 174.5,-129"/>
<text text-anchor="middle" x="112.5" y="-117" font-family="Helvetica,sans-Serif" font-size="10.00">src/Modules/temp.cpp</text>
</a>
</g>
</g>
<!-- Node2 -->
<g id="Node000002" class="node">
<title>Node2</title>
<g id="a_Node000002"><a xlink:href="temp_8h.html" target="_top" xlink:title="Definizioni hardware e prototipi per la lettura della temperatura.">
<polygon fill="white" stroke="#666666" points="51,-74 0,-74 0,-55 51,-55 51,-74"/>
<text text-anchor="middle" x="25.5" y="-62" font-family="Helvetica,sans-Serif" font-size="10.00">temp.h</text>
</a>
</g>
</g>
<!-- Node1&#45;&gt;Node2 -->
<g id="edge1_Node000001_Node000002" class="edge">
<title>Node1&#45;&gt;Node2</title>
<g id="a_edge1_Node000001_Node000002"><a xlink:title=" ">
<path fill="none" stroke="#63b8ff" d="M98.52,-109.98C85.03,-101.77 64.37,-89.18 48.46,-79.49"/>
<polygon fill="#63b8ff" stroke="#63b8ff" points="50.09,-76.38 39.73,-74.17 46.45,-82.36 50.09,-76.38"/>
</a>
</g>
</g>
<!-- Node3 -->
<g id="Node000003" class="node">
<title>Node3</title>
<g id="a_Node000003"><a xlink:title=" ">
<polygon fill="#e0e0e0" stroke="#999999" points="84,-19 21,-19 21,0 84,0 84,-19"/>
<text text-anchor="middle" x="52.5" y="-7" font-family="Helvetica,sans-Serif" font-size="10.00">Arduino.h</text>
</a>
</g>
</g>
<!-- Node1&#45;&gt;Node3 -->
<g id="edge5_Node000001_Node000003" class="edge">
<title>Node1&#45;&gt;Node3</title>
<g id="a_edge5_Node000001_Node000003"><a xlink:title=" ">
<path fill="none" stroke="#63b8ff" d="M107.59,-109.66C97.7,-91.85 75.2,-51.37 62.23,-28.01"/>
<polygon fill="#63b8ff" stroke="#63b8ff" points="65.23,-26.2 57.31,-19.16 59.11,-29.6 65.23,-26.2"/>
</a>
</g>
</g>
<!-- Node4 -->
<g id="Node000004" class="node">
<title>Node4</title>
<g id="a_Node000004"><a xlink:title=" ">
<polygon fill="#e0e0e0" stroke="#999999" points="183.5,-74 107.5,-74 107.5,-55 183.5,-55 183.5,-74"/>
<text text-anchor="middle" x="145.5" y="-62" font-family="Helvetica,sans-Serif" font-size="10.00">pico/stdlib.h</text>
</a>
</g>
</g>
<!-- Node1&#45;&gt;Node4 -->
<g id="edge3_Node000001_Node000004" class="edge">
<title>Node1&#45;&gt;Node4</title>
<g id="a_edge3_Node000001_Node000004"><a xlink:title=" ">
<path fill="none" stroke="#63b8ff" d="M117.95,-109.75C122.51,-102.42 129.17,-91.73 134.79,-82.7"/>
<polygon fill="#63b8ff" stroke="#63b8ff" points="137.84,-84.43 140.15,-74.09 131.9,-80.73 137.84,-84.43"/>
</a>
</g>
</g>
<!-- Node5 -->
<g id="Node000005" class="node">
<title>Node5</title>
<g id="a_Node000005"><a xlink:title=" ">
<polygon fill="#e0e0e0" stroke="#999999" points="293.5,-74 201.5,-74 201.5,-55 293.5,-55 293.5,-74"/>
<text text-anchor="middle" x="247.5" y="-62" font-family="Helvetica,sans-Serif" font-size="10.00">hardware/adc.h</text>
</a>
</g>
</g>
<!-- Node1&#45;&gt;Node5 -->
<g id="edge4_Node000001_Node000005" class="edge">
<title>Node1&#45;&gt;Node5</title>
<g id="a_edge4_Node000001_Node000005"><a xlink:title=" ">
<path fill="none" stroke="#63b8ff" d="M134.19,-109.98C156.3,-101.3 190.82,-87.75 215.95,-77.88"/>
<polygon fill="#63b8ff" stroke="#63b8ff" points="217.39,-81.08 225.42,-74.17 214.83,-74.57 217.39,-81.08"/>
</a>
</g>
</g>
<!-- Node2&#45;&gt;Node3 -->
<g id="edge2_Node000002_Node000003" class="edge">
<title>Node2&#45;&gt;Node3</title>
<g id="a_edge2_Node000002_Node000003"><a xlink:title=" ">
<path fill="none" stroke="#63b8ff" d="M29.96,-54.75C33.62,-47.57 38.91,-37.18 43.45,-28.27"/>
<polygon fill="#63b8ff" stroke="#63b8ff" points="46.7,-29.59 48.12,-19.09 40.47,-26.41 46.7,-29.59"/>
</a>
</g>
</g>
</g>
</svg>
</svg>

<style type='text/css'>
<![CDATA[
[data-mouse-over-selected='false'] { opacity: 0.7; }
[data-mouse-over-selected='true']  { opacity: 1.0; }
]]>
</style>
<script type="application/ecmascript"><![CDATA[
document.addEventListener('DOMContentLoaded', (event) => {
  highlightEdges();
  highlightAdjacentNodes();
});
]]></script>
</svg>
