<?xml version="1.0" encoding="UTF-8" standalone="no"?>
<!DOCTYPE svg PUBLIC "-//W3C//DTD SVG 1.1//EN"
 "http://www.w3.org/Graphics/SVG/1.1/DTD/svg11.dtd">
<!-- Generated by graphviz version 2.43.0 (0)
 -->
<!-- Title: firm/include/ui/ui_manager.h Pages: 1 -->
<svg width="1166pt" height="104pt"
 viewBox="0.00 0.00 1166.00 104.00" xmlns="http://www.w3.org/2000/svg" xmlns:xlink="http://www.w3.org/1999/xlink">
<g id="graph0" class="graph" transform="scale(1 1) rotate(0) translate(4 100)">
<title>firm/include/ui/ui_manager.h</title>
<!-- Node1 -->
<g id="Node000001" class="node">
<title>Node1</title>
<g id="a_Node000001"><a xlink:title="Orchestratore agnostico dell&#39;interfaccia utente.">
<polygon fill="#999999" stroke="#666666" points="651.5,-96 553.5,-96 553.5,-66 651.5,-66 651.5,-96"/>
<text text-anchor="start" x="561.5" y="-84" font-family="Helvetica,sans-Serif" font-size="10.00">firm/include/ui/ui</text>
<text text-anchor="middle" x="602.5" y="-73" font-family="Helvetica,sans-Serif" font-size="10.00">_manager.h</text>
</a>
</g>
</g>
<!-- Node2 -->
<g id="Node000002" class="node">
<title>Node2</title>
<g id="a_Node000002"><a xlink:href="core0__manager_8cpp_source.html" target="_top" xlink:title=" ">
<polygon fill="white" stroke="#666666" points="125,-30 0,-30 0,0 125,0 125,-30"/>
<text text-anchor="start" x="8" y="-18" font-family="Helvetica,sans-Serif" font-size="10.00">firm/src/pipeline/core0</text>
<text text-anchor="middle" x="62.5" y="-7" font-family="Helvetica,sans-Serif" font-size="10.00">_manager.cpp</text>
</a>
</g>
</g>
<!-- Node1&#45;&gt;Node2 -->
<g id="edge1_Node000001_Node000002" class="edge">
<title>Node1&#45;&gt;Node2</title>
<g id="a_edge1_Node000001_Node000002"><a xlink:title=" ">
<path fill="none" stroke="#63b8ff" d="M543.17,-75.37C453.97,-68.02 280.1,-52.22 133.5,-30 130.77,-29.59 127.98,-29.14 125.17,-28.67"/>
<polygon fill="#63b8ff" stroke="#63b8ff" points="543.11,-78.88 553.37,-76.2 543.68,-71.9 543.11,-78.88"/>
</a>
</g>
</g>
<!-- Node3 -->
<g id="Node000003" class="node">
<title>Node3</title>
<g id="a_Node000003"><a xlink:href="tasks_8cpp_source.html" target="_top" xlink:title=" ">
<polygon fill="white" stroke="#666666" points="288,-24.5 143,-24.5 143,-5.5 288,-5.5 288,-24.5"/>
<text text-anchor="middle" x="215.5" y="-12.5" font-family="Helvetica,sans-Serif" font-size="10.00">firm/src/pipeline/tasks.cpp</text>
</a>
</g>
</g>
<!-- Node1&#45;&gt;Node3 -->
<g id="edge2_Node000001_Node000003" class="edge">
<title>Node1&#45;&gt;Node3</title>
<g id="a_edge2_Node000001_Node000003"><a xlink:title=" ">
<path fill="none" stroke="#63b8ff" d="M543.45,-70.44C482,-60.46 382.97,-44.3 297.5,-30 287.1,-28.26 275.97,-26.37 265.36,-24.57"/>
<polygon fill="#63b8ff" stroke="#63b8ff" points="542.92,-73.9 553.36,-72.05 544.05,-66.99 542.92,-73.9"/>
</a>
</g>
</g>
<!-- Node4 -->
<g id="Node000004" class="node">
<title>Node4</title>
<g id="a_Node000004"><a xlink:href="ui__manager_8cpp.html" target="_top" xlink:title=" ">
<polygon fill="white" stroke="#666666" points="452.5,-24.5 306.5,-24.5 306.5,-5.5 452.5,-5.5 452.5,-24.5"/>
<text text-anchor="middle" x="379.5" y="-12.5" font-family="Helvetica,sans-Serif" font-size="10.00">firm/src/ui/ui_manager.cpp</text>
</a>
</g>
</g>
<!-- Node1&#45;&gt;Node4 -->
<g id="edge3_Node000001_Node000004" class="edge">
<title>Node1&#45;&gt;Node4</title>
<g id="a_edge3_Node000001_Node000004"><a xlink:title=" ">
<path fill="none" stroke="#63b8ff" d="M543.71,-63.13C500.43,-50.71 443.38,-34.33 409.18,-24.52"/>
<polygon fill="#63b8ff" stroke="#63b8ff" points="542.98,-66.56 553.56,-65.95 544.92,-59.83 542.98,-66.56"/>
</a>
</g>
</g>
<!-- Node5 -->
<g id="Node000005" class="node">
<title>Node5</title>
<g id="a_Node000005"><a xlink:href="view__gps_8cpp_source.html" target="_top" xlink:title=" ">
<polygon fill="white" stroke="#666666" points="594,-30 471,-30 471,0 594,0 594,-30"/>
<text text-anchor="start" x="479" y="-18" font-family="Helvetica,sans-Serif" font-size="10.00">firm/src/ui/views/view</text>
<text text-anchor="middle" x="532.5" y="-7" font-family="Helvetica,sans-Serif" font-size="10.00">_gps.cpp</text>
</a>
</g>
</g>
<!-- Node1&#45;&gt;Node5 -->
<g id="edge4_Node000001_Node000005" class="edge">
<title>Node1&#45;&gt;Node5</title>
<g id="a_edge4_Node000001_Node000005"><a xlink:title=" ">
<path fill="none" stroke="#63b8ff" d="M579.45,-58.92C569.13,-49.49 557.23,-38.61 547.99,-30.16"/>
<polygon fill="#63b8ff" stroke="#63b8ff" points="577.22,-61.63 586.96,-65.8 581.95,-56.47 577.22,-61.63"/>
</a>
</g>
</g>
<!-- Node6 -->
<g id="Node000006" class="node">
<title>Node6</title>
<g id="a_Node000006"><a xlink:href="view__home_8cpp_source.html" target="_top" xlink:title=" ">
<polygon fill="white" stroke="#666666" points="735,-30 612,-30 612,0 735,0 735,-30"/>
<text text-anchor="start" x="620" y="-18" font-family="Helvetica,sans-Serif" font-size="10.00">firm/src/ui/views/view</text>
<text text-anchor="middle" x="673.5" y="-7" font-family="Helvetica,sans-Serif" font-size="10.00">_home.cpp</text>
</a>
</g>
</g>
<!-- Node1&#45;&gt;Node6 -->
<g id="edge5_Node000001_Node000006" class="edge">
<title>Node1&#45;&gt;Node6</title>
<g id="a_edge5_Node000001_Node000006"><a xlink:title=" ">
<path fill="none" stroke="#63b8ff" d="M625.88,-58.92C636.35,-49.49 648.42,-38.61 657.79,-30.16"/>
<polygon fill="#63b8ff" stroke="#63b8ff" points="623.34,-56.5 618.26,-65.8 628.03,-61.7 623.34,-56.5"/>
</a>
</g>
</g>
<!-- Node7 -->
<g id="Node000007" class="node">
<title>Node7</title>
<g id="a_Node000007"><a xlink:href="view__info_8cpp_source.html" target="_top" xlink:title=" ">
<polygon fill="white" stroke="#666666" points="876,-30 753,-30 753,0 876,0 876,-30"/>
<text text-anchor="start" x="761" y="-18" font-family="Helvetica,sans-Serif" font-size="10.00">firm/src/ui/views/view</text>
<text text-anchor="middle" x="814.5" y="-7" font-family="Helvetica,sans-Serif" font-size="10.00">_info.cpp</text>
</a>
</g>
</g>
<!-- Node1&#45;&gt;Node7 -->
<g id="edge6_Node000001_Node000007" class="edge">
<title>Node1&#45;&gt;Node7</title>
<g id="a_edge6_Node000001_Node000007"><a xlink:title=" ">
<path fill="none" stroke="#63b8ff" d="M658.85,-62.99C692.96,-52.69 735.94,-39.72 768.08,-30.01"/>
<polygon fill="#63b8ff" stroke="#63b8ff" points="657.59,-59.71 649.02,-65.95 659.61,-66.42 657.59,-59.71"/>
</a>
</g>
</g>
<!-- Node8 -->
<g id="Node000008" class="node">
<title>Node8</title>
<g id="a_Node000008"><a xlink:href="view__meteo_8cpp_source.html" target="_top" xlink:title=" ">
<polygon fill="white" stroke="#666666" points="1017,-30 894,-30 894,0 1017,0 1017,-30"/>
<text text-anchor="start" x="902" y="-18" font-family="Helvetica,sans-Serif" font-size="10.00">firm/src/ui/views/view</text>
<text text-anchor="middle" x="955.5" y="-7" font-family="Helvetica,sans-Serif" font-size="10.00">_meteo.cpp</text>
</a>
</g>
</g>
<!-- Node1&#45;&gt;Node8 -->
<g id="edge7_Node000001_Node000008" class="edge">
<title>Node1&#45;&gt;Node8</title>
<g id="a_edge7_Node000001_Node000008"><a xlink:title=" ">
<path fill="none" stroke="#63b8ff" d="M661.61,-69.96C718.91,-60.12 808.26,-44.55 885.5,-30 888.18,-29.5 890.92,-28.97 893.68,-28.44"/>
<polygon fill="#63b8ff" stroke="#63b8ff" points="660.91,-66.52 651.64,-71.66 662.09,-73.42 660.91,-66.52"/>
</a>
</g>
</g>
<!-- Node9 -->
<g id="Node000009" class="node">
<title>Node9</title>
<g id="a_Node000009"><a xlink:href="view__settings_8cpp_source.html" target="_top" xlink:title=" ">
<polygon fill="white" stroke="#666666" points="1158,-30 1035,-30 1035,0 1158,0 1158,-30"/>
<text text-anchor="start" x="1043" y="-18" font-family="Helvetica,sans-Serif" font-size="10.00">firm/src/ui/views/view</text>
<text text-anchor="middle" x="1096.5" y="-7" font-family="Helvetica,sans-Serif" font-size="10.00">_settings.cpp</text>
</a>
</g>
</g>
<!-- Node1&#45;&gt;Node9 -->
<g id="edge8_Node000001_Node000009" class="edge">
<title>Node1&#45;&gt;Node9</title>
<g id="a_edge8_Node000001_Node000009"><a xlink:title=" ">
<path fill="none" stroke="#63b8ff" d="M661.79,-74.52C743.96,-66.58 896.98,-50.56 1026.5,-30 1029.19,-29.57 1031.94,-29.12 1034.71,-28.64"/>
<polygon fill="#63b8ff" stroke="#63b8ff" points="661.26,-71.05 651.64,-75.49 661.93,-78.02 661.26,-71.05"/>
</a>
</g>
</g>
</g>
</svg>
