<?xml version="1.0" encoding="UTF-8" standalone="no"?>
<!DOCTYPE svg PUBLIC "-//W3C//DTD SVG 1.1//EN"
 "http://www.w3.org/Graphics/SVG/1.1/DTD/svg11.dtd">
<!-- Generated by graphviz version 2.43.0 (0)
 -->
<!-- Title: Weather_CodeToShortText Pages: 1 -->
<svg width="812pt" height="141pt"
 viewBox="0.00 0.00 812.00 141.31" xmlns="http://www.w3.org/2000/svg" xmlns:xlink="http://www.w3.org/1999/xlink">
<g id="graph0" class="graph" transform="scale(1 1) rotate(0) translate(4 137.31)">
<title>Weather_CodeToShortText</title>
<!-- Node1 -->
<g id="Node000001" class="node">
<title>Node1</title>
<g id="a_Node000001"><a xlink:title="Converte il codice WMO in una descrizione testuale breve.">
<polygon fill="#999999" stroke="#666666" points="804,-32.09 661,-32.09 661,-13.09 804,-13.09 804,-32.09"/>
<text text-anchor="middle" x="732.5" y="-20.09" font-family="Helvetica,sans-Serif" font-size="10.00">Weather_CodeToShortText</text>
</a>
</g>
</g>
<!-- Node2 -->
<g id="Node000002" class="node">
<title>Node2</title>
<g id="a_Node000002"><a xlink:href="display__ui_8cpp.html#a1946154d8e9e6dd415476d3378b98ff1" target="_top" xlink:title="Disegna la schermata principale (Ambient Display). Mostra i dati meteo correnti, l&#39;ora e la data recu...">
<polygon fill="white" stroke="#666666" points="625,-70.09 522,-70.09 522,-51.09 625,-51.09 625,-70.09"/>
<text text-anchor="middle" x="573.5" y="-58.09" font-family="Helvetica,sans-Serif" font-size="10.00">drawHomeScreen</text>
</a>
</g>
</g>
<!-- Node1&#45;&gt;Node2 -->
<g id="edge1_Node000001_Node000002" class="edge">
<title>Node1&#45;&gt;Node2</title>
<g id="a_edge1_Node000001_Node000002"><a xlink:title=" ">
<path fill="none" stroke="#63b8ff" d="M682.05,-34.56C660.05,-39.89 634.51,-46.07 613.83,-51.07"/>
<polygon fill="#63b8ff" stroke="#63b8ff" points="682.99,-37.94 691.88,-32.18 681.34,-31.13 682.99,-37.94"/>
</a>
</g>
</g>
<!-- Node9 -->
<g id="Node000009" class="node">
<title>Node9</title>
<g id="a_Node000009"><a xlink:href="display__ui_8cpp.html#ae8a9d818fdd539d4b669b43222987fc7" target="_top" xlink:title="Renderizza la schermata dettagliata del Meteo.">
<polygon fill="white" stroke="#666666" points="312.5,-33.09 208.5,-33.09 208.5,-14.09 312.5,-14.09 312.5,-33.09"/>
<text text-anchor="middle" x="260.5" y="-21.09" font-family="Helvetica,sans-Serif" font-size="10.00">drawMeteoScreen</text>
</a>
</g>
</g>
<!-- Node1&#45;&gt;Node9 -->
<g id="edge9_Node000001_Node000009" class="edge">
<title>Node1&#45;&gt;Node9</title>
<g id="a_edge9_Node000001_Node000009"><a xlink:title=" ">
<path fill="none" stroke="#63b8ff" d="M650.84,-11.96C575.08,-3.57 458.64,5.22 358,-4.59 338.97,-6.45 318.12,-10.32 300.68,-14.08"/>
<polygon fill="#63b8ff" stroke="#63b8ff" points="650.46,-15.44 660.79,-13.09 651.25,-8.48 650.46,-15.44"/>
</a>
</g>
</g>
<!-- Node3 -->
<g id="Node000003" class="node">
<title>Node3</title>
<g id="a_Node000003"><a xlink:href="buttons_8cpp.html#a362a9b2582e0724627b8cd9f2e16f599" target="_top" xlink:title="Funzione di update della logica dei menu. Da chiamare nel loop principale.">
<polygon fill="white" stroke="#666666" points="163,-107.09 74,-107.09 74,-88.09 163,-88.09 163,-107.09"/>
<text text-anchor="middle" x="118.5" y="-95.09" font-family="Helvetica,sans-Serif" font-size="10.00">buttonsUpdate</text>
</a>
</g>
</g>
<!-- Node2&#45;&gt;Node3 -->
<g id="edge2_Node000002_Node000003" class="edge">
<title>Node2&#45;&gt;Node3</title>
<g id="a_edge2_Node000002_Node000003"><a xlink:title=" ">
<path fill="none" stroke="#63b8ff" d="M554.32,-76.88C537.83,-90.49 512.15,-108.87 486,-116.59 368.84,-151.21 221.57,-123.31 155.03,-107.12"/>
<polygon fill="#63b8ff" stroke="#63b8ff" points="556.73,-79.43 562.07,-70.28 552.18,-74.1 556.73,-79.43"/>
</a>
</g>
</g>
<!-- Node5 -->
<g id="Node000005" class="node">
<title>Node5</title>
<g id="a_Node000005"><a xlink:href="buttons_8cpp.html#a476aa2a0a9fd2be3bedddd06747816c4" target="_top" xlink:title="Azione eseguita al rilevamento della combo LEFT+RIGHT. Esegue il toggle tra modalità Home (Ambient) e...">
<polygon fill="white" stroke="#666666" points="475.5,-107.09 368.5,-107.09 368.5,-88.09 475.5,-88.09 475.5,-107.09"/>
<text text-anchor="middle" x="422" y="-95.09" font-family="Helvetica,sans-Serif" font-size="10.00">onLeftRightCombo</text>
</a>
</g>
</g>
<!-- Node2&#45;&gt;Node5 -->
<g id="edge4_Node000002_Node000005" class="edge">
<title>Node2&#45;&gt;Node5</title>
<g id="a_edge4_Node000002_Node000005"><a xlink:title=" ">
<path fill="none" stroke="#63b8ff" d="M524.04,-72.59C503.82,-77.59 480.67,-83.32 461.63,-88.03"/>
<polygon fill="#63b8ff" stroke="#63b8ff" points="525.13,-75.92 534,-70.12 523.45,-69.13 525.13,-75.92"/>
</a>
</g>
</g>
<!-- Node7 -->
<g id="Node000007" class="node">
<title>Node7</title>
<g id="a_Node000007"><a xlink:href="main_8cpp.html#a4fc01d736fe50cf5b977f755b675f11d" target="_top" xlink:title="Configurazione iniziale per il Core 0.">
<polygon fill="white" stroke="#666666" points="444,-70.09 400,-70.09 400,-51.09 444,-51.09 444,-70.09"/>
<text text-anchor="middle" x="422" y="-58.09" font-family="Helvetica,sans-Serif" font-size="10.00">setup</text>
</a>
</g>
</g>
<!-- Node2&#45;&gt;Node7 -->
<g id="edge7_Node000002_Node000007" class="edge">
<title>Node2&#45;&gt;Node7</title>
<g id="a_edge7_Node000002_Node000007"><a xlink:title=" ">
<path fill="none" stroke="#63b8ff" d="M511.79,-60.59C487.89,-60.59 462,-60.59 444.38,-60.59"/>
<polygon fill="#63b8ff" stroke="#63b8ff" points="511.89,-64.09 521.89,-60.59 511.89,-57.09 511.89,-64.09"/>
</a>
</g>
</g>
<!-- Node8 -->
<g id="Node000008" class="node">
<title>Node8</title>
<g id="a_Node000008"><a xlink:href="display__ui_8cpp.html#a326e6bbb9afdeb1b938398087d9408a5" target="_top" xlink:title="Gestisce il timeout del display per l&#39;inattività utente.">
<polygon fill="white" stroke="#666666" points="486,-33.09 358,-33.09 358,-14.09 486,-14.09 486,-33.09"/>
<text text-anchor="middle" x="422" y="-21.09" font-family="Helvetica,sans-Serif" font-size="10.00">updateDisplayTimeout</text>
</a>
</g>
</g>
<!-- Node2&#45;&gt;Node8 -->
<g id="edge8_Node000002_Node000008" class="edge">
<title>Node2&#45;&gt;Node8</title>
<g id="a_edge8_Node000002_Node000008"><a xlink:title=" ">
<path fill="none" stroke="#63b8ff" d="M524.04,-48.6C503.82,-43.6 480.67,-37.87 461.63,-33.15"/>
<polygon fill="#63b8ff" stroke="#63b8ff" points="523.45,-52.06 534,-51.06 525.13,-45.26 523.45,-52.06"/>
</a>
</g>
</g>
<!-- Node4 -->
<g id="Node000004" class="node">
<title>Node4</title>
<g id="a_Node000004"><a xlink:href="main_8cpp.html#afe461d27b9c48d5921c00d521181f12f" target="_top" xlink:title="Loop principale del Core 0.">
<polygon fill="white" stroke="#666666" points="38,-107.09 0,-107.09 0,-88.09 38,-88.09 38,-107.09"/>
<text text-anchor="middle" x="19" y="-95.09" font-family="Helvetica,sans-Serif" font-size="10.00">loop</text>
</a>
</g>
</g>
<!-- Node3&#45;&gt;Node4 -->
<g id="edge3_Node000003_Node000004" class="edge">
<title>Node3&#45;&gt;Node4</title>
<g id="a_edge3_Node000003_Node000004"><a xlink:title=" ">
<path fill="none" stroke="#63b8ff" d="M63.83,-97.59C54.59,-97.59 45.59,-97.59 38.17,-97.59"/>
<polygon fill="#63b8ff" stroke="#63b8ff" points="63.88,-101.09 73.88,-97.59 63.88,-94.09 63.88,-101.09"/>
</a>
</g>
</g>
<!-- Node6 -->
<g id="Node000006" class="node">
<title>Node6</title>
<g id="a_Node000006"><a xlink:href="buttons_8cpp.html#a668c3b350a802edf187d6c97a61b4358" target="_top" xlink:title="Verifica la pressione simultanea dei tasti LEFT e RIGHT.">
<polygon fill="white" stroke="#666666" points="322,-107.09 199,-107.09 199,-88.09 322,-88.09 322,-107.09"/>
<text text-anchor="middle" x="260.5" y="-95.09" font-family="Helvetica,sans-Serif" font-size="10.00">checkLeftRightCombo</text>
</a>
</g>
</g>
<!-- Node5&#45;&gt;Node6 -->
<g id="edge5_Node000005_Node000006" class="edge">
<title>Node5&#45;&gt;Node6</title>
<g id="a_edge5_Node000005_Node000006"><a xlink:title=" ">
<path fill="none" stroke="#63b8ff" d="M358.09,-97.59C346.25,-97.59 333.89,-97.59 322.13,-97.59"/>
<polygon fill="#63b8ff" stroke="#63b8ff" points="358.33,-101.09 368.33,-97.59 358.33,-94.09 358.33,-101.09"/>
</a>
</g>
</g>
<!-- Node6&#45;&gt;Node3 -->
<g id="edge6_Node000006_Node000003" class="edge">
<title>Node6&#45;&gt;Node3</title>
<g id="a_edge6_Node000006_Node000003"><a xlink:title=" ">
<path fill="none" stroke="#63b8ff" d="M188.75,-97.59C180.08,-97.59 171.42,-97.59 163.31,-97.59"/>
<polygon fill="#63b8ff" stroke="#63b8ff" points="188.91,-101.09 198.91,-97.59 188.91,-94.09 188.91,-101.09"/>
</a>
</g>
</g>
<!-- Node9&#45;&gt;Node3 -->
<g id="edge10_Node000009_Node000003" class="edge">
<title>Node9&#45;&gt;Node3</title>
<g id="a_edge10_Node000009_Node000003"><a xlink:title=" ">
<path fill="none" stroke="#63b8ff" d="M232.31,-37.97C204.48,-52.68 162,-75.13 137.89,-87.87"/>
<polygon fill="#63b8ff" stroke="#63b8ff" points="234.28,-40.88 241.48,-33.12 231.01,-34.69 234.28,-40.88"/>
</a>
</g>
</g>
</g>
</svg>
